<?xml version="1.0" standalone="no"?>
<!DOCTYPE svg PUBLIC "-//W3C//DTD SVG 1.1//EN" "http://www.w3.org/Graphics/SVG/1.1/DTD/svg11.dtd" >
<svg xmlns="http://www.w3.org/2000/svg" xmlns:xlink="http://www.w3.org/1999/xlink" version="1.1">
<metadata>
Created by FontForge 20170731 at Mon Aug 25 09:13:36 2014
 By Aleksey,,,
Copyright (c) 2014 Indian Type Foundry (info@indiantypefoundry.com)
</metadata>
<defs>
<font id="Halant-Bold" horiz-adv-x="0" >
  <font-face 
    font-family="Halant"
    font-weight="700"
    font-stretch="normal"
    units-per-em="1000"
    panose-1="0 0 8 0 0 0 0 0 0 0"
    ascent="800"
    descent="-200"
    x-height="506"
    cap-height="695"
    bbox="-602 -486 2161 1089"
    underline-thickness="50"
    underline-position="-150"
    unicode-range="U+000D-FB02"
  />
<missing-glyph horiz-adv-x="550" 
d="M0 0v741h550v-741h-550zM75 669v-597h400v597h-400zM275 307h-4l-80 -194h-80l119 260l-119 255h80l85 -191h4l80 191h80l-120 -261l120 -254h-80z" />
    <glyph glyph-name="fi" unicode="fi" horiz-adv-x="674" 
d="M637 102v-20t-4 -37h-275v23.5t5 33.5q31 5 47 17.5t16 41.5v273h-179v-317q25 -15 66 -15v-20t-4 -37h-285v23.5t5 33.5q31 5 47 17.5t16 41.5v267q-18 4 -56 4q-1 9 -1 22t3 28q27 14 54 20v51q0 99 62.5 153t171 54t186.5 -39.5t78 -92.5q0 -33 -25 -53.5t-57 -20.5
t-52 14.5t-33.5 35.5t-27.5 42q-33 49 -83 49h-4q-61 -1 -61 -78v-113q205 3 334 11v-403q24 -10 56 -10z" />
    <glyph glyph-name="fl" unicode="fl" horiz-adv-x="673" 
d="M636 102q1 -5 1 -17.5t-5 -39.5h-275v23.5t5 33.5q31 5 47 17.5t16 41.5v502q-39 24 -86 24q-92 0 -92 -77v-105q65 2 119 10q0 -50 -10 -81h-109v-322q24 -10 56 -10v-17.5t-4 -39.5h-275v23.5t5 33.5q31 5 47 17.5t16 41.5v267q-18 4 -56 4q-1 9 -1 22t3 28
q27 14 54 20v44q0 63 28 108.5t77 69.5q92 45 221 45q88 0 162 -21v-636q24 -10 56 -10z" />
    <glyph glyph-name=".notdef" horiz-adv-x="550" 
d="M0 0v741h550v-741h-550zM75 669v-597h400v597h-400zM275 307h-4l-80 -194h-80l119 260l-119 255h80l85 -191h4l80 191h80l-120 -261l120 -254h-80z" />
    <glyph glyph-name=".null" 
 />
    <glyph glyph-name="nonmarkingreturn" horiz-adv-x="333" 
 />
    <glyph glyph-name="NULL" 
 />
    <glyph glyph-name="NULL" 
 />
    <glyph glyph-name="CR" unicode="&#xd;" horiz-adv-x="250" 
 />
    <glyph glyph-name="space" unicode=" " horiz-adv-x="250" 
 />
    <glyph glyph-name="exclam" unicode="!" horiz-adv-x="438" 
d="M162 696l120 -45l-24 -413h-9l-70 36l-27 422h10zM272.5 47.5q-22.5 -22.5 -53 -22.5t-53 22.5t-22.5 53t22.5 53t53 22.5t53 -22.5t22.5 -53t-22.5 -53z" />
    <glyph glyph-name="quotedbl" unicode="&#x22;" horiz-adv-x="418" 
d="M71 808h119l-31 -233h-56zM229 808h118l-30 -233h-57z" />
    <glyph glyph-name="numbersign" unicode="#" horiz-adv-x="675" 
d="M392 286l34 170h-129l-35 -170h130zM647 456h-121l-35 -170h121v-92h-139l-30 -149h-100l30 149h-129l-30 -149h-100l30 149h-112v92h131l34 170h-130v91h149l29 144h99l-29 -144h130l29 144h99l-29 -144h103v-91z" />
    <glyph glyph-name="dollar" unicode="$" horiz-adv-x="445" 
d="M282.5 534.5q-30.5 17.5 -60 17.5t-49 -12.5t-19.5 -37.5q0 -21 8.5 -29.5t14.5 -13.5t19 -11t23 -10q30 -14 80.5 -34.5t88 -59t37.5 -99.5q0 -84 -48.5 -133.5t-117.5 -59.5v-66h-67v66q-97 9 -187 71l74 114q23 -31 67.5 -58.5t86 -27.5t61 18.5t19.5 44t-15.5 42
t-31.5 24t-54 21.5t-64.5 27.5t-53.5 35.5q-54 42 -54 117.5t47 120.5t114 53v65h67v-67q70 -11 133 -62l-70 -98q-18 24 -48.5 41.5z" />
    <glyph glyph-name="percent" unicode="%" horiz-adv-x="803" 
d="M277 45h-129l388 610h128zM129 493q0 -38 13 -60t34 -22q48 0 48 82q0 43 -12 60t-36 17q-47 0 -47 -77zM75.5 610.5q35.5 44.5 101.5 44.5t101 -44.5t35 -113.5t-34.5 -114.5t-101 -45.5t-102 46.5t-35.5 114.5t35.5 112.5zM608.5 260q-11.5 -17 -11.5 -58t12.5 -62.5
t34.5 -21.5t34.5 20.5t12.5 61.5q0 77 -47 77q-24 0 -35.5 -17zM644 362q66 0 101 -44.5t35 -113.5t-34 -114.5t-100.5 -45.5t-102 46.5t-35.5 115t35 112.5t101 44z" />
    <glyph glyph-name="ampersand" unicode="&#x26;" horiz-adv-x="734" 
d="M200.5 190q41.5 -26 89 -26t88.5 25q-98 77 -164 142q-55 -39 -55 -77t41.5 -64zM263 617q-48 0 -48 -43q0 -48 61 -122q64 52 64 95q0 29 -22 49.5t-55 20.5zM239 32q-82 0 -145.5 48.5t-63.5 116.5q0 54 37 96.5t102 85.5q-67 78 -67 129q0 84 61.5 142t131.5 58
t120.5 -38.5t50.5 -97.5q0 -43 -44 -86q-40 -40 -100 -83q51 -53 138 -123q33 55 69 158h180l-38 -125h-126q-20 -47 -34 -74q77 -59 168 -124l-92 -80q-40 28 -141 102q-84 -105 -207 -105z" />
    <glyph glyph-name="quotesingle" unicode="'" horiz-adv-x="253" 
d="M65 808h119l-31 -233h-56z" />
    <glyph glyph-name="parenleft" unicode="(" horiz-adv-x="395" 
d="M258.5 647.5q-47.5 -128.5 -47.5 -259t47.5 -258.5t143.5 -217l-63 -52q-133 103 -197 240t-64 287.5t64 288t197 240.5l63 -52q-96 -89 -143.5 -217.5z" />
    <glyph glyph-name="parenright" unicode=")" horiz-adv-x="396" 
d="M253.5 676.5q64.5 -137.5 64.5 -288t-64.5 -287.5t-196.5 -240l-64 52q96 89 143.5 217t47.5 258.5t-47.5 259t-143.5 217.5l64 52q132 -103 196.5 -240.5z" />
    <glyph glyph-name="asterisk" unicode="*" horiz-adv-x="478" 
d="M173 717q18 7 37 7q60 0 84 -7l-26 -132l117 64q12 -15 22.5 -56t10.5 -63l-135 -7l99 -88q-11 -18 -45 -42t-55 -28l-47 115l-46 -113q-22 5 -56.5 29t-43.5 42l95 85l-132 7q0 25 10 65t22 54l115 -62z" />
    <glyph glyph-name="plus" unicode="+" horiz-adv-x="678" 
d="M603 294h-202v-203h-9l-114 90v113h-151l-52 104v10h203v202h9l114 -90v-112h150l52 -105v-9z" />
    <glyph glyph-name="comma" unicode="," horiz-adv-x="318" 
d="M79 95l59 97q109 -39 109 -151q1 -57 -25.5 -118t-64.5 -103l-71 33q61 79 60 138t-67 96v8z" />
    <glyph glyph-name="hyphen" unicode="-" horiz-adv-x="629" 
d="M548 294h-421l-52 104v10h421l52 -105v-9z" />
    <glyph glyph-name="period" unicode="." horiz-adv-x="266" 
d="M192.5 57.5q-25.5 -25.5 -60 -25.5t-60 25.5t-25.5 60.5t25 60.5t60 25.5t60.5 -25.5t25.5 -60.5t-25.5 -60.5z" />
    <glyph glyph-name="slash" unicode="/" horiz-adv-x="458" 
d="M260 808h123l-220 -870h-123z" />
    <glyph glyph-name="zero" unicode="0" horiz-adv-x="573" 
d="M225 160q13 -57 63.5 -57t63.5 57q11 50 11 170q0 195 -14 244q-14 47 -36 57q-13 6 -32 6q-49 0 -61 -58q-11 -47 -11 -114q0 -238 16 -305zM533 368q0 -163 -68 -249.5t-179.5 -86.5t-178.5 86.5t-67 249.5t67 252t178.5 89t179.5 -89t68 -252z" />
    <glyph glyph-name="one" unicode="1" horiz-adv-x="368" 
d="M356 102q1 -6 1 -20t-5 -37h-342v23t6 34q48 5 73 17.5t25 41.5v404l-98 -16q-1 7 -1 20t5 23q121 76 217 123l32 -13v-580q33 -15 87 -20z" />
    <glyph glyph-name="two" unicode="2" horiz-adv-x="510" 
d="M352 166q37 0 56 18.5t29 70.5q16 0 34 -8q0 -120 -28 -202h-382q-11 64 -11 103q166 175 185 204t35 57q24 44 24 91t-22.5 72t-56.5 25q-69 0 -89 -87q-8 -1 -20 -1t-29 2q-1 25 -1 62.5t5 78.5q79 56 175 56t149.5 -52.5t53.5 -131.5q0 -38 -11.5 -62.5t-19.5 -38.5
t-26 -34t-31 -34t-41 -39l-48 -43q-19 -17 -57.5 -50.5t-64.5 -56.5h192z" />
    <glyph glyph-name="three" unicode="3" horiz-adv-x="484" 
d="M166 323v62q54 9 81 41.5t27 76t-20.5 69t-53 25.5t-59 -22.5t-35.5 -64.5q-8 -1 -20 -1t-29 2q-1 25 -1 62.5t5 78.5q90 56 196 56q76 0 129 -44.5t53 -108.5q0 -45 -31 -87.5t-89 -73.5q128 -48 128 -166q0 -82 -65.5 -139t-161.5 -57t-187 77q16 43 40 58
q55 -38 125 -38q44 0 71 24.5t27 69t-34 72.5t-96 28z" />
    <glyph glyph-name="four" unicode="4" horiz-adv-x="528" 
d="M277 280v198l-149 -198h149zM411 200v-88q23 -11 61 -11v-20t-4 -36h-259v23.5t5 32.5q32 5 47.5 17t15.5 43v39h-224q-23 34 -30 66l309 429h79v-415h89q6 -28 6 -47.5t-2 -32.5h-93z" />
    <glyph glyph-name="five" unicode="5" horiz-adv-x="485" 
d="M157 429q58 26 123 26t115 -49.5t50 -135.5q0 -105 -69.5 -171.5t-172.5 -66.5t-183 77q18 40 40 58q55 -38 125 -38q47 0 77.5 32t30.5 85.5t-27.5 84t-71 30.5t-104.5 -36l-21 10l35 350h208q64 0 85 50q16 0 34 -8q-1 -74 -28 -163h-232z" />
    <glyph glyph-name="six" unicode="6" horiz-adv-x="523" 
d="M274 112q32 0 55.5 35.5t23.5 85.5q0 62 -32 95t-74 33q-26 0 -48 -8q-5 -34 -5 -60q0 -100 24 -140.5t56 -40.5zM431 102q-67 -70 -159 -70t-155 64q-71 71 -71 194q0 86 42 174t117 154.5t166 101.5q48 -28 46 -58q-149 -65 -203 -238q50 22 112.5 22t113.5 -43
q58 -48 58 -139.5t-67 -161.5z" />
    <glyph glyph-name="seven" unicode="7" horiz-adv-x="451" 
d="M224 45q-16 -2 -42 -2t-67 10l167 405l53 106h-171q-36 0 -55 -19t-29 -70q-23 0 -38 9q0 135 9 201h353q26 -45 32 -96z" />
    <glyph glyph-name="eight" unicode="8" horiz-adv-x="546" 
d="M207 130.5q23 -23.5 62 -23.5t63.5 26t24.5 68q0 79 -91 131q-82 -53 -82 -143q0 -35 23 -58.5zM336.5 605q-17.5 28 -58 28t-59 -21t-18.5 -55q0 -68 96 -121q57 53 57 105q0 36 -17.5 64zM506 212q0 -70 -67.5 -125t-168 -55t-165.5 50t-65 117q0 54 41 93t111 77
q-143 78 -143 158t68 130.5t165 50.5t156 -47t59 -118q0 -46 -29.5 -80.5t-90.5 -70.5q129 -79 129 -180z" />
    <glyph glyph-name="nine" unicode="9" horiz-adv-x="498" 
d="M275 381q25 0 49 8q2 23 2 48t-4.5 72.5t-27.5 84t-55 36.5t-52.5 -34t-20.5 -79q0 -69 33.5 -102.5t75.5 -33.5zM396 204q-92 -127 -232 -182q-48 28 -48 58q147 65 194 238q-49 -22 -111.5 -22t-115.5 43q-63 51 -63 142.5t63.5 160t155.5 68.5t157 -64
q78 -76 78 -205.5t-78 -236.5z" />
    <glyph glyph-name="colon" unicode=":" horiz-adv-x="338" 
d="M231 577.5q25 -25.5 25 -61t-25.5 -61t-61 -25.5t-61 25.5t-25.5 61t25.5 61t61.5 25.5t61 -25.5zM230.5 164q25.5 -26 25.5 -61.5t-25.5 -60.5t-61 -25t-61 25t-25.5 60.5t25.5 61.5t61 26t61 -26z" />
    <glyph glyph-name="semicolon" unicode=";" horiz-adv-x="338" 
d="M230.5 436q-25.5 -25 -61 -25t-61 25t-25.5 60.5t25.5 61t61 25.5t61 -25.5t25.5 -61t-25.5 -60.5zM95 93l60 96q109 -40 109 -151q1 -56 -25.5 -117t-64.5 -104l-71 33q61 82 60.5 139.5t-68.5 94.5v9z" />
    <glyph glyph-name="less" unicode="&#x3c;" horiz-adv-x="659" 
d="M153 270l-70 113l409 207l85 -109l-322 -170l311 -129l-39 -69z" />
    <glyph glyph-name="equal" unicode="=" horiz-adv-x="666" 
d="M603 407h-478l-52 104v11h479l51 -105v-10zM603 182h-478l-52 104v11h479l51 -105v-10z" />
    <glyph glyph-name="greater" unicode="&#x3e;" horiz-adv-x="700" 
d="M530 434l69 -113l-409 -208l-85 109l322 170l-311 129l39 69z" />
    <glyph glyph-name="question" unicode="?" horiz-adv-x="561" 
d="M262 24q-31 0 -53 22t-22 53t22 53.5t53 22.5t53.5 -22.5t22.5 -53.5t-22.5 -53t-53.5 -22zM353.5 523q7.5 16 7.5 36t-17.5 34.5t-46.5 14.5q-60 0 -129 -52l-79 99q61 58 148.5 58t158 -59.5t70.5 -139.5q0 -76 -79 -128q-30 -20 -84 -44v-108h-9l-82 39v152
q8 4 31 14.5t34.5 16.5t30.5 18t28.5 22.5t17 26.5z" />
    <glyph glyph-name="at" unicode="@" horiz-adv-x="993" 
d="M540 151v113q-42 -1 -67.5 -24.5t-25.5 -53.5t11.5 -45t37 -15t44.5 25zM693 350v-155q0 -74 43 -74q28 0 50 23q41 42 41 165t-82 209t-236 86t-248.5 -96.5t-94.5 -251.5t95.5 -245t259.5 -90q-1 -39 -26 -80q-99 0 -182 34t-137.5 91t-85 131t-30.5 154
q0 188 127.5 316t319.5 128t309 -114.5t117 -280.5q0 -136 -72 -202t-174.5 -66t-134.5 68q-25 -35 -56 -51.5t-85.5 -16.5t-91.5 35.5t-37 94.5q0 80 77 124q66 37 153 37q14 0 28 -1v23q0 67 -77 67q-53 0 -115 -20l-31 47q88 79 211 79q83 0 124 -43.5t41 -124.5z" />
    <glyph glyph-name="A" unicode="A" horiz-adv-x="652" 
d="M213 338h142l-73 246l-7 -35zM338 45q0 36 3 57q48 11 77 25l-42 142h-184l-45 -154q23 -13 81 -13q0 -30 -4 -57h-224v20.5t3 36.5q30 9 45.5 24t25.5 42l171 526q61 12 161 14l170 -543q12 -36 26.5 -49t48.5 -14q0 -17 -4 -57h-309z" />
    <glyph glyph-name="B" unicode="B" horiz-adv-x="661" 
d="M271 108h43q133 0 133 117.5t-133 117.5h-43v-235zM271 406h70q35 15 57.5 45.5t22.5 76t-31 75.5t-83 30h-36v-227zM307 695q143 0 210.5 -48.5t67.5 -127.5q0 -91 -89 -133q114 -41 114 -161q0 -87 -73 -133.5t-216 -46.5h-278v23.5t5 33.5q31 5 47 17.5t16 42.5v466
q-26 11 -70 11q-1 7 -1 20t5 36h262z" />
    <glyph glyph-name="C" unicode="C" horiz-adv-x="628" 
d="M363 32q-128 0 -220.5 87.5t-92.5 245t100 251t249 93.5q130 0 193 -36q-4 -88 -23 -190q-48 0 -51 1q-3 63 -34.5 102t-97.5 39t-115.5 -63.5t-49.5 -185t54.5 -181.5t144 -60t150.5 43l35 -40q-42 -47 -107 -76.5t-135 -29.5z" />
    <glyph glyph-name="D" unicode="D" horiz-adv-x="712" 
d="M271 108h51q91 0 137.5 67t46.5 195q0 263 -192 263h-43v-525zM335 695q149 0 245.5 -85.5t96.5 -239.5t-92 -239.5t-234 -85.5h-308v23.5t5 33.5q31 5 47 17.5t16 42.5v466q-26 11 -70 11q-1 7 -1 20t5 36h290z" />
    <glyph glyph-name="E" unicode="E" horiz-adv-x="598" 
d="M483 192l5 48v3q11 1 31 1t39 -5q5 -66 5 -115t-1 -79h-521v23t6 34q31 5 47 17.5t16 42.5v466q-25 11 -71 11v20.5t5 35.5h511v-71.5t-6 -114.5q-24 -2 -67 -2q-7 74 -16 92q-15 34 -62 34h-134v-231l132 14h44v-88h-44l-132 9v-229h135q37 0 56 22q8 9 14 29.5t8 32.5z
" />
    <glyph glyph-name="F" unicode="F" horiz-adv-x="570" 
d="M555 695v-71.5t-6 -114.5q-24 -2 -67 -2q-7 74 -16 92q-15 34 -62 34h-134v-251l132 14h44v-88h-44l-132 9v-196q51 -15 107 -19v-20t-4 -37h-331v23.5t5 33.5q31 5 47 17.5t16 41.5v467q-25 11 -71 11v20.5t5 35.5h511z" />
    <glyph glyph-name="G" unicode="G" horiz-adv-x="715" 
d="M700 373v-23.5t-5 -39.5q-43 -12 -55 -24.5t-12 -36.5v-204h-86l-21 27q-73 -40 -153 -40q-133 0 -225.5 90.5t-92.5 244t106 248t250 94.5q121 0 233 -35q-5 -86 -24 -184h-16.5t-34.5 1q-14 63 -55 98t-104 35q-82 0 -133 -65t-51 -190t48 -189t133 -64q45 0 88 20v163
q-33 11 -88 11q0 38 4 63h294z" />
    <glyph glyph-name="H" unicode="H" horiz-adv-x="773" 
d="M662 579v-467q23 -10 70 -10q1 -6 1 -20t-5 -37h-295v23.5t5 33.5q32 5 47.5 17.5t15.5 42.5v167h-231v-217q23 -10 70 -10q1 -6 1 -20t-5 -37h-295v23t6 34q31 5 47 17.5t16 42.5v466q-25 11 -71 11v20.5t5 35.5h294v-23.5t-5 -32.5q-31 -5 -47 -17.5t-16 -42.5v-173
h231v222q-25 11 -70 11v20t4 36h295v-23.5t-5 -32.5q-32 -5 -47.5 -17.5t-15.5 -42.5z" />
    <glyph glyph-name="I" unicode="I" horiz-adv-x="382" 
d="M270 579v-467q23 -10 70 -10q1 -6 1 -20t-5 -37h-295v23t6 34q31 5 47 17.5t16 42.5v466q-25 11 -71 11v20.5t5 35.5h294v-23.5t-5 -32.5q-31 -5 -47 -17.5t-16 -42.5z" />
    <glyph glyph-name="J" unicode="J" horiz-adv-x="376" 
d="M339 695v-23.5t-5 -32.5q-31 -5 -47 -17.5t-16 -42.5v-454q0 -114 -68 -186t-179 -104q-26 19 -45 46q78 44 105 96t27 148v503q-25 11 -71 11v20.5t5 35.5h294z" />
    <glyph glyph-name="K" unicode="K" horiz-adv-x="792" 
d="M706 102q1 -7 1 -20.5t-6 -36.5h-212l-164 255q-12 19 -25 22l-30 -28v-182q23 -10 70 -10q1 -6 1 -20t-5 -37h-295v23t6 34q31 5 47 17.5t16 42.5v466q-25 11 -71 11v20.5t5 35.5h294v-23.5t-5 -32.5q-31 -5 -47 -17.5t-16 -42.5v-196l255 245q-23 12 -68 12
q-3 10 -3 24t7 31h243q0 -38 -3 -55q-62 0 -115 -49l-172 -162q33 -13 66 -63l130 -202q23 -37 42 -48.5t54 -13.5z" />
    <glyph glyph-name="L" unicode="L" horiz-adv-x="573" 
d="M271 107h143q31 0 47.5 17.5t20 33t6 42.5t3.5 33q21 0 57 -3q7 -80 7 -123t-1 -62h-511v23.5t5 33.5q31 5 47 17.5t16 42.5v466q-23 11 -70 11q-1 7 -1 20t5 36h294q1 -8 1 -22t-6 -34q-31 -5 -47 -17.5t-16 -42.5v-472z" />
    <glyph glyph-name="M" unicode="M" horiz-adv-x="925" 
d="M894 102q2 -14 2 -29t-1 -28h-324q-2 16 -2 30.5t1 26.5q58 10 73 29q11 13 11 31v413l-208 -530h-43l-186 528l-26 -464q24 -7 74 -7q-2 -32 -7 -57h-228q2 42 6 57q20 4 31 7.5t22.5 17t12.5 34.5l20 468q-30 11 -60 11v16.5t7 38.5h261l124 -373l146 373h255
q2 -14 2 -28t-1 -27q-49 -9 -57 -32q-4 -11 -3 -27l20 -473q25 -6 78 -6z" />
    <glyph glyph-name="N" unicode="N" horiz-adv-x="772" 
d="M717 695v-23.5t-5 -32.5q-31 -5 -47 -17.5t-16 -42.5v-534h-68l-305 386l-67 96v-415q23 -10 70 -10q1 -6 1 -20t-5 -37h-221v23.5t5 33.5q31 5 47 17.5t16 42.5v472q-22 6 -74 6q2 36 7 55h216l237 -300l54 -79v312q-25 11 -70 11v20t4 36h221z" />
    <glyph glyph-name="O" unicode="O" horiz-adv-x="712" 
d="M351 645q-58 0 -83.5 -63t-25.5 -203q0 -157 29.5 -220.5t87.5 -63.5t85 61t27 203q0 156 -31 221t-89 65zM355 31q-135 0 -220 92.5t-85 244.5t85 246.5t220 94.5t221.5 -94.5t86.5 -246t-86.5 -244.5t-221.5 -93z" />
    <glyph glyph-name="P" unicode="P" horiz-adv-x="611" 
d="M271 373h36q60 0 93 34t33 96t-32.5 95.5t-93.5 33.5h-36v-259zM335 311h-64v-190q35 -15 87 -19v-20.5t-5 -36.5h-310v23.5t5 33.5q31 5 47 17.5t16 42.5v466q-26 11 -70 11q-1 7 -1 20t5 36h289q118 0 194 -53.5t76 -139.5t-75.5 -138.5t-193.5 -52.5z" />
    <glyph glyph-name="Q" unicode="Q" horiz-adv-x="712" 
d="M299.5 122.5q23.5 -19.5 59 -19.5t59.5 19q53 45 53 223q0 225 -61 273q-24 19 -59.5 19t-58.5 -19q-51 -44 -51 -207q0 -20 1 -63t5.5 -85t16.5 -81.5t35.5 -59zM724 35q1 -13 1 -31.5t-4 -49t-18 -65t-42 -56.5t-67.5 -22t-79 20.5t-66.5 45.5q-71 66 -126.5 66
t-64.5 -62h-26q-17 34 -17 70.5t15.5 55t47.5 33.5q-104 26 -165.5 113t-61.5 215q0 152 85 246.5t220 94.5t221.5 -94.5t86.5 -241t-81 -245t-203 -112.5q34 -6 105.5 -32t113 -26t68.5 22t32 58z" />
    <glyph glyph-name="R" unicode="R" horiz-adv-x="702" 
d="M270 403h57q49 0 77.5 28.5t28.5 86.5t-28.5 86t-77.5 28h-57v-229zM671 108q0 -33 -6 -63h-195l-124 263q-15 33 -44 33h-32v-221q38 -14 86 -18q1 -5 1 -17.5t-5 -39.5h-311v23t6 34q31 5 47 17.5t16 42.5v466q-25 11 -71 11v20.5t5 35.5h310q116 0 182.5 -46.5
t66.5 -130.5q0 -59 -34.5 -100.5t-98.5 -61.5q32 -19 57 -68l58 -116q19 -38 37.5 -51t48.5 -13z" />
    <glyph glyph-name="S" unicode="S" horiz-adv-x="548" 
d="M505 229q0 -91 -70.5 -144.5t-167.5 -53.5q-68 0 -201 31q-1 22 -1 70t9 134q29 0 67 -6v-9q0 -146 131 -146q43 0 67.5 18.5t24.5 53t-22 61.5t-55.5 44t-72.5 39t-72.5 45.5t-55.5 64.5t-22 95q0 87 63.5 135t153.5 48t190 -29q0 -75 -14 -175q-27 0 -52 3
q-18 131 -114 131q-40 0 -67 -19t-27 -52t23 -59.5t57 -43t74 -38t74 -44t57 -62.5t23 -92z" />
    <glyph glyph-name="T" unicode="T" horiz-adv-x="590" 
d="M573 695q6 -47 6 -92t-2 -81q-15 -6 -30 -6t-24 1q-5 65 -25.5 90t-61.5 25h-62v-520q27 -10 69 -10v-20t-4 -37h-292v23t6 34q30 5 45.5 17.5t15.5 42.5v470h-62q-41 0 -61.5 -25t-25.5 -90q-9 -1 -23.5 -1t-31.5 6q-2 32 -2 76.5t7 96.5h558z" />
    <glyph glyph-name="U" unicode="U" horiz-adv-x="729" 
d="M711 695v-23.5t-5 -32.5q-32 -5 -47.5 -17.5t-15.5 -42.5v-332q0 -111 -74 -163t-203 -52t-202 52t-73 163v381q-25 11 -70 11q-1 6 -1 18.5t5 37.5h294v-23.5t-5 -32.5q-31 -5 -47 -17.5t-16 -42.5v-332q0 -76 30 -108t85 -32q116 0 116 140v381q-25 11 -70 11v20t4 36
h295z" />
    <glyph glyph-name="V" unicode="V" horiz-adv-x="680" 
d="M1 640q-5 24 -5 37v18h314q4 -14 4 -29.5t-1 -25.5q-73 -6 -73 -43q0 -12 7 -28l122 -280q12 -28 20 -66h4l163 402q-40 14 -77 15q0 42 3 55h203q-3 -27 -10 -55q-46 -10 -67 -59l-234 -542h-63l-256 591q-21 9 -54 10z" />
    <glyph glyph-name="W" unicode="W" horiz-adv-x="988" 
d="M983 695v-18.5t-3 -36.5q-25 -5 -40 -18t-24 -41l-189 -542h-63l-157 402l-179 -402h-63l-202 592q-23 7 -54 9q-4 22 -4 35t1 20h319q7 -29 7 -55q-50 -4 -62.5 -17t-12.5 -26.5t5 -27.5l85 -250q9 -24 12 -59h3l178 405h63l123 -338q14 -38 15 -67h3l119 368
q-38 11 -59 12q2 30 7 55h172z" />
    <glyph glyph-name="X" unicode="X" horiz-adv-x="643" 
d="M635 102q4 -18 4 -32.5t-1 -24.5h-278q-4 14 -4 57q38 7 38 23q0 5 -4 12l-106 153l-130 -183q18 -3 50 -5q5 -22 5 -35.5t-1 -21.5h-195v19.5t9 37.5h4q44 0 78 45l143 197l-199 288q-19 6 -41 8q-4 20 -4 33.5t2 21.5h278q4 -16 4 -55q-28 -4 -36 -15.5t2 -21.5
l108 -157l134 187q-27 5 -51 6q-4 19 -4 33.5v22.5h196q0 -33 -10 -56q-49 0 -82 -45l-145 -203l193 -281q15 -6 43 -8z" />
    <glyph glyph-name="Y" unicode="Y" horiz-adv-x="675" 
d="M504 102q0 -32 -4 -57h-323v20.5t3 36.5q22 4 33.5 7.5t24 17t12.5 35.5v162l-185 309q-24 7 -38 7h-17q-5 33 -5 55h321q7 -33 7 -55q-66 -6 -66 -40q0 -14 10 -31l103 -189h4q11 40 39 87l95 165q-20 7 -52 8q2 30 7 55h196q-2 -29 -8 -55q-44 -6 -61 -30
q-7 -9 -20 -29l-154 -257v-215q23 -7 78 -7z" />
    <glyph glyph-name="Z" unicode="Z" horiz-adv-x="569" 
d="M407 125q37 0 56 18.5t28 70.5q22 0 38 -9q0 -99 -8 -160h-467q-10 28 -10 48v23l292 500h-168q-36 0 -55 -19t-30 -71q-19 0 -38 8q0 94 9 161h458q10 -27 10 -47v-24l-292 -499h177z" />
    <glyph glyph-name="bracketleft" unicode="[" horiz-adv-x="362" 
d="M212 767v-775h124l78 -116h-235l-100 116v892h257l78 -117h-202z" />
    <glyph glyph-name="backslash" unicode="\" horiz-adv-x="445" 
d="M40 808h124l219 -870h-122z" />
    <glyph glyph-name="bracketright" unicode="]" horiz-adv-x="323" 
d="M148 -8v775h-125l-77 117h235l100 -117v-890h-258l-77 115h202z" />
    <glyph glyph-name="asciicircum" unicode="^" horiz-adv-x="532" 
d="M270.5 663q21.5 0 43.5 -4l177 -390q-34 -18 -90 -24l-135 288l-134 -288q-43 3 -82 24l177 390q22 4 43.5 4z" />
    <glyph glyph-name="underscore" unicode="_" horiz-adv-x="629" 
d="M548 90h-421l-52 104v10h421l52 -105v-9z" />
    <glyph glyph-name="grave" unicode="`" horiz-adv-x="222" 
d="M116 766l96 -185l-40 -24l-162 139v21q17 17 49 33t57 16z" />
    <glyph glyph-name="a" unicode="a" horiz-adv-x="510" 
d="M189 175q0 -22 11.5 -35.5t36 -13.5t44.5 24v110l-28 -9q-64 -20 -64 -76zM464.5 48q-25.5 -16 -63.5 -16t-70.5 15.5t-44.5 42.5q-46 -58 -115.5 -58t-108 36.5t-38.5 93.5q0 104 140 132l117 23v30q0 65 -76 65q-55 0 -115 -20l-32 47q89 80 211 80q83 0 124.5 -44
t41.5 -125v-177q0 -49 31 -49q5 0 37 6l14 -34q-27 -32 -52.5 -48z" />
    <glyph glyph-name="b" unicode="b" horiz-adv-x="564" 
d="M216 116q27 -14 65 -14t66 43.5t28 132.5t-25 122.5t-55 33.5t-51.5 -21t-27.5 -59v-238zM216 456q43 63 126 63t141 -64t58 -176t-77.5 -178.5t-190.5 -66.5q-78 0 -138 47q-30 -31 -69 -46l-23 23q18 50 18 112v500q-11 2 -29.5 2t-37.5 -1q2 37 10 56q96 34 212 38
v-309z" />
    <glyph glyph-name="c" unicode="c" horiz-adv-x="448" 
d="M244 32q-85 0 -152.5 60.5t-67.5 174t76.5 183t185.5 69.5q66 0 131 -28q-1 -53 -16 -145q-19 0 -37 5q-5 44 -27 69t-54 25q-94 0 -94 -159.5t101 -159.5q54 0 128 29l23 -36q-38 -39 -90.5 -63t-106.5 -24z" />
    <glyph glyph-name="d" unicode="d" horiz-adv-x="592" 
d="M291 440q-55 0 -78.5 -34t-23.5 -126q0 -154 89 -154q32 0 57 15v295q-19 4 -44 4zM456 32q-72 0 -107 49q-59 -47 -130.5 -47t-133 59.5t-61.5 174t82 183t214 68.5h15v151q-11 2 -29.5 2t-37.5 -1q2 36 9 56q98 34 213 38v-592q0 -49 30 -49q5 0 37 6l15 -34
q-19 -21 -32 -33q-34 -31 -84 -31z" />
    <glyph glyph-name="e" unicode="e" horiz-adv-x="499" 
d="M270 445q-63 0 -78 -109l78 6l45 2q-1 101 -45 101zM189 282v-2q0 -155 116 -155q61 0 139 30l23 -36q-85 -87 -206 -87q-83 0 -156 56q-36 27 -58.5 73t-22.5 103q0 116 75 185.5t183 69.5q72 0 126 -40q62 -45 62 -156q-8 -24 -20 -41h-261z" />
    <glyph glyph-name="f" unicode="f" horiz-adv-x="367" 
d="M92 553q0 96 55.5 151.5t145.5 55.5q32 0 67 -13t59 -32q-3 -53 -21 -112q-30 0 -52 6q1 9 1 25.5t-11.5 35t-37.5 18.5q-51 0 -51 -78v-105q65 2 119 10q0 -50 -10 -81h-109v-314q38 -14 86 -18v-20t-4 -37h-305v23.5t5 33.5q31 5 47 17.5t16 41.5v267q-24 4 -56 4
q-1 9 -1 22t3 28q27 14 54 20v51z" />
    <glyph glyph-name="g" unicode="g" horiz-adv-x="536" 
d="M212 377q0 -120 55 -120q48 0 47 105q-3 104 -55 104q-47 0 -47 -89zM375 26h-190q-12 0 -34 2q-17 -23 -17 -50q0 -66 132 -66q73 0 113.5 23t40.5 53q0 38 -45 38zM185 145h198q132 0 132 -107q0 -95 -85.5 -170t-212.5 -75q-87 0 -141.5 36.5t-54.5 104.5t77 111
q-47 28 -47 87q0 35 20 62t54 42q-78 44 -78 121.5t61 119.5t149.5 42t144.5 -33q56 48 149 48q2 -8 2 -25.5t-5 -53.5l-97 -12q26 -34 26 -81q0 -73 -60.5 -116t-153.5 -43q-49 0 -90 12q-27 -14 -27 -38q0 -14 11 -23t28 -9z" />
    <glyph glyph-name="h" unicode="h" horiz-adv-x="650" 
d="M557 361v-248q41 -11 67 -11v-20.5t-5 -36.5h-271q-1 8 -1 22t5 35q26 5 38 17t12 42v180q0 39 -18 58.5t-47 19.5q-58 0 -90 -90v-217q24 -10 56 -10v-20t-4 -37h-275v23.5t5 33.5q31 5 47 17.5t16 41.5v509q-11 2 -29 2t-38 -1q2 36 9 56q96 34 213 38v-336
q50 90 155 90q70 0 112.5 -42t42.5 -116z" />
    <glyph glyph-name="i" unicode="i" horiz-adv-x="340" 
d="M231 579.5q-25 -25.5 -61.5 -25.5t-62.5 25.5t-26 62t26 62t62.5 25.5t61.5 -25.5t25 -62t-25 -62zM303 102v-20t-4 -37h-275v23.5t5 33.5q31 5 47 17.5t16 41.5v259q-15 2 -32.5 2t-34.5 -1q2 35 9 56q97 33 213 38v-403q24 -10 56 -10z" />
    <glyph glyph-name="j" unicode="j" horiz-adv-x="317" 
d="M232 579.5q-25 -25.5 -61.5 -25.5t-62.5 25.5t-26 62t26 62t62.5 25.5t61.5 -25.5t25 -62t-25 -62zM93 58v362q-15 2 -32.5 2t-34.5 -1q2 35 9 56q97 33 213 38v-436q0 -97 -56.5 -169t-159.5 -112l-36 49q51 38 74 81.5t23 129.5z" />
    <glyph glyph-name="k" unicode="k" horiz-adv-x="632" 
d="M614 102q1 -7 1 -20.5t-6 -36.5h-191l-111 173q-7 12 -14 17l-46 -46v-77q24 -10 56 -10v-20t-4 -37h-275v23.5t5 33.5q31 5 47 17.5t16 41.5v509q-11 2 -29 2t-38 -1q2 36 9 56q96 34 213 38v-485l159 159q-44 9 -72 22q0 28 6 46h239q0 -38 -3 -55q-66 0 -115 -49
l-71 -71q32 -15 60 -60l68 -108q23 -37 42 -48.5t54 -13.5z" />
    <glyph glyph-name="l" unicode="l" horiz-adv-x="340" 
d="M303 102v-20t-4 -37h-275v23.5t5 33.5q31 5 47 17.5t16 41.5v509q-11 2 -29 2t-38 -1q2 36 9 56q96 34 213 38v-653q24 -10 56 -10z" />
    <glyph glyph-name="m" unicode="m" horiz-adv-x="961" 
d="M868 361v-248q40 -11 66 -11v-20.5t-5 -36.5h-271q-1 8 -1 22t5 35q26 5 38 17t12 42v180q0 78 -64 78q-57 0 -91 -90v-217q24 -10 57 -10v-20.5t-5 -36.5h-261q-1 8 -1 22t5 35q26 5 38 17t12 42v180q0 39 -18 58.5t-47 19.5q-58 0 -90 -90v-217q24 -10 56 -10v-20
t-4 -37h-275v23.5t5 33.5q31 5 47 17.5t16 41.5v258q-15 2 -32.5 2t-34.5 -1q2 35 9 55q91 33 199 39q9 -49 12 -90q48 95 157 95q55 0 94.5 -27t53.5 -77q48 104 162 104q70 0 113 -42t43 -116z" />
    <glyph glyph-name="n" unicode="n" horiz-adv-x="640" 
d="M557 361v-248q41 -11 67 -11v-20.5t-5 -36.5h-271q-1 8 -1 22t5 35q26 5 38 17t12 42v180q0 39 -18 58.5t-47 19.5q-58 0 -90 -90v-217q24 -10 56 -10v-20t-4 -37h-275v23.5t5 33.5q31 5 47 17.5t16 41.5v258q-15 2 -32.5 2t-34.5 -1q2 35 9 55q91 33 199 39
q9 -49 12 -90q48 95 157 95q70 0 112.5 -42t42.5 -116z" />
    <glyph glyph-name="o" unicode="o" horiz-adv-x="551" 
d="M361 252q0 198 -91 198q-81 0 -81 -152v-22q7 -173 93 -173q44 0 61.5 38.5t17.5 110.5zM457.5 457.5q69.5 -61.5 69.5 -181t-70 -181t-182 -61.5t-181.5 61.5t-69.5 181t70 181t182 61.5t181.5 -61.5z" />
    <glyph glyph-name="p" unicode="p" horiz-adv-x="592" 
d="M243 116q27 -14 65 -14t66 43.5t28 132.5t-25 122.5t-54.5 33.5t-51.5 -26t-28 -65v-227zM87 -78v497q-16 2 -33 2t-33 -1q2 35 9 55q91 33 195 39q8 -34 12 -66q47 71 130.5 71t141.5 -64t58 -175t-80 -178.5t-193 -67.5q-29 0 -51 7v-157q38 -19 89 -21q1 -7 1 -20.5
t-5 -36.5h-309v23t6 34q31 5 46.5 17t15.5 42z" />
    <glyph glyph-name="q" unicode="q" horiz-adv-x="563" 
d="M335 426q-20 14 -55.5 14t-63 -36.5t-27.5 -123.5q0 -154 89 -154q32 0 57 15v285zM490 523v-648q39 -11 68 -12v-20.5t-4 -36.5h-308v23.5t5 33.5q50 5 67 16t17 43v148q-52 -36 -111 -36q-77 0 -138.5 59.5t-61.5 173.5t79.5 183t199.5 69q61 0 116 -33q21 21 44 37h27
z" />
    <glyph glyph-name="r" unicode="r" horiz-adv-x="417" 
d="M422 519q5 -17 5 -55t-11 -88q-153 0 -169 -104v-152q36 -14 86 -18v-20t-4 -37h-305v23.5t5 33.5q31 5 47 17.5t16 41.5v258q-15 2 -32.5 2t-34.5 -1q2 35 9 55q91 33 199 39q12 -69 14 -140q24 64 70.5 104.5t104.5 40.5z" />
    <glyph glyph-name="s" unicode="s" horiz-adv-x="421" 
d="M228.5 116.5q18.5 14.5 18.5 38t-31 47t-68.5 41t-68.5 52.5t-31 81q0 71 50.5 107t141.5 36q58 0 123 -21v-48t-6 -84q-26 0 -49 5q2 12 2 23q0 62 -65 62q-23 0 -38.5 -12.5t-15.5 -37t32.5 -46t71 -37t71 -51.5t32.5 -87q0 -66 -58.5 -109.5t-147.5 -43.5t-153 19
q-1 21 -1 55.5t5 86.5q20 0 52 -4v-18t7.5 -33t24.5 -26q23 -10 53 -10t48.5 14.5z" />
    <glyph glyph-name="t" unicode="t" horiz-adv-x="385" 
d="M218 34q-62 0 -99.5 37.5t-37.5 110.5v246q-27 4 -62 4q-1 9 -1 22t3 28q21 10 59 20l124 159l32 -9v-147q64 2 118 10q0 -50 -10 -81h-108l1 -249q0 -28 9.5 -39t35 -11t60.5 24l27 -34q-65 -91 -151 -91z" />
    <glyph glyph-name="u" unicode="u" horiz-adv-x="630" 
d="M532 410v-273q30 -7 57 -7q2 -16 2 -30v-22q-87 -36 -199 -38q-9 48 -12 88q-51 -94 -158 -94q-70 0 -112.5 42t-42.5 116v233q-15 1 -30 1h-27q2 35 9 55q99 34 203 38v-307q0 -39 18 -58t47 -19q58 0 90 90v150q0 38 -11 57t-39 28q4 22 12 36q66 25 138 25q29 0 59 -4
q-4 -36 -4 -107z" />
    <glyph glyph-name="v" unicode="v" horiz-adv-x="542" 
d="M-4 451q-5 21 -5 34t1 21h275q4 -15 4 -55q-37 0 -56 -5l96 -323q6 35 27 97l56 166q6 19 6 30t-3 16q-8 14 -39 19q-6 20 -6 34t1 21h216q1 -28 -12 -55q-33 0 -58 -11l-162 -401h-133l-139 352q-9 28 -23.5 40.5t-45.5 19.5z" />
    <glyph glyph-name="w" unicode="w" horiz-adv-x="767" 
d="M761 506q2 -7 2 -19.5t-8 -34.5q-24 -2 -37 -5l-164 -408h-63l-105 253l-115 -253h-63l-152 405q-17 8 -39 8q-4 19 -4 32t2 22h253q5 -19 5 -54q-34 -3 -41 -14q-4 -6 -4 -14.5t5 -21.5l46 -144q7 -19 10 -42h3l109 270h63l85 -228q6 -16 10 -41h2l65 190q4 12 4 20.5
t-6.5 16.5t-36.5 8v21.5t5 32.5h169z" />
    <glyph glyph-name="x" unicode="x" horiz-adv-x="528" 
d="M538 102q5 -22 5 -35.5t-1 -21.5h-283q-4 17 -4 57q41 0 54 3l-91 113l-93 -111q16 -3 48 -5q5 -20 5 -34.5t-1 -22.5h-193q2 34 11 57q41 0 81 44l102 121l-112 138q-12 16 -19 23q-23 23 -58 23q-5 19 -5 33.5v21.5h284q4 -15 4 -55q-36 0 -54 -4l88 -108l90 106
q-24 5 -46 6q-5 21 -5 34t1 21h192v-20t-10 -35q-41 0 -80 -45l-102 -116l104 -129q6 -8 14 -17l12 -15q5 -6 8 -8t8 -6t9 -5.5t10 -3.5q12 -4 27 -4z" />
    <glyph glyph-name="y" unicode="y" horiz-adv-x="542" 
d="M117 -194h-22q-14 50 -14 85.5t2 54.5h33q44 0 69 11.5t44 40.5l-164 393q-11 28 -24.5 41t-44.5 19q-5 21 -5 34t1 21h275q4 -15 4 -55q-38 0 -56 -5l87 -303q7 35 21 70l71 173q7 19 7 29.5t-3 16.5q-8 14 -40 19q-5 21 -5 34t1 21h203q1 -28 -12 -55q-21 -1 -45 -9
l-227 -491q-66 -145 -156 -145z" />
    <glyph glyph-name="z" unicode="z" horiz-adv-x="481" 
d="M422 506q7 -25 7 -46.5t-3 -39.5l-225 -313h101q37 0 56 18.5t30 70.5q18 0 37 -8v-39t-9 -104h-378q-8 25 -8 47t3 40l228 313h-98q-36 0 -55 -19t-29 -70q-23 0 -38 9q0 75 9 141h372z" />
    <glyph glyph-name="braceleft" unicode="{" horiz-adv-x="560" 
d="M302 622l4 -94q0 -58 -22.5 -91t-69.5 -47q47 -15 69.5 -48t22.5 -91l-4 -93q0 -84 17 -107q23 -32 51 -41q62 -18 131 -20v-77q-23 -1 -59.5 -1t-86 8t-84.5 26.5t-55.5 49.5t-27.5 64.5t-7 79.5l5 86q0 34 -2 51.5t-11 35.5t-29.5 26t-55.5 11v80q69 4 85 36
q9 18 11 35.5t2 51.5l-5 87q0 57 13 97q29 95 144 119q48 10 92.5 10t70.5 -1v-76q-99 -4 -138 -25q-22 -11 -34.5 -22.5t-18.5 -33.5q-8 -34 -8 -86z" />
    <glyph glyph-name="bar" unicode="|" horiz-adv-x="303" 
d="M85 808h123v-870h-123v870z" />
    <glyph glyph-name="braceright" unicode="}" horiz-adv-x="559" 
d="M258 158l-4 93q0 58 22 91t69 48q-91 26 -91 138l4 94q0 94 -28 120q-33 30 -78.5 37.5t-92.5 9.5v76q26 1 70.5 1t101 -12t89.5 -45t45 -72t12 -97l-4 -87q0 -34 2 -51.5t11.5 -35.5t30 -26t55.5 -10v-80q-66 -5 -82.5 -31.5t-16.5 -92.5l4 -86q0 -58 -12 -97.5
t-45 -72.5q-57 -58 -212 -58q-23 0 -49 1v77q98 4 137 24q22 12 34.5 24t18.5 34q9 32 9 86z" />
    <glyph glyph-name="asciitilde" unicode="~" horiz-adv-x="594" 
d="M208 425q37 0 103 -38.5t102.5 -38.5t57.5 18.5t28 63.5h45q-5 -104 -48.5 -156.5t-107.5 -52.5q-32 0 -103 38.5t-106.5 38.5t-57 -18.5t-28.5 -63.5h-43q5 104 49 156.5t109 52.5z" />
    <glyph glyph-name="nbsp" unicode="&#xa0;" horiz-adv-x="250" 
 />
    <glyph glyph-name="exclamdown" unicode="&#xa1;" horiz-adv-x="438" 
d="M166.5 628.5q22.5 22.5 53 22.5t53 -22.5t22.5 -53t-22.5 -53t-53 -22.5t-53 22.5t-22.5 53t22.5 53zM282 25l-120 -45h-10l27 422l70 36h9z" />
    <glyph glyph-name="cent" unicode="&#xa2;" horiz-adv-x="503" 
d="M331 15h-67v65q-87 9 -147.5 61.5t-60.5 152.5t60.5 167t147.5 72v64h67v-66q76 -12 128 -50l-55 -91q-26 29 -51 39t-68.5 10t-76 -35t-32.5 -97t43.5 -103t106 -41t111.5 44l30 -24q-18 -34 -54 -63.5t-82 -38.5v-66z" />
    <glyph glyph-name="sterling" unicode="&#xa3;" horiz-adv-x="571" 
d="M518 207q5 -16 5 -32.5t-0.5 -34t-8.5 -39t-33.5 -39t-68 -17.5t-107.5 10t-105.5 10t-93.5 -16l-20 17l6 8q58 91 58 151q0 32 -12 88h-96v9l23 53h59q-5 28 -5 55q4 87 55.5 140t137 53t183.5 -60l-53 -86q-54 58 -113 58q-91 0 -91 -92q0 -28 7 -68h145v-9l-23 -53
h-112q3 -18 3 -32q0 -94 -45 -140q1 0 13 5.5t33.5 11t47.5 5.5t72 -11t64.5 -11t32 13.5t13.5 51.5z" />
    <glyph glyph-name="currency" unicode="&#xa4;" horiz-adv-x="535" 
d="M268 248q38 0 64 28.5t26 84.5t-25.5 84t-64.5 28t-64.5 -28t-25.5 -84t26 -84.5t64 -28.5zM427 462q30 -44 30 -100t-27 -99l53 -54q-20 -37 -61 -61l-54 55q-44 -27 -99 -27t-101 27l-54 -54q-40 22 -61 61l53 53q-26 45 -26 98.5t29 100.5l-59 59q19 42 62 61l60 -62
q45 25 95.5 25t95.5 -24l60 60q43 -19 62 -61z" />
    <glyph glyph-name="yen" unicode="&#xa5;" horiz-adv-x="572" 
d="M491 353v-9l-23 -48h-115v-52h138v-10l-23 -47h-115v-142h-129v142h-159v9l23 48h136v52h-159v10l23 47h110l-164 260l125 16l130 -238q33 59 114 222h132l-158 -260h114z" />
    <glyph glyph-name="brokenbar" unicode="&#xa6;" horiz-adv-x="293" 
d="M85 288h123v-350h-123v350zM208 458h-123v350h123v-350z" />
    <glyph glyph-name="section" unicode="&#xa7;" horiz-adv-x="591" 
d="M203 281q0 -42 39 -69q29 -19 89 -46q49 14 49 56t-30 67t-91 53q-56 -19 -56 -61zM418 122q93 -57 93 -144.5t-70.5 -136t-167.5 -48.5q-65 0 -201 28q-1 21 -1 64.5t9 120.5q36 0 67 -5v-8q0 -133 131 -133q43 0 67.5 17t24.5 46t-16.5 51t-43 37t-58.5 30t-64 32.5
t-58 38.5q-60 49 -60 131q0 48 28.5 86t75.5 58q-94 60 -94 156q0 79 63.5 122.5t152.5 43.5t191 -26q0 -69 -14 -159q-35 0 -52 2q-18 119 -114 119q-40 0 -67 -17t-27 -47t23 -54t57 -39t74 -34.5t74 -40t57 -57t23 -83.5q0 -99 -103 -151z" />
    <glyph glyph-name="dieresis" unicode="&#xa8;" horiz-adv-x="327" 
d="M298 674q19 -20 19 -47.5t-19 -47.5t-44.5 -20t-44.5 20t-19 47.5t18.5 47.5t44.5 20t45 -20zM118.5 674q19.5 -20 19.5 -47.5t-19.5 -47.5t-45 -20t-44.5 20t-19 47.5t19 47.5t44.5 20t45 -20z" />
    <glyph glyph-name="copyright" unicode="&#xa9;" horiz-adv-x="820" 
d="M567 234q-62 -75 -148 -75t-147 55t-61 150.5t65 154t160 58.5q61 0 119 -27q-6 -64 -28 -129q-11 -2 -22 -2l-22 2q-1 30 -4 44.5t-15.5 25.5t-40.5 11t-54.5 -38t-26.5 -97.5t29 -90.5t73.5 -31t85.5 29zM760 368q0 -160 -99.5 -255t-250 -95t-250.5 95t-100 255
t100 255t250.5 95t250 -95t99.5 -255zM124 368q0 -141 81 -218t206 -77t205 77t80 218t-80 218t-205 77t-206 -77t-81 -218z" />
    <glyph glyph-name="ordfeminine" unicode="&#xaa;" horiz-adv-x="357" 
d="M197 527q-29 0 -47 -16t-18 -37q0 -43 29 -43q22 0 36 17v79zM281 365q-27 0 -49.5 11t-30.5 30q-33 -41 -91 -41q-42 0 -67.5 24.5t-25.5 66.5q0 57 49 85t108 28q11 0 23 -1v17q0 46 -53 46q-39 0 -81 -14l-22 33q62 56 147 56q58 0 87.5 -30.5t29.5 -87.5v-124
q0 -35 21 -35q8 0 26 5l10 -24q-38 -45 -81 -45z" />
    <glyph glyph-name="guillemotleft" unicode="&#xab;" horiz-adv-x="716" 
d="M115 351l184 208l56 -28l-115 -180l115 -180l-56 -30zM358 351l184 208l56 -28l-115 -180l115 -180l-56 -30z" />
    <glyph glyph-name="logicalnot" unicode="&#xac;" horiz-adv-x="709" 
d="M619 488v-243q-19 -4 -38 -4l-38 4v129h-465q-8 28 -8 57t8 57h541z" />
    <glyph glyph-name="registered" unicode="&#xae;" horiz-adv-x="820" 
d="M371 390h32q58 0 58 64q0 36 -13 50t-45 14h-32v-128zM592 229q0 -19 -3 -36h-107l-61 133q-7 19 -24 19h-26v-106q23 -8 48 -10v-8.5t-2 -27.5h-172q0 26 4 36q34 5 34 34v254q-11 5 -39 5q0 28 3 42h171q63 0 100 -30.5t37 -79.5q0 -71 -71 -98q20 -10 37 -41l24 -49
q10 -22 20.5 -29.5t26.5 -7.5zM411 73q125 0 205 77t80 218t-80 218t-205 77t-206 -77t-81 -218t81 -218t206 -77zM160 623q100 95 250.5 95t250 -95t99.5 -255t-99.5 -255t-250 -95t-250.5 95t-100 255t100 255z" />
    <glyph glyph-name="macron" unicode="&#xaf;" horiz-adv-x="271" 
d="M10 569v54h251v-54h-251z" />
    <glyph glyph-name="degree" unicode="&#xb0;" horiz-adv-x="341" 
d="M270.5 489q-40.5 -36 -100 -36t-100 36t-40.5 101t40.5 101.5t99.5 36.5t100 -36.5t41 -101.5t-40.5 -101zM215 591q0 74 -44.5 74t-44.5 -74.5t44 -74.5q20 0 32.5 18.5t12.5 56.5z" />
    <glyph glyph-name="plusminus" unicode="&#xb1;" horiz-adv-x="680" 
d="M75 216h476l52 -105v-9h-476l-52 105v9zM603 392h-202v-149h-9l-114 90v59h-151l-52 105v9h203v149h9l114 -89v-60h150l52 -105v-9z" />
    <glyph glyph-name="twosuperior" unicode="&#xb2;" horiz-adv-x="259" 
d="M174 406q19 0 28.5 9.5t15.5 35.5q16 0 21 -4q0 -63 -14 -104h-199q-6 31 -6 53q79 84 103 116.5t24 62t-11.5 42.5t-29.5 13q-37 0 -46 -46h-30q0 49 3 74q40 29 92 29t80 -27.5t28 -68t-27.5 -74.5t-114.5 -111h83z" />
    <glyph glyph-name="threesuperior" unicode="&#xb3;" horiz-adv-x="253" 
d="M86 486v42q56 8 56 55q0 20 -9.5 33.5t-23.5 13.5q-37 0 -47 -46q-27 0 -32 1q-1 14 -1 33.5t3 40.5q47 28 94 28t74.5 -23t27.5 -57q0 -49 -61 -83q66 -26 66 -86q0 -43 -34.5 -72.5t-88 -29.5t-94.5 35q13 30 25 38q27 -19 65 -19q48 0 48 41q0 55 -68 55z" />
    <glyph glyph-name="acute" unicode="&#xb4;" horiz-adv-x="220" 
d="M108 755q24 0 54.5 -15.5t48.5 -33.5v-20l-162 -140l-40 24l96 185h3z" />
    <glyph glyph-name="uni00B5" unicode="&#xb5;" horiz-adv-x="630" 
d="M532 410v-273q30 -7 57 -7q2 -16 2 -30v-22q-94 -32 -199 -38q-9 48 -12 88q-51 -94 -158 -94v-149q-47 -7 -85.5 -7t-69.5 7v540q-16 2 -33.5 2t-33.5 -1q2 35 9 55q98 34 213 38v-363q18 -21 58 -21q65 0 97 90v150q0 38 -11 57t-39 28q4 22 12 36q66 25 138 25
q29 0 59 -4q-4 -36 -4 -107z" />
    <glyph glyph-name="paragraph" unicode="&#xb6;" horiz-adv-x="521" 
d="M217 695h241v-650h-74v574h-60v-574h-74v226h-34q-88 0 -144.5 58t-56.5 153t57 154t145 59z" />
    <glyph glyph-name="periodcentered" unicode="&#xb7;" horiz-adv-x="293" 
d="M206.5 347.5q-25.5 -25.5 -60 -25.5t-60 25.5t-25.5 60.5t25 60.5t60 25.5t60.5 -25.5t25.5 -60.5t-25.5 -60.5z" />
    <glyph glyph-name="cedilla" unicode="&#xb8;" horiz-adv-x="302" 
d="M292 -85q0 -43 -42 -69t-109 -26t-131 39l23 32q48 -26 89 -26q81 0 81 43q0 31 -49 31q-19 0 -49 -5l27 132h89l-16 -82q46 -3 66.5 -22.5t20.5 -46.5z" />
    <glyph glyph-name="onesuperior" unicode="&#xb9;" horiz-adv-x="230" 
d="M205 381q1 -5 1 -14.5t-4 -23.5h-177q-1 6 -1 16.5t4 21.5q51 6 51 30v190l-51 -8q-3 20 2 34q66 40 113 64l16 -7v-292q17 -7 46 -11z" />
    <glyph glyph-name="ordmasculine" unicode="&#xba;" horiz-adv-x="386" 
d="M133 551q0 -136 64 -136q56 0 56 110q0 133 -64 133q-56 0 -56 -107zM369 536q0 -84 -49 -127t-127.5 -43t-127 43t-48.5 126.5t49 127t127 43.5t127 -43t49 -127z" />
    <glyph glyph-name="guillemotright" unicode="&#xbb;" horiz-adv-x="736" 
d="M119 531l55 28l184 -208l-184 -210l-55 30l114 180zM381 531l56 28l184 -208l-184 -210l-56 30l115 180z" />
    <glyph glyph-name="onequarter" unicode="&#xbc;" horiz-adv-x="762" 
d="M274 314q1 -5 1 -15t-4 -28h-222v18.5t4 24.5q64 6 64 38v248l-64 -10q-1 7 -1 17.5t4 19.5q88 54 141 79l20 -8v-371q25 -10 57 -13zM552 734h61l-370 -726h-61zM572 199v121l-91 -121h91zM531 88l14 2q7 0 10 2t6 3t4 2.5t3 4t3 4.5q1 8 1 14v26h-146q-15 24 -19 43
l201 278h51v-268h58q4 -19 4 -32t-1 -21h-61v-50q15 -8 40 -8q0 -28 -3 -43h-168q-1 7 -1 18.5t4 24.5z" />
    <glyph glyph-name="onehalf" unicode="&#xbd;" horiz-adv-x="814" 
d="M274 314q1 -5 1 -15t-4 -28h-222v18.5t4 24.5q64 6 64 38v248l-64 -10q-1 7 -1 17.5t4 19.5q88 54 141 79l20 -8v-371q25 -10 57 -13zM552 734h61l-370 -726h-61zM686 124q24 0 36 12t19 45q13 0 22 -5q0 -78 -18 -131h-248q-8 43 -8 67q99 104 129 145.5t30 88.5
q0 25 -14.5 41.5t-36.5 16.5q-46 0 -58 -57q-25 0 -32 1q-1 16 -1 41t4 51q49 36 112.5 36t98 -34t34.5 -86q0 -62 -69 -132q-31 -32 -107 -100h107z" />
    <glyph glyph-name="threequarters" unicode="&#xbe;" horiz-adv-x="762" 
d="M137 456v50q70 11 70 71q0 26 -13 42.5t-34.5 16.5t-38.5 -15t-23 -42q-25 0 -32 1q-1 16 -1 41t4 51q58 36 117.5 36t93.5 -29t34 -71q0 -62 -77 -104q83 -32 83 -108q0 -53 -43 -90t-109.5 -37t-118.5 43q17 37 27 44q35 -24 73 -24t55 15.5t17 44t-22 46.5t-62 18z
M553 734h61l-370 -726h-61zM573 199v121l-91 -121h91zM532 88l14 2q7 0 10 2t6 3t4 2.5t3 4t3 4.5q1 8 1 14v26h-146q-15 24 -19 43l201 278h51v-268h58q4 -19 4 -32t-1 -21h-61v-50q15 -8 40 -8q0 -28 -3 -43h-168q-1 7 -1 18.5t4 24.5z" />
    <glyph glyph-name="questiondown" unicode="&#xbf;" horiz-adv-x="561" 
d="M292 668q31 0 53 -22t22 -53t-22 -53.5t-53 -22.5t-53.5 22.5t-22.5 53.5t22.5 53t53.5 22zM200.5 169q-7.5 -16 -7.5 -36t17.5 -34.5t46.5 -14.5q60 0 129 52l79 -99q-61 -58 -148.5 -58t-158 59.5t-70.5 139.5q0 76 79 128q30 20 84 44v108h9l82 -39v-152
q-8 -4 -31 -14.5t-34.5 -16.5t-30.5 -18t-28.5 -22.5t-17 -26.5z" />
    <glyph glyph-name="Agrave" unicode="&#xc0;" horiz-adv-x="652" 
d="M365 815l-40 -24l-162 139v21q17 17 49 33t57 16zM213 383h142l-73 246l-7 -35zM338 90q0 36 3 57q48 11 77 25l-42 142h-184l-45 -154q23 -13 81 -13q0 -30 -4 -57h-224v20.5t3 36.5q30 9 45.5 24t25.5 42l171 526q61 12 161 14l170 -543q12 -36 26.5 -49t48.5 -14
q0 -17 -4 -57h-309z" />
    <glyph glyph-name="Aacute" unicode="&#xc1;" horiz-adv-x="652" 
d="M393 987q24 0 54.5 -15.5t48.5 -33.5v-20l-162 -140l-40 24l96 185h3zM213 383h142l-73 246l-7 -35zM338 90q0 36 3 57q48 11 77 25l-42 142h-184l-45 -154q23 -13 81 -13q0 -30 -4 -57h-224v20.5t3 36.5q30 9 45.5 24t25.5 42l171 526q61 12 161 14l170 -543
q12 -36 26.5 -49t48.5 -14q0 -17 -4 -57h-309z" />
    <glyph glyph-name="Acircumflex" unicode="&#xc2;" horiz-adv-x="652" 
d="M324 863l-140 -81l-33 27l141 153h64l141 -153l-32 -27zM213 383h142l-73 246l-7 -35zM338 90q0 36 3 57q48 11 77 25l-42 142h-184l-45 -154q23 -13 81 -13q0 -30 -4 -57h-224v20.5t3 36.5q30 9 45.5 24t25.5 42l171 526q61 12 161 14l170 -543q12 -36 26.5 -49
t48.5 -14q0 -17 -4 -57h-309z" />
    <glyph glyph-name="Atilde" unicode="&#xc3;" horiz-adv-x="652" 
d="M389 804q-22 0 -64 26.5t-65 26.5q-39 0 -49 -45h-40q5 71 31.5 109.5t71.5 38.5q23 0 65 -26.5t64 -26.5q39 0 49 45h40q-5 -71 -31.5 -109.5t-71.5 -38.5zM213 383h142l-73 246l-7 -35zM338 90q0 36 3 57q48 11 77 25l-42 142h-184l-45 -154q23 -13 81 -13
q0 -30 -4 -57h-224v20.5t3 36.5q30 9 45.5 24t25.5 42l171 526q61 12 161 14l170 -543q12 -36 26.5 -49t48.5 -14q0 -17 -4 -57h-309z" />
    <glyph glyph-name="Adieresis" unicode="&#xc4;" horiz-adv-x="652" 
d="M459 813q-19 -20 -44.5 -20t-44.5 20t-19 47.5t18.5 47.5t44.5 20t45 -20t19 -47.5t-19 -47.5zM279.5 813q-19.5 -20 -45 -20t-44.5 20t-19 47.5t19 47.5t44.5 20t45 -20t19.5 -47.5t-19.5 -47.5zM213 383h142l-73 246l-7 -35zM338 90q0 36 3 57q48 11 77 25l-42 142
h-184l-45 -154q23 -13 81 -13q0 -30 -4 -57h-224v20.5t3 36.5q30 9 45.5 24t25.5 42l171 526q61 12 161 14l170 -543q12 -36 26.5 -49t48.5 -14q0 -17 -4 -57h-309z" />
    <glyph glyph-name="Aring" unicode="&#xc5;" horiz-adv-x="652" 
d="M324 912q-36 0 -36 -42.5t36 -42.5t36 42.5t-36 42.5zM324 788q-47 0 -81 23t-34 59t34 58.5t81 22.5t81 -22.5t34 -58.5t-34 -59t-81 -23zM213 383h142l-73 246l-7 -35zM338 90q0 36 3 57q48 11 77 25l-42 142h-184l-45 -154q23 -13 81 -13q0 -30 -4 -57h-224v20.5
t3 36.5q30 9 45.5 24t25.5 42l171 526q61 12 161 14l170 -543q12 -36 26.5 -49t48.5 -14q0 -17 -4 -57h-309z" />
    <glyph glyph-name="AE" unicode="&#xc6;" horiz-adv-x="920" 
d="M432 338v174l-45 -76l-68 -98h113zM805 192l5 48v3q11 1 31 1t39 -5q5 -66 5 -115t-1 -79h-521v23t6 34q31 5 47 17.5t16 42.5v107h-160l-99 -143q35 -19 65 -19q0 -35 -4 -62h-234v19.5t4 42.5q72 10 111 66l314 456q-24 10 -68 10v20.5t5 35.5h511v-71.5t-6 -114.5
q-24 -2 -67 -2q-7 74 -16 92q-15 34 -62 34h-134v-231l132 14h44v-88h-44l-132 9v-229h135q37 0 56 22q8 9 14 29.5t8 32.5z" />
    <glyph glyph-name="Ccedilla" unicode="&#xc7;" horiz-adv-x="628" 
d="M363 77q-12 0 -34 2l-10 -50q46 -3 66.5 -22.5t20.5 -46.5q0 -43 -42 -69t-109 -26t-131 39l23 32q48 -26 89 -26q81 0 81 43q0 31 -49 31q-19 0 -49 -5l25 120q-87 34 -140.5 113.5t-53.5 196.5q0 158 100 251.5t249 93.5q130 0 193 -36q-4 -88 -23 -190q-48 0 -51 1
q-3 63 -34.5 102t-97.5 39t-115.5 -63.5t-49.5 -185t54.5 -181.5t144 -60t150.5 43l35 -40q-42 -47 -107 -76.5t-135 -29.5z" />
    <glyph glyph-name="Egrave" unicode="&#xc8;" horiz-adv-x="598" 
d="M370 815l-40 -24l-162 139v21q17 17 49 33t57 16zM270 153h135q37 0 56 23q8 8 14 28q7 24 10 52.5t3 31.5h31t39 -4q5 -66 5 -115t-1 -79h-521v23t6 34q31 5 47 17.5t16 42.5v466q-25 11 -71 11v20.5t5 35.5h511v-71.5t-6 -114.5q-24 -2 -67 -2q-7 74 -16 92
q-15 34 -62 34h-134v-231l132 14h44v-88h-44l-132 9v-229z" />
    <glyph glyph-name="Eacute" unicode="&#xc9;" horiz-adv-x="598" 
d="M397 986q24 0 54.5 -15.5t48.5 -33.5v-20l-162 -140l-40 24l96 185h3zM270 153h135q37 0 56 23q8 8 14 28q7 24 10 52.5t3 31.5h31t39 -4q5 -66 5 -115t-1 -79h-521v23t6 34q31 5 47 17.5t16 42.5v466q-25 11 -71 11v20.5t5 35.5h511v-71.5t-6 -114.5q-24 -2 -67 -2
q-7 74 -16 92q-15 34 -62 34h-134v-231l132 14h44v-88h-44l-132 9v-229z" />
    <glyph glyph-name="Ecircumflex" unicode="&#xca;" horiz-adv-x="598" 
d="M328 863l-140 -81l-33 27l141 153h64l141 -153l-32 -27zM270 153h135q37 0 56 23q8 8 14 28q7 24 10 52.5t3 31.5h31t39 -4q5 -66 5 -115t-1 -79h-521v23t6 34q31 5 47 17.5t16 42.5v466q-25 11 -71 11v20.5t5 35.5h511v-71.5t-6 -114.5q-24 -2 -67 -2q-7 74 -16 92
q-15 34 -62 34h-134v-231l132 14h44v-88h-44l-132 9v-229z" />
    <glyph glyph-name="Edieresis" unicode="&#xcb;" horiz-adv-x="598" 
d="M463 813q-19 -20 -44.5 -20t-44.5 20t-19 47.5t18.5 47.5t44.5 20t45 -20t19 -47.5t-19 -47.5zM283.5 813q-19.5 -20 -45 -20t-44.5 20t-19 47.5t19 47.5t44.5 20t45 -20t19.5 -47.5t-19.5 -47.5zM270 153h135q37 0 56 23q8 8 14 28q7 24 10 52.5t3 31.5h31t39 -4
q5 -66 5 -115t-1 -79h-521v23t6 34q31 5 47 17.5t16 42.5v466q-25 11 -71 11v20.5t5 35.5h511v-71.5t-6 -114.5q-24 -2 -67 -2q-7 74 -16 92q-15 34 -62 34h-134v-231l132 14h44v-88h-44l-132 9v-229z" />
    <glyph glyph-name="Igrave" unicode="&#xcc;" horiz-adv-x="382" 
d="M233 815l-40 -24l-162 139v21q17 17 49 33t57 16zM271 624v-467q23 -10 70 -10q1 -7 1 -20.5t-5 -36.5h-295v23t6 34q31 5 47 17.5t16 42.5v466q-25 11 -71 11v20.5t5 35.5h294v-23.5t-5 -32.5q-31 -5 -47 -17.5t-16 -42.5z" />
    <glyph glyph-name="Iacute" unicode="&#xcd;" horiz-adv-x="382" 
d="M270 624v-467q23 -10 70 -10q1 -7 1 -20.5t-5 -36.5h-295v23t6 34q31 5 47 17.5t16 42.5v466q-25 11 -71 11v20.5t5 35.5h294v-23.5t-5 -32.5q-31 -5 -47 -17.5t-16 -42.5zM259 987q24 0 54.5 -15.5t48.5 -33.5v-20l-162 -140l-40 24l96 185h3z" />
    <glyph glyph-name="Icircumflex" unicode="&#xce;" horiz-adv-x="382" 
d="M191 863l-140 -81l-33 27l141 153h64l141 -153l-32 -27zM271 624v-467q23 -10 70 -10q1 -7 1 -20.5t-5 -36.5h-295v23t6 34q31 5 47 17.5t16 42.5v466q-25 11 -71 11v20.5t5 35.5h294v-23.5t-5 -32.5q-31 -5 -47 -17.5t-16 -42.5z" />
    <glyph glyph-name="Idieresis" unicode="&#xcf;" horiz-adv-x="382" 
d="M326 813q-19 -20 -44.5 -20t-44.5 20t-19 47.5t18.5 47.5t44.5 20t45 -20t19 -47.5t-19 -47.5zM146.5 813q-19.5 -20 -45 -20t-44.5 20t-19 47.5t19 47.5t44.5 20t45 -20t19.5 -47.5t-19.5 -47.5zM271 624v-467q23 -10 70 -10q1 -7 1 -20.5t-5 -36.5h-295v23t6 34
q31 5 47 17.5t16 42.5v466q-25 11 -71 11v20.5t5 35.5h294v-23.5t-5 -32.5q-31 -5 -47 -17.5t-16 -42.5z" />
    <glyph glyph-name="Eth" unicode="&#xd0;" horiz-adv-x="712" 
d="M271 153h51q91 0 137.5 67t46.5 195q0 263 -192 263h-43v-272h107q4 -16 4 -33t-4 -34h-107v-186zM335 740q149 0 245.5 -85.5t96.5 -239.5t-92 -239.5t-234 -85.5h-308v23.5t5 33.5q31 5 47 17.5t16 42.5v132h-75q-4 17 -4 33.5t4 33.5h75v267q-26 11 -70 11q-1 6 -1 20
t5 36h290z" />
    <glyph glyph-name="Ntilde" unicode="&#xd1;" horiz-adv-x="772" 
d="M463 804q-23 0 -65 26.5t-64 26.5q-39 0 -49 -45h-40q5 71 31.5 109.5t71.5 38.5q22 0 64 -26.5t65 -26.5q39 0 49 45h40q-5 -71 -31.5 -109.5t-71.5 -38.5zM717 740v-23.5t-5 -32.5q-31 -5 -47 -17.5t-16 -42.5v-534h-68l-305 386l-67 96v-415q23 -10 70 -10
q1 -7 1 -20.5t-5 -36.5h-221v23.5t5 33.5q31 5 47 17.5t16 42.5v472q-22 6 -74 6q2 36 7 55h216l237 -300l54 -79v312q-25 11 -70 11v20t4 36h221z" />
    <glyph glyph-name="Ograve" unicode="&#xd2;" horiz-adv-x="712" 
d="M302 1000l96 -185l-40 -24l-162 139v21q17 17 49 33t57 16zM351 690q-58 0 -83.5 -63t-25.5 -203q0 -157 29.5 -220.5t87.5 -63.5t85 61t27 203q0 156 -31 221t-89 65zM355 76q-135 0 -220 92.5t-85 244.5t85 246.5t220 94.5t221.5 -94.5t86.5 -246t-86.5 -244.5
t-221.5 -93z" />
    <glyph glyph-name="Oacute" unicode="&#xd3;" horiz-adv-x="712" 
d="M351 690q-58 0 -83.5 -63t-25.5 -203q0 -157 29.5 -220.5t87.5 -63.5t85 61t27 203q0 156 -31 221t-89 65zM355 76q-135 0 -220 92.5t-85 244.5t85 246.5t220 94.5t221.5 -94.5t86.5 -246t-86.5 -244.5t-221.5 -93zM425 986q24 0 54.5 -15.5t48.5 -33.5v-20l-162 -140
l-40 24l96 185h3z" />
    <glyph glyph-name="Ocircumflex" unicode="&#xd4;" horiz-adv-x="712" 
d="M351 690q-58 0 -83.5 -63t-25.5 -203q0 -157 29.5 -220.5t87.5 -63.5t85 61t27 203q0 156 -31 221t-89 65zM355 76q-135 0 -220 92.5t-85 244.5t85 246.5t220 94.5t221.5 -94.5t86.5 -246t-86.5 -244.5t-221.5 -93zM529 809l-32 -27l-141 81l-140 -81l-33 27l141 153h64z
" />
    <glyph glyph-name="Otilde" unicode="&#xd5;" horiz-adv-x="712" 
d="M307 960q23 0 65 -26.5t64 -26.5q39 0 49 45h40q-5 -71 -31.5 -109.5t-71.5 -38.5q-22 0 -64 26.5t-65 26.5q-39 0 -49 -45h-40q5 71 31.5 109.5t71.5 38.5zM351 690q-58 0 -83.5 -63t-25.5 -203q0 -157 29.5 -220.5t87.5 -63.5t85 61t27 203q0 156 -31 221t-89 65z
M355 76q-135 0 -220 92.5t-85 244.5t85 246.5t220 94.5t221.5 -94.5t86.5 -246t-86.5 -244.5t-221.5 -93z" />
    <glyph glyph-name="Odieresis" unicode="&#xd6;" horiz-adv-x="712" 
d="M351 690q-58 0 -83.5 -63t-25.5 -203q0 -157 29.5 -220.5t87.5 -63.5t85 61t27 203q0 156 -31 221t-89 65zM355 76q-135 0 -220 92.5t-85 244.5t85 246.5t220 94.5t221.5 -94.5t86.5 -246t-86.5 -244.5t-221.5 -93zM491 908q19 -20 19 -47.5t-19 -47.5t-44.5 -20
t-44.5 20t-19 47.5t18.5 47.5t44.5 20t45 -20zM311.5 908q19.5 -20 19.5 -47.5t-19.5 -47.5t-45 -20t-44.5 20t-19 47.5t19 47.5t44.5 20t45 -20z" />
    <glyph glyph-name="multiply" unicode="&#xd7;" horiz-adv-x="565" 
d="M506 499l-150 -164l148 -170l-65 -42l-135 154l-136 -149l-109 72l162 172l-142 162l66 44l129 -148l139 148z" />
    <glyph glyph-name="Oslash" unicode="&#xd8;" horiz-adv-x="712" 
d="M452 180q19 62 19 165q0 12 -1 46t-3 63l-206 -265q26 -86 97 -86t94 77zM258 559q-17 -59 -17 -148q0 -59 5 -128l205 264q-27 90 -99 90t-94 -78zM584 605q79 -93 79 -240.5t-86.5 -240.5t-221.5 -93q-110 0 -181 46l-36 -46h-88l72 92q-72 85 -72 241t85 250.5
t220 94.5q102 0 178 -56l43 55h88z" />
    <glyph glyph-name="Ugrave" unicode="&#xd9;" horiz-adv-x="729" 
d="M408 815l-40 -24l-162 139v21q17 17 49 33t57 16zM711 740v-23.5t-5 -32.5q-32 -5 -47.5 -17.5t-15.5 -42.5v-332q0 -111 -74 -163t-203 -52t-202 52t-73 163v381q-25 11 -70 11q-1 6 -1 19t5 37h294v-23.5t-5 -32.5q-31 -5 -47 -17.5t-16 -42.5v-332q0 -76 30 -108
t85 -32q116 0 116 140v381q-25 11 -70 11v20t4 36h295z" />
    <glyph glyph-name="Uacute" unicode="&#xda;" horiz-adv-x="729" 
d="M436 986q24 0 54.5 -15.5t48.5 -33.5v-20l-162 -140l-40 24l96 185h3zM711 740v-23.5t-5 -32.5q-32 -5 -47.5 -17.5t-15.5 -42.5v-332q0 -111 -74 -163t-203 -52t-202 52t-73 163v381q-25 11 -70 11q-1 6 -1 19t5 37h294v-23.5t-5 -32.5q-31 -5 -47 -17.5t-16 -42.5v-332
q0 -76 30 -108t85 -32q116 0 116 140v381q-25 11 -70 11v20t4 36h295z" />
    <glyph glyph-name="Ucircumflex" unicode="&#xdb;" horiz-adv-x="729" 
d="M367 863l-140 -81l-33 27l141 153h64l141 -153l-32 -27zM711 740v-23.5t-5 -32.5q-32 -5 -47.5 -17.5t-15.5 -42.5v-332q0 -111 -74 -163t-203 -52t-202 52t-73 163v381q-25 11 -70 11q-1 6 -1 19t5 37h294v-23.5t-5 -32.5q-31 -5 -47 -17.5t-16 -42.5v-332
q0 -76 30 -108t85 -32q116 0 116 140v381q-25 11 -70 11v20t4 36h295z" />
    <glyph glyph-name="Udieresis" unicode="&#xdc;" horiz-adv-x="729" 
d="M501 813q-19 -20 -44.5 -20t-44.5 20t-19 47.5t18.5 47.5t44.5 20t45 -20t19 -47.5t-19 -47.5zM321.5 813q-19.5 -20 -45 -20t-44.5 20t-19 47.5t19 47.5t44.5 20t45 -20t19.5 -47.5t-19.5 -47.5zM711 740v-23.5t-5 -32.5q-32 -5 -47.5 -17.5t-15.5 -42.5v-332
q0 -111 -74 -163t-203 -52t-202 52t-73 163v381q-25 11 -70 11q-1 6 -1 19t5 37h294v-23.5t-5 -32.5q-31 -5 -47 -17.5t-16 -42.5v-332q0 -76 30 -108t85 -32q116 0 116 140v381q-25 11 -70 11v20t4 36h295z" />
    <glyph glyph-name="Yacute" unicode="&#xdd;" horiz-adv-x="675" 
d="M443 987q24 0 54.5 -15.5t48.5 -33.5v-20l-162 -140l-40 24l96 185h3zM504 147q0 -32 -4 -57h-323v20.5t3 36.5q22 4 33.5 7.5t24 17t12.5 35.5v162l-185 309q-24 7 -38 7h-17q-5 33 -5 55h321q7 -33 7 -55q-66 -6 -66 -40q0 -13 10 -31l103 -189h4q11 40 39 87l95 165
q-20 7 -52 8q2 30 7 55h196q-2 -29 -8 -55q-44 -6 -61 -30q-7 -9 -20 -29l-154 -257v-215q23 -7 78 -7z" />
    <glyph glyph-name="Thorn" unicode="&#xde;" horiz-adv-x="641" 
d="M270 267h73q53 0 86 28t33 82q0 109 -119 109h-73v-219zM270 550h104q119 0 189 -45t70 -128t-70 -127t-189 -44h-104v-94q23 -10 70 -10q1 -6 1 -20t-5 -37h-295v23t6 34q31 5 47 17.5t16 42.5v466q-25 11 -71 11v20.5t5 35.5h294v-23.5t-5 -32.5q-31 -5 -47 -17.5
t-16 -42.5v-29z" />
    <glyph glyph-name="germandbls" unicode="&#xdf;" horiz-adv-x="687" 
d="M110 162v310q0 223 263 223q109 0 173.5 -50.5t64.5 -125.5q0 -96 -105 -130q62 -19 96 -61t34 -103q0 -78 -58.5 -129t-180.5 -51q-46 0 -75 11q-3 15 -3 30t3 30q17 -8 38 -8q106 0 106 117q0 59 -28 88.5t-78 29.5h-25q-6 21 -6 36.5t4 26.5h41q66 37 66 113
q0 114 -85 114t-85 -114v-474h-229v23t6 34q31 5 47 17.5t16 42.5z" />
    <glyph glyph-name="agrave" unicode="&#xe0;" horiz-adv-x="510" 
d="M305 626l-40 -24l-162 139v21q17 17 49 33t57 16zM189 220q0 -22 11.5 -35.5t36 -13.5t44.5 24v110l-28 -9q-64 -20 -64 -76zM464.5 93q-25.5 -16 -63.5 -16t-70.5 15.5t-44.5 42.5q-46 -58 -115.5 -58t-108 36.5t-38.5 93.5q0 104 140 132l117 23v30q0 65 -76 65
q-55 0 -115 -20l-32 47q89 80 211 80q83 0 124.5 -44t41.5 -125v-177q0 -49 31 -49q5 0 37 6l14 -34q-27 -32 -52.5 -48z" />
    <glyph glyph-name="aacute" unicode="&#xe1;" horiz-adv-x="510" 
d="M333 797q24 0 54.5 -15.5t48.5 -33.5v-20l-162 -140l-40 24l96 185h3zM189 220q0 -22 11.5 -35.5t36 -13.5t44.5 24v110l-28 -9q-64 -20 -64 -76zM464.5 93q-25.5 -16 -63.5 -16t-70.5 15.5t-44.5 42.5q-46 -58 -115.5 -58t-108 36.5t-38.5 93.5q0 104 140 132l117 23v30
q0 65 -76 65q-55 0 -115 -20l-32 47q89 80 211 80q83 0 124.5 -44t41.5 -125v-177q0 -49 31 -49q5 0 37 6l14 -34q-27 -32 -52.5 -48z" />
    <glyph glyph-name="acircumflex" unicode="&#xe2;" horiz-adv-x="510" 
d="M264 674l-140 -81l-33 27l141 153h64l141 -153l-32 -27zM189 220q0 -22 11.5 -35.5t36 -13.5t44.5 24v110l-28 -9q-64 -20 -64 -76zM464.5 93q-25.5 -16 -63.5 -16t-70.5 15.5t-44.5 42.5q-46 -58 -115.5 -58t-108 36.5t-38.5 93.5q0 104 140 132l117 23v30q0 65 -76 65
q-55 0 -115 -20l-32 47q89 80 211 80q83 0 124.5 -44t41.5 -125v-177q0 -49 31 -49q5 0 37 6l14 -34q-27 -32 -52.5 -48z" />
    <glyph glyph-name="atilde" unicode="&#xe3;" horiz-adv-x="510" 
d="M329 615q-23 0 -65 26.5t-64 26.5q-39 0 -49 -45h-40q5 71 31.5 109.5t71.5 38.5q23 0 64.5 -26.5t64.5 -26.5q39 0 49 45h40q-5 -71 -31.5 -109.5t-71.5 -38.5zM189 220q0 -22 11.5 -35.5t36 -13.5t44.5 24v110l-28 -9q-64 -20 -64 -76zM464.5 93q-25.5 -16 -63.5 -16
t-70.5 15.5t-44.5 42.5q-46 -58 -115.5 -58t-108 36.5t-38.5 93.5q0 104 140 132l117 23v30q0 65 -76 65q-55 0 -115 -20l-32 47q89 80 211 80q83 0 124.5 -44t41.5 -125v-177q0 -49 31 -49q5 0 37 6l14 -34q-27 -32 -52.5 -48z" />
    <glyph glyph-name="adieresis" unicode="&#xe4;" horiz-adv-x="510" 
d="M399 624q-19 -20 -44.5 -20t-44.5 20t-19 47.5t18.5 47.5t44.5 20t45 -20t19 -47.5t-19 -47.5zM219.5 624q-19.5 -20 -45 -20t-44.5 20t-19 47.5t19 47.5t44.5 20t45 -20t19.5 -47.5t-19.5 -47.5zM189 220q0 -22 11.5 -35.5t36 -13.5t44.5 24v110l-28 -9q-64 -20 -64 -76
zM464.5 93q-25.5 -16 -63.5 -16t-70.5 15.5t-44.5 42.5q-46 -58 -115.5 -58t-108 36.5t-38.5 93.5q0 104 140 132l117 23v30q0 65 -76 65q-55 0 -115 -20l-32 47q89 80 211 80q83 0 124.5 -44t41.5 -125v-177q0 -49 31 -49q5 0 37 6l14 -34q-27 -32 -52.5 -48z" />
    <glyph glyph-name="aring" unicode="&#xe5;" horiz-adv-x="510" 
d="M264 723q-36 0 -36 -42.5t36 -42.5t36 42.5t-36 42.5zM264 599q-47 0 -81 23t-34 59t34 58.5t81 22.5t81 -22.5t34 -58.5t-34 -59t-81 -23zM189 220q0 -22 11.5 -35.5t36 -13.5t44.5 24v110l-28 -9q-64 -20 -64 -76zM464.5 93q-25.5 -16 -63.5 -16t-70.5 15.5t-44.5 42.5
q-46 -58 -115.5 -58t-108 36.5t-38.5 93.5q0 104 140 132l117 23v30q0 65 -76 65q-55 0 -115 -20l-32 47q89 80 211 80q83 0 124.5 -44t41.5 -125v-177q0 -49 31 -49q5 0 37 6l14 -34q-27 -32 -52.5 -48z" />
    <glyph glyph-name="ae" unicode="&#xe6;" horiz-adv-x="756" 
d="M527 445q-63 0 -78 -109l78 6l45 2q-1 101 -45 101zM189 175q0 -22 11.5 -35.5t29.5 -13.5q41 0 69 46q-16 37 -18 88l-28 -9q-64 -20 -64 -76zM446 282v-2q0 -155 116 -155q61 0 139 30l23 -36q-85 -87 -206 -87q-50 0 -101.5 22.5t-86.5 65.5q-56 -88 -160 -88
q-67 0 -106.5 36.5t-39.5 93.5q0 104 140 132l117 23v30q0 65 -76 65q-55 0 -115 -20l-32 47q89 80 211 80q80 0 122 -42q67 42 148 42q72 0 127 -40q61 -45 61 -156q-8 -24 -20 -41h-261z" />
    <glyph glyph-name="ccedilla" unicode="&#xe7;" horiz-adv-x="448" 
d="M360 -40q0 -43 -42 -69t-109 -26t-131 39l23 32q48 -26 89 -26q81 0 81 43q0 31 -49 31q-19 0 -49 -5l21 104q-72 17 -121 74.5t-49 151.5q0 116 76.5 185.5t185.5 69.5q66 0 131 -28q-1 -53 -16 -145q-19 0 -37 5q-5 44 -27 69t-54 25q-94 0 -94 -159.5t101 -159.5
q54 0 128 29l23 -36q-65 -69 -158 -84l-10 -51q46 -3 66.5 -22.5t20.5 -46.5z" />
    <glyph glyph-name="egrave" unicode="&#xe8;" horiz-adv-x="499" 
d="M320 626l-40 -24l-162 139v21q17 17 49 33t57 16zM270 490q-63 0 -78 -109l78 6l45 2q-1 101 -45 101zM189 327v-2q0 -155 116 -155q61 0 139 30l23 -36q-85 -87 -206 -87q-83 0 -156 55q-36 28 -58.5 74t-22.5 103q0 116 75 185.5t183 69.5q72 0 126 -40q62 -45 62 -156
q-8 -24 -20 -41h-261z" />
    <glyph glyph-name="eacute" unicode="&#xe9;" horiz-adv-x="499" 
d="M347 798q24 0 54.5 -15.5t48.5 -33.5v-20l-162 -140l-40 24l96 185h3zM270 490q-63 0 -78 -109l78 6l45 2q-1 101 -45 101zM189 327v-2q0 -155 116 -155q61 0 139 30l23 -36q-85 -87 -206 -87q-83 0 -156 55q-36 28 -58.5 74t-22.5 103q0 116 75 185.5t183 69.5
q72 0 126 -40q62 -45 62 -156q-8 -24 -20 -41h-261z" />
    <glyph glyph-name="ecircumflex" unicode="&#xea;" horiz-adv-x="499" 
d="M278 674l-140 -81l-33 27l141 153h64l141 -153l-32 -27zM270 490q-63 0 -78 -109l78 6l45 2q-1 101 -45 101zM189 327v-2q0 -155 116 -155q61 0 139 30l23 -36q-85 -87 -206 -87q-83 0 -156 55q-36 28 -58.5 74t-22.5 103q0 116 75 185.5t183 69.5q72 0 126 -40
q62 -45 62 -156q-8 -24 -20 -41h-261z" />
    <glyph glyph-name="edieresis" unicode="&#xeb;" horiz-adv-x="499" 
d="M412 624q-19 -20 -44.5 -20t-44.5 20t-19 47.5t18.5 47.5t44.5 20t45 -20t19 -47.5t-19 -47.5zM232.5 624q-19.5 -20 -45 -20t-44.5 20t-19 47.5t19 47.5t44.5 20t45 -20t19.5 -47.5t-19.5 -47.5zM270 490q-63 0 -78 -109l78 6l45 2q-1 101 -45 101zM189 327v-2
q0 -155 116 -155q61 0 139 30l23 -36q-85 -87 -206 -87q-83 0 -156 55q-36 28 -58.5 74t-22.5 103q0 116 75 185.5t183 69.5q72 0 126 -40q62 -45 62 -156q-8 -24 -20 -41h-261z" />
    <glyph glyph-name="igrave" unicode="&#xec;" horiz-adv-x="340" 
d="M217 626l-40 -24l-162 139v21q17 17 49 33t57 16zM304 147v-20.5t-4 -36.5h-275v23.5t5 33.5q31 5 47 17.5t16 41.5v259q-15 2 -32.5 2t-34.5 -1q2 35 9 56q97 33 213 38v-403q24 -10 56 -10z" />
    <glyph glyph-name="iacute" unicode="&#xed;" horiz-adv-x="340" 
d="M303 147v-20.5t-4 -36.5h-275v23.5t5 33.5q31 5 47 17.5t16 41.5v259q-15 2 -32.5 2t-34.5 -1q2 35 9 56q97 33 213 38v-403q24 -10 56 -10zM243 798q24 0 54.5 -15.5t48.5 -33.5v-20l-162 -140l-40 24l96 185h3z" />
    <glyph glyph-name="icircumflex" unicode="&#xee;" horiz-adv-x="340" 
d="M304 147v-20.5t-4 -36.5h-275v23.5t5 33.5q31 5 47 17.5t16 41.5v259q-15 2 -32.5 2t-34.5 -1q2 35 9 56q97 33 213 38v-403q24 -10 56 -10zM208 773l141 -153l-32 -27l-141 81l-140 -81l-33 27l141 153h64z" />
    <glyph glyph-name="idieresis" unicode="&#xef;" horiz-adv-x="340" 
d="M130.5 624q-19.5 -20 -45 -20t-44.5 20t-19 47.5t19 47.5t44.5 20t45 -20t19.5 -47.5t-19.5 -47.5zM304 147v-20.5t-4 -36.5h-275v23.5t5 33.5q31 5 47 17.5t16 41.5v259q-15 2 -32.5 2t-34.5 -1q2 35 9 56q97 33 213 38v-403q24 -10 56 -10zM265 739q26 0 45 -20
t19 -47.5t-19 -47.5t-44.5 -20t-44.5 20t-19 47.5t18.5 47.5t44.5 20z" />
    <glyph glyph-name="eth" unicode="&#xf0;" horiz-adv-x="542" 
d="M267 103q35 0 57 54t22 144.5t-5 137.5q-21 6 -44 6q-108 0 -108 -162v-17q7 -163 78 -163zM512 325q0 -139 -73.5 -215t-179 -76t-170.5 57t-65 172.5t85 185.5t196 70h24q-11 47 -31 87l-107 -45q-24 20 -32 58l106 44q-24 36 -58 73l45 41q50 -35 93 -81l105 44
q24 -22 33 -57l-93 -39q122 -157 122 -319z" />
    <glyph glyph-name="ntilde" unicode="&#xf1;" horiz-adv-x="640" 
d="M394 615q-23 0 -65 26.5t-64 26.5q-39 0 -49 -45h-40q5 71 31.5 109.5t71.5 38.5q22 0 64 -26.5t65 -26.5q39 0 49 45h40q-5 -71 -31.5 -109.5t-71.5 -38.5zM557 406v-248q41 -11 67 -11v-20.5t-5 -36.5h-271q-1 8 -1 22t5 35q26 5 38 17t12 42v180q0 39 -18 58.5
t-47 19.5q-58 0 -90 -90v-217q24 -10 56 -10v-20.5t-4 -36.5h-275v23.5t5 33.5q31 5 47 17.5t16 41.5v258q-15 2 -32.5 2t-34.5 -1q2 35 9 55q91 33 199 39q9 -49 12 -90q48 95 157 95q70 0 112.5 -42t42.5 -116z" />
    <glyph glyph-name="ograve" unicode="&#xf2;" horiz-adv-x="551" 
d="M221 811l96 -185l-40 -24l-162 139v21q17 17 49 33t57 16zM361 297q0 198 -91 198q-81 0 -81 -152v-22q7 -173 93 -173q44 0 61.5 38.5t17.5 110.5zM457.5 502.5q69.5 -61.5 69.5 -181t-70 -181t-182 -61.5t-181.5 61.5t-69.5 181t70 181t182 61.5t181.5 -61.5z" />
    <glyph glyph-name="oacute" unicode="&#xf3;" horiz-adv-x="551" 
d="M361 297q0 198 -91 198q-81 0 -81 -152v-22q7 -173 93 -173q44 0 61.5 38.5t17.5 110.5zM457.5 502.5q69.5 -61.5 69.5 -181t-70 -181t-182 -61.5t-181.5 61.5t-69.5 181t70 181t182 61.5t181.5 -61.5zM344 798q24 0 54.5 -15.5t48.5 -33.5v-20l-162 -140l-40 24l96 185
h3z" />
    <glyph glyph-name="ocircumflex" unicode="&#xf4;" horiz-adv-x="551" 
d="M361 297q0 198 -91 198q-81 0 -81 -152v-22q7 -173 93 -173q44 0 61.5 38.5t17.5 110.5zM457.5 502.5q69.5 -61.5 69.5 -181t-70 -181t-182 -61.5t-181.5 61.5t-69.5 181t70 181t182 61.5t181.5 -61.5zM448 620l-32 -27l-141 81l-140 -81l-33 27l141 153h64z" />
    <glyph glyph-name="otilde" unicode="&#xf5;" horiz-adv-x="551" 
d="M226 771q22 0 64 -26.5t65 -26.5q39 0 49 45h40q-5 -71 -31.5 -109.5t-71.5 -38.5q-23 0 -65 26.5t-64 26.5q-39 0 -49 -45h-40q5 71 31.5 109.5t71.5 38.5zM361 297q0 198 -91 198q-81 0 -81 -152v-22q7 -173 93 -173q44 0 61.5 38.5t17.5 110.5zM457.5 502.5
q69.5 -61.5 69.5 -181t-70 -181t-182 -61.5t-181.5 61.5t-69.5 181t70 181t182 61.5t181.5 -61.5z" />
    <glyph glyph-name="odieresis" unicode="&#xf6;" horiz-adv-x="551" 
d="M361 297q0 198 -91 198q-81 0 -81 -152v-22q7 -173 93 -173q44 0 61.5 38.5t17.5 110.5zM457.5 502.5q69.5 -61.5 69.5 -181t-70 -181t-182 -61.5t-181.5 61.5t-69.5 181t70 181t182 61.5t181.5 -61.5zM410 719q19 -20 19 -47.5t-19 -47.5t-44.5 -20t-44.5 20t-19 47.5
t18.5 47.5t44.5 20t45 -20zM230.5 719q19.5 -20 19.5 -47.5t-19.5 -47.5t-45 -20t-44.5 20t-19 47.5t19 47.5t44.5 20t45 -20z" />
    <glyph glyph-name="divide" unicode="&#xf7;" horiz-adv-x="685" 
d="M603 294h-476l-52 104v10h476l52 -105v-9zM403.5 101q-25.5 -25 -61.5 -25t-61 25t-25 61t25 61.5t61 25.5t61.5 -25.5t25.5 -61.5t-25.5 -61zM403.5 476q-25.5 -25 -61.5 -25t-61 25.5t-25 60t25 60t61 25.5t61.5 -25.5t25.5 -60.5t-25.5 -60z" />
    <glyph glyph-name="oslash" unicode="&#xf8;" horiz-adv-x="551" 
d="M208 161q22 -58 70 -58t65.5 38.5t17.5 110.5q0 39 -4 76zM270 450q-81 0 -81 -152q0 -38 4 -73l149 168q-22 57 -72 57zM465 450q62 -64 62 -178.5t-70 -176t-182 -61.5q-85 0 -148 36l-31 -35h-72l61 69q-61 63 -61 177.5t70 176t182 61.5q86 0 147 -36l32 36h72z" />
    <glyph glyph-name="ugrave" unicode="&#xf9;" horiz-adv-x="630" 
d="M341 626l-40 -24l-162 139v21q17 17 49 33t57 16zM532 455v-273q30 -7 57 -7q2 -17 2 -31v-21q-87 -36 -199 -38q-9 48 -12 88q-51 -94 -158 -94q-70 0 -112.5 42t-42.5 116v233q-15 1 -30 1h-27q2 35 9 55q99 34 203 38v-307q0 -39 18 -58t47 -19q58 0 90 90v150
q0 38 -11 57t-39 28q4 22 12 36q66 25 138 25q29 0 59 -4q-4 -36 -4 -107z" />
    <glyph glyph-name="uacute" unicode="&#xfa;" horiz-adv-x="630" 
d="M368 798q24 0 54.5 -15.5t48.5 -33.5v-20l-162 -140l-40 24l96 185h3zM532 455v-273q30 -7 57 -7q2 -17 2 -31v-21q-87 -36 -199 -38q-9 48 -12 88q-51 -94 -158 -94q-70 0 -112.5 42t-42.5 116v233q-15 1 -30 1h-27q2 35 9 55q99 34 203 38v-307q0 -39 18 -58t47 -19
q58 0 90 90v150q0 38 -11 57t-39 28q4 22 12 36q66 25 138 25q29 0 59 -4q-4 -36 -4 -107z" />
    <glyph glyph-name="ucircumflex" unicode="&#xfb;" horiz-adv-x="630" 
d="M299 674l-140 -81l-33 27l141 153h64l141 -153l-32 -27zM532 455v-273q30 -7 57 -7q2 -17 2 -31v-21q-87 -36 -199 -38q-9 48 -12 88q-51 -94 -158 -94q-70 0 -112.5 42t-42.5 116v233q-15 1 -30 1h-27q2 35 9 55q99 34 203 38v-307q0 -39 18 -58t47 -19q58 0 90 90v150
q0 38 -11 57t-39 28q4 22 12 36q66 25 138 25q29 0 59 -4q-4 -36 -4 -107z" />
    <glyph glyph-name="udieresis" unicode="&#xfc;" horiz-adv-x="630" 
d="M434 624q-19 -20 -44.5 -20t-44.5 20t-19 47.5t18.5 47.5t44.5 20t45 -20t19 -47.5t-19 -47.5zM254.5 624q-19.5 -20 -45 -20t-44.5 20t-19 47.5t19 47.5t44.5 20t45 -20t19.5 -47.5t-19.5 -47.5zM532 455v-273q30 -7 57 -7q2 -17 2 -31v-21q-87 -36 -199 -38
q-9 48 -12 88q-51 -94 -158 -94q-70 0 -112.5 42t-42.5 116v233q-15 1 -30 1h-27q2 35 9 55q99 34 203 38v-307q0 -39 18 -58t47 -19q58 0 90 90v150q0 38 -11 57t-39 28q4 22 12 36q66 25 138 25q29 0 59 -4q-4 -36 -4 -107z" />
    <glyph glyph-name="yacute" unicode="&#xfd;" horiz-adv-x="542" 
d="M381 798q24 0 54.5 -15.5t48.5 -33.5v-20l-162 -140l-40 24l96 185h3zM117 -149h-22q-14 50 -14 85.5t2 54.5h33q44 0 69 11.5t44 40.5l-164 393q-11 28 -24.5 41t-44.5 19q-5 21 -5 34.5t1 20.5h275q4 -15 4 -55q-38 0 -56 -5l87 -303q7 35 21 70l71 173q7 19 7 29.5
t-3 16.5q-8 14 -40 19q-5 21 -5 34.5t1 20.5h203q1 -28 -12 -55q-21 -1 -45 -9l-227 -491q-66 -145 -156 -145z" />
    <glyph glyph-name="thorn" unicode="&#xfe;" horiz-adv-x="592" 
d="M318 117q83 0 83 158.5t-83 158.5q-22 0 -42 -20t-29 -51v-175q9 -31 29 -51t42 -20zM247 462q46 57 125.5 57t137 -63.5t57.5 -179.5t-57.5 -180t-137 -64t-125.5 57v-205q38 -19 90 -21v-20.5t-4 -36.5h-309v23t6 34q31 5 46.5 17t15.5 42v748q-11 2 -29 2t-38 -1
q2 36 9 56q96 34 213 38v-303z" />
    <glyph glyph-name="ydieresis" unicode="&#xff;" horiz-adv-x="542" 
d="M447 625q-19 -20 -44.5 -20t-44.5 20t-19 47.5t18.5 47.5t44.5 20t45 -20t19 -47.5t-19 -47.5zM267.5 625q-19.5 -20 -45 -20t-44.5 20t-19 47.5t19 47.5t44.5 20t45 -20t19.5 -47.5t-19.5 -47.5zM117 -149h-22q-14 50 -14 85.5t2 54.5h33q44 0 69 11.5t44 40.5l-164 393
q-11 28 -24.5 41t-44.5 19q-5 21 -5 34.5t1 20.5h275q4 -15 4 -55q-38 0 -56 -5l87 -303q7 35 21 70l71 173q7 19 7 29.5t-3 16.5q-8 14 -40 19q-5 21 -5 34.5t1 20.5h203q1 -28 -12 -55q-21 -1 -45 -9l-227 -491q-66 -145 -156 -145z" />
    <glyph glyph-name="dotlessi" unicode="&#x131;" horiz-adv-x="340" 
d="M303 102v-20t-4 -37h-275v23.5t5 33.5q31 5 47 17.5t16 41.5v259q-15 2 -32.5 2t-34.5 -1q2 35 9 56q97 33 213 38v-403q24 -10 56 -10z" />
    <glyph glyph-name="Lslash" unicode="&#x141;" horiz-adv-x="573" 
d="M490 267l1 11q21 0 57 -3q7 -80 7 -122.5t-1 -62.5h-511v23.5t5 33.5q31 5 47 17.5t16 42.5v113l-76 -26q-21 27 -25 64l101 35v280q-23 11 -70 11q-1 6 -1 20t5 36h294q1 -8 1 -22t-6 -34q-31 -5 -47 -17.5t-16 -42.5v-176l97 33q18 -26 26 -63l-123 -42v-224h143
q31 0 47.5 17.5t20.5 32.5q8 38 8 65z" />
    <glyph glyph-name="lslash" unicode="&#x142;" horiz-adv-x="440" 
d="M344 147v-20.5t-4 -36.5h-275v23.5t5 33.5q31 5 47 17.5t16 41.5v145l-82 -27q-21 27 -25 64l107 37v290q-11 2 -29 2t-38 -1q2 36 9 56q96 34 213 38v-332l96 33q17 -24 26 -67l-122 -41v-246q24 -10 56 -10z" />
    <glyph glyph-name="OE" unicode="&#x152;" horiz-adv-x="1000" 
d="M381 637q-140 0 -140 -239q0 -15 1 -54t5.5 -81t16.5 -81q24 -79 95 -79q84 0 134 59v415q-41 60 -112 60zM866 192l5 48v3q11 1 31 1t39 -5q5 -66 5 -115t-1 -79h-433q-88 -14 -157 -14q-135 0 -220 92.5t-85 243.5t93.5 246.5t230.5 95.5q61 0 147 -14h417v-71.5
t-6 -114.5q-24 -2 -67 -2q-7 74 -16 92q-15 34 -62 34h-134v-231l132 14h44v-88h-44l-132 9v-229h135q37 0 56 22q8 9 14 29.5t8 32.5z" />
    <glyph glyph-name="oe" unicode="&#x153;" horiz-adv-x="842" 
d="M614 445q-27 0 -48.5 -26t-29.5 -83l77 6l45 2q-1 101 -44 101zM361 252q0 198 -91 198q-81 0 -81 -152v-22q7 -173 93 -173q44 0 61.5 38.5t17.5 110.5zM533 282v-2q0 -155 116 -155q58 0 129 38l26 -46q-87 -85 -200 -85q-42 0 -85 16.5t-71 49.5q-58 -64 -171.5 -64
t-183 61.5t-69.5 181t70 181t184 61.5t176 -73q65 73 172 73q71 0 126 -40q61 -45 61 -156q-7 -23 -20 -41h-260z" />
    <glyph glyph-name="Scaron" unicode="&#x160;" horiz-adv-x="548" 
d="M505 274q0 -91 -70.5 -144.5t-167.5 -53.5q-68 0 -201 31q-1 22 -1 70t9 134q29 0 67 -6v-9q0 -146 131 -146q43 0 67.5 18.5t24.5 53t-22 61.5t-55.5 44t-72.5 39t-72.5 45.5t-55.5 64.5t-22 95q0 87 63.5 135t153.5 48t190 -29q0 -75 -14 -175q-27 0 -52 3
q-18 131 -114 131q-40 0 -67 -19t-27 -52t23 -59.5t57 -43t74 -38t74 -44t57 -62.5t23 -92zM465 938l-120 -152h-105l-121 152l33 27l140 -110l141 110z" />
    <glyph glyph-name="scaron" unicode="&#x161;" horiz-adv-x="421" 
d="M228.5 161.5q18.5 14.5 18.5 38t-31 47t-68.5 41t-68.5 52.5t-31 81q0 71 50.5 107t141.5 36q58 0 123 -21v-48t-6 -84q-26 0 -49 5q2 12 2 23q0 62 -65 62q-23 0 -38.5 -12.5t-15.5 -37t32.5 -46t71 -37t71 -51.5t32.5 -87q0 -66 -58.5 -109.5t-147.5 -43.5t-153 19
q-1 21 -1 55.5t5 86.5q20 0 52 -4v-18t7.5 -33t24.5 -25q23 -11 53 -11t48.5 14.5zM408 749l-120 -152h-105l-121 152l33 27l140 -110l141 110z" />
    <glyph glyph-name="Ydieresis" unicode="&#x178;" horiz-adv-x="675" 
d="M509 813q-19 -20 -44.5 -20t-44.5 20t-19 47.5t18.5 47.5t44.5 20t45 -20t19 -47.5t-19 -47.5zM329.5 813q-19.5 -20 -45 -20t-44.5 20t-19 47.5t19 47.5t44.5 20t45 -20t19.5 -47.5t-19.5 -47.5zM504 147q0 -32 -4 -57h-323v20.5t3 36.5q22 4 33.5 7.5t24 17t12.5 35.5
v162l-185 309q-24 7 -38 7h-17q-5 33 -5 55h321q7 -33 7 -55q-66 -6 -66 -40q0 -13 10 -31l103 -189h4q11 40 39 87l95 165q-20 7 -52 8q2 30 7 55h196q-2 -29 -8 -55q-44 -6 -61 -30q-7 -9 -20 -29l-154 -257v-215q23 -7 78 -7z" />
    <glyph glyph-name="Zcaron" unicode="&#x17d;" horiz-adv-x="569" 
d="M361 786h-105l-121 152l33 27l140 -110l141 110l32 -27zM407 170q37 0 56 18.5t28 70.5q22 0 38 -9q0 -99 -8 -160h-467q-10 28 -10 48v23l292 500h-168q-36 0 -55 -19t-30 -71q-19 0 -38 8q0 94 9 161h458q10 -27 10 -47.5v-23.5l-292 -499h177z" />
    <glyph glyph-name="zcaron" unicode="&#x17e;" horiz-adv-x="481" 
d="M310 597h-105l-121 152l33 27l140 -110l141 110l32 -27zM422 551q7 -25 7 -46.5t-3 -39.5l-225 -313h101q37 0 56 18.5t30 70.5q18 0 37 -8v-39t-9 -104h-378q-8 25 -8 47t3 40l228 313h-98q-36 0 -55 -19t-29 -70q-23 0 -38 9q0 75 9 141h372z" />
    <glyph glyph-name="florin" unicode="&#x192;" horiz-adv-x="477" 
d="M383 519q44 0 81 -14q-2 -39 -19 -67q-28 17 -58 17q-60 0 -74 -89l-16 -102q65 2 121 10q-8 -53 -24 -81h-108l-31 -193q-16 -98 -71.5 -152.5t-134.5 -54.5q-39 0 -72 14q2 34 17 63q34 -13 51 -13q31 0 41 59l44 271q-24 4 -56 4q5 36 11 50q26 14 56 20l8 51
q15 97 79.5 152t154.5 55z" />
    <glyph glyph-name="circumflex" unicode="&#x2c6;" horiz-adv-x="366" 
d="M356 575l-32 -27l-141 81l-140 -81l-33 27l141 153h64z" />
    <glyph glyph-name="caron" unicode="&#x2c7;" horiz-adv-x="366" 
d="M356 704l-120 -152h-105l-121 152l33 27l140 -110l141 110z" />
    <glyph glyph-name="breve" unicode="&#x2d8;" horiz-adv-x="305" 
d="M248 740h43q4 -17 4 -38q0 -61 -40 -96.5t-102 -35.5t-102.5 35.5t-40.5 96.5q0 21 4 38h43q0 -67 95.5 -67t95.5 67z" />
    <glyph glyph-name="dotaccent" unicode="&#x2d9;" horiz-adv-x="191" 
d="M155.5 632.5q-25.5 -25.5 -60 -25.5t-60 25.5t-25.5 60.5t25 60.5t60 25.5t60.5 -25.5t25.5 -60.5t-25.5 -60.5z" />
    <glyph glyph-name="ring" unicode="&#x2da;" horiz-adv-x="204" 
d="M217 636q0 -36 -34 -59t-81 -23t-81 23t-34 59t34 58.5t81 22.5t81 -22.5t34 -58.5zM102 678q-36 0 -36 -42.5t36 -42.5t36 42.5t-36 42.5z" />
    <glyph glyph-name="ogonek" unicode="&#x2db;" horiz-adv-x="256" 
d="M148 -22q0 -39 47 -39q5 0 37 6l14 -34q-27 -32 -52.5 -48t-69 -16t-79 26t-35.5 70t38.5 82t120.5 61l46 -24q-67 -33 -67 -84z" />
    <glyph glyph-name="tilde" unicode="&#x2dc;" horiz-adv-x="351" 
d="M123 726q23 0 65 -26.5t64 -26.5q39 0 49 45h40q-5 -71 -31.5 -109.5t-71.5 -38.5q-23 0 -64.5 26.5t-64.5 26.5q-39 0 -49 -45h-40q5 71 31.5 109.5t71.5 38.5z" />
    <glyph glyph-name="hungarumlaut" unicode="&#x2dd;" horiz-adv-x="386" 
d="M10 585l78 183q61 -3 107 -25v-19l-128 -149zM160 585l109 183q61 -3 107 -25v-19l-159 -149z" />
    <glyph glyph-name="uni0901" unicode="&#x901;" 
d="M-258 996l91 93l94 -93l-91 -91zM-173 831q82 0 145 120l99 -75q-37 -68 -82.5 -109.5t-115.5 -41.5q-139 0 -251 175l56 41q25 -36 41.5 -55.5t45.5 -37t62 -17.5z" />
    <glyph glyph-name="uni0902" unicode="&#x902;" 
d="M-226 821l91 93l94 -93l-91 -91z" />
    <glyph glyph-name="uni0903" unicode="&#x903;" horiz-adv-x="312" 
d="M83 421l91 93l94 -93l-91 -91zM83 154l91 93l94 -93l-91 -91z" />
    <glyph glyph-name="uni0905" unicode="&#x905;" horiz-adv-x="765" 
d="M296 63q-170 0 -285 296l64 37q46 -97 73 -137t52 -56.5t54 -16.5q50 0 79 29.5t29 71.5q0 23 -13 43q-38 -24 -96 -46l-74 124q160 53 160 116q0 14 -9.5 24.5t-25.5 10.5q-48 0 -103 -65l-97 95q72 93 153 93q63 0 123.5 -70.5t60.5 -138.5q0 -43 -26 -82
q16 -8 43.5 -8t62 16t44.5 34v138h-83l-72 104h370l72 -104h-157v-571l-130 72l7 202q-21 -11 -49 -11t-59 17q6 -19 6 -43q0 -73 -47.5 -123.5t-126.5 -50.5z" />
    <glyph glyph-name="uni0906" unicode="&#x906;" horiz-adv-x="1029" 
d="M917 571v-571l-130 77v494h-122v-571l-130 72l7 202q-21 -11 -49 -11t-59 17q6 -19 6 -43q0 -73 -47.5 -123.5t-126.5 -50.5q-170 0 -285 296l64 37q46 -97 73 -137t52 -56.5t54 -16.5q50 0 79 29.5t29 71.5q0 23 -13 43q-38 -24 -96 -46l-74 124q160 53 160 116
q0 14 -9.5 24.5t-25.5 10.5q-48 0 -103 -65l-97 95q72 93 153 93q63 0 123.5 -70.5t60.5 -138.5q0 -43 -26 -82q16 -8 43.5 -8t62 16t44.5 34v138h-83l-72 104h627l53 -104h-143z" />
    <glyph glyph-name="uni0907" unicode="&#x907;" horiz-adv-x="546" 
d="M454.5 269q53.5 -59 53.5 -117t-50.5 -103.5t-125.5 -61.5l111 -123l-83 -54l-123 172q-58 12 -113.5 54t-55.5 81q0 26 22.5 45.5t49.5 19.5q40 0 104 -83q64 2 118.5 30t54.5 67q0 23 -15 23q-12 0 -64 -19.5t-89 -19.5q-55 0 -120 73.5t-65 133t37 88t91 28.5h143v68
h-330l-72 104h620l71 -104h-163v-188h-236q-29 0 -45.5 -17t-16.5 -42q0 -30 28 -30t77 17t75 17q58 0 111.5 -59z" />
    <glyph glyph-name="uni0908" unicode="&#x908;" horiz-adv-x="544" 
d="M485 879q-42 0 -71.5 -26t-29.5 -75.5t53 -102.5h100l71 -104h-163v-188h-236q-29 0 -45.5 -17t-16.5 -42q0 -30 28 -30t77 17t75 17q58 0 111.5 -59t53.5 -117t-50.5 -103.5t-125.5 -61.5l111 -123l-83 -54l-123 172q-58 12 -113.5 54t-55.5 81q0 26 22.5 45.5
t49.5 19.5q40 0 104 -83q64 2 118.5 30t54.5 67q0 23 -15 23q-12 0 -64 -19.5t-89 -19.5q-55 0 -120 73.5t-65 133t37 88t91 28.5h143v68h-330l-72 104h435q-69 79 -69 163q0 60 42 96.5t107 36.5t123 -46l-27 -53q-21 7 -43 7z" />
    <glyph glyph-name="uni0909" unicode="&#x909;" horiz-adv-x="519" 
d="M207 188q31 -22 72 -22t70.5 27.5t29.5 63t-20 63.5q-48 -25 -119 -35l-72 123q175 24 175 102q0 17 -11.5 35.5t-28.5 25.5h-306l-72 104h620l71 -104h-208q42 -51 42 -107t-31 -96q70 -66 70 -146.5t-48.5 -131.5t-131.5 -51q-51 0 -100 31.5t-87 81.5q-67 91 -108 193
l66 42q65 -156 127 -199z" />
    <glyph glyph-name="uni090A" unicode="&#x90a;" horiz-adv-x="729" 
d="M659 365.5q68 -68.5 68 -137t-43.5 -116t-110.5 -71.5l-83 114q62 17 95 50.5t33 73.5q0 37 -41 37q-32 0 -69.5 -29t-63.5 -64v-8q0 -74 -48 -125t-131 -51q-51 0 -99 32t-85 84q-69 97 -107 195l62 37q88 -220 186 -220q50 0 80.5 28.5t30.5 63t-19 61.5
q-48 -25 -118 -35l-72 123q174 24 174 102q0 18 -12 36.5t-31 24.5h-275l-72 104h792l72 -104h-405q39 -51 39 -107t-31 -96l10 -10q78 76 135 76q71 0 139 -68.5z" />
    <glyph glyph-name="uni090B" unicode="&#x90b;" horiz-adv-x="978" 
d="M577 571v-199q17 -5 37.5 -5t42 6.5t29.5 13.5l8 7q-17 30 -17 53t19.5 41.5t48.5 18.5t63 -40t34 -77.5t-26 -62.5l81 -109l-109 -96q-26 -23 -26 -44t13.5 -35t44.5 -14t56 20.5t50 60.5l74 -66q-12 -40 -47 -71t-90.5 -31t-132 59.5t-76.5 121.5q0 40 34 66l84 69
l-21 28q-30 -11 -79.5 -11t-94.5 18v-293l-125 71v164l-235 -199l-97 77l272 221q-21 28 -53.5 45.5t-66.5 17.5q-71 0 -146 -64l-90 104q83 67 165 67q62 0 119.5 -30t131.5 -115v212h-472l-72 104h1089l72 -104h-492z" />
    <glyph glyph-name="uni090C" unicode="&#x90c;" horiz-adv-x="753" 
d="M512 385q-47 0 -69 -32.5t-22 -84.5t24 -105l-117 41q-31 54 -31 112q0 30 7 54q-22 12 -56.5 12t-60.5 -29t-26 -69.5t14 -74t41 -64.5q42 -50 104 -99l-64 -46q-43 37 -73 66t-67 74q-79 94 -79 185q0 74 46.5 123.5t120.5 49.5t134 -58q44 56 119 56q44 0 96 -35v110
h-552l-72 104h843l72 -104h-161v-491q-106 -53 -131 -85q-11 -15 -11 -35.5t18 -33.5t47 -13t66 18t58 39l80 -76q-31 -35 -75.5 -58t-92.5 -23q-70 0 -141.5 71t-71.5 134q0 43 39 75q32 27 85 59v226q-17 7 -41 7z" />
    <glyph glyph-name="uni090D" unicode="&#x90d;" horiz-adv-x="571" 
d="M502 571v-186q0 -64 -27.5 -107t-84.5 -78l-96 96q44 25 61 44.5t17 50.5v180h-159v-258q0 -35 6 -51t30 -34l194 -152q61 -46 61 -105t-51 -106l-105 83q37 34 37 53.5t-43 55.5l-234 186q-15 13 -20 23t-5 28v277h-89l-62 104h645l62 -104h-137zM270 831q82 0 145 120
l99 -75q-37 -68 -82.5 -109.5t-115.5 -41.5q-139 0 -251 175l56 41q25 -36 41.5 -55.5t45.5 -37t62 -17.5z" />
    <glyph glyph-name="uni090E" unicode="&#x90e;" horiz-adv-x="571" 
d="M502 571v-186q0 -64 -27.5 -107t-84.5 -78l-96 96q44 25 61 44.5t17 50.5v180h-159v-258q0 -35 6 -51t30 -34l194 -152q61 -46 61 -105t-51 -106l-105 83q37 34 37 53.5t-43 55.5l-234 186q-15 13 -20 23t-5 28v277h-89l-62 104h463q-14 39 -43 53.5t-103 14.5h-45
q-127 0 -177 75q-22 33 -48 98l60 41q22 -56 37 -71q29 -29 118 -29h42q127 0 178 -49q26 -25 40 -55t26 -78h97l62 -104h-137z" />
    <glyph glyph-name="uni090F" unicode="&#x90f;" horiz-adv-x="561" 
d="M491 571v-186q0 -64 -27.5 -107t-84.5 -78l-96 96q44 25 61 44.5t17 50.5v180h-159v-258q0 -35 6 -51t30 -34l194 -152q61 -46 61 -105t-51 -106l-105 83q37 34 37 53.5t-43 55.5l-234 186q-15 13 -20 23t-5 28v277h-89l-62 104h645l62 -104h-137z" />
    <glyph glyph-name="uni0910" unicode="&#x910;" horiz-adv-x="571" 
d="M103 886q66 39 114.5 39t88 -21.5t70.5 -61.5q55 -69 100 -167h101l62 -104h-137v-186q0 -64 -27.5 -107t-84.5 -78l-96 96q44 25 61 44.5t17 50.5v180h-159v-258q0 -35 6 -51t30 -34l194 -152q61 -46 61 -105t-51 -106l-105 83q37 34 37 53.5t-43 55.5l-234 186
q-15 13 -20 23t-5 28v277h-89l-62 104h458q-69 127 -132 127q-31 0 -72 -30z" />
    <glyph glyph-name="uni0911" unicode="&#x911;" horiz-adv-x="1029" 
d="M952 571v-571l-130 77v494h-157v-571l-130 72l7 202q-21 -11 -49 -11t-59 17q6 -19 6 -43q0 -73 -47.5 -123.5t-126.5 -50.5q-170 0 -285 296l64 37q46 -97 73 -137t52 -56.5t54 -16.5q50 0 79 29.5t29 71.5q0 23 -13 43q-38 -24 -96 -46l-74 124q160 53 160 116
q0 14 -9.5 24.5t-25.5 10.5q-48 0 -103 -65l-97 95q72 93 153 93q63 0 123.5 -70.5t60.5 -138.5q0 -43 -26 -82q16 -8 43.5 -8t62 16t44.5 34v138h-83l-72 104h662l53 -104h-143zM855 831q82 0 145 120l99 -75q-37 -68 -82.5 -109.5t-115.5 -41.5q-139 0 -251 175l56 41
q25 -36 41.5 -55.5t45.5 -37t62 -17.5z" />
    <glyph glyph-name="uni0912" unicode="&#x912;" horiz-adv-x="1029" 
d="M954 571v-571l-130 77v494h-159v-571l-130 72l7 202q-21 -11 -49 -11t-59 17q6 -19 6 -43q0 -73 -47.5 -123.5t-126.5 -50.5q-170 0 -285 296l64 37q46 -97 73 -137t52 -56.5t54 -16.5q50 0 79 29.5t29 71.5q0 23 -13 43q-38 -24 -96 -46l-74 124q160 53 160 116
q0 14 -9.5 24.5t-25.5 10.5q-48 0 -103 -65l-97 95q72 93 153 93q63 0 123.5 -70.5t60.5 -138.5q0 -43 -26 -82q16 -8 43.5 -8t62 16t44.5 34v138h-83l-72 104h454q-14 39 -43 53.5t-103 14.5h-45q-127 0 -177 75q-22 33 -48 98l60 41q22 -56 37 -71q29 -29 118 -29h42
q127 0 177 -49q27 -25 41 -55t26 -78h125l53 -104h-143z" />
    <glyph glyph-name="uni0913" unicode="&#x913;" horiz-adv-x="1029" 
d="M544 886q66 39 114.5 39t88 -21.5t71.5 -61.5q54 -69 99 -167h127l53 -104h-143v-571l-130 77v494h-159v-571l-130 72l7 202q-21 -11 -49 -11t-59 17q6 -19 6 -43q0 -73 -47.5 -123.5t-126.5 -50.5q-170 0 -285 296l64 37q46 -97 73 -137t52 -56.5t54 -16.5q50 0 79 29.5
t29 71.5q0 23 -13 43q-38 -24 -96 -46l-74 124q160 53 160 116q0 14 -9.5 24.5t-25.5 10.5q-48 0 -103 -65l-97 95q72 93 153 93q63 0 123.5 -70.5t60.5 -138.5q0 -43 -26 -82q16 -8 43.5 -8t62 16t44.5 34v138h-83l-72 104h451q-69 127 -132 127q-31 0 -72 -30z" />
    <glyph glyph-name="uni0914" unicode="&#x914;" horiz-adv-x="1049" 
d="M737 984q45 0 83 -28t63 -76q47 -90 69 -205h112l53 -104h-143v-571l-130 77v494h-179v-571l-130 72l7 202q-21 -11 -49 -11t-59 17q6 -19 6 -43q0 -73 -47.5 -123.5t-126.5 -50.5q-170 0 -285 296l64 37q46 -97 73 -137t52 -56.5t54 -16.5q50 0 79 29.5t29 71.5
q0 23 -13 43q-38 -24 -96 -46l-74 124q160 53 160 116q0 14 -9.5 24.5t-25.5 10.5q-48 0 -103 -65l-97 95q72 93 153 93q63 0 123.5 -70.5t60.5 -138.5q0 -43 -26 -82q16 -8 43.5 -8t62 16t44.5 34v138h-83l-72 104h455q-52 50 -102 50q-33 0 -67 -19l-82 103q38 29 94 29
t117 -46.5t106 -116.5q-43 124 -97 173q-29 25 -52.5 25t-40.5 -7l-50 103q31 15 76 15z" />
    <glyph glyph-name="uni0915" unicode="&#x915;" horiz-adv-x="780" 
d="M264 108q-73 0 -150 79t-77 170q0 76 43.5 114.5t93 38.5t82.5 -15l39 -121q-23 11 -58.5 11t-65 -22t-29.5 -59t24 -57.5t59.5 -20.5t62 19t39.5 52v274h-347l-72 104h892l72 -104h-415q0 -11 -1.5 -38.5t-2.5 -47.5q35 20 82 20q68 0 144 -85.5t76 -168.5
q0 -64 -39.5 -108t-106.5 -44q-45 0 -84 15l-32 126q36 -16 70.5 -16t60 22t25.5 56.5t-22 56t-58 21.5q-71 0 -112 -75v-305l-130 72l4 56q-35 -20 -67 -20z" />
    <glyph glyph-name="uni0916" unicode="&#x916;" horiz-adv-x="755" 
d="M71 410q36 -36 55 -36t19 16v181h-165l-72 104h867l72 -104h-162v-571l-126 71l4 44q-75 -64 -173 -64q-53 0 -103.5 21t-86.5 49t-75 74.5t-61 79.5t-52 82zM273 366q0 -46 -19 -76t-69 -40q29 -39 77 -63t111.5 -24t104.5 36q-67 13 -117 59.5t-50 109t40 101
t95.5 38.5t108.5 -39v103h-282v-205zM559 288.5q11 20.5 11 49.5t-20 47.5t-50 18.5t-47.5 -18.5t-17.5 -49t32 -51t73 -22.5q8 5 19 25.5z" />
    <glyph glyph-name="uni0917" unicode="&#x917;" horiz-adv-x="516" 
d="M446 571v-571l-130 79v492h-102v-283q0 -45 -9.5 -61.5t-30.5 -16.5q-42 0 -97.5 55t-55.5 97t68 42v167h-109l-76 104h632l78 -104h-168z" />
    <glyph glyph-name="uni0918" unicode="&#x918;" horiz-adv-x="605" 
d="M57 573l-37 -2h-40l-72 104h717l71 -104h-161v-571l-130 76l6 77q-56 -41 -113 -41q-90 0 -167 70t-77 150q0 65 60 98q-67 49 -67 97q0 24 10 46zM264 339q-96 0 -96 -59q0 -26 19 -42.5t60.5 -16.5t84.5 31t73 73v246h-190q-19 -7 -32 -29t-13 -46.5t19 -43.5
q27 5 55.5 5t63.5 -11l36 -121q-40 14 -80 14z" />
    <glyph glyph-name="uni0919" unicode="&#x919;" horiz-adv-x="627" 
d="M270 103q56 0 96 29.5t40 66.5q0 19 -19 19q-15 0 -58 -18.5t-70 -18.5q-62 0 -123.5 69.5t-61.5 139.5q0 55 33.5 85t97.5 30h117v66h-342l-72 104h739l72 -104h-274v-186h-210q-61 0 -61 -46q0 -42 36 -42q24 0 69 18.5t70 18.5q55 0 103.5 -65.5t48.5 -123.5
t-57 -106.5t-138.5 -48.5t-155.5 54t-117 136l66 44q77 -121 171 -121zM470 327l91 93l94 -93l-91 -91z" />
    <glyph glyph-name="uni091A" unicode="&#x91a;" horiz-adv-x="673" 
d="M478 176q-63 -59 -137 -59t-147.5 68.5t-73.5 144.5q0 33 24 57l-86 -5l-72 106h376l72 -105h-93q-50 -7 -80 -34.5t-30 -61.5q0 -58 66 -58q49 0 95.5 36t81.5 98v208h-494l-64 104h777l63 -104h-153v-571l-130 77z" />
    <glyph glyph-name="uni091B" unicode="&#x91b;" horiz-adv-x="711" 
d="M347 219q-46 11 -78.5 11t-59 -13t-26.5 -42q0 -57 99 -57t170 68q-43 40 -76 95t-33 104t21.5 82t54.5 48v56h-439l-72 104h823l72 -104h-258v-74q42 -31 69 -82t27 -114t-37 -132l115 -80l-59 -69l-106 83q-90 -92 -217 -92q-100 0 -183.5 65.5t-83.5 152.5q0 48 31 79
q-62 58 -62 110t38 83t110 31q36 0 88 -11l40 -114q-50 10 -81 10q-79 0 -79 -42q0 -19 19 -34q28 4 58.5 4t67.5 -10zM472.5 394.5q-15.5 -25.5 -15.5 -67t47 -81.5q10 10 25 50.5t15 68.5q0 55 -31 55q-25 0 -40.5 -25.5z" />
    <glyph glyph-name="uni091C" unicode="&#x91c;" horiz-adv-x="696" 
d="M495 361h-139q54 -51 54 -127q0 -59 -34 -93t-89.5 -34t-97.5 28t-75 79q-59 88 -105 223l68 39q72 -244 167 -244q56 0 56 57q0 68 -99 163l15 24h279v95h-515l-72 104h808l72 -104h-163v-571l-130 77v284z" />
    <glyph glyph-name="uni091D" unicode="&#x91d;" horiz-adv-x="751" 
d="M558 255q-19 -8 -43 -8t-64 10q24 -37 24 -82.5t-46.5 -90t-115.5 -63.5l116 -126l-83 -54l-128 176q-58 12 -112.5 55t-54.5 83q0 27 22 46.5t50 19.5q37 0 107 -91q60 3 107.5 31t47.5 66q0 19 -21 19t-62.5 -19.5t-66.5 -19.5q-56 0 -120.5 69t-64.5 133
q0 103 128 103h124v59h-322l-72 104h863l72 -104h-162v-571l-130 77zM552 571h-124v-171h-217q-27 0 -44.5 -13t-17.5 -31q0 -37 31 -37q23 0 64.5 18.5t63 18.5t67 -7t94 -7t83.5 49v180z" />
    <glyph glyph-name="uni091E" unicode="&#x91e;" horiz-adv-x="763" 
d="M181.5 270.5q47.5 -43.5 101 -43.5t81.5 28.5t28 70t-18 62t-46 20.5q-48 0 -92 -61l-98 106q71 77 128 77q116 0 204 -158q8 -5 28 -5q40 0 66 36v168h-584l-72 104h875l72 -104h-162v-571l-130 77l9 191q-15 -5 -34 -5t-46 15q2 -14 2 -27q0 -55 -45.5 -99t-115.5 -44
q-121 0 -255 156q-33 39 -70 89l60 54q66 -93 113.5 -136.5z" />
    <glyph glyph-name="uni091F" unicode="&#x91f;" horiz-adv-x="520" 
d="M431 571v-209h-147q-53 0 -83.5 -27.5t-30.5 -78.5t29 -75.5t78 -24.5q91 0 156 75l82 -110q-82 -86 -182.5 -86t-190 90t-89.5 190q0 80 50.5 123.5t123.5 43.5h74v89h-321l-68 104h628l68 -104h-177z" />
    <glyph glyph-name="uni0920" unicode="&#x920;" horiz-adv-x="590" 
d="M434 571v-157q53 -32 89.5 -86t36.5 -116q0 -84 -53 -133.5t-158.5 -49.5t-199 85.5t-93.5 199.5q0 81 46.5 123.5t127.5 42.5h74v91h-324l-68 104h698l68 -104h-244zM445 253q0 73 -70 109h-99q-44 0 -74.5 -30t-30.5 -81.5t41.5 -86t101.5 -34.5t95.5 36t35.5 87z" />
    <glyph glyph-name="uni0921" unicode="&#x921;" horiz-adv-x="523" 
d="M264 103q56 0 96 29.5t40 66.5q0 19 -19 19q-15 0 -58 -18.5t-70 -18.5q-62 0 -123.5 69.5t-61.5 139.5q0 105 131 105h117v76h-332l-72 104h631l72 -104h-176v-186h-210q-61 0 -61 -46q0 -19 10.5 -33t31.5 -14t66 18.5t70 18.5q55 0 101 -60t46 -117.5t-57 -106
t-139 -48.5t-155 51t-115 132l66 44q77 -121 171 -121z" />
    <glyph glyph-name="uni0922" unicode="&#x922;" horiz-adv-x="537" 
d="M446 571v-201h-165q-54 0 -87.5 -31.5t-33.5 -83t37.5 -87t87.5 -40.5q-38 47 -38 94t32.5 81t82 34t101.5 -50t52 -111.5t-49.5 -107t-125.5 -45.5q-45 0 -95.5 21.5t-94.5 59.5t-72.5 96t-28.5 126t46.5 114t126.5 46h94v85h-304l-72 104h617l72 -104h-183zM363 214
q-19 -21 -19 -42t10 -34q29 10 51 34t22 48q0 15 -22.5 15t-41.5 -21z" />
    <glyph glyph-name="uni0923" unicode="&#x923;" horiz-adv-x="755" 
d="M685 571v-571l-130 77v494h-111v-252q0 -73 -38 -114t-104 -41t-142 59q-45 36 -74 80.5t-29 87.5v180h-77l-72 104h867l72 -104h-162zM250 270q64 0 64 80v221h-128v-222q0 -36 18 -57.5t46 -21.5z" />
    <glyph glyph-name="uni0924" unicode="&#x924;" horiz-adv-x="581" 
d="M511 571v-571l-125 74v275h-122q-44 0 -67.5 -28.5t-23.5 -73.5q0 -80 102 -202l-68 -45q-63 75 -107 164t-44 157q0 149 165 149h165v101h-406l-72 104h693l72 -104h-162z" />
    <glyph glyph-name="uni0925" unicode="&#x925;" horiz-adv-x="710" 
d="M406 387q-23 -21 -35 -30.5t-46 -30.5t-36.5 -22.5t-8.5 -5.5t-7.5 -5.5t-6.5 -5.5t-6 -7q-5 -7 -5 -15q0 -20 20 -30t51 -10q87 0 184 106v240h-47l-72 104h339l72 -104h-162v-571l-130 77l6 85q-58 -53 -136 -53t-172 77.5t-94 146.5q0 20 18 30q10 6 43 23t56.5 30.5
t50.5 32.5q57 40 57 81q0 25 -19 41t-43 16t-42.5 -17t-18.5 -42.5t24 -49.5l-59 -38q-69 69 -69 125t39.5 87t88.5 31q76 0 141 -73t65 -129t-40 -94z" />
    <glyph glyph-name="uni0926" unicode="&#x926;" horiz-adv-x="535" 
d="M435 371h-159q-115 0 -115 -92q0 -50 30.5 -80t80.5 -30q24 0 52 17q-16 26 -16 56t25.5 52.5t59 22.5t68 -45t34.5 -79.5t-42 -76.5l103 -123l-75 -50l-86 133q-38 -18 -75 -18q-97 0 -184.5 85.5t-87.5 188.5q0 72 43.5 115.5t134.5 43.5h79v80h-325l-62 104h637
l62 -104h-182v-200z" />
    <glyph glyph-name="uni0927" unicode="&#x927;" horiz-adv-x="608" 
d="M59 573l-34 -2h-45l-72 104h345l72 -104h-109q-19 -6 -32 -28t-13 -45.5t22 -41.5q5 1 30.5 1t88.5 -9l39 -128q-58 17 -95 17t-64 -13.5t-27 -42.5t20.5 -46t52.5 -17q83 0 170 107v246h-32l-72 104h324l71 -104h-161v-571l-129 76l5 81q-60 -44 -128 -44
q-84 0 -158.5 68.5t-74.5 157.5q0 29 17 55t46 40q-21 14 -33.5 24t-24 29t-11.5 44t12 42z" />
    <glyph glyph-name="uni0928" unicode="&#x928;" horiz-adv-x="546" 
d="M351 312h-142v-76q0 -17 -9.5 -28.5t-26.5 -11.5q-38 0 -88.5 63.5t-50.5 107.5q0 59 76 59h241v145h-371l-72 104h658l71 -104h-161v-571l-125 74v238z" />
    <glyph glyph-name="uni0928093C" unicode="&#x929;" horiz-adv-x="549" 
d="M336 312h-142v-76q0 -17 -9.5 -28.5t-26.5 -11.5q-38 0 -88.5 63.5t-50.5 107.5q0 59 76 59h241v145h-371l-72 104h658l71 -104h-161v-571l-125 74v238zM225 20l-91 -91l-94 91l91 93z" />
    <glyph glyph-name="uni092A" unicode="&#x92a;" horiz-adv-x="539" 
d="M469 571v-571l-128 76l7 144q-38 -16 -65 -16q-62 0 -144 74.5t-82 145.5v147h-77l-72 104h651l72 -104h-162zM242 315q28 0 54 18t44 44v194h-154v-197q0 -59 56 -59z" />
    <glyph glyph-name="uni092B" unicode="&#x92b;" horiz-adv-x="784" 
d="M275 204q-60 0 -143 80t-83 149v138h-69l-71 104h895l72 -104h-423l-1 -107q33 18 79 18q67 0 146 -84.5t79 -159.5q0 -158 -146 -158q-33 0 -75 9l-44 129q36 -14 71 -14t58.5 20.5t23.5 57.5t-21 59.5t-55.5 22.5t-64.5 -21.5t-49 -56.5v-286l-130 77l7 141
q-30 -14 -56 -14zM230 318q55 0 94 59v194h-146v-190q0 -63 52 -63z" />
    <glyph glyph-name="uni092C" unicode="&#x92c;" horiz-adv-x="597" 
d="M527 571v-571l-133 79l7 101q-20 -19 -58 -36t-77 -17q-83 0 -154.5 70t-71.5 147t53 123t115 46q94 0 163 -84l-44 -57q-40 40 -81 40q-18 0 -39 -8l127 -137q36 30 64 74l-3 230h-415l-72 104h709l72 -104h-162zM165.5 246.5q26.5 -24.5 57.5 -24.5t55 10l-122 132
q-17 -26 -17 -59.5t26.5 -58z" />
    <glyph glyph-name="uni092D" unicode="&#x92d;" horiz-adv-x="582" 
d="M512 571v-571l-130 77v194h-154v-52q0 -37 -35.5 -37t-99 63t-63.5 104t71 41v141q0 17 -11.5 28.5t-29.5 11.5h-80l-70 104h114q57 0 101 -39l61 -53q40 -36 40 -99v-93h156v180h-86l-71 104h377l71 -104h-161z" />
    <glyph glyph-name="uni092E" unicode="&#x92e;" horiz-adv-x="597" 
d="M103 389h1v182h-124l-67 104h704l68 -104h-158v-571l-130 77v192h-168v-52q0 -37 -35.5 -37t-99 60.5t-63.5 101.5q0 47 72 47zM229 571v-182h168v182h-168z" />
    <glyph glyph-name="uni092F" unicode="&#x92f;" horiz-adv-x="606" 
d="M536 571v-571l-130 77l5 98q-53 -46 -106.5 -46t-117.5 44.5t-108.5 102.5t-44.5 97q0 24 20 34q86 44 110 62t24 35t-12 37.5t-29 29.5h-167l-72 104h718l72 -104h-162zM249 251q92 0 158 107v213h-152q25 -23 44 -58.5t19 -67t-17.5 -49t-65 -47.5t-53.5 -36t-6 -13
q0 -22 22.5 -35.5t50.5 -13.5z" />
    <glyph glyph-name="uni0930" unicode="&#x930;" horiz-adv-x="399" 
d="M296 571v-218q0 -70 -91 -103q68 -92 183 -210l-84 -44q-167 200 -271 358l66 58q39 -39 53 -39t14 13v185h-186l-72 104h511l71 -104h-194z" />
    <glyph glyph-name="uni0930093C" unicode="&#x931;" horiz-adv-x="399" 
d="M296 571v-218q0 -70 -91 -103q68 -92 183 -210l-84 -44q-167 200 -271 358l66 58q39 -39 53 -39t14 13v185h-186l-72 104h511l71 -104h-194zM-4 -10l91 93l94 -93l-91 -91z" />
    <glyph glyph-name="uni0932" unicode="&#x932;" horiz-adv-x="759" 
d="M303 316q0 30 7 54q-22 12 -56.5 12t-60.5 -29t-26 -69.5t14 -74t41 -64.5q42 -50 104 -99l-64 -46q-43 37 -73 66t-67 74q-79 94 -79 185q0 74 46.5 123.5t120.5 49.5t134 -58q44 56 119 56q44 0 96 -35v110h-579l-72 104h871l72 -104h-162v-571l-130 77v301
q-17 7 -41 7q-47 0 -69 -32.5t-22 -84.5t24 -105l-117 41q-31 54 -31 112z" />
    <glyph glyph-name="uni0933" unicode="&#x933;" horiz-adv-x="759" 
d="M269 77q-67 0 -148 84t-81 161.5t54.5 133t125.5 55.5t153 -74q42 65 100 72v62h-493l-72 104h871l72 -104h-252v-100q50 -36 90 -96t40 -110q0 -76 -54.5 -132t-127.5 -56t-152 73q-47 -73 -126 -73zM272 393q-50 0 -82 -32.5t-32 -88.5q0 -37 19 -57t49.5 -20t50 29
t40.5 86q13 40 19 56q-34 27 -64 27zM495 190q49 0 82.5 34.5t33.5 89.5q0 36 -18.5 57t-44 21t-43.5 -18t-25.5 -33.5t-17.5 -39t-10 -25.5q-4 -11 -12 -29.5t-11 -28.5q37 -28 66 -28z" />
    <glyph glyph-name="uni0933093C" unicode="&#x934;" horiz-adv-x="759" 
d="M269 77q-67 0 -148 84t-81 161.5t54.5 133t125.5 55.5t153 -74q42 65 100 72v62h-493l-72 104h871l72 -104h-252v-100q50 -36 90 -96t40 -110q0 -76 -54.5 -132t-127.5 -56t-152 73q-47 -73 -126 -73zM272 393q-50 0 -82 -32.5t-32 -88.5q0 -37 19 -57t49.5 -20t50 29
t40.5 86q13 40 19 56q-34 27 -64 27zM495 190q49 0 82.5 34.5t33.5 89.5q0 36 -18.5 57t-44 21t-43.5 -18t-25.5 -33.5t-17.5 -39t-10 -25.5q-4 -11 -12 -29.5t-11 -28.5q37 -28 66 -28zM443 -72l91 93l94 -93l-91 -91z" />
    <glyph glyph-name="uni0935" unicode="&#x935;" horiz-adv-x="592" 
d="M522 571v-571l-133 78l6 90q-61 -57 -132 -57t-147 78t-76 160t47.5 127.5t106.5 45.5q94 0 172 -99l-34 -57q-39 39 -79 39t-70 -36t-30 -79q0 -67 67 -67q46 0 93.5 39.5t80.5 95.5l-4 213h-410l-72 104h705l72 -104h-163z" />
    <glyph glyph-name="uni0936" unicode="&#x936;" horiz-adv-x="743" 
d="M216 350q66 0 104.5 37t38.5 99q0 35 -19 57.5t-45.5 22.5t-41.5 -16t-15 -42q0 -39 57 -64l-39 -53q-50 15 -97 59t-47 99.5t37.5 95.5t93.5 40q83 0 152 -85t69 -170.5t-57.5 -140.5t-150.5 -61q57 -64 171 -178l-81 -50q-237 274 -289 347l66 59q54 -56 93 -56z
M673 571v-571l-130 77v494h-73l-58 104h351l58 -104h-148z" />
    <glyph glyph-name="uni0937" unicode="&#x937;" horiz-adv-x="560" 
d="M490 571v-571l-130 77l8 137q-40 -23 -87 -23q-70 0 -143 71t-81 147v162h-72l-72 104h667l72 -104h-162zM203 306.5q20 -16.5 55.5 -16.5t79.5 33l-155 162v-131q0 -31 20 -47.5zM360 571h-163l163 -181v181z" />
    <glyph glyph-name="uni0938" unicode="&#x938;" horiz-adv-x="661" 
d="M409 246q-67 0 -145 60q-16 -39 -72 -55q83 -113 172 -205l-86 -47q-145 175 -265 355l65 58q41 -39 56 -39q11 0 11 13v185h-154l-72 104h762l72 -104h-162v-571l-127 75l7 189q-25 -18 -62 -18zM275 571v-180q35 -32 82 -32q67 0 107 42v170h-189z" />
    <glyph glyph-name="uni0939" unicode="&#x939;" horiz-adv-x="514" 
d="M370 201q0 27 -46 27t-89 -32.5t-43 -76t25 -80t65 -65.5q68 -50 134 -80l-70 -52q-82 49 -147 105q-130 110 -130 208q0 71 56 124q-74 73 -74 137q0 99 120 99h142v56h-318l-72 104h611l72 -104h-167v-169h-212q-55 0 -55 -43q0 -16 19 -37q42 17 80 17q85 0 144 -63
t59 -136q0 -87 -100 -133l-94 100q44 17 67 44t23 50z" />
    <glyph glyph-name="uni093C" unicode="&#x93c;" 
d="M-501 -22l91 93l94 -93l-91 -91z" />
    <glyph glyph-name="uni093D" unicode="&#x93d;" horiz-adv-x="608" 
d="M420 345q90 -79 90 -158.5t-52.5 -137t-139 -57.5t-162.5 54t-115 118l60 57q72 -110 173 -110q57 0 82.5 29.5t25.5 65.5q0 52 -61 106l-145 134q-70 65 -70 129q0 43 36.5 71.5t91.5 28.5h223l52 -104l-214 -3q-21 0 -34 -11.5t-13 -28.5t10.5 -32.5t43.5 -46.5z" />
    <glyph glyph-name="uni093E" unicode="&#x93e;" horiz-adv-x="270" 
d="M200 571v-571l-130 77v494h-94l-53 104h367l53 -104h-143z" />
    <glyph glyph-name="uni093F" unicode="&#x93f;" horiz-adv-x="270" 
d="M70 571h-90l-62 104h149q-39 50 -39 105q0 83 68.5 124.5t167.5 41.5q136 0 258.5 -53t212.5 -136l-50 -44q-75 56 -170.5 84t-182.5 28q-179 0 -179 -92q0 -34 32 -58h105l62 -104h-152v-571l-130 77v494z" />
    <glyph glyph-name="uni0940" unicode="&#x940;" horiz-adv-x="270" 
d="M200 571v-571l-130 77v494h-90l-72 104h187q-88 180 -183 180q-63 0 -63 -53q0 -20 15 -37.5t33 -26.5l-69 -41q-37 19 -70.5 54.5t-33.5 89t40.5 90.5t106.5 37q173 0 309 -293h110l72 -104h-162z" />
    <glyph glyph-name="uni0941" unicode="&#x941;" 
d="M-274 -29q0 37 26.5 74.5t89 37.5t119 -65t56.5 -122.5t-46.5 -103t-128.5 -45.5t-159.5 55.5t-132.5 132.5l57 40q100 -123 188 -123q51 0 86.5 27.5t35.5 65.5t-35 38q-23 0 -38.5 -25t-17.5 -64l-99 59q-1 9 -1 18z" />
    <glyph glyph-name="uni0942" unicode="&#x942;" 
d="M-227 -111q0 -19 12.5 -31t32.5 -12t34.5 16.5t22.5 61.5l104 -64q-19 -113 -121 -113q-62 0 -126.5 63.5t-64.5 127t45 104.5t110 41q158 0 319 -262l-55 -47q-129 195 -225 195q-36 0 -62 -23t-26 -57z" />
    <glyph glyph-name="uni0943" unicode="&#x943;" 
d="M-70 0q-90 -37 -117 -59t-27 -48.5t19.5 -41.5t52 -15t66 18t52.5 43l94 -79q-24 -30 -69 -57.5t-98 -27.5q-79 0 -153 66.5t-74 129.5q0 80 126 149l128 -74v-4z" />
    <glyph glyph-name="uni0945" unicode="&#x945;" 
d="M-173 831q82 0 145 120l99 -75q-37 -68 -82.5 -109.5t-115.5 -41.5q-139 0 -251 175l56 41q25 -36 41.5 -55.5t45.5 -37t62 -17.5z" />
    <glyph glyph-name="uni0946" unicode="&#x946;" 
d="M-332 743h-45q-127 0 -177 75q-22 33 -48 98l60 41q22 -56 37 -71q29 -29 118 -29h42q131 0 181 -51q26 -28 40 -59.5t26 -82.5l-77 -26q-12 46 -23 65q-25 40 -134 40z" />
    <glyph glyph-name="uni0947" unicode="&#x947;" 
d="M-481 886q66 39 112.5 39t84.5 -20.5t63 -46t54.5 -73.5t42.5 -75.5t37 -79.5l-66 -34q-58 114 -94.5 159.5t-73 46t-77.5 -29.5z" />
    <glyph glyph-name="uni0948" unicode="&#x948;" 
d="M-385 969q31 15 79.5 15t90 -36.5t67.5 -95.5q48 -109 64 -235l-73 -11q-46 76 -105 106q-26 13 -55 13t-63 -19l-82 103q38 29 94 29t117 -46.5t106 -116.5q-43 124 -97 173q-29 25 -52.5 25t-40.5 -7z" />
    <glyph glyph-name="uni0949" unicode="&#x949;" horiz-adv-x="289" 
d="M214 571v-571l-130 77v494h-94l-53 104h367l53 -104h-143zM117 831q82 0 145 120l99 -75q-37 -68 -82.5 -109.5t-115.5 -41.5q-139 0 -251 175l56 41q25 -36 41.5 -55.5t45.5 -37t62 -17.5z" />
    <glyph glyph-name="uni094A" unicode="&#x94a;" horiz-adv-x="289" 
d="M214 571v-571l-130 77v494h-94l-53 104h162q-14 39 -43 53.5t-103 14.5h-45q-127 0 -177 75q-22 33 -48 98l60 41q22 -56 37 -71q29 -29 118 -29h42q127 0 178 -49q26 -25 40 -55t26 -78h120l53 -104h-143z" />
    <glyph glyph-name="uni094B" unicode="&#x94b;" horiz-adv-x="289" 
d="M214 571v-571l-130 77v494h-94l-53 104h154q-69 127 -132 127q-31 0 -72 -30l-83 114q66 39 114.5 39t88 -21.5t71.5 -61.5q54 -69 99 -167h127l53 -104h-143z" />
    <glyph glyph-name="uni094C" unicode="&#x94c;" horiz-adv-x="289" 
d="M214 571v-571l-130 77v494h-94l-53 104h137q-52 50 -102 50q-33 0 -67 -19l-82 103q38 29 94 29t117 -46.5t106 -116.5q-43 124 -98 173q-28 25 -51.5 25t-40.5 -7l-50 103q31 15 76 15t83 -28t63 -76q47 -90 69 -205h113l53 -104h-143z" />
    <glyph glyph-name="uni094D" unicode="&#x94d;" 
d="M-288 -58q42 25 79.5 25t69 -13t53.5 -28t51.5 -46t42.5 -47.5t40 -53t32 -42.5l-61 -42q-3 4 -24.5 34t-33.5 44t-35 36q-42 42 -90 42q-26 0 -53 -12z" />
    <glyph glyph-name="uni0950" unicode="&#x950;" horiz-adv-x="1158" 
 />
    <glyph glyph-name="uni0951" unicode="&#x951;" horiz-adv-x="299" 
d="M199 733h-99v223h99v-223z" />
    <glyph glyph-name="uni0952" unicode="&#x952;" 
d="M-92 -110v-86h-403v86h403z" />
    <glyph glyph-name="uni0953" unicode="&#x953;" horiz-adv-x="438" 
d="M338 793l-79 -60l-159 196l80 62z" />
    <glyph glyph-name="uni0954" unicode="&#x954;" horiz-adv-x="436" 
d="M181 724l-81 61l158 198l78 -59z" />
    <glyph glyph-name="uni0915093C" unicode="&#x958;" horiz-adv-x="789" 
d="M275 108q-73 0 -150 79t-77 170q0 76 43.5 114.5t93 38.5t82.5 -15l39 -121q-23 11 -58.5 11t-65 -22t-29.5 -59t24 -57.5t59.5 -20.5t62 19t39.5 52v274h-347l-72 104h892l72 -104h-415q0 -11 -1.5 -38.5t-2.5 -47.5q35 20 82 20q68 0 144 -85.5t76 -168.5
q0 -64 -39.5 -108t-106.5 -44q-45 0 -84 15l-32 126q36 -16 70.5 -16t60 22t25.5 56.5t-22 56t-58 21.5q-71 0 -112 -75v-305l-130 72l4 56q-35 -20 -67 -20zM82 -22l91 93l94 -93l-91 -91z" />
    <glyph glyph-name="uni0916093C" unicode="&#x959;" horiz-adv-x="788" 
d="M75 410q36 -36 55 -36t19 16v181h-165l-72 104h867l72 -104h-162v-571l-126 71l4 44q-75 -64 -173 -64q-53 0 -103.5 21t-86.5 49t-75 74.5t-61 79.5t-52 82zM277 366q0 -46 -19 -76t-69 -40q29 -39 77 -63t111.5 -24t104.5 36q-67 13 -117 59.5t-50 109t40 101
t95.5 38.5t108.5 -39v103h-282v-205zM563 288.5q11 20.5 11 49.5t-20 47.5t-50 18.5t-47.5 -18.5t-17.5 -49t32 -51t73 -22.5q8 5 19 25.5zM61 -22l91 93l94 -93l-91 -91z" />
    <glyph glyph-name="uni0917093C" unicode="&#x95a;" horiz-adv-x="547" 
d="M461 571v-571l-130 79v492h-102v-283q0 -45 -9.5 -61.5t-30.5 -16.5q-42 0 -97.5 55t-55.5 97t68 42v167h-109l-76 104h632l78 -104h-168zM78 8l91 93l94 -93l-91 -91z" />
    <glyph glyph-name="uni091C093C" unicode="&#x95b;" horiz-adv-x="713" 
d="M496 361h-139q54 -51 54 -127q0 -59 -34 -93t-89.5 -34t-97.5 28t-76 79q-58 88 -104 223l68 39q72 -244 167 -244q56 0 56 57q0 68 -99 163l15 24h279v95h-515l-72 104h808l72 -104h-163v-571l-130 77v284zM60 -22l91 93l94 -93l-91 -91z" />
    <glyph glyph-name="uni0921093C" unicode="&#x95c;" horiz-adv-x="515" 
d="M260 103q56 0 96 29.5t40 66.5q0 19 -19 19q-15 0 -58 -18.5t-70 -18.5q-62 0 -123.5 69.5t-61.5 139.5q0 105 131 105h117v76h-332l-72 104h631l72 -104h-176v-186h-210q-61 0 -61 -46q0 -19 10.5 -33t31.5 -14t66 18.5t70 18.5q55 0 101 -60t46 -117.5t-57 -106
t-139 -48.5t-155 51t-115 132l66 44q77 -121 171 -121zM202 -149l91 93l94 -93l-91 -91z" />
    <glyph glyph-name="uni0922093C" unicode="&#x95d;" horiz-adv-x="537" 
d="M446 571v-201h-165q-54 0 -87.5 -31.5t-33.5 -83t37.5 -87t87.5 -40.5q-38 47 -38 94t32.5 81t82 34t101.5 -50t52 -111.5t-49.5 -107t-125.5 -45.5q-45 0 -95.5 21.5t-94.5 59.5t-72.5 96t-28.5 126t46.5 114t126.5 46h94v85h-304l-72 104h617l72 -104h-183zM363 214
q-19 -21 -19 -42t10 -34q29 10 51 34t22 48q0 15 -22.5 15t-41.5 -21zM242 -117l91 93l94 -93l-91 -91z" />
    <glyph glyph-name="uni092B093C" unicode="&#x95e;" horiz-adv-x="784" 
d="M275 204q-60 0 -143 80t-83 149v138h-69l-71 104h895l72 -104h-423l-1 -107q33 18 79 18q67 0 146 -84.5t79 -159.5q0 -158 -146 -158q-33 0 -75 9l-44 129q36 -14 71 -14t58.5 20.5t23.5 57.5t-21 59.5t-55.5 22.5t-64.5 -21.5t-49 -56.5v-286l-130 77l7 141
q-30 -14 -56 -14zM230 318q55 0 94 59v194h-146v-190q0 -63 52 -63zM89 28l91 93l94 -93l-91 -91z" />
    <glyph glyph-name="uni092F093C" unicode="&#x95f;" horiz-adv-x="614" 
d="M518 571v-571l-130 77l5 98q-53 -46 -106.5 -46t-117.5 44.5t-108.5 102.5t-44.5 97q0 24 20 34q86 44 110 62t24 35t-12 37.5t-29 29.5h-167l-72 104h718l72 -104h-162zM231 251q92 0 158 107v213h-152q25 -23 44 -58.5t19 -67t-17.5 -49t-65 -47.5t-53.5 -36t-6 -13
q0 -22 22.5 -35.5t50.5 -13.5zM65 -22l91 93l94 -93l-91 -91z" />
    <glyph glyph-name="uni0960" unicode="&#x960;" horiz-adv-x="922" 
d="M717 300q-53 -28 -109 -28t-104 19v-292l-130 79v136l-171 -148l-101 74l275 192q-26 26 -63.5 43.5t-71.5 17.5q-64 0 -137 -66l-81 103q80 73 172 73t178 -84v152h-393l-76 104h1037l78 -104h-516v-204q18 -3 45 -3q69 0 94 26q-23 34 -23 61t21.5 44.5t50 17.5
t67.5 -36t39 -80q0 -28 -22 -53q103 -101 103 -179q0 -61 -40 -104.5t-108 -43.5q-100 0 -184 85l46 53q39 -34 85 -34q85 0 85 72q0 54 -46 107z" />
    <glyph glyph-name="uni0961" unicode="&#x961;" horiz-adv-x="759" 
d="M658 -194.5q-19 -18.5 -19 -44t19.5 -40.5t52 -15t66 18t52.5 43l94 -79q-24 -30 -69 -57.5t-98 -27.5q-79 0 -153 66.5t-74 129.5q0 36 23 69q-50 30 -83.5 76t-33.5 85q0 80 124 148v201q-17 7 -41 7q-47 0 -69 -32.5t-22 -84.5t24 -105l-117 41q-31 54 -31 112
q0 30 7 54q-22 12 -56.5 12t-60.5 -29t-26 -69.5t14 -74t41 -64.5q42 -50 104 -99l-64 -46q-43 37 -73 66t-67 74q-79 94 -79 185q0 74 46.5 123.5t120.5 49.5t134 -58q44 56 119 56q44 0 96 -35v110h-579l-72 104h871l72 -104h-162v-471q-90 -37 -116.5 -59.5t-27 -48.5
t19 -41t46.5 -15q74 0 124 61l94 -79q-19 -23 -47 -43l-20 -13q-9 -6 -47 -22t-57 -34.5z" />
    <glyph glyph-name="uni0964" unicode="&#x964;" horiz-adv-x="370" 
d="M250 598v-598l-130 77v598z" />
    <glyph glyph-name="uni0965" unicode="&#x965;" horiz-adv-x="623" 
d="M250 598v-598l-130 77v598zM539 598v-598l-130 77v598z" />
    <glyph glyph-name="uni0966" unicode="&#x966;" horiz-adv-x="658" 
d="M346 569q-59 0 -95 -65t-36 -215q0 -94 32 -147.5t84.5 -53.5t88.5 71.5t36 214.5q0 95 -31 145t-79 50zM553 480q26 -73 26 -163t-22 -156t-57 -101q-70 -70 -148 -70q-60 0 -126 50q-36 27 -65.5 67.5t-49.5 107.5t-20 152.5t24 150.5t61 96q70 60 138 60q89 0 172 -81
q41 -40 67 -113z" />
    <glyph glyph-name="uni0967" unicode="&#x967;" horiz-adv-x="467" 
d="M375 1q43 -40 43 -84.5t-43 -87.5l-97 75q29 26 29 51.5t-30 54.5l-164 154q-34 33 -34 62q0 16 25 34t57.5 40t49.5 34.5t42.5 31.5t39 33t27.5 31q27 31 27 66t-22 60t-59 25t-62.5 -25t-25.5 -65.5t55 -79.5l-42 -40q-46 26 -88 70.5t-42 102t44 98.5t104 41
q85 0 159.5 -84t74.5 -164q0 -39 -17.5 -64t-28 -38t-34 -33t-36.5 -30.5t-44 -34.5t-48.5 -37.5t-17.5 -31t21 -37.5z" />
    <glyph glyph-name="uni0968" unicode="&#x968;" horiz-adv-x="525" 
d="M46 608q119 64 202.5 64t155.5 -91.5t72 -187.5q0 -65 -53.5 -120t-133.5 -84l172 -254l-85 -53l-170 288q-12 -2 -40 -2t-62.5 44.5t-34.5 84.5q0 26 30.5 45.5t56.5 19.5q36 0 74 -66q87 22 131 79q27 35 27 78.5t-32.5 71t-77.5 27.5q-78 0 -165 -56z" />
    <glyph glyph-name="uni0969" unicode="&#x969;" horiz-adv-x="536" 
d="M116 56.5q-52 44.5 -52 74.5t25.5 57t52 27t51.5 -29t62 -89q45 5 85 41.5t40 91t-39 88.5q-43 -32 -115 -56l-62 104l1 4q178 55 178 136q0 29 -19 47.5t-56.5 18.5t-66.5 -17.5t-64 -56.5l-85 88q87 90 176 90q73 0 138 -68.5t65 -131.5t-39 -112q93 -78 93 -178
q0 -64 -48.5 -115t-124.5 -71l90 -133l-78 -49l-101 179q-55 15 -107 59.5z" />
    <glyph glyph-name="uni096A" unicode="&#x96a;" horiz-adv-x="621" 
d="M504 137q0 -56 -45.5 -100.5t-116.5 -44.5t-142.5 76.5t-71.5 142.5q0 53 49 108l65 74l-226 239l58 48l217 -231l197 223l94 -76l-205 -239l28 -29q99 -105 99 -191zM269 230q-42 -52 -42 -82t16.5 -48t52 -18t68 30.5t32.5 74.5q0 26 -17 52t-50 62z" />
    <glyph glyph-name="uni096B" unicode="&#x96b;" horiz-adv-x="620" 
d="M333 -8q-10 0 -18 1l102 -145l-71 -45l-119 217q-65 27 -106.5 62t-41.5 72q0 22 19.5 43t42.5 21q47 0 121 -118q17 -12 43 -12q140 0 140 228q-47 -41 -93 -41t-104.5 32.5t-103.5 89.5t-45 122.5t37 152.5l123 -65q-48 -82 -48 -146q0 -45 26 -69.5t63 -24.5t71 25
t56 56q-9 100 -32 216l126 -56q24 -165 24 -256q0 -143 -25 -211q-16 -41 -39 -77q-47 -72 -148 -72z" />
    <glyph glyph-name="uni096C" unicode="&#x96c;" horiz-adv-x="598" 
d="M341 312q-140 0 -140 -117q0 -44 34 -77t81.5 -33t73.5 30q-19 35 -19 58.5t22 40.5t50.5 17t58.5 -44t30 -73t-17 -55l107 -148l-79 -50l-88 147q-35 -16 -76 -16q-112 0 -198.5 88t-86.5 180q0 77 59 122q-73 65 -73 146q0 58 44 98q55 50 147 50q60 0 132 -24l31 -111
l-3 -3q-79 31 -135 31q-23 0 -41 -5q-65 -17 -65 -88q0 -37 23 -65q40 13 86.5 13t97.5 -11l44 -108l-3 -4q-55 11 -97 11z" />
    <glyph glyph-name="uni096D" unicode="&#x96d;" horiz-adv-x="800" 
d="M539 219q-73 0 -146 61t-73 160q0 69 46 116.5t115 47.5q102 0 192 -109t90 -227q0 -65 -32 -127t-99 -105.5t-156 -43.5t-164 43t-123 109t-83 155q-62 153 -79 340l80 37q20 -228 95 -388q38 -84 99.5 -132t139.5 -48q108 0 164.5 66t56.5 158q0 72 -38.5 115t-91.5 43
q-36 0 -65.5 -25.5t-29.5 -79t51 -77.5q38 -18 80 -18q14 0 28 2l1 -1l-46 -72h-12z" />
    <glyph glyph-name="uni096E" unicode="&#x96e;" horiz-adv-x="549" 
d="M302 -15q-57 0 -119.5 38t-104.5 96.5t-42 114.5t37 101l278 341l112 -67l-254 -329q-45 -58 -45 -97t28 -62.5t65 -23.5q52 0 94.5 43t66.5 106l4 1l106 -76q-74 -186 -226 -186z" />
    <glyph glyph-name="uni096F" unicode="&#x96f;" horiz-adv-x="483" 
d="M68 340q-51 71 -51 147.5t60 135t131 58.5q95 0 165.5 -76t70.5 -153t-61 -131.5t-157 -73.5l180 -262q26 -38 26 -70q0 -48 -68 -82l-104 84q49 22 49 58q0 23 -23 56zM347 510q0 30 -20 47.5t-65.5 17.5t-86.5 -37.5t-41 -98t29 -91.5q63 10 123.5 52.5t60.5 109.5z
" />
    <glyph glyph-name="uni0970" unicode="&#x970;" horiz-adv-x="509" 
d="M364.5 397q50.5 -48 50.5 -110.5t-41.5 -104.5t-108.5 -45q-69 0 -120 48t-51 111t41.5 105.5t110 43t119 -47.5zM223 213q36 0 71 33t35 76q0 22 -11.5 34.5t-31.5 12.5q-37 0 -72 -33t-35 -76q0 -22 12 -34.5t32 -12.5z" />
    <glyph glyph-name="uni097D" unicode="&#x97d;" horiz-adv-x="614" 
d="M407 -27h-4l-115 75v203q0 41 23 89t51 83q73 94 73 133q0 54 -77.5 54t-135.5 -89l-97 96q32 52 81 80t104 28q75 0 159.5 -74t84.5 -136q0 -33 -23 -74t-50.5 -74t-50.5 -80.5t-23 -92.5v-221z" />
    <glyph glyph-name="uni200B" unicode="&#x200b;" 
 />
    <glyph glyph-name="uni200C" unicode="&#x200c;" 
d="M24 -230h-47v1041h47v-1041z" />
    <glyph glyph-name="uni200D" unicode="&#x200d;" 
d="M24 -230h-47v865l-69 -73l-33 33l93 93l-95 95l33 33l95 -95l96 95l32 -32l-96 -96l96 -95l-33 -33l-72 75v-865z" />
    <glyph glyph-name="endash" unicode="&#x2013;" horiz-adv-x="700" 
d="M622 294h-495l-52 104v10h494l53 -105v-9z" />
    <glyph glyph-name="emdash" unicode="&#x2014;" horiz-adv-x="767" 
d="M678 294h-551l-52 104v10h551l52 -105v-9z" />
    <glyph glyph-name="quoteleft" unicode="&#x2018;" horiz-adv-x="309" 
d="M80 670q0 56 26.5 116.5t63.5 103.5l72 -32q-61 -83 -61 -140.5t68 -94.5v-8l-59 -98q-110 41 -110 153z" />
    <glyph glyph-name="quoteright" unicode="&#x2019;" horiz-adv-x="309" 
d="M60 793l59 97q110 -41 110 -152q1 -56 -25.5 -116.5t-64.5 -104.5l-72 33q62 80 61 138.5t-68 95.5v9z" />
    <glyph glyph-name="quotesinglbase" unicode="&#x201a;" horiz-adv-x="308" 
d="M60 140l59 97q109 -39 109 -151q1 -57 -25.5 -118t-64.5 -103l-71 33q61 79 60 138t-67 96v8z" />
    <glyph glyph-name="quotedblleft" unicode="&#x201c;" horiz-adv-x="504" 
d="M80 653q0 56 26 117t64 104l72 -33q-61 -76 -61 -136.5t67 -98.5v-8l-58 -97q-110 40 -110 152zM436 841q-61 -79 -61 -137.5t69 -97.5v-8l-59 -97q-109 40 -111 152q0 56 26.5 116.5t64.5 104.5z" />
    <glyph glyph-name="quotedblright" unicode="&#x201d;" horiz-adv-x="504" 
d="M424 721q0 -56 -26 -117t-64 -103l-72 32q61 80 61 138.5t-68 96.5v8l59 98q110 -41 110 -153zM60 776l60 98q109 -41 109 -153q1 -56 -25.5 -116.5t-64.5 -103.5l-71 32q61 85 61 137q-2 60 -69 98v8z" />
    <glyph glyph-name="quotedblbase" unicode="&#x201e;" horiz-adv-x="504" 
d="M424 85q0 -56 -26 -117t-64 -103l-72 32q61 80 61 138.5t-68 96.5v8l59 98q110 -41 110 -153zM60 140l60 98q109 -41 109 -153q1 -56 -25.5 -116.5t-64.5 -103.5l-71 32q61 85 61 137q-2 60 -69 98v8z" />
    <glyph glyph-name="dagger" unicode="&#x2020;" horiz-adv-x="678" 
d="M603 507h-202v-558h-9l-114 90v468h-151l-52 105v9h203v231h9l114 -90v-141h150l52 -104v-10z" />
    <glyph glyph-name="daggerdbl" unicode="&#x2021;" horiz-adv-x="678" 
d="M603 552h-202v-257h150l52 -105v-9h-202v-187h-9l-114 90v97h-151l-52 105v9h203v257h-151l-52 105v9h203v231h9l114 -90v-141h150l52 -104v-10z" />
    <glyph glyph-name="bullet" unicode="&#x2022;" horiz-adv-x="349" 
d="M246.5 270q-30.5 -30 -72.5 -30t-72 30t-30 72t30 72.5t72 30.5t72.5 -30.5t30.5 -72.5t-30.5 -72z" />
    <glyph glyph-name="ellipsis" unicode="&#x2026;" horiz-adv-x="737" 
d="M193.5 57.5q-25.5 -25.5 -60.5 -25.5t-60.5 25.5t-25.5 60.5t25 60.5t60.5 25.5t61 -25.5t25.5 -60.5t-25.5 -60.5zM429 57.5q-26 -25.5 -61 -25.5t-60.5 25.5t-25.5 60.5t25 60.5t61 25.5t61.5 -25.5t25.5 -60.5t-26 -60.5zM604 32q-35 0 -60.5 25.5t-25.5 60.5
t25.5 60.5t60.5 25.5t60.5 -25.5t25.5 -60.5t-25.5 -60.5t-60.5 -25.5z" />
    <glyph glyph-name="perthousand" unicode="&#x2030;" horiz-adv-x="1113" 
d="M277 45h-129l388 610h128zM129 493q0 -38 13 -60t34 -22q48 0 48 82q0 43 -12 60t-36 17q-47 0 -47 -77zM75.5 610.5q35.5 44.5 101.5 44.5t101 -44.5t35 -113.5t-34.5 -114.5t-101 -45.5t-102 46.5t-35.5 114.5t35.5 112.5zM608.5 260q-11.5 -17 -11.5 -58t12.5 -62.5
t34.5 -21.5t34.5 20.5t12.5 61.5q0 77 -47 77q-24 0 -35.5 -17zM644 362q66 0 101 -44.5t35 -113.5t-34 -114.5t-100.5 -45.5t-102 46.5t-35.5 115t35 112.5t101 44zM919 260q-12 -17 -12 -58t13 -62.5t35 -21.5q46 0 46 80q0 45 -11.5 62t-35 17t-35.5 -17zM955 362
q66 0 100.5 -44.5t34.5 -113.5t-34 -114.5t-100.5 -45.5t-102 46.5t-35.5 115t35.5 112.5t101.5 44z" />
    <glyph glyph-name="guilsinglleft" unicode="&#x2039;" horiz-adv-x="500" 
d="M122 351l185 208l55 -28l-114 -180l114 -180l-55 -30z" />
    <glyph glyph-name="guilsinglright" unicode="&#x203a;" horiz-adv-x="500" 
d="M192 604l185 -208l-185 -210l-55 30l114 180l-114 180z" />
    <glyph glyph-name="fraction" unicode="&#x2044;" horiz-adv-x="501" 
d="M430 734h61l-420 -726h-61z" />
    <glyph glyph-name="Euro" unicode="&#x20ac;" horiz-adv-x="602" 
d="M274 370l1 -32h184v-7q0 -30 -15 -60h-161q28 -136 136 -136q52 0 104 43l29 -40q-78 -106 -186 -106q-91 0 -161 61.5t-92 177.5h-91q0 34 15 67h68q-1 10 -1 30.5t1 29.5h-87q0 34 15 67h79q22 118 93 180.5t164.5 62.5t175.5 -66l-22 -56q-50 19 -104 19
q-111 0 -136 -140h182v-7q0 -30 -15 -60h-175z" />
    <glyph glyph-name="uni20B9" unicode="&#x20b9;" horiz-adv-x="578" 
d="M418 371q0 -163 -168 -183q35 -53 175 -196l-95 -55q-22 26 -87.5 106t-78.5 97t-35 46q-37 48 -70 98l52 51q37 -37 82 -37t71.5 24.5t26.5 64.5v8l-221 -3v105l221 -3v77l-222 -3v106h468l53 -106l-172 3v-77l123 3l49 -105l-172 3v-24z" />
    <glyph glyph-name="trademark" unicode="&#x2122;" horiz-adv-x="886" 
d="M340 695q4 -27 4 -53t-1 -42q-18 -5 -30 -3q-3 36 -14.5 49.5t-34.5 13.5h-33v-286q14 -5 38 -5q0 -19 -3 -32h-161q0 22 4 32q34 4 34 32v259h-35q-23 0 -34 -13.5t-14 -49.5q-14 -2 -30 3q-1 17 -1 40.5t4 54.5h307zM845 354q0 -8 -1 -17h-178q-1 8 -1 16t1 16
q46 5 46 32v228l-115 -292h-23l-103 292l-14 -256q13 -4 41 -4q-2 -22 -4 -32h-126q2 26 4 32q35 4 36 31l11 261q-12 4 -41 4q2 24 4 30h152l68 -206l81 206h142q1 -15 0 -30q-1 0 -4 -1q-26 -7 -30 -21q-1 -5 -1 -11l12 -261q13 -2 42 -2q1 -7 1 -15z" />
    <glyph glyph-name="minus" unicode="&#x2212;" horiz-adv-x="678" 
d="M603 294h-476l-52 104v10h476l52 -105v-9z" />
    <glyph glyph-name="uni25CC" unicode="&#x25cc;" horiz-adv-x="660" 
d="M151.5 484.5q-12.5 12.5 -12.5 32t12.5 32t31.5 12.5t31.5 -12.5t12.5 -32t-12.5 -32t-31.5 -12.5t-31.5 12.5zM57 407q0 19 13 31.5t32 12.5t32 -12.5t13 -31.5t-13 -31.5t-32 -12.5t-32 12.5t-13 31.5zM44 281q0 19 12.5 32t31.5 13t31.5 -12.5t12.5 -32t-12.5 -31.5
t-31.5 -12t-31.5 12t-12.5 31zM96 165q0 19 12.5 31.5t31.5 12.5t31.5 -12.5t12.5 -31.5t-12.5 -31.5t-32 -12.5t-31.5 12.5t-12 31.5zM210 57q-13 13 -13 32t13 32t32 13t31.5 -13t12.5 -32t-12.5 -32t-31.5 -13t-32 13zM324 74q0 20 12 32t32 12t32.5 -12.5t12.5 -31.5
t-12.5 -31.5t-32.5 -12.5t-32 12t-12 32zM445 127q0 19 12.5 31.5t31.5 12.5t32 -12.5t13 -31.5t-13 -31.5t-32 -12.5t-31.5 12.5t-12.5 31.5zM518 225q0 19 13 32t31.5 13t31 -13t12.5 -32t-12.5 -31.5t-31 -12.5t-31.5 12.5t-13 31.5zM528 359q0 19 12 31.5t31.5 12.5
t32 -12.5t12.5 -31.5t-12.5 -31.5t-32 -12.5t-31.5 12.5t-12 31.5zM478 477q0 19 12.5 32t31.5 13t31.5 -12.5t12.5 -32t-12.5 -32t-31.5 -12.5t-31.5 12.5t-12.5 31.5zM396 514q-13 13 -13 31.5t12.5 31.5t32 13t31.5 -12.5t12 -31.5t-12.5 -32t-31 -13t-31.5 13zM257 560
q0 20 12.5 32t31.5 12t31.5 -12t12.5 -32t-12.5 -32t-31.5 -12t-31.5 12t-12.5 32z" />
    <glyph glyph-name="itfLogo" horiz-adv-x="1648" 
d="M147 0v634h196v-634h-196zM383 449v185h196v-185h-196zM619 0v634h196v-634h-196zM855 449v185h196v-185h-196zM1091 0v634h196v-634h-196zM1327 449v185h196v-185h-196zM1327 224v185h196v-185h-196z" />
    <glyph glyph-name="uni0915094D" horiz-adv-x="565" 
d="M569 380q-71 0 -112 -75v-305l-131 65l5 60q-36 -17 -67 -17q-73 0 -150 79t-77 170q0 76 43.5 114.5t93 38.5t82.5 -15l39 -121q-23 11 -58.5 11t-65 -22t-29.5 -59t24 -57.5t59.5 -20.5t62 19t39.5 52v274h-347l-72 104h677l72 -104h-200q0 -11 -1.5 -38.5t-2.5 -47.5
q35 20 78 20t90 -33t82 -83l-58 -58q-15 27 -31.5 38t-44.5 11z" />
    <glyph glyph-name="uni0916094D" horiz-adv-x="522" 
d="M273 571v-205q0 -46 -19 -76t-69 -40q29 -39 77 -63t111.5 -24t104.5 36q-67 13 -117 59.5t-50 109t40 101t95.5 38.5t108.5 -39q101 -76 101 -165q0 -63 -27 -114t-69 -79q-88 -59 -172 -59q-50 0 -98 19t-84 46.5t-74 72.5q-58 67 -120 168l59 53q36 -36 55 -36t19 16
v181h-165l-72 104h634l72 -104h-341zM540 263q27 27 27 63.5t-20 57t-48.5 20.5t-46 -18.5t-17.5 -49t32 -51t73 -22.5z" />
    <glyph glyph-name="uni0917094D" horiz-adv-x="272" 
d="M214 571v-283q0 -45 -9.5 -61.5t-30.5 -16.5q-42 0 -97.5 55t-55.5 97t68 42v167h-109l-76 104h388l78 -104h-156z" />
    <glyph glyph-name="uni0918094D" horiz-adv-x="371" 
d="M57 573l-37 -2h-40l-72 104h483l71 -104h-247q-19 -7 -32 -29t-13 -46.5t19 -43.5q27 5 55.5 5t63.5 -11l36 -121q-40 14 -80 14q-96 0 -96 -59q0 -26 19 -42.5t52 -16.5q52 0 98 34.5t96 102.5l75 -98q-100 -148 -210 -148q-90 0 -167 70t-77 150q0 65 60 98
q-67 49 -67 97q0 24 10 46z" />
    <glyph glyph-name="uni0919094D" horiz-adv-x="615" 
d="M101 -58q42 25 79.5 25t69 -13t53.5 -28t51.5 -46t42.5 -47.5t40 -53t32 -42.5l-61 -42q-3 4 -24.5 34t-33.5 44t-34 36q-43 42 -91 42q-26 0 -53 -12zM260 103q56 0 96 29.5t40 66.5q0 19 -19 19q-15 0 -58 -18.5t-70 -18.5q-62 0 -123.5 69.5t-61.5 139.5q0 55 33.5 85
t97.5 30h117v66h-342l-72 104h739l72 -104h-274v-186h-210q-61 0 -61 -46q0 -42 36 -42q24 0 69 18.5t70 18.5q55 0 103.5 -65.5t48.5 -123.5t-57 -106.5t-138.5 -48.5t-155.5 54t-117 136l66 44q77 -121 171 -121zM460 327l91 93l94 -93l-91 -91z" />
    <glyph glyph-name="uni091A094D" horiz-adv-x="414" 
d="M497 571h-517l-64 104h518zM337 117q-70 0 -143.5 68.5t-73.5 144.5q0 33 24 57l-86 -5l-72 106h376l72 -105h-93q-50 -7 -80 -34.5t-30 -61.5q0 -58 66 -58q50 0 97 36.5t84 104.5l80 -103q-68 -90 -118 -120t-103 -30z" />
    <glyph glyph-name="uni091B094D" horiz-adv-x="711" 
d="M337 11q-100 0 -183.5 65.5t-83.5 152.5q0 48 31 79q-62 58 -62 110t38 83t110 31q36 0 88 -11l40 -114q-50 10 -81 10q-79 0 -79 -42q0 -19 19 -34q28 4 58.5 4t67.5 -10l47 -116q-46 11 -78.5 11t-59 -13t-26.5 -42q0 -57 99 -57t170 68q-43 40 -76 95t-33 111.5
t37 94.5t84 38q69 0 123 -67.5t54 -143.5t-37 -145l115 -80l-59 -69l-106 83q-90 -92 -217 -92zM803 571h-823l-72 104h823zM529 296.5q15 40.5 15 68.5q0 55 -31 55q-25 0 -40.5 -25.5t-15.5 -67t47 -81.5q10 10 25 50.5z" />
    <glyph glyph-name="uni091C094D" horiz-adv-x="451" 
d="M543 571h-563l-72 104h563zM412 234q0 -59 -34 -93t-89.5 -34t-97.5 28t-75 79q-59 88 -105 223l68 39q72 -244 167 -244q56 0 56 57q0 68 -99 163l15 24h329l80 -115h-269q54 -51 54 -127z" />
    <glyph glyph-name="uni091D094D" horiz-adv-x="498" 
d="M429 571v-171h-217q-28 0 -45 -13t-17 -31q0 -37 31 -37q23 0 64.5 18.5t68.5 18.5t66.5 -7t77 -7t66.5 15t60 56l73 -93q-79 -73 -142 -73q-29 0 -63 10q24 -37 24 -82.5t-46.5 -90t-115.5 -63.5l116 -126l-83 -54l-128 176q-58 12 -112.5 55t-54.5 83q0 27 22 46.5
t50 19.5q37 0 107 -91q60 3 107.5 31t47.5 66q0 19 -21 19t-62.5 -19.5t-66.5 -19.5q-56 0 -120.5 69t-64.5 133q0 103 128 103h124v59h-323l-72 104h610l72 -104h-161z" />
    <glyph glyph-name="uni091E094D" horiz-adv-x="517" 
d="M609 571h-629l-72 104h629zM546 263q-27 0 -52 15q1 -6 1 -16q0 -69 -47.5 -111.5t-112.5 -42.5q-121 0 -255 156q-33 39 -70 89l60 54q66 -93 113.5 -136.5t101 -43.5t81.5 28.5t28 70t-18 62t-46 20.5q-48 0 -92 -61l-98 106q71 77 128 77q116 0 204 -158q17 -5 30 -5
q34 0 66.5 22.5t43.5 41.5l66 -87q-67 -81 -132 -81z" />
    <glyph glyph-name="uni091F094D" horiz-adv-x="520" 
d="M156 -28q42 25 79.5 25t69 -13t53.5 -28t51.5 -46t42.5 -47.5t40 -53t32 -42.5l-61 -42q-3 4 -24.5 34t-33.5 44t-35 36q-42 42 -90 42q-26 0 -53 -12zM431 571v-209h-147q-53 0 -83.5 -27.5t-30.5 -78.5t29 -75.5t78 -24.5q91 0 156 75l82 -110q-82 -86 -182.5 -86
t-190 90t-89.5 190q0 80 50.5 123.5t123.5 43.5h74v89h-321l-68 104h628l68 -104h-177z" />
    <glyph glyph-name="uni0920094D" horiz-adv-x="590" 
d="M141 -38q42 25 79.5 25t69 -13t53.5 -28t51.5 -46t42.5 -47.5t40 -53t32 -42.5l-61 -42q-3 4 -24.5 34t-33.5 44t-34 36q-43 42 -91 42q-26 0 -53 -12zM434 571v-157q53 -32 89.5 -86t36.5 -116q0 -84 -53 -133.5t-158.5 -49.5t-199 85.5t-93.5 199.5q0 81 46.5 123.5
t127.5 42.5h74v91h-324l-68 104h698l68 -104h-244zM445 253q0 73 -70 109h-99q-44 0 -74.5 -30t-30.5 -81.5t41.5 -86t101.5 -34.5t95.5 36t35.5 87z" />
    <glyph glyph-name="uni0921094D" horiz-adv-x="523" 
d="M120 -68q42 25 79.5 25t69 -13t53.5 -28t51.5 -46t42.5 -47.5t40 -53t32 -42.5l-61 -42q-3 4 -24.5 34t-33.5 44t-35 36q-42 42 -90 42q-26 0 -53 -12zM264 103q56 0 96 29.5t40 66.5q0 19 -19 19q-15 0 -58 -18.5t-70 -18.5q-62 0 -123.5 69.5t-61.5 139.5
q0 105 131 105h117v76h-332l-72 104h631l72 -104h-176v-186h-210q-61 0 -61 -46q0 -19 10.5 -33t31.5 -14t66 18.5t70 18.5q55 0 101 -60t46 -117.5t-57 -106t-139 -48.5t-155 51t-115 132l66 44q77 -121 171 -121z" />
    <glyph glyph-name="uni0922094D" horiz-adv-x="537" 
d="M181 -50q42 25 79.5 25t69 -13t53.5 -28t51.5 -46t42.5 -47.5t40 -53t32 -42.5l-61 -42q-3 4 -24.5 34t-33.5 44t-34 36q-43 42 -91 42q-26 0 -53 -12zM446 571v-201h-165q-54 0 -87.5 -31.5t-33.5 -83t37.5 -87t87.5 -40.5q-38 47 -38 94t32.5 81t82 34t101.5 -50
t52 -111.5t-49.5 -107t-125.5 -45.5q-45 0 -95.5 21.5t-94.5 59.5t-72.5 96t-28.5 126t46.5 114t126.5 46h94v85h-304l-72 104h617l72 -104h-183zM363 214q-19 -21 -19 -42t10 -34q29 10 51 34t22 48q0 15 -22.5 15t-41.5 -21z" />
    <glyph glyph-name="uni0923094D" horiz-adv-x="509" 
d="M446 571v-252q0 -73 -38 -114t-106.5 -41t-146.5 65q-43 35 -69.5 78t-26.5 84v180h-79l-72 104h621l72 -104h-155zM252 270q64 0 64 80v221h-128v-222q0 -36 18 -57.5t46 -21.5z" />
    <glyph glyph-name="uni0924094D" horiz-adv-x="339" 
d="M56 321q0 149 165 149h216l85 -121h-258q-44 0 -67.5 -28.5t-23.5 -73.5q0 -80 102 -202l-68 -45q-63 75 -107 164t-44 157zM359 675l72 -104h-451l-72 104h451z" />
    <glyph glyph-name="uni0925094D" horiz-adv-x="458" 
d="M551 571h-88l-72 104h88zM384 109q-82 0 -176 77.5t-94 146.5q0 20 14.5 28t42.5 23q72 37 103 59q65 46 65 87q0 25 -19 41t-43 16t-42.5 -17t-18.5 -42.5t24 -49.5l-59 -38q-69 69 -69 125t39.5 87t88.5 31q76 0 141 -73t65 -134q0 -51 -40 -89q-23 -21 -35 -30.5
t-46 -30.5t-36.5 -22.5t-8.5 -5.5t-7.5 -5.5t-6.5 -5.5t-6 -7q-5 -7 -5 -15q0 -20 20 -30t51 -10q96 0 197 124l77 -99q-108 -141 -216 -141z" />
    <glyph glyph-name="uni0926094D" horiz-adv-x="535" 
d="M186 -46q42 25 79.5 25t69 -13t53.5 -28t51.5 -46t42.5 -47.5t40 -53t32 -42.5l-61 -42q-3 4 -24.5 34t-33.5 44t-35 36q-42 42 -90 42q-26 0 -53 -12zM435 371h-159q-115 0 -115 -92q0 -50 30.5 -80t80.5 -30q24 0 52 17q-16 26 -16 56t25.5 52.5t59 22.5t68 -45
t34.5 -79.5t-42 -76.5l103 -123l-75 -50l-86 133q-38 -18 -75 -18q-97 0 -184.5 85.5t-87.5 188.5q0 72 43.5 115.5t134.5 43.5h79v80h-325l-62 104h637l62 -104h-182v-200z" />
    <glyph glyph-name="uni0927094D" horiz-adv-x="360" 
d="M61 573l-34 -2h-47l-72 104h347l72 -104h-109q-19 -6 -32 -28t-13 -45.5t22 -41.5q5 1 30.5 1t88.5 -9l39 -128q-58 17 -95 17t-64 -13.5t-27 -42.5t20.5 -46t52.5 -17q96 0 191 137l84 -103q-109 -139 -227 -139q-84 0 -158.5 68.5t-74.5 157.5q0 29 17 55t46 40
q-21 14 -33.5 24t-24 29t-11.5 44t12 42zM378 571l-72 104h74l71 -104h-73z" />
    <glyph glyph-name="uni0928094D" horiz-adv-x="298" 
d="M111 426h278l78 -114h-257v-76q0 -17 -9.5 -28.5t-26.5 -11.5q-38 0 -88.5 63.5t-50.5 107.5q0 59 76 59zM318 675l71 -104h-409l-72 104h410z" />
    <glyph glyph-name="uni092A094D" horiz-adv-x="293" 
d="M186 571v-197q0 -59 56 -59t121 88l76 -96q-79 -103 -156 -103q-62 0 -144 74.5t-82 145.5v147h-77l-72 104h405l72 -104h-199z" />
    <glyph glyph-name="uni092B094D" horiz-adv-x="551" 
d="M640 324q-25 40 -65 40q-77 0 -119 -78v-286l-130 71l7 147q-30 -14 -56 -14q-60 0 -143 80t-83 149v138h-71l-71 104h662l72 -104h-188l-1 -107q33 18 75 18t88 -31t83 -78zM232 318q55 0 94 59v194h-146v-190q0 -63 52 -63z" />
    <glyph glyph-name="uni092C094D" horiz-adv-x="361" 
d="M453 571h-473l-72 104h473zM266 127q-83 0 -154.5 70t-71.5 147t53 123t115 46q94 0 163 -84l-44 -57q-40 40 -81 40q-18 0 -39 -8l127 -137q23 17 61 68l69 -83q-89 -125 -198 -125zM165.5 246.5q26.5 -24.5 57.5 -24.5t55 10l-122 132q-17 -26 -17 -59.5t26.5 -58z" />
    <glyph glyph-name="uni092D094D" horiz-adv-x="337" 
d="M357 675l71 -104h-130l-71 104h130zM85 390h18v141q0 17 -11.5 28.5t-29.5 11.5h-82l-70 104h116q57 0 101 -39l61 -53q40 -36 40 -99v-93h191l82 -120h-271v-52q0 -37 -35.5 -37t-99 63t-63.5 104t53 41z" />
    <glyph glyph-name="uni092E094D" horiz-adv-x="354" 
d="M107 389h1v182h-128l-67 104h461l68 -104h-209v-182h191l79 -120h-270v-52q0 -37 -35.5 -37t-99 60.5t-63.5 101.5q0 47 72 47z" />
    <glyph glyph-name="uni092F094D" horiz-adv-x="359" 
d="M299 512.5q19 -35.5 19 -67t-17.5 -49t-65 -47.5t-53.5 -36t-6 -13q0 -22 22.5 -35.5t50.5 -13.5q55 0 94 31.5t71 88.5l77 -101q-91 -141 -191 -141q-49 0 -113 44.5t-108.5 102.5t-44.5 97q0 24 20 34q86 44 110 62t24 35t-12 37.5t-29 29.5h-167l-72 104h471l72 -104
h-196q25 -23 44 -58.5z" />
    <glyph glyph-name="uni0930094D" horiz-adv-x="399" 
d="M69 -39q42 25 79.5 25t69 -13t53.5 -28t51.5 -46t42.5 -47.5t40 -53t32 -42.5l-61 -42q-3 4 -24.5 34t-33.5 44t-34 36q-43 42 -91 42q-26 0 -53 -12zM296 571v-218q0 -70 -91 -103q68 -92 183 -210l-84 -44q-167 200 -271 358l66 58q39 -39 53 -39t14 13v185h-186
l-72 104h511l71 -104h-194z" />
    <glyph glyph-name="uni0932094D" horiz-adv-x="518" 
d="M610 571h-630l-72 104h630zM514 385q-44 0 -65.5 -33t-21.5 -84.5t24 -104.5l-117 41q-31 54 -31 112q0 30 7 54q-22 12 -56.5 12t-60.5 -29t-26 -69.5t14 -74t41 -64.5q42 -50 104 -99l-64 -46q-43 37 -73 66t-67 74q-79 94 -79 185q0 74 46.5 123.5t120.5 49.5t134 -58
q44 56 119 56q49 0 102.5 -39.5t77.5 -90.5l-37 -43q-36 62 -92 62z" />
    <glyph glyph-name="uni0933094D" horiz-adv-x="762" 
d="M854 571h-874l-72 104h874zM481 509q92 0 170 -84t78 -160t-54.5 -132t-127.5 -56t-152 73q-47 -73 -126 -73q-67 0 -148 84t-81 161.5t54.5 133t125.5 55.5t153 -74q47 72 108 72zM272 393q-50 0 -82 -32.5t-32 -88.5q0 -37 19 -57t49.5 -20t50 29t40.5 86q13 40 19 56
q-34 27 -64 27zM495 190q49 0 82.5 34.5t33.5 89.5q0 36 -18.5 57t-44 21t-43.5 -18t-25.5 -33.5t-17.5 -39t-10 -25.5q-4 -11 -12 -29.5t-11 -28.5q37 -28 66 -28z" />
    <glyph glyph-name="uni0935094D" horiz-adv-x="359" 
d="M122 185.5q-81 74.5 -81 157t51.5 132t110.5 49.5t97 -27.5t74 -73.5l-34 -57q-42 42 -83.5 42t-70 -31t-28.5 -73.5t20 -62t57.5 -19.5t84 40t86.5 103l81 -105q-27 -45 -64 -80q-71 -69 -145.5 -69t-155.5 74.5zM451 571h-471l-72 104h471z" />
    <glyph glyph-name="uni0936094D" horiz-adv-x="491" 
d="M216 350q66 0 104.5 37t38.5 99q0 35 -19 57.5t-45.5 22.5t-41.5 -16t-15 -42q0 -39 57 -64l-39 -53q-50 15 -97 59t-47 99.5t37.5 95.5t93.5 40q83 0 152 -85t69 -172q0 -67 -38 -116q-57 -75 -170 -84q57 -64 171 -178l-81 -50q-237 274 -289 347l66 59q54 -56 93 -56z
M511 675l58 -104h-99l-58 104h99z" />
    <glyph glyph-name="uni0937094D" horiz-adv-x="315" 
d="M281 191q-70 0 -143 71t-81 147v162h-77l-72 104h427l72 -104h-210l262 -288q-91 -92 -178 -92zM203 306.5q20 -16.5 55.5 -16.5t79.5 33l-155 162v-131q0 -31 20 -47.5z" />
    <glyph glyph-name="uni0938094D" horiz-adv-x="414" 
d="M275 571v-180q35 -32 82 -32q68 0 127 60l75 -92q-74 -81 -145.5 -81t-149.5 60q-16 -39 -72 -55q83 -113 172 -205l-86 -47q-145 175 -265 355l65 58q41 -39 56 -39q11 0 11 13v185h-165l-72 104h526l72 -104h-231z" />
    <glyph glyph-name="uni0939094D" horiz-adv-x="510" 
d="M322 226q-48 0 -89 -27t-41 -76q0 -30 17.5 -61.5t43 -56.5t57.5 -48q56 -40 106 -63l-70 -52q-76 44 -162 119q-51 44 -84 97t-33 102q0 72 55 122q-71 71 -71 134q0 99 120 99h142v56h-333l-72 104h622l72 -104h-163v-169h-212q-55 0 -55 -43q0 -16 18 -36q42 16 81 16
h323l78 -113h-350z" />
    <glyph glyph-name="uni0915093C094D" horiz-adv-x="565" 
d="M569 380q-71 0 -112 -75v-305l-131 65l5 60q-36 -17 -67 -17q-73 0 -150 79t-77 170q0 76 43.5 114.5t93 38.5t82.5 -15l39 -121q-23 11 -58.5 11t-65 -22t-29.5 -59t24 -57.5t59.5 -20.5t62 19t39.5 52v274h-347l-72 104h677l72 -104h-200q0 -11 -1.5 -38.5t-2.5 -47.5
q35 20 78 20t90 -33t82 -83l-58 -58q-15 27 -31.5 38t-44.5 11zM123 -22l91 93l94 -93l-91 -91z" />
    <glyph glyph-name="uni0916093C094D" horiz-adv-x="522" 
d="M273 571v-205q0 -46 -19 -76t-69 -40q29 -39 77 -63t111.5 -24t104.5 36q-67 13 -117 59.5t-50 109t40 101t95.5 38.5t108.5 -39q101 -76 101 -165q0 -63 -27 -114t-69 -79q-88 -59 -172 -59q-50 0 -98 19t-84 46.5t-74 72.5q-58 67 -120 168l59 53q36 -36 55 -36t19 16
v181h-165l-72 104h634l72 -104h-341zM540 263q27 27 27 63.5t-20 57t-48.5 20.5t-46 -18.5t-17.5 -49t32 -51t73 -22.5zM48 -22l91 93l94 -93l-91 -91z" />
    <glyph glyph-name="uni0917093C094D" horiz-adv-x="272" 
d="M214 571v-283q0 -45 -9.5 -61.5t-30.5 -16.5q-42 0 -97.5 55t-55.5 97t68 42v167h-109l-76 104h388l78 -104h-156zM52 -22l91 93l94 -93l-91 -91z" />
    <glyph glyph-name="uni091C093C094D" horiz-adv-x="451" 
d="M-15 18l91 93l94 -93l-91 -91zM543 571h-563l-72 104h563zM412 234q0 -59 -34 -93t-89.5 -34t-97.5 28t-75 79q-59 88 -105 223l68 39q72 -244 167 -244q56 0 56 57q0 68 -99 163l15 24h329l80 -115h-269q54 -51 54 -127z" />
    <glyph glyph-name="uni0928093C094D" horiz-adv-x="327" 
d="M64 -22l91 93l94 -93l-91 -91zM106 426h278l78 -114h-257v-76q0 -17 -9.5 -28.5t-26.5 -11.5q-38 0 -88.5 63.5t-50.5 107.5q0 59 76 59zM313 675l71 -104h-409l-72 104h410z" />
    <glyph glyph-name="uni092B093C094D" horiz-adv-x="551" 
d="M640 324q-25 40 -65 40q-77 0 -119 -78v-286l-130 71l7 147q-30 -14 -56 -14q-60 0 -143 80t-83 149v138h-71l-71 104h662l72 -104h-188l-1 -107q33 18 75 18t88 -31t83 -78zM232 318q55 0 94 59v194h-146v-190q0 -63 52 -63zM81 60l91 93l94 -93l-91 -91z" />
    <glyph glyph-name="uni092F093C094D" horiz-adv-x="359" 
d="M299 512.5q19 -35.5 19 -67t-17.5 -49t-65 -47.5t-53.5 -36t-6 -13q0 -22 22.5 -35.5t50.5 -13.5q55 0 94 31.5t71 88.5l77 -101q-91 -141 -191 -141q-49 0 -113 44.5t-108.5 102.5t-44.5 97q0 24 20 34q86 44 110 62t24 35t-12 37.5t-29 29.5h-167l-72 104h471l72 -104
h-196q25 -23 44 -58.5zM6 46l91 93l94 -93l-91 -91z" />
    <glyph glyph-name="itfStar" horiz-adv-x="667" 
 />
    <glyph glyph-name="uni09080902" horiz-adv-x="544" 
d="M451 776l66 66l67 -66l-66 -66zM485 879q-42 0 -71.5 -26t-29.5 -75.5t53 -102.5h100l71 -104h-163v-188h-236q-29 0 -45.5 -17t-16.5 -42q0 -30 28 -30t77 17t75 17q58 0 111.5 -59t53.5 -117t-50.5 -103.5t-125.5 -61.5l111 -123l-83 -54l-123 172q-58 12 -113.5 54
t-55.5 81q0 26 22.5 45.5t49.5 19.5q40 0 104 -83q64 2 118.5 30t54.5 67q0 23 -15 23q-12 0 -64 -19.5t-89 -19.5q-55 0 -120 73.5t-65 133t37 88t91 28.5h143v68h-330l-72 104h435q-69 79 -69 163q0 60 42 96.5t107 36.5t123 -46l-27 -53q-21 7 -43 7z" />
    <glyph glyph-name="uni09300941" horiz-adv-x="603" 
d="M296 571v-109l109 5q61 0 119 -77.5t58 -135.5t-46 -105t-95 -67l-92 109q53 17 95 47.5t42 63.5q0 46 -59 46h-131q-4 -67 -91 -98q68 -92 183 -210l-84 -44q-167 200 -271 358l66 58q39 -39 53 -39t14 13v185h-186l-72 104h715l71 -104h-398z" />
    <glyph glyph-name="uni09300942" horiz-adv-x="704" 
d="M296 571v-218q0 -70 -91 -103q68 -92 183 -210l-84 -44q-167 200 -271 358l66 58q39 -39 53 -39t14 13v185h-186l-72 104h816l71 -104h-499zM360 184q29 -6 49 -6t46 2.5t58 14t52 40t20 67t-19.5 67t-52 28.5t-50 -17t-17.5 -48t34 -58l-41 -47q-99 70 -99 148
q0 46 35.5 81.5t105 35.5t133.5 -76t64 -161t-72 -135q-58 -40 -133 -40q-18 0 -37 2l-78 100z" />
    <glyph glyph-name="uni09390941" horiz-adv-x="514" 
d="M327 -54q63 0 119.5 -65t56.5 -122.5t-46.5 -103t-128.5 -45.5t-159.5 55.5t-132.5 132.5l57 40q100 -123 188 -123q51 0 86.5 27.5t35.5 65.5t-35 38q-23 0 -38.5 -25t-17.5 -64l-99 59q-2 11 -2 21q0 42 30 75q-172 130 -172 243q0 71 56 124q-74 73 -74 137
q0 99 120 99h142v56h-318l-72 104h611l72 -104h-167v-169h-212q-55 0 -55 -43q0 -16 19 -37q42 17 80 17q85 0 144 -63t59 -136q0 -87 -100 -133l-94 100q44 17 67 44t23 50q0 27 -46 27t-89 -32.5t-43 -82.5q0 -84 129 -167h6z" />
    <glyph glyph-name="uni09390942" horiz-adv-x="514" 
d="M370 201q0 27 -46 27t-89 -32.5t-43 -82.5q0 -79 117 -159q140 -25 284 -259l-55 -47q-129 195 -225 195q-36 0 -62 -23t-26 -57q0 -19 12.5 -31t32.5 -12t34.5 16.5t22.5 61.5l104 -64q-19 -113 -121 -113q-62 0 -126.5 63.5t-64.5 128.5q0 43 23 77t62 52
q-135 114 -135 213q0 71 56 124q-74 73 -74 137q0 99 120 99h142v56h-318l-72 104h611l72 -104h-167v-169h-212q-55 0 -55 -43q0 -16 19 -37q42 17 80 17q85 0 144 -63t59 -136q0 -87 -100 -133l-94 100q44 17 67 44t23 50z" />
    <glyph glyph-name="uni09260943" horiz-adv-x="487" 
d="M262 -6q-82 0 -154.5 72.5t-72.5 143.5q0 50 62 74q-69 60 -69 125q0 40 31.5 62.5t68.5 22.5h114v77h-262l-72 104h557l71 -104h-164v-179h-158q-69 0 -69 -41q0 -25 25 -47q27 5 58.5 5t60.5 -9l37 -104q-28 8 -69 8t-74.5 -14.5t-33.5 -46.5q0 -22 17.5 -38t55 -16
t86 20t87.5 58l69 -74q-85 -99 -202 -99z" />
    <glyph glyph-name="uni09390943" horiz-adv-x="560" 
d="M502 164q0 -14 -21 -33t-46.5 -34.5t-46.5 -34.5t-21 -33q0 -49 64 -49t118 57l80 -69q-69 -76 -159 -76q-69 0 -134.5 59.5t-65.5 122.5q0 26 17.5 47t47 43.5t29.5 31.5q0 17 -39.5 17t-71 -11t-58.5 -41t-27 -74t28 -89t70 -78q79 -63 123 -82l-67 -48
q-45 22 -100.5 68.5t-88 85.5t-57 93.5t-24.5 108.5q0 73 67 125q-83 76 -83 145q0 99 120 99h142v56h-318l-72 104h672l72 -104h-228v-169h-212q-55 0 -55 -43q0 -25 33 -49q52 19 107.5 19t130 -54.5t74.5 -110.5z" />
    <glyph glyph-name="uni094D0928.post" horiz-adv-x="270" 
d="M-27 110q39 -53 39 -67q0 -30 -48 -30t-95.5 26.5t-47.5 65.5q0 23 34 50l215 166v250h-90l-76 104h386l78 -104h-168v-571l-130 79v121z" />
    <glyph glyph-name="uni094D092F.post" horiz-adv-x="567" 
d="M19 502q75 0 157 -56.5t82 -101.5q0 -35 -79 -93q-32 -23 -32 -35q0 -32 39 -32q50 0 103 44.5t79 92.5v250h-393l-79 104h691l68 -104h-158v-571l-130 72l5 73q-59 -63 -129 -63t-151 64.5t-81 121.5q0 23 20 34q7 4 25.5 13.5t27.5 15t21 13.5q23 14 23 25
q0 9 -13.5 11t-49.5 2h-169l-65 120h188z" />
    <glyph glyph-name="uni094D0930.post" horiz-adv-x="268" 
d="M70 571h-90l-76 104h386l78 -104h-168v-572l-130 79v80l-152 -158l-94 66l246 220v285z" />
    <glyph glyph-name="uni094D0930" 
d="M-321 -147l-104 83l154 139h122l166 -176l-70 -46l-127 159z" />
    <glyph glyph-name="uni0930094D.1" horiz-adv-x="191" 
d="M383 571h-403l-72 104h403zM-1 418q55 -43 130 -43t148 58l68 -112q-83 -60 -187.5 -60t-199.5 104z" />
    <glyph glyph-name="uni0930094D.2" 
d="M-47 879q-42 0 -71.5 -26t-29.5 -69q0 -58 64 -120l-60 -23q-40 30 -72.5 85.5t-32.5 113.5t42 94.5t107 36.5t123 -46l-27 -53q-21 7 -43 7z" />
    <glyph glyph-name="uni0930094D0902" 
d="M-98 776l60 60l61 -60l-60 -60zM-47 879q-42 0 -71.5 -26t-29.5 -69q0 -58 64 -120l-60 -23q-40 30 -72.5 85.5t-32.5 113.5t42 94.5t107 36.5t123 -46l-27 -53q-21 7 -43 7z" />
    <glyph glyph-name="uni0930094D.aMatraI" 
d="M86 891q-51 0 -81 -37t-30 -87.5t25 -89.5l-44 -36q-33 31 -55.5 81t-22.5 109.5t45.5 105.5t110 46t122.5 -46l-27 -53q-21 7 -43 7z" />
    <glyph glyph-name="uni0902.aMatraI" 
d="M-42 821l91 93l94 -93l-91 -91z" />
    <glyph glyph-name="uni0930094D0902.aMatraI" 
d="M20 784l64 66l67 -66l-64 -64zM86 891q-51 0 -81 -37t-30 -87.5t25 -89.5l-44 -36q-33 31 -55.5 81t-22.5 109.5t45.5 105.5t110 46t122.5 -46l-27 -53q-21 7 -43 7z" />
    <glyph glyph-name="uni09400930094D" horiz-adv-x="270" 
d="M200 571v-571l-130 77v494h-90l-72 104h187q-88 180 -183 180q-63 0 -63 -53q0 -20 15 -37.5t33 -26.5l-69 -41q-37 19 -70.5 54.5t-33.5 89t40.5 90.5t106.5 37q112 0 196 -134v11q0 60 33.5 93t80.5 33q71 0 129 -46l-27 -53q-23 10 -49 10q-91 0 -91 -91
q0 -51 37 -116h110l72 -104h-162z" />
    <glyph glyph-name="uni09400902" horiz-adv-x="289" 
d="M200 571v-571l-130 77v494h-90l-72 104h187q-88 180 -183 180q-63 0 -63 -53q0 -20 15 -37.5t33 -26.5l-69 -41q-37 19 -70.5 54.5t-33.5 89t40.5 90.5t106.5 37q173 0 309 -293h110l72 -104h-162zM179 821l91 93l94 -93l-91 -91z" />
    <glyph glyph-name="uni09400930094D0902" horiz-adv-x="270" 
d="M206 771l62 63l64 -63l-62 -62zM200 571v-571l-130 77v494h-90l-72 104h187q-88 180 -183 180q-63 0 -63 -53q0 -20 15 -37.5t33 -26.5l-69 -41q-37 19 -70.5 54.5t-33.5 89t40.5 90.5t106.5 37q112 0 196 -134v11q0 60 33.5 93t80.5 33q71 0 129 -46l-27 -53
q-23 10 -49 10q-91 0 -91 -91q0 -51 37 -116h110l72 -104h-162z" />
    <glyph glyph-name="uni0940.aLong" horiz-adv-x="289" 
d="M200 571v-571l-130 77v494h-90l-72 104h182q-46 64 -142 122t-172.5 58t-76.5 -53q0 -20 15 -37.5t33 -26.5l-69 -41q-37 19 -70.5 54.5t-33.5 89t43 90.5t116 37q116 0 241.5 -88.5t205.5 -204.5h110l72 -104h-162z" />
    <glyph glyph-name="uni09400930094D.aLong" horiz-adv-x="289" 
d="M231 879q-42 0 -71.5 -26t-29.5 -69q0 -57 53 -109h107l72 -104h-162v-571l-130 77v494h-90l-72 104h182q-46 64 -142 122t-172.5 58t-76.5 -53q0 -20 15 -37.5t33 -26.5l-69 -41q-37 19 -70.5 54.5t-33.5 89t43 90.5t116 37q127 0 308 -149q-1 73 35.5 112.5t101.5 39.5
t123 -46l-27 -53q-21 7 -43 7z" />
    <glyph glyph-name="uni09400902.aLong" horiz-adv-x="289" 
d="M200 571v-571l-130 77v494h-90l-72 104h182q-46 64 -142 122t-172.5 58t-76.5 -53q0 -20 15 -37.5t33 -26.5l-69 -41q-37 19 -70.5 54.5t-33.5 89t43 90.5t116 37q116 0 241.5 -88.5t205.5 -204.5h110l72 -104h-162zM151 821l91 93l94 -93l-91 -91z" />
    <glyph glyph-name="uni09400930094D0902.aLong" horiz-adv-x="289" 
d="M192 773l61 62l63 -62l-61 -61zM231 879q-42 0 -71.5 -26t-29.5 -69q0 -57 53 -109h107l72 -104h-162v-571l-130 77v494h-90l-72 104h182q-46 64 -142 122t-172.5 58t-76.5 -53q0 -20 15 -37.5t33 -26.5l-69 -41q-37 19 -70.5 54.5t-33.5 89t43 90.5t116 37
q127 0 308 -149q-1 73 35.5 112.5t101.5 39.5t123 -46l-27 -53q-21 7 -43 7z" />
    <glyph glyph-name="uni09470930094D" 
d="M-42 879q-42 0 -70 -24.5t-28 -67.5q0 -66 53 -157l-66 -34q-58 114 -94.5 159.5t-73 46t-77.5 -29.5l-83 114q66 39 118 39q51 0 88 -39t55 -67.5t20 -31.5q-8 34 -8 69t18 65q29 50 94.5 50t123.5 -46l-27 -53q-21 7 -43 7z" />
    <glyph glyph-name="uni09470902" 
d="M-496 886q66 39 112.5 39t84.5 -20.5t63 -46t54.5 -73.5t42.5 -75.5t37 -79.5l-66 -34q-58 114 -94.5 159.5t-73 46t-77.5 -29.5zM-133 821l91 93l94 -93l-91 -91z" />
    <glyph glyph-name="uni09470901" 
d="M-483 886q66 39 112.5 39t84.5 -20.5t63 -46t54.5 -73.5t42.5 -75.5t37 -79.5l-66 -34q-58 114 -94.5 159.5t-73 46t-77.5 -29.5zM-61 996l91 93l94 -93l-91 -91zM24 831q82 0 145 120l99 -75q-37 -68 -82.5 -109.5t-115.5 -41.5q-138 0 -251 175l56 41
q25 -36 41.5 -55.5t45.5 -37t62 -17.5z" />
    <glyph glyph-name="uni09470930094D0902" 
d="M-98 772l56 56l57 -56l-56 -56zM-42 879q-42 0 -70 -24.5t-28 -67.5q0 -66 53 -157l-66 -34q-58 114 -94.5 159.5t-73 46t-77.5 -29.5l-83 114q66 39 118 39q51 0 88 -39t55 -67.5t20 -31.5q-8 34 -8 69t18 65q29 50 94.5 50t123.5 -46l-27 -53q-21 7 -43 7z" />
    <glyph glyph-name="uni09480930094D" 
d="M-391 969q31 15 76.5 15t85 -38.5t61.5 -108.5q-1 65 30.5 100.5t80 35.5t109.5 -48l-27 -53q-21 7 -43 7q-48 0 -73.5 -31.5t-25.5 -77.5q0 -43 12.5 -93t14.5 -60l-73 -11q-46 76 -105 106q-26 13 -55 13t-63 -19l-82 103q38 29 94 29t117 -46.5t106 -116.5
q-43 124 -97 173q-29 25 -52.5 25t-40.5 -7z" />
    <glyph glyph-name="uni09480902" 
d="M-391 969q31 15 79.5 15t90 -36.5t67.5 -95.5q48 -109 64 -235l-73 -11q-46 76 -105 106q-26 13 -55 13t-63 -19l-82 103q38 29 94 29t117 -46.5t106 -116.5q-43 124 -97 173q-29 25 -52.5 25t-40.5 -7zM-93 821l91 93l94 -93l-91 -91z" />
    <glyph glyph-name="uni09480901" 
d="M-391 969q31 15 79.5 15t90 -36.5t67.5 -95.5q48 -109 64 -235l-73 -11q-46 76 -105 106q-26 13 -55 13t-63 -19l-82 103q38 29 94 29t117 -46.5t106 -116.5q-43 124 -97 173q-29 25 -52.5 25t-40.5 -7zM-4 996l91 93l94 -93l-91 -91zM81 831q82 0 145 120l99 -75
q-37 -68 -82.5 -109.5t-115.5 -41.5q-138 0 -251 175l56 41q25 -36 41.5 -55.5t45.5 -37t62 -17.5z" />
    <glyph glyph-name="uni09480930094D0902" 
d="M-78 772l56 56l57 -56l-56 -56zM-391 969q31 15 76.5 15t85 -38.5t61.5 -108.5q-1 65 30.5 100.5t80 35.5t109.5 -48l-27 -53q-21 7 -43 7q-48 0 -73.5 -31.5t-25.5 -77.5q0 -43 12.5 -93t14.5 -60l-73 -11q-46 76 -105 106q-26 13 -55 13t-63 -19l-82 103q38 29 94 29
t117 -46.5t106 -116.5q-43 124 -97 173q-29 25 -52.5 25t-40.5 -7z" />
    <glyph glyph-name="uni094A0902" horiz-adv-x="289" 
d="M214 571v-571l-130 77v494h-94l-53 104h162q-14 40 -43 54t-103 14h-45q-127 0 -177 75q-22 33 -48 98l60 41q22 -56 37 -71q29 -29 118 -29h42q127 0 178 -49q26 -25 40 -55t26 -78h120l53 -104h-143zM175 821l91 93l94 -93l-91 -91z" />
    <glyph glyph-name="uni094B0930094D" horiz-adv-x="289" 
d="M214 571v-571l-130 77v494h-94l-53 104h160q-69 127 -132 127q-31 0 -72 -30l-83 114q66 39 118 39q51 0 88 -39t55 -67.5t20 -31.5q-8 34 -8 69t17 65q30 50 95.5 50t123.5 -46l-27 -53q-21 7 -43 7q-42 0 -70 -24.5t-28 -69.5t29 -110h124l53 -104h-143z" />
    <glyph glyph-name="uni094B0902" horiz-adv-x="289" 
d="M214 571v-571l-130 77v494h-94l-53 104h154q-69 127 -132 127q-31 0 -72 -30l-83 114q66 39 114.5 39t88 -21.5t71.5 -61.5q54 -69 99 -167h127l53 -104h-143zM177 821l91 93l94 -93l-91 -91z" />
    <glyph glyph-name="uni094B0930094D0902" horiz-adv-x="289" 
d="M214 571v-571l-130 77v494h-94l-53 104h154q-69 127 -132 127q-31 0 -72 -30l-83 114q66 39 118 39q73 0 137 -93q-1 12 -1 24q0 52 33.5 83.5t96 31.5t120.5 -46l-27 -53q-21 7 -43 7q-49 0 -74.5 -26.5t-25.5 -74t39 -103.5h127l53 -104h-143zM180 772l60 60l61 -60
l-60 -60z" />
    <glyph glyph-name="uni094C0930094D" horiz-adv-x="289" 
d="M214 571v-571l-130 77v494h-94l-53 104h133q-52 50 -102 50q-33 0 -67 -19l-82 103q38 29 94 29t117 -46.5t106 -116.5q-43 124 -98 173q-28 25 -51.5 25t-40.5 -7l-50 103q31 15 76.5 15t85 -38.5t61.5 -108.5q-1 65 30.5 100.5t80 35.5t109.5 -48l-27 -53q-21 7 -43 7
q-48 0 -73.5 -31.5t-25.5 -73t13 -99.5h121l53 -104h-143z" />
    <glyph glyph-name="uni094C0902" horiz-adv-x="289" 
d="M214 571v-571l-130 77v494h-94l-53 104h137q-52 50 -102 50q-33 0 -67 -19l-82 103q38 29 94 29t117 -46.5t106 -116.5q-43 124 -98 173q-28 25 -51.5 25t-40.5 -7l-50 103q31 15 76 15t83 -28t63 -76q47 -90 69 -205h113l53 -104h-143zM194 821l91 93l94 -93l-91 -91z
" />
    <glyph glyph-name="uni094C0930094D0902" horiz-adv-x="270" 
d="M200 571v-571l-130 77v494h-94l-53 104h126q-52 50 -102 50q-33 0 -67 -19l-82 103q38 29 94 29t117 -46.5t106 -116.5q-43 124 -97 173q-29 25 -52.5 25t-40.5 -7l-50 103q31 15 76.5 15t85 -38.5t61.5 -108.5q-1 65 30.5 100.5t80 35.5t109.5 -48l-27 -53q-21 7 -43 7
q-48 0 -73.5 -31.5t-25.5 -73t13 -99.5h128l53 -104h-143zM188 772l56 56l57 -56l-56 -56z" />
    <glyph glyph-name="uni0915094D0937" horiz-adv-x="732" 
d="M662 571v-571l-130 72v216q-47 -21 -91 -21q-109 0 -198 64q-2 -2 -16.5 -11.5t-23 -16t-22.5 -19t-23 -23.5q-21 -28 -21 -62t26.5 -58t66.5 -24t62 16q-16 25 -16 48.5t20.5 40t47.5 16.5t55 -39t28 -68.5t-18 -49.5l106 -123l-79 -61l-93 141q-31 -18 -80 -18
q-81 0 -156 73.5t-75 148.5q0 31 20 68q15 25 108 95q-29 24 -54.5 70t-25.5 94t40 84t104 36t118.5 -54.5t54.5 -120.5q0 -51 -91 -133q33 -15 78 -15t84.5 17.5t63.5 43.5v144h-76l-72 104h368l72 -104h-162zM219 451q90 67 90 104q0 25 -16 38.5t-44.5 13.5t-50 -21.5
t-21.5 -48t11 -50t31 -36.5z" />
    <glyph glyph-name="uni0915094D0937094D" horiz-adv-x="496" 
d="M631 353q-88 -86 -193.5 -86t-194.5 64q-2 -2 -16.5 -11.5t-23 -16t-22.5 -19t-23 -23.5q-21 -28 -21 -62t26.5 -58t66.5 -24t62 16q-16 25 -16 48.5t20.5 40t47.5 16.5t55 -39t28 -68.5t-18 -49.5l106 -123l-79 -61l-93 141q-31 -18 -80 -18q-81 0 -156 73.5t-75 148.5
q0 31 20 68q15 25 108 95q-29 24 -54.5 70t-25.5 94t40 84t104 36t118.5 -54.5t54.5 -120.5q0 -51 -91 -133q33 -15 85 -15t101.5 29.5t77.5 61.5zM219 451q90 67 90 104q0 25 -16 38.5t-44.5 13.5t-50 -21.5t-21.5 -48t11 -50t31 -36.5zM588 571h-132l-72 104h132z" />
    <glyph glyph-name="uni0915094D0937094D092E" horiz-adv-x="1045" 
d="M845 389v182h-168v-182h168zM219 451q90 67 90 104q0 25 -16 38.5t-44.5 13.5t-50 -21.5t-21.5 -48t11 -50t31 -36.5zM975 571v-571l-130 77v192h-168v-52q0 -37 -35 -37q-19 0 -52.5 22.5t-61.5 53.5q-31 -9 -63 -9q-105 0 -222 84q-2 -2 -16.5 -11.5t-23 -16t-22.5 -19
t-23 -23.5q-21 -28 -21 -62t26.5 -58t66.5 -24t62 16q-16 25 -16 48.5t20.5 40t47.5 16.5t55 -39t28 -68.5t-18 -49.5l106 -123l-79 -61l-93 141q-31 -18 -80 -18q-81 0 -156 73.5t-75 148.5q0 31 20 68q15 25 108 95q-29 24 -54.5 70t-25.5 94t40 84t104 36t118.5 -54.5
t54.5 -120.5q0 -51 -91 -133q50 -23 97 -23t84 10q17 21 64 21h1v182h-124l-67 104h704l68 -104h-158z" />
    <glyph glyph-name="uni0915094D0937094D092E094D" horiz-adv-x="807" 
d="M220 451q90 67 90 104q0 25 -16 38.5t-44.5 13.5t-50 -21.5t-21.5 -48t11 -50t31 -36.5zM686 269v-52q0 -37 -35 -37q-20 0 -53.5 23t-62.5 55q-30 -11 -69 -11q-105 0 -222 84q-2 -2 -16.5 -11.5t-23 -16t-22.5 -19t-22 -23.5q-22 -28 -22 -62t26.5 -58t66.5 -24t62 16
q-16 25 -16 48.5t20.5 40t47.5 16.5t55 -39t28 -68.5t-18 -49.5l106 -123l-79 -61l-93 141q-31 -18 -80 -18q-81 0 -156 73.5t-75 148.5q0 31 21 68q14 25 107 95q-29 24 -54.5 70t-25.5 94t40 84t104 36t118.5 -54.5t54.5 -120.5q0 -51 -91 -133q50 -23 100 -23t92 14
q17 17 61 17h1v182h-128l-67 104h461l68 -104h-209v-182h191l79 -120h-270z" />
    <glyph glyph-name="uni0915094D0937094D092E094D092F" horiz-adv-x="1380" 
d="M1181 571h-152q25 -23 44 -58.5t19 -67t-17.5 -49t-65 -47.5t-53.5 -36t-6 -13q0 -22 22.5 -35.5t50.5 -13.5q92 0 158 107v213zM692 571v-182h118q3 10 18 18q86 44 110 62t24 35t-12 37.5t-29 29.5h-229zM219 451q90 67 90 104q0 25 -16 38.5t-44.5 13.5t-50 -21.5
t-21.5 -48t11 -50t31 -36.5zM1310 571v-571l-130 77l5 98q-53 -46 -106 -46t-114 42t-106 98h-167v-52q0 -37 -35 -37q-24 0 -65.5 31.5t-70.5 69.5q-39 -14 -80 -14q-109 0 -198 64q-2 -2 -16.5 -11.5t-23 -16t-22.5 -19t-23 -23.5q-21 -28 -21 -62t26.5 -58t66.5 -24
t62 16q-16 25 -16 48.5t20.5 40t47.5 16.5t55 -39t28 -68.5t-18 -49.5l106 -123l-79 -61l-93 141q-31 -18 -80 -18q-81 0 -156 73.5t-75 148.5q0 31 20 68q15 25 108 95q-29 24 -54.5 70t-25.5 94t40 84t104 36t118.5 -54.5t54.5 -120.5q0 -51 -91 -133q33 -15 84.5 -15
t99.5 28t77 60v117h-128l-67 104h1028l72 -104h-162z" />
    <glyph glyph-name="uni0915094D0937094D092F" horiz-adv-x="1079" 
d="M880 571h-152q25 -23 44 -58.5t19 -67t-17.5 -49t-65 -47.5t-53.5 -36t-6 -13q0 -22 22.5 -35.5t50.5 -13.5q92 0 158 107v213zM219 451q90 67 90 104q0 25 -16 38.5t-44.5 13.5t-50 -21.5t-21.5 -48t11 -50t31 -36.5zM1009 571v-571l-130 77l5 98q-53 -46 -106 -46
t-114.5 42t-106.5 99q-42 -16 -91 -16q-111 0 -223 77q-2 -2 -16.5 -11.5t-23 -16t-22.5 -19t-23 -23.5q-21 -28 -21 -62t26.5 -58t66.5 -24t62 16q-16 25 -16 48.5t20.5 40t47.5 16.5t55 -39t28 -68.5t-18 -49.5l106 -123l-79 -61l-93 141q-31 -18 -80 -18q-81 0 -156 73.5
t-75 148.5q0 31 20 68q15 25 108 95q-29 24 -54.5 70t-25.5 94t40 84t104 36t118.5 -54.5t54.5 -120.5q0 -51 -91 -133q44 -20 98 -20t103 20q3 17 20 26q86 44 110 62t24 35t-12 37.5t-29 29.5h-167l-72 104h718l72 -104h-162z" />
    <glyph glyph-name="uni0915094D0937094D0935" horiz-adv-x="1054" 
d="M219 451q90 67 90 104q0 25 -16 38.5t-44.5 13.5t-50 -21.5t-21.5 -48t11 -50t31 -36.5zM984 571v-571l-133 78l6 90q-61 -57 -123.5 -57t-125.5 50t-90 119q-35 -13 -77 -13q-109 0 -198 64q-2 -2 -16.5 -11.5t-23 -16t-22.5 -19t-23 -23.5q-21 -28 -21 -62t26.5 -58
t66.5 -24t62 16q-16 25 -16 48.5t20.5 40t47.5 16.5t55 -39t28 -68.5t-18 -49.5l106 -123l-79 -61l-93 141q-31 -18 -80 -18q-81 0 -156 73.5t-75 148.5q0 31 20 68q15 25 108 95q-29 24 -54.5 70t-25.5 94t40 84t104 36t118.5 -54.5t54.5 -120.5q0 -51 -91 -133
q33 -15 87.5 -15t114.5 38q14 55 57 86.5t91 31.5q94 0 172 -99l-34 -57q-39 39 -79 39t-70 -36t-30 -79q0 -67 67 -67q46 0 93.5 39.5t80.5 95.5l-4 213h-410l-72 104h705l72 -104h-163z" />
    <glyph glyph-name="uni091C094D091E" horiz-adv-x="750" 
d="M550 361h-159q60 -66 60 -148q0 -60 -42.5 -101t-106.5 -41q-14 0 -31 3l74 -117l-77 -51l-109 221q-51 37 -86 82t-35 70t18.5 46t40.5 21q27 0 73 -84q8 -15 14 -26q14 -24 32 -60q12 -8 51 -8t61.5 23.5t22.5 65.5q0 83 -115 195l15 24h299v95h-570l-72 104h863
l72 -104h-163v-571l-130 77v284z" />
    <glyph glyph-name="uni091C094D091E094D" horiz-adv-x="519" 
d="M611 571h-631l-72 104h631zM451 213q0 -60 -42.5 -101t-106.5 -41q-14 0 -31 3l74 -117l-77 -51l-109 221q-51 37 -86 82t-35 70t18.5 46t40.5 21q27 0 73 -84q8 -15 14 -26q14 -24 32 -60q12 -8 51 -8t61.5 23.5t22.5 65.5q0 83 -115 195l15 24h345l86 -115h-291
q60 -66 60 -148z" />
    <glyph glyph-name="uni091C094D091E094D092F" horiz-adv-x="1111" 
d="M912 571h-152q25 -23 44 -58.5t19 -67t-17.5 -49t-65 -47.5t-53.5 -36t-6 -13q0 -22 22.5 -35.5t50.5 -13.5q92 0 158 107v213zM1041 571v-571l-130 77l5 98q-53 -46 -106 -46t-114 41.5t-106 98.5q-95 92 -154 92h-45q60 -66 60 -148q0 -60 -42.5 -101t-106.5 -41
q-14 0 -31 3l74 -117l-77 -51l-109 221q-51 37 -86 82t-35 70t18.5 46t40.5 21q27 0 73 -84q8 -15 14 -26q14 -24 32 -60q12 -8 51 -8t61.5 23.5t22.5 65.5q0 83 -115 195l15 24h147q95 0 179 -60q74 39 95 55t21 33t-12 37.5t-29 29.5h-672l-72 104h1223l72 -104h-162z" />
    <glyph glyph-name="uni0915094D0928" horiz-adv-x="780" 
d="M222 71q39 -53 39 -67q0 -30 -48 -30t-95.5 26.5t-47.5 65.5q0 25 34 50l55 40q-48 24 -85 83t-37 126.5t43.5 106t93 38.5t82.5 -15l39 -121q-23 11 -58.5 11t-65 -22t-29.5 -59t24 -57.5t60.5 -20.5t100.5 53v292h-347l-72 104h892l72 -104h-415q0 -11 -1.5 -38.5
t-2.5 -47.5q35 20 82 20q68 0 144 -85.5t76 -168.5q0 -64 -39.5 -108t-106.5 -44q-45 0 -84 15l-32 126q36 -16 70.5 -16t60 22t25.5 56.5t-22 56t-58 21.5q-71 0 -112 -75v-305l-131 65l4 84z" />
    <glyph glyph-name="uni0916094D0928" horiz-adv-x="755" 
d="M359 -47q39 -53 39 -67q0 -30 -48 -30t-95.5 26.5t-47.5 65.5q0 25 34 50l93 70q-41 3 -81.5 23.5t-71 46.5t-64.5 68q-50 61 -105 151l59 53q36 -36 55 -36t19 16v181h-165l-72 104h864l72 -104h-159v-571l-126 71l4 41zM351 468.5q40 38.5 96.5 38.5t107.5 -34v98h-282
v-205q0 -46 -19 -76t-69 -40q29 -39 77 -63t111.5 -24t104.5 36q-67 13 -117 59.5t-50 109t40 101zM540 263q27 27 27 63.5t-20 57t-48.5 20.5t-46 -18.5t-17.5 -49t32 -51t73 -22.5z" />
    <glyph glyph-name="uni0917094D0928" horiz-adv-x="516" 
d="M219 90q39 -53 39 -67q0 -30 -48 -30t-95.5 26.5t-47.5 65.5q0 23 34 50l215 166v270h-102v-243q0 -45 -9.5 -61.5t-30.5 -16.5q-42 0 -97.5 55t-55.5 97t68 42v127h-109l-76 104h632l78 -104h-168v-571l-130 79v101z" />
    <glyph glyph-name="uni0918094D0928" horiz-adv-x="605" 
d="M57 573l-37 -2h-40l-72 104h717l71 -104h-161v-571l-130 76l6 84l-115 -118q39 -53 39 -67q0 -30 -48 -30t-92.5 24.5t-44.5 63.5q0 23 34 50l63 52h-9q-61 0 -122.5 64t-61.5 131t60 100q-67 49 -67 97q0 24 10 46zM239 221q81 0 170 104l-4 246h-190q-19 -7 -32 -29
t-13 -46.5t19 -43.5q27 5 55.5 5t63.5 -11l36 -121q-40 14 -80 14q-96 0 -96 -59q0 -26 19 -42.5t52 -16.5z" />
    <glyph glyph-name="uni091A094D0928" horiz-adv-x="673" 
d="M329 32q39 -53 39 -67q0 -30 -48 -30t-92.5 24.5t-44.5 63.5q0 23 34 50l75 62q-56 2 -114 67t-58 128q0 33 24 57l-86 -5l-72 106h376l72 -105h-93q-50 -7 -80 -34.5t-30 -61.5q0 -58 66 -58q45 0 87.5 31.5t89.5 90.5v220h-494l-64 104h777l63 -104h-153v-571l-130 77
l6 109z" />
    <glyph glyph-name="uni091B094D0928" horiz-adv-x="711" 
d="M529 296.5q15 40.5 15 68.5q0 55 -31 55q-25 0 -40.5 -25.5t-15.5 -67t47 -81.5q10 10 25 50.5zM545 571v-74q42 -31 69 -82t27 -114t-37 -132l115 -80l-59 -69l-106 83q-22 -23 -54 -44v-506l-125 74v183h-113v-76q0 -17 -9.5 -28.5t-26.5 -11.5q-38 0 -88.5 63.5
t-50.5 107.5q0 59 76 59h212v89q-24 -2 -38 -2q-100 0 -183.5 65.5t-83.5 152.5q0 48 31 79q-62 58 -62 110t38 83t110 31q36 0 88 -11l40 -114q-50 10 -81 10q-79 0 -79 -42q0 -19 19 -34q28 4 58.5 4t67.5 -10l47 -116q-46 11 -78.5 11t-59 -13t-26.5 -42q0 -57 99 -57
t170 68q-43 40 -76 95t-33 104t21.5 82t54.5 48v56h-439l-72 104h823l72 -104h-258z" />
    <glyph glyph-name="uni091C094D0928" horiz-adv-x="824" 
d="M513 53q39 -53 39 -67q0 -30 -48 -30t-92.5 24.5t-44.5 63.5q0 23 34 50l233 188q-33 49 -82 64t-138 15h-58q54 -51 54 -127q0 -59 -34 -93t-89.5 -34t-97.5 28t-75 79q-59 88 -105 223l68 39q72 -244 167 -244q56 0 56 57q0 68 -99 163l15 24h181q129 0 233 -96l-5 191
h-645l-72 104h936l72 -104h-162v-571l-130 72l5 101z" />
    <glyph glyph-name="uni091D094D0928" horiz-adv-x="856" 
d="M585 30q62 -40 62 -62q0 -41 -100 -41q-41 0 -70 14t-29 45q0 18 18 47l154 251q-48 -36 -105 -36q-29 0 -64 9q24 -37 24 -77q0 -59 -49 -99t-113 -60l116 -126l-83 -54l-128 176q-58 12 -112.5 55t-54.5 83q0 27 22 46.5t50 19.5q37 0 107 -91q60 3 107.5 31t47.5 66
q0 19 -21 19t-62.5 -19.5t-66.5 -19.5q-56 0 -120.5 69t-64.5 133q0 103 128 103h124v59h-322l-72 104h968l72 -104h-162v-571l-130 72l8 128zM657 571h-229v-171h-217q-27 0 -44.5 -13t-17.5 -31q0 -37 31 -37q23 0 64.5 18.5t70 18.5t75 -7t73.5 -7q104 0 194 74v155z" />
    <glyph glyph-name="uni091F094D0928" horiz-adv-x="520" 
d="M431 362h-147q-53 0 -83.5 -27.5t-30.5 -78.5t29 -75.5t78 -24.5q91 0 156 75l82 -110q-31 -35 -66 -54v-478l-112 71v177h-92v-74q0 -16 -9 -27t-26 -11q-37 0 -85.5 61.5t-48.5 103.5q0 57 73 57h188v88h-9q-96 0 -185.5 90t-89.5 190q0 80 50.5 123.5t123.5 43.5h74
v89h-321l-68 104h628l68 -104h-177v-209z" />
    <glyph glyph-name="uni0920094D0928" horiz-adv-x="590" 
d="M276 362q-44 0 -74.5 -30t-30.5 -81.5t41.5 -86t101.5 -34.5t95.5 36t35.5 87q0 73 -70 109h-99zM434 571v-157q53 -32 89.5 -86t36.5 -115t-28 -105t-83 -64v-475l-112 71v177h-92v-74q0 -16 -9 -27t-26 -11q-37 0 -85.5 61.5t-48.5 103.5q0 57 73 57h188v103
q-108 8 -194.5 91.5t-86.5 192.5q0 81 46.5 123.5t127.5 42.5h74v91h-324l-68 104h698l68 -104h-244z" />
    <glyph glyph-name="uni0921094D0928" horiz-adv-x="523" 
d="M439 385h-210q-61 0 -61 -46q0 -19 10.5 -33t31.5 -14t66 18.5t70 18.5q55 0 101 -60t46 -117.5t-54 -103.5v-479l-112 71v177h-92v-74q0 -16 -9 -27t-26 -11q-37 0 -85.5 61.5t-48.5 103.5q0 57 73 57h188v72q-20 -2 -30 -2q-82 0 -155 51t-115 132l66 44
q77 -121 171 -121q56 0 96 29.5t40 66.5q0 19 -19 19q-15 0 -58 -18.5t-70 -18.5q-62 0 -123.5 69.5t-61.5 139.5q0 105 131 105h117v76h-332l-72 104h631l72 -104h-176v-186z" />
    <glyph glyph-name="uni0924094D0928" horiz-adv-x="661" 
d="M366 200q35 -48 35 -60t-11 -19t-30 -7q-45 0 -84 21.5t-39 55.5q0 22 30 45l143 113h-146q-44 0 -67.5 -28.5t-23.5 -73.5q0 -80 102 -202l-68 -45q-63 75 -107 164t-44 157q0 149 165 149h245v101h-486l-72 104h773l72 -104h-162v-571l-125 74v221z" />
    <glyph glyph-name="uni0925094D0928" horiz-adv-x="710" 
d="M379 25q39 -53 39 -67q0 -30 -48 -30t-92.5 24.5t-44.5 63.5q0 23 34 50l72 59q-67 1 -146 74t-79 134q0 20 14.5 28t42.5 23q72 37 103 59q65 46 65 87q0 25 -19 41t-43 16t-42.5 -17t-18.5 -42.5t24 -49.5l-59 -38q-69 69 -69 125t39.5 87t88.5 31q76 0 141 -73
t65 -134q0 -51 -40 -88q-22 -21 -35 -31q-15 -12 -50 -33t-40 -24.5t-7 -4.5t-6 -4.5t-5.5 -6t-4.5 -5.5q-4 -5 -4 -14q0 -20 19 -30t47 -10q88 0 190 105v241h-47l-72 104h339l72 -104h-162v-571l-130 77l6 89z" />
    <glyph glyph-name="uni0926094D0928" horiz-adv-x="535" 
d="M273 -10q27 -54 27 -71q0 -26 -38 -26t-86.5 32t-48.5 73q0 29 44 53l64 33q-51 11 -98 58q-89 87 -89 190q0 72 43.5 115.5t134.5 43.5h79v80h-325l-62 104h637l62 -104h-182v-200h-159q-115 0 -115 -92q0 -50 30.5 -80t80.5 -30q24 0 52 17q-16 26 -16 56t25.5 52.5
t59 22.5t68 -45t34.5 -79.5t-42 -76.5l103 -123l-75 -50l-86 133z" />
    <glyph glyph-name="uni0927094D0928" horiz-adv-x="608" 
d="M61 573l-34 -2h-47l-72 104h347l72 -104h-109q-19 -6 -32 -28t-13 -45.5t22 -41.5q5 1 30.5 1t88.5 -9l39 -128q-58 17 -95 17t-64 -13.5t-27 -42.5t20.5 -46t52.5 -17q82 0 168 102v251h-30l-72 104h322l71 -104h-161v-571l-129 76l5 89l-104 -107q39 -53 39 -67
q0 -30 -48 -30t-92.5 24.5t-44.5 63.5q0 23 34 50l36 30q-66 8 -122.5 72t-56.5 138q0 29 17 55t46 40q-21 14 -33.5 24t-24 29t-11.5 44t12 42z" />
    <glyph glyph-name="uni0928094D0928" horiz-adv-x="616" 
d="M279 78q39 -53 39 -67q0 -30 -48 -30t-92.5 24.5t-44.5 63.5q0 26 34 50l259 177q-82 67 -206 67h-12v-76q0 -17 -9.5 -28.5t-26.5 -11.5q-38 0 -88.5 63.5t-50.5 107.5q0 59 76 59h60q130 0 252 -107v201h-441l-72 104h728l71 -104h-161v-571l-125 74v121z" />
    <glyph glyph-name="uni092A094D0928" horiz-adv-x="539" 
d="M226 89q39 -53 39 -67q0 -30 -48 -30t-92.5 24.5t-44.5 63.5q0 23 34 50l118 97q-62 15 -118.5 77t-56.5 120v147h-77l-72 104h652l72 -104h-163v-571l-128 76l6 138zM242 315q46 0 98 60v196h-154v-197q0 -59 56 -59z" />
    <glyph glyph-name="uni092B094D0928" horiz-adv-x="784" 
d="M201 85q39 -53 39 -67q0 -30 -48 -30t-92.5 24.5t-44.5 63.5q0 21 34 50l122 103q-54 20 -108.5 86t-54.5 118v138h-68l-71 104h895l72 -104h-423l-1 -107q33 18 79 18q67 0 146 -84.5t79 -159.5q0 -158 -146 -158q-33 0 -75 9l-44 129q36 -14 71 -14t58.5 20.5
t23.5 57.5t-21 59.5t-55.5 22.5t-64.5 -21.5t-49 -56.5v-286l-130 77l7 141zM324 571h-147v-190q0 -63 52 -63q43 0 79 40q1 1 16 19v194z" />
    <glyph glyph-name="uni092C094D0928" horiz-adv-x="597" 
d="M255 38q39 -53 39 -67q0 -30 -48 -30t-92.5 24.5t-44.5 63.5q0 23 34 50l80 65q-70 6 -126.5 70t-56.5 135.5t53 117.5t115 46q94 0 163 -84l-44 -57q-40 40 -81 40q-18 0 -39 -8l127 -137q29 20 64 74l-3 230h-415l-72 104h709l72 -104h-162v-571l-133 79l7 108z
M165.5 246.5q26.5 -24.5 57.5 -24.5t55 10l-122 132q-17 -26 -17 -59.5t26.5 -58z" />
    <glyph glyph-name="uni092D094D0928" horiz-adv-x="606" 
d="M308 51q39 -53 39 -67q0 -30 -48 -30t-92.5 24.5t-44.5 63.5q0 23 34 50l210 172v20h-188v-52q0 -37 -35.5 -37t-99 63t-63.5 104q0 38 58 41h13v128q0 17 -11.5 28.5t-29.5 11.5h-70l-70 104h104q57 0 101 -39l61 -53q40 -36 40 -99v-80h190v167h-106l-71 104h398
l71 -104h-162v-571l-130 72v79z" />
    <glyph glyph-name="uni092E094D0928" horiz-adv-x="633" 
d="M321 51q39 -53 39 -67q0 -30 -48 -30t-92.5 24.5t-44.5 63.5q0 23 34 50l224 170v20h-212v-52q0 -37 -35.5 -37t-99 60.5t-63.5 101.5q0 47 72 47h1v169h-116l-67 104h740l68 -104h-158v-571l-130 72v86zM221 571v-169h212v169h-212z" />
    <glyph glyph-name="uni092F094D0928" horiz-adv-x="606" 
d="M291 59q39 -53 39 -67q0 -30 -48 -30t-92.5 24.5t-44.5 63.5q0 23 34 50l62 51q-65 17 -136 95t-71 127q0 24 20 34q86 44 110 62t24 35t-12 37.5t-29 29.5h-167l-72 104h718l72 -104h-162v-571l-130 77l5 104zM249 251q51 0 87.5 25t70.5 70v225h-152q25 -23 44 -58.5
t19 -67t-17.5 -49t-65 -47.5t-53.5 -36t-6 -13q0 -22 22.5 -35.5t50.5 -13.5z" />
    <glyph glyph-name="uni0935094D0928" horiz-adv-x="602" 
d="M273 42q39 -53 39 -67q0 -30 -48 -30t-92.5 24.5t-44.5 63.5q0 23 34 50l56 47q-68 20 -122 84.5t-54 137.5t51.5 122.5t110.5 49.5t97 -27.5t74 -73.5l-34 -57q-42 42 -83.5 42t-70 -31t-28.5 -73.5t20 -62t53 -19.5q74 0 169 117v232h-420l-72 104h714l72 -104h-162
v-571l-133 78l6 98z" />
    <glyph glyph-name="uni0936094D0928" horiz-adv-x="759" 
d="M689 571v-571l-130 72v133l-5 3l-137 -110q47 -65 47 -81q0 -28 -50.5 -28t-98 26.5t-47.5 66.5q0 27 35 53l165 119l-154 83q-67 -47 -156 -91l-27 -14l-98 73q126 52 189 102q-79 77 -79 157q0 52 41 89t102.5 37t115 -57t53.5 -130q0 -25 -20.5 -58.5t-54.5 -62.5
l179 -93v282h-36l-72 104h328l72 -104h-162zM357 589.5q-12 10.5 -35.5 10.5t-47 -23.5t-23.5 -60.5t35 -65q31 20 57 50.5t26 54t-12 34z" />
    <glyph glyph-name="uni0938094D0928" horiz-adv-x="781" 
d="M535 101q0 -28 -50.5 -28t-98 26.5t-47.5 66.5q0 30 35 53l162 108q-57 32 -115 32q-104 0 -229 -108q83 -113 172 -205l-86 -47q-145 175 -265 355l65 58q41 -39 56 -39q11 0 11 13v185h-154l-72 104h882l72 -104h-162v-571l-127 72l17 200l-113 -90q47 -65 47 -81z
M426 461q38 0 76 -14q52 -19 82 -46v170h-309v-169q71 59 151 59z" />
    <glyph glyph-name="uni0939094D0928" horiz-adv-x="564" 
d="M436 402h-224q-55 0 -55 -43q0 -21 26 -44q58 24 111 24q75 0 161.5 -84.5t86.5 -153.5l1 -178l-104 70v159l-91 -73q30 -41 35.5 -52t5.5 -19q0 -25 -44 -25t-86 23.5t-42 58.5q0 24 31 46l150 109q-25 10 -64 10q-58 0 -112 -39t-54 -103q0 -127 220 -228l-67 -48
q-18 10 -30 16.5t-42.5 26.5t-53 38t-51.5 47.5t-48 59.5q-44 70 -44 143.5t64 129.5q-80 74 -80 143q0 99 120 99h154v56h-330l-72 104h676l72 -104h-220v-169z" />
    <glyph glyph-name="uni0915094D0930" horiz-adv-x="780" 
d="M76 235q-39 58 -39 128t43.5 108.5t93 38.5t82.5 -15l39 -121q-23 11 -58.5 11t-65 -22t-29.5 -59t24 -57.5t63 -20.5t98 51v294h-347l-72 104h892l72 -104h-415q0 -11 -1.5 -38.5t-2.5 -47.5q35 20 82 20q68 0 144 -85.5t76 -168.5q0 -64 -39.5 -108t-106.5 -44
q-45 0 -84 15l-32 126q36 -16 70.5 -16t60 22t25.5 56.5t-22 56t-58 21.5q-71 0 -112 -75v-305l-131 65l5 84l-207 -150l-94 100l123 64q-38 14 -77 72z" />
    <glyph glyph-name="uni0916094D0930" horiz-adv-x="755" 
d="M79 410q36 -36 55 -36t19 16v181h-173l-72 104h867l72 -104h-154v-571l-126 71l2 52l-309 -195l-100 81l168 66q-158 22 -308 282zM359 468.5q40 38.5 95.5 38.5t108.5 -39v103h-282v-205q0 -46 -19 -76t-69 -40q29 -39 77 -63t111.5 -24t104.5 36q-67 13 -117 59.5
t-50 109t40 101zM548 263q27 27 27 63.5t-20 57t-48.5 20.5t-46 -18.5t-17.5 -49t32 -51t73 -22.5z" />
    <glyph glyph-name="uni0917094D0930" horiz-adv-x="526" 
d="M456 571v-572l-130 79v80l-152 -158l-94 66l246 220v285h-102v-253q0 -45 -9.5 -61.5t-30.5 -16.5q-42 0 -97.5 55t-55.5 97t68 42v137h-119l-76 104h642l78 -104h-168z" />
    <glyph glyph-name="uni0918094D0930" horiz-adv-x="605" 
d="M57 573l-37 -2h-40l-72 104h717l71 -104h-161v-571l-132 70l8 86l-176 -188l-94 66l115 93q-77 2 -139.5 70t-62.5 134t60 99q-67 49 -67 97q0 24 10 46zM239 221q81 0 166 99v251h-190q-19 -7 -32 -29t-13 -46.5t19 -43.5q27 5 55.5 5t63.5 -11l36 -121q-40 14 -80 14
q-96 0 -96 -59q0 -26 19 -42.5t52 -16.5z" />
    <glyph glyph-name="uni0919094D0930" horiz-adv-x="627" 
d="M445 385h-210q-61 0 -61 -46q0 -42 36 -42q24 0 69 18.5t70 18.5q55 0 103.5 -65.5t48.5 -115t-31.5 -89t-82.5 -59.5l130 -138l-70 -46l-127 159l-141 -159l-104 83l123 111q-51 25 -94 68t-71 97l66 44q77 -121 171 -121q56 0 96 29.5t40 66.5q0 19 -19 19
q-15 0 -58 -18.5t-70 -18.5q-62 0 -123.5 69.5t-61.5 139.5q0 55 33.5 85t97.5 30h117v66h-342l-72 104h739l72 -104h-274v-186zM470 327l91 93l94 -93l-91 -91z" />
    <glyph glyph-name="uni091A094D0930" horiz-adv-x="673" 
d="M603 571v-571l-130 72l8 115l-193 -202l-94 66l102 83h-3q-54 0 -113.5 66.5t-59.5 129.5q0 33 24 57l-86 -5l-72 106h376l72 -105h-93q-50 -7 -80 -34.5t-30 -61.5q0 -58 66 -58q80 0 177 122v220h-475l-64 104h758l63 -104h-153z" />
    <glyph glyph-name="uni091B094D0930" horiz-adv-x="711" 
d="M529 296.5q15 40.5 15 68.5q0 55 -31 55q-25 0 -40.5 -25.5t-15.5 -67t47 -81.5q10 10 25 50.5zM545 571v-74q42 -31 69 -82t27 -114t-37 -132l115 -80l-59 -69l-106 83q-44 -46 -103 -70l125 -132l-70 -46l-127 159l-141 -159l-104 83l102 92q-71 27 -118.5 81
t-47.5 110t31 87q-62 58 -62 110t38 83t110 31q36 0 88 -11l40 -114q-50 10 -81 10q-79 0 -79 -42q0 -19 19 -34q28 4 58.5 4t67.5 -10l47 -116q-46 11 -78.5 11t-59 -13t-26.5 -42q0 -57 99 -57t170 68q-43 40 -76 95t-33 104t21.5 82t54.5 48v56h-439l-72 104h823l72 -104
h-258z" />
    <glyph glyph-name="uni091C094D0930" horiz-adv-x="824" 
d="M414 361h-58q54 -51 54 -127q0 -59 -34 -93t-89.5 -34t-97.5 28t-75 79q-59 88 -105 223l68 39q72 -244 167 -244q56 0 56 57q0 68 -99 163l15 24h181q129 0 233 -96l-5 191h-645l-72 104h936l72 -104h-162v-571l-130 72l5 103l-196 -198l-94 66l299 244
q-36 43 -88.5 58.5t-135.5 15.5z" />
    <glyph glyph-name="uni091D094D0930" horiz-adv-x="856" 
d="M580 257.5q-29 -9.5 -59.5 -9.5t-82.5 18q38 -37 38 -87t-46.5 -94.5t-115.5 -63.5l116 -126l-83 -54l-128 176q-58 12 -112.5 55t-54.5 83q0 27 22 46.5t50 19.5q37 0 107 -91q60 3 107.5 31t47.5 66q0 19 -21 19t-62.5 -19.5t-66.5 -19.5q-56 0 -120.5 69t-64.5 133
q0 103 128 103h124v59h-323l-72 104h969l72 -104h-163v-571l-130 72l8 124l-133 -278l-94 66l212 311q-40 -28 -69 -37.5zM421.5 344q19.5 -2 60 -2t83 17t92.5 67v145h-228v-171h-217q-28 0 -45 -13t-17 -31q0 -37 31 -37q23 0 64.5 18.5t60.5 18.5t35.5 -1.5t38.5 -5
t41.5 -5.5z" />
    <glyph glyph-name="uni091E094D0930" horiz-adv-x="853" 
d="M182.5 270.5q47.5 -43.5 101 -43.5t81.5 28.5t28 70t-18 62t-46 20.5q-48 0 -92 -61l-98 106q71 77 129 77q115 0 203 -158q18 -5 36 -5q80 0 147 64v140h-674l-72 104h965l72 -104h-162v-571l-130 72l8 113l-133 -226l-94 66l222 277q-43 -33 -97 -33q-25 0 -66 9
q1 -6 1 -16q0 -69 -47.5 -111.5t-112.5 -42.5q-121 0 -255 156q-33 39 -70 89l60 54q66 -93 113.5 -136.5z" />
    <glyph glyph-name="uni091F094D0930" horiz-adv-x="520" 
d="M97.5 180.5q-44.5 67.5 -44.5 141t50.5 117t123.5 43.5h74v89h-321l-68 104h628l68 -104h-177v-209h-147q-53 0 -83.5 -27.5t-30.5 -78.5t29 -75.5t78 -24.5q91 0 156 75l82 -110q-52 -55 -110 -74l118 -125l-70 -46l-127 159l-141 -159l-104 83l127 114
q-66 40 -110.5 107.5z" />
    <glyph glyph-name="uni0920094D0930" horiz-adv-x="580" 
d="M276 362q-44 0 -74.5 -30t-30.5 -81.5t41.5 -86t101.5 -34.5t95.5 36t35.5 87q0 73 -70 109h-99zM434 571v-157q53 -32 89.5 -86t36.5 -119.5t-36.5 -112t-105.5 -61.5l113 -119l-70 -46l-127 159l-141 -159l-104 83l126 114q-70 38 -114.5 104.5t-44.5 145t46.5 121
t127.5 42.5h74v91h-324l-68 104h698l68 -104h-244z" />
    <glyph glyph-name="uni0921094D0930" horiz-adv-x="523" 
d="M439 385h-210q-61 0 -61 -46q0 -19 10.5 -33t31.5 -14t66 18.5t70 18.5q55 0 101 -60t46 -108.5t-31 -88t-81 -59.5l122 -129l-70 -46l-127 159l-141 -159l-104 83l117 106q-95 47 -151 153l66 44q77 -121 171 -121q56 0 96 29.5t40 66.5q0 19 -19 19q-15 0 -58 -18.5
t-70 -18.5q-62 0 -123.5 69.5t-61.5 139.5q0 105 131 105h117v76h-332l-72 104h631l72 -104h-176v-186z" />
    <glyph glyph-name="uni0922094D0930" horiz-adv-x="537" 
d="M427 220q0 15 -22.5 15t-41.5 -21t-19 -42t10 -34q29 10 51 34t22 48zM446 370h-165q-54 0 -87.5 -31.5t-33.5 -83t37.5 -87t87.5 -40.5q-38 47 -38 94t32.5 81t82 34t101.5 -50t52 -103t-27.5 -91t-74.5 -57l119 -126l-70 -46l-127 159l-141 -159l-104 83l124 112
q-71 39 -118 108t-47 148t46.5 125t126.5 46h94v85h-304l-72 104h617l72 -104h-183v-201z" />
    <glyph glyph-name="uni0923094D0930" horiz-adv-x="757" 
d="M687 571v-571l-130 85v111l-215 -205l-94 66l309 260v254h-111v-212q0 -73 -38 -114t-109 -41t-155.5 75t-84.5 152v140h-79l-72 104h869l72 -104h-162zM252 310q64 0 64 80v181h-128v-182q0 -36 18 -57.5t46 -21.5z" />
    <glyph glyph-name="uni0924094D0930" horiz-adv-x="574" 
d="M504 571v-572l-130 79v136l-171 -148l-101 74l275 192q-26 26 -63.5 43.5t-71.5 17.5q-64 0 -137 -66l-81 103q80 73 172 73t178 -84v152h-393l-76 104h689l78 -104h-168z" />
    <glyph glyph-name="uni0925094D0930" horiz-adv-x="707" 
d="M350 122q-75 0 -156.5 75t-81.5 136q0 20 14.5 28t43.5 23q68 35 107 63q60 44 60 83q0 25 -19 41t-43 16t-42.5 -17t-18.5 -42.5t24 -49.5l-59 -38q-69 69 -69 125t39.5 87t88.5 31q76 0 141 -73t65 -134q0 -51 -40 -89q-23 -21 -35 -30.5t-46 -30.5t-38 -23
q-32 -21 -32 -39t18.5 -28.5t45.5 -10.5q92 0 191 103v243h-47l-72 104h338l72 -104h-162v-571l-130 72l10 95l-197 -207l-94 66l128 96h-4z" />
    <glyph glyph-name="uni0926094D0930" horiz-adv-x="535" 
d="M435 371h-159q-115 0 -115 -92q0 -50 30.5 -80t80.5 -30q24 0 52 17q-16 26 -16 56t25.5 52.5t59 22.5t68 -45t34.5 -79.5t-42 -76.5l103 -123l-75 -50l-86 133l-204 -158l-94 66l153 90q-60 15 -113 68q-89 87 -89 190q0 72 43.5 115.5t134.5 43.5h79v80h-325l-62 104
h637l62 -104h-182v-200z" />
    <glyph glyph-name="uni0927094D0930" horiz-adv-x="608" 
d="M60 573l-34 -2h-46l-72 104h346l72 -104h-109q-19 -6 -32 -28t-13 -45.5t22 -41.5q5 1 30.5 1t88.5 -9l39 -128q-58 17 -95 17t-64 -13.5t-27 -42.5t20.5 -46t52.5 -17q82 0 170 103v250h-32l-72 104h323l71 -104h-161v-571l-130 72l9 90l-168 -184l-96 69l99 77
q-76 5 -137 71t-61 144q0 29 17 55t46 40q-21 14 -33.5 24t-24 29t-11.5 44t12 42z" />
    <glyph glyph-name="uni0928094D0930" horiz-adv-x="618" 
d="M548 571v-571l-130 72v103l-173 -196l-94 66l267 252v15h-208v-76q0 -17 -9.5 -28.5t-26.5 -11.5q-38 0 -88.5 63.5t-50.5 107.5q0 59 76 59h308v145h-439l-72 104h730l71 -104h-161z" />
    <glyph glyph-name="uni092A094D0930" horiz-adv-x="538" 
d="M56 424v147h-76l-72 104h650l72 -104h-162v-571l-130 72l11 140l-199 -212l-96 69l175 156q-55 11 -114 77t-59 122zM241 315q47 0 98 58v198h-154v-197q0 -59 56 -59z" />
    <glyph glyph-name="uni092B094D0930" horiz-adv-x="782" 
d="M47 433v138h-67l-71 104h893l72 -104h-423l-1 -107q33 18 79 18q67 0 146 -84.5t79 -159.5q0 -158 -146 -158q-33 0 -75 9l-44 129q36 -14 71 -14t58.5 20.5t23.5 57.5t-21 59.5t-55.5 22.5t-64.5 -21.5t-49 -56.5v-286l-130 71l7 147l-194 -209l-94 66l175 156
q-61 21 -115 84.5t-54 117.5zM228 318q55 0 94 59v194h-146v-190q0 -63 52 -63z" />
    <glyph glyph-name="uni092C094D0930" horiz-adv-x="588" 
d="M518 571v-571l-134 73l9 102l-160 -171l-94 66l96 73q-50 1 -96.5 33.5t-73.5 80t-27 93.5q0 76 53 122t115 46q94 0 163 -84l-44 -57q-40 40 -81 40q-18 0 -39 -8l125 -135q34 30 59 64v233h-409l-72 104h700l72 -104h-162zM163.5 251.5q26.5 -24.5 56.5 -24.5t55 11
l-121 131q-17 -25 -17 -59t26.5 -58.5z" />
    <glyph glyph-name="uni092D094D0930" horiz-adv-x="606" 
d="M406 284h-188v-52q0 -37 -35.5 -37t-99 63t-63.5 103.5t64 41.5h7v128q0 17 -11.5 28.5t-29.5 11.5h-70l-70 104h104q57 0 101 -39l61 -53q40 -36 40 -99v-80h190v167h-106l-71 104h397l71 -104h-161v-571l-130 72v76l-146 -153l-94 66l240 203v20z" />
    <glyph glyph-name="uni092E094D0930" horiz-adv-x="633" 
d="M420 282h-195v-52q0 -37 -35.5 -37t-99 60.5t-63.5 101.5q0 47 72 47h1v169h-120l-67 104h740l68 -104h-158v-571l-130 72v67l-151 -164l-94 66l232 221v20zM225 571v-169h208v169h-208z" />
    <glyph glyph-name="uni092F094D0930" horiz-adv-x="606" 
d="M34 373q0 24 20 34q86 44 110 62t24 35t-12 37.5t-29 29.5h-167l-72 104h718l72 -104h-162v-571l-130 72v101l-179 -187l-96 69l118 97q-62 6 -138.5 87.5t-76.5 133.5zM249 251q86 0 157 94v226h-151q25 -23 44 -58.5t19 -67t-17.5 -49t-65 -47.5t-53.5 -36t-6 -13
q0 -22 22.5 -35.5t50.5 -13.5z" />
    <glyph glyph-name="uni0935094D0930" horiz-adv-x="597" 
d="M530 571v-571l-134 73l12 104l-205 -216l-96 69l122 100q-67 6 -127.5 76t-60.5 144.5t51.5 124t110.5 49.5t97 -27.5t74 -73.5l-34 -57q-42 42 -83.5 42t-70 -31t-28.5 -73.5t20 -62t53 -19.5q73 0 170 119v230h-421l-72 104h709l72 -104h-159z" />
    <glyph glyph-name="uni0936094D0930" horiz-adv-x="759" 
d="M689 571v-571l-130 72v133l-245 -187l-95 72l251 163l-156 84q-67 -47 -156 -91l-27 -14l-98 73q126 52 189 102q-79 77 -79 157q0 52 41 89t102.5 37t115 -57t53.5 -130q0 -25 -20.5 -58.5t-54.5 -62.5l179 -93v282h-36l-72 104h328l72 -104h-162zM357 589.5
q-12 10.5 -35.5 10.5t-47 -23.5t-23.5 -60.5t35 -65q31 20 57 50.5t26 54t-12 34z" />
    <glyph glyph-name="uni0938094D0930" horiz-adv-x="751" 
d="M418 371q-69 0 -146 -70q-21 -49 -80 -50q83 -113 172 -205l-86 -47q-145 175 -265 355l65 58q41 -39 56 -39q11 0 11 13v185h-154l-72 104h852l72 -104h-162v-571l-127 75l7 195l-145 -155l-94 66l183 156q-40 34 -87 34zM401 476q48 0 92.5 -25t60.5 -44v164h-279v-180
q48 85 126 85z" />
    <glyph glyph-name="uni0939094D0930" horiz-adv-x="564" 
d="M334 230q-58 0 -112 -39t-54 -103q0 -36 21 -72.5t48.5 -62t64.5 -49.5q43 -29 96 -54l-67 -48q-24 13 -47 26.5t-69.5 49t-78.5 71.5t-58 89.5t-26 107.5q0 71 64 127q-80 74 -80 143q0 99 120 99h172v56h-348l-72 104h676l72 -104h-202v-169h-242q-55 0 -55 -43
q0 -21 26 -44q58 24 111 24q75 0 161.5 -84.5t86.5 -153.5l1 -168l-104 70v143l-136 -155l-96 69l185 162q-24 8 -58 8z" />
    <glyph glyph-name="uni0915093C094D0930" horiz-adv-x="780" 
d="M76 235q-39 58 -39 128t43.5 108.5t93 38.5t82.5 -15l39 -121q-23 11 -58.5 11t-65 -22t-29.5 -59t24 -57.5t63 -20.5t98 51v294h-347l-72 104h892l72 -104h-415q0 -11 -1.5 -38.5t-2.5 -47.5q35 20 82 20q68 0 144 -85.5t76 -168.5q0 -64 -39.5 -108t-106.5 -44
q-45 0 -84 15l-32 126q36 -16 70.5 -16t60 22t25.5 56.5t-22 56t-58 21.5q-71 0 -112 -75v-305l-131 65l5 84l-207 -150l-94 100l123 64q-38 14 -77 72zM174 -52l91 93l94 -93l-91 -91z" />
    <glyph glyph-name="uni0916093C094D0930" horiz-adv-x="755" 
d="M79 410q36 -36 55 -36t19 16v181h-173l-72 104h867l72 -104h-154v-571l-126 71l2 52l-309 -195l-100 81l168 66q-158 22 -308 282zM359 468.5q40 38.5 95.5 38.5t108.5 -39v103h-282v-205q0 -46 -19 -76t-69 -40q29 -39 77 -63t111.5 -24t104.5 36q-67 13 -117 59.5
t-50 109t40 101zM548 263q27 27 27 63.5t-20 57t-48.5 20.5t-46 -18.5t-17.5 -49t32 -51t73 -22.5zM426 -64l91 93l94 -93l-91 -91z" />
    <glyph glyph-name="uni0917093C094D0930" horiz-adv-x="526" 
d="M456 571v-572l-130 79v80l-152 -158l-94 66l246 220v285h-102v-253q0 -45 -9.5 -61.5t-30.5 -16.5q-42 0 -97.5 55t-55.5 97t68 42v137h-119l-76 104h642l78 -104h-168zM205 -62l91 93l94 -93l-91 -91z" />
    <glyph glyph-name="uni091C093C094D0930" horiz-adv-x="824" 
d="M414 361h-58q54 -51 54 -127q0 -59 -34 -93t-89.5 -34t-97.5 28t-75 79q-59 88 -105 223l68 39q72 -244 167 -244q56 0 56 57q0 68 -99 163l15 24h181q129 0 233 -96l-5 191h-645l-72 104h936l72 -104h-162v-571l-130 72l5 103l-196 -198l-94 66l299 244
q-36 43 -88.5 58.5t-135.5 15.5zM28 32l91 93l94 -93l-91 -91z" />
    <glyph glyph-name="uni0921093C094D0930" horiz-adv-x="523" 
d="M-6 121l94 -93l-91 -91l-94 91zM439 385h-210q-61 0 -61 -46q0 -19 10.5 -33t31.5 -14t66 18.5t70 18.5q55 0 101 -60t46 -109t-32.5 -89.5t-84.5 -59.5l122 -129l-70 -46l-127 159l-141 -159l-104 83l120 109q-95 48 -149 152l66 44q77 -121 171 -121q56 0 96 29.5
t40 66.5q0 19 -19 19q-15 0 -58 -18.5t-70 -18.5q-62 0 -123.5 69.5t-61.5 139.5q0 105 131 105h117v76h-332l-72 104h631l72 -104h-176v-186z" />
    <glyph glyph-name="uni0922093C094D0930" horiz-adv-x="537" 
d="M21 151l94 -93l-91 -91l-94 91zM427 220q0 15 -22.5 15t-41.5 -21t-19 -42t10 -34q29 10 51 34t22 48zM446 370h-165q-54 0 -87.5 -31.5t-33.5 -83t37.5 -87t87.5 -40.5q-38 47 -38 94t32.5 81t82 34t101.5 -50t52 -104t-30 -93.5t-80 -56.5l119 -126l-70 -46l-127 159
l-141 -159l-104 83l129 116q-70 40 -116 109t-46 147t46.5 124t126.5 46h94v85h-304l-72 104h617l72 -104h-183v-201z" />
    <glyph glyph-name="uni0928093C094D0930" horiz-adv-x="618" 
d="M548 571v-571l-130 72v103l-173 -196l-94 66l267 252v15h-208v-76q0 -17 -9.5 -28.5t-26.5 -11.5q-38 0 -88.5 63.5t-50.5 107.5q0 59 76 59h308v145h-439l-72 104h730l71 -104h-161zM289 -59l91 93l94 -93l-91 -91z" />
    <glyph glyph-name="uni092B093C094D0930" horiz-adv-x="782" 
d="M47 433v138h-67l-71 104h893l72 -104h-423l-1 -107q33 18 79 18q67 0 146 -84.5t79 -159.5q0 -158 -146 -158q-33 0 -75 9l-44 129q36 -14 71 -14t58.5 20.5t23.5 57.5t-21 59.5t-55.5 22.5t-64.5 -21.5t-49 -56.5v-286l-130 71l7 147l-194 -209l-94 66l175 156
q-61 21 -115 84.5t-54 117.5zM228 318q55 0 94 59v194h-146v-190q0 -63 52 -63zM186 -44l91 93l94 -93l-91 -91z" />
    <glyph glyph-name="uni092F093C094D0930" horiz-adv-x="606" 
d="M34 373q0 24 20 34q86 44 110 62t24 35t-12 37.5t-29 29.5h-167l-72 104h718l72 -104h-162v-571l-130 72v101l-179 -187l-96 69l118 97q-62 6 -138.5 87.5t-76.5 133.5zM249 251q86 0 157 94v226h-151q25 -23 44 -58.5t19 -67t-17.5 -49t-65 -47.5t-53.5 -36t-6 -13
q0 -22 22.5 -35.5t50.5 -13.5zM280 -60l91 93l94 -93l-91 -91z" />
    <glyph glyph-name="uni0915094D0930094D" horiz-adv-x="564" 
d="M36 357q0 76 43.5 114.5t93 38.5t82.5 -15l39 -121q-23 11 -58.5 11t-65 -22t-29.5 -59t24 -57.5t54.5 -20.5t60.5 18.5t46 32.5v294h-346l-72 104h676l72 -104h-200q0 -11 -1.5 -38.5t-2.5 -47.5q35 20 78 20t90 -33t82 -83l-58 -58q-15 27 -31.5 38t-44.5 11
q-71 0 -112 -75v-305l-131 65l5 84l-207 -150l-94 100l123 64q-45 19 -80.5 78.5t-35.5 115.5z" />
    <glyph glyph-name="uni0916094D0930094D" horiz-adv-x="522" 
d="M71 410q36 -36 55 -36t19 16v181h-165l-72 104h634l72 -104h-341v-205q0 -46 -19 -76t-69 -40q29 -39 77 -63t109 -24t107 36q-67 13 -117 59.5t-50 109t40 101t94 38.5q83 0 147 -64t64 -140q0 -102 -87 -179q-35 -31 -86.5 -62.5t-126.5 -73.5t-124 -72l-100 81l188 78
q-42 6 -83 29t-69 47.5t-62.5 68.5t-49.5 67.5t-44 69.5zM540 263q27 27 27 63.5t-20 57t-48.5 20.5t-46 -18.5t-17.5 -49t32 -51t73 -22.5z" />
    <glyph glyph-name="uni0917094D0930094D" horiz-adv-x="272" 
d="M214 571v-283q0 -45 -9.5 -61.5t-30.5 -16.5q-42 0 -97.5 55t-55.5 97t68 42v167h-109l-76 104h388l78 -104h-156zM354 291l61 -58l-236 -241l-94 66z" />
    <glyph glyph-name="uni0918094D0930094D" horiz-adv-x="371" 
d="M57 573l-37 -2h-40l-72 104h483l71 -104h-247q-19 -7 -32 -29t-13 -46.5t19 -43.5q27 5 55.5 5t63.5 -11l36 -121q-40 14 -80 14q-96 0 -96 -59q0 -26 19 -42.5t52 -16.5q91 0 187 126l82 -87l-273 -292l-94 66l115 93q-77 2 -139.5 70t-62.5 134t60 99q-67 49 -67 97
q0 24 10 46z" />
    <glyph glyph-name="uni091A094D0930094D" horiz-adv-x="414" 
d="M497 571h-517l-64 104h518zM293 134q-54 0 -113.5 66.5t-59.5 129.5q0 33 24 57l-86 -5l-72 106h376l72 -105h-93q-50 -7 -80 -34.5t-30 -61.5q0 -58 66 -58q81 0 180 126l82 -86l-271 -284l-94 66l102 83h-3z" />
    <glyph glyph-name="uni091C094D0930094D" horiz-adv-x="489" 
d="M509 675l72 -104h-601l-72 104h601zM397 476q60 0 114.5 -21t90 -50t62.5 -61q44 -54 53 -80l-284 -287l-94 66l284 244q-30 48 -74.5 61t-134.5 13h-58q54 -51 54 -127q0 -59 -34 -93t-89.5 -34t-97.5 28t-75 79q-59 88 -105 223l68 39q72 -244 167 -244q56 0 56 57
q0 68 -99 163l15 24h181z" />
    <glyph glyph-name="uni091D094D0930094D" horiz-adv-x="497" 
d="M515 248q-29 0 -64 9q24 -37 24 -77q0 -59 -49 -99t-113 -60l116 -126l-83 -54l-128 176q-58 12 -112.5 55t-54.5 83q0 27 22 46.5t50 19.5q37 0 107 -91q60 3 107.5 31t47.5 66q0 19 -21 19t-62.5 -19.5t-66.5 -19.5q-56 0 -120.5 69t-64.5 133q0 103 128 103h124v59
h-322l-72 104h609l72 -104h-161v-171h-217q-27 0 -44.5 -13t-17.5 -31q0 -37 31 -37q23 0 64.5 18.5t70 18.5t75 -7t73.5 -7q103 0 194 76l68 -86l-195 -414l-94 66l184 300q-48 -36 -105 -36z" />
    <glyph glyph-name="uni091E094D0930094D" horiz-adv-x="515" 
d="M607 571h-627l-72 104h627zM534 274q-22 0 -42 4q1 -6 1 -16q0 -69 -47.5 -111.5t-112.5 -42.5q-121 0 -255 156q-33 39 -70 89l60 54q66 -93 113.5 -136.5t101 -43.5t81.5 28.5t28 70t-18 62t-46 20.5q-48 0 -92 -61l-98 106q71 77 128 77q116 0 204 -158q18 -5 35 -5
q56 0 98 48l150 -89l-226 -367l-94 66l217 292q-55 -43 -116 -43z" />
    <glyph glyph-name="uni091F094D0930094D" horiz-adv-x="520" 
d="M97 181q-44 67 -44 140.5t50.5 117t123.5 43.5h74v89h-321l-68 104h628l68 -104h-177v-209h-147q-53 0 -83.5 -27.5t-30.5 -78.5t29 -75.5t78 -24.5q91 0 156 75l82 -110q-53 -56 -113 -75l118 -125l-70 -46l-127 159l-141 -159l-104 83l128 116q-65 40 -109 107z
M220 -161q42 25 79.5 25t69 -13t53.5 -28t51.5 -46t42.5 -47.5t40 -53t32 -42.5l-61 -42q-3 4 -24.5 34t-33.5 44t-35 36q-42 42 -90 42q-26 0 -53 -12z" />
    <glyph glyph-name="uni0920094D0930094D" horiz-adv-x="590" 
d="M276 362q-44 0 -74.5 -30t-30.5 -81.5t41.5 -86t101.5 -34.5t95.5 36t35.5 87q0 73 -70 109h-99zM100 173q-44 66 -44 144t46.5 120.5t127.5 42.5h74v91h-324l-68 104h698l68 -104h-244v-157q53 -32 89.5 -86t36.5 -120t-38 -113.5t-110 -60.5l113 -120l-70 -46l-127 159
l-141 -159l-104 83l130 117q-69 39 -113 105zM215 -174q42 25 79.5 25t69 -13t53.5 -28t51.5 -46t42.5 -47.5t40 -53t32 -42.5l-61 -42q-3 4 -24.5 34t-33.5 44t-34 36q-43 42 -91 42q-26 0 -53 -12z" />
    <glyph glyph-name="uni0921094D0930094D" horiz-adv-x="523" 
d="M264 103q56 0 96 29.5t40 66.5q0 19 -19 19q-15 0 -58 -18.5t-70 -18.5q-62 0 -123.5 69.5t-61.5 139.5q0 105 131 105h117v76h-332l-72 104h631l72 -104h-176v-186h-210q-61 0 -61 -46q0 -19 10.5 -33t31.5 -14t66 18.5t70 18.5q55 0 101 -60t46 -109t-32.5 -89.5
t-84.5 -59.5l122 -129l-70 -46l-127 159l-141 -159l-104 83l120 109q-95 48 -149 152l66 44q77 -121 171 -121zM206 -197q42 25 79.5 25t69 -13t53.5 -28t51.5 -46t42.5 -47.5t40 -53t32 -42.5l-61 -42q-3 4 -24.5 34t-33.5 44t-35 36q-42 42 -90 42q-26 0 -53 -12z" />
    <glyph glyph-name="uni0922094D0930094D" horiz-adv-x="537" 
d="M427 220q0 15 -22.5 15t-41.5 -21t-19 -42t10 -34q29 10 51 34t22 48zM95 169q-46 69 -46 147t46.5 124t126.5 46h94v85h-304l-72 104h617l72 -104h-183v-201h-165q-54 0 -87.5 -31.5t-33.5 -83t37.5 -87t87.5 -40.5q-38 47 -38 94t32.5 81t82 34t101.5 -50t52 -104
t-30 -93.5t-80 -56.5l119 -126l-70 -46l-127 159l-141 -159l-104 83l129 116q-70 40 -116 109zM224 -168q42 25 79.5 25t69 -13t53.5 -28t51.5 -46t42.5 -47.5t40 -53t32 -42.5l-61 -42q-3 4 -24.5 34t-33.5 44t-35 36q-42 42 -90 42q-26 0 -53 -12z" />
    <glyph glyph-name="uni0923094D0930094D" horiz-adv-x="493" 
d="M430 571v-212q0 -73 -38 -114t-109 -41t-155.5 75t-84.5 152v140h-63l-72 104h605l72 -104h-155zM236 310q64 0 64 80v181h-128v-182q0 -36 18 -57.5t46 -21.5zM288 47l302 282l61 -58l-269 -290z" />
    <glyph glyph-name="uni0924094D0930094D" horiz-adv-x="305" 
d="M325 675l78 -104h-422l-76 104h420zM242 393q-64 0 -137 -66l-81 103q80 73 171 73q58 0 133 -46.5t147 -150.5l-272 -240l-101 74l275 192q-26 26 -63.5 43.5t-71.5 17.5z" />
    <glyph glyph-name="uni0925094D0930094D" horiz-adv-x="457" 
d="M550 571h-88l-72 104h88zM351 122q-75 0 -156.5 75t-81.5 136q0 20 18 30q80 40 126 69q81 53 81 98q0 25 -19 41t-43 16t-42.5 -17t-18.5 -42.5t24 -49.5l-59 -38q-69 69 -69 125t39.5 87t88.5 31q76 0 141 -73t65 -134q0 -51 -41 -89q-22 -21 -34 -30.5t-46 -30.5
t-38 -23q-32 -21 -32 -39t18.5 -28.5t45.5 -10.5q94 0 202 116l78 -90l-277 -291l-94 66l128 96h-4z" />
    <glyph glyph-name="uni0926094D0930094D" horiz-adv-x="528" 
d="M435 371h-159q-115 0 -115 -92q0 -50 30.5 -80t80.5 -30q24 0 52 17q-16 26 -16 56t25.5 52.5t59 22.5t68 -45t34.5 -79.5t-42 -76.5l103 -123l-75 -50l-86 133l-204 -158l-94 66l153 90q-60 15 -113 68q-89 87 -89 190q0 72 43.5 115.5t134.5 43.5h79v80h-325l-62 104
h637l62 -104h-182v-200zM225 -98q42 25 79.5 25t69 -13t53.5 -28t51.5 -46t42.5 -47.5t40 -53t32 -42.5l-61 -42q-3 4 -24.5 34t-33.5 44t-34 36q-43 42 -91 42q-26 0 -53 -12z" />
    <glyph glyph-name="uni0927094D0930094D" horiz-adv-x="359" 
d="M60 573l-34 -2h-46l-72 104h346l72 -104h-109q-19 -6 -32 -28t-13 -45.5t22 -41.5q5 1 30.5 1t88.5 -9l39 -128q-58 17 -95 17t-64 -13.5t-27 -42.5t20.5 -46t52.5 -17q93 0 194 134l82 -83l-266 -291l-96 69l99 77q-76 5 -137 71t-61 144q0 29 17 55t46 40
q-21 14 -33.5 24t-24 29t-11.5 44t12 42zM377 571l-72 104h74l71 -104h-73z" />
    <glyph glyph-name="uni0928094D0930094D" horiz-adv-x="297" 
d="M317 675l71 -104h-408l-72 104h409zM417 312h-208v-76q0 -17 -9.5 -28.5t-26.5 -11.5q-38 0 -88.5 63.5t-50.5 107.5q0 59 76 59h255l140 -151l-261 -296l-94 66l267 252v15z" />
    <glyph glyph-name="uni092A094D0930094D" horiz-adv-x="292" 
d="M56 424v147h-76l-72 104h404l72 -104h-199v-197q0 -59 56 -59q29 0 55.5 19t59.5 60l82 -87l-288 -307l-96 69l175 156q-55 11 -114 77t-59 122z" />
    <glyph glyph-name="uni092B094D0930094D" horiz-adv-x="548" 
d="M48 433v138h-68l-71 104h659l72 -104h-188l-1 -107q33 18 75 18t88 -31t83 -78l-60 -49q-25 40 -65 40q-77 0 -119 -78v-286l-130 71l7 147l-194 -209l-94 66l175 156q-61 20 -115 84.5t-54 117.5zM229 318q55 0 94 59v194h-146v-190q0 -63 52 -63z" />
    <glyph glyph-name="uni092C094D0930094D" horiz-adv-x="351" 
d="M39 345q0 76 53 122t115 46q94 0 163 -84l-44 -57q-40 40 -81 40q-18 0 -39 -8l125 -135q30 26 60 65l78 -83l-235 -252l-94 66l96 73q-50 1 -96.5 33.5t-73.5 80t-27 93.5zM443 571h-463l-72 104h463zM164.5 246.5q26.5 -24.5 56.5 -24.5t55 11l-121 131
q-17 -26 -17 -59.5t26.5 -58z" />
    <glyph glyph-name="uni092D094D0930094D" horiz-adv-x="339" 
d="M359 675l71 -104h-130l-71 104h130zM425 284h-207v-52q0 -37 -35.5 -37t-99 63t-63.5 104q0 38 58 41h13v128q0 17 -11.5 28.5t-29.5 11.5h-70l-70 104h104q57 0 101 -39l61 -53q40 -36 40 -99v-80h191l116 -133l-263 -276l-94 66l259 219v4z" />
    <glyph glyph-name="uni092E094D0930094D" horiz-adv-x="342" 
d="M221 402h179l136 -147l-258 -280l-94 66l232 221v20h-195v-52q0 -37 -35.5 -37t-99 60.5t-63.5 101.5q0 47 72 47h1v169h-116l-67 104h449l68 -104h-209v-169z" />
    <glyph glyph-name="uni092F094D0930094D" horiz-adv-x="359" 
d="M34 373q0 24 20 34q86 44 110 62t24 35t-12 37.5t-29 29.5h-167l-72 104h471l72 -104h-196q25 -23 44 -58.5t19 -67t-17.5 -49t-65 -47.5t-53.5 -36t-6 -13q0 -22 22.5 -35.5t50.5 -13.5q53 0 90.5 27.5t72.5 74.5l82 -87l-267 -280l-96 69l118 97q-62 6 -138.5 87.5
t-76.5 133.5z" />
    <glyph glyph-name="uni0935094D0930094D" horiz-adv-x="359" 
d="M451 571h-471l-72 104h471zM101.5 206q-60.5 70 -60.5 144.5t51.5 124t110.5 49.5t97 -27.5t74 -73.5l-34 -57q-42 42 -83.5 42t-70 -31t-28.5 -73.5t20 -62t53 -19.5q76 0 175 125l81 -87l-284 -299l-96 69l122 100q-67 6 -127.5 76z" />
    <glyph glyph-name="uni0938094D0930094D" horiz-adv-x="441" 
d="M275 571v-180q48 85 126 85q57 0 113 -45t89 -120l-187 -196l-94 66l183 156q-40 34 -87 34q-69 0 -146 -70q-21 -49 -80 -50q83 -113 172 -205l-86 -47q-145 175 -265 355l65 58q41 -39 56 -39q11 0 11 13v185h-154l-72 104h542l72 -104h-258z" />
    <glyph glyph-name="uni0915093C094D0930094D" horiz-adv-x="564" 
d="M164 -72l91 93l94 -93l-91 -91zM36 357q0 76 43.5 114.5t93 38.5t82.5 -15l39 -121q-23 11 -58.5 11t-65 -22t-29.5 -59t24 -57.5t54.5 -20.5t60.5 18.5t46 32.5v294h-346l-72 104h676l72 -104h-200q0 -11 -1.5 -38.5t-2.5 -47.5q35 20 78 20t90 -33t82 -83l-58 -58
q-15 27 -31.5 38t-44.5 11q-71 0 -112 -75v-305l-131 65l5 84l-207 -150l-94 100l123 64q-45 19 -80.5 78.5t-35.5 115.5z" />
    <glyph glyph-name="uni0916093C094D0930094D" horiz-adv-x="522" 
d="M71 410q36 -36 55 -36t19 16v181h-165l-72 104h634l72 -104h-341v-205q0 -46 -19 -76t-69 -40q29 -39 77 -63t109 -24t107 36q-67 13 -117 59.5t-50 109t40 101t94 38.5q83 0 147 -64t64 -140q0 -102 -87 -179q-35 -31 -86.5 -62.5t-126.5 -73.5t-124 -72l-100 81l188 78
q-42 6 -83 29t-69 47.5t-62.5 68.5t-49.5 67.5t-44 69.5zM540 263q27 27 27 63.5t-20 57t-48.5 20.5t-46 -18.5t-17.5 -49t32 -51t73 -22.5zM452 -52l91 93l94 -93l-91 -91z" />
    <glyph glyph-name="uni0917093C094D0930094D" horiz-adv-x="272" 
d="M214 571v-283q0 -45 -9.5 -61.5t-30.5 -16.5q-42 0 -97.5 55t-55.5 97t68 42v167h-109l-76 104h388l78 -104h-156zM354 291l61 -58l-236 -241l-94 66zM278 -2l91 93l94 -93l-91 -91z" />
    <glyph glyph-name="uni091C093C094D0930094D" horiz-adv-x="489" 
d="M581 571h-601l-72 104h601zM-42 62l91 93l94 -93l-91 -91zM397 476q60 0 114.5 -21t90 -50t62.5 -61q44 -54 53 -80l-284 -287l-94 66l284 244q-30 48 -74.5 61t-134.5 13h-58q54 -51 54 -127q0 -59 -34 -93t-89.5 -34t-97.5 28t-75 79q-59 88 -105 223l68 39
q72 -244 167 -244q56 0 56 57q0 68 -99 163l15 24h181z" />
    <glyph glyph-name="uni0928093C094D0930094D" horiz-adv-x="297" 
d="M317 675l71 -104h-408l-72 104h409zM417 312h-208v-76q0 -17 -9.5 -28.5t-26.5 -11.5q-38 0 -88.5 63.5t-50.5 107.5q0 59 76 59h255l140 -151l-261 -296l-94 66l267 252v15zM324 3l91 93l94 -93l-91 -91z" />
    <glyph glyph-name="uni092B093C094D0930094D" horiz-adv-x="548" 
d="M172 -22l91 93l94 -93l-91 -91zM48 433v138h-68l-71 104h659l72 -104h-188l-1 -107q33 18 75 18t88 -31t83 -78l-60 -49q-25 40 -65 40q-77 0 -119 -78v-286l-130 71l7 147l-194 -209l-94 66l175 156q-61 20 -115 84.5t-54 117.5zM229 318q55 0 94 59v194h-146v-190
q0 -63 52 -63z" />
    <glyph glyph-name="uni092F093C094D0930094D" horiz-adv-x="359" 
d="M34 373q0 24 20 34q86 44 110 62t24 35t-12 37.5t-29 29.5h-167l-72 104h471l72 -104h-196q25 -23 44 -58.5t19 -67t-17.5 -49t-65 -47.5t-53.5 -36t-6 -13q0 -22 22.5 -35.5t50.5 -13.5q53 0 90.5 27.5t72.5 74.5l82 -87l-267 -280l-96 69l118 97q-62 6 -138.5 87.5
t-76.5 133.5zM288 -39l91 93l94 -93l-91 -91z" />
    <glyph glyph-name="uni0915094D0915" horiz-adv-x="1392" 
d="M941 571h-473q0 -11 -1.5 -38.5t-2.5 -47.5q35 20 87 20t119 -65q20 35 54 52.5t73.5 17.5t72.5 -15l39 -121q-23 11 -58.5 11t-65 -22t-29.5 -59t24 -57.5t59.5 -20.5t62 19t39.5 52v274zM1071 571q0 -11 -1.5 -38.5t-2.5 -47.5q35 20 82 20q68 0 144 -85.5t76 -168.5
q0 -64 -39.5 -108t-106.5 -44q-45 0 -84 15l-32 126q36 -16 70.5 -16t60 22t25.5 56.5t-22 56t-58 21.5q-71 0 -112 -75v-305l-130 72l4 56q-35 -20 -67 -20q-68 0 -142.5 72t-83.5 158q-25 42 -72 42q-71 0 -112 -75v-305l-131 65l5 60q-36 -17 -67 -17q-73 0 -150 79
t-77 170q0 76 43.5 114.5t93 38.5t82.5 -15l39 -121q-23 11 -58.5 11t-65 -22t-29.5 -59t24 -57.5t59.5 -20.5t62 19t39.5 52v274h-347l-72 104h1495l72 -104h-415z" />
    <glyph glyph-name="uni0915094D0916" horiz-adv-x="1340" 
d="M1144 288.5q11 20.5 11 49.5t-20 47.5t-50 18.5t-47.5 -18.5t-17.5 -49t32 -51t73 -22.5q8 5 19 25.5zM858 571v-205q0 -46 -19 -76t-69 -40q29 -39 77 -63t111.5 -24t104.5 36q-67 13 -117 59.5t-50 109t40 101t95.5 38.5t108.5 -39v103h-282zM730 390v181h-263
q0 -13 -4 -93q32 27 65.5 27t56.5 -16.5t48 -48.5t34 -41q29 -25 46 -25t17 16zM1270 571v-571l-126 71l4 44q-75 -64 -173 -64q-51 0 -99 19t-84 45.5t-73 68.5q-58 67 -112 156q-25 34 -55 34q-48 0 -85 -69v-305l-131 65l5 60q-36 -17 -67 -17q-73 0 -150 79t-77 170
q0 76 43.5 114.5t93 38.5t82.5 -15l39 -121q-23 11 -58.5 11t-65 -22t-29.5 -59t24 -57.5t59.5 -20.5t62 19t39.5 52v274h-347l-72 104h1442l72 -104h-162z" />
    <glyph glyph-name="uni0915094D091A" horiz-adv-x="1198" 
d="M999 571h-542q0 -23 -4 -107q24 24 54 24h380l72 -105h-93q-50 -7 -80 -34.5t-30 -61.5q0 -58 66 -58q49 0 95.5 36t81.5 98v208zM1128 571v-571l-130 77l5 99q-63 -59 -137 -59t-147.5 68.5t-73.5 144.5q0 33 24 57l-51 -3l-49 -4q-76 -8 -112 -75v-305l-131 65l5 60
q-36 -17 -67 -17q-73 0 -150 79t-77 170q0 76 43.5 114.5t93 38.5t82.5 -15l39 -121q-23 11 -58.5 11t-65 -22t-29.5 -59t24 -57.5t59.5 -20.5t62 19t39.5 52v274h-347l-72 104h1310l63 -104h-153z" />
    <glyph glyph-name="uni0915094D091C" horiz-adv-x="1271" 
d="M1071 476v95h-614q0 -11 -1.5 -38.5t-2.5 -47.5q35 20 82 20q73 0 141 -99q62 -174 144 -174q56 0 56 57q0 68 -99 163l15 24h279zM1201 571v-571l-130 77v284h-139q54 -51 54 -127q0 -59 -34 -93t-97 -34q-136 0 -238 245q-18 28 -52 28q-67 0 -108 -75v-305l-131 65
l5 60q-36 -17 -67 -17q-73 0 -150 79t-77 170q0 76 43.5 114.5t93 38.5t82.5 -15l39 -121q-23 11 -58.5 11t-65 -22t-29.5 -59t24 -57.5t59.5 -20.5t62 19t39.5 52v274h-347l-72 104h1384l72 -104h-163z" />
    <glyph glyph-name="uni0915094D091F" horiz-adv-x="1073" 
d="M854 571h-397q0 -11 -1.5 -38.5t-2.5 -47.5q35 20 87 20t119 -65q48 42 121 42h74v89zM984 362h-147q-53 0 -83.5 -27.5t-30.5 -78.5t29 -75.5t78 -24.5q91 0 156 75l82 -110q-82 -86 -182.5 -86t-190 90t-89.5 190q0 26 7 54q-15 11 -44 11q-71 0 -112 -75v-305l-131 65
l5 60q-36 -17 -67 -17q-73 0 -150 79t-77 170q0 76 43.5 114.5t93 38.5t82.5 -15l39 -121q-23 11 -58.5 11t-65 -22t-29.5 -59t24 -57.5t59.5 -20.5t62 19t39.5 52v274h-347l-72 104h1185l68 -104h-177v-209z" />
    <glyph glyph-name="uni0915094D0923" horiz-adv-x="1329" 
d="M888 350v221h-128v-222q0 -36 18 -57.5t46 -21.5q64 0 64 80zM631 571h-174q0 -11 -1.5 -38.5t-2.5 -47.5q35 20 80.5 20t97.5 -41v107zM1259 571v-571l-130 77v494h-111v-252q0 -73 -38 -114t-104 -41t-142 59q-64 51 -89 109q-15 26 -31.5 37t-44.5 11q-71 0 -112 -75
v-305l-131 65l5 60q-36 -17 -67 -17q-73 0 -150 79t-77 170q0 76 43.5 114.5t93 38.5t82.5 -15l39 -121q-23 11 -58.5 11t-65 -22t-29.5 -59t24 -57.5t59.5 -20.5t62 19t39.5 52v274h-347l-72 104h1441l72 -104h-162z" />
    <glyph glyph-name="uni0915094D0924" horiz-adv-x="925" 
d="M552 571v-145q53 30 108 30q67 0 143.5 -95t76.5 -179q0 -64 -39.5 -108t-106.5 -44q-45 0 -84 15l-32 126q36 -16 70.5 -16t60 22t25.5 57t-26.5 65t-61.5 30q-70 0 -134 -70v-259l-125 71v278h-122q-44 0 -67.5 -28.5t-23.5 -73.5q0 -80 102 -202l-68 -45
q-63 75 -107 164t-44 157q0 26 15 41l-82 -5l-72 113h469v101h-447l-72 104h1037l72 -104h-465z" />
    <glyph glyph-name="uni0915094D0925" horiz-adv-x="1232" 
d="M1162 571v-571l-130 77l6 85q-58 -53 -136 -53t-172 77.5t-94 146.5q0 8 1 11q-24 36 -68 36q-71 0 -112 -75v-305l-131 65l5 60q-36 -17 -67 -17q-73 0 -150 79t-77 170q0 76 43.5 114.5t93 38.5t82.5 -15l39 -121q-23 11 -58.5 11t-65 -22t-29.5 -59t24 -57.5
t59.5 -20.5t62 19t39.5 52v274h-347l-72 104h627l72 -104h-150q0 -11 -1.5 -38.5t-2.5 -47.5q35 20 78.5 20t88.5 -31t82 -86q117 62 145 102q14 20 14 42.5t-19 38.5t-43 16t-42.5 -17t-18.5 -42.5t24 -49.5l-59 -38q-69 69 -69 125t39.5 87t88.5 31q76 0 141 -73t65 -134
q0 -51 -40 -89q-23 -21 -35 -30.5t-46 -30.5t-36.5 -22.5t-8.5 -5.5t-7.5 -5.5t-6.5 -5.5t-6 -7q-5 -7 -5 -15q0 -20 20 -30t51 -10q87 0 184 106v240h-47l-72 104h339l72 -104h-162z" />
    <glyph glyph-name="uni0915094D0926" horiz-adv-x="1077" 
d="M848 571h-391q0 -11 -1.5 -38.5t-2.5 -47.5q35 20 82.5 20t107.5 -50q45 36 126 36h79v80zM978 371h-159q-115 0 -115 -92q0 -50 30.5 -80t80.5 -30q24 0 52 17q-16 26 -16 56t25.5 52.5t59 22.5t68 -45t34.5 -79.5t-42 -76.5l103 -123l-75 -50l-86 133q-38 -18 -75 -18
q-97 0 -184.5 85.5t-87.5 188.5q0 22 5 45q-12 3 -27 3q-71 0 -112 -75v-305l-131 65l5 60q-36 -17 -67 -17q-73 0 -150 79t-77 170q0 76 43.5 114.5t93 38.5t82.5 -15l39 -121q-23 11 -58.5 11t-65 -22t-29.5 -59t24 -57.5t59.5 -20.5t62 19t39.5 52v274h-347l-72 104h1190
l62 -104h-182v-200z" />
    <glyph glyph-name="uni0915094D092A" horiz-adv-x="1091" 
d="M892 571h-154v-197q0 -59 56 -59q28 0 54 18t44 44v194zM609 571h-152q0 -11 -1.5 -38.5t-2.5 -47.5q35 20 75 20t81 -25v91zM1021 571v-571l-128 76l7 144q-38 -16 -65 -16q-46 0 -110 46.5t-96 104.5q-21 25 -60 25q-71 0 -112 -75v-305l-131 65l5 60q-36 -17 -67 -17
q-73 0 -150 79t-77 170q0 76 43.5 114.5t93 38.5t82.5 -15l39 -121q-23 11 -58.5 11t-65 -22t-29.5 -59t24 -57.5t59.5 -20.5t62 19t39.5 52v274h-347l-72 104h1203l72 -104h-162z" />
    <glyph glyph-name="uni0915094D092B" horiz-adv-x="1337" 
d="M878 571h-146v-190q0 -63 52 -63q55 0 94 59v194zM603 571h-146q0 -11 -1.5 -38.5t-2.5 -47.5q35 20 73.5 20t76.5 -22v88zM1085 482q67 0 146 -84.5t79 -159.5q0 -158 -146 -158q-33 0 -75 9l-44 129q36 -14 71 -14t58.5 20.5t23.5 57.5t-21 59.5t-55.5 22.5
t-64.5 -21.5t-49 -56.5v-286l-130 77l7 141q-30 -14 -56 -14q-43 0 -104.5 47t-96.5 105q-21 24 -59 24q-71 0 -112 -75v-305l-131 65l5 60q-36 -17 -67 -17q-73 0 -150 79t-77 170q0 76 43.5 114.5t93 38.5t82.5 -15l39 -121q-23 11 -58.5 11t-65 -22t-29.5 -59t24 -57.5
t59.5 -20.5t62 19t39.5 52v274h-347l-72 104h1450l72 -104h-423l-1 -107q33 18 79 18z" />
    <glyph glyph-name="uni0915094D092E" horiz-adv-x="1156" 
d="M967 389v182h-168v-182h168zM674 571h-218q0 -13 -4 -93q32 27 73.5 27t81.5 -32.5t67 -75.5v174zM1097 571v-571l-130 77v192h-168v-52q0 -37 -35.5 -37t-99 60.5t-63.5 101.5q0 8 1 12q-25 20 -61 20q-55 0 -85 -69v-305l-131 65l5 60q-36 -17 -67 -17q-73 0 -150 79
t-77 170q0 76 43.5 114.5t93 38.5t82.5 -15l39 -121q-23 11 -58.5 11t-65 -22t-29.5 -59t24 -57.5t59.5 -20.5t62 19t39.5 52v274h-346l-72 104h1279l68 -104h-158z" />
    <glyph glyph-name="uni0915094D092F" horiz-adv-x="1181" 
d="M981 571h-152q25 -23 44 -58.5t19 -67t-17.5 -49t-65 -47.5t-53.5 -36t-6 -13q0 -22 22.5 -35.5t50.5 -13.5q92 0 158 107v213zM457 571q0 -11 -1.5 -38.5t-2.5 -47.5q35 20 82 20q64 0 135 -76q57 30 74.5 45t17.5 31t-12 36.5t-29 29.5h-264zM1110 571v-571l-130 77
l5 98q-53 -46 -106.5 -46t-117.5 44t-108.5 102t-44.5 97q-15 8 -39 8q-71 0 -112 -75v-305l-131 65l5 60q-36 -17 -67 -17q-73 0 -150 79t-77 170q0 76 43.5 114.5t93 38.5t82.5 -15l39 -121q-23 11 -58.5 11t-65 -22t-29.5 -59t24 -57.5t59.5 -20.5t62 19t39.5 52v274
h-347l-72 104h1292l72 -104h-162z" />
    <glyph glyph-name="uni0915094D0932" horiz-adv-x="1314" 
d="M1114 571h-657q0 -11 -1.5 -38.5t-2.5 -47.5q35 20 84 20t110 -54q47 47 119.5 47t132.5 -58q44 56 119 56q44 0 96 -35v110zM1244 571v-571l-130 77v301q-17 7 -41 7q-47 0 -69 -32.5t-22 -84.5t24 -105l-117 41q-31 54 -31 112q0 30 7 54q-22 12 -56.5 12t-60.5 -29
t-26 -69.5t14 -74t40 -64.5q43 -50 105 -99l-64 -46q-43 37 -73 66t-68 74q-78 94 -78 185q0 27 6 49q-15 6 -35 6q-71 0 -112 -75v-305l-131 65l5 60q-36 -17 -67 -17q-73 0 -150 79t-77 170q0 76 43.5 114.5t93 38.5t82.5 -15l39 -121q-23 11 -58.5 11t-65 -22t-29.5 -59
t24 -57.5t59.5 -20.5t62 19t39.5 52v274h-347l-72 104h1426l72 -104h-162z" />
    <glyph glyph-name="uni0915094D0935" horiz-adv-x="1165" 
d="M905 366q-39 39 -79 39t-70 -36t-30 -79q0 -67 67 -67q46 0 93.5 39.5t80.5 95.5l-4 213h-506q0 -11 -1.5 -38.5t-2.5 -47.5q35 20 82.5 20t107.5 -50q46 67 124 67q94 0 172 -99zM1095 571v-571l-133 78l6 90q-61 -57 -132 -57t-147 78t-76 167v13q-15 11 -44 11
q-71 0 -112 -75v-305l-131 65l5 60q-36 -17 -67 -17q-73 0 -150 79t-77 170q0 76 43.5 114.5t93 38.5t82.5 -15l39 -121q-23 11 -58.5 11t-65 -22t-29.5 -59t24 -57.5t59.5 -20.5t62 19t39.5 52v274h-347l-72 104h1278l72 -104h-163z" />
    <glyph glyph-name="uni0915094D0936" horiz-adv-x="1290" 
d="M705 450q-47 44 -47 99.5t37.5 95.5t93.5 40q83 0 152 -85t69 -170.5t-57.5 -140.5t-150.5 -61q57 -64 171 -178l-81 -50q-226 259 -288 346q-29 34 -58 34q-53 0 -89 -75v-305l-131 65l5 60q-36 -17 -67 -17q-73 0 -150 79t-77 170q0 76 43.5 114.5t93 38.5t82.5 -15
l39 -121q-23 11 -58.5 11t-65 -22t-29.5 -59t24 -57.5t59.5 -20.5t62 19t39.5 52v274h-347l-72 104h647l72 -104h-170q-2 -45 -3 -95q41 29 81 29q63 0 141 -106q49 -49 86 -49q66 0 104.5 37t38.5 99q0 35 -19 57.5t-45.5 22.5t-41.5 -16t-15 -42q0 -39 57 -64l-39 -53
q-50 15 -97 59zM1219 571v-571l-130 77v494h-73l-58 104h351l58 -104h-148z" />
    <glyph glyph-name="uni0915094D0938" horiz-adv-x="1227" 
d="M1030 571h-189v-180q35 -32 82 -32q67 0 107 42v170zM711 386v185h-254q0 -13 -4 -93q32 27 68 27q40 0 61 -18.5t28 -26.5q13 -13 51 -64q26 -23 39 -23q11 0 11 13zM1157 571v-571l-127 75l7 189q-25 -18 -62 -18q-68 0 -145 60q-16 -39 -72 -55q83 -113 172 -205
l-86 -47q-145 174 -257 343q-23 32 -45 32q-48 0 -85 -69v-305l-131 65l5 60q-36 -17 -67 -17q-73 0 -150 79t-77 170q0 76 43.5 114.5t93 38.5t82.5 -15l39 -121q-23 11 -58.5 11t-65 -22t-29.5 -59t24 -57.5t59.5 -20.5t62 19t39.5 52v274h-347l-72 104h1339l72 -104h-162
z" />
    <glyph glyph-name="uni0916094D0916" horiz-adv-x="1298" 
d="M1102 288.5q11 20.5 11 49.5t-20 47.5t-50 18.5t-47.5 -18.5t-17.5 -49t32 -51t73 -22.5q8 5 19 25.5zM816 571v-205q0 -46 -19 -76t-69 -40q29 -39 77 -63t111.5 -24t104.5 36q-67 13 -117 59.5t-50 109t40 101t95.5 38.5t108.5 -39v103h-282zM688 390v181h-415v-205
q0 -46 -19 -76t-69 -40q29 -39 77 -63t111.5 -24t104.5 36q-67 13 -117 59.5t-50 109t40 101t95.5 38.5t100.5 -33t70 -67q35 -33 53 -33t18 16zM540 263q27 27 27 63.5t-20 57t-48.5 20.5t-46 -18.5t-17.5 -49t32 -51t73 -22.5zM1228 571v-571l-126 71l4 44
q-75 -64 -173 -64q-156 0 -289 175q-18 -58 -64 -100q-85 -75 -192 -75q-50 0 -98 19t-84 46.5t-74 72.5q-58 67 -120 168l59 53q36 -36 55 -36t19 16v181h-165l-72 104h1410l72 -104h-162z" />
    <glyph glyph-name="uni0916094D0924" horiz-adv-x="1091" 
d="M897 470v101h-624v-205q0 -46 -19 -76t-69 -40q29 -39 77 -63t111.5 -24t104.5 36q-67 13 -117 59.5t-50 109t40 101t95.5 38.5t108.5 -39q27 -20 47 -43q40 45 130 45h165zM540 263q27 27 27 63.5t-20 57t-48.5 20.5t-46 -18.5t-17.5 -49t32 -51t73 -22.5zM1022 571
v-571l-125 74v275h-122q-44 0 -67.5 -28.5t-23.5 -73.5q0 -80 102 -202l-68 -45q-66 80 -106 162q-39 -54 -102.5 -82.5t-117.5 -28.5t-102 19t-84 46.5t-74 72.5q-58 67 -120 168l59 53q36 -36 55 -36t19 16v181h-165l-72 104h1204l72 -104h-162z" />
    <glyph glyph-name="uni0916094D092E" horiz-adv-x="1123" 
d="M923 389v182h-168v-182h168zM540 263q27 27 27 63.5t-20 57t-48.5 20.5t-46 -18.5t-17.5 -49t32 -51t73 -22.5zM273 571v-205q0 -46 -19 -76t-69 -40q29 -39 77 -63t111.5 -24t104.5 36q-67 13 -117 59.5t-50 109t40 101t95.5 38.5t105.5 -37t77 -81h1v182h-357z
M1053 571v-571l-130 77v192h-168v-52q0 -37 -35 -37q-31 0 -77 41q-20 -56 -66 -97q-83 -73 -189 -73q-50 0 -98 19t-84 46.5t-74 72.5q-58 67 -120 168l59 53q36 -36 55 -36t19 16v181h-165l-72 104h1235l68 -104h-158z" />
    <glyph glyph-name="uni0916094D092F" horiz-adv-x="1134" 
d="M935 571h-152q25 -23 44 -58.5t19 -67t-17.5 -49t-65 -47.5t-53.5 -36t-6 -13q0 -22 22.5 -35.5t50.5 -13.5q92 0 158 107v213zM445 507q85 0 162 -87q69 35 89 51.5t20 33t-12 37t-29 29.5h-402v-205q0 -46 -19 -76t-69 -40q29 -39 77 -63t111.5 -24t104.5 36
q-67 13 -117 59.5t-50 109t40 101t94 38.5zM540 263q27 27 27 63.5t-20 57t-48.5 20.5t-46 -18.5t-17.5 -49t32 -51t73 -22.5zM1064 571v-571l-130 77l5 98q-53 -46 -111 -46q-39 0 -88.5 29t-93.5 73q-17 -59 -64 -102q-85 -78 -194 -78q-50 0 -98 19t-84 46.5t-74 72.5
q-58 67 -120 168l59 53q36 -36 55 -36t19 16v181h-165l-72 104h1246l72 -104h-162z" />
    <glyph glyph-name="uni0916094D0935" horiz-adv-x="1119" 
d="M859 366q-39 39 -79 39t-70 -36t-30 -79q0 -67 67 -67q46 0 93.5 39.5t80.5 95.5l-4 213h-644v-205q0 -46 -19 -76t-69 -40q29 -39 77 -63t111.5 -24t104.5 36q-67 13 -117 59.5t-50 109t40 101t95.5 38.5t108.5 -39q21 -16 32 -28q21 39 58 60.5t76 21.5q94 0 172 -99z
M540 263q27 27 27 63.5t-20 57t-48.5 20.5t-46 -18.5t-17.5 -49t32 -51t73 -22.5zM1049 571v-571l-133 78l6 90q-61 -57 -130 -57q-37 0 -80 24t-78 64q-34 -72 -106.5 -110t-131 -38t-106.5 19t-84 46.5t-74 72.5q-58 67 -120 168l59 53q36 -36 55 -36t19 16v181h-165
l-72 104h1232l72 -104h-163z" />
    <glyph glyph-name="uni0916094D0936" horiz-adv-x="1252" 
d="M540 263q27 27 27 63.5t-20 57t-48.5 20.5t-46 -18.5t-17.5 -49t32 -51t73 -22.5zM668 450q-47 44 -47 99.5t37.5 95.5t93.5 40q83 0 152 -85t69 -170.5t-57.5 -140.5t-150.5 -61q57 -64 171 -178l-81 -50q-168 194 -206 241q-15 -63 -63 -108q-86 -82 -198 -82
q-50 0 -98 19t-84 46.5t-74 72.5q-58 67 -120 168l59 53q36 -36 55 -36t19 16v181h-165l-72 104h614l72 -104h-321v-205q0 -46 -19 -76t-69 -40q29 -39 77 -63t111.5 -24t104.5 36q-67 13 -117 59.5t-50 109t40 101t95.5 38.5t102 -34t69.5 -67q46 -56 109.5 -56t102 37
t38.5 99q0 35 -19 57.5t-45.5 22.5t-41.5 -16t-15 -42q0 -39 57 -64l-39 -53q-50 15 -97 59zM1182 571v-571l-130 77v494h-73l-58 104h331l58 -104h-128z" />
    <glyph glyph-name="uni0917094D0917" horiz-adv-x="764" 
d="M694 571v-571l-130 79v492h-102v-283q0 -45 -9.5 -61.5t-30.5 -16.5q-42 0 -97.5 55t-55.5 97t68 42v167h-123v-283q0 -45 -9.5 -61.5t-30.5 -16.5q-42 0 -97.5 55t-55.5 97t68 42v167h-109l-76 104h880l78 -104h-168z" />
    <glyph glyph-name="uni0917094D0918" horiz-adv-x="878" 
d="M678 571h-190q-19 -7 -32 -29t-13 -46.5t19 -43.5q27 5 55.5 5t63.5 -11l36 -121q-40 14 -80 14q-96 0 -96 -59q0 -26 19 -42.5t60.5 -16.5t84.5 31t73 73v246zM808 571v-571l-130 76l6 77q-56 -41 -113 -41q-90 0 -167 70t-77 150q0 65 60 98q-67 49 -67 97q0 24 9 44
h-115v-283q0 -45 -9.5 -61.5t-30.5 -16.5q-42 0 -97.5 55t-55.5 97t68 42v167h-109l-76 104h994l71 -104h-161z" />
    <glyph glyph-name="uni0917094D091C" horiz-adv-x="974" 
d="M905 571v-571l-130 77v284h-139q54 -51 54 -127q0 -59 -34 -93t-89.5 -34t-97.5 28t-75 79q-59 88 -105 223l68 39q72 -244 167 -244q56 0 56 57q0 68 -99 163l15 24h279v95h-561v-283q0 -45 -9.5 -61.5t-30.5 -16.5q-42 0 -97.5 55t-55.5 97t68 42v167h-109l-76 104
h1092l72 -104h-163z" />
    <glyph glyph-name="uni0917094D0923" horiz-adv-x="1033" 
d="M591 350v221h-128v-222q0 -36 18 -57.5t46 -21.5q64 0 64 80zM962 571v-571l-130 77v494h-111v-252q0 -73 -38 -114t-104 -41t-142 59q-45 36 -74 80.5t-29 87.5v180h-120v-283q0 -45 -9.5 -61.5t-30.5 -16.5q-42 0 -97.5 55t-55.5 97t68 42v167h-109l-76 104h1148
l72 -104h-162z" />
    <glyph glyph-name="uni0917094D0926" horiz-adv-x="794" 
d="M694 371h-159q-115 0 -115 -92q0 -50 30.5 -80t80.5 -30q24 0 52 17q-16 26 -16 56t25.5 52.5t59 22.5t68 -45t34.5 -79.5t-42 -76.5l103 -123l-75 -50l-86 133q-38 -18 -75 -18q-97 0 -184.5 85.5t-87.5 188.5q0 72 43.5 115.5t134.5 43.5h79v80h-350v-283
q0 -45 -9.5 -61.5t-30.5 -16.5q-42 0 -97.5 55t-55.5 97t68 42v167h-109l-76 104h910l62 -104h-182v-200z" />
    <glyph glyph-name="uni0917094D0927" 
 />
    <glyph glyph-name="uni0917094D092C" horiz-adv-x="866" 
d="M425 364q-17 -26 -17 -59.5t26.5 -58t57.5 -24.5t55 10zM796 571v-571l-133 79l7 101q-20 -19 -58 -36t-77 -17q-83 0 -154.5 70t-71.5 147t53 123t115 46q94 0 163 -84l-44 -57q-40 40 -81 40q-18 0 -39 -8l127 -137q36 30 64 74l-3 230h-450v-283q0 -45 -9.5 -61.5
t-30.5 -16.5q-42 0 -97.5 55t-55.5 97t68 42v167h-109l-76 104h982l72 -104h-162z" />
    <glyph glyph-name="uni0917094D092D" horiz-adv-x="852" 
d="M782 571v-571l-130 77v194h-154v-52q0 -37 -35.5 -37t-99 63t-63.5 104t71 41v141q0 17 -11.5 28.5t-29.5 11.5h-116v-283q0 -45 -9.5 -61.5t-30.5 -16.5q-42 0 -97.5 55t-55.5 97t68 42v167h-109l-76 104h390q57 0 101 -39l61 -53q40 -36 40 -99v-93h156v180h-86
l-71 104h377l71 -104h-161z" />
    <glyph glyph-name="uni0917094D092E" horiz-adv-x="862" 
d="M661 389v182h-168v-182h168zM791 571v-571l-130 77v192h-168v-52q0 -37 -35.5 -37t-99 60.5t-63.5 101.5q0 47 72 47h1v182h-154v-283q0 -45 -9.5 -61.5t-30.5 -16.5q-42 0 -97.5 55t-55.5 97t68 42v167h-109l-76 104h977l68 -104h-158z" />
    <glyph glyph-name="uni0917094D092F" horiz-adv-x="882" 
d="M683 571h-152q25 -23 44 -58.5t19 -67t-17.5 -49t-65 -47.5t-53.5 -36t-6 -13q0 -22 22.5 -35.5t50.5 -13.5q92 0 158 107v213zM812 571v-571l-130 77l5 98q-53 -46 -106.5 -46t-117.5 44.5t-108.5 102.5t-44.5 97q0 24 20 34q86 44 110 62t24 35t-12 37.5t-29 29.5h-209
v-283q0 -45 -9.5 -61.5t-30.5 -16.5q-42 0 -97.5 55t-55.5 97t68 42v167h-109l-76 104h998l72 -104h-162z" />
    <glyph glyph-name="uni0917094D0932" horiz-adv-x="1035" 
d="M965 571v-571l-130 77v301q-17 7 -41 7q-47 0 -69 -32.5t-22 -84.5t24 -105l-117 41q-31 54 -31 112q0 30 7 54q-22 12 -56.5 12t-60.5 -29t-26 -69.5t14 -74t41 -64.5q42 -50 104 -99l-64 -46q-43 37 -73 66t-67 74q-79 94 -79 185q0 74 46.5 123.5t120.5 49.5t134 -58
q44 56 119 56q44 0 96 -35v110h-621v-283q0 -45 -9.5 -61.5t-30.5 -16.5q-42 0 -97.5 55t-55.5 97t68 42v167h-109l-76 104h1151l72 -104h-162z" />
    <glyph glyph-name="uni0917094D0935" horiz-adv-x="869" 
d="M799 571v-571l-133 78l6 90q-61 -57 -132 -57t-147 78t-76 160t47.5 127.5t106.5 45.5q94 0 172 -99l-34 -57q-39 39 -79 39t-70 -36t-30 -79q0 -67 67 -67q46 0 93.5 39.5t80.5 95.5l-4 213h-453v-283q0 -45 -9.5 -61.5t-30.5 -16.5q-42 0 -97.5 55t-55.5 97t68 42v167
h-109l-76 104h986l72 -104h-163z" />
    <glyph glyph-name="uni0917094D0938" horiz-adv-x="928" 
d="M731 571h-189v-180q35 -32 82 -32q67 0 107 42v170zM858 571v-571l-127 75l7 189q-25 -18 -62 -18q-68 0 -145 60q-16 -39 -72 -55q83 -113 172 -205l-86 -47q-145 175 -265 355l65 58q41 -39 56 -39q11 0 11 13v185h-198v-283q0 -45 -9.5 -61.5t-30.5 -16.5
q-42 0 -97.5 55t-55.5 97t68 42v167h-109l-76 104h1044l72 -104h-162z" />
    <glyph glyph-name="uni0918094D092E" horiz-adv-x="940" 
d="M741 389v182h-168v-182h168zM264 339q-96 0 -96 -59q0 -26 19 -42.5t52 -16.5q74 0 149 81q-13 24 -13 40q0 47 72 47h1v182h-233q-19 -7 -32 -29t-13 -46.5t19 -43.5q27 5 55.5 5t63.5 -11l36 -121q-40 14 -80 14zM57 573l-37 -2h-40l-72 104h1053l68 -104h-158v-571
l-130 77v192h-168v-52q0 -37 -35 -37q-24 0 -66 32q-84 -100 -174 -100t-167 70t-77 150q0 65 60 98q-67 49 -67 97q0 24 10 46z" />
    <glyph glyph-name="uni0918094D092F" horiz-adv-x="952" 
d="M752 571h-152q25 -23 44 -58.5t19 -67t-17.5 -49t-65 -47.5t-53.5 -36t-6 -13q0 -22 22.5 -35.5t50.5 -13.5q92 0 158 107v213zM264 339q-96 0 -96 -59q0 -26 19 -42.5t52 -16.5q79 0 159 93q-19 35 -19 59t20 34q86 44 110 62t24 35t-12 37.5t-29 29.5h-277
q-19 -7 -32 -29t-13 -46.5t19 -43.5q27 5 55.5 5t63.5 -11l36 -121q-40 14 -80 14zM57 573l-37 -2h-40l-72 104h1063l72 -104h-162v-571l-130 77l5 98q-53 -46 -111 -46q-74 0 -168 89q-87 -106 -178 -106t-168 70t-77 150q0 65 60 98q-67 49 -67 97q0 24 10 46z" />
    <glyph glyph-name="uni091A094D091A" horiz-adv-x="1018" 
d="M231 287q0 -58 66 -58q96 0 172 125q7 19 20 33l-56 -3l1 -1h-14l-17 -1l-1 1h-61q-50 -7 -80 -34.5t-30 -61.5zM948 571v-571l-130 77l5 99q-63 -59 -141 -59q-41 0 -87.5 27t-81.5 69q-51 -57 -91.5 -76.5t-84.5 -19.5q-70 0 -143.5 68.5t-73.5 144.5q0 33 24 57
l-86 -5l-72 106h721l72 -105h-93q-50 -7 -80 -34.5t-30 -61.5q0 -58 66 -58q49 0 95.5 36t81.5 98v208h-839l-64 104h1122l63 -104h-153z" />
    <glyph glyph-name="uni091A094D091B" horiz-adv-x="1091" 
d="M909 296.5q15 40.5 15 68.5q0 55 -31 55q-25 0 -40.5 -25.5t-15.5 -67t47 -81.5q10 10 25 50.5zM925 571v-74q42 -31 69 -82t27 -114t-37 -132l115 -80l-59 -69l-106 83q-90 -92 -217 -92q-67 0 -132 33t-102 86q-91 -62 -176 -62q-70 0 -143.5 68.5t-73.5 144.5
q0 33 24 57l-86 -5l-72 106h376l72 -105h-93q-50 -7 -80 -34.5t-30 -61.5q0 -58 66 -58q43 0 95 25t95 65q8 22 24 38q-62 58 -62 110t38 83t110 31q36 0 88 -11l40 -114q-50 10 -81 10q-79 0 -79 -42q0 -19 19 -34q28 4 58.5 4t67.5 -10l47 -116q-46 11 -78.5 11t-59 -13
t-26.5 -42q0 -57 99 -57t170 68q-43 40 -76 95t-33 104t21.5 82t54.5 48v56h-819l-64 104h1195l72 -104h-258z" />
    <glyph glyph-name="uni091A094D092E" horiz-adv-x="1014" 
d="M814 389v182h-168v-182h168zM944 571v-571l-130 77v192h-168v-52q0 -37 -35 -37q-29 0 -85 47q-56 -65 -99.5 -87.5t-89.5 -22.5q-70 0 -143.5 68.5t-73.5 144.5q0 33 24 57l-86 -5l-72 106h376l72 -105h-93q-50 -7 -80 -34.5t-30 -61.5q0 -58 66 -58q83 0 154 97
q-3 9 -3 16q0 47 72 47h1v182h-541l-64 104h1118l68 -104h-158z" />
    <glyph glyph-name="uni091A094D092F" horiz-adv-x="1033" 
d="M833 571h-152q25 -23 44 -58.5t19 -67t-17.5 -49t-65 -47.5t-53.5 -36t-6 -13q0 -22 22.5 -35.5t50.5 -13.5q92 0 158 107v213zM962 571v-571l-130 77l5 98q-53 -46 -111 -46q-41 0 -93 31.5t-97 78.5q-59 -73 -104.5 -97.5t-94.5 -24.5q-70 0 -143.5 68.5t-73.5 144.5
q0 33 24 57l-86 -5l-72 106h376l72 -105h-93q-50 -7 -80 -34.5t-30 -61.5q0 -58 66 -58q93 0 168 118q-5 15 -5 26q0 24 20 34q86 44 110 62t24 35t-12 37.5t-29 29.5h-593l-64 104h1136l72 -104h-162z" />
    <glyph glyph-name="uni091B094D092F" horiz-adv-x="1248" 
d="M529 296.5q15 40.5 15 68.5q0 55 -31 55q-25 0 -40.5 -25.5t-15.5 -67t47 -81.5q10 10 25 50.5zM1178 571v-571l-130 72l5 73q-59 -63 -129 -63t-151 64.5t-81 121.5q0 23 20 34q7 4 25.5 13.5t27.5 15t21 13.5q23 14 23 25q0 9 -13.5 11t-49.5 2h-117q12 -35 12 -71
q0 -73 -37 -142l115 -80l-59 -69l-106 83q-90 -92 -217 -92q-100 0 -183.5 65.5t-83.5 152.5q0 48 31 79q-62 58 -62 110t38 83t110 31q36 0 88 -11l40 -114q-50 10 -81 10q-79 0 -79 -42q0 -19 19 -34q28 4 58.5 4t67.5 -10l47 -116q-46 11 -78.5 11t-59 -13t-26.5 -42
q0 -57 99 -57t170 68q-43 40 -76 95t-33 111.5t37 94.5t80 38t78 -23h162q75 0 157 -56.5t82 -101.5q0 -35 -79 -93q-32 -23 -32 -35q0 -32 39 -32q50 0 103 44.5t79 92.5v250h-1069l-72 104h1360l68 -104h-158z" />
    </font>
</defs>
</svg>
