<?xml version="1.0" standalone="no"?>
<!DOCTYPE svg PUBLIC "-//W3C//DTD SVG 1.1//EN" "http://www.w3.org/Graphics/SVG/1.1/DTD/svg11.dtd" >
<svg xmlns="http://www.w3.org/2000/svg" xmlns:xlink="http://www.w3.org/1999/xlink" version="1.1">
<metadata>
Created by FontForge 20170731 at Mon Aug 25 09:13:38 2014
 By Aleksey,,,
Copyright (c) 2014 Indian Type Foundry (info@indiantypefoundry.com)
</metadata>
<defs>
<font id="Halant-Regular" horiz-adv-x="259" >
  <font-face 
    font-family="Halant"
    font-weight="400"
    font-stretch="normal"
    units-per-em="1000"
    panose-1="0 0 5 0 0 0 0 0 0 0"
    ascent="800"
    descent="-200"
    x-height="504"
    cap-height="660"
    bbox="-521 -422 2160 1009"
    underline-thickness="50"
    underline-position="-150"
    unicode-range="U+000D-FB02"
  />
<missing-glyph horiz-adv-x="550" 
d="M0 0v741h550v-741h-550zM75 669v-597h400v597h-400zM275 307h-4l-80 -194h-80l119 260l-119 255h80l85 -191h4l80 191h80l-120 -261l120 -254h-80z" />
    <glyph glyph-name="fi" unicode="fi" horiz-adv-x="568" 
d="M390 128v330h-222v-362q32 -15 70 -17q0 -18 -3 -30h-208q-1 5 -1 13t4 17q37 5 51.5 15t14.5 35v328q-28 4 -65 4q0 11 2 21q35 12 63 16v67q0 99 50.5 146.5t125 47.5t138 -38.5t63.5 -79.5q0 -18 -12 -29.5t-30 -11.5t-36.5 18.5t-33 41t-41 41t-67 18t-63 -26.5
t-22.5 -88v-106q215 0 295 12v-416q31 -14 68 -15q0 -19 -4 -30h-205q-2 17 3 30q36 4 50.5 14t14.5 35z" />
    <glyph glyph-name="fl" unicode="fl" horiz-adv-x="547" 
d="M370 128v571q-43 18 -99 18t-80 -26.5t-24 -88.5v-104q60 0 142 7q0 -25 -9 -47h-133v-364q31 -13 68 -15q1 -13 -3 -30h-205q-1 5 -1 12.5t3 17.5q37 4 51.5 14t14.5 35v329q-28 4 -64 4q-1 10 1 21q35 12 63 16v65q0 104 58 151t140 47t149 -19v-648q31 -13 68 -15
q0 -18 -3 -30h-205q-2 15 2 30q37 4 51.5 14t14.5 35z" />
    <glyph glyph-name=".notdef" horiz-adv-x="550" 
d="M0 0v741h550v-741h-550zM75 669v-597h400v597h-400zM275 307h-4l-80 -194h-80l119 260l-119 255h80l85 -191h4l80 191h80l-120 -261l120 -254h-80z" />
    <glyph glyph-name=".null" horiz-adv-x="0" 
 />
    <glyph glyph-name="nonmarkingreturn" horiz-adv-x="333" 
 />
    <glyph glyph-name="NULL" horiz-adv-x="0" 
 />
    <glyph glyph-name="NULL" horiz-adv-x="0" 
 />
    <glyph glyph-name="CR" unicode="&#xd;" horiz-adv-x="250" 
 />
    <glyph glyph-name="space" unicode=" " horiz-adv-x="250" 
 />
    <glyph glyph-name="exclam" unicode="!" horiz-adv-x="466" 
d="M182 704l64 -23l-9 -474h-5l-40 20l-16 477h6zM250 58.5q-15 -14.5 -36.5 -14.5t-36 14.5t-14.5 36t14.5 36.5t36 15t36.5 -15t15 -36.5t-15 -36z" />
    <glyph glyph-name="quotedbl" unicode="&#x22;" horiz-adv-x="356" 
d="M68 832h79l-20 -176h-39zM195 832h79l-19 -176h-40z" />
    <glyph glyph-name="numbersign" unicode="#" horiz-adv-x="752" 
d="M454 292l38 194h-187l-37 -194h186zM708 486h-161l-37 -194h144v-53h-154l-37 -190h-56l37 190h-186l-37 -190h-56l37 190h-142v53h152l38 194h-136v53h146l37 188h55l-36 -188h186l37 188h55l-36 -188h150v-53z" />
    <glyph glyph-name="dollar" unicode="$" horiz-adv-x="520" 
d="M355.5 622.5q-34.5 17.5 -81 17.5t-81 -28t-34.5 -80q0 -50 42 -76q26 -16 54.5 -28t53.5 -23t48 -24t50 -35q52 -41 52 -115.5t-46.5 -119t-116.5 -50.5v-61h-42v61q-108 10 -198 94l39 54q12 -17 30.5 -35.5t61 -41t91 -22.5t84.5 30t36 80t-27.5 76t-85.5 52
q-43 17 -75 33.5t-39 22t-22 17t-21 21.5t-14 24q-14 23 -14 62q0 71 48 114.5t115 47.5v58h41v-60q83 -9 138 -60l-33 -46q-19 23 -53.5 40.5z" />
    <glyph glyph-name="percent" unicode="%" horiz-adv-x="836" 
d="M263 49h-71l382 649h69zM146 536q0 -57 19 -91.5t51.5 -34.5t52 33t19.5 93q0 122 -72 122q-70 0 -70 -122zM217 705q63 0 95 -48.5t32 -121t-31.5 -121.5t-93.5 -49t-95 51.5t-33 122t31.5 118.5t94.5 48zM554 211q0 -57 19 -91t51 -34t51.5 33t19.5 92q0 122 -72 122
q-69 0 -69 -122zM624 380q63 0 95 -48.5t32 -120.5t-31.5 -121t-93.5 -49t-95 51t-33 121.5t31.5 118.5t94.5 48z" />
    <glyph glyph-name="ampersand" unicode="&#x26;" horiz-adv-x="660" 
d="M266 92q82 0 144 77q-114 95 -195 184q-37 -28 -55.5 -44t-35 -41t-16.5 -50q0 -57 47.5 -91.5t110.5 -34.5zM306.5 605q-27.5 25 -62.5 25q-72 0 -72 -72q0 -53 73 -143q89 65 89 130q0 35 -27.5 60zM239 36q-74 0 -133.5 46.5t-59.5 116.5q0 37 21 69t46 52t81 58
q-81 98 -81 156t46.5 98t101 40t93.5 -33.5t39 -77t-26.5 -80t-97.5 -89.5l-3 -2q75 -86 178 -172q30 52 68 159h138l-16 -52h-107q-25 -73 -57 -129q80 -68 145 -112l-52 -37q-6 5 -49.5 38.5t-75.5 60.5q-82 -110 -199 -110z" />
    <glyph glyph-name="quotesingle" unicode="'" horiz-adv-x="368" 
d="M154 832h80l-20 -176h-40z" />
    <glyph glyph-name="parenleft" unicode="(" horiz-adv-x="382" 
d="M179 405q0 -129 49.5 -254.5t151.5 -220.5l-35 -30q-111 98 -171.5 227t-60.5 278q0 286 232 491l35 -29q-201 -187 -201 -462z" />
    <glyph glyph-name="parenright" unicode=")" horiz-adv-x="367" 
d="M269 405q0 -149 -60.5 -278t-171.5 -227l-35 30q102 95 151 220t49 255q0 276 -200 462l35 29q232 -205 232 -491z" />
    <glyph glyph-name="asterisk" unicode="*" horiz-adv-x="466" 
d="M171 720q14 7 34 7t32 -3l-10 -130l107 46q7 -7 13 -28.5t5 -34.5l-116 -18l89 -88q-5 -10 -20.5 -23t-30.5 -19l-67 107l-59 -109q-12 2 -29 13.5t-26 24.5l85 94l-120 18q0 15 6 36t14 27l111 -44z" />
    <glyph glyph-name="plus" unicode="+" horiz-adv-x="601" 
d="M542 345h-210v-204h-4l-59 46v158h-181l-28 58v4h209v205h4l59 -47v-158h181l29 -57v-5z" />
    <glyph glyph-name="comma" unicode="," horiz-adv-x="268" 
d="M193 26q0 -76 -67 -166l-38 18q0 1 7 11.5t8 12.5t7 12t7.5 13.5t6 12.5t6.5 14q9 25 9 49q0 57 -60 87v4l30 51q45 -18 64.5 -50.5t19.5 -68.5z" />
    <glyph glyph-name="hyphen" unicode="-" horiz-adv-x="552" 
d="M483 345h-395l-28 58v4h395l28 -57v-5z" />
    <glyph glyph-name="period" unicode="." horiz-adv-x="291" 
d="M148 45q-20 0 -34 14.5t-14 35t14 34.5t34 14t34.5 -14t14.5 -34.5t-14.5 -35t-34.5 -14.5z" />
    <glyph glyph-name="slash" unicode="/" horiz-adv-x="467" 
d="M289 742h62l-182 -719h-61z" />
    <glyph glyph-name="zero" unicode="0" horiz-adv-x="508" 
d="M125 374q0 -295 133 -295q125 0 125 256q0 296 -134 296q-124 0 -124 -257zM460 354q0 -146 -53 -231.5t-153.5 -85.5t-153 85.5t-52.5 231.5t53 232.5t153 86.5t153 -86.5t53 -232.5z" />
    <glyph glyph-name="one" unicode="1" horiz-adv-x="316" 
d="M35 49q-1 5 -1 12.5t4 16.5q48 5 67 14.5t19 32.5v464l-87 -12q0 15 1 20q92 52 141 75l16 -6v-568q37 -17 87 -20q0 -17 -3 -29h-244z" />
    <glyph glyph-name="two" unicode="2" horiz-adv-x="452" 
d="M275 110q50 0 71 21t29 77q9 0 21 -5q0 -89 -15 -154h-339q-8 29 -8 52q219 240 256 326q17 40 17 86.5t-28 79t-72 32.5q-93 0 -120 -107q-16 0 -23 2q0 68 5 109q74 44 151.5 44t122 -44t44.5 -114t-45.5 -131.5t-214.5 -237.5q-22 -24 -34 -36h182z" />
    <glyph glyph-name="three" unicode="3" horiz-adv-x="452" 
d="M260 418.5q41 42.5 41 97t-24 82t-67 27.5q-95 0 -121 -107q-17 0 -23 2v44t4 65q78 44 151.5 44t115 -39t41.5 -98t-36 -103.5t-93 -64.5q148 -36 148 -166q0 -73 -57 -119.5t-141.5 -46.5t-159.5 64q6 20 19 28q54 -41 121.5 -41t105.5 31.5t38 86.5q0 125 -167 137v33
q63 1 104 43.5z" />
    <glyph glyph-name="four" unicode="4" horiz-adv-x="477" 
d="M288 261v284l-202 -284h202zM355 217v-125q27 -12 66 -15q0 -17 -4 -28h-195q-2 17 3 28q35 5 49 15t14 33v92h-238q-16 17 -21 39l287 411h39v-406h89q5 -15 5 -26t-1 -18h-93z" />
    <glyph glyph-name="five" unicode="5" horiz-adv-x="482" 
d="M126 386q61 52 129 52t119.5 -47t51.5 -132.5t-65 -153.5t-155.5 -68t-161.5 63q6 19 20 30q55 -42 126.5 -42t116 47t44.5 113t-32.5 101.5t-88 35.5t-134.5 -55l-18 8l32 312h196q68 0 85 40q11 0 21 -3q-4 -45 -22 -99h-240z" />
    <glyph glyph-name="six" unicode="6" horiz-adv-x="473" 
d="M159 133q28 -49 79.5 -49t85.5 42t33 119q-2 56 -28 94.5t-74 38.5q-71 0 -121 -51q-4 -31 -4 -70q1 -75 29 -124zM367.5 99.5q-59.5 -61.5 -136 -61.5t-125.5 62q-50 62 -50 177.5t70.5 223t211.5 170.5q20 -14 22 -30q-173 -89 -217 -268q32 35 66 46t75 11
q62 0 102 -52q41 -52 41 -134.5t-59.5 -144z" />
    <glyph glyph-name="seven" unicode="7" horiz-adv-x="412" 
d="M166 49q-9 -1 -24 -1t-37 7l192 438l51 103h-201q-50 0 -69 -13t-26 -56q-11 0 -20 5q0 73 10 126h333q16 -23 22 -48z" />
    <glyph glyph-name="eight" unicode="8" horiz-adv-x="524" 
d="M172 108q36 -27 93.5 -27t94 31t36.5 83q0 57 -46 93q-34 26 -91 51q-66 -41 -94.5 -75t-28.5 -81.5t36 -74.5zM146 525q0 -75 132 -134q54 33 79 63t25 71t-29 72t-86 31t-89 -27t-32 -76zM461 202q0 -64 -61 -114t-142.5 -50t-135.5 43t-54 99.5t37.5 94.5t111.5 81
q-58 28 -99 69t-41 89q0 69 62.5 113.5t139 44.5t123.5 -42.5t47 -96.5t-32 -87.5t-98 -71.5q142 -67 142 -172z" />
    <glyph glyph-name="nine" unicode="9" horiz-adv-x="468" 
d="M216 332q70 0 120 51q4 33 4 50q0 91 -29.5 142t-80.5 51t-83.5 -41t-32.5 -108t27 -106t75 -39zM414 429q0 -114 -69 -220.5t-209 -169.5q-21 14 -23 31q172 89 215 268q-32 -36 -66 -47t-75 -11q-61 0 -102 52q-42 54 -42 135.5t59 143.5t135.5 62t125.5 -61.5
t51 -169.5v-13z" />
    <glyph glyph-name="colon" unicode=":" horiz-adv-x="268" 
d="M183 507q0 -21 -14 -35t-35 -14t-35 14t-14 35t14 35t35 14t35 -14t14 -35zM183 148q0 -20 -14 -34t-35 -14t-35 14t-14 34t14 34.5t34.5 14.5t35 -14.5t14.5 -34.5z" />
    <glyph glyph-name="semicolon" unicode=";" horiz-adv-x="268" 
d="M169 483q-14 -14 -35 -14t-35 14t-14 34.5t14 34.5t35 14t35 -14t14 -34.5t-14 -34.5zM212 67q0 -74 -67 -165l-39 18q51 79 51 125q0 57 -60 86v5l30 51q45 -18 65 -50.5t20 -69.5z" />
    <glyph glyph-name="less" unicode="&#x3c;" horiz-adv-x="622" 
d="M129 328l-34 56l378 193l43 -55l-331 -168l329 -146l-19 -41z" />
    <glyph glyph-name="equal" unicode="=" horiz-adv-x="627" 
d="M533 422h-408l-28 57v6h408l28 -58v-5zM533 261h-408l-28 57v6h408l28 -58v-5z" />
    <glyph glyph-name="greater" unicode="&#x3e;" horiz-adv-x="632" 
d="M490 416l32 -55l-378 -194l-43 55l331 168l-329 146l20 41z" />
    <glyph glyph-name="question" unicode="?" horiz-adv-x="589" 
d="M273 65q-20 0 -33 13.5t-13 33.5t13 34t33 14t34 -14t14 -34t-14 -33.5t-34 -13.5zM413 570q0 49 -36.5 76.5t-98.5 27.5t-126 -48l-42 50q67 55 151.5 55t146 -52t61.5 -126q0 -113 -170 -172v-123h-10l-42 20v145q92 37 121 63q32 29 38.5 47.5t6.5 36.5z" />
    <glyph glyph-name="at" unicode="@" horiz-adv-x="870" 
d="M508 132v157h-16q-69 0 -111 -33t-42 -88q0 -36 20.5 -56.5t52.5 -20.5q58 0 96 41zM581 379v-231q0 -30 12 -44t40 -14q42 0 77.5 56t35.5 158q0 136 -76.5 224t-209.5 88q-154 0 -245.5 -104t-91.5 -278q0 -135 83.5 -227t241.5 -92q-1 -11 -16 -42q-174 0 -273 104.5
t-99 264.5q0 184 111.5 302.5t281.5 118.5t263.5 -102.5t93.5 -256.5q0 -124 -60.5 -195.5t-131.5 -71.5q-84 0 -104 64q-57 -64 -126 -64q-54 0 -90 34t-36 89q0 80 70 124q58 38 141 38q17 0 35 -2v50q0 45 -18.5 66.5t-72.5 21.5t-109 -30l-16 19q71 68 162 68
q60 0 93.5 -36.5t33.5 -99.5z" />
    <glyph glyph-name="A" unicode="A" horiz-adv-x="574" 
d="M174 291h196l-100 307l-10 -43zM358 49q0 17 4 29q45 7 70 22l-51 155h-218l-53 -161q31 -14 75 -16q0 -11 -4 -29h-184q0 13 4 29q33 5 50 18.5t25 36.5l178 531q24 9 65 9l176 -539q9 -29 28 -41.5t54 -14.5q-2 -20 -5 -29h-214z" />
    <glyph glyph-name="B" unicode="B" horiz-adv-x="557" 
d="M171 84h108q72 0 106.5 36t34.5 94t-34.5 94.5t-106.5 36.5h-108v-261zM393 502q0 57 -33.5 91t-104.5 34h-84v-247l131 -1q91 30 91 123zM255 660q113 0 164.5 -44.5t51.5 -113.5q0 -48 -26 -82.5t-69 -51.5q58 -13 90.5 -56t32.5 -98q0 -70 -55 -117.5t-163 -47.5h-247
q0 21 3 29q35 5 49 14.5t14 33.5v492q-28 12 -68 14q0 19 3 28h220z" />
    <glyph glyph-name="C" unicode="C" horiz-adv-x="580" 
d="M539 121q-82 -84 -200 -84t-201 85t-83 227t91 233t223 91q93 0 156 -30q-2 -64 -16 -126q-19 0 -22 1q-1 51 -34 80t-85 29q-105 0 -168.5 -74t-63.5 -198t63.5 -194.5t155 -70.5t167.5 49z" />
    <glyph glyph-name="D" unicode="D" horiz-adv-x="590" 
d="M172 84h82q113 0 172.5 73t59.5 198t-60 198.5t-174 73.5h-80v-543zM258 660q139 0 224 -80t85 -224.5t-83.5 -225.5t-221.5 -81h-227q-2 16 3 29q35 5 49 14.5t14 33.5v492q-32 12 -69 14q0 19 3 28h223z" />
    <glyph glyph-name="E" unicode="E" horiz-adv-x="518" 
d="M174 84h173q49 0 66 23t23 80q23 0 30 -2q3 -45 3 -78.5t-1 -57.5h-432q-2 16 3 29q36 5 49.5 14.5t13.5 33.5v491q-26 13 -69 15q0 19 3 28h417q1 -21 1 -55.5t-5 -77.5q-6 -2 -28 -2q-5 56 -22 79t-65 23h-160v-249l164 7h30v-48h-30l-164 4v-257z" />
    <glyph glyph-name="F" unicode="F" horiz-adv-x="488" 
d="M454 660q1 -21 1 -55.5t-5 -77.5q-6 -2 -28 -2q-5 56 -22 79t-65 23h-160v-269l152 7h34v-48h-34l-152 4v-220q41 -15 101 -22q0 -18 -3 -30h-238q-2 15 2 30q37 5 51.5 15t14.5 35v488q-26 13 -69 15q0 19 3 28h417z" />
    <glyph glyph-name="G" unicode="G" horiz-adv-x="622" 
d="M602 352q1 -5 1 -13t-4 -17q-35 -6 -49 -15t-14 -33v-225h-37l-19 36q-72 -48 -155 -48q-112 0 -191 83.5t-79 227t92 234.5t223 91q87 0 165 -30q-2 -62 -16 -125q-16 0 -22 1q-3 52 -38 80t-88 28q-111 0 -173 -74t-62 -201.5t56.5 -196.5t146.5 -69q69 0 130 34v186
q-32 13 -72 16q0 18 3 30h202z" />
    <glyph glyph-name="H" unicode="H" horiz-adv-x="641" 
d="M608 78l-1 -29h-204q0 21 2 29q36 5 49.5 14.5t13.5 33.5v210h-294v-243q29 -13 67 -15q1 -12 -3 -29h-202q-2 16 3 29q36 5 49.5 14.5t13.5 33.5v490q-31 13 -69 16q0 19 3 28h203q0 -20 -3 -28q-34 -4 -48 -14t-14 -33v-211h294v243q-28 11 -68 15q0 20 4 28h202
q2 -13 -2 -28q-36 -4 -49.5 -13.5t-13.5 -33.5v-492q28 -13 67 -15z" />
    <glyph glyph-name="I" unicode="I" horiz-adv-x="275" 
d="M174 585v-492q29 -13 67 -15v-8.5t-3 -20.5h-202q-2 16 3 29q36 5 49.5 14.5t13.5 33.5v490q-31 13 -69 16q0 19 3 28h203q0 -20 -3 -28q-34 -4 -48 -14t-14 -33z" />
    <glyph glyph-name="J" unicode="J" horiz-adv-x="265" 
d="M239 660q0 -20 -3 -28q-34 -4 -48 -14t-14 -33v-516q0 -90 -41.5 -142t-125.5 -78q-12 19 -13 20q67 37 87.5 82t20.5 116v549q-31 13 -69 16q0 19 3 28h203z" />
    <glyph glyph-name="K" unicode="K" horiz-adv-x="607" 
d="M102 126v490q-31 13 -69 16q0 19 3 28h203q0 -20 -3 -28q-34 -4 -48 -14t-14 -33v-221l242 252q-26 14 -65 16q-2 18 4 28h198q0 -19 -3 -28q-59 0 -97 -39l-204 -208q30 -5 53 -37l153 -212q24 -33 44.5 -44t55.5 -13q0 -17 -5 -30h-120l-197 268q-12 17 -31 20l-28 -29
v-215q29 -13 67 -15q1 -12 -3 -29h-202q-2 16 3 29q36 5 49.5 14.5t13.5 33.5z" />
    <glyph glyph-name="L" unicode="L" horiz-adv-x="522" 
d="M172 84h185q48 0 65 22.5t22 77.5q20 0 26 -1q5 -48 5 -80.5t-1 -53.5h-439q-2 16 3 29q35 5 49 14.5t14 33.5v490q-30 13 -69 16q0 19 3 28h202q2 -14 -3 -28q-34 -4 -48 -14t-14 -33v-501z" />
    <glyph glyph-name="M" unicode="M" horiz-adv-x="808" 
d="M787 78q1 -6 1 -13.5t-2 -15.5h-209q-2 16 0 29q37 5 51.5 14.5t13.5 33.5l-31 460l-32 -84l-180 -453h-24l-169 463l-30 86l-40 -506q29 -12 75 -14q0 -11 -4 -29h-192q0 13 4 29q71 10 74 53l38 488q-26 9 -50 12q-3 14 1 29h137l178 -490l195 490h131q4 -17 3 -29
q-51 -5 -48 -51l37 -487q34 -13 72 -15z" />
    <glyph glyph-name="N" unicode="N" horiz-adv-x="661" 
d="M634 660q0 -20 -3 -28q-69 -8 -69 -54v-529h-32l-327 459l-50 76v-491q30 -13 75 -15q1 -12 -3 -29h-188q-1 5 -1 12.5t3 16.5q69 9 69 53v487q-26 12 -68 14q0 18 3 28h137l257 -359l80 -120v436q-25 11 -76 15q-2 14 3 28h190z" />
    <glyph glyph-name="O" unicode="O" horiz-adv-x="659" 
d="M323 633q-89 0 -137 -73.5t-48 -187.5v-19q2 -143 54.5 -210t143 -67t138.5 71t48 192q0 150 -55 222t-144 72zM530 124.5q-75 -88.5 -200.5 -88.5t-199.5 88t-74 229t74 230.5t199 89.5t200.5 -89.5t75.5 -230t-75 -229z" />
    <glyph glyph-name="P" unicode="P" horiz-adv-x="519" 
d="M172 344h91q74 0 112 39.5t38 102t-37.5 101.5t-112.5 39h-91v-282zM279 660q97 0 156.5 -51.5t59.5 -124t-59.5 -124t-155.5 -51.5h-108v-211q43 -17 98 -20q1 -12 -3 -29h-232q-2 16 3 29q35 5 49 14.5t14 33.5v490q-35 15 -69 16q0 19 3 28h244z" />
    <glyph glyph-name="Q" unicode="Q" horiz-adv-x="658" 
d="M192.5 146.5q51.5 -68.5 143 -68.5t139 72.5t47.5 189.5q0 144 -54.5 217.5t-144.5 73.5t-137.5 -75t-47.5 -185v-18q3 -138 54.5 -206.5zM657 2q0 -45 -24 -87t-82 -42q-36 0 -71 19.5t-59 43.5t-55 43.5t-60 19.5t-44 -18.5t-15 -43.5q0 -6 1 -12h-15q-13 26 -13 53
q0 47 44 65q-98 22 -153 105.5t-55 214.5t74 220.5t199 89.5t200.5 -89.5t75.5 -225t-67 -222.5t-182 -106q30 -9 61 -30.5t62.5 -36t77.5 -14.5q67 0 86 70l13 -3q1 -7 1 -14z" />
    <glyph glyph-name="R" unicode="R" horiz-adv-x="566" 
d="M174 369h81q136 0 136 128.5t-136 128.5h-81v-257zM556 78q0 -14 -3 -29h-116l-119 235q-14 27 -29.5 38.5t-49.5 11.5h-65v-236q41 -17 81 -20q1 -15 -2 -29h-217q-2 16 3 29q36 5 49.5 14.5t13.5 33.5v490q-33 15 -69 16q0 19 3 28h236q97 0 147.5 -44.5t50.5 -110.5
q0 -131 -123 -162q26 -13 49 -56l81 -154q17 -32 33.5 -43.5t45.5 -11.5z" />
    <glyph glyph-name="S" unicode="S" horiz-adv-x="475" 
d="M431 211q0 -77 -57.5 -124t-144.5 -47t-171 42q-1 16 -1 53t9 94q11 0 26 -3v-6q0 -141 142 -141q56 0 92 31.5t36 78t-30.5 79t-73.5 54t-86 44t-73.5 61t-30.5 91.5q0 70 52.5 111t131.5 41t158 -30q-2 -70 -11 -118q-16 0 -22 2q-20 107 -130 107q-53 0 -83.5 -26.5
t-30.5 -70.5t30.5 -74t74.5 -50.5t88 -43t74.5 -61.5t30.5 -94z" />
    <glyph glyph-name="T" unicode="T" horiz-adv-x="514" 
d="M496 599.5q0 -32.5 -3 -68.5q-7 -3 -25 -3q-5 55 -24 76.5t-66 21.5h-85v-531q42 -15 93 -17q2 -15 -2 -29h-257q-2 16 3 29q54 5 72.5 14.5t18.5 33.5v500h-85q-47 0 -66 -21.5t-24 -76.5q-18 0 -25 3q-3 31 -3 63.5t3 65.5h472q3 -28 3 -60.5z" />
    <glyph glyph-name="U" unicode="U" horiz-adv-x="653" 
d="M616 660q1 -4 1 -11t-3 -17q-36 -4 -49.5 -13.5t-13.5 -33.5v-329q0 -112 -60.5 -165.5t-161.5 -53.5t-161.5 53.5t-60.5 165.5v360q-31 13 -69 16q-1 4 -1 11t4 17h202q0 -20 -2 -28q-35 -4 -49 -14t-14 -33v-336q0 -86 41 -128t110 -42t109 42.5t40 127.5v368
q-28 11 -68 15q0 20 4 28h202z" />
    <glyph glyph-name="V" unicode="V" horiz-adv-x="587" 
d="M6 631q-3 14 -3 20t1 9h193q3 -14 3 -29q-40 -4 -47.5 -10.5t-7.5 -15.5t5 -23l139 -370q13 -35 19 -62h3l171 466q-33 14 -68 15q0 17 3 29h167q-2 -18 -5 -29q-28 -4 -44 -14t-26 -36l-201 -538h-27l-221 576q-32 11 -54 12z" />
    <glyph glyph-name="W" unicode="W" horiz-adv-x="873" 
d="M6 631q-2 13 -2 19.5v9.5h198q5 -12 5 -29q-43 -4 -51.5 -11.5t-8.5 -17t3 -20.5l105 -354q11 -35 15 -66h3l178 467h25l145 -411q10 -31 13 -60h2l136 456q-27 14 -56 17q2 17 6 29h145q1 -8 -3 -29q-30 -6 -43 -16t-22 -39l-165 -533h-26l-165 466l-182 -466h-25
l-175 575q-32 12 -55 13z" />
    <glyph glyph-name="X" unicode="X" horiz-adv-x="599" 
d="M567 78q3 -14 3 -20.5v-8.5h-186q-4 7 -4 29q40 4 48.5 13t-5.5 28l-137 195l-157 -222q31 -13 65 -14q1 -14 -2 -29h-162q-1 13 4 29q24 3 39 13t35 35l154 222l-193 276q-25 6 -38 7q-4 11 -4 18t2 11h187q4 -12 4 -28q-40 -4 -49.5 -13.5t5.5 -27.5l134 -192l161 219
q-32 11 -65 14q-2 14 2 28h162q0 -16 -4 -28q-24 -3 -39.5 -13t-33.5 -34l-160 -218l196 -280q17 -5 38 -9z" />
    <glyph glyph-name="Y" unicode="Y" horiz-adv-x="565" 
d="M568 660q0 -12 -3 -29q-28 -4 -42 -14t-31 -36l-175 -280v-209q33 -13 70 -14q0 -16 -3 -29h-209q-1 15 2 29q36 5 50 14.5t14 33.5v165l-189 329q-29 10 -52 11q-4 22 -4 29h202q5 -15 5 -29q-42 -4 -52 -15q-4 -5 -4 -13.5t8 -23.5l138 -249h2q7 25 24 51l149 238
q-29 11 -61 12q0 17 3 29h158z" />
    <glyph glyph-name="Z" unicode="Z" horiz-adv-x="538" 
d="M366 89q47 0 66.5 19.5t27.5 71.5q13 0 20 -4q0 -72 -9 -127h-412q-8 14 -8 35l347 538h-214q-46 0 -66 -20.5t-28 -72.5q-9 0 -21 5q0 67 10 126h397q5 -11 5 -34l-345 -537h230z" />
    <glyph glyph-name="bracketleft" unicode="[" horiz-adv-x="368" 
d="M150 788v-811h132l40 -58h-187l-51 58v870h198l40 -59h-172z" />
    <glyph glyph-name="backslash" unicode="\" horiz-adv-x="461" 
d="M108 742h62l181 -719h-61z" />
    <glyph glyph-name="bracketright" unicode="]" horiz-adv-x="329" 
d="M218 -23v811h-133l-39 59h187l51 -59v-869h-199l-39 58h172z" />
    <glyph glyph-name="asciicircum" unicode="^" horiz-adv-x="453" 
d="M256 643l162 -357q-23 -11 -52 -13l-139 307l-139 -307q-23 1 -46 13l162 357q13 3 26 3z" />
    <glyph glyph-name="underscore" unicode="_" horiz-adv-x="552" 
d="M483 98h-395l-28 58v4h395l28 -57v-5z" />
    <glyph glyph-name="grave" unicode="`" horiz-adv-x="194" 
d="M74 726l110 -166l-21 -13l-153 136v11q25 25 64 32z" />
    <glyph glyph-name="a" unicode="a" horiz-adv-x="465" 
d="M121 168q0 -37 21.5 -57.5t57.5 -20.5q55 0 92 40v163l-71 -18q-100 -27 -100 -107zM364 37q-26 0 -45 14.5t-25 40.5q-50 -55 -112.5 -55t-99.5 35.5t-37 91.5q0 110 152 143l95 21v44q0 45 -18.5 66t-69.5 21t-120 -24l-13 20q74 61 166 61q61 0 94.5 -36t33.5 -100
v-237q0 -30 7 -42t22.5 -12t38.5 5l6 -12q-34 -45 -75 -45z" />
    <glyph glyph-name="b" unicode="b" horiz-adv-x="513" 
d="M148 106q43 -24 102.5 -24t99 52t39.5 149t-34.5 141t-82 44t-82 -34t-42.5 -102v-226zM284 516q75 0 130.5 -60t55.5 -172.5t-67 -179.5t-163 -67q-65 0 -123 38q-19 -23 -51 -37l-12 11q22 50 22 111v539q-10 1 -28 1t-42 -1q0 18 5 28q67 27 137 37v-356q18 52 54 80
t82 28z" />
    <glyph glyph-name="c" unicode="c" horiz-adv-x="452" 
d="M417 110q-78 -73 -167.5 -73t-149 63.5t-59.5 171t65 176t167 68.5q80 0 135 -39q0 -52 -9 -108l-21 3q0 48 -31 75.5t-80 27.5q-67 0 -107.5 -53.5t-40.5 -143.5t39.5 -142t106.5 -52t139 42z" />
    <glyph glyph-name="d" unicode="d" horiz-adv-x="534" 
d="M286 468q-167 0 -167 -188q0 -98 35.5 -144.5t97.5 -46.5t102 36v336q-29 7 -68 7zM425 37q-24 0 -42.5 14t-25.5 38q-52 -52 -128.5 -52t-130.5 60t-54 173.5t76.5 179.5t188.5 66q23 0 45 -3v186q-10 1 -28 1t-42 -1q0 17 4 28q69 27 138 37v-621q0 -30 7 -42t21.5 -12
t39.5 5l7 -12q-36 -45 -76 -45z" />
    <glyph glyph-name="e" unicode="e" horiz-adv-x="471" 
d="M324 445q-30 31 -72.5 31t-79.5 -34t-48 -102l116 8l115 1q-1 65 -31 96zM119 284q0 -93 38.5 -143.5t112.5 -50.5t146 48l9 -18q-73 -83 -179 -83q-75 0 -136 55q-31 28 -49.5 73.5t-18.5 102.5q0 117 68 182.5t146 65.5t126.5 -49.5t48.5 -141.5q-6 -11 -11 -18h-300
q-1 -7 -1 -23z" />
    <glyph glyph-name="f" unicode="f" horiz-adv-x="302" 
d="M96 565q0 97 46 145.5t107.5 48.5t106.5 -45q-1 -43 -12 -90q-8 0 -29 3v10q0 80 -64 80q-83 0 -83 -115v-104q59 0 141 7q0 -29 -7 -47h-134v-358q47 -18 104 -21q2 -16 -2 -30h-243q-1 5 -1 13t4 17q37 5 51.5 15t14.5 35v328q-28 4 -65 4q0 11 2 21q35 12 63 16v67z
" />
    <glyph glyph-name="g" unicode="g" horiz-adv-x="503" 
d="M244 226q47 0 74.5 32t27.5 84q0 72 -32.5 108t-79 36t-74.5 -33t-28 -89q0 -68 32.5 -103t79.5 -35zM128 47q-47 -34 -47 -81t40.5 -73t118.5 -26t134 39.5t55 84.5q0 54 -60 54l-204 -1q-21 0 -37 3zM374 105q56 0 86.5 -25t30.5 -68q-1 -74 -83 -137t-190 -63
q-84 0 -134.5 36.5t-50.5 102t67 105.5q-47 23 -47 79t76 90q-74 44 -74 131q0 73 53 116.5t127 43.5t122 -34q59 42 140 42q1 -4 1 -14.5t-5 -38.5l-109 -12q38 -41 38 -108.5t-52 -111t-131 -43.5q-42 0 -81 14q-49 -23 -49 -58q0 -21 16.5 -35t50.5 -14l194 2h4z" />
    <glyph glyph-name="h" unicode="h" horiz-adv-x="555" 
d="M460 367v-273q32 -12 70 -15q0 -14 -2 -30h-204q-1 12 1 30q36 4 49.5 14t13.5 35v233q0 49 -23 75t-64 26q-87 0 -130 -104v-264q28 -12 68 -15q0 -18 -3 -30h-205q-2 15 2 30q37 4 51.5 14t14.5 35v568q-29 1 -45 1h-25q0 11 4 27q72 27 138 36v-347q52 103 155 103
q59 0 96.5 -38t37.5 -111z" />
    <glyph glyph-name="i" unicode="i" horiz-adv-x="277" 
d="M134 600q-22 0 -38 16t-16 38t16 38t38 16t37.5 -15.5t15.5 -38t-15.5 -38.5t-37.5 -16zM99 128v317q-16 1 -33.5 1t-36.5 -1q0 10 4 28q70 26 138 37v-416q28 -12 68 -15q0 -18 -3 -30h-205q-2 15 2 30q37 4 51.5 14t14.5 35z" />
    <glyph glyph-name="j" unicode="j" horiz-adv-x="258" 
d="M99 51v394q-16 1 -33.5 1t-36.5 -1q0 10 4 28q70 26 138 37v-452q0 -177 -178 -232l-10 22q69 37 92.5 83.5t23.5 119.5zM134 708q22 0 37.5 -15.5t15.5 -38t-15.5 -38.5t-37.5 -16t-38 16t-16 38t16 38t38 16z" />
    <glyph glyph-name="k" unicode="k" horiz-adv-x="532" 
d="M99 128v571q-11 1 -28 1t-42 -1q0 12 4 28q66 27 138 37v-496l196 189q-34 7 -65 23q0 15 3 24h199q0 -18 -3 -31q-61 0 -100 -38l-124 -117q18 -8 37 -33l110 -147q25 -33 45.5 -45t54.5 -14q1 -12 -4 -30h-118l-155 208q-9 12 -16 16l-60 -57v-122q28 -12 68 -15
q0 -18 -3 -30h-205q-2 15 2 30q37 4 51.5 14t14.5 35z" />
    <glyph glyph-name="l" unicode="l" horiz-adv-x="276" 
d="M99 128v571q-11 1 -28 1t-42 -1q0 12 4 28q66 27 138 37v-670q28 -12 68 -15q0 -18 -3 -30h-205q-2 15 2 30q37 4 51.5 14t14.5 35z" />
    <glyph glyph-name="m" unicode="m" horiz-adv-x="844" 
d="M750 367v-273q31 -12 70 -15q0 -18 -3 -30h-204q-2 15 2 30q36 4 49 14t13 35v233q0 49 -23 75t-63 26q-88 0 -131 -104v-264q28 -12 68 -15q0 -18 -3 -30h-201q-1 12 1 30q36 4 49.5 14t13.5 35v233q0 49 -23 75t-64 26q-87 0 -130 -104v-264q28 -12 68 -15
q0 -18 -3 -30h-205q-2 15 2 30q37 4 51.5 14t14.5 35v318q-29 1 -45 1h-25q0 12 4 26q66 26 130 37q6 -38 8 -98q51 104 155 104q50 0 85.5 -28t45.5 -82q51 110 158 110q59 0 97 -38.5t38 -110.5z" />
    <glyph glyph-name="n" unicode="n" horiz-adv-x="553" 
d="M460 367v-273q32 -12 70 -15q0 -14 -2 -30h-204q-1 12 1 30q36 4 49.5 14t13.5 35v233q0 49 -23 75t-64 26q-87 0 -130 -104v-264q28 -12 68 -15q0 -18 -3 -30h-205q-2 15 2 30q37 4 51.5 14t14.5 35v318q-29 1 -45 1h-25q0 12 4 26q66 26 130 37q6 -38 8 -98
q51 104 155 104q59 0 96.5 -38t37.5 -111z" />
    <glyph glyph-name="o" unicode="o" horiz-adv-x="509" 
d="M259 79q67 0 98.5 50.5t31.5 135.5q0 102 -36 157.5t-102.5 55.5t-99 -52.5t-32.5 -139.5q0 -100 36.5 -153.5t103.5 -53.5zM409.5 450.5q57.5 -65.5 57.5 -173.5t-59 -174t-156.5 -66t-153.5 65.5t-56 173.5t59 174t155 66t153.5 -65.5z" />
    <glyph glyph-name="p" unicode="p" horiz-adv-x="530" 
d="M253 82q64 0 109 52.5t45 149t-34.5 140.5t-78.5 44t-76 -27t-46 -79v-264q38 -16 81 -16zM98 -96v542q-29 1 -45 1h-24q2 19 5 26q65 26 127 37q8 -36 10 -85q36 91 130 91q75 0 130.5 -60t55.5 -173t-72.5 -179.5t-171.5 -66.5q-36 0 -71 12v-172q40 -18 94 -23
q0 -22 -2 -30h-234q-2 17 3 30q37 5 51 15t14 35z" />
    <glyph glyph-name="q" unicode="q" horiz-adv-x="512" 
d="M285 468q-77 0 -121.5 -45.5t-44.5 -143t35.5 -144t97.5 -46.5t102 36v329q-35 14 -69 14zM426 522v-652q31 -13 70 -16v-9.5t-3 -20.5h-234q-2 17 1 30q54 4 74 17t20 40v175q-53 -49 -127.5 -49t-128.5 60t-54 173.5t75.5 179.5t185.5 66q44 0 84 -19q16 17 27 25h10z
" />
    <glyph glyph-name="r" unicode="r" horiz-adv-x="353" 
d="M171 385v-7q24 62 72 100t103 38q5 -12 5 -29.5t-7 -41.5q-83 0 -136 -55q-30 -33 -37 -82v-208q45 -18 105 -21q0 -19 -4 -30h-241q-1 12 1 30q38 5 52.5 15t14.5 35v317q-29 1 -45 1h-25q0 12 4 26q66 26 130 37q8 -51 8 -125z" />
    <glyph glyph-name="s" unicode="s" horiz-adv-x="417" 
d="M274 96.5q29 21.5 29 52.5t-24 52t-59 37t-69.5 33.5t-58.5 47t-24 69.5q0 63 45 95.5t108.5 32.5t121.5 -20q1 -17 1 -46t-6 -67q-8 0 -23 3q1 10 1 19q0 75 -91 75q-40 0 -65.5 -21.5t-25.5 -53t24.5 -53.5t60 -37t71 -32t60 -45.5t24.5 -66.5q0 -63 -51.5 -98.5
t-126.5 -35.5t-140 21q-2 23 -2 53.5t6 67.5q9 0 23 -2v-12q0 -47 31.5 -68.5t81 -21.5t78.5 21.5z" />
    <glyph glyph-name="t" unicode="t" horiz-adv-x="354" 
d="M203 37q-48 0 -79.5 29.5t-31.5 88.5v302q-28 4 -65 4v8.5t1 12.5q35 12 64 16l57 124l16 -5v-119q76 2 140 7q0 -27 -8 -47h-132v-293q0 -71 58 -71q49 0 94 37l12 -13q-53 -81 -126 -81z" />
    <glyph glyph-name="u" unicode="u" horiz-adv-x="542" 
d="M438 423v-315q42 -2 65 -2q1 -11 1 -17v-9q-57 -28 -129 -36q-7 37 -9 102q-61 -109 -154 -109q-57 0 -96 40t-39 114v256q-13 1 -27.5 1t-31.5 -1q0 11 4 27q73 31 127 37v-314q0 -49 23.5 -77t61.5 -28t72.5 26.5t59.5 75.5v221q0 47 -28 65q2 11 5 15q37 16 88 16h11
q-4 -36 -4 -88z" />
    <glyph glyph-name="v" unicode="v" horiz-adv-x="499" 
d="M-4 474q-2 12 -2 19v11h207q3 -9 3 -30q-47 -4 -70 -16l129 -362q4 20 14 49l100 267q8 15 8 25.5t-5 16.5q-12 16 -63 20q-6 13 -4 30h197q1 -10 -5 -30q-30 -3 -62 -15l-164 -416h-57l-152 376q-12 29 -26 40t-48 15z" />
    <glyph glyph-name="w" unicode="w" horiz-adv-x="751" 
d="M733 504q1 -5 1 -13t-4 -18q-29 -5 -44 -12l-165 -418h-29l-118 327l-132 -327h-29l-148 419q-21 10 -44 11q-2 14 -2 21t1 10h190q3 -15 3 -31q-40 -4 -50.5 -14t-10.5 -19t3 -17l79 -231q8 -22 12 -45h2l129 337h29l103 -292q9 -23 13 -45h2l98 266q6 17 6 28.5
t-9.5 20t-55.5 11.5q-2 20 0 31h170z" />
    <glyph glyph-name="x" unicode="x" horiz-adv-x="509" 
d="M498 79q2 -12 2 -19.5v-10.5h-197q-3 14 -3 30q40 3 59 11l-118 153l-122 -154q20 -7 56 -10q2 -16 0 -30h-167q2 20 4 30q29 2 47.5 13t40.5 36l119 144l-110 143q-39 51 -98 59q-4 10 -4 17.5t1 12.5h203q3 -9 3 -30q-43 -4 -57 -10l114 -149l119 148q-20 8 -57 11
q-2 18 1 30h165q2 -17 -4 -30q-29 -2 -47 -13.5t-39 -36.5l-116 -139l110 -144q26 -34 45 -46.5t50 -15.5z" />
    <glyph glyph-name="y" unicode="y" horiz-adv-x="505" 
d="M111 -176h-13q-10 25 -10 42.5t2 27.5h19q32 0 50.5 13t36.5 50l36 77l-156 385q-11 29 -25 40t-48 15q-2 12 -2 19v11h206q4 -12 4 -30q-46 -4 -70 -14l127 -348q3 16 11 36l104 264q6 15 6 26t-6 18q-13 14 -61 18q-4 20 -2 30h183q1 -14 -5 -30q-20 -3 -45 -10
l-217 -518q-27 -65 -55 -93.5t-70 -28.5z" />
    <glyph glyph-name="z" unicode="z" horiz-adv-x="450" 
d="M282 86q49 0 70.5 21t30.5 76q12 0 21 -4v-34t-10 -96h-350q-2 7 -2 17t4 23l274 379h-141q-49 0 -70.5 -22t-30.5 -77q-11 0 -21 6q0 66 10 129h335q3 -12 3 -22.5t-4 -19.5l-268 -376h149z" />
    <glyph glyph-name="braceleft" unicode="{" horiz-adv-x="535" 
d="M232 526q0 -51 -13.5 -74.5t-54.5 -35.5q41 -13 54.5 -36.5t13.5 -73.5q0 -12 -4 -58t-4 -79.5t2.5 -54t14 -44t31.5 -36.5q46 -29 150 -31v-47h-12q-152 0 -202 52q-28 29 -38 65t-10 78t4.5 91t4.5 77t-14.5 49t-60.5 25v46q46 3 60.5 24t14.5 49t-4.5 77t-4.5 91
t10 78q23 83 118 105q48 11 122 11h12v-45q-102 -2 -150 -32q-20 -13 -31.5 -36t-14 -43.5t-2.5 -54t4 -79.5t4 -58z" />
    <glyph glyph-name="bar" unicode="|" horiz-adv-x="323" 
d="M132 742h61v-719h-61v719z" />
    <glyph glyph-name="braceright" unicode="}" horiz-adv-x="536" 
d="M305 306q0 51 12.5 74t53.5 36q-41 11 -53.5 35t-12.5 75q0 12 4 58t4 83.5t-5.5 62t-24.5 49.5q-36 48 -169 50v45h12q153 0 202 -52q27 -28 37 -63.5t10 -78t-4.5 -91.5t-4.5 -77t15 -49t62 -24v-46q-47 -4 -62 -25t-15 -49t4.5 -77t4.5 -91t-10 -78q-23 -83 -117 -105
q-48 -12 -122 -12h-12v47q133 2 169 49q19 25 24.5 50t5.5 62.5t-4 83.5t-4 58z" />
    <glyph glyph-name="asciitilde" unicode="~" horiz-adv-x="497" 
d="M167 379q34 0 95 -38.5t90 -38.5q53 0 68 81h28q-5 -61 -35.5 -99.5t-74.5 -38.5t-106 38.5t-88 38.5q-53 0 -68 -78h-28q5 61 36 98t83 37z" />
    <glyph glyph-name="nbsp" unicode="&#xa0;" horiz-adv-x="250" 
 />
    <glyph glyph-name="exclamdown" unicode="&#xa1;" horiz-adv-x="466" 
d="M177.5 621.5q14.5 14.5 36 14.5t36.5 -14.5t15 -36t-15 -36.5t-36.5 -15t-36 15t-14.5 36.5t14.5 36zM246 -1l-64 -23h-6l16 477l40 20h5z" />
    <glyph glyph-name="cent" unicode="&#xa2;" horiz-adv-x="440" 
d="M274 82h-39v62q-76 6 -126.5 53t-50.5 131t50 137.5t127 56.5v61h39v-63q66 -8 109 -42l-30 -46q-39 46 -98 46t-96.5 -37.5t-37.5 -105.5t44 -107.5t106.5 -39.5t104.5 40l21 -17q-12 -21 -45.5 -42t-77.5 -25v-62z" />
    <glyph glyph-name="sterling" unicode="&#xa3;" horiz-adv-x="619" 
d="M541 177q3 -8 3 -24.5t-1.5 -27.5t-7 -25.5t-14.5 -25.5q-22 -25 -65.5 -25t-105 12t-83 12t-38.5 -2t-31.5 -5.5t-25 -6t-20 -6t-10.5 -3.5l-28 22q32 26 52 76t20 95t-9 95h-114v6l16 32h90q-13 61 -13 100q1 85 49 136t128 51q55 0 87 -13.5t46 -21.5q33 -18 40 -25
l-28 -48q-23 27 -58 45t-70 18q-63 0 -97 -33t-34 -85t16 -124h180v-6l-20 -32h-152q6 -40 6 -58q0 -108 -52 -171q45 18 86 18t99 -14t83 -14q55 0 55 77h6q4 0 15 1z" />
    <glyph glyph-name="currency" unicode="&#xa4;" horiz-adv-x="454" 
d="M226 247q39 0 67 29.5t28 88.5t-27.5 88t-67 29t-67 -29t-27.5 -88t27.5 -88.5t66.5 -29.5zM351 452q24 -37 24 -87.5t-24 -88.5l52 -52q-11 -22 -36 -36l-51 51q-40 -29 -90 -29t-89 28l-51 -49q-23 12 -35 35l51 51q-24 38 -24 89.5t25 88.5l-53 52q12 24 36 36l51 -51
q38 29 89.5 29t89.5 -30l52 52q23 -13 36 -36z" />
    <glyph glyph-name="yen" unicode="&#xa5;" horiz-adv-x="600" 
d="M488 376v-6l-20 -31h-133v-59h153v-6l-20 -31h-133v-194h-71v194h-148v6l16 31h132v59h-148v7l16 30h118l-171 270l60 15l159 -268q150 262 152 264h73l-173 -281h138z" />
    <glyph glyph-name="brokenbar" unicode="&#xa6;" horiz-adv-x="325" 
d="M132 309h61v-286h-61v286zM193 456h-61v286h61v-286z" />
    <glyph glyph-name="section" unicode="&#xa7;" horiz-adv-x="920" 
d="M152 263q0 -31 14.5 -46t23 -22.5t26.5 -17t29 -14.5q36 -17 65 -29q68 26 68 92q0 25 -9 44.5t-34 36.5t-38 23.5t-37 17t-28 12.5q-80 -29 -80 -97zM450 -25q0 -72 -57.5 -115t-144 -43t-171.5 38v41t8 96q16 0 26 -3q-1 -74 36.5 -105.5t99.5 -31.5t98.5 29.5t36.5 73
t-30.5 72t-74 46.5t-87 38t-74 55t-30.5 82t27 82t71 52q-47 25 -73.5 57t-26.5 82q0 68 51 108.5t126 40.5t152 -28q0 -43 -11 -109q-16 0 -22 2q-15 99 -122 99q-50 0 -79.5 -27.5t-29.5 -69t30.5 -67.5t74.5 -44t88 -38t74.5 -56t30.5 -87q0 -93 -90 -134q93 -52 93 -136
z" />
    <glyph glyph-name="dieresis" unicode="&#xa8;" horiz-adv-x="237" 
d="M214.5 640.5q12.5 -12.5 12.5 -31t-12.5 -31t-30 -12.5t-29.5 12.5t-12 31t12 31t29.5 12.5t30 -12.5zM82.5 640.5q12.5 -12.5 12.5 -31t-12.5 -31t-30.5 -12.5t-30 12.5t-12 31t12 31t30 12.5t30.5 -12.5z" />
    <glyph glyph-name="copyright" unicode="&#xa9;" horiz-adv-x="771" 
d="M388 159q-78 0 -130 56.5t-52 151t56.5 155t144.5 60.5q57 0 105 -23q0 -40 -13 -86q-9 -3 -22 -1q0 34 -19 52t-52 18q-64 0 -100 -47t-36 -126t35.5 -122.5t92 -43.5t107.5 34l19 -18q-58 -60 -136 -60zM719 366q0 -151 -94.5 -241.5t-239 -90.5t-239 90.5t-94.5 241.5
t94.5 241t239 90t239 -90t94.5 -241zM96 366q0 -138 83 -217.5t207 -79.5t206.5 79.5t82.5 217.5t-82.5 217t-206.5 79t-207 -79t-83 -217z" />
    <glyph glyph-name="ordfeminine" unicode="&#xaa;" horiz-adv-x="333" 
d="M200 488q-115 0 -115 -72q0 -21 13 -34t39 -13q44 0 75 30v89h-12zM262 331q-43 0 -49 42q-42 -42 -94 -42q-37 0 -62.5 22t-25.5 60q0 56 54 81q42 19 95 19q16 0 32 -2v54q0 31 -14 46t-55.5 15t-81.5 -22l-8 15q47 48 114 48q46 0 70.5 -25.5t24.5 -70.5v-165
q0 -39 23 -39q9 0 26 5l4 -9q-24 -32 -53 -32z" />
    <glyph glyph-name="guillemotleft" unicode="&#xab;" horiz-adv-x="604" 
d="M122 375l160 182l34 -17l-125 -165l125 -165l-34 -18zM283 375l160 182l34 -17l-125 -165l125 -165l-34 -18z" />
    <glyph glyph-name="logicalnot" unicode="&#xac;" horiz-adv-x="593" 
d="M511 470v-177q-11 -2 -22.5 -2t-22.5 2v118h-392q-4 13 -4 28t4 31h437z" />
    <glyph glyph-name="registered" unicode="&#xae;" horiz-adv-x="762" 
d="M320 377h51q47 0 70.5 21.5t23.5 60.5q0 83 -94 83h-51v-165zM555 201q0 -17 -2 -23h-73l-90 143q-13 25 -37 25h-33v-132q29 -11 62 -13q2 -10 -1 -23h-148q-3 16 3 23q23 3 31.5 9.5t8.5 21.5v310q-20 9 -45 11q0 13 3 20h147q61 0 97.5 -33.5t36.5 -77t-27 -74
t-74 -39.5q7 -5 24 -28l56 -84q24 -36 61 -36zM381 69q119 0 198.5 79.5t79.5 217.5t-79.5 217t-198.5 79t-198.5 -79t-79.5 -217t79.5 -217.5t198.5 -79.5zM381 697q140 0 230.5 -90t90.5 -241t-90.5 -241.5t-230.5 -90.5t-230.5 90.5t-90.5 241.5t90.5 241t230.5 90z" />
    <glyph glyph-name="macron" unicode="&#xaf;" horiz-adv-x="247" 
d="M10 559v35h227v-35h-227z" />
    <glyph glyph-name="degree" unicode="&#xb0;" horiz-adv-x="308" 
d="M242.5 478q-35.5 -33 -89 -33t-88.5 33t-35 92t35 92.5t88.5 33.5t89 -33.5t35.5 -92.5t-35.5 -92zM153 663q-29 0 -46.5 -22.5t-17.5 -69.5t18 -69.5t46.5 -22.5t47 22.5t18.5 69.5t-18.5 69.5t-47.5 22.5z" />
    <glyph glyph-name="plusminus" unicode="&#xb1;" horiz-adv-x="596" 
d="M60 251h453l29 -58v-4h-454l-28 58v4zM542 396h-210v-116h-4l-59 47v69h-181l-28 58v4h209v116h4l59 -46v-70h181l29 -58v-4z" />
    <glyph glyph-name="twosuperior" unicode="&#xb2;" horiz-adv-x="244" 
d="M147 385q25 0 36 11t16 40q11 0 16 -2q0 -46 -7 -84h-180q-5 15 -5 31q88 100 114.5 140t26.5 71q0 53 -48 53t-61 -50q-14 0 -18 1v22.5t5 34.5q38 25 79 25t65 -23.5t24 -60.5t-27.5 -75.5t-118.5 -133.5h83z" />
    <glyph glyph-name="threesuperior" unicode="&#xb3;" horiz-adv-x="228" 
d="M156 598q0 53 -45 53q-26 0 -41 -10.5t-21 -40.5q-13 0 -17 2q0 32 3 57q41 23 80 23t61.5 -20.5t22.5 -51.5t-18.5 -54.5t-47.5 -33.5q74 -18 74 -88q0 -37 -29.5 -61t-76.5 -24t-81 30q9 26 12 28q30 -25 64 -25t52.5 14.5t18.5 43.5q0 57 -88 63v30q36 2 56.5 19
t20.5 46z" />
    <glyph glyph-name="acute" unicode="&#xb4;" horiz-adv-x="193" 
d="M10 557l109 166q37 -5 64 -32v-11l-152 -136z" />
    <glyph glyph-name="uni00B5" unicode="&#xb5;" horiz-adv-x="550" 
d="M446 430v-322q42 -2 65 -2q1 -11 1 -17v-9q-68 -25 -129 -36q-7 37 -9 102q-61 -109 -154 -109q-35 0 -63 14v-142q-22 -5 -40 -5t-32 5v544q-29 1 -45 1h-25q0 10 4 26q69 27 138 37v-387q30 -38 86 -38q37 0 72 27t59 77v225q0 47 -28 65q2 9 5 16q38 15 84 15h15
q-4 -36 -4 -87z" />
    <glyph glyph-name="paragraph" unicode="&#xb6;" horiz-adv-x="511" 
d="M212 660h214v-611h-51v562h-73v-562h-52v220h-38q-82 0 -129.5 55t-47.5 140.5t47 140.5t130 55z" />
    <glyph glyph-name="periodcentered" unicode="&#xb7;" horiz-adv-x="280" 
d="M140 339q-20 0 -34 14.5t-14 35t14 34.5t34 14t34.5 -14t14.5 -34.5t-14.5 -35t-34.5 -14.5z" />
    <glyph glyph-name="cedilla" unicode="&#xb8;" horiz-adv-x="257" 
d="M164 -21q41 0 62 -17t21 -48t-33 -56t-89.5 -25t-114.5 30l15 19q45 -22 92 -22q73 0 73 52q0 40 -58 40q-10 0 -38 -4l23 113h57l-17 -82h7z" />
    <glyph glyph-name="onesuperior" unicode="&#xb9;" horiz-adv-x="175" 
d="M22 350q0 20 2 25q26 2 36 7t10 16v228l-46 -6q-2 11 0 20q67 36 74 39l13 -4v-290q20 -9 45 -10q0 -21 -2 -25h-132z" />
    <glyph glyph-name="ordmasculine" unicode="&#xba;" horiz-adv-x="368" 
d="M187 360q49 0 73 35.5t24 93.5q0 72 -27.5 111t-76.5 39h-2q-47 0 -71 -37t-24 -99v-5q2 -64 28.5 -101t75.5 -37zM295.5 620.5q42.5 -46.5 42.5 -121.5t-44 -121.5t-112.5 -46.5t-110 46t-41.5 121t43.5 122t111.5 47t110.5 -46.5z" />
    <glyph glyph-name="guillemotright" unicode="&#xbb;" horiz-adv-x="609" 
d="M128 540l33 17l161 -182l-161 -183l-33 18l125 165zM293 540l33 17l160 -182l-160 -183l-33 18l124 165z" />
    <glyph glyph-name="onequarter" unicode="&#xbc;" horiz-adv-x="701" 
d="M64 273q-1 5 -1 12.5t4 14.5q32 3 44 8.5t12 20.5v292l-56 -7q-2 9 0 19q63 35 92 49l12 -5v-364q25 -12 57 -13q0 -16 -3 -27h-161zM486 701h37l-324 -690h-37zM541 187v178l-126 -178h126zM584 152v-67q17 -8 43 -10q0 -16 -2 -26h-127q-2 15 2 26q24 3 32.5 8.5
t8.5 21.5v47h-155q-7 8 -14 31l187 267h25v-263h58q3 -11 3 -20t-1 -15h-60z" />
    <glyph glyph-name="onehalf" unicode="&#xbd;" horiz-adv-x="761" 
d="M64 273q-1 5 -1 12.5t4 14.5q32 3 44 8.5t12 20.5v292l-56 -7q-2 9 0 19q63 35 92 49l12 -5v-364q25 -12 57 -13q0 -16 -3 -27h-161zM494 701h37l-332 -690h-37zM596 89q32 0 45.5 14t19.5 50q11 0 18 -3q0 -61 -9 -102h-222q-5 20 -5 35q111 126 144.5 176.5t33.5 85.5
t-18 54t-47 19q-60 0 -77 -62q-14 0 -18 1v28.5t5 38.5q52 32 100 32t78 -29.5t30 -76t-33.5 -92.5t-150.5 -169h106z" />
    <glyph glyph-name="threequarters" unicode="&#xbe;" horiz-adv-x="743" 
d="M236 586q0 67 -59.5 67t-75.5 -68q-14 0 -18 2q0 38 3 71q50 29 98 29t75 -25.5t27 -64.5t-24 -68t-61 -41q98 -22 98 -108q0 -46 -36 -76.5t-93 -30.5t-103 38q9 25 15 28q40 -31 81 -31t64 19.5t23 57.5t-26.5 57t-81.5 23v33q42 1 68 26t26 62zM533 701h38l-325 -690
h-36zM582 187v176l-125 -176h125zM626 152v-67q18 -8 43 -10q0 -16 -2 -26h-127q-2 11 1 26q24 3 32.5 8.5t8.5 21.5v47h-154q-7 8 -14 31l187 267h25v-263h58q3 -11 3 -20t-1 -15h-60z" />
    <glyph glyph-name="questiondown" unicode="&#xbf;" horiz-adv-x="589" 
d="M305 631q20 0 33 -13.5t13 -33.5t-13 -34t-33 -14t-34 14t-14 34t14 33.5t34 13.5zM165 126q0 -49 36.5 -76.5t98.5 -27.5t126 48l42 -50q-67 -55 -151.5 -55t-146 52t-61.5 126q0 113 170 172v123h10l42 -20v-145q-92 -37 -121 -63q-32 -29 -38.5 -47.5t-6.5 -36.5z" />
    <glyph glyph-name="Agrave" unicode="&#xc0;" horiz-adv-x="574" 
d="M316 766l-21 -13l-153 136v11q25 25 64 32zM174 340h196l-100 307l-10 -43zM358 98q0 17 4 29q45 7 70 22l-51 155h-218l-53 -161q31 -14 75 -16q0 -11 -4 -29h-184q0 13 4 29q33 5 50 18.5t25 36.5l178 531q24 9 65 9l176 -539q9 -29 28 -41.5t54 -14.5q-2 -20 -5 -29
h-214z" />
    <glyph glyph-name="Aacute" unicode="&#xc1;" horiz-adv-x="574" 
d="M448 885l-152 -136l-21 13l109 166q37 -5 64 -32v-11zM174 340h196l-100 307l-10 -43zM358 98q0 17 4 29q45 7 70 22l-51 155h-218l-53 -161q31 -14 75 -16q0 -11 -4 -29h-184q0 13 4 29q33 5 50 18.5t25 36.5l178 531q24 9 65 9l176 -539q9 -29 28 -41.5t54 -14.5
q-2 -20 -5 -29h-214z" />
    <glyph glyph-name="Acircumflex" unicode="&#xc2;" horiz-adv-x="574" 
d="M286 827l-119 -74l-19 19l121 115h35l120 -115l-17 -19zM174 340h196l-100 307l-10 -43zM358 98q0 17 4 29q45 7 70 22l-51 155h-218l-53 -161q31 -14 75 -16q0 -11 -4 -29h-184q0 13 4 29q33 5 50 18.5t25 36.5l178 531q24 9 65 9l176 -539q9 -29 28 -41.5t54 -14.5
q-2 -20 -5 -29h-214z" />
    <glyph glyph-name="Atilde" unicode="&#xc3;" horiz-adv-x="574" 
d="M339 778q-26 0 -58 24.5t-47 24.5q-35 0 -45 -45h-28q15 100 82 100q24 0 56.5 -24.5t47.5 -24.5q35 0 45 46h28q-15 -101 -81 -101zM174 340h196l-100 307l-10 -43zM358 98q0 17 4 29q45 7 70 22l-51 155h-218l-53 -161q31 -14 75 -16q0 -11 -4 -29h-184q0 13 4 29
q33 5 50 18.5t25 36.5l178 531q24 9 65 9l176 -539q9 -29 28 -41.5t54 -14.5q-2 -20 -5 -29h-214z" />
    <glyph glyph-name="Adieresis" unicode="&#xc4;" horiz-adv-x="574" 
d="M382.5 784.5q-12.5 -12.5 -30 -12.5t-29.5 12.5t-12 31t12 31t29.5 12.5t30 -12.5t12.5 -31t-12.5 -31zM220 772q-18 0 -30 12.5t-12 31t12 31t30 12.5t30.5 -12.5t12.5 -31t-12.5 -31t-30.5 -12.5zM174 340h196l-100 307l-10 -43zM358 98q0 17 4 29q45 7 70 22l-51 155
h-218l-53 -161q31 -14 75 -16q0 -11 -4 -29h-184q0 13 4 29q33 5 50 18.5t25 36.5l178 531q24 9 65 9l176 -539q9 -29 28 -41.5t54 -14.5q-2 -20 -5 -29h-214z" />
    <glyph glyph-name="Aring" unicode="&#xc5;" horiz-adv-x="574" 
d="M314 853q-11 11 -27.5 11t-27.5 -11t-11 -32.5t11 -33t27 -11.5t27.5 11t11.5 33t-11 33zM346.5 770.5q-24.5 -19.5 -60 -19.5t-60.5 19.5t-25 50t25 49.5t60.5 19t60 -18.5t24.5 -49.5t-24.5 -50.5zM174 340h196l-100 307l-10 -43zM358 98q0 17 4 29q45 7 70 22l-51 155
h-218l-53 -161q31 -14 75 -16q0 -11 -4 -29h-184q0 13 4 29q33 5 50 18.5t25 36.5l178 531q24 9 65 9l176 -539q9 -29 28 -41.5t54 -14.5q-2 -20 -5 -29h-214z" />
    <glyph glyph-name="AE" unicode="&#xc6;" horiz-adv-x="817" 
d="M401 291v277l-29 -53l-137 -224h166zM473 84h173q49 0 66 23t23 80q23 0 30 -2q3 -45 3 -78.5t-1 -57.5h-432q-2 16 3 29q36 5 49.5 14.5t13.5 33.5v129h-188l-95 -156q29 -17 63 -20q0 -18 -4 -30h-172q0 14 4 30q34 4 51 17t32 38l298 488q-21 8 -58 10q0 19 3 28h417
q1 -21 1 -55.5t-5 -77.5q-6 -2 -28 -2q-5 56 -22 79t-65 23h-160v-249l141 7h29v-48h-29l-141 4v-257z" />
    <glyph glyph-name="Ccedilla" unicode="&#xc7;" horiz-adv-x="580" 
d="M340 86h-2l-12 -58h7q41 0 62 -17t21 -48t-33 -56t-89 -25t-115 30l15 19q45 -22 92 -22q73 0 73 52q0 40 -58 40q-10 0 -38 -4l19 95q-99 20 -163 101t-64 214t91 224t223 91q93 0 156 -30q-2 -64 -16 -126q-19 0 -22 1q-1 51 -34 80t-85 29q-105 0 -168.5 -74
t-63.5 -198t63.5 -194.5t155 -70.5t167.5 49l17 -18q-82 -84 -199 -84z" />
    <glyph glyph-name="Egrave" unicode="&#xc8;" horiz-adv-x="518" 
d="M304 766l-21 -13l-153 136v11q25 25 64 32zM174 133h173q49 0 66 23t23 80q23 0 30 -2q3 -45 3 -78.5t-1 -57.5h-432q-2 16 3 29q36 5 49.5 14.5t13.5 33.5v491q-26 13 -69 15q0 19 3 28h417q1 -21 1 -55.5t-5 -77.5q-6 -2 -28 -2q-5 56 -22 79t-65 23h-160v-249l164 7
h30v-48h-30l-164 4v-257z" />
    <glyph glyph-name="Eacute" unicode="&#xc9;" horiz-adv-x="518" 
d="M437 884l-152 -136l-21 13l109 166q37 -5 64 -32v-11zM174 133h173q49 0 66 23t23 80q23 0 30 -2q3 -45 3 -78.5t-1 -57.5h-432q-2 16 3 29q36 5 49.5 14.5t13.5 33.5v491q-26 13 -69 15q0 19 3 28h417q1 -21 1 -55.5t-5 -77.5q-6 -2 -28 -2q-5 56 -22 79t-65 23h-160
v-249l164 7h30v-48h-30l-164 4v-257z" />
    <glyph glyph-name="Ecircumflex" unicode="&#xca;" horiz-adv-x="518" 
d="M273 827l-119 -74l-19 19l121 115h35l120 -115l-17 -19zM174 133h173q49 0 66 23t23 80q23 0 30 -2q3 -45 3 -78.5t-1 -57.5h-432q-2 16 3 29q36 5 49.5 14.5t13.5 33.5v491q-26 13 -69 15q0 19 3 28h417q1 -21 1 -55.5t-5 -77.5q-6 -2 -28 -2q-5 56 -22 79t-65 23h-160
v-249l164 7h30v-48h-30l-164 4v-257z" />
    <glyph glyph-name="Edieresis" unicode="&#xcb;" horiz-adv-x="518" 
d="M364.5 784.5q-12.5 -12.5 -30 -12.5t-29.5 12.5t-12 31t12 31t29.5 12.5t30 -12.5t12.5 -31t-12.5 -31zM202 772q-18 0 -30 12.5t-12 31t12 31t30 12.5t30.5 -12.5t12.5 -31t-12.5 -31t-30.5 -12.5zM174 133h173q49 0 66 23t23 80q23 0 30 -2q3 -45 3 -78.5t-1 -57.5
h-432q-2 16 3 29q36 5 49.5 14.5t13.5 33.5v491q-26 13 -69 15q0 19 3 28h417q1 -21 1 -55.5t-5 -77.5q-6 -2 -28 -2q-5 56 -22 79t-65 23h-160v-249l164 7h30v-48h-30l-164 4v-257z" />
    <glyph glyph-name="Igrave" unicode="&#xcc;" horiz-adv-x="275" 
d="M168 766l-21 -13l-153 136v11q25 25 64 32zM174 634v-492q29 -13 67 -15v-8.5t-3 -20.5h-202q-2 16 3 29q36 5 49.5 14.5t13.5 33.5v490q-31 13 -69 16q0 19 3 28h203q0 -20 -3 -28q-34 -4 -48 -14t-14 -33z" />
    <glyph glyph-name="Iacute" unicode="&#xcd;" horiz-adv-x="275" 
d="M174 634v-492q29 -13 67 -15q1 -12 -3 -29h-202q-2 16 3 29q36 5 49.5 14.5t13.5 33.5v490q-31 13 -69 16q0 19 3 28h203q0 -20 -3 -28q-34 -4 -48 -14t-14 -33zM127 762l109 166q37 -5 64 -32v-11l-152 -136z" />
    <glyph glyph-name="Icircumflex" unicode="&#xce;" horiz-adv-x="275" 
d="M174 634v-492q29 -13 67 -15q1 -12 -3 -29h-202q-2 16 3 29q36 5 49.5 14.5t13.5 33.5v490q-31 13 -69 16q0 19 3 28h203q0 -20 -3 -28q-34 -4 -48 -14t-14 -33zM156 887l120 -115l-17 -19l-121 74l-119 -74l-19 19l121 115h35z" />
    <glyph glyph-name="Idieresis" unicode="&#xcf;" horiz-adv-x="275" 
d="M233.5 784.5q-12.5 -12.5 -30 -12.5t-29.5 12.5t-12 31t12 31t29.5 12.5t30 -12.5t12.5 -31t-12.5 -31zM71 772q-18 0 -30 12.5t-12 31t12 31t30 12.5t30.5 -12.5t12.5 -31t-12.5 -31t-30.5 -12.5zM174 634v-492q29 -13 67 -15v-8.5t-3 -20.5h-202q-2 16 3 29
q36 5 49.5 14.5t13.5 33.5v490q-31 13 -69 16q0 19 3 28h203q0 -20 -3 -28q-34 -4 -48 -14t-14 -33z" />
    <glyph glyph-name="Eth" unicode="&#xd0;" horiz-adv-x="590" 
d="M172 133h82q113 0 172.5 73t59.5 198t-60 198.5t-174 73.5h-80v-300h127q2 -10 2 -19t-2 -19h-127v-205zM258 709q139 0 224 -80t85 -224.5t-83.5 -225.5t-221.5 -81h-227q-2 16 3 29q35 5 49 14.5t14 33.5v163h-76q-2 10 -2 19t2 19h76v291q-32 12 -69 14q0 19 3 28h223
z" />
    <glyph glyph-name="Ntilde" unicode="&#xd1;" horiz-adv-x="661" 
d="M397 778q-26 0 -58 24.5t-47 24.5q-35 0 -45 -45h-28q15 100 82 100q24 0 56.5 -24.5t47.5 -24.5q35 0 45 46h28q-15 -101 -81 -101zM634 709q0 -20 -3 -28q-69 -7 -69 -54v-529h-32l-327 459l-50 76v-491q30 -13 75 -15q1 -12 -3 -29h-188q-1 5 -1 12.5t3 16.5
q69 9 69 53v487q-26 12 -68 14q0 17 3 28h137l257 -359l80 -120v436q-25 11 -76 15q-2 14 3 28h190z" />
    <glyph glyph-name="Ograve" unicode="&#xd2;" horiz-adv-x="659" 
d="M250 932l110 -166l-21 -13l-153 136v11q25 25 64 32zM323 682q-89 0 -137 -73.5t-48 -187.5v-19q2 -143 54.5 -210t143 -67t138.5 71t48 192q0 150 -55 222t-144 72zM530 173.5q-75 -88.5 -200.5 -88.5t-199.5 88t-74 229t74 230.5t199 89.5t200.5 -89.5t75.5 -230
t-75 -229z" />
    <glyph glyph-name="Oacute" unicode="&#xd3;" horiz-adv-x="659" 
d="M323 682q-89 0 -137 -73.5t-48 -187.5v-19q2 -143 54.5 -210t143 -67t138.5 71t48 192q0 150 -55 222t-144 72zM530 173.5q-75 -88.5 -200.5 -88.5t-199.5 88t-74 229t74 230.5t199 89.5t200.5 -89.5t75.5 -230t-75 -229zM318 761l109 166q37 -5 64 -32v-11l-152 -136z
" />
    <glyph glyph-name="Ocircumflex" unicode="&#xd4;" horiz-adv-x="659" 
d="M323 682q-89 0 -137 -73.5t-48 -187.5v-19q2 -143 54.5 -210t143 -67t138.5 71t48 192q0 150 -55 222t-144 72zM530 173.5q-75 -88.5 -200.5 -88.5t-199.5 88t-74 229t74 230.5t199 89.5t200.5 -89.5t75.5 -230t-75 -229zM466 772l-17 -19l-121 74l-119 -74l-19 19
l121 115h35z" />
    <glyph glyph-name="Otilde" unicode="&#xd5;" horiz-adv-x="659" 
d="M287 882q24 0 56.5 -24.5t47.5 -24.5q35 0 45 46h28q-15 -101 -81 -101q-26 0 -58 24.5t-47 24.5q-35 0 -45 -45h-28q15 100 82 100zM323 682q-89 0 -137 -73.5t-48 -187.5v-19q2 -143 54.5 -210t143 -67t138.5 71t48 192q0 150 -55 222t-144 72zM530 173.5
q-75 -88.5 -200.5 -88.5t-199.5 88t-74 229t74 230.5t199 89.5t200.5 -89.5t75.5 -230t-75 -229z" />
    <glyph glyph-name="Odieresis" unicode="&#xd6;" horiz-adv-x="659" 
d="M323 682q-89 0 -137 -73.5t-48 -187.5v-19q2 -143 54.5 -210t143 -67t138.5 71t48 192q0 150 -55 222t-144 72zM530 173.5q-75 -88.5 -200.5 -88.5t-199.5 88t-74 229t74 230.5t199 89.5t200.5 -89.5t75.5 -230t-75 -229zM419.5 846.5q12.5 -12.5 12.5 -31t-12.5 -31
t-30 -12.5t-29.5 12.5t-12 31t12 31t29.5 12.5t30 -12.5zM287.5 846.5q12.5 -12.5 12.5 -31t-12.5 -31t-30.5 -12.5t-30 12.5t-12 31t12 31t30 12.5t30.5 -12.5z" />
    <glyph glyph-name="multiply" unicode="&#xd7;" horiz-adv-x="528" 
d="M443 522l-139 -150l138 -152l-36 -28l-133 146l-133 -143l-54 37l144 153l-138 151l39 26l131 -144l136 144z" />
    <glyph glyph-name="Oslash" unicode="&#xd8;" horiz-adv-x="659" 
d="M197 148q54 -70 145.5 -70t139.5 75q41 65 41 169q0 16 -1 32q-4 93 -34 158zM466 551q-54 80 -147.5 80t-140.5 -78q-41 -68 -41 -169q0 -15 1 -31q4 -101 36 -167zM537 574q68 -88 68 -224.5t-75 -225t-200 -88.5q-105 0 -174 60l-48 -60h-53l71 89q-70 87 -70 228
t74 230.5t199 89.5q107 0 180 -68l53 67h54z" />
    <glyph glyph-name="Ugrave" unicode="&#xd9;" horiz-adv-x="653" 
d="M359 766l-21 -13l-153 136v11q25 25 64 32zM616 709q1 -4 1 -11t-3 -17q-36 -4 -49.5 -13.5t-13.5 -33.5v-329q0 -112 -60.5 -165.5t-161.5 -53.5t-161.5 53.5t-60.5 165.5v360q-31 13 -69 16q-1 4 -1 11t4 17h202q0 -20 -2 -28q-35 -4 -49 -14t-14 -33v-336
q0 -86 41 -128t110 -42t109 42.5t40 127.5v368q-28 11 -68 15q0 20 4 28h202z" />
    <glyph glyph-name="Uacute" unicode="&#xda;" horiz-adv-x="665" 
d="M477 884l-152 -136l-21 13l109 166q37 -5 64 -32v-11zM616 709q1 -4 1 -11t-3 -17q-36 -4 -49.5 -13.5t-13.5 -33.5v-329q0 -112 -60.5 -165.5t-161.5 -53.5t-161.5 53.5t-60.5 165.5v360q-31 13 -69 16q-1 4 -1 11t4 17h202q0 -20 -2 -28q-35 -4 -49 -14t-14 -33v-336
q0 -86 41 -128t110 -42t109 42.5t40 127.5v368q-28 11 -68 15q0 20 4 28h202z" />
    <glyph glyph-name="Ucircumflex" unicode="&#xdb;" horiz-adv-x="665" 
d="M314 827l-119 -74l-19 19l121 115h35l120 -115l-17 -19zM616 709q1 -4 1 -11t-3 -17q-36 -4 -49.5 -13.5t-13.5 -33.5v-329q0 -112 -60.5 -165.5t-161.5 -53.5t-161.5 53.5t-60.5 165.5v360q-31 13 -69 16q-1 4 -1 11t4 17h202q0 -20 -2 -28q-35 -4 -49 -14t-14 -33v-336
q0 -86 41 -128t110 -42t109 42.5t40 127.5v368q-28 11 -68 15q0 20 4 28h202z" />
    <glyph glyph-name="Udieresis" unicode="&#xdc;" horiz-adv-x="665" 
d="M404.5 784.5q-12.5 -12.5 -30 -12.5t-29.5 12.5t-12 31t12 31t29.5 12.5t30 -12.5t12.5 -31t-12.5 -31zM242 772q-18 0 -30 12.5t-12 31t12 31t30 12.5t30.5 -12.5t12.5 -31t-12.5 -31t-30.5 -12.5zM616 709q1 -4 1 -11t-3 -17q-36 -4 -49.5 -13.5t-13.5 -33.5v-329
q0 -112 -60.5 -165.5t-161.5 -53.5t-161.5 53.5t-60.5 165.5v360q-31 13 -69 16q-1 4 -1 11t4 17h202q0 -20 -2 -28q-35 -4 -49 -14t-14 -33v-336q0 -86 41 -128t110 -42t109 42.5t40 127.5v368q-28 11 -68 15q0 20 4 28h202z" />
    <glyph glyph-name="Yacute" unicode="&#xdd;" horiz-adv-x="565" 
d="M450 885l-152 -136l-21 13l109 166q37 -5 64 -32v-11zM568 709q0 -13 -3 -29q-28 -4 -42 -14t-31 -36l-175 -280v-209q33 -13 70 -14q0 -15 -3 -29h-209q-1 15 2 29q36 5 50 14.5t14 33.5v165l-189 329q-29 10 -52 11q-4 22 -4 29h202q5 -15 5 -29q-42 -4 -52 -16
q-4 -4 -4 -12.5t8 -23.5l138 -249h2q7 25 24 51l149 238q-29 11 -61 12q0 17 3 29h158z" />
    <glyph glyph-name="Thorn" unicode="&#xde;" horiz-adv-x="526" 
d="M174 240h97q63 0 98 31.5t35 89t-34 89.5t-99 32h-97v-242zM174 517h114q92 0 144.5 -43t52.5 -113.5t-52.5 -113t-144.5 -42.5h-114v-112q29 -13 67 -15q1 -12 -3 -29h-202q-2 16 3 29q36 5 49.5 14.5t13.5 33.5v490q-31 13 -69 16q0 19 3 28h203q0 -20 -3 -28
q-34 -4 -48 -14t-14 -33v-68z" />
    <glyph glyph-name="germandbls" unicode="&#xdf;" horiz-adv-x="561" 
d="M100 128v349q0 83 53 133t141.5 50t138 -46.5t49.5 -111.5q0 -48 -27 -82.5t-71 -50.5q60 -13 93.5 -56t33.5 -104.5t-49 -110.5t-142 -49q-36 0 -81 13q-3 9 -3 18t2 17q37 -13 72 -13q59 0 89.5 36.5t30.5 94t-33 94t-102 36.5h-39q-4 12 -4 20.5v13.5h63q87 32 87 123
q0 59 -31 92t-86.5 33t-83.5 -38.5t-28 -101.5v-438h-141q-1 5 -1 12.5t3 17.5q37 4 51.5 14t14.5 35z" />
    <glyph glyph-name="agrave" unicode="&#xe0;" horiz-adv-x="465" 
d="M257 609l-21 -13l-153 136v11q25 25 64 32zM121 217q0 -37 21.5 -57.5t57.5 -20.5q55 0 92 40v163l-71 -18q-100 -27 -100 -107zM364 86q-26 0 -45 14.5t-25 40.5q-50 -55 -112.5 -55t-99.5 35.5t-37 90.5q0 111 152 144l95 21v44q0 45 -18.5 66t-69.5 21t-120 -24
l-13 20q74 61 166 61q61 0 94.5 -36t33.5 -100v-237q0 -30 7 -42t22.5 -12t38.5 5l6 -12q-34 -45 -75 -45z" />
    <glyph glyph-name="aacute" unicode="&#xe1;" horiz-adv-x="465" 
d="M390 728l-152 -136l-21 13l109 166q37 -5 64 -32v-11zM121 217q0 -37 21.5 -57.5t57.5 -20.5q55 0 92 40v163l-71 -18q-100 -27 -100 -107zM364 86q-26 0 -45 14.5t-25 40.5q-50 -55 -112.5 -55t-99.5 35.5t-37 90.5q0 111 152 144l95 21v44q0 45 -18.5 66t-69.5 21
t-120 -24l-13 20q74 61 166 61q61 0 94.5 -36t33.5 -100v-237q0 -30 7 -42t22.5 -12t38.5 5l6 -12q-34 -45 -75 -45z" />
    <glyph glyph-name="acircumflex" unicode="&#xe2;" horiz-adv-x="465" 
d="M227 670l-119 -74l-19 19l121 115h35l120 -115l-17 -19zM121 217q0 -37 21.5 -57.5t57.5 -20.5q55 0 92 40v163l-71 -18q-100 -27 -100 -107zM364 86q-26 0 -45 14.5t-25 40.5q-50 -55 -112.5 -55t-99.5 35.5t-37 90.5q0 111 152 144l95 21v44q0 45 -18.5 66t-69.5 21
t-120 -24l-13 20q74 61 166 61q61 0 94.5 -36t33.5 -100v-237q0 -30 7 -42t22.5 -12t38.5 5l6 -12q-34 -45 -75 -45z" />
    <glyph glyph-name="atilde" unicode="&#xe3;" horiz-adv-x="465" 
d="M280 621q-26 0 -58 24.5t-47 24.5q-35 0 -45 -45h-28q15 100 82 100q24 0 56.5 -24.5t47.5 -24.5q35 0 45 46h28q-15 -101 -81 -101zM121 217q0 -37 21.5 -57.5t57.5 -20.5q55 0 92 40v163l-71 -18q-100 -27 -100 -107zM364 86q-26 0 -45 14.5t-25 40.5
q-50 -55 -112.5 -55t-99.5 35.5t-37 90.5q0 111 152 144l95 21v44q0 45 -18.5 66t-69.5 21t-120 -24l-13 20q74 61 166 61q61 0 94.5 -36t33.5 -100v-237q0 -30 7 -42t22.5 -12t38.5 5l6 -12q-34 -45 -75 -45z" />
    <glyph glyph-name="adieresis" unicode="&#xe4;" horiz-adv-x="465" 
d="M323.5 627.5q-12.5 -12.5 -30 -12.5t-29.5 12.5t-12 31t12 31t29.5 12.5t30 -12.5t12.5 -31t-12.5 -31zM161 615q-18 0 -30 12.5t-12 31t12 31t30 12.5t30.5 -12.5t12.5 -31t-12.5 -31t-30.5 -12.5zM121 217q0 -37 21.5 -57.5t57.5 -20.5q55 0 92 40v163l-71 -18
q-100 -27 -100 -107zM364 86q-26 0 -45 14.5t-25 40.5q-50 -55 -112.5 -55t-99.5 35.5t-37 90.5q0 111 152 144l95 21v44q0 45 -18.5 66t-69.5 21t-120 -24l-13 20q74 61 166 61q61 0 94.5 -36t33.5 -100v-237q0 -30 7 -42t22.5 -12t38.5 5l6 -12q-34 -45 -75 -45z" />
    <glyph glyph-name="aring" unicode="&#xe5;" horiz-adv-x="465" 
d="M255 696q-11 11 -27.5 11t-27.5 -11t-11 -32.5t11 -33t27.5 -11.5t27.5 11.5t11 33t-11 32.5zM287.5 613.5q-24.5 -19.5 -60 -19.5t-60.5 19.5t-25 50t25 49.5t60.5 19t60 -18.5t24.5 -49.5t-24.5 -50.5zM121 217q0 -37 21.5 -57.5t57.5 -20.5q55 0 92 40v163l-71 -18
q-100 -27 -100 -107zM364 86q-26 0 -45 14.5t-25 40.5q-50 -55 -112.5 -55t-99.5 35.5t-37 90.5q0 111 152 144l95 21v44q0 45 -18.5 66t-69.5 21t-120 -24l-13 20q74 61 166 61q61 0 94.5 -36t33.5 -100v-237q0 -30 7 -42t22.5 -12t38.5 5l6 -12q-34 -45 -75 -45z" />
    <glyph glyph-name="ae" unicode="&#xe6;" horiz-adv-x="721" 
d="M574 444.5q-29 31.5 -72 31.5t-80 -34t-48 -102l116 8h114q-1 65 -30 96.5zM121 168q0 -37 21.5 -57.5t57.5 -20.5q67 0 115 66q-23 48 -23 112v25l-71 -18q-100 -27 -100 -107zM369 284q0 -93 38.5 -143.5t112.5 -50.5t146 48l9 -18q-73 -83 -179 -83q-47 0 -92 23
t-74 68q-64 -91 -151 -91q-60 0 -97 35.5t-37 91.5q0 110 152 143l95 21v44q0 45 -18.5 66t-69.5 21t-120 -24l-13 20q74 61 165 61t116 -78q31 38 74 58t84 20q74 0 122 -49.5t48 -141.5q-3 -9 -10 -18h-300q-1 -7 -1 -23z" />
    <glyph glyph-name="ccedilla" unicode="&#xe7;" horiz-adv-x="452" 
d="M257 28q41 0 62 -17t21 -48t-33 -56t-89 -25t-115 30l15 19q45 -22 92 -22q73 0 73 52q0 40 -58 40q-10 0 -38 -4l19 93q-72 15 -118.5 75.5t-46.5 151.5q0 111 65 179.5t167 68.5q80 0 135 -39q0 -52 -9 -108l-21 3q0 48 -31 75.5t-80 27.5q-67 0 -107.5 -53.5
t-40.5 -143.5t39.5 -142t106.5 -52t139 42l13 -16q-71 -68 -155 -73l-12 -58h7z" />
    <glyph glyph-name="egrave" unicode="&#xe8;" horiz-adv-x="471" 
d="M289 609l-21 -13l-153 136v11q25 25 64 32zM324 494q-30 31 -72.5 31t-79.5 -34t-48 -102l116 8l115 1q-1 65 -31 96zM119 333q0 -93 38.5 -143.5t112.5 -50.5t146 48l9 -18q-73 -83 -179 -83q-75 0 -136 56q-31 27 -49.5 72.5t-18.5 102.5q0 117 68 182.5t146 65.5
t126.5 -49.5t48.5 -141.5q-6 -11 -11 -18h-300q-1 -7 -1 -23z" />
    <glyph glyph-name="eacute" unicode="&#xe9;" horiz-adv-x="471" 
d="M421 729l-152 -136l-21 13l109 166q37 -5 64 -32v-11zM324 494q-30 31 -72.5 31t-79.5 -34t-48 -102l116 8l115 1q-1 65 -31 96zM119 333q0 -93 38.5 -143.5t112.5 -50.5t146 48l9 -18q-73 -83 -179 -83q-75 0 -136 56q-31 27 -49.5 72.5t-18.5 102.5q0 117 68 182.5
t146 65.5t126.5 -49.5t48.5 -141.5q-6 -11 -11 -18h-300q-1 -7 -1 -23z" />
    <glyph glyph-name="ecircumflex" unicode="&#xea;" horiz-adv-x="471" 
d="M258 670l-119 -74l-19 19l121 115h35l120 -115l-17 -19zM324 494q-30 31 -72.5 31t-79.5 -34t-48 -102l116 8l115 1q-1 65 -31 96zM119 333q0 -93 38.5 -143.5t112.5 -50.5t146 48l9 -18q-73 -83 -179 -83q-75 0 -136 56q-31 27 -49.5 72.5t-18.5 102.5q0 117 68 182.5
t146 65.5t126.5 -49.5t48.5 -141.5q-6 -11 -11 -18h-300q-1 -7 -1 -23z" />
    <glyph glyph-name="edieresis" unicode="&#xeb;" horiz-adv-x="471" 
d="M348.5 627.5q-12.5 -12.5 -30 -12.5t-29.5 12.5t-12 31t12 31t29.5 12.5t30 -12.5t12.5 -31t-12.5 -31zM186 615q-18 0 -30 12.5t-12 31t12 31t30 12.5t30.5 -12.5t12.5 -31t-12.5 -31t-30.5 -12.5zM324 494q-30 31 -72.5 31t-79.5 -34t-48 -102l116 8l115 1
q-1 65 -31 96zM119 333q0 -93 38.5 -143.5t112.5 -50.5t146 48l9 -18q-73 -83 -179 -83q-75 0 -136 56q-31 27 -49.5 72.5t-18.5 102.5q0 117 68 182.5t146 65.5t126.5 -49.5t48.5 -141.5q-6 -11 -11 -18h-300q-1 -7 -1 -23z" />
    <glyph glyph-name="igrave" unicode="&#xec;" horiz-adv-x="277" 
d="M166 609l-21 -13l-153 136v11q25 25 64 32zM99 177v317q-16 1 -33.5 1t-36.5 -1q0 10 4 28q66 25 138 37v-416q28 -12 68 -15q0 -18 -3 -30h-205q-2 15 2 30q37 4 51.5 14t14.5 35z" />
    <glyph glyph-name="iacute" unicode="&#xed;" horiz-adv-x="277" 
d="M99 177v317q-16 1 -33.5 1t-36.5 -1q0 10 4 28q66 25 138 37v-416q28 -12 68 -15q0 -18 -3 -30h-205q-2 15 2 30q37 4 51.5 14t14.5 35zM125 606l109 166q37 -5 64 -32v-11l-152 -136z" />
    <glyph glyph-name="icircumflex" unicode="&#xee;" horiz-adv-x="277" 
d="M99 177v317q-16 1 -33.5 1t-36.5 -1q0 10 4 28q66 25 138 37v-416q28 -12 68 -15q0 -18 -3 -30h-205q-2 15 2 30q37 4 51.5 14t14.5 35zM154 730l120 -115l-17 -19l-121 74l-119 -74l-19 19l121 115h35z" />
    <glyph glyph-name="idieresis" unicode="&#xef;" horiz-adv-x="277" 
d="M226.5 627.5q-12.5 -12.5 -30 -12.5t-29.5 12.5t-12 31t12 31t29.5 12.5t30 -12.5t12.5 -31t-12.5 -31zM64 615q-18 0 -30 12.5t-12 31t12 31t30 12.5t30.5 -12.5t12.5 -31t-12.5 -31t-30.5 -12.5zM99 177v317q-16 1 -33.5 1t-36.5 -1q0 10 4 28q66 25 138 37v-416
q28 -12 68 -15q0 -18 -3 -30h-205q-2 15 2 30q37 4 51.5 14t14.5 35z" />
    <glyph glyph-name="eth" unicode="&#xf0;" horiz-adv-x="499" 
d="M287 470q-80 0 -124 -51t-44 -142t34 -144.5t94.5 -53.5t91 67.5t30.5 159t-15 155.5q-32 9 -67 9zM446 321q0 -119 -58 -201.5t-146.5 -82.5t-144 62.5t-55.5 168t73 177t182 71.5q17 0 41 -2q-17 52 -51 107l-110 -52q-15 12 -20 34l108 50q-33 46 -73 87l27 24
q50 -47 87 -91l110 51q15 -11 20 -33l-105 -50q115 -154 115 -320z" />
    <glyph glyph-name="ntilde" unicode="&#xf1;" horiz-adv-x="553" 
d="M341 622q-26 0 -58 24.5t-47 24.5q-35 0 -45 -45h-28q15 100 82 100q24 0 56.5 -24.5t47.5 -24.5q35 0 45 46h28q-15 -101 -81 -101zM460 416v-273q32 -12 70 -15q0 -14 -2 -30h-204q-1 12 1 30q36 4 49.5 14t13.5 35v233q0 49 -23 75t-64 26q-87 0 -130 -104v-264
q28 -12 68 -15q0 -18 -3 -30h-205q-2 15 2 30q37 4 51.5 14t14.5 35v318q-29 1 -45 1h-25q0 12 4 26q66 26 130 37q6 -38 8 -98q51 104 155 104q59 0 96.5 -38t37.5 -111z" />
    <glyph glyph-name="ograve" unicode="&#xf2;" horiz-adv-x="509" 
d="M182 775l110 -166l-21 -13l-153 136v11q25 25 64 32zM259 128q67 0 98.5 50.5t31.5 135.5q0 102 -36 157.5t-102.5 55.5t-99 -52.5t-32.5 -139.5q0 -100 36.5 -153.5t103.5 -53.5zM409.5 499.5q57.5 -65.5 57.5 -173.5t-59 -174t-156.5 -66t-153.5 65.5t-56 173.5t59 174
t155 66t153.5 -65.5z" />
    <glyph glyph-name="oacute" unicode="&#xf3;" horiz-adv-x="525" 
d="M259 128q67 0 98.5 50.5t31.5 135.5q0 102 -36 157.5t-102.5 55.5t-99 -52.5t-32.5 -139.5q0 -100 36.5 -153.5t103.5 -53.5zM409.5 499.5q57.5 -65.5 57.5 -173.5t-59 -174t-156.5 -66t-153.5 65.5t-56 173.5t59 174t155 66t153.5 -65.5zM251 606l109 166q37 -5 64 -32
v-11l-152 -136z" />
    <glyph glyph-name="ocircumflex" unicode="&#xf4;" horiz-adv-x="525" 
d="M259 128q67 0 98.5 50.5t31.5 135.5q0 102 -36 157.5t-102.5 55.5t-99 -52.5t-32.5 -139.5q0 -100 36.5 -153.5t103.5 -53.5zM409.5 499.5q57.5 -65.5 57.5 -173.5t-59 -174t-156.5 -66t-153.5 65.5t-56 173.5t59 174t155 66t153.5 -65.5zM399 615l-17 -19l-121 74
l-119 -74l-19 19l121 115h35z" />
    <glyph glyph-name="otilde" unicode="&#xf5;" horiz-adv-x="509" 
d="M219 725q24 0 56.5 -24.5t47.5 -24.5q35 0 45 46h28q-15 -101 -81 -101q-26 0 -58 24.5t-47 24.5q-35 0 -45 -45h-28q15 100 82 100zM259 128q67 0 98.5 50.5t31.5 135.5q0 102 -36 157.5t-102.5 55.5t-99 -52.5t-32.5 -139.5q0 -100 36.5 -153.5t103.5 -53.5z
M409.5 499.5q57.5 -65.5 57.5 -173.5t-59 -174t-156.5 -66t-153.5 65.5t-56 173.5t59 174t155 66t153.5 -65.5z" />
    <glyph glyph-name="odieresis" unicode="&#xf6;" horiz-adv-x="525" 
d="M259 128q67 0 98.5 50.5t31.5 135.5q0 102 -36 157.5t-102.5 55.5t-99 -52.5t-32.5 -139.5q0 -100 36.5 -153.5t103.5 -53.5zM409.5 499.5q57.5 -65.5 57.5 -173.5t-59 -174t-156.5 -66t-153.5 65.5t-56 173.5t59 174t155 66t153.5 -65.5zM351.5 689.5
q12.5 -12.5 12.5 -31t-12.5 -31t-30 -12.5t-29.5 12.5t-12 31t12 31t29.5 12.5t30 -12.5zM219.5 689.5q12.5 -12.5 12.5 -31t-12.5 -31t-30.5 -12.5t-30 12.5t-12 31t12 31t30 12.5t30.5 -12.5z" />
    <glyph glyph-name="divide" unicode="&#xf7;" horiz-adv-x="604" 
d="M542 345h-454l-28 58v4h453l29 -57v-5zM342 152q-16 -15 -39 -15t-38 15t-15 38t15 39t38 16t39 -16t16 -39t-16 -38zM342 524q-16 -15 -39 -15t-38 15t-15 37.5t15 38.5t38 16t39 -16t16 -38.5t-16 -37.5z" />
    <glyph glyph-name="oslash" unicode="&#xf8;" horiz-adv-x="525" 
d="M163 126q38 -47 105.5 -47t102 51t34.5 136q0 77 -23 128zM362 428q-38 50 -105.5 50t-102.5 -52.5t-35 -139.5q0 -76 23 -127zM426 446q57 -65 57 -170.5t-62.5 -172t-150.5 -66.5t-145 44l-36 -44h-47l57 69q-57 65 -57 171t62.5 172.5t158.5 66.5q78 0 136 -44l36 44
h48z" />
    <glyph glyph-name="ugrave" unicode="&#xf9;" horiz-adv-x="542" 
d="M287 609l-21 -13l-153 136v11q25 25 64 32zM438 472v-315q42 -2 65 -2q1 -11 1 -17v-9q-57 -28 -129 -36q-7 37 -9 102q-61 -109 -154 -109q-57 0 -96 40t-39 114v256h-27.5h-31.5q0 11 4 27q73 31 127 37v-314q0 -49 23.5 -77t61.5 -28t72.5 26.5t59.5 75.5v221
q0 47 -28 65q2 11 5 15q37 16 88 16h11q-4 -36 -4 -88z" />
    <glyph glyph-name="uacute" unicode="&#xfa;" horiz-adv-x="550" 
d="M435 729l-152 -136l-21 13l109 166q37 -5 64 -32v-11zM438 472v-315q42 -2 65 -2q1 -11 1 -17v-9q-57 -28 -129 -36q-7 37 -9 102q-61 -109 -154 -109q-57 0 -96 40t-39 114v256h-27.5h-31.5q0 11 4 27q73 31 127 37v-314q0 -49 23.5 -77t61.5 -28t72.5 26.5t59.5 75.5
v221q0 47 -28 65q2 11 5 15q37 16 88 16h11q-4 -36 -4 -88z" />
    <glyph glyph-name="ucircumflex" unicode="&#xfb;" horiz-adv-x="550" 
d="M272 670l-119 -74l-19 19l121 115h35l120 -115l-17 -19zM438 472v-315q42 -2 65 -2q1 -11 1 -17v-9q-57 -28 -129 -36q-7 37 -9 102q-61 -109 -154 -109q-57 0 -96 40t-39 114v256h-27.5h-31.5q0 11 4 27q73 31 127 37v-314q0 -49 23.5 -77t61.5 -28t72.5 26.5t59.5 75.5
v221q0 47 -28 65q2 11 5 15q37 16 88 16h11q-4 -36 -4 -88z" />
    <glyph glyph-name="udieresis" unicode="&#xfc;" horiz-adv-x="550" 
d="M363.5 627.5q-12.5 -12.5 -30 -12.5t-29.5 12.5t-12 31t12 31t29.5 12.5t30 -12.5t12.5 -31t-12.5 -31zM201 615q-18 0 -30 12.5t-12 31t12 31t30 12.5t30.5 -12.5t12.5 -31t-12.5 -31t-30.5 -12.5zM438 472v-315q42 -2 65 -2q1 -11 1 -17v-9q-57 -28 -129 -36
q-7 37 -9 102q-61 -109 -154 -109q-57 0 -96 40t-39 114v256h-27.5h-31.5q0 11 4 27q73 31 127 37v-314q0 -49 23.5 -77t61.5 -28t72.5 26.5t59.5 75.5v221q0 47 -28 65q2 11 5 15q37 16 88 16h11q-4 -36 -4 -88z" />
    <glyph glyph-name="yacute" unicode="&#xfd;" horiz-adv-x="505" 
d="M434 728l-152 -136l-21 13l109 166q37 -5 64 -32v-11zM111 -127h-13q-10 25 -10 42.5t2 27.5h19q32 0 50.5 13t36.5 50l36 77l-156 385q-11 29 -25 40t-48 15q-2 12 -2 19.5v10.5h206q4 -12 4 -30q-46 -4 -70 -14l127 -348q3 16 11 36l104 264q6 15 6 26t-6 18
q-13 14 -61 18q-4 19 -2 30h183q1 -14 -5 -30q-20 -3 -45 -10l-217 -518q-27 -65 -55 -93.5t-70 -28.5z" />
    <glyph glyph-name="thorn" unicode="&#xfe;" horiz-adv-x="530" 
d="M171 191q28 -106 122 -106q45 0 79 44t34 147t-34 147.5t-79 44.5t-76.5 -27t-45.5 -79v-171zM300 516q76 0 131 -60.5t55 -179t-55 -179t-131 -61.5q-91 0 -129 89v-253q32 -15 75 -18q1 -13 -3 -30h-212q-2 15 2 30q37 5 51.5 15t14.5 34v796q-11 1 -28 1t-42 -1
q0 12 4 28q66 27 138 37v-337q38 89 129 89z" />
    <glyph glyph-name="ydieresis" unicode="&#xff;" horiz-adv-x="505" 
d="M367.5 627.5q-12.5 -12.5 -30 -12.5t-29.5 12.5t-12 31t12 31t29.5 12.5t30 -12.5t12.5 -31t-12.5 -31zM205 615q-18 0 -30 12.5t-12 31t12 31t30 12.5t30.5 -12.5t12.5 -31t-12.5 -31t-30.5 -12.5zM111 -127h-13q-10 25 -10 42.5t2 27.5h19q32 0 50.5 13t36.5 50l36 77
l-156 385q-11 29 -25 40t-48 15q-2 12 -2 19.5v10.5h206q4 -12 4 -30q-46 -4 -70 -14l127 -348q3 16 11 36l104 264q6 15 6 26t-6 18q-13 14 -61 18q-4 19 -2 30h183q1 -14 -5 -30q-20 -3 -45 -10l-217 -518q-27 -65 -55 -93.5t-70 -28.5z" />
    <glyph glyph-name="dotlessi" unicode="&#x131;" horiz-adv-x="277" 
d="M99 128v317q-16 1 -33.5 1t-36.5 -1q0 10 4 28q66 25 138 37v-416q28 -12 68 -15q0 -18 -3 -30h-205q-2 15 2 30q37 4 51.5 14t14.5 35z" />
    <glyph glyph-name="Lslash" unicode="&#x141;" horiz-adv-x="498" 
d="M172 133h185q48 0 65 22.5t22 77.5q20 0 26 -1q5 -48 5 -80.5t-1 -53.5h-439q-2 16 3 29q35 5 49 14.5t14 33.5v150l-75 -25q-10 11 -13 35l88 30v300q-30 13 -69 16q0 19 3 28h202q2 -14 -3 -28q-34 -4 -48 -14t-14 -33v-244l93 32q8 -10 14 -38l-107 -36v-215z" />
    <glyph glyph-name="lslash" unicode="&#x142;" horiz-adv-x="301" 
d="M108 177v201l-78 -27q-8 10 -13 38l91 31v328q-10 1 -28 1t-42 -1q0 12 4 28q66 27 138 37v-368l89 30q7 -9 14 -38l-103 -35v-259q28 -12 68 -15q0 -18 -3 -30h-205q-2 15 2 30q37 4 51.5 14t14.5 35z" />
    <glyph glyph-name="OE" unicode="&#x152;" horiz-adv-x="863" 
d="M320 631q-91 0 -140 -78q-43 -68 -43 -170q0 -158 61 -237q54 -68 147 -68q56 0 98 26v502q-56 25 -123 25zM515 84h173q49 0 66 23t23 80q22 0 30 -2q3 -45 3 -78.5t-1 -57.5h-349q-72 -13 -130 -13q-126 0 -200 88t-74 229t75.5 230.5t201.5 89.5q57 0 127 -13h334
q2 -25 2 -58.5t-6 -74.5q-6 -2 -28 -2q-5 56 -22 79t-65 23h-160v-249l140 7h30v-48h-30l-140 4v-257z" />
    <glyph glyph-name="oe" unicode="&#x153;" horiz-adv-x="836" 
d="M673 444.5q-29 31.5 -71.5 31.5t-79.5 -34t-49 -102l116 8h114q-1 65 -30 96.5zM259 79q67 0 98.5 50.5t31.5 135.5q0 102 -36 157.5t-102.5 55.5t-99 -52.5t-32.5 -139.5q0 -100 36.5 -153.5t103.5 -53.5zM468 284q0 -93 39 -143.5t111 -50.5t146 49l9 -20
q-73 -82 -178 -82q-50 0 -96 26t-72 77q-53 -103 -173 -103q-100 0 -156 65.5t-56 173.5t59 174t154 66q124 0 177 -109q30 53 79 81t98 28q75 0 122.5 -49.5t47.5 -141.5q-4 -12 -10 -18h-300q-1 -7 -1 -23z" />
    <glyph glyph-name="Scaron" unicode="&#x160;" horiz-adv-x="513" 
d="M431 260q0 -77 -57.5 -124t-144.5 -47t-171 42q-1 16 -1 53t9 94q11 0 26 -3v-6q0 -141 142 -141q56 0 92 31.5t36 78t-30.5 79t-73.5 54t-86 44t-73.5 61t-30.5 91.5q0 70 52.5 111t131.5 41t158 -30q-2 -70 -11 -118q-16 0 -22 2q-20 107 -130 107q-53 0 -83.5 -26.5
t-30.5 -70.5t30.5 -74t74.5 -50.5t88 -43t74.5 -61.5t30.5 -94zM412 878l-107 -122h-60l-109 122l19 19l119 -91l121 91z" />
    <glyph glyph-name="scaron" unicode="&#x161;" horiz-adv-x="417" 
d="M274 145.5q29 21.5 29 52.5t-24 52t-59 37t-69.5 33.5t-58.5 47t-24 69.5q0 63 45 95.5t108.5 32.5t121.5 -20q1 -17 1 -46t-6 -67q-8 0 -23 3q1 10 1 19q0 75 -91 75q-40 0 -65.5 -21.5t-25.5 -53t24.5 -53.5t60 -37t71 -32t60 -45.5t24.5 -66.5q0 -63 -51.5 -98.5
t-126.5 -35.5t-140 21q-2 23 -2 53.5t6 67.5q9 0 23 -2v-12q0 -47 31.5 -68.5t81 -21.5t78.5 21.5zM368 721l-107 -122h-60l-109 122l19 19l119 -91l121 91z" />
    <glyph glyph-name="Ydieresis" unicode="&#x178;" horiz-adv-x="565" 
d="M383.5 784.5q-12.5 -12.5 -30 -12.5t-29.5 12.5t-12 31t12 31t29.5 12.5t30 -12.5t12.5 -31t-12.5 -31zM221 772q-18 0 -30 12.5t-12 31t12 31t30 12.5t30.5 -12.5t12.5 -31t-12.5 -31t-30.5 -12.5zM568 709q0 -13 -3 -29q-28 -4 -42 -14t-31 -36l-175 -280v-209
q33 -13 70 -14q0 -15 -3 -29h-209q-1 15 2 29q36 5 50 14.5t14 33.5v165l-189 329q-29 10 -52 11q-4 22 -4 29h202q5 -15 5 -29q-42 -4 -52 -16q-4 -4 -4 -12.5t8 -23.5l138 -249h2q7 25 24 51l149 238q-29 11 -61 12q0 17 3 29h158z" />
    <glyph glyph-name="Zcaron" unicode="&#x17d;" horiz-adv-x="538" 
d="M333 756h-60l-109 122l19 19l119 -91l121 91l17 -19zM366 138q47 0 66.5 19.5t27.5 71.5q13 0 20 -4q0 -72 -9 -127h-412q-8 14 -8 35l347 538h-214q-46 0 -66 -20.5t-28 -72.5q-9 0 -21 5q0 67 10 126h397q5 -11 5 -34l-345 -537h230z" />
    <glyph glyph-name="zcaron" unicode="&#x17e;" horiz-adv-x="450" 
d="M265 599h-60l-109 122l19 19l119 -91l121 91l17 -19zM282 135q49 0 70.5 21t30.5 76q12 0 21 -4v-34t-10 -96h-350q-2 8 -2 17.5t4 22.5l274 379h-141q-49 0 -70.5 -22t-30.5 -77q-11 0 -21 6q0 66 10 129h335q3 -12 3 -22.5t-4 -19.5l-268 -376h149z" />
    <glyph glyph-name="florin" unicode="&#x192;" horiz-adv-x="402" 
d="M309 516q33 0 67 -14q-2 -24 -16 -40q-34 14 -57 14q-41 0 -67.5 -27t-37.5 -91l-17 -103q77 0 136 6q-6 -29 -15 -46h-128l-42 -247q-13 -74 -53 -114.5t-90 -40.5q-32 0 -65 14q2 22 15 39q32 -13 55 -13q47 0 60 75l50 286q-28 4 -65 4q1 9 6 21q28 9 65 16l12 66
q17 98 70.5 146.5t116.5 48.5z" />
    <glyph glyph-name="circumflex" unicode="&#x2c6;" horiz-adv-x="296" 
d="M286 566l-17 -19l-121 74l-119 -74l-19 19l121 115h35z" />
    <glyph glyph-name="caron" unicode="&#x2c7;" horiz-adv-x="296" 
d="M286 672l-107 -122h-60l-109 122l19 19l119 -91l121 91z" />
    <glyph glyph-name="breve" unicode="&#x2d8;" horiz-adv-x="257" 
d="M220 697h24q3 -9 3 -27q0 -45 -30.5 -75.5t-87.5 -30.5t-88 31t-31 75q0 18 2 27h24q0 -75 92 -75t92 75z" />
    <glyph glyph-name="dotaccent" unicode="&#x2d9;" horiz-adv-x="117" 
d="M58 640q-20 0 -34 14.5t-14 35t14 34.5t34 14t34.5 -14t14.5 -34.5t-14.5 -35t-34.5 -14.5z" />
    <glyph glyph-name="ring" unicode="&#x2da;" horiz-adv-x="179" 
d="M174 615q0 -31 -24.5 -50.5t-60 -19.5t-60.5 19.5t-25 50t25 49.5t60.5 19t60 -18.5t24.5 -49.5zM62 647q-11 -11 -11 -32.5t11 -33t27.5 -11.5t27.5 11t11 33t-11 33t-27.5 11t-27.5 -11z" />
    <glyph glyph-name="ogonek" unicode="&#x2db;" horiz-adv-x="198" 
d="M77 -40q0 -23 12.5 -36.5t36.5 -13.5t57 14l5 -12q-35 -50 -90 -50q-36 0 -62 22t-26 57q0 90 118 134l21 -15q-72 -37 -72 -100z" />
    <glyph glyph-name="tilde" unicode="&#x2dc;" horiz-adv-x="293" 
d="M102 676q24 0 56.5 -24.5t47.5 -24.5q35 0 45 46h28q-15 -101 -81 -101q-26 0 -58 24.5t-47 24.5q-35 0 -45 -45h-28q15 100 82 100z" />
    <glyph glyph-name="hungarumlaut" unicode="&#x2dd;" horiz-adv-x="279" 
d="M10 560l76 161q36 -5 58 -21v-10l-109 -140zM121 561l91 156q32 -4 57 -23v-10l-125 -134z" />
    <glyph glyph-name="uni0901" unicode="&#x901;" horiz-adv-x="0" 
d="M-203 953l56 56l57 -56l-57 -56zM-153 807q83 0 146 117l49 -39q-70 -130 -171.5 -130t-201.5 141l32 23q72 -112 146 -112z" />
    <glyph glyph-name="uni0902" unicode="&#x902;" horiz-adv-x="0" 
d="M-185 853l56 56l57 -56l-57 -56z" />
    <glyph glyph-name="uni0903" unicode="&#x903;" horiz-adv-x="312" 
d="M132 399l51 51l52 -51l-52 -51zM132 132l51 51l52 -51l-52 -51z" />
    <glyph glyph-name="uni0905" unicode="&#x905;" horiz-adv-x="774" 
d="M310 85q-160 0 -267 265l37 20q97 -223 206 -223q59 0 93.5 33t34.5 83q0 72 -59 119q-42 -28 -94 -47l-37 60q166 58 166 146q0 35 -25.5 57.5t-58.5 22.5q-65 0 -128 -63l-49 49q69 77 157 77q64 0 111.5 -56.5t47.5 -119.5q0 -50 -54 -96q23 -18 57.5 -28.5
t61.5 -10.5t57 13.5t42 34.5v194h-83q-7 12 -40 60h305l40 -60h-150v-615l-72 44l6 291q-32 -23 -71.5 -23t-103.5 27q31 -45 31 -105t-42.5 -104.5t-118.5 -44.5z" />
    <glyph glyph-name="uni0906" unicode="&#x906;" horiz-adv-x="995" 
d="M892 615v-615l-71 51v564h-172v-615l-72 44l6 291q-32 -23 -71.5 -23t-103.5 27q31 -45 31 -105t-42.5 -104.5t-118.5 -44.5q-160 0 -267 265l37 20q97 -223 206 -223q59 0 93.5 33t34.5 83q0 72 -59 119q-42 -28 -94 -47l-37 60q166 58 166 146q0 35 -25.5 57.5
t-58.5 22.5q-65 0 -128 -63l-49 49q69 77 157 77q64 0 111.5 -56.5t47.5 -119.5q0 -50 -54 -96q23 -18 57.5 -28.5t61.5 -10.5t57 13.5t42 34.5v194h-83q-7 12 -40 60h552l36 -60h-150z" />
    <glyph glyph-name="uni0907" unicode="&#x907;" horiz-adv-x="544" 
d="M436 271q43 -48 43 -94.5t-35.5 -83t-82.5 -55t-93 -20.5l141 -146l-47 -32l-150 182q-53 14 -96.5 49.5t-43.5 68.5q0 15 15 25.5t35 10.5q28 0 102 -99q9 -1 17 -1q53 0 114 31q71 36 71 92q0 25 -16.5 42t-37 17t-71 -19t-82.5 -19q-48 0 -97 55t-49 111.5t37 87.5
t91 31h157v110h-362l-42 60h602l40 -60h-167v-177h-209q-38 0 -66 -20.5t-28 -56.5t18.5 -58t46 -22t79 19t71.5 19q52 0 95 -48z" />
    <glyph glyph-name="uni0908" unicode="&#x908;" horiz-adv-x="544" 
d="M460 881q-43 0 -71 -25t-28 -81.5t51 -99.5h141l39 -60h-167v-177h-208q-39 0 -66.5 -20.5t-27.5 -56.5t18 -58t45.5 -22t79 19t72.5 19q52 0 94.5 -48t42.5 -94.5t-35 -83t-82 -55t-93 -20.5l141 -146l-47 -32l-151 182q-52 14 -95.5 49.5t-43.5 68.5q0 15 15 25.5
t34 10.5q29 0 103 -99q9 -1 17 -1q53 0 114 31q71 36 71 92q0 25 -16.5 42t-37.5 17t-71 -19t-82 -19q-49 0 -98 55t-49 111.5t37.5 87.5t91.5 31h157v110h-363l-41 60h408q-55 58 -55 134q0 58 35.5 90.5t86.5 32.5t94 -24l-19 -33q-21 6 -41 6z" />
    <glyph glyph-name="uni0909" unicode="&#x909;" horiz-adv-x="539" 
d="M294 143q54 0 87.5 33.5t33.5 81.5q0 77 -56 125q-49 -28 -127 -41l-37 61q193 33 193 130q0 24 -13.5 47.5t-35.5 34.5h-366l-41 60h626l41 -60h-198q43 -47 43 -105.5t-49 -101.5q77 -74 77 -175q0 -63 -42 -108t-115 -45q-51 0 -96.5 25.5t-78.5 68.5q-62 79 -100 173
l38 21q91 -225 216 -225z" />
    <glyph glyph-name="uni090A" unicode="&#x90a;" horiz-adv-x="729" 
d="M703 264q0 -100 -140 -157l-41 54q127 41 127 132q0 39 -26 69.5t-62 30.5q-65 0 -121 -69q22 -41 22 -97.5t-43 -101.5t-118 -45q-41 0 -79.5 19.5t-66.5 47.5t-53 67q-39 59 -70 134l36 20q90 -225 208 -225q58 0 93.5 32.5t35.5 82.5q0 76 -54 124q-46 -26 -113 -39
l-37 61q178 30 178 129q0 24 -14 47.5t-36 34.5h-338l-41 60h796l41 -60h-395q43 -47 43 -106.5t-48 -101.5q0 -1 17 -18q71 65 133 65t114 -62t52 -128z" />
    <glyph glyph-name="uni090B" unicode="&#x90b;" horiz-adv-x="894" 
d="M506 615v-232q17 -8 53.5 -8t80.5 23q-20 40 -20 62t18.5 38t45.5 16t52.5 -31t25.5 -61t-46 -58l64 -102l-107 -93q-30 -27 -30 -51t20.5 -41.5t48.5 -17.5q73 0 131 93l39 -41q-13 -36 -49 -69.5t-86.5 -33.5t-110.5 39.5t-60 92.5q0 38 35 64l101 82l-34 58
q-39 -18 -87 -18t-85 17v-343l-71 47v258l-246 -203l-52 42l267 212q-75 102 -146.5 102t-147.5 -55l-46 55q73 56 156 56q106 0 215 -137v238h-431l-41 60h930l40 -60h-427z" />
    <glyph glyph-name="uni090C" unicode="&#x90c;" horiz-adv-x="770" 
d="M536 410q-57 0 -82.5 -37t-25.5 -87t13 -106l-62 19q-20 48 -20 97.5t14 81.5q-36 34 -86.5 34t-83.5 -35t-33 -98.5t46 -126t121 -126.5l-37 -26q-195 167 -195 313q0 69 46.5 115t114.5 46q37 0 71 -17t56 -41q39 56 111 56q55 0 100 -30v173h-623l-40 60h850l40 -60
h-155v-535q-61 -16 -109 -43.5t-48 -61t22.5 -48t52.5 -14.5q67 0 137 59l47 -42q-25 -26 -71.5 -49t-86.5 -23q-60 0 -109.5 42.5t-49.5 101.5q0 25 20 48t42 36.5t49.5 27t31.5 16.5v269q-33 11 -68 11z" />
    <glyph glyph-name="uni090D" unicode="&#x90d;" horiz-adv-x="571" 
d="M173 318l1 -29q0 -6 2.5 -11.5t3 -9t5 -8t5.5 -7t7.5 -8t9 -7.5t12 -9t13.5 -10l201 -148q53 -38 53 -91q0 -41 -35 -78l-58 44q27 29 27 56t-83 89q-157 116 -212 158q-16 12 -20 25.5t-4 40.5v300h-120l-39 60h656l38 -60h-152v-207q0 -57 -20 -93.5t-65 -66.5l-51 52
q34 23 49 48t15 67v200h-239v-297zM121 919q64 -112 146.5 -112t145.5 117l49 -39q-70 -130 -170 -130q-121 0 -203 141z" />
    <glyph glyph-name="uni090E" unicode="&#x90e;" horiz-adv-x="571" 
d="M173 318l1 -29q0 -6 2.5 -11.5t3 -9t5 -8t5.5 -7t7.5 -8t9 -7.5t12 -9t13.5 -10l201 -148q53 -38 53 -91q0 -41 -35 -78l-58 44q27 29 27 56t-83 89q-157 116 -212 158q-16 12 -20 25.5t-4 40.5v300h-120l-39 60h482q-40 89 -132 89h-46q-100 0 -146 61q-19 26 -38 72
l32 25l10 -19q19 -39 28.5 -46t20 -13.5t22.5 -9.5q28 -7 66 -7h42q136 0 190 -152h125l38 -60h-152v-207q0 -57 -20 -93.5t-65 -66.5l-51 52q34 23 49 48t15 67v200h-239v-297z" />
    <glyph glyph-name="uni090F" unicode="&#x90f;" horiz-adv-x="569" 
d="M482 615v-207q0 -57 -20 -93.5t-65 -66.5l-52 52q35 23 50 48t15 67v200h-240v-315q0 -7 2 -14t2.5 -11t4.5 -10t5.5 -8.5t8.5 -8.5t9.5 -8t12.5 -9.5t15 -11.5l200 -148q54 -38 54 -91q0 -41 -35 -78l-58 44q26 28 26 55.5t-82 89.5q-163 120 -213 158q-15 12 -19 25.5
t-4 40.5v300h-120l-39 60h655l39 -60h-152z" />
    <glyph glyph-name="uni0910" unicode="&#x910;" horiz-adv-x="571" 
d="M173 318l1 -29q0 -6 2.5 -11.5t3 -9t5 -8t5.5 -7t7.5 -8t9 -7.5t12 -9t13.5 -10l201 -148q53 -38 53 -91q0 -41 -35 -78l-58 44q27 29 27 56t-83 89q-157 116 -212 158q-16 12 -20 25.5t-4 40.5v300h-120l-39 60h484q-89 172 -176 172q-21 0 -54 -14l-38 60q32 20 69 20
t71.5 -17t58 -38.5t48.5 -59.5q33 -49 68 -123h125l38 -60h-152v-207q0 -57 -20 -93.5t-65 -66.5l-51 52q34 23 49 48t15 67v200h-239v-297z" />
    <glyph glyph-name="uni0911" unicode="&#x911;" horiz-adv-x="1029" 
d="M922 615v-615l-72 51v564h-144v-615l-71 44l5 291q-32 -23 -71 -23t-103 27q30 -46 30 -105.5t-42 -104t-118 -44.5q-51 0 -96.5 27t-78.5 72q-59 80 -92 166l36 20q97 -223 206 -223q60 0 94 33t34 83q0 71 -58 119q-44 -28 -95 -47l-37 60q167 59 167 146
q0 35 -26 57.5t-58 22.5q-66 0 -129 -63l-48 49q67 77 157 77q63 0 110.5 -56.5t47.5 -119.5q0 -49 -53 -96q23 -18 57 -28.5t61 -10.5t57.5 13.5t42.5 34.5v194h-83q-5 8 -41 60h548l37 -60h-174zM797 807q82 0 145 117l50 -39q-70 -130 -171 -130q-65 0 -116 40.5
t-86 100.5l32 23q64 -112 146 -112z" />
    <glyph glyph-name="uni0912" unicode="&#x912;" horiz-adv-x="1029" 
d="M924 615v-615l-72 51v564h-146v-615l-71 44l5 291q-32 -23 -71 -23t-103 27q30 -46 30 -105.5t-42 -104t-118 -44.5q-51 0 -96.5 27t-78.5 72q-59 80 -92 166l36 20q97 -223 206 -223q60 0 94 33t34 83q0 71 -58 119q-44 -28 -95 -47l-37 60q167 59 167 146
q0 35 -26 57.5t-58 22.5q-66 0 -129 -63l-48 49q67 77 157 77q63 0 110.5 -56.5t47.5 -119.5q0 -49 -53 -96q23 -18 57 -28.5t61 -10.5t57.5 13.5t42.5 34.5v194h-83q-5 8 -41 60h352q-40 89 -132 89h-46q-100 0 -145 61q-20 26 -39 72l32 25l9 -19q20 -39 29.5 -46
t20 -13.5t22.5 -9.5q28 -7 66 -7h42q136 0 190 -152h149l37 -60h-174z" />
    <glyph glyph-name="uni0913" unicode="&#x913;" horiz-adv-x="1029" 
d="M599 893q32 20 69 20t71.5 -17t58 -38.5t48.5 -59.5q33 -49 68 -123h147l37 -60h-174v-615l-72 51v564h-146v-615l-71 44l5 291q-32 -23 -71 -23t-103 27q30 -46 30 -105.5t-42 -104t-118 -44.5q-51 0 -96.5 27t-78.5 72q-59 80 -92 166l36 20q97 -223 206 -223
q60 0 94 33t34 83q0 71 -58 119q-44 -28 -95 -47l-37 60q167 59 167 146q0 35 -26 57.5t-58 22.5q-66 0 -129 -63l-48 49q67 77 157 77q63 0 110.5 -56.5t47.5 -119.5q0 -49 -53 -96q23 -18 57 -28.5t61 -10.5t57.5 13.5t42.5 34.5v194h-83q-5 8 -41 60h356
q-89 172 -176 172q-21 0 -54 -14z" />
    <glyph glyph-name="uni0914" unicode="&#x914;" horiz-adv-x="1049" 
d="M652 960q25 12 60 12t69.5 -24t57.5 -56.5t45 -78.5q31 -64 53 -138h144l37 -60h-174v-615l-72 51v564h-166v-615l-71 44l5 291q-32 -23 -71 -23t-103 27q30 -46 30 -105.5t-42 -104t-118 -44.5q-51 0 -96.5 27t-78.5 72q-59 80 -92 166l36 20q97 -223 206 -223
q60 0 94 33t34 83q0 71 -58 119q-44 -28 -95 -47l-37 60q167 59 167 146q0 35 -26 57.5t-58 22.5q-66 0 -129 -63l-48 49q67 77 157 77q63 0 110.5 -56.5t47.5 -119.5q0 -49 -53 -96q23 -18 57 -28.5t61 -10.5t57.5 13.5t42.5 34.5v194h-83q-5 8 -41 60h350q-32 43 -76.5 70
t-81 27t-71.5 -15l-43 54q35 21 87.5 21t114 -40t101.5 -97q-3 7 -15.5 37.5t-18.5 43t-19 38.5t-23.5 38.5t-25.5 27.5q-28 29 -68 29q-21 0 -42 -7z" />
    <glyph glyph-name="uni0915" unicode="&#x915;" horiz-adv-x="801" 
d="M252 140q-73 0 -139 72t-66 145.5t44.5 112t106.5 38.5q38 0 71 -13l22 -63q-29 11 -61 11q-51 0 -85.5 -30.5t-34.5 -83.5t35.5 -89t83.5 -36q87 0 142 107v304h-391l-40 60h881l40 -60h-418q0 -3 -3 -88t-3 -89q20 29 52.5 48.5t66.5 19.5q80 0 141 -75t61 -156
q0 -62 -41 -99t-105 -37q-34 0 -70 11l-21 64q39 -11 79 -11t70 24.5t30 76.5t-31 94t-87 42q-84 0 -139 -109v-331l-72 48l6 167q-52 -75 -125 -75z" />
    <glyph glyph-name="uni0916" unicode="&#x916;" horiz-adv-x="795" 
d="M136 333q48 0 48 51v231h-204l-40 60h875l40 -60h-154v-615l-71 50l6 116q-26 -43 -86 -84t-122.5 -41t-112 19t-85.5 46t-74 71.5t-61 78.5t-53 84l29 27q34 -34 65 -34zM253 365q0 -42 -27 -71t-76 -34q39 -62 105.5 -110.5t139.5 -48.5q107 0 172 83q-92 1 -155 47.5
t-63 131.5q0 56 38.5 94t97.5 38q92 0 143 -70l1 190h-376v-250zM600 224q34 37 34 93t-37 90.5t-82.5 34.5t-74.5 -27t-29 -73t31 -74q50 -45 133 -45q12 0 25 1z" />
    <glyph glyph-name="uni0917" unicode="&#x917;" horiz-adv-x="532" 
d="M438 615v-615l-71 52v563h-175v-321q0 -28 -5.5 -41t-21.5 -13q-30 0 -70 44t-40 76q0 28 66 28v227h-141l-41 60h613l41 -60h-155z" />
    <glyph glyph-name="uni0918" unicode="&#x918;" horiz-adv-x="618" 
d="M258 366q-127 0 -127 -84q0 -46 41 -77.5t97.5 -31.5t104.5 35.5t79 81.5v325h-242q-32 -9 -56 -37t-24 -69.5t52 -84.5q30 6 64 6t64 -6l22 -66q-36 8 -75 8zM458 196q-70 -83 -156.5 -83t-160.5 61.5t-74 134t73 103.5q-36 22 -55.5 55t-19.5 61t12 52t35 37l-75 -2
h-57l-40 60h698l41 -60h-154v-615l-72 48z" />
    <glyph glyph-name="uni0919" unicode="&#x919;" horiz-adv-x="599" 
d="M169 110.5q50 -35.5 110.5 -35.5t106 36.5t45.5 85.5q0 24 -15 42t-37 18t-72 -20t-79 -20q-50 0 -97.5 53t-47.5 111.5t33.5 91t92.5 32.5h153v110h-382l-41 60h680l39 -60h-226v-176h-205q-91 0 -91 -82q0 -33 19.5 -56t45 -23t79 20.5t75.5 20.5q51 0 90 -50.5
t39 -104.5t-52.5 -101t-129 -47t-142.5 44t-112 116l34 27q37 -57 87 -92.5zM479 350l55 56l58 -56l-57 -56z" />
    <glyph glyph-name="uni091A" unicode="&#x91a;" horiz-adv-x="681" 
d="M348 123q-72 0 -141 62t-69 136q0 29 19 57.5t46 40.5l-158 -3l-41 62h391l41 -62h-99q-58 -9 -96 -41.5t-38 -80t34.5 -78.5t80.5 -31q116 0 198 135v295h-536l-39 60h760l38 -60h-152v-615l-71 49l4 170q-78 -96 -172 -96z" />
    <glyph glyph-name="uni091B" unicode="&#x91b;" horiz-adv-x="698" 
d="M256 278q-105 0 -105 -77q0 -42 37 -69.5t99 -27.5q110 0 197 80q-118 100 -118 205q0 53 27 93.5t75 48.5v84h-488l-40 60h778l41 -60h-220v-92q45 -18 70 -68t25 -104q0 -95 -66 -177q35 -26 125 -83l-35 -41q-54 37 -121 89q-95 -92 -215 -92q-96 0 -166.5 55.5
t-70.5 136.5q0 51 47 78q-76 59 -76 117.5t43.5 86.5t111.5 28q37 0 77 -8l23 -64q-39 6 -75 6q-112 0 -112 -74q0 -35 51 -75q35 8 66 8t59 -5l25 -66q-35 7 -69 7zM426 357q0 -71 87 -142q67 74 67 171q0 40 -15 67t-52 27t-62 -37t-25 -86z" />
    <glyph glyph-name="uni091C" unicode="&#x91c;" horiz-adv-x="719" 
d="M553 387h-214q77 -69 77 -159q0 -52 -33 -87t-82.5 -35t-86.5 21.5t-62.5 50.5t-49.5 76q-33 64 -68 162l40 24q39 -125 70 -176q42 -66 76 -84q23 -12 56.5 -12t57.5 23.5t24 57t-9.5 57.5t-32.5 52q-29 34 -78 83l6 10h309v164h-573l-40 60h799l40 -60h-154v-615
l-72 49v338z" />
    <glyph glyph-name="uni091D" unicode="&#x91d;" horiz-adv-x="749" 
d="M504 265q-30 0 -70 11q33 -41 33 -83.5t-35 -78.5q-66 -69 -172 -76l143 -148l-47 -32l-154 185q-53 14 -95.5 49t-42.5 69q0 15 15 25.5t35 10.5q26 0 102 -99h11q63 0 125.5 31.5t62.5 88.5q0 25 -17 41.5t-39 16.5t-71.5 -18.5t-76.5 -18.5q-48 0 -97 54t-49 109.5
t36.5 86t92.5 30.5h152v96h-366l-41 60h830l40 -60h-153v-615l-71 49l4 246q-36 -30 -85 -30zM584 615h-167v-160h-204q-39 0 -67 -20t-28 -56t19 -58t46 -22t78 19t69 19t63 -10.5t76 -10.5q72 0 115 58v241z" />
    <glyph glyph-name="uni091E" unicode="&#x91e;" horiz-adv-x="750" 
d="M262 208q64 0 103 35.5t39 100.5q0 43 -29 72.5t-79 29.5q-27 0 -54.5 -14.5t-41.5 -32.5l-49 53q57 57 119 57q121 0 185 -154q22 -12 43 -12q51 0 87 51v221h-605l-41 60h831l40 -60h-154v-615l-72 62l5 246q-35 -26 -65.5 -26t-62.5 23q-7 -74 -54.5 -115.5
t-113.5 -41.5q-84 0 -160 74q-55 55 -117 140l31 28q69 -99 118.5 -140.5t96.5 -41.5z" />
    <glyph glyph-name="uni091F" unicode="&#x91f;" horiz-adv-x="514" 
d="M420 615v-191h-147q-59 0 -105.5 -35.5t-46.5 -107t50.5 -115t119.5 -43.5q89 0 151 65l44 -57q-27 -31 -70 -52t-94 -21q-97 0 -181 78t-84 175q0 76 48 126.5t137 50.5h106v127h-368l-40 60h594l40 -60h-154z" />
    <glyph glyph-name="uni0920" unicode="&#x920;" horiz-adv-x="577" 
d="M417 615v-174q111 -71 111 -189q0 -84 -55 -138.5t-152 -54.5t-180 77t-83 183q0 74 47 121.5t134 47.5h106v127h-365l-40 60h657l40 -60h-220zM467 274q0 48 -28 87.5t-70 62.5h-87q-161 0 -161 -146q0 -67 52 -114t125.5 -47t121 43t47.5 114z" />
    <glyph glyph-name="uni0921" unicode="&#x921;" horiz-adv-x="525" 
d="M80 203q85 -128 198 -128q60 0 106 36.5t46 85.5q0 24 -15 42t-37 18t-72 -20t-79 -20q-50 0 -98 53t-48 111.5t34 90t93 31.5h153v112h-380l-41 60h605l40 -60h-154v-176h-205q-91 0 -91 -82q0 -33 19.5 -56.5t45 -23.5t79 20.5t75.5 20.5q51 0 89.5 -49.5t38.5 -103.5
t-52.5 -100.5t-129 -46.5t-142.5 43.5t-111 114.5z" />
    <glyph glyph-name="uni0922" unicode="&#x922;" horiz-adv-x="527" 
d="M417 615v-187h-136q-164 0 -164 -147q0 -66 51 -114t122 -50q-41 44 -41 96t31 86t81 34t91.5 -39.5t41.5 -97.5t-53.5 -97t-118.5 -39q-103 0 -184.5 76.5t-81.5 186.5q0 72 46.5 120.5t132.5 48.5h110v123h-358l-41 60h601l40 -60h-170zM327 252.5q-22 -25.5 -22 -64
t27 -67.5q44 7 76 34.5t32 69.5q0 24 -14.5 38.5t-45.5 14.5t-53 -25.5z" />
    <glyph glyph-name="uni0923" unicode="&#x923;" horiz-adv-x="726" 
d="M632 615v-615l-71 49v566h-162v-272q0 -60 -35.5 -98t-95.5 -38t-129 59t-69 150v199h-90l-40 60h806l41 -60h-155zM241 264q88 0 88 110v241h-190v-221q0 -60 26.5 -95t75.5 -35z" />
    <glyph glyph-name="uni0924" unicode="&#x924;" horiz-adv-x="553" 
d="M460 615v-615l-71 48v333h-147q-58 0 -89.5 -31t-31.5 -86q0 -97 107 -239l-35 -25q-134 173 -134 303q0 67 42.5 105t121.5 38h166v169h-409l-40 60h633l41 -60h-154z" />
    <glyph glyph-name="uni0925" unicode="&#x925;" horiz-adv-x="646" 
d="M242 387.5q-39 -22.5 -43.5 -25.5l-10.5 -7l-12 -8q-17 -13 -17 -32q0 -38 38.5 -65t87 -27t107.5 42t89 86v264h-76l-40 60h301l40 -60h-154v-615l-71 49l4 207q-38 -44 -86 -68.5t-88 -24.5q-80 0 -152 63.5t-72 128.5q0 19 22 33q9 5 53 29t72 41t54.5 45.5t26.5 55.5
t-21.5 49t-55 22t-57.5 -21t-24 -53t33 -60l-30 -23q-60 54 -60 110q0 40 33 70t80 30q62 0 110.5 -50.5t48.5 -99.5t-45.5 -86t-84.5 -59.5z" />
    <glyph glyph-name="uni0926" unicode="&#x926;" horiz-adv-x="542" 
d="M418 426h-136q-162 0 -162 -139q0 -61 46.5 -106.5t103.5 -45.5q26 0 47.5 7t30.5 14l8 7q-29 43 -29 69t21.5 44t49 18t52.5 -33t25 -65t-44 -69l104 -123l-44 -32l-94 132q-49 -29 -99 -29q-81 0 -154 68q-39 35 -63 83t-24 97q0 72 48.5 119.5t135.5 47.5h105v125
h-366l-38 60h620l38 -60h-182v-189z" />
    <glyph glyph-name="uni0927" unicode="&#x927;" horiz-adv-x="603" 
d="M510 615v-615l-72 48l3 150q-32 -32 -73 -52.5t-77 -20.5q-82 0 -150.5 60t-68.5 133.5t73 101.5q-77 51 -77 113q0 28 14 50t31 33l-105 -1h-28l-40 60h302l40 -60h-64q-36 -9 -59.5 -36.5t-23 -66.5t55.5 -80q15 3 41 3t68 -7l23 -68q-49 9 -84 9t-68.5 -19
t-33.5 -63.5t33.5 -72.5t88.5 -28q102 0 179 107v322h-51l-40 60h276l40 -60h-153z" />
    <glyph glyph-name="uni0928" unicode="&#x928;" horiz-adv-x="538" 
d="M374 343h-191v-92q0 -26 -23 -26q-31 0 -72 52t-41 92t54 40h273v206h-394l-40 60h618l41 -60h-155v-615l-70 48v295z" />
    <glyph glyph-name="uni0928093C" unicode="&#x929;" horiz-adv-x="549" 
d="M412 343h-191v-92q0 -26 -23 -26q-31 0 -72 52t-41 92t53 40h274v206h-385l-41 60h610l41 -60h-155v-615l-70 48v295zM252 48l-63 -63l-64 63l62 63z" />
    <glyph glyph-name="uni092A" unicode="&#x92a;" horiz-adv-x="542" 
d="M448 615v-615l-71 48l7 223q-55 -50 -113 -50t-124.5 65t-66.5 139v190h-100l-41 60h623l40 -60h-154zM179 312.5q28 -29.5 67.5 -29.5t76 24t54.5 56v252h-226v-225q0 -48 28 -77.5z" />
    <glyph glyph-name="uni092B" unicode="&#x92b;" horiz-adv-x="807" 
d="M367 274q-48 -42 -105.5 -42t-121.5 67.5t-64 142.5v173h-96l-40 60h887l40 -60h-432l-3 -194q50 52 122 52t137.5 -69t65.5 -142t-44.5 -113.5t-114.5 -40.5q-16 0 -52 6l-23 65q26 -7 57 -7q53 0 85.5 28t32.5 80.5t-33 91t-83 38.5q-99 0 -147 -92v-318l-73 49z
M237 296q73 0 127 72v247h-217v-212q0 -46 25 -76.5t65 -30.5z" />
    <glyph glyph-name="uni092C" unicode="&#x92c;" horiz-adv-x="576" 
d="M483 615v-615l-72 62l4 173q-28 -35 -72 -63t-85 -28q-79 0 -146.5 63.5t-67.5 142.5t52.5 128.5t117.5 49.5q80 0 148 -71l-24 -33q-43 45 -91.5 45t-82.5 -25l179 -192q39 35 68 80v283h-431l-41 60h657l41 -60h-154zM232 199q37 0 82 31l-178 190q-33 -40 -33 -92
t37.5 -90.5t91.5 -38.5z" />
    <glyph glyph-name="uni092D" unicode="&#x92d;" horiz-adv-x="565" 
d="M472 615v-615l-72 51v241h-208v-71q0 -26 -23 -26q-31 0 -74 45t-43 81q0 20 14.5 28.5t55.5 8.5v177q0 35 -19 57.5t-52 22.5h-71l-40 60h78q55 0 95 -35l33 -29q46 -45 46 -106v-147h208v257h-125l-41 60h351l41 -60h-154z" />
    <glyph glyph-name="uni092E" unicode="&#x92e;" horiz-adv-x="586" 
d="M105 357h17v258h-142l-39 60h665l40 -60h-154v-615l-71 51v240h-228v-71q0 -25 -23 -25q-32 0 -75 44.5t-43 81t53 36.5zM193 615v-258h228v258h-228z" />
    <glyph glyph-name="uni092F" unicode="&#x92f;" horiz-adv-x="604" 
d="M510 615v-615l-72 51l2 196q-69 -81 -148.5 -81t-156.5 72.5t-77 137.5q0 17 19 26q86 43 116.5 70.5t30.5 50t-19.5 49t-51.5 43.5h-173l-40 60h684l40 -60h-154zM175.5 259.5q42.5 -30.5 94.5 -30.5t97 35t72 85v266h-221q36 -24 54 -58.5t18 -53t-3 -28.5t-10.5 -20
t-13.5 -17t-20 -16.5t-22 -14.5t-26 -16.5t-22.5 -14.5t-13 -8.5t-11 -8t-6.5 -7.5q-9 -11 -9 -24q0 -38 42.5 -68.5z" />
    <glyph glyph-name="uni0930" unicode="&#x930;" horiz-adv-x="395" 
d="M268 615v-256q0 -35 -23.5 -61t-73.5 -32q54 -81 199 -235l-52 -32q-197 241 -264 342l36 32q36 -36 64 -36q44 0 44 51v227h-218l-40 60h475l40 -60h-187z" />
    <glyph glyph-name="uni0930093C" unicode="&#x931;" horiz-adv-x="395" 
d="M268 615v-256q0 -35 -23.5 -61t-73.5 -32q54 -81 199 -235l-52 -32q-197 241 -264 342l36 32q36 -36 64 -36q44 0 44 51v227h-218l-40 60h475l40 -60h-187zM63 25l55 56l58 -56l-57 -56z" />
    <glyph glyph-name="uni0932" unicode="&#x932;" horiz-adv-x="727" 
d="M336 199q-20 48 -20 97.5t14 81.5q-36 34 -86.5 34t-83 -35t-32.5 -94q0 -116 166 -257l-37 -26q-195 167 -195 313q0 69 46.5 115t114.5 46q37 0 71 -17t56 -41q39 56 111 56q55 0 100 -30v173h-581l-40 60h807l40 -60h-154v-615l-72 51v348q-33 11 -67 11
q-58 0 -83.5 -37t-25.5 -87t13 -106z" />
    <glyph glyph-name="uni0933" unicode="&#x933;" horiz-adv-x="748" 
d="M374 196q-52 -82 -123 -82t-128.5 66.5t-57.5 139.5t51 128.5t124 55.5q45 0 82.5 -20t82.5 -65q46 75 104 84v112h-529l-40 60h828l40 -60h-228v-123q54 -22 92 -78.5t38 -113.5q0 -78 -49 -131.5t-119 -53.5q-38 0 -83.5 21t-84.5 60zM267 444q-62 0 -101.5 -44.5
t-39.5 -102t30.5 -91t71.5 -33.5q45 0 76 43q26 34 49 90t33 76q-33 31 -59.5 46.5t-59.5 15.5zM394 232q66 -59 124 -59t96 44t38 101.5t-30.5 91.5t-71 34t-68 -36t-54 -99t-34.5 -77z" />
    <glyph glyph-name="uni0933093C" unicode="&#x934;" horiz-adv-x="748" 
d="M374 196q-52 -82 -123 -82t-128.5 66.5t-57.5 139.5t51 128.5t124 55.5q45 0 82.5 -20t82.5 -65q46 75 104 84v112h-529l-40 60h828l40 -60h-228v-123q54 -22 92 -78.5t38 -113.5q0 -78 -49 -131.5t-119 -53.5q-38 0 -83.5 21t-84.5 60zM267 444q-62 0 -101.5 -44.5
t-39.5 -102t30.5 -91t71.5 -33.5q45 0 76 43q26 34 49 90t33 76q-33 31 -59.5 46.5t-59.5 15.5zM394 232q66 -59 124 -59t96 44t38 101.5t-30.5 91.5t-71 34t-68 -36t-54 -99t-34.5 -77zM483 -21l55 56l58 -56l-57 -56z" />
    <glyph glyph-name="uni0935" unicode="&#x935;" horiz-adv-x="572" 
d="M479 615v-615l-72 61l4 167q-29 -33 -71.5 -57t-80.5 -24q-78 0 -144 62.5t-66 143t50 129t122.5 48.5t143.5 -74l-22 -34q-41 45 -99.5 45t-96 -43t-37.5 -94.5t32.5 -87.5t88.5 -36q37 0 84.5 32t91.5 91v286h-427l-41 60h653l41 -60h-154z" />
    <glyph glyph-name="uni0936" unicode="&#x936;" horiz-adv-x="707" 
d="M206 318q73 0 118.5 46t45.5 125q0 56 -26.5 94t-67 38t-66 -25.5t-25.5 -62t22 -61t59 -36.5l-21 -34q-48 19 -86 60t-38 92.5t35.5 89t88.5 37.5q76 0 129.5 -69.5t53.5 -147.5q0 -99 -60.5 -155t-142.5 -56q-12 0 -25 1q44 -61 199 -221l-49 -33q-201 231 -282 341
l30 26q51 -49 108 -49zM614 615v-615l-72 49v566h-77l-37 60h299l39 -60h-152z" />
    <glyph glyph-name="uni0937" unicode="&#x937;" horiz-adv-x="550" 
d="M456 615v-615l-72 51l4 210q-54 -47 -114 -47t-127 66.5t-68 141.5v193h-98l-40 60h629l39 -60h-153zM249 274q70 0 121 56l-220 232v-176q0 -49 30 -80.5t69 -31.5zM384 615h-231l231 -248v248z" />
    <glyph glyph-name="uni0938" unicode="&#x938;" horiz-adv-x="652" 
d="M403 270q-81 0 -163 65q-13 -62 -91 -69q55 -82 196 -234l-52 -32q-187 227 -263 341l35 32q38 -36 65 -36q44 0 44 51v227h-192l-40 60h730l41 -60h-154v-615l-70 51l2 250q-40 -31 -88 -31zM244 615v-227q61 -52 122 -52q80 0 123 48v231h-245z" />
    <glyph glyph-name="uni0939" unicode="&#x939;" horiz-adv-x="503" 
d="M370 138q22 31 22 59.5t-23 48t-65 19.5q-63 0 -110.5 -39.5t-47.5 -97.5q0 -47 40 -92q58 -64 146 -111q47 -25 48 -26l-40 -28q-3 2 -24.5 14.5t-33 20t-35.5 24t-39.5 29.5t-37 31.5t-35.5 36t-27 37.5q-26 42 -26 87q0 73 62 127q-75 70 -75 136q0 41 28 63.5
t78 22.5h164v115h-356l-40 60h580l40 -60h-153v-178h-172q-49 0 -73.5 -11t-24.5 -47.5t39 -77.5q47 25 90 25q82 0 130.5 -51.5t48.5 -113.5q0 -36 -24.5 -69t-65.5 -54l-48 52q38 17 60 48z" />
    <glyph glyph-name="uni093C" unicode="&#x93c;" horiz-adv-x="0" 
d="M-467 -10l55 56l58 -56l-57 -56z" />
    <glyph glyph-name="uni093D" unicode="&#x93d;" horiz-adv-x="608" 
d="M486 173q0 -63 -44.5 -110t-127 -47t-154.5 54t-110 111l34 31q31 -47 88.5 -91t122.5 -44t95 30.5t30 76.5q0 61 -70 128l-150 145q-73 70 -73 138q0 35 27 57t80 22h223l52 -59h-245q-27 0 -43 -14.5t-16 -39.5q0 -42 66 -102l111 -102q47 -43 75.5 -93t28.5 -91z" />
    <glyph glyph-name="uni093E" unicode="&#x93e;" 
d="M165 615v-615l-71 51v564h-115l-36 60h336l36 -60h-150z" />
    <glyph glyph-name="uni093F" unicode="&#x93f;" 
d="M94 615h-138l-39 60h182q-44 40 -44 95.5t31 87.5q55 54 171 54t234.5 -49.5t210.5 -128.5l-28 -24q-196 141 -393 141q-164 0 -164 -103q0 -21 15 -44.5t29 -28.5h142l39 -60h-177v-615l-71 49v566z" />
    <glyph glyph-name="uni0940" unicode="&#x940;" 
d="M165 615v-615l-71 62v553h-138l-42 60h184q-67 141 -126 173q-29 16 -62.5 16t-55.5 -17t-22 -53.5t35 -55.5l-33 -20q-25 13 -44 40t-19 60q0 49 33 76.5t81 27.5t88.5 -21.5t72.5 -62.5q55 -69 98 -163h159l41 -60h-179z" />
    <glyph glyph-name="uni0941" unicode="&#x941;" horiz-adv-x="0" 
d="M-216.5 26.5q25.5 27.5 70.5 27.5t85 -42q45 -45 45 -93t-38.5 -84.5t-105.5 -36.5t-135 42.5t-118 108.5l32 25q100 -119 200 -119q47 0 78.5 26t31.5 57t-15.5 46t-41 15t-42 -22t-19.5 -55l-55 33q2 44 27.5 71.5z" />
    <glyph glyph-name="uni0942" unicode="&#x942;" horiz-adv-x="0" 
d="M-208.5 -28q-28.5 -21 -28.5 -55q0 -65 56 -65q53 0 63 70l57 -36q-6 -39 -31 -65.5t-63 -26.5q-54 0 -99 47t-45 97.5t38 83.5t92 33q140 0 277 -209l-31 -27q-54 81 -112.5 127.5t-111.5 46.5q-33 0 -61.5 -21z" />
    <glyph glyph-name="uni0943" unicode="&#x943;" horiz-adv-x="0" 
d="M-242 -108q0 -28 24.5 -47t56.5 -19q68 0 124 60l50 -43q-25 -27 -66 -50t-84 -23q-61 0 -112 46t-51 106q0 41 41 72q34 27 62.5 41t31.5 16l71 -48v-3q-59 -14 -103.5 -41t-44.5 -67z" />
    <glyph glyph-name="uni0945" unicode="&#x945;" horiz-adv-x="0" 
d="M-305 919q67 -112 148 -112t144 117l49 -39q-70 -130 -170 -130q-120 0 -202 141z" />
    <glyph glyph-name="uni0946" unicode="&#x946;" horiz-adv-x="0" 
d="M-288 764h-46q-91 0 -131 40q-21 22 -32 41t-24 52l32 25q31 -69 57 -80q37 -15 93 -15h42q80 0 124 -43q35 -33 51 -80q13 -36 13 -41l-39 -19q-7 29 -21.5 55t-23.5 33t-22 16q-23 16 -73 16z" />
    <glyph glyph-name="uni0947" unicode="&#x947;" horiz-adv-x="0" 
d="M-431 893q32 20 74 20t82 -21.5t74.5 -70.5t47.5 -73t28 -55.5t17 -33.5q2 -4 5 -12l-37 -17q-77 158 -138 198q-29 19 -56 19t-58 -14z" />
    <glyph glyph-name="uni0948" unicode="&#x948;" horiz-adv-x="0" 
d="M-387 960q27 12 58 12t59 -15t48 -34.5t40.5 -54t32 -58t25.5 -63.5q18 -53 30 -96l-54 -19q-28 54 -82.5 97t-114.5 43q-26 0 -61 -15l-43 54q35 21 79 21q64 0 130.5 -46t103.5 -111q-87 234 -180 234q-22 0 -42 -7z" />
    <glyph glyph-name="uni0949" unicode="&#x949;" horiz-adv-x="289" 
d="M184 615v-615l-72 51v564h-139l-36 60h384l37 -60h-174zM114 807q83 0 146 117l49 -39q-70 -130 -171.5 -130t-201.5 141l32 23q72 -112 146 -112z" />
    <glyph glyph-name="uni094A" unicode="&#x94a;" horiz-adv-x="289" 
d="M184 615v-615l-72 51v564h-139l-36 60h182q-42 89 -133 89h-46q-100 0 -146 61q-19 26 -38 72l33 25q2 -4 9 -18.5t9.5 -19t10 -15.5t13 -14.5t16.5 -11t23 -9.5q40 -7 65 -7h42q138 0 190 -152h154l37 -60h-174z" />
    <glyph glyph-name="uni094B" unicode="&#x94b;" horiz-adv-x="263" 
d="M168 615v-615l-71 51v564h-139l-37 60h178q-87 172 -176 172q-22 0 -53 -14l-39 60q32 20 69 20t71.5 -16.5t58.5 -39t48 -59.5q35 -50 68 -123h160l36 -60h-174z" />
    <glyph glyph-name="uni094C" unicode="&#x94c;" horiz-adv-x="263" 
d="M168 615v-615l-71 51v564h-115l-36 60h137q-32 43 -76.5 70t-81 27t-71.5 -15l-43 54q35 21 89 21t121 -46t104 -111q-39 103 -59 133t-39 54q-37 47 -83 47q-21 0 -41 -7l-29 58q27 12 59 12q140 0 226 -297h123l36 -60h-150z" />
    <glyph glyph-name="uni094D" unicode="&#x94d;" horiz-adv-x="0" 
d="M-247 -71q33 20 59 20t41.5 -3.5t31.5 -12t28 -15.5t27.5 -22t24 -23.5t24 -27.5t21 -26.5t21 -28t18.5 -25.5l-33 -23q-18 24 -35 47t-35 42t-32 29q-36 26 -68 26t-54 -11z" />
    <glyph glyph-name="uni0950" unicode="&#x950;" horiz-adv-x="1158" 
 />
    <glyph glyph-name="uni0951" unicode="&#x951;" horiz-adv-x="299" 
d="M179 733h-59v223h59v-223z" />
    <glyph glyph-name="uni0952" unicode="&#x952;" horiz-adv-x="0" 
d="M-92 -138v-58h-403v58h403z" />
    <glyph glyph-name="uni0953" unicode="&#x953;" horiz-adv-x="378" 
d="M296 780l-46 -36l-159 196l47 38z" />
    <glyph glyph-name="uni0954" unicode="&#x954;" horiz-adv-x="436" 
d="M151 755l-13 11l157 198l14 -13z" />
    <glyph glyph-name="uni0915093C" unicode="&#x958;" horiz-adv-x="802" 
d="M254 140q-73 0 -139 72t-66 145.5t44.5 112t106.5 38.5q38 0 71 -13l22 -63q-29 11 -61 11q-51 0 -85.5 -30.5t-34.5 -83.5t35.5 -89t83.5 -36q87 0 142 107v304h-391l-40 60h881l40 -60h-418q0 -3 -3 -88t-3 -89q20 29 52.5 48.5t66.5 19.5q80 0 141 -75t61 -156
q0 -62 -41 -99t-105 -37q-34 0 -70 11l-21 64q39 -11 79 -11t70 24.5t30 76.5t-31 94t-87 42q-84 0 -139 -109v-331l-72 48l6 167q-52 -75 -125 -75zM162 -10l55 56l58 -56l-57 -56z" />
    <glyph glyph-name="uni0916093C" unicode="&#x959;" horiz-adv-x="801" 
d="M137 333q48 0 48 51v231h-204l-40 60h875l40 -60h-154v-615l-71 50l6 116q-26 -43 -86 -84t-122.5 -41t-112 19t-85.5 46t-74 71.5t-61 78.5t-53 84l29 27q34 -34 65 -34zM254 365q0 -42 -27 -71t-76 -34q39 -62 105.5 -110.5t139.5 -48.5q107 0 172 83q-92 1 -155 47.5
t-63 131.5q0 56 38.5 94t97.5 38q92 0 143 -70l1 190h-376v-250zM601 224q34 37 34 93t-37 90.5t-82.5 34.5t-74.5 -27t-29 -73t32 -74q49 -45 132 -45q12 0 25 1zM94 -10l55 56l58 -56l-57 -56z" />
    <glyph glyph-name="uni0917093C" unicode="&#x95a;" horiz-adv-x="538" 
d="M441 615v-615l-71 52v563h-175v-321q0 -28 -5.5 -41t-21.5 -13q-30 0 -70 44t-40 76q0 28 66 28v227h-141l-41 60h613l41 -60h-155zM104 21l55 56l58 -56l-57 -56z" />
    <glyph glyph-name="uni091C093C" unicode="&#x95b;" horiz-adv-x="722" 
d="M553 387h-214q77 -69 77 -159q0 -52 -33 -87t-82.5 -35t-86.5 21.5t-62.5 50.5t-49.5 76q-33 64 -68 162l40 24q39 -125 70 -176q42 -66 76 -84q23 -12 56.5 -12t57.5 23.5t24 57t-9.5 57.5t-32.5 52q-29 34 -78 83l6 10h309v164h-573l-40 60h799l40 -60h-154v-615
l-72 49v338zM78 -8l55 56l58 -56l-57 -56z" />
    <glyph glyph-name="uni0921093C" unicode="&#x95c;" horiz-adv-x="524" 
d="M79 203q85 -128 197 -128q61 0 107 36.5t46 85.5q0 24 -15 42t-37 18t-72 -20t-79 -20q-50 0 -98 53t-48 111.5t34 90t93 31.5h153v112h-380l-41 60h605l40 -60h-154v-176h-205q-91 0 -91 -82q0 -33 19.5 -56.5t45 -23.5t79 20.5t75.5 20.5q51 0 89.5 -49.5t38.5 -103.5
t-52.5 -100.5t-129 -46.5t-142.5 43.5t-111 114.5zM249 -116l55 56l58 -56l-57 -56z" />
    <glyph glyph-name="uni0922093C" unicode="&#x95d;" horiz-adv-x="527" 
d="M417 615v-187h-136q-164 0 -164 -147q0 -66 51 -114t122 -50q-41 44 -41 96t31 86t81 34t91.5 -39.5t41.5 -97.5t-53.5 -97t-118.5 -39q-103 0 -184.5 76.5t-81.5 186.5q0 72 46.5 120.5t132.5 48.5h110v123h-358l-41 60h601l40 -60h-170zM327 252.5q-22 -25.5 -22 -64
t27 -67.5q44 7 76 34.5t32 69.5q0 24 -14.5 38.5t-45.5 14.5t-53 -25.5zM270 -81l55 56l58 -56l-57 -56z" />
    <glyph glyph-name="uni092B093C" unicode="&#x95e;" horiz-adv-x="807" 
d="M367 274q-48 -42 -105.5 -42t-121.5 67.5t-64 142.5v173h-96l-40 60h887l40 -60h-432l-3 -194q50 52 122 52t137.5 -69t65.5 -142t-44.5 -113.5t-114.5 -40.5q-16 0 -52 6l-23 65q26 -7 57 -7q53 0 85.5 28t32.5 80.5t-33 91t-83 38.5q-99 0 -147 -92v-318l-73 49z
M237 296q73 0 127 72v247h-217v-212q0 -46 25 -76.5t65 -30.5zM129 41l55 56l58 -56l-57 -56z" />
    <glyph glyph-name="uni092F093C" unicode="&#x95f;" horiz-adv-x="605" 
d="M506 615v-615l-72 51l2 196q-69 -81 -148.5 -81t-156.5 72.5t-77 137.5q0 17 19 26q86 43 116.5 70.5t30.5 50t-19.5 49t-51.5 43.5h-173l-40 60h684l40 -60h-154zM171.5 259.5q42.5 -30.5 94.5 -30.5t97 35t72 85v266h-221q36 -24 54 -58.5t18 -53t-3 -28.5t-10.5 -20
t-13.5 -17t-20 -16.5t-22 -14.5t-26 -16.5t-22.5 -14.5t-13 -8.5t-11 -8t-6.5 -7.5q-9 -11 -9 -24q0 -38 42.5 -68.5zM86 27l55 56l58 -56l-57 -56z" />
    <glyph glyph-name="uni0960" unicode="&#x960;" horiz-adv-x="843" 
d="M652 345q-38 -20 -90.5 -20t-93.5 17v-342l-71 49v252l-233 -193l-53 41l268 207q-79 101 -151 101t-144 -56l-44 55q72 58 157 58q100 0 200 -124v225h-417l-41 60h920l42 -60h-433v-233q19 -8 48 -8q59 0 97 22q-23 33 -23 59t18.5 42t45.5 16t54 -30t27 -59.5
t-46 -58.5q1 -2 25 -27.5t41 -47t33.5 -58t16.5 -76t-38.5 -74t-88.5 -34.5q-84 0 -150 65l28 29q39 -37 87.5 -37t73.5 21t25 59q0 28 -8 45l-12 23q-12 24 -30 45t-28 33t-12 14z" />
    <glyph glyph-name="uni0961" unicode="&#x961;" horiz-adv-x="728" 
d="M548 -183q-11 -15 -11 -38t23 -38t53 -15q69 0 136 60l50 -43q-24 -25 -70.5 -49t-87.5 -24q-61 0 -111 41.5t-50 100.5q0 36 36 65q-43 17 -69.5 50.5t-26.5 68t20 58.5t40.5 37t51 28t31.5 16v264q-33 11 -68 11q-58 0 -83 -36.5t-25 -87t13 -106.5l-63 19
q-19 49 -19 98t13 81q-36 34 -86 34t-83 -35t-33 -98.5t46 -126t121 -126.5l-37 -26q-195 167 -195 313q0 69 46 115t114 46q37 0 72 -17t56 -41q39 56 110 56q54 0 101 -30v173h-583l-40 60h810l40 -60h-156v-531q-85 -21 -129 -57q-28 -23 -28 -51t23 -43t54.5 -15
t64.5 20l47 -6q-1 -1 6 -9q22 -23 19 -25l-4 -5q-6 -3 -30 -12t-41 -17t-37 -20t-31 -27z" />
    <glyph glyph-name="uni0964" unicode="&#x964;" horiz-adv-x="314" 
d="M192 603v-597l-71 51v598z" />
    <glyph glyph-name="uni0965" unicode="&#x965;" horiz-adv-x="542" 
d="M192 602v-596l-71 50v599zM428 602v-596l-72 50v599z" />
    <glyph glyph-name="uni0966" unicode="&#x966;" horiz-adv-x="658" 
d="M329 607q-155 0 -155 -297q0 -101 41.5 -182t106.5 -81t110 79.5t45 211t-39.5 200.5t-108.5 69zM534 319q0 -152 -60.5 -236.5t-137.5 -84.5q-71 0 -139 68q-36 37 -59 111t-23 161t13.5 144t34.5 90.5t49 55.5q47 38 95 38t85.5 -18t70.5 -56.5t52 -108.5t19 -164z" />
    <glyph glyph-name="uni0967" unicode="&#x967;" horiz-adv-x="467" 
d="M349 -7q37 -33 37 -71.5t-41 -77.5l-56 44q29 26 29 53t-45 70l-154 149q-22 22 -22 43t37 47q4 3 40.5 27.5t51.5 36t46.5 37t45.5 43.5q41 52 41 96.5t-29.5 79.5t-78.5 35t-78 -27.5t-29 -68.5q0 -62 73 -112l-28 -28q-39 22 -75 67t-36 100t45.5 93t97.5 38
q79 0 138 -68t59 -147q0 -52 -55.5 -107t-163.5 -134q-21 -16 -21 -33.5t21 -37.5z" />
    <glyph glyph-name="uni0968" unicode="&#x968;" horiz-adv-x="525" 
d="M255 672q84 0 149 -79.5t65 -174.5q0 -67 -68 -127t-141 -82l180 -287l-48 -31l-177 307q-30 -5 -38 -5q-33 0 -62 31t-29 70q0 24 22 39.5t40.5 15.5t32 -13t21.5 -26t24 -40q80 21 133.5 71.5t53.5 113.5t-45 106t-112 43q-87 0 -174 -56l-36 60q54 31 102 47.5
t107 16.5z" />
    <glyph glyph-name="uni0969" unicode="&#x969;" horiz-adv-x="536" 
d="M108 41.5q-40 31.5 -40 60.5t17.5 50t40.5 21q33 0 94 -103q2 -2 4 -5.5t4 -6.5q69 8 124 50.5t55 108.5q0 35 -25 73t-41 45q-36 -26 -129 -59l-34 56l1 4q99 29 149.5 72t50.5 90.5t-32 78.5t-84 31q-92 0 -160 -76l-47 48q80 85 186 85q79 0 134.5 -61.5t55.5 -129.5
q0 -20 -9.5 -42t-19 -34.5t-26.5 -33.5q34 -30 62 -77t28 -99q0 -68 -61 -122t-148 -69l107 -154l-48 -32l-110 182q-59 17 -99 48.5z" />
    <glyph glyph-name="uni096A" unicode="&#x96a;" horiz-adv-x="621" 
d="M468 132q0 -50 -37 -89.5t-106 -39.5t-130.5 60t-61.5 124q0 28 11 49t38 51l77 89l-232 271l35 27l226 -265l213 263l50 -40l-213 -269l56 -67q74 -89 74 -164zM218 215q-22 -29 -22 -55.5t10 -48.5q27 -54 92 -54q48 0 77.5 27t29.5 75q0 73 -91 166l-17 -10
q-1 -1 -13.5 -16.5t-27.5 -32.5q-38 -47 -38 -51z" />
    <glyph glyph-name="uni096B" unicode="&#x96b;" horiz-adv-x="620" 
d="M313 5q-15 0 -39 6l110 -161l-41 -29l-118 201q-45 20 -82.5 49.5t-37.5 64.5q0 23 15.5 40.5t31.5 17.5t26.5 -7t21.5 -22.5t18 -26t19 -32.5t15 -27q21 -15 57.5 -15t67.5 22q68 48 68 234v20q-57 -50 -114 -50q-74 0 -142.5 66.5t-68.5 156.5q0 69 43 159l60 -37
q-45 -77 -45 -139t34 -106t90 -44q39 0 75 20.5t59 51.5q-14 149 -33 246l71 -33q26 -185 29 -234t3 -85q0 -307 -193 -307z" />
    <glyph glyph-name="uni096C" unicode="&#x96c;" horiz-adv-x="598" 
d="M429 335q-51 9 -102 9t-90 -20q-65 -35 -65 -116q0 -53 44.5 -98.5t100.5 -45.5t83 25q-23 42 -23 69t16.5 43.5t44.5 16.5t54 -33.5t26 -62.5t-41 -68l102 -156l-49 -32l-92 164q-36 -21 -81 -21q-95 0 -172 75t-77 155t68 130q-85 69 -85 161q0 58 43 96q51 47 138 47
q60 0 131 -24l18 -61l-3 -3q-75 26 -120.5 26t-72.5 -10q-71 -26 -71 -95.5t60 -116.5q49 16 98 16t95 -10l25 -56z" />
    <glyph glyph-name="uni096D" unicode="&#x96d;" horiz-adv-x="800" 
d="M342 433q0 65 47 108.5t104 43.5q96 0 168.5 -88t72.5 -195q0 -94 -66 -182q-31 -42 -79.5 -68.5t-113 -26.5t-125.5 28t-105 77.5t-78.5 110.5t-56.5 134q-43 144 -55 277l44 21q18 -227 101 -397q41 -86 105.5 -136.5t144.5 -50.5q58 0 103 23t71 60q50 73 50 157
t-41 138.5t-112 54.5q-50 0 -83 -33t-33 -93t55.5 -92.5t109.5 -32.5h13l1 -1l-25 -38q-90 4 -153.5 58.5t-63.5 142.5z" />
    <glyph glyph-name="uni096E" unicode="&#x96e;" horiz-adv-x="549" 
d="M294 -2q-84 0 -158.5 71.5t-74.5 134t44 122.5l258 347l57 -39l-255 -357q-33 -45 -33 -92t41 -86.5t101.5 -39.5t103.5 46.5t64 119.5l4 1l53 -39q-50 -135 -124 -171q-36 -18 -81 -18z" />
    <glyph glyph-name="uni096F" unicode="&#x96f;" horiz-adv-x="483" 
d="M96 340q-51 71 -51 146.5t54.5 127.5t132 52t142 -64t64.5 -130q0 -81 -66 -136t-160 -76l189 -273q22 -31 22 -63q0 -50 -67 -83l-52 40q58 32 58 67q0 22 -30 62q-10 15 -12 19zM379 500q0 43 -33.5 73t-92.5 30t-102 -41.5t-43 -109t67 -136.5q75 16 135 56
q69 46 69 128z" />
    <glyph glyph-name="uni0970" unicode="&#x970;" horiz-adv-x="509" 
d="M362 391.5q37 -36.5 37 -94t-40.5 -101t-107.5 -46.5q-61 0 -100.5 36.5t-39.5 96t41.5 102t107 43t102.5 -36zM225 189q57 0 93.5 40.5t36.5 91.5q0 30 -18.5 49t-58 19t-81 -33.5t-41.5 -91.5q0 -32 18.5 -53.5t50.5 -21.5z" />
    <glyph glyph-name="uni097D" unicode="&#x97d;" horiz-adv-x="614" 
d="M351 -12h-4l-59 45v234q0 41 27 86t59 78t59 72.5t27 71.5t-28 55t-78 23q-85 0 -138 -83l-54 52q26 38 68.5 64.5t93.5 26.5q75 0 136.5 -54t61.5 -117q0 -48 -60 -114q-26 -28 -51 -58.5t-42.5 -72.5t-17.5 -87v-222z" />
    <glyph glyph-name="uni200B" unicode="&#x200b;" horiz-adv-x="0" 
 />
    <glyph glyph-name="uni200C" unicode="&#x200c;" horiz-adv-x="0" 
d="M24 -230h-47v1041h47v-1041z" />
    <glyph glyph-name="uni200D" unicode="&#x200d;" horiz-adv-x="0" 
d="M24 -230h-47v865l-69 -73l-33 33l93 93l-95 95l33 33l95 -95l96 95l32 -32l-96 -96l96 -95l-33 -33l-72 75v-865z" />
    <glyph glyph-name="endash" unicode="&#x2013;" horiz-adv-x="578" 
d="M562 345h-474l-28 58v4h473l29 -57v-5z" />
    <glyph glyph-name="emdash" unicode="&#x2014;" horiz-adv-x="689" 
d="M606 345h-518l-28 58v4h517l29 -57v-5z" />
    <glyph glyph-name="quoteleft" unicode="&#x2018;" horiz-adv-x="224" 
d="M64 736q0 70 67 165l39 -18q-1 -2 -6.5 -10.5t-7 -11.5t-6.5 -10.5t-7 -11.5t-6 -11.5t-6 -12.5t-4.5 -12.5t-3.5 -13.5q-5 -18 -5 -27q0 -61 60 -92v-4l-29 -51q-45 18 -65 51t-20 70z" />
    <glyph glyph-name="quoteright" unicode="&#x2019;" horiz-adv-x="223" 
d="M159 782q0 -72 -67 -167l-39 18q49 76 52 121q0 59 -61 91v5l30 51q85 -35 85 -119z" />
    <glyph glyph-name="quotesinglbase" unicode="&#x201a;" horiz-adv-x="223" 
d="M158 75q0 -76 -67 -166l-38 18q0 1 7 11.5t8 12.5t7 12t7.5 13.5t6 12.5t6.5 15q9 24 9 48q0 57 -60 87v4l30 51q45 -18 64.5 -50.5t19.5 -68.5z" />
    <glyph glyph-name="quotedblleft" unicode="&#x201c;" horiz-adv-x="364" 
d="M63 731q0 70 68 166l39 -18q-49 -75 -52 -121q-2 -59 60 -92v-4l-29 -51q-86 36 -86 120zM204 731q0 73 68 166l38 -18q0 -1 -7 -11.5t-8 -12.5t-7 -12t-7.5 -13.5t-6 -12.5t-6.5 -15q-9 -24 -9 -48q0 -56 60 -88v-4l-30 -51q-45 19 -65 51.5t-20 68.5z" />
    <glyph glyph-name="quotedblright" unicode="&#x201d;" horiz-adv-x="364" 
d="M300 776q0 -72 -68 -165l-39 18q49 71 51.5 125.5t-59.5 86.5v5l29 51q45 -18 65.5 -51.5t20.5 -69.5zM159 776q0 -72 -67 -165l-39 18q1 2 6.5 10.5t7 11.5t6.5 10.5t7 11.5t6 11.5t6 12.5t4.5 12.5t3.5 13.5q5 18 5 27q0 59 -61 91v5l30 51q45 -18 65 -51t20 -70z" />
    <glyph glyph-name="quotedblbase" unicode="&#x201e;" horiz-adv-x="364" 
d="M300 74q0 -72 -68 -165l-39 18q49 71 51.5 125.5t-59.5 86.5v5l29 51q45 -18 65.5 -51.5t20.5 -69.5zM159 74q0 -72 -67 -165l-39 18q1 2 6.5 10.5t7 11.5t6.5 10.5t7 11.5t6 11.5t6 12.5t4.5 12.5t3.5 13.5q5 18 5 27q0 59 -61 91v5l30 51q45 -18 65 -51t20 -70z" />
    <glyph glyph-name="dagger" unicode="&#x2020;" horiz-adv-x="601" 
d="M542 549h-210v-557h-4l-59 47v510h-181l-28 57v5h209v227h4l59 -48v-179h181l29 -58v-4z" />
    <glyph glyph-name="daggerdbl" unicode="&#x2021;" horiz-adv-x="601" 
d="M542 598h-210v-319h181l29 -57v-5h-210v-176h-4l-59 47v129h-181l-28 58v4h209v319h-181l-28 57v5h209v227h4l59 -48v-179h181l29 -58v-4z" />
    <glyph glyph-name="bullet" unicode="&#x2022;" horiz-adv-x="310" 
d="M199.5 330.5q-18.5 -17.5 -45 -17.5t-44 17.5t-17.5 44t17.5 45t44 18.5t45 -18.5t18.5 -45t-18.5 -44z" />
    <glyph glyph-name="ellipsis" unicode="&#x2026;" horiz-adv-x="627" 
d="M178.5 59.5q-14.5 -14.5 -35 -14.5t-34.5 14.5t-14 35t14 34.5t34.5 14t35 -14t14.5 -34.5t-14.5 -35zM348.5 59.5q-14.5 -14.5 -35 -14.5t-34.5 14.5t-14 35t14 34.5t35 14t35 -14t14 -34.5t-14.5 -35zM479 45q-20 0 -34 14.5t-14 35t14 34.5t34 14t34.5 -14t14.5 -34.5
t-14.5 -35t-34.5 -14.5z" />
    <glyph glyph-name="perthousand" unicode="&#x2030;" horiz-adv-x="1138" 
d="M263 49h-71l382 649h69zM146 536q0 -57 19 -91.5t51.5 -34.5t52 33t19.5 93q0 122 -72 122q-70 0 -70 -122zM217 705q63 0 95 -48.5t32 -121t-31.5 -121.5t-93.5 -49t-95 51.5t-33 122t31.5 118.5t94.5 48zM554 211q0 -57 19 -91t51 -34t51.5 33t19.5 92q0 122 -72 122
q-69 0 -69 -122zM624 380q63 0 95 -48.5t32 -120.5t-31.5 -121t-93.5 -49t-95 51t-33 121.5t31.5 118.5t94.5 48zM856 211q0 -57 19.5 -91t52 -34t51 33t18.5 92q0 122 -70.5 122t-70.5 -122zM927 380q62 0 94 -48.5t32 -120.5t-31.5 -121t-93 -49t-95 51t-33.5 121.5
t32.5 118.5t94.5 48z" />
    <glyph glyph-name="guilsinglleft" unicode="&#x2039;" horiz-adv-x="381" 
d="M86 375l162 182l33 -17l-125 -165l125 -165l-33 -18z" />
    <glyph glyph-name="guilsinglright" unicode="&#x203a;" horiz-adv-x="381" 
d="M131 606l162 -182l-162 -183l-33 18l125 165l-125 165z" />
    <glyph glyph-name="fraction" unicode="&#x2044;" horiz-adv-x="487" 
d="M431 701h42l-422 -690h-41z" />
    <glyph glyph-name="Euro" unicode="&#x20ac;" horiz-adv-x="541" 
d="M509 121q-71 -84 -164 -84t-156 63t-81 172h-80q0 17 8 38h67q-2 28 -2 49t1 34h-75q0 19 8 38h72q17 112 80.5 176.5t155.5 64.5t165 -76l-13 -21q-67 44 -137 44t-115 -49.5t-59 -138.5h216q0 -21 -8 -38h-212q-2 -26 -2 -40.5t2 -42.5h219q0 -22 -8 -38h-206
q15 -87 59.5 -134.5t113.5 -47.5t137 49z" />
    <glyph glyph-name="uni20B9" unicode="&#x20b9;" horiz-adv-x="523" 
d="M363 615v-123h120l33 -64h-153v-57q0 -60 -45 -97t-107 -42q-11 -2 -22 -2t-21 1q21 -31 89 -112.5t130 -149.5l-51 -29q-75 91 -104 126q-102 123 -165 220l42 39q31 -33 77 -33t75.5 25.5t29.5 69.5v41h-221v64h221v123h-222v60h413l34 -60h-153z" />
    <glyph glyph-name="trademark" unicode="&#x2122;" horiz-adv-x="783" 
d="M297 621q0 -19 -2 -37q-12 -2 -19 -2q-2 31 -12 42.5t-36 11.5h-44v-289q22 -8 52 -10q0 -15 -2 -21h-147q0 15 2 21q31 2 41 7t10 18v274h-45q-25 0 -35 -11t-13 -41q-9 -2 -19 0q-1 18 -1 37t1 39h267q2 -20 2 -39zM742 326.5q0 -5.5 -1 -10.5h-119q-3 12 0 21
q20 2 27.5 7t7.5 18l-16 244l-115 -290h-16l-95 259l-13 38l-22 -268q17 -6 43 -8q0 -7 -4 -21h-110q0 15 3 21q40 5 41 27l20 270q-16 4 -36 6q-2 14 1 20h89l97 -268l106 268h82q6 -12 6 -20q-22 -1 -30 -6.5t-7 -19.5l21 -269q18 -7 39 -8q1 -5 1 -10.5z" />
    <glyph glyph-name="minus" unicode="&#x2212;" horiz-adv-x="596" 
d="M542 345h-454l-28 58v4h453l29 -57v-5z" />
    <glyph glyph-name="uni25CC" unicode="&#x25cc;" horiz-adv-x="660" 
d="M151.5 484.5q-12.5 12.5 -12.5 32t12.5 32t31.5 12.5t31.5 -12.5t12.5 -32t-12.5 -32t-31.5 -12.5t-31.5 12.5zM57 407q0 19 13 31.5t32 12.5t32 -12.5t13 -31.5t-13 -31.5t-32 -12.5t-32 12.5t-13 31.5zM44 281q0 19 12.5 32t31.5 13t31.5 -12.5t12.5 -32t-12.5 -31.5
t-31.5 -12t-31.5 12t-12.5 31zM96 165q0 19 12.5 31.5t31.5 12.5t31.5 -12.5t12.5 -31.5t-12.5 -31.5t-32 -12.5t-31.5 12.5t-12 31.5zM210 57q-13 13 -13 32t13 32t32 13t31.5 -13t12.5 -32t-12.5 -32t-31.5 -13t-32 13zM324 74q0 20 12 32t32 12t32.5 -12.5t12.5 -31.5
t-12.5 -31.5t-32.5 -12.5t-32 12t-12 32zM445 127q0 19 12.5 31.5t31.5 12.5t32 -12.5t13 -31.5t-13 -31.5t-32 -12.5t-31.5 12.5t-12.5 31.5zM518 225q0 19 13 32t31.5 13t31 -13t12.5 -32t-12.5 -31.5t-31 -12.5t-31.5 12.5t-13 31.5zM528 359q0 19 12 31.5t31.5 12.5
t32 -12.5t12.5 -31.5t-12.5 -31.5t-32 -12.5t-31.5 12.5t-12 31.5zM478 477q0 19 12.5 32t31.5 13t31.5 -12.5t12.5 -32t-12.5 -32t-31.5 -12.5t-31.5 12.5t-12.5 31.5zM396 514q-13 13 -13 31.5t12.5 31.5t32 13t31.5 -12.5t12 -31.5t-12.5 -32t-31 -13t-31.5 13zM257 560
q0 20 12.5 32t31.5 12t31.5 -12t12.5 -32t-12.5 -32t-31.5 -12t-31.5 12t-12.5 32z" />
    <glyph glyph-name="itfLogo" horiz-adv-x="1648" 
d="M147 0v634h196v-634h-196zM383 449v185h196v-185h-196zM619 0v634h196v-634h-196zM855 449v185h196v-185h-196zM1091 0v634h196v-634h-196zM1327 449v185h196v-185h-196zM1327 224v185h196v-185h-196z" />
    <glyph glyph-name="uni0915094D" horiz-adv-x="615" 
d="M582 440q-84 0 -139 -109v-331l-72 46l6 168q-52 -74 -125 -74t-139 72t-66 145.5t44.5 112t106.5 38.5q38 0 71 -13l22 -63q-29 11 -61 11q-51 0 -85.5 -30.5t-34.5 -83.5t35.5 -89t83.5 -36q87 0 142 107v304h-391l-40 60h695l40 -60h-232q0 -3 -3 -88t-3 -89
q20 29 52.5 48.5t74 19.5t85 -31t72.5 -79l-29 -31q-44 75 -110 75z" />
    <glyph glyph-name="uni0916094D" horiz-adv-x="582" 
d="M253 615v-250q0 -42 -27 -71t-76 -34q39 -62 105.5 -110.5t139.5 -48.5q107 0 172 83q-92 1 -155 47.5t-63 131.5q0 56 38.5 94t97.5 38q87 0 143 -67q53 -54 53 -129q0 -103 -80.5 -180.5t-181.5 -77.5q-53 0 -102.5 19t-85.5 45.5t-73.5 70.5t-61 78.5t-54.5 85.5
l29 27q34 -34 65 -34q48 0 48 51v231h-204l-40 60h662l40 -60h-389zM633 323q0 50 -37 84.5t-82 34.5t-74 -27t-29 -73t31 -74q50 -45 133 -45q12 0 25 1q12 13 22.5 40.5t10.5 58.5z" />
    <glyph glyph-name="uni0917094D" horiz-adv-x="287" 
d="M192 615v-321q0 -28 -5.5 -41t-21.5 -13q-30 0 -70 44t-40 76q0 28 66 28v227h-141l-41 60h368l42 -60h-157z" />
    <glyph glyph-name="uni0918094D" horiz-adv-x="379" 
d="M485 228q-82 -115 -176 -115t-168 61.5t-74 134t73 103.5q-36 22 -55.5 55t-19.5 61t12 52t35 37l-75 -2h-57l-40 60h459l40 -60h-228q-32 -9 -56 -37t-24 -69.5t52 -84.5q30 6 64 6t64 -6l22 -66q-36 8 -75 8q-127 0 -127 -84q0 -46 41 -77.5t94 -31.5q96 0 180 105z
" />
    <glyph glyph-name="uni0919094D" horiz-adv-x="596" 
d="M176 -71q33 20 59 20t41.5 -3.5t31.5 -12t28 -15.5t27.5 -22t24 -23.5t24 -27.5t21 -26.5t21 -28t18.5 -25.5l-33 -23q-18 24 -35 47t-35 42t-32 29q-36 26 -68 26t-54 -11zM167 110.5q50 -35.5 110.5 -35.5t106 36.5t45.5 85.5q0 24 -15 42t-37 18t-72 -20t-79 -20
q-50 0 -97.5 53t-47.5 111.5t33.5 91t92.5 32.5h153v110h-382l-41 60h680l39 -60h-226v-176h-205q-91 0 -91 -82q0 -33 19.5 -56t45 -23t79 20.5t75.5 20.5q51 0 90 -50.5t39 -104.5t-52.5 -101t-129 -47t-142.5 44t-112 116l34 27q37 -57 87 -92.5zM477 350l55 56l58 -56
l-57 -56z" />
    <glyph glyph-name="uni091A094D" horiz-adv-x="444" 
d="M503 615h-523l-39 60h523zM452.5 154q-44.5 -31 -110.5 -31t-135 62t-69 136q0 29 19 57.5t46 40.5l-158 -3l-41 62h391l41 -62h-99q-58 -9 -96 -41.5t-38 -80t34.5 -78.5t80.5 -31q109 0 187 119l42 -53q-50 -66 -94.5 -97z" />
    <glyph glyph-name="uni091B094D" horiz-adv-x="703" 
d="M321 47q-96 0 -166.5 55.5t-70.5 136.5q0 51 47 78q-75 60 -75 118t43 86t112 28q35 0 77 -8l22 -64q-39 6 -74 6q-113 0 -113 -74q0 -35 51 -75q35 8 66 8t59 -5l25 -66q-35 7 -69 7q-105 0 -105 -77q0 -42 37 -69.5t99 -27.5q110 0 197 80q-118 101 -118 205
q0 60 34 102.5t95.5 42.5t100 -57t38.5 -126q0 -95 -66 -177q49 -37 125 -83l-35 -41q-61 41 -120 89q-97 -92 -216 -92zM764 615h-784l-40 60h783zM579 386q0 40 -15 67t-52 27t-62 -37t-25 -86q0 -72 88 -142q66 75 66 171z" />
    <glyph glyph-name="uni091C094D" horiz-adv-x="487" 
d="M547 615h-567l-40 60h567zM416 228q0 -52 -33 -87t-82 -35t-86 21.5t-62.5 51t-50.5 75.5q-35 68 -67 162l39 24l16 -48q21 -63 36.5 -92.5t32 -56t31.5 -40.5q39 -35 80 -35t65 23.5t24 57t-9.5 57.5t-33.5 52q-28 34 -77 83l6 10h314l40 -64h-260q77 -68 77 -159z" />
    <glyph glyph-name="uni091D094D" horiz-adv-x="515" 
d="M418 615v-160h-204q-39 0 -67 -20t-28 -56t19 -58t46 -22t78 19t64 19t23.5 -1.5t52.5 -10.5t65 -9q68 0 115 48l38 -50q-57 -49 -115 -49q-32 0 -70 11q33 -41 33 -83.5t-35 -78.5q-66 -69 -172 -76l143 -148l-47 -32l-154 185q-53 14 -95.5 49t-42.5 69q0 15 15 25.5
t35 10.5q26 0 102 -99h11q63 0 125.5 31.5t62.5 88.5q0 25 -17 41.5t-39 16.5t-71.5 -18.5t-76.5 -18.5q-48 0 -97 54t-49 109.5t36.5 86t92.5 30.5h152v96h-367l-41 60h596l40 -60h-157z" />
    <glyph glyph-name="uni091E094D" horiz-adv-x="529" 
d="M589 615h-609l-41 60h610zM525 282q-33 0 -63 23q-15 -86 -62.5 -121.5t-106.5 -35.5q-113 0 -233 156q-18 22 -44 58l31 28q1 -2 11.5 -16.5t15.5 -21.5t17 -23t20 -25t21.5 -23.5t24 -23t24.5 -19t27 -16.5q29 -14 55 -14q63 0 102 35.5t39 100.5q0 43 -28.5 72.5
t-78.5 29.5q-27 0 -54.5 -14.5t-42.5 -32.5l-49 53q58 57 119 57q121 0 185 -154q27 -12 48.5 -12t43.5 14t32 27l41 -53q-46 -49 -95 -49z" />
    <glyph glyph-name="uni091F094D" horiz-adv-x="514" 
d="M195 -49q33 20 59 20t41.5 -3.5t31.5 -12t28 -15.5t27.5 -22t24 -23.5t24 -27.5t21 -26.5t21 -28t18.5 -25.5l-33 -23q-18 24 -35 47t-35 42t-32 29q-36 26 -68 26t-54 -11zM420 615v-191h-147q-59 0 -105.5 -35.5t-46.5 -107t50.5 -115t119.5 -43.5q89 0 151 65l44 -57
q-27 -31 -70 -52t-94 -21q-97 0 -181 78t-84 175q0 76 48 126.5t137 50.5h106v127h-368l-40 60h594l40 -60h-154z" />
    <glyph glyph-name="uni0920094D" horiz-adv-x="577" 
d="M191 -51q33 20 59 20t41.5 -3.5t31.5 -12t28 -15.5t27.5 -22t24 -23.5t24 -27.5t21 -26.5t21 -28t18.5 -25.5l-33 -23q-18 24 -35 47t-35 42t-32 29q-36 26 -68 26t-54 -11zM417 615v-174q111 -71 111 -189q0 -84 -55 -138.5t-152 -54.5t-180 77t-83 183q0 74 47 121.5
t134 47.5h106v127h-365l-40 60h657l40 -60h-220zM467 274q0 48 -28 87.5t-70 62.5h-87q-161 0 -161 -146q0 -67 52 -114t125.5 -47t121 43t47.5 114z" />
    <glyph glyph-name="uni0921094D" horiz-adv-x="525" 
d="M182 -81q33 20 59 20t41.5 -3.5t31.5 -12t28 -15.5t27.5 -22t24 -23.5t24 -27.5t21 -26.5t21 -28t18.5 -25.5l-33 -23q-18 24 -35 47t-35 42t-32 29q-36 26 -68 26t-54 -11zM80 203q85 -128 198 -128q60 0 106 36.5t46 85.5q0 24 -15 42t-37 18t-72 -20t-79 -20
q-50 0 -98 53t-48 111.5t34 90t93 31.5h153v112h-380l-41 60h605l40 -60h-154v-176h-205q-91 0 -91 -82q0 -33 19.5 -56.5t45 -23.5t79 20.5t75.5 20.5q51 0 89.5 -49.5t38.5 -103.5t-52.5 -100.5t-129 -46.5t-142.5 43.5t-111 114.5z" />
    <glyph glyph-name="uni0922094D" horiz-adv-x="527" 
d="M216 -47q33 20 59 20t41.5 -3.5t31.5 -12t28 -15.5t27.5 -22t24 -23.5t24 -27.5t21 -26.5t21 -28t18.5 -25.5l-33 -23q-18 24 -35 47t-35 42t-32 29q-36 26 -68 26t-54 -11zM417 615v-187h-136q-164 0 -164 -147q0 -66 51 -114t122 -50q-41 44 -41 96t31 86t81 34
t91.5 -39.5t41.5 -97.5t-53.5 -97t-118.5 -39q-103 0 -184.5 76.5t-81.5 186.5q0 72 46.5 120.5t132.5 48.5h110v123h-358l-41 60h601l40 -60h-170zM327 252.5q-22 -25.5 -22 -64t27 -67.5q44 7 76 34.5t32 69.5q0 24 -14.5 38.5t-45.5 14.5t-53 -25.5z" />
    <glyph glyph-name="uni0923094D" horiz-adv-x="473" 
d="M399 615v-272q0 -60 -35.5 -98t-95.5 -38t-125 55q-73 64 -73 154v199h-90l-40 60h553l42 -60h-136zM166.5 299q26.5 -35 73 -35t68 26.5t21.5 83.5v241h-189v-221q0 -60 26.5 -95z" />
    <glyph glyph-name="uni0924094D" horiz-adv-x="314" 
d="M59 303q0 67 43 106.5t121 39.5h191l46 -73h-218q-59 0 -90 -29t-31 -83q0 -97 107 -239l-35 -25q-134 173 -134 303zM334 675l40 -60h-394l-40 60h394z" />
    <glyph glyph-name="uni0925094D" horiz-adv-x="397" 
d="M463 615h-58l-40 60h57zM311 163q-80 0 -152 63.5t-72 128.5q0 19 22 33q8 5 55.5 30.5t74.5 44.5q76 49 76 95q0 28 -21.5 50t-55 22t-57.5 -21t-24 -53t33 -60l-30 -23q-60 54 -60 110q0 40 33 70t80 30q62 0 110.5 -50.5t48.5 -104.5q0 -44 -46 -82q-45 -36 -84 -58.5
t-43.5 -25.5l-10.5 -7l-12 -8q-17 -13 -17 -32q0 -38 38.5 -65t83.5 -27t93 30t82 68l41 -54q-46 -53 -95.5 -78.5t-90.5 -25.5z" />
    <glyph glyph-name="uni0926094D" horiz-adv-x="542" 
d="M226 -29q33 20 59 20t41.5 -3.5t31.5 -12t28 -15.5t27.5 -22t24 -23.5t24 -27.5t21 -26.5t21 -28t18.5 -25.5l-33 -23q-18 24 -35 47t-35 42t-32 29q-36 26 -68 26t-54 -11zM418 426h-136q-162 0 -162 -139q0 -61 46.5 -106.5t103.5 -45.5q26 0 47.5 7t30.5 14l8 7
q-29 43 -29 69t21.5 44t49 18t52.5 -33t25 -65t-44 -69l104 -123l-44 -32l-94 132q-49 -29 -99 -29q-81 0 -154 68q-39 35 -63 83t-24 97q0 72 48.5 119.5t135.5 47.5h105v125h-366l-38 60h620l38 -60h-182v-189z" />
    <glyph glyph-name="uni0927094D" horiz-adv-x="363" 
d="M387 615l-41 60h74l40 -60h-73zM190 432q17 3 42.5 3t67.5 -7l22 -68q-47 9 -83 9t-69.5 -19t-33.5 -63.5t33.5 -72.5t88.5 -28q104 0 180 109l44 -52q-40 -53 -93.5 -85.5t-98.5 -32.5q-82 0 -150 60t-68 133.5t73 101.5q-78 50 -78 113q0 53 45 83l-104 -1h-28l-40 60
h302l40 -60h-65q-35 -9 -58.5 -36.5t-23.5 -60.5q1 -46 55 -86z" />
    <glyph glyph-name="uni0928094D" horiz-adv-x="296" 
d="M102 409h281l42 -66h-241v-92q0 -26 -23 -26q-31 0 -72 52t-41 92t54 40zM316 675l41 -60h-377l-40 60h376z" />
    <glyph glyph-name="uni092A094D" horiz-adv-x="298" 
d="M151 615v-225q0 -48 28 -77.5t65 -29.5q65 0 113 56l43 -53q-26 -30 -61 -47.5t-65 -17.5q-61 0 -127.5 65t-66.5 139v190h-100l-41 60h379l39 -60h-206z" />
    <glyph glyph-name="uni092B094D" horiz-adv-x="602" 
d="M582 410q-42 0 -83 -23.5t-64 -68.5v-318l-73 47l4 227q-48 -42 -105 -42t-121.5 67.5t-64.5 142.5v173h-95l-40 60h682l40 -60h-228l-2 -194q50 52 124 52q42 0 85.5 -28t75.5 -72l-35 -27q-35 64 -100 64zM237 296q73 0 127 72v247h-217v-212q0 -46 25 -76.5t65 -30.5z
" />
    <glyph glyph-name="uni092C094D" horiz-adv-x="340" 
d="M400 615h-420l-41 60h421zM259 144q-79 0 -146.5 63.5t-67.5 142.5t52.5 128.5t117.5 49.5q79 0 147 -71l-23 -33q-43 45 -91 45t-82 -25l177 -190q24 23 57 66l43 -50q-89 -126 -184 -126zM141.5 237.5q37.5 -38.5 84 -38.5t88.5 31l-177 190q-33 -40 -33 -92
t37.5 -90.5z" />
    <glyph glyph-name="uni092D094D" horiz-adv-x="325" 
d="M345 675l40 -60h-109l-40 60h109zM102 358h21v177q0 35 -18.5 57.5t-52.5 22.5h-72l-40 60h79q55 0 95 -35q20 -16 38 -34q41 -41 41 -101v-147h205l42 -68h-246v-73q0 -25 -23 -25q-31 0 -74.5 46.5t-43.5 83t49 36.5z" />
    <glyph glyph-name="uni092E094D" horiz-adv-x="348" 
d="M105 357h18v258h-143l-39 60h427l40 -60h-214v-258h224l42 -67h-266v-73q0 -25 -27.5 -25t-70.5 46t-43 82.5t52 36.5z" />
    <glyph glyph-name="uni092F094D" horiz-adv-x="359" 
d="M272 556.5q18 -34.5 18 -53t-3 -28.5t-10.5 -20t-13.5 -17t-20 -16.5t-22 -14.5t-26 -16.5t-22.5 -14.5t-13 -8.5t-11 -8t-6.5 -7.5q-9 -11 -9 -24q0 -38 42.5 -68.5t84.5 -30.5q94 0 158 88l40 -50q-78 -101 -170 -101q-76 0 -153 72.5t-77 137.5q0 17 19 26
q86 43 116.5 70.5t30.5 50t-19.5 49t-51.5 43.5h-173l-40 60h439l40 -60h-201q36 -24 54 -58.5z" />
    <glyph glyph-name="uni0930094D" horiz-adv-x="395" 
d="M107 -59q33 20 59 20t41.5 -3.5t31.5 -12t28 -15.5t27.5 -22t24 -23.5t24 -27.5t21 -26.5t21 -28t18.5 -25.5l-33 -23q-18 24 -35 47t-35 42t-32 29q-36 26 -68 26t-54 -11zM268 615v-256q0 -35 -23.5 -61t-73.5 -32q54 -81 199 -235l-52 -32q-197 241 -264 342l36 32
q36 -36 64 -36q44 0 44 51v227h-218l-40 60h475l40 -60h-187z" />
    <glyph glyph-name="uni0932094D" horiz-adv-x="486" 
d="M546 615h-566l-40 60h566zM574 376q-31 34 -84.5 34t-79 -37t-25.5 -87t13 -106l-62 19q-20 48 -20 97.5t14 81.5q-36 34 -86.5 34t-83 -35t-32.5 -94q0 -116 166 -257l-37 -26q-195 167 -195 313q0 69 46.5 115t114.5 46q37 0 71 -17t56 -41q39 56 111 56
q43 0 81.5 -23.5t53.5 -46.5z" />
    <glyph glyph-name="uni0933094D" horiz-adv-x="749" 
d="M809 615h-829l-40 60h829zM405 419q55 84 112.5 84t103 -35t67.5 -80.5t22 -87.5q0 -78 -49 -131.5t-119 -53.5q-38 0 -83.5 21t-84.5 60q-52 -82 -123 -82t-128.5 66.5t-57.5 139.5t51 128.5t124 55.5q45 0 82.5 -20t82.5 -65zM267 444q-62 0 -101.5 -44.5t-39.5 -102
t30.5 -91t71.5 -33.5q45 0 76 43q26 34 49 90t33 76q-33 31 -59.5 46.5t-59.5 15.5zM394 232q66 -59 124 -59t96 44t38 101.5t-30.5 91.5t-71 34t-68 -36t-54 -99t-34.5 -77z" />
    <glyph glyph-name="uni0935094D" horiz-adv-x="329" 
d="M262 147q-79 0 -146 62.5t-67 142.5t51 129t123.5 49t143.5 -74l-22 -34q-40 46 -100 46t-97 -42t-37 -95t33 -89.5t89 -36.5q72 0 160 106l44 -54q-28 -40 -77 -75t-98 -35zM389 615h-409l-41 60h410z" />
    <glyph glyph-name="uni0936094D" horiz-adv-x="466" 
d="M206 318q73 0 118.5 46t45.5 125q0 55 -25.5 93.5t-68.5 38.5t-67 -25t-24 -66q0 -59 82 -104l-20 -33q-49 21 -87.5 65t-38.5 96.5t34 89.5t90 37q77 0 130 -70t53 -155t-55 -140.5t-135 -60.5q-13 -1 -38 -1q44 -61 199 -221l-49 -33q-201 231 -282 341l30 26
q51 -49 108 -49zM502 675l39 -60h-76l-37 60h74z" />
    <glyph glyph-name="uni0937094D" horiz-adv-x="324" 
d="M277 214q-63 0 -130 66.5t-68 141.5v193h-99l-40 60h404l40 -60h-231l285 -305q-82 -96 -161 -96zM249 274q72 0 118 58l-217 230v-176q0 -49 30 -80.5t69 -31.5z" />
    <glyph glyph-name="uni0938094D" horiz-adv-x="409" 
d="M244 615v-227q61 -52 125 -52t110 39l41 -51q-51 -54 -124.5 -54t-155.5 65q-13 -62 -91 -69q55 -82 196 -234l-52 -32q-187 227 -263 341l35 32q38 -36 65 -36q44 0 44 51v227h-194l-40 60h489l41 -60h-226z" />
    <glyph glyph-name="uni0939094D" horiz-adv-x="474" 
d="M303 265q-63 0 -110 -38.5t-47 -96.5q0 -29 18 -60t40 -53t58 -47q49 -33 82 -51t36 -20l-40 -28q-2 1 -24 14.5t-33.5 20.5t-36 23.5t-39.5 29.5t-37 31.5t-35.5 36.5t-26.5 39q-27 40 -27 86q0 73 62 127q-74 69 -74 135q0 41 28 63.5t78 22.5h175v115h-370l-40 60h554
l41 -60h-114v-178h-183q-49 0 -73.5 -11t-24.5 -49t39 -75q48 24 90 24h242l46 -61h-254z" />
    <glyph glyph-name="uni0915093C094D" horiz-adv-x="615" 
d="M582 440q-84 0 -139 -109v-331l-72 46l6 168q-52 -74 -125 -74t-139 72t-66 145.5t44.5 112t106.5 38.5q38 0 71 -13l22 -63q-29 11 -61 11q-51 0 -85.5 -30.5t-34.5 -83.5t35.5 -89t83.5 -36q87 0 142 107v304h-391l-40 60h695l40 -60h-232q0 -3 -3 -88t-3 -89
q20 29 52.5 48.5t74 19.5t85 -31t72.5 -79l-29 -31q-44 75 -110 75zM178 3l55 56l58 -56l-57 -56z" />
    <glyph glyph-name="uni0916093C094D" horiz-adv-x="582" 
d="M253 615v-250q0 -42 -27 -71t-76 -34q39 -62 105.5 -110.5t139.5 -48.5q107 0 172 83q-92 1 -155 47.5t-63 131.5q0 56 38.5 94t97.5 38q87 0 143 -67q53 -54 53 -129q0 -103 -80.5 -180.5t-181.5 -77.5q-53 0 -102.5 19t-85.5 45.5t-73.5 70.5t-61 78.5t-54.5 85.5
l29 27q34 -34 65 -34q48 0 48 51v231h-204l-40 60h662l40 -60h-389zM633 323q0 50 -37 84.5t-82 34.5t-74 -27t-29 -73t31 -74q50 -45 133 -45q12 0 25 1q12 13 22.5 40.5t10.5 58.5zM77 2l55 56l58 -56l-57 -56z" />
    <glyph glyph-name="uni0917093C094D" horiz-adv-x="287" 
d="M192 615v-321q0 -28 -5.5 -41t-21.5 -13q-30 0 -70 44t-40 76q0 28 66 28v227h-141l-41 60h368l42 -60h-157zM99 -1l55 56l58 -56l-57 -56z" />
    <glyph glyph-name="uni091C093C094D" horiz-adv-x="487" 
d="M32 36l55 56l58 -56l-57 -56zM547 615h-567l-40 60h567zM416 228q0 -52 -33 -87t-82 -35t-86 21.5t-62.5 51t-50.5 75.5q-35 68 -67 162l39 24l16 -48q21 -63 36.5 -92.5t32 -56t31.5 -40.5q39 -35 80 -35t65 23.5t24 57t-9.5 57.5t-33.5 52q-28 34 -77 83l6 10h314
l40 -64h-260q77 -68 77 -159z" />
    <glyph glyph-name="uni0928093C094D" horiz-adv-x="302" 
d="M99 61l55 56l58 -56l-57 -56zM101 409h281l42 -66h-241v-92q0 -26 -23 -26q-31 0 -72 52t-41 92t54 40zM315 675l41 -60h-377l-40 60h376z" />
    <glyph glyph-name="uni092B093C094D" horiz-adv-x="602" 
d="M582 410q-42 0 -83 -23.5t-64 -68.5v-318l-73 47l4 227q-48 -42 -105 -42t-121.5 67.5t-64.5 142.5v173h-95l-40 60h682l40 -60h-228l-2 -194q50 52 124 52q42 0 85.5 -28t75.5 -72l-35 -27q-35 64 -100 64zM237 296q73 0 127 72v247h-217v-212q0 -46 25 -76.5t65 -30.5z
M151 43l55 56l58 -56l-57 -56z" />
    <glyph glyph-name="uni092F093C094D" horiz-adv-x="359" 
d="M272 556.5q18 -34.5 18 -53t-3 -28.5t-10.5 -20t-13.5 -17t-20 -16.5t-22 -14.5t-26 -16.5t-22.5 -14.5t-13 -8.5t-11 -8t-6.5 -7.5q-9 -11 -9 -24q0 -38 42.5 -68.5t84.5 -30.5q94 0 158 88l40 -50q-78 -101 -170 -101q-76 0 -153 72.5t-77 137.5q0 17 19 26
q86 43 116.5 70.5t30.5 50t-19.5 49t-51.5 43.5h-173l-40 60h439l40 -60h-201q36 -24 54 -58.5zM58 56l55 56l58 -56l-57 -56z" />
    <glyph glyph-name="itfStar" horiz-adv-x="667" 
 />
    <glyph glyph-name="uni09080902" horiz-adv-x="544" 
d="M438 774l50 50l52 -50l-52 -51zM460 881q-43 0 -71 -25t-28 -81.5t51 -99.5h141l39 -60h-167v-177h-208q-39 0 -66.5 -20.5t-27.5 -56.5t18 -58t45.5 -22t79 19t72.5 19q52 0 94.5 -48t42.5 -94.5t-35 -83t-82 -55t-93 -20.5l141 -146l-47 -32l-151 182
q-52 14 -95.5 49.5t-43.5 68.5q0 15 15 25.5t34 10.5q29 0 103 -99q9 -1 17 -1q53 0 114 31q71 36 71 92q0 25 -16.5 42t-37.5 17t-71 -19t-82 -19q-49 0 -98 55t-49 111.5t37.5 87.5t91.5 31h157v110h-363l-41 60h408q-55 58 -55 134q0 58 35.5 90.5t86.5 32.5t94 -24
l-19 -33q-21 6 -41 6z" />
    <glyph glyph-name="uni09300941" horiz-adv-x="552" 
d="M268 615v-163l108 5q62 0 116.5 -64.5t54.5 -122.5t-40 -106t-85 -67l-49 58q44 14 81 50t37 87t-46.5 74t-118.5 23q-14 0 -30 -1l-28 -31q0 -34 -24 -59.5t-73 -31.5q54 -81 199 -235l-52 -32q-197 241 -264 342l36 32q36 -36 64 -36q44 0 44 51v227h-218l-40 60h632
l40 -60h-344z" />
    <glyph glyph-name="uni09300942" horiz-adv-x="657" 
d="M268 615v-256q0 -35 -23.5 -61t-73.5 -32q54 -81 199 -235l-52 -32q-197 241 -264 342l36 32q36 -36 64 -36q44 0 44 51v227h-218l-40 60h737l41 -60h-450zM418 154q63 0 102 28q56 42 56 114q0 46 -30.5 84t-72.5 38t-61 -19.5t-19 -51.5q0 -49 46 -81l-24 -26
q-78 57 -78 128q0 43 30.5 72.5t79.5 29.5q69 0 123 -62t54 -134q0 -88 -64 -135q-49 -37 -121 -37q-20 0 -42 3l-44 53l2 2q34 -6 63 -6z" />
    <glyph glyph-name="uni09390941" horiz-adv-x="503" 
d="M329 -72q50 0 90 -42q45 -45 45 -93t-38.5 -84.5t-105.5 -36.5t-135 42.5t-118 108.5l32 25q100 -119 200 -119q47 0 78.5 26t31.5 57t-15.5 46t-39.5 15q-4 0 -19.5 -4t-28.5 -24.5t-15 -48.5l-55 33q3 54 39 82q-193 124 -193 240q0 73 62 127q-75 70 -75 136
q0 41 28 63.5t78 22.5h164v115h-356l-40 60h580l40 -60h-153v-178h-172q-49 0 -73.5 -11t-24.5 -47.5t39 -77.5q47 25 90 25q82 0 130.5 -51.5t48.5 -113.5q0 -36 -24.5 -69t-65.5 -54l-48 52q38 17 60 48t22 59.5t-23 48t-65 19.5q-63 0 -110.5 -39.5t-47.5 -97.5
q0 -96 181 -200h2z" />
    <glyph glyph-name="uni09390942" horiz-adv-x="503" 
d="M370 138q22 31 22 59.5t-23 48t-65 19.5q-63 0 -110.5 -39.5t-47.5 -97.5q0 -96 180 -199q108 -34 218 -200l-31 -27q-54 81 -112.5 127.5t-111.5 46.5q-33 0 -61.5 -21t-28.5 -55q0 -65 56 -65q53 0 63 70l57 -36q-6 -39 -31 -65.5t-63 -26.5q-54 0 -99 47t-45 94t29 78
t73 39q-157 111 -157 216q0 73 62 127q-75 70 -75 136q0 41 28 63.5t78 22.5h164v115h-356l-40 60h580l40 -60h-153v-178h-172q-49 0 -73.5 -11t-24.5 -47.5t39 -77.5q47 25 90 25q82 0 130.5 -51.5t48.5 -113.5q0 -36 -24.5 -69t-65.5 -54l-48 52q38 17 60 48z" />
    <glyph glyph-name="uni09260943" horiz-adv-x="487" 
d="M272 19q-84 0 -146.5 59.5t-62.5 129.5q0 34 18 59t48 37q-28 19 -52.5 58t-24.5 79.5t35.5 64.5t80.5 24h136v85h-324l-40 60h558l40 -60h-162v-140h-179q-29 0 -53.5 -14.5t-24.5 -44t18.5 -58.5t36.5 -42q30 5 65 5t75 -7l22 -62q-30 8 -75 8q-133 0 -133 -86
q0 -43 31.5 -71.5t80 -28.5t101 26t86.5 64l46 -43q-36 -43 -91.5 -72.5t-109.5 -29.5z" />
    <glyph glyph-name="uni09390943" horiz-adv-x="581" 
d="M443 201q0 -17 -20.5 -32.5t-45.5 -25.5t-45.5 -28.5t-20.5 -42.5t19.5 -37t46.5 -13q59 0 118 52l40 -40q-25 -24 -63 -42.5t-80.5 -18.5t-88 39t-45.5 87q0 30 24 49q6 6 10 9.5t13 8.5t13 7q17 10 25 14q35 17 35 31q0 20 -24 32t-58 12q-63 0 -111.5 -39t-48.5 -100
q0 -38 24.5 -76t63.5 -68q63 -47 102 -68.5t42 -23.5l-39 -27q-22 11 -44 26t-46 31t-39.5 29.5t-37 32.5t-35.5 37.5t-27 39.5q-27 43 -27 93q0 75 65 127q-78 71 -78 138q0 41 28 63.5t78 22.5h175v115h-373l-40 60h673l40 -60h-229v-178h-183q-49 0 -73 -11t-24 -51
t41 -76q48 24 104.5 24t111 -37.5t54.5 -84.5z" />
    <glyph glyph-name="uni094D0928.post" horiz-adv-x="249" 
d="M-66 89l45 -52q10 -13 10 -22.5t-13.5 -16.5t-43.5 -7t-71 17.5t-41 47.5q0 17 25 38l249 214v307h-114l-41 60h340l42 -60h-156v-615l-71 52v187z" />
    <glyph glyph-name="uni094D092F.post" horiz-adv-x="531" 
d="M65 508q65 0 119.5 -43t54.5 -81q0 -28 -67 -74q-12 -8 -41 -27q-28 -20 -28 -46t25 -47t70.5 -21t98 40.5t69.5 75.5v330h-387l-40 60h612l39 -60h-152v-615l-72 50l2 139q-23 -28 -64.5 -53.5t-78.5 -25.5q-65 0 -132 55.5t-67 115.5q0 19 25 34q59 31 89.5 52.5
t30.5 39.5q0 37 -78 37h-193l-39 64h204z" />
    <glyph glyph-name="uni094D0930.post" horiz-adv-x="244" 
d="M94 615h-114l-41 60h340l42 -60h-156v-615l-71 52v182l-240 -228l-54 37l294 263v309z" />
    <glyph glyph-name="uni094D0930" horiz-adv-x="0" 
d="M-350 -131l-54 43l169 179h41l174 -198l-36 -24l-146 175z" />
    <glyph glyph-name="uni0930094D.1" horiz-adv-x="189" 
d="M271 615h-291l-41 60h291zM-18 395q71 -55 142.5 -55t159.5 53l37 -59q-83 -54 -174.5 -54t-188.5 85z" />
    <glyph glyph-name="uni0930094D.2" horiz-adv-x="0" 
d="M-62 881q-43 0 -71 -25t-28 -66q0 -83 65 -126l-35 -16q-39 26 -63 71.5t-24 96.5t35.5 83.5t86 32.5t95.5 -24l-20 -33q-21 6 -41 6z" />
    <glyph glyph-name="uni0930094D0902" horiz-adv-x="0" 
d="M-113 773l49 49l51 -49l-51 -50zM-62 881q-43 0 -71 -25t-28 -66q0 -83 65 -126l-35 -16q-39 26 -63 71.5t-24 96.5t35.5 83.5t86 32.5t95.5 -24l-20 -33q-21 6 -41 6z" />
    <glyph glyph-name="uni0930094D.aMatraI" horiz-adv-x="0" 
d="M76 908q-54 0 -86 -37.5t-32 -96t42 -107.5l-31 -19q-67 75 -67 163q0 63 39.5 105.5t96 42.5t98.5 -25l-19 -33q-20 7 -41 7z" />
    <glyph glyph-name="uni0902.aMatraI" horiz-adv-x="0" 
d="M-22 854l56 56l57 -56l-57 -56z" />
    <glyph glyph-name="uni0930094D0902.aMatraI" horiz-adv-x="0" 
d="M21 793l50 50l52 -50l-52 -51zM76 908q-54 0 -86 -37.5t-32 -96t42 -107.5l-31 -19q-67 75 -67 163q0 63 39.5 105.5t96 42.5t98.5 -25l-19 -33q-20 7 -41 7z" />
    <glyph glyph-name="uni09400930094D" 
d="M165 615v-615l-71 62v553h-138l-42 60h184q-67 141 -126 173q-29 16 -62.5 16t-55.5 -17t-22 -53.5t35 -55.5l-33 -20q-25 13 -44 40t-19 60q0 49 33 76.5t83 27.5q99 0 184 -124q-1 9 -1 17q0 53 30.5 85t78 32t92.5 -24l-20 -33q-20 7 -42 7q-44 0 -70.5 -24.5
t-26.5 -72.5t32 -110h159l41 -60h-179z" />
    <glyph glyph-name="uni09400902" horiz-adv-x="263" 
d="M165 615v-615l-71 62v553h-138l-42 60h184q-67 141 -126 173q-29 16 -62.5 16t-55.5 -17t-22 -53.5t35 -55.5l-33 -20q-25 13 -44 40t-19 60q0 49 33 76.5t81 27.5t88.5 -21.5t72.5 -62.5q55 -69 98 -163h159l41 -60h-179zM135 817l56 56l57 -56l-57 -56z" />
    <glyph glyph-name="uni09400930094D0902" 
d="M161 777l49 50l52 -50l-51 -50zM165 615v-615l-71 62v553h-138l-42 60h184q-67 141 -126 173q-29 16 -62.5 16t-55.5 -17t-22 -53.5t35 -55.5l-33 -20q-25 13 -44 40t-19 60q0 49 33 76.5t83 27.5q99 0 184 -124q-1 9 -1 17q0 53 30.5 85t78 32t92.5 -24l-20 -33
q-20 7 -42 7q-44 0 -70.5 -24.5t-26.5 -72.5t32 -110h159l41 -60h-179z" />
    <glyph glyph-name="uni0940.aLong" horiz-adv-x="263" 
d="M165 615v-615l-71 62v553h-114l-41 60h158q-66 79 -153 134t-157 55q-37 0 -59.5 -17t-22.5 -53.5t36 -55.5l-34 -20q-24 13 -43 40t-19 60q0 49 33.5 76.5t84.5 27.5q94 0 196.5 -70t184.5 -177h135l41 -60h-155z" />
    <glyph glyph-name="uni09400930094D.aLong" horiz-adv-x="263" 
d="M200 881q-43 0 -70.5 -25t-27.5 -80t43 -101h134l41 -60h-155v-615l-71 62v553h-114l-41 60h158q-66 79 -153 134t-157 55q-37 0 -59.5 -17t-22.5 -53.5t36 -55.5l-34 -20q-24 13 -43 40t-19 60q0 49 33.5 76.5t84.5 27.5q132 0 286 -144q-1 8 -1 21.5t6 29.5
q4 50 36 76.5t79 26.5t92 -24l-19 -33q-23 6 -42 6z" />
    <glyph glyph-name="uni09400902.aLong" horiz-adv-x="263" 
d="M165 615v-615l-71 62v553h-114l-41 60h158q-66 79 -153 134t-157 55q-37 0 -59.5 -17t-22.5 -53.5t36 -55.5l-34 -20q-24 13 -43 40t-19 60q0 49 33.5 76.5t84.5 27.5q94 0 196.5 -70t184.5 -177h135l41 -60h-155zM125 802l56 56l57 -56l-57 -56z" />
    <glyph glyph-name="uni09400930094D0902.aLong" horiz-adv-x="263" 
d="M164 775l49 50l51 -50l-51 -50zM200 881q-43 0 -70.5 -25t-27.5 -80t43 -101h134l41 -60h-155v-615l-71 62v553h-114l-41 60h158q-66 79 -153 134t-157 55q-37 0 -59.5 -17t-22.5 -53.5t36 -55.5l-34 -20q-24 13 -43 40t-19 60q0 49 33.5 76.5t84.5 27.5q132 0 286 -144
q-1 8 -1 21.5t6 29.5q4 50 36 76.5t79 26.5t92 -24l-19 -33q-23 6 -42 6z" />
    <glyph glyph-name="uni09470930094D" horiz-adv-x="0" 
d="M-51 881q-44 0 -71 -24.5t-27 -69.5t46 -140l-37 -17q-77 158 -138 198q-29 19 -56 19t-58 -14l-39 60q32 20 76 20t84 -30.5t81 -88.5q-1 12 -1 23q0 51 29 83t78.5 32t92.5 -24l-19 -33q-21 6 -41 6z" />
    <glyph glyph-name="uni09470902" horiz-adv-x="0" 
d="M-434 893q32 20 74 20t82 -21.5t74.5 -70.5t47.5 -73t28 -55.5t16 -33.5q3 -4 6 -12l-37 -17q-77 158 -137 198q-30 19 -57 19t-58 -14zM-165 853l56 56l57 -56l-57 -56z" />
    <glyph glyph-name="uni09470901" horiz-adv-x="0" 
d="M-431 893q32 20 74 20t82 -21.5t74.5 -70.5t47.5 -73t28 -55.5t17 -33.5q2 -4 5 -12l-37 -17q-77 158 -138 198q-29 19 -56 19t-58 -14zM-53 953l56 56l57 -56l-57 -56zM-3 807q83 0 146 117l49 -39q-70 -130 -171.5 -130t-201.5 141l32 23q72 -112 146 -112z" />
    <glyph glyph-name="uni09470930094D0902" horiz-adv-x="0" 
d="M-102 775l48 48l50 -48l-50 -49zM-51 881q-44 0 -71 -24.5t-27 -69.5t46 -140l-37 -17q-77 158 -138 198q-29 19 -56 19t-58 -14l-39 60q32 20 76 20t84 -30.5t81 -88.5q-1 12 -1 23q0 51 29 83t78.5 32t92.5 -24l-19 -33q-21 6 -41 6z" />
    <glyph glyph-name="uni09480930094D" horiz-adv-x="0" 
d="M-329 972q49 0 93 -47.5t77 -115.5q-1 59 31 91.5t75.5 32.5t88.5 -25l-19 -33q-21 6 -41 6q-45 0 -72 -26t-27 -75.5t26 -129.5l-52 -18q-29 54 -83.5 97t-114.5 43q-27 0 -60 -15l-44 54q35 21 89 21t121 -46t104 -111q-87 234 -180 234q-22 0 -42 -7l-29 58
q27 12 59 12z" />
    <glyph glyph-name="uni09480902" horiz-adv-x="0" 
d="M-388 960q27 12 58 12t59 -15t48 -34.5t40.5 -54t32 -58t25.5 -63.5q18 -53 30 -96l-54 -19q-28 54 -82.5 97t-114.5 43q-26 0 -61 -15l-43 54q35 21 79 21q64 0 130.5 -46t103.5 -111q-87 234 -180 234q-22 0 -42 -7zM-109 853l56 56l57 -56l-57 -56z" />
    <glyph glyph-name="uni09480901" horiz-adv-x="0" 
d="M-388 960q27 12 58 12t59 -15t48 -34.5t40.5 -54t32 -58t25.5 -63.5q18 -53 30 -96l-54 -19q-28 54 -82.5 97t-114.5 43q-26 0 -61 -15l-43 54q35 21 79 21q64 0 130.5 -46t103.5 -111q-87 234 -180 234q-22 0 -42 -7zM-23 953l56 56l57 -56l-57 -56zM27 807
q83 0 146 117l49 -39q-70 -130 -171.5 -130t-201.5 141l32 23q72 -112 146 -112z" />
    <glyph glyph-name="uni09480930094D0902" horiz-adv-x="0" 
d="M-78 780l48 48l50 -48l-50 -49zM-329 972q49 0 93 -47.5t77 -115.5q-1 59 31 91.5t75.5 32.5t88.5 -25l-19 -33q-21 6 -41 6q-45 0 -72 -26t-27 -75.5t26 -129.5l-52 -18q-29 54 -83.5 97t-114.5 43q-27 0 -60 -15l-44 54q35 21 89 21t121 -46t104 -111q-87 234 -180 234
q-22 0 -42 -7l-29 58q27 12 59 12z" />
    <glyph glyph-name="uni094A0902" horiz-adv-x="289" 
d="M184 615v-615l-72 51v564h-139l-36 60h182q-42 89 -133 89h-46q-100 0 -146 61q-19 26 -38 72l33 25q2 -4 9 -18.5t9.5 -19t10 -15.5t13 -14.5t16.5 -11t23 -9.5q40 -7 65 -7h42q138 0 190 -152h154l37 -60h-174zM162 800l56 56l57 -56l-57 -57z" />
    <glyph glyph-name="uni094B0930094D" horiz-adv-x="263" 
d="M168 615v-615l-71 51v564h-139l-37 60h179q-87 172 -175 172q-23 0 -54 -14l-39 60q32 20 76 20t84 -30.5t86 -93.5q-3 19 -3 36q0 46 22 71q30 36 81 36t94 -24l-19 -33q-21 6 -41 6q-44 0 -71 -24.5t-27 -71t33 -110.5h159l36 -60h-174z" />
    <glyph glyph-name="uni094B0902" horiz-adv-x="263" 
d="M168 615v-615l-71 51v564h-139l-37 60h178q-87 172 -176 172q-22 0 -53 -14l-39 60q32 20 69 20t71.5 -16.5t58.5 -39t48 -59.5q35 -50 68 -123h160l36 -60h-174zM148 800l55 56l58 -56l-57 -57z" />
    <glyph glyph-name="uni094B0930094D0902" horiz-adv-x="263" 
d="M168 615v-615l-71 51v564h-139l-37 60h178q-87 172 -176 172q-22 0 -53 -14l-39 60q32 20 74.5 20t82 -27.5t83.5 -87.5q-2 14 -2 26q0 50 28.5 79t79 29t93.5 -24l-19 -33q-21 6 -41 6q-45 0 -72 -25t-27 -71.5t35 -109.5h160l36 -60h-174zM167 773l49 49l50 -49
l-50 -50z" />
    <glyph glyph-name="uni094C0930094D" horiz-adv-x="263" 
d="M168 615v-615l-71 51v564h-115l-36 60h136q-32 43 -76.5 70t-82 27t-70.5 -15l-43 54q35 21 79 21q64 0 130.5 -46t103.5 -111q-87 234 -180 234q-22 0 -42 -7l-29 58q27 12 59 12q49 0 93.5 -48t76.5 -115q-1 59 31 91.5t75.5 32.5t88.5 -25l-19 -33q-21 6 -41 6
q-45 0 -71.5 -26t-26.5 -73t17 -107h127l36 -60h-150z" />
    <glyph glyph-name="uni094C0902" horiz-adv-x="263" 
d="M168 615v-615l-71 51v564h-115l-36 60h137q-32 43 -76.5 70t-81 27t-71.5 -15l-43 54q35 21 89 21t121 -46t104 -111q-39 103 -59 133t-39 54q-37 47 -83 47q-21 0 -41 -7l-29 58q27 12 59 12q140 0 226 -297h123l36 -60h-150zM154 806l56 56l57 -56l-57 -56z" />
    <glyph glyph-name="uni094C0930094D0902" 
d="M165 615v-615l-71 51v564h-115l-36 60h134q-32 43 -76.5 70t-81 27t-71.5 -15l-43 54q35 21 79 21q64 0 131 -46t104 -111q-39 103 -59 133t-39 54q-37 47 -83 47q-21 0 -41 -7l-29 58q27 12 59 12q49 0 93 -48t76 -115q0 59 32 91.5t74.5 32.5t89.5 -25l-19 -33
q-21 6 -42 6q-44 0 -71 -26t-27 -71t18 -109h128l36 -60h-150zM181 775l48 48l50 -48l-50 -49z" />
    <glyph glyph-name="uni0915094D0937" horiz-adv-x="704" 
d="M611 615v-615l-72 48v291q-40 -20 -83 -20q-100 0 -200 62q-3 -2 -26 -19.5t-29 -23t-25 -21.5t-25.5 -25.5t-17.5 -23.5q-19 -26 -19 -62t34.5 -66t80 -30t65.5 21q-26 40 -26 61t17.5 35.5t39.5 14.5t45.5 -28.5t23.5 -58t-31 -53.5l101 -111l-52 -34l-83 122
q-38 -23 -79 -23q-72 0 -133 57.5t-61 127.5q0 32 21.5 64.5t47 54.5t75.5 61q-92 70 -92 146q0 48 36.5 82.5t94.5 34.5t105 -43.5t47 -101.5q0 -38 -65 -98q-6 -6 -20 -18.5t-17 -15.5q60 -32 118 -32q84 0 132 45v195h-86l-41 60h312l41 -60h-154zM315.5 615.5
q-19.5 19.5 -58 19.5t-66 -26t-27.5 -64q0 -50 68 -98q103 68 103 121q0 28 -19.5 47.5z" />
    <glyph glyph-name="uni0915094D0937094D" horiz-adv-x="487" 
d="M456 319q-100 0 -200 62q-3 -2 -26 -19.5t-29 -23t-25 -21.5t-25.5 -25.5t-17.5 -23.5q-19 -26 -19 -62t34.5 -66t80 -30t65.5 21q-26 40 -26 61t17.5 35.5t39.5 14.5t45.5 -28.5t23.5 -58t-31 -53.5l101 -111l-52 -34l-83 122q-38 -23 -79 -23q-72 0 -133 57.5
t-61 127.5q0 32 21.5 64.5t47 54.5t75.5 61q-92 70 -92 146q0 48 36.5 82.5t94.5 34.5t105 -43.5t47 -101.5q0 -38 -65 -98q-6 -6 -20 -18.5t-17 -15.5q60 -32 118 -32q87 0 164 76l38 -62q-71 -70 -153 -70zM335 568q0 28 -19.5 47.5t-58 19.5t-66 -26t-27.5 -64
q0 -50 68 -98q103 68 103 121zM547 615h-94l-41 60h95z" />
    <glyph glyph-name="uni0915094D0937094D092E" horiz-adv-x="1053" 
d="M888 357v258h-228v-258h228zM335 568q0 28 -19.5 47.5t-58 19.5t-66 -26t-27.5 -64q0 -50 68 -98q103 68 103 121zM959 615v-615l-71 51v240h-228v-71q0 -25 -22.5 -25t-54 25t-50.5 57q-16 -2 -26 -2q-61 0 -129 30.5t-122 75.5q-3 -2 -26 -19.5t-29 -23t-25 -21.5
t-25.5 -25.5t-17.5 -23.5q-19 -26 -19 -62t34.5 -66t80 -30t65.5 21q-26 40 -26 61t17.5 35.5t39.5 14.5t45.5 -28.5t23.5 -58t-31 -53.5l101 -111l-52 -34l-83 122q-38 -23 -79 -23q-72 0 -133 57.5t-61 127.5q0 32 21.5 64.5t47 54.5t75.5 61q-92 70 -92 146
q0 48 36.5 82.5t94.5 34.5t105 -43.5t47 -101.5q0 -38 -65 -98q-6 -6 -20 -18.5t-17 -15.5q102 -73 196 -73q22 0 38 4q11 19 49 19h17v258h-142l-39 60h665l40 -60h-154z" />
    <glyph glyph-name="uni0915094D0937094D092E094D" horiz-adv-x="816" 
d="M335 568q0 28 -19.5 47.5t-58 19.5t-65.5 -26t-27 -64q0 -52 68 -98q102 69 102 121zM662 290v-73q0 -25 -24 -25q-21 0 -53 26.5t-50 58.5q-18 -2 -28 -2q-61 0 -129 30.5t-122 75.5q-3 -2 -26 -19.5t-29 -23t-25 -21.5t-25.5 -25.5t-17.5 -23.5q-19 -26 -19 -62
t34.5 -66t80 -30t65.5 21q-26 40 -26 60.5t17.5 35.5t39.5 15t45.5 -28.5t23.5 -58t-31 -53.5l101 -111l-51 -34l-84 122q-38 -23 -79 -23q-72 0 -133 57.5t-61 127.5q0 32 22 65t47 54.5t76 60.5q-93 69 -93 146q0 48 37 82.5t94.5 34.5t104.5 -43.5t47 -101.5
q0 -38 -57 -92q-8 -7 -24 -21.5t-20 -18.5q100 -73 195 -73q18 0 41 5q10 18 47 18h18v258h-143l-39 60h427l40 -60h-214v-258h224l42 -67h-266z" />
    <glyph glyph-name="uni0915094D0937094D092E094D092F" horiz-adv-x="1366" 
d="M1201 615h-221q36 -24 54 -58.5t18 -53t-3 -28.5t-10.5 -20t-13.5 -17t-20 -16.5t-22 -14.5t-26 -16.5t-22.5 -14.5t-13 -8.5t-11 -8t-6.5 -7.5q-9 -11 -9 -24q0 -38 42.5 -68.5t94.5 -30.5t97 35t72 85v266zM641 357h181q-2 14 -2 19q0 17 19 26q86 43 116.5 70.5
t30.5 50t-19.5 49t-51.5 43.5h-274v-258zM335 568q0 28 -19.5 47.5t-58 19.5t-66 -26t-27.5 -64q0 -50 68 -98q103 68 103 121zM1272 615v-615l-72 51l2 196q-69 -81 -152 -81q-52 0 -107.5 36.5t-90.5 87.5h-211v-73q0 -25 -23 -25t-56 27.5t-50 60.5h-10
q-61 0 -128.5 29.5t-117.5 71.5q-3 -2 -26 -19.5t-29 -23t-25 -21.5t-25.5 -25.5t-17.5 -23.5q-19 -26 -19 -62t34.5 -66t80 -30t65.5 21q-26 40 -26 61t17.5 35.5t39.5 14.5t45.5 -28.5t23.5 -58t-31 -53.5l101 -111l-52 -34l-83 122q-38 -23 -79 -23q-72 0 -133 57.5
t-61 127.5q0 32 21.5 64.5t47 54.5t75.5 61q-92 70 -92 146q0 48 36.5 82.5t94.5 34.5t105 -43.5t47 -101.5q0 -38 -65 -98q-6 -6 -20 -18.5t-17 -15.5q41 -30 93.5 -50.5t97.5 -20.5q10 0 24 2q11 19 48 19h2q12 7 13 8l3 -3v253h-143l-39 60h998l40 -60h-154z" />
    <glyph glyph-name="uni0915094D0937094D092F" horiz-adv-x="1066" 
d="M901 615h-221q36 -24 54 -58.5t18 -53t-3 -28.5t-10.5 -20t-13.5 -17t-20 -16.5t-22 -14.5t-26 -16.5t-22.5 -14.5t-13 -8.5t-11 -8t-6.5 -7.5q-9 -11 -9 -24q0 -38 42.5 -68.5t94.5 -30.5t97 35t72 85v266zM335 568q0 28 -19.5 47.5t-58 19.5t-66 -26t-27.5 -64
q0 -50 68 -98q103 68 103 121zM972 615v-615l-72 51l2 196q-69 -81 -152 -81q-62 0 -128.5 51.5t-91.5 112.5q-36 -10 -75 -10q-96 0 -199 61q-3 -2 -26 -19.5t-29 -23t-25 -21.5t-25.5 -25.5t-17.5 -23.5q-19 -26 -19 -62t34.5 -66t80 -30t65.5 21q-26 40 -26 61t17.5 35.5
t39.5 14.5t45.5 -28.5t23.5 -58t-31 -53.5l101 -111l-52 -34l-83 122q-38 -23 -79 -23q-72 0 -133 57.5t-61 127.5q0 32 21.5 64.5t47 54.5t75.5 61q-92 70 -92 146q0 48 36.5 82.5t94.5 34.5t105 -43.5t47 -101.5q0 -38 -65 -98q-6 -6 -20 -18.5t-17 -15.5q64 -31 125 -31
q74 0 121 24q89 44 120 72t31 50.5t-19.5 49t-51.5 43.5h-173l-40 60h684l40 -60h-154z" />
    <glyph glyph-name="uni0915094D0937094D0935" horiz-adv-x="1058" 
d="M335 568q0 28 -19.5 47.5t-58 19.5t-66 -26t-27.5 -64q0 -50 68 -98q103 68 103 121zM965 615v-615l-72 61l4 167q-29 -33 -71.5 -57t-80.5 -24q-74 0 -138 56.5t-71 134.5q-42 -19 -80 -19q-100 0 -200 62q-3 -2 -26 -19.5t-29 -23t-25 -21.5t-25.5 -25.5t-17.5 -23.5
q-19 -26 -19 -62t34.5 -66t80 -30t65.5 21q-26 40 -26 61t17.5 35.5t39.5 14.5t45.5 -28.5t23.5 -58t-31 -53.5l101 -111l-52 -34l-83 122q-38 -23 -79 -23q-72 0 -133 57.5t-61 127.5q0 32 21.5 64.5t47 54.5t75.5 61q-92 70 -92 146q0 48 36.5 82.5t94.5 34.5t105 -43.5
t47 -101.5q0 -38 -65 -98q-6 -6 -20 -18.5t-17 -15.5q60 -32 118 -32q77 0 144 58q21 45 62 71t89 26q78 0 149 -74l-22 -34q-41 45 -99.5 45t-96 -43t-37.5 -94.5t32.5 -87.5t88.5 -36q37 0 84.5 32t91.5 91v286h-440l-41 60h666l41 -60h-154z" />
    <glyph glyph-name="uni091C094D091E" horiz-adv-x="710" 
d="M544 387h-219q79 -71 79 -163q0 -52 -34.5 -88.5t-91.5 -36.5q-31 0 -58 9l79 -136l-47 -30l-103 209q-93 84 -93 130q0 20 11.5 32.5t25.5 12.5t23 -10t18.5 -28.5t17 -35.5t17 -40.5t13.5 -32.5q30 -24 72.5 -24t68.5 25.5t26 70.5q0 27 -8 43.5t-12 26t-15 23
t-15.5 20.5t-18.5 21.5t-18 18.5l-37 37l6 10h313v164h-564l-40 60h790l40 -60h-154v-615l-72 49v338z" />
    <glyph glyph-name="uni091C094D091E094D" horiz-adv-x="463" 
d="M404 224q0 -52 -34.5 -88.5t-91.5 -36.5q-31 0 -58 9l79 -136l-47 -30l-103 209q-93 84 -93 130q0 20 11.5 32.5t25.5 12.5t23 -10t18.5 -28.5t17 -35.5t17 -40.5t13.5 -32.5q30 -24 72.5 -24t68.5 25.5t26 70.5q0 27 -8 43.5t-12 26t-15 23t-15.5 20.5t-18.5 21.5
t-18 18.5l-37 37l6 10h334l41 -64h-281q79 -71 79 -163zM523 615h-543l-40 60h543z" />
    <glyph glyph-name="uni091C094D091E094D092F" horiz-adv-x="1057" 
d="M893 615h-221q36 -24 54 -58.5t18 -53t-3 -28.5t-10.5 -20t-13.5 -17t-20 -16.5t-22 -14.5t-26 -16.5t-22.5 -14.5t-13 -8.5t-11 -8t-6.5 -7.5q-9 -11 -9 -24q0 -38 42.5 -68.5t94.5 -30.5t97 35t72 85v266zM964 615v-615l-72 51l2 196q-69 -81 -147 -81t-152 67t-82 132
q-42 22 -95 22h-93q79 -71 79 -163q0 -52 -34.5 -88.5t-91.5 -36.5q-31 0 -58 9l79 -136l-47 -30l-103 209q-93 84 -93 130q0 20 11.5 32.5t25.5 12.5t23 -10t18.5 -28.5t17 -35.5t17 -40.5t13.5 -32.5q30 -24 72.5 -24t68.5 25.5t26 70.5q0 27 -8 43.5t-12 26t-15 23
t-15.5 20.5t-18.5 21.5t-18 18.5l-37 37l6 10h162q98 0 159 -38q73 39 99.5 63.5t26.5 46.5t-19.5 48.5t-51.5 43.5h-627l-40 60h1138l40 -60h-154z" />
    <glyph glyph-name="uni0915094D0928" horiz-adv-x="801" 
d="M370 615h-391l-40 60h881l40 -60h-418q0 -7 -2.5 -89.5t-3.5 -87.5q20 29 52.5 48.5t66.5 19.5q80 0 141 -75t61 -156q0 -62 -41 -99t-105 -37q-34 0 -69 11l-21 64q38 -11 78.5 -11t70.5 24.5t30 76.5t-31.5 94t-87.5 42q-84 0 -139 -109v-331l-72 46l6 181l-168 -147
q4 -4 24 -27t25.5 -30t5.5 -16.5t-13.5 -16.5t-43.5 -7t-71 17.5t-41 47.5q0 17 24 38l82 68q-61 18 -107.5 81.5t-46.5 129.5t44.5 104.5t107.5 38.5q36 0 71 -13l21 -63q-29 11 -61 11q-51 0 -85.5 -30.5t-34.5 -83t36 -89t83 -36.5t142 95v316z" />
    <glyph glyph-name="uni0916094D0928" horiz-adv-x="795" 
d="M701 615v-615l-71 50l6 112q-11 -19 -38 -45t-48 -41l-189 -124q40 -54 44 -60t4 -17q-3 -22 -39 -22t-81 21t-45 53q0 21 28 39l122 78q-133 8 -242 139q-35 42 -57 75.5t-51 81.5l29 27q32 -34 65 -34q47 0 47 51v231h-203l-41 60h873l40 -60h-153zM486 495
q86 0 142 -65l1 185h-374v-250q0 -42 -27 -71t-76 -34q38 -61 105 -110t140 -49q107 0 172 83q-92 1 -155 47.5t-63 131.5q0 56 38 94t97 38zM635 323q0 50 -37 84.5t-82.5 34.5t-74 -27t-28.5 -73t31 -74q50 -45 133 -45q12 0 25 1q12 13 22.5 40.5t10.5 58.5z" />
    <glyph glyph-name="uni0917094D0928" horiz-adv-x="532" 
d="M438 615v-615l-71 52v183l-160 -151q4 -4 24 -27t25.5 -30t5.5 -16.5t-13.5 -16.5t-43.5 -7t-71 17.5t-41 47.5q0 18 25 38l249 214v311h-175v-312q0 -29 -5.5 -42t-21.5 -13q-30 0 -70 44t-40 76q0 29 66 29v218h-141l-41 60h613l41 -60h-155z" />
    <glyph glyph-name="uni0918094D0928" horiz-adv-x="618" 
d="M258 366q-127 0 -127 -84q0 -46 41 -77.5t94 -31.5t103 32.5t85 83.5l-1 326h-242q-32 -9 -56 -37t-24 -69.5t52 -84.5q30 6 64 6t64 -6l22 -66q-36 8 -75 8zM277 28l44 -51q11 -14 11 -23.5t-13.5 -16.5t-43 -7t-70.5 17t-41 47q0 17 25 38l99 88h-7q-76 0 -145 59.5
t-69 130.5t73 102q-36 22 -55.5 55t-19.5 61t12 52t35 37l-75 -2h-57l-40 60h698l41 -60h-154v-615l-72 48l1 149z" />
    <glyph glyph-name="uni091A094D0928" horiz-adv-x="681" 
d="M334 44l44 -51q11 -14 11 -23.5t-13.5 -16.5t-43 -7t-70.5 17t-41 47q0 17 24 39l94 80h-2q-68 0 -133.5 60.5t-65.5 131.5q0 29 19 57.5t46 40.5l-158 -3l-41 62h391l41 -62h-99q-58 -9 -96 -41.5t-38 -80t34.5 -78.5t80.5 -31q97 0 198 123v307h-536l-39 60h760l38 -60
h-152v-615l-71 49l1 171z" />
    <glyph glyph-name="uni091B094D0928" horiz-adv-x="698" 
d="M580 386q0 40 -15 67t-52 27t-62 -37t-25 -86q0 -71 87 -142q67 74 67 171zM539 615v-92q45 -18 70 -68t25 -104q0 -95 -66 -177q35 -26 125 -83l-35 -41q-54 37 -121 89q-15 -15 -35 -30v-494l-71 48v208h-145v-92q0 -26 -27.5 -26t-68 52t-40.5 92t53 40h228v132
q-55 -22 -109 -22q-96 0 -166.5 55.5t-70.5 136.5q0 51 47 78q-76 59 -76 117.5t43.5 86.5t111.5 28q37 0 77 -8l23 -64q-39 6 -75 6q-112 0 -112 -74q0 -35 51 -75q35 8 66 8t59 -5l25 -66q-35 7 -69 7q-105 0 -105 -77q0 -42 37 -69.5t99 -27.5q110 0 197 80
q-118 100 -118 205q0 53 27 93.5t75 48.5v84h-488l-40 60h778l41 -60h-220z" />
    <glyph glyph-name="uni091C094D0928" horiz-adv-x="803" 
d="M489 89l45 -52q10 -13 10 -22.5t-13.5 -16.5t-43.5 -7t-70.5 17t-40.5 47q0 17 25 38l242 229q-24 40 -80 64.5t-129 24.5h-100q77 -68 77 -159q0 -52 -33 -87t-82.5 -35t-86.5 21.5t-62.5 51t-49.5 75.5q-35 69 -67 162l39 23q39 -123 71 -175q41 -66 76 -84
q23 -12 56.5 -12t57.5 23.5t24 65.5q0 31 -11.5 51.5t-15.5 27.5t-14 19.5t-14.5 18t-17 18.5t-15.5 16l-33 33l7 9h184q125 0 215 -96l-1 237h-658l-40 60h883l41 -60h-154v-615l-72 48l1 202z" />
    <glyph glyph-name="uni091D094D0928" horiz-adv-x="800" 
d="M622 12q0 -20 -31 -28t-62 -8q-79 0 -79 44q0 16 13 36l160 254q-57 -45 -112 -45q-33 0 -72 11q33 -43 33 -85.5t-36 -79t-82 -54t-89 -19.5l143 -148l-47 -32l-154 185q-53 14 -96 49t-43 69q0 15 15.5 25.5t33.5 10.5t41.5 -24.5t62.5 -74.5h11q62 0 125 31.5t63 88.5
q0 25 -17 41.5t-39.5 16.5t-71.5 -18.5t-76 -18.5q-48 0 -97 54t-49 109.5t36.5 86t92.5 30.5h152v96h-371l-41 60h881l40 -60h-154v-615l-71 48l2 188l-88 -161q54 -36 57 -39q16 -12 16 -24zM636 615h-214v-160h-205q-38 0 -66 -20t-28 -56t18.5 -58t46 -22t78.5 19t64 19
t26 -2t37 -7q50 -12 86 -12q76 0 157 74v225z" />
    <glyph glyph-name="uni091F094D0928" horiz-adv-x="514" 
d="M420 424h-147q-59 0 -105.5 -35.5t-46.5 -107t50.5 -115t119.5 -43.5q89 0 151 65l44 -57q-29 -32 -67 -50v-466l-68 47v207h-141v-92q0 -25 -23 -25q-31 0 -71 51.5t-40 91t52 39.5h223v126q-18 -2 -29 -2q-97 0 -181 78t-84 175q0 76 48 126.5t137 50.5h106v127h-368
l-40 60h594l40 -60h-154v-191z" />
    <glyph glyph-name="uni0920094D0928" horiz-adv-x="577" 
d="M282 424q-161 0 -161 -146q0 -67 52 -114t125.5 -47t121 43t47.5 114q0 48 -28 87.5t-70 62.5h-87zM417 615v-174q111 -71 111 -189q0 -57 -26.5 -102t-73.5 -69v-458l-68 47v202h-141v-91q0 -25 -23 -25q-31 0 -71 51.5t-40 91t52 39.5h223v123q-20 -2 -31 -2
q-105 0 -188 77t-83 183q0 74 47 121.5t134 47.5h106v127h-365l-40 60h657l40 -60h-220z" />
    <glyph glyph-name="uni0921094D0928" horiz-adv-x="525" 
d="M431 439h-205q-91 0 -91 -82q0 -33 19.5 -56.5t45 -23.5t79 20.5t75.5 20.5q51 0 89.5 -49.5t38.5 -100t-42 -94.5v-465l-68 48v198h-141v-91q0 -26 -23 -26q-31 0 -71 51.5t-40 91.5t52 40h223v110q-37 -13 -80 -13q-68 0 -134 43.5t-111 114.5l33 27q38 -57 87.5 -92.5
t110 -35.5t106.5 36.5t46 85.5q0 24 -15 42t-37 18t-72 -20t-79 -20q-50 0 -98 53t-48 111.5t34 90t93 31.5h153v112h-380l-41 60h605l40 -60h-154v-176z" />
    <glyph glyph-name="uni0924094D0928" horiz-adv-x="594" 
d="M326 217l43 -50q11 -14 11 -23t-13.5 -16t-42.5 -7t-68.5 16.5t-39.5 45.5q0 17 24 37l182 156h-180q-59 0 -90 -29t-31 -83q0 -97 107 -239l-35 -25q-134 173 -134 303q0 67 43 106.5t121 39.5h207v166h-450l-40 60h674l40 -60h-154v-615l-70 48v268z" />
    <glyph glyph-name="uni0925094D0928" horiz-adv-x="646" 
d="M294 73l45 -51q10 -13 10 -20q0 -27 -43 -27t-83.5 17.5t-40.5 47.5q0 17 24 38l104 91q-7 -1 -14 -1q-72 0 -140.5 61t-68.5 126q0 19 22 33q8 5 55.5 30.5t74.5 44.5q76 49 76 95q0 28 -21.5 50t-55 22t-57.5 -21t-24 -53t33 -60l-30 -23q-60 54 -60 110q0 40 33 70
t80 30q62 0 110.5 -50.5t48.5 -104.5q0 -44 -46 -82q-45 -36 -84 -58.5t-43.5 -25.5l-10.5 -7l-12 -8q-17 -13 -17 -32q0 -38 38.5 -65t79 -27t81.5 21t65 42t58 55v274h-76l-40 60h301l40 -60h-154v-615l-71 49l1 203z" />
    <glyph glyph-name="uni0926094D0928" horiz-adv-x="542" 
d="M241 11q38 -59 38 -77q0 -23 -33 -23t-78 26t-45 58q0 23 33 40l98 51q-55 5 -110 57q-39 35 -63 83t-24 97q0 72 48.5 119.5t135.5 47.5h105v125h-366l-38 60h620l38 -60h-182v-189h-136q-162 0 -162 -139q0 -61 46.5 -106.5t103.5 -45.5q26 0 47.5 7t30.5 14l8 7
q-29 43 -29 69t21.5 44t49 18t52.5 -33t25 -65t-44 -69l104 -123l-44 -32l-94 132z" />
    <glyph glyph-name="uni0927094D0928" horiz-adv-x="603" 
d="M283 56l44 -52q11 -13 11 -22.5t-13.5 -16.5t-43.5 -7t-70.5 17t-40.5 47q0 17 25 38l84 71h-5q-75 0 -138.5 58t-63.5 130.5t73 100.5q-78 50 -78 113q0 53 45 83l-104 -1h-28l-40 60h302l40 -60h-65q-35 -9 -58.5 -36.5t-23.5 -60.5q1 -46 55 -86q17 3 42.5 3t67.5 -7
l22 -68q-47 9 -83 9t-69.5 -19t-33.5 -63.5t33.5 -72.5t88.5 -28q96 0 180 102v327h-51l-40 60h276l40 -60h-153v-615l-72 48l1 157z" />
    <glyph glyph-name="uni0928094D0928" horiz-adv-x="565" 
d="M236 110l44 -52q10 -13 10 -20q0 -26 -43 -26t-83.5 17t-40.5 47q0 17 24 38l258 215q-33 36 -96.5 77.5t-116.5 41.5h-8v-78q0 -26 -24 -26q-32 0 -72 46t-40 85.5t53 39.5h47q112 0 253 -135v235h-408l-41 60h633l41 -60h-154v-615l-71 48v214z" />
    <glyph glyph-name="uni092A094D0928" horiz-adv-x="542" 
d="M192 87l44 -51q11 -13 11 -20q0 -26 -43.5 -26t-84 17t-40.5 47q0 17 25 38l156 137q-61 1 -120.5 63.5t-59.5 132.5v190h-100l-41 60h623l40 -60h-154v-615l-71 48l2 217zM244 283q68 0 133 71v261h-226v-225q0 -48 28 -77.5t65 -29.5z" />
    <glyph glyph-name="uni092B094D0928" horiz-adv-x="807" 
d="M180 98l45 -52q10 -13 10 -20q0 -26 -43.5 -26t-83.5 17t-40 47q0 17 24 38l159 139q-61 1 -118.5 65t-57.5 136v173h-95l-40 60h887l40 -60h-432l-3 -194q50 52 122 52t137.5 -69t65.5 -142t-44.5 -113.5t-114.5 -40.5q-16 0 -52 6l-23 65q26 -7 57 -7q53 0 85.5 28
t32.5 80.5t-33 91t-83 38.5q-99 0 -147 -92v-318l-73 49l5 225zM364 368v247h-218v-212q0 -46 25 -76.5t65 -30.5q71 0 124 66q4 5 4 6z" />
    <glyph glyph-name="uni092C094D0928" horiz-adv-x="576" 
d="M231 67l45 -51q10 -13 10 -20q0 -27 -43 -27t-84 17.5t-41 47.5q0 17 25 38l89 77q-73 9 -130 69t-57 135.5t52.5 125t117.5 49.5q79 0 147 -71l-23 -33q-43 45 -91 45t-82 -25l177 -190q23 21 68 71v290h-431l-41 60h657l41 -60h-154v-615l-72 62l1 179zM141.5 237.5
q37.5 -38.5 84 -38.5t88.5 31l-177 190q-33 -40 -33 -92t37.5 -90.5z" />
    <glyph glyph-name="uni092D094D0928" horiz-adv-x="571" 
d="M253 69l44 -51q11 -13 11 -20q0 -27 -43 -27t-84 17.5t-41 47.5q0 17 24 38l242 210v9h-215v-73q0 -25 -23 -25q-31 0 -74 46.5t-43 82.5t49 36h20v175q0 35 -18.5 57.5t-52.5 22.5h-69l-40 60h76q56 0 96 -35q27 -24 37 -34q42 -41 42 -101v-144h215v254h-130l-40 60
h355l41 -60h-154v-615l-72 50v165z" />
    <glyph glyph-name="uni092E094D0928" horiz-adv-x="597" 
d="M270 69l45 -51q10 -13 10 -20q0 -27 -43 -27t-83.5 17.5t-40.5 47.5q0 17 24 38l249 207v11h-240v-72q0 -25 -23 -25q-31 0 -74 46t-43 82.5t52 36.5h17v255h-140l-39 60h676l39 -60h-153v-615l-72 50v171zM191 615v-255h240v255h-240z" />
    <glyph glyph-name="uni092F094D0928" horiz-adv-x="604" 
d="M248 65l45 -52q10 -13 10 -22.5t-13.5 -16.5t-43.5 -7t-70 17t-40 47q0 17 24 38l118 104q-74 0 -147 70t-73 133q0 17 19 26q86 43 116.5 70.5t30.5 50t-19.5 49t-51.5 43.5h-173l-40 60h684l40 -60h-154v-615l-72 51l1 196zM175.5 259.5q42.5 -30.5 76 -30.5t57 7
t39.5 16.5t33.5 24.5t25.5 24t19.5 23.5t12.5 15.5v275h-221q36 -24 54 -58.5t18 -53t-3 -28.5t-10.5 -20t-13.5 -17t-20 -16.5t-22 -14.5t-26 -16.5t-22.5 -14.5t-13 -8.5t-11 -8t-6.5 -7.5q-9 -11 -9 -24q0 -38 42.5 -68.5z" />
    <glyph glyph-name="uni0935094D0928" horiz-adv-x="574" 
d="M227 59l44 -51q11 -13 11 -20q0 -26 -43.5 -26t-84 17t-40.5 47q0 17 25 38l102 89q-75 6 -133.5 65.5t-58.5 136.5t51 126t123.5 49t143.5 -74l-22 -34q-40 46 -100 46t-97 -42t-37 -95t33 -89.5t89 -36.5q74 0 176 118v292h-429l-41 60h655l41 -60h-154v-615l-72 61
l2 176z" />
    <glyph glyph-name="uni0936094D0928" horiz-adv-x="695" 
d="M601 615v-615l-71 48v210l-4 2l-163 -117q50 -65 50 -76q0 -25 -42 -25t-83.5 22t-41.5 50q0 18 28 38l195 138l-186 89q-86 -62 -191 -112l-54 41q129 64 186 107q-100 69 -100 152q0 52 37.5 86.5t93.5 34.5t104 -49.5t48 -107.5q0 -33 -27 -65q-24 -29 -42.5 -45
t-19.5 -17l212 -102v313h-78l-40 60h294l40 -60h-145zM333 613.5q-23 20.5 -61 20.5t-64 -26t-26 -65q0 -56 76 -104q39 23 68.5 56.5t29.5 65.5t-23 52.5z" />
    <glyph glyph-name="uni0938094D0928" horiz-adv-x="725" 
d="M477 144q0 -25 -42.5 -25t-84 21.5t-41.5 49.5q0 19 28 39l184 128q-61 48 -116 48q-33 0 -75.5 -19t-73 -40t-66 -48.5t-41.5 -31.5q55 -82 196 -234l-52 -32q-187 227 -263 341l35 32q38 -36 65 -36q44 0 44 51v227h-187l-40 60h796l41 -60h-153v-615l-69 50l3 269
l-139 -99q51 -67 51 -76zM396 468q81 0 166 -73v220h-318v-222q85 75 152 75z" />
    <glyph glyph-name="uni0939094D0928" horiz-adv-x="541" 
d="M415 437h-186q-49 0 -73 -11t-24 -48.5t40 -77.5q49 26 97 26q71 0 133.5 -59.5t62.5 -112.5v-158l-56 43v154l-104 -75q2 -2 11.5 -15t17.5 -24q16 -20 16 -29q0 -22 -37.5 -22t-74.5 19.5t-37 44.5q0 15 25 34l155 110q-33 30 -89.5 30t-106 -41t-49.5 -102
q0 -37 24 -72q26 -39 50.5 -58t38 -30t35.5 -24t32 -19q46 -26 52 -28l-39 -27q-26 13 -70 42t-59.5 42t-37 31.5t-35.5 37t-27 40.5q-27 42 -27 91q0 74 64 128q-77 70 -77 137q0 41 28 63.5t78 22.5h178v115h-376l-40 60h636l41 -60h-190v-178z" />
    <glyph glyph-name="uni0915094D0930" horiz-adv-x="793" 
d="M97.5 229q-51.5 66 -51.5 134t44.5 106.5t107.5 38.5q36 0 71 -13l21 -63q-29 11 -61 11q-51 0 -85.5 -30.5t-34.5 -83t36 -89t83.5 -36.5t141.5 94v317h-374l-41 60h868l40 -60h-421q0 -7 -2.5 -89.5t-3.5 -87.5q20 29 52.5 48.5t66.5 19.5q80 0 141 -75t61 -156
q0 -62 -41 -99t-105 -37q-34 0 -69 11l-21 64q38 -11 78.5 -11t70.5 24.5t30 76.5t-31.5 94t-87.5 42q-84 0 -139 -109v-331l-72 46l6 181l-247 -223l-54 44l133 107q-59 8 -110.5 74z" />
    <glyph glyph-name="uni0916094D0930" horiz-adv-x="777" 
d="M386 48q-193 0 -360 292l29 27q34 -34 66 -34q47 0 47 51v231h-181l-40 60h850l41 -60h-153v-615l-71 47l5 119q-9 -15 -45.5 -48t-74 -59t-112.5 -74t-103 -66l-55 42l161 87h-4zM469 495q86 0 144 -67l1 187h-376v-250q0 -42 -27 -71t-76 -34q41 -67 107 -113t140 -46
q102 0 171 83q-92 1 -156 47.5t-64 131.5q0 56 38.5 94t97.5 38zM617 317q0 58 -37 91.5t-82 33.5t-73.5 -27t-28.5 -73t32 -74q49 -45 131 -45q12 0 25 1q12 12 22.5 38t10.5 55z" />
    <glyph glyph-name="uni0917094D0930" horiz-adv-x="539" 
d="M445 615v-615l-72 52v182l-239 -228l-54 37l293 263v309h-174v-314q0 -29 -5.5 -42t-21.5 -13q-31 0 -70.5 43.5t-39.5 76.5q0 29 66 29v220h-142l-41 60h614l41 -60h-155z" />
    <glyph glyph-name="uni0918094D0930" horiz-adv-x="629" 
d="M282 366q-127 0 -127 -84q0 -46 41 -77.5t94 -31.5q89 0 173 97v345h-228q-32 -9 -56.5 -37t-24.5 -69.5t52 -84.5q32 6 65.5 6t63.5 -6l22 -66q-38 8 -75 8zM313 118q-80 0 -151 59.5t-71 131.5t73 103q-36 22 -55.5 55t-19.5 61q0 60 46 89l-74 -2h-67l-40 60h695
l40 -60h-154v-615l-72 47l2 137l-236 -227l-53 37l147 124h-10z" />
    <glyph glyph-name="uni0919094D0930" horiz-adv-x="599" 
d="M432 439h-205q-91 0 -91 -82q0 -33 19.5 -56t45 -23t79 20.5t75.5 20.5q51 0 90 -50.5t39 -99.5t-38.5 -92t-102.5 -56l140 -159l-36 -24l-146 176l-148 -176l-54 43l136 144q-53 16 -102 55.5t-85 95.5l34 27q37 -57 87 -92.5t110.5 -35.5t106 36.5t45.5 85.5
q0 24 -15 42t-37 18t-72 -20t-79 -20q-50 0 -97.5 53t-47.5 111.5t33.5 91t92.5 32.5h153v110h-382l-41 60h680l39 -60h-226v-176zM479 350l55 56l58 -56l-57 -56z" />
    <glyph glyph-name="uni091A094D0930" horiz-adv-x="697" 
d="M603 615v-615l-72 48l2 159l-251 -243l-54 38l153 127q-8 -1 -16 -1q-64 0 -131 60t-67 133q0 29 19 57.5t46 40.5l-157 -3l-42 62h391l42 -62h-100q-58 -9 -96 -41.5t-38 -80t34.5 -78.5t81.5 -31q93 0 184 109v321h-519l-39 60h743l38 -60h-152z" />
    <glyph glyph-name="uni091B094D0930" horiz-adv-x="698" 
d="M580 386q0 40 -15 67t-52 27t-62 -37t-25 -86q0 -71 87 -142q67 74 67 171zM539 615v-92q45 -18 70 -68t25 -104q0 -95 -66 -177q35 -26 125 -83l-35 -41q-54 37 -121 89q-65 -62 -147 -83l141 -161l-36 -23l-146 175l-148 -175l-54 42l128 137q-81 13 -135.5 65.5
t-54.5 122.5q0 51 47 78q-76 59 -76 117.5t43.5 86.5t111.5 28q37 0 77 -8l23 -64q-39 6 -75 6q-112 0 -112 -74q0 -35 51 -75q35 8 66 8t59 -5l25 -66q-35 7 -69 7q-105 0 -105 -77q0 -42 37 -69.5t99 -27.5q110 0 197 80q-118 100 -118 205q0 53 27 93.5t75 48.5v84h-488
l-40 60h778l41 -60h-220z" />
    <glyph glyph-name="uni091C094D0930" horiz-adv-x="817" 
d="M447 411h-100q77 -68 77 -159q0 -52 -32.5 -87t-82 -35t-86.5 21.5t-62.5 51t-50.5 75.5q-35 68 -67 162l40 23q39 -123 71 -175q41 -66 75 -84q23 -12 56.5 -12t57.5 23.5t24 59.5t-19.5 70.5t-37.5 54.5t-39 41l-24 24l6 9h184q130 0 216 -92l-1 233h-651l-40 60h876
l40 -60h-154v-615l-71 48l1 202l-224 -245l-54 38l284 277q-24 39 -82 65t-130 26z" />
    <glyph glyph-name="uni091D094D0930" horiz-adv-x="800" 
d="M511 265q-29 0 -75 13q36 -41 36 -84.5t-35 -80t-80.5 -54.5t-88.5 -21l140 -148l-47 -32l-154 185q-53 14 -95.5 49t-42.5 69q0 15 15 25.5t34 10.5q27 0 103 -99h11q63 0 125.5 31.5t62.5 88.5q0 25 -17 41.5t-39 16.5t-71.5 -18.5t-76.5 -18.5q-48 0 -97 54t-49 109.5
t36.5 86t92.5 30.5h152v96h-374l-41 60h884l40 -60h-154v-615l-71 48l2 181l-145 -282l-54 38l202 331q-62 -51 -129 -51zM335 337l19 -1q10 -2 34 -8q56 -12 91 -12q88 0 157 77v222h-214v-160h-204q-39 0 -67 -20t-28 -56t18.5 -58t46 -22t78.5 19t69 19z" />
    <glyph glyph-name="uni091E094D0930" horiz-adv-x="768" 
d="M262 208q64 0 103 35.5t39 100.5q0 43 -28.5 72.5t-78.5 29.5q-27 0 -54.5 -14.5t-42.5 -32.5l-49 53q58 57 119 57q121 0 185 -154q27 -12 45 -12q59 0 103 57v215h-623l-41 60h849l41 -60h-154v-615l-72 61l4 182l-222 -252l-54 38l276 286q-41 -32 -76.5 -32t-69.5 22
q-1 -17 -6 -32q-15 -60 -59.5 -92.5t-94.5 -32.5t-90.5 19t-77.5 55q-55 55 -117 140l31 28l13 -18q13 -19 18 -25t19 -25t23.5 -28.5t24.5 -25.5t27.5 -24.5t27.5 -17.5q29 -18 62 -18z" />
    <glyph glyph-name="uni091F094D0930" horiz-adv-x="514" 
d="M57 311q0 76 48 126.5t137 50.5h106v127h-368l-40 60h594l40 -60h-154v-191h-147q-59 0 -105.5 -35.5t-46.5 -107t50.5 -115t119.5 -43.5q89 0 151 65l44 -57q-51 -58 -132 -71l136 -154l-36 -24l-146 176l-148 -176l-54 43l139 147q-78 28 -133 95.5t-55 143.5z" />
    <glyph glyph-name="uni0920094D0930" horiz-adv-x="575" 
d="M282 424q-161 0 -161 -146q0 -67 52 -114t125.5 -47t121 43t47.5 114q0 48 -28 87.5t-70 62.5h-87zM417 615v-174q111 -71 111 -189q0 -78 -48.5 -131.5t-128.5 -60.5l134 -153l-36 -24l-146 176l-148 -176l-53 43l139 149q-78 28 -130.5 95t-52.5 145t47 125.5t134 47.5
h106v127h-365l-40 60h657l40 -60h-220z" />
    <glyph glyph-name="uni0921094D0930" horiz-adv-x="525" 
d="M431 439h-205q-91 0 -91 -82q0 -33 19.5 -56.5t45 -23.5t79 20.5t75.5 20.5q51 0 89.5 -49.5t38.5 -99t-39 -92.5t-105 -55l137 -156l-36 -24l-146 176l-149 -176l-53 43l135 144q-107 34 -179 147l33 27q38 -57 87.5 -92.5t110 -35.5t106.5 36.5t46 85.5q0 24 -15 42
t-37 18t-72 -20t-79 -20q-50 0 -98 53t-48 111.5t34 90t93 31.5h153v112h-380l-41 60h605l40 -60h-154v-176z" />
    <glyph glyph-name="uni0922094D0930" horiz-adv-x="527" 
d="M425.5 263.5q-14.5 14.5 -45.5 14.5t-53 -25.5t-22 -64t27 -67.5q44 7 76 34.5t32 69.5q0 24 -14.5 38.5zM417 428h-136q-164 0 -164 -147q0 -66 51 -114t122 -50q-41 44 -41 96t31 86t81 34t91.5 -39.5t41.5 -93t-39 -89t-94 -47.5l137 -156l-36 -23l-146 175l-148 -175
l-54 42l135 144q-82 25 -137.5 94t-55.5 149.5t46.5 129t132.5 48.5h110v123h-358l-41 60h601l40 -60h-170v-187z" />
    <glyph glyph-name="uni0923094D0930" horiz-adv-x="726" 
d="M632 615v-615l-71 50v183l-252 -238l-54 38l306 270v312h-159v-255q0 -61 -35.5 -99t-96 -38t-127.5 57q-71 64 -71 153v182h-124l-40 60h838l41 -60h-155zM168.5 316q26.5 -35 73.5 -35t68.5 26t21.5 83v225h-190v-205q0 -59 26.5 -94z" />
    <glyph glyph-name="uni0924094D0930" horiz-adv-x="580" 
d="M491 615v-615l-72 49v252l-233 -193l-53 41l268 207q-78 100 -151 100t-144 -55l-44 55q72 58 157 58q100 0 200 -124v225h-415l-41 60h632l41 -60h-145z" />
    <glyph glyph-name="uni0925094D0930" horiz-adv-x="677" 
d="M326 167q-68 0 -138 61t-70 127q0 19 22 33q10 6 57 32t74 44q75 48 75 94q0 28 -21.5 50t-55 22t-57.5 -21t-24 -52.5t33 -60.5l-29 -23q-61 54 -61 110q0 40 33 70t80 30q62 0 110.5 -50.5t48.5 -104.5q0 -44 -46 -82q-40 -33 -80.5 -56.5t-49.5 -29.5q-36 -22 -36 -45
q0 -38 38 -65t80 -27q94 0 203 115v277h-75l-41 60h301l40 -60h-154v-615l-71 48l2 205l-280 -261l-54 37l171 140q-12 -2 -25 -2z" />
    <glyph glyph-name="uni0926094D0930" horiz-adv-x="542" 
d="M418 426h-136q-162 0 -162 -139q0 -61 46.5 -106.5t103.5 -45.5q26 0 47.5 7t30.5 14l8 7q-29 43 -29 69t21.5 44t49 18t52.5 -33t25 -65t-44 -69l104 -123l-44 -32l-94 132l-229 -155l-54 37l156 95q-65 4 -126 62q-39 35 -63 83t-24 97q0 72 48.5 119.5t135.5 47.5h105
v125h-366l-38 60h620l38 -60h-182v-189z" />
    <glyph glyph-name="uni0927094D0930" horiz-adv-x="421" 
d="M278 129q-70 0 -135.5 58t-65.5 131.5t73 101.5q-78 51 -78 109t46 87l-113 -1h-28l-41 60h311l40 -60h-64q-36 -9 -59.5 -36.5t-23 -66.5t55.5 -80q15 3 41 3t68 -7l23 -68q-50 9 -84.5 9t-68 -19t-33.5 -63.5t33 -72.5t88 -28q94 0 180 101v328h-51l-40 60h268l40 -60
h-146v-615l-71 48l2 155l-233 -224l-54 38l134 113q-7 -1 -14 -1z" />
    <glyph glyph-name="uni0928094D0930" horiz-adv-x="559" 
d="M465 615v-615l-71 48v203l-228 -255l-54 37l282 292v18h-211v-92q0 -26 -23 -26q-31 0 -71.5 52t-40.5 92t53 40h293v206h-405l-41 60h631l41 -60h-155z" />
    <glyph glyph-name="uni092A094D0930" horiz-adv-x="544" 
d="M257 229q-58 0 -117 62t-59 134v190h-110l-41 60h634l39 -60h-153v-615l-72 48l3 216l-259 -263l-55 38l206 191q-8 -1 -16 -1zM245 283q64 0 134 74v258h-226v-225q0 -48 27.5 -77.5t64.5 -29.5z" />
    <glyph glyph-name="uni092B094D0930" horiz-adv-x="803" 
d="M75 442v173h-93l-41 60h856l41 -60h-404l-3 -194q50 52 122 52t137.5 -69t65.5 -142t-45 -113.5t-114 -40.5q-16 0 -52 6l-23 65q24 -7 67 -7t75.5 28t32.5 80.5t-33 91t-79.5 38.5t-86.5 -23.5t-64 -68.5v-318l-73 47l4 227l-284 -272l-53 37l227 201q-63 2 -121.5 66
t-58.5 136zM236 296q73 0 127 72v247h-217v-212q0 -46 25 -76.5t65 -30.5z" />
    <glyph glyph-name="uni092C094D0930" horiz-adv-x="595" 
d="M501 615v-615l-71 60l1 177q-164 -164 -245 -239l-53 38l138 113h-7q-71 0 -135.5 63t-64.5 140.5t52.5 127t117.5 49.5q80 0 148 -71l-24 -33q-43 45 -91 45t-82 -25l177 -190q60 60 68 70v290h-430l-41 60h655l41 -60h-154zM161.5 238.5q37.5 -38.5 84 -38.5t87.5 32
l-177 189q-32 -38 -32 -91t37.5 -91.5z" />
    <glyph glyph-name="uni092D094D0930" horiz-adv-x="571" 
d="M406 294h-215v-71q0 -25 -23 -25q-31 0 -74 45t-43 81t50 36h19v175q0 35 -18.5 57.5t-52.5 22.5h-70l-40 60h77q56 0 96 -35q28 -24 42 -39q37 -38 37 -96v-144h215v254h-130l-40 60h347l41 -60h-146v-615l-72 50v164l-227 -217l-54 38l281 246v13z" />
    <glyph glyph-name="uni092E094D0930" horiz-adv-x="597" 
d="M428 294h-233v-71q0 -25 -23 -25q-32 0 -74.5 44.5t-42.5 81t52 36.5h17v255h-150l-40 60h683l39 -60h-153v-615l-72 50v164l-230 -221l-53 38l280 250v13zM195 615v-255h236v255h-236z" />
    <glyph glyph-name="uni092F094D0930" horiz-adv-x="590" 
d="M263 173q-73 0 -145.5 69t-72.5 134q0 17 18 26q86 43 116.5 70.5t30.5 50.5t-19 49t-52 43h-164l-40 60h675l41 -60h-154v-615l-72 50v195l-274 -259l-54 38l174 149h-8zM247 229q92 0 178 107v279h-221q37 -24 55 -58.5t18 -54t-5.5 -32t-11.5 -21t-21 -20.5t-23 -17.5
t-30 -19t-27 -16.5t-9.5 -6t-6.5 -4q-10 -8 -11.5 -10.5t-4.5 -5.5t-4 -6q-3 -11 -3 -16q0 -38 42 -68.5t85 -30.5z" />
    <glyph glyph-name="uni0935094D0930" horiz-adv-x="591" 
d="M498 615v-615l-72 60l3 174l-259 -252l-54 39l159 133q-8 -1 -15 -1q-69 0 -131.5 60.5t-62.5 139.5t51 128t124.5 49t142.5 -74l-22 -34q-40 46 -99.5 46t-96.5 -42t-37 -95t32.5 -89.5t89.5 -36.5q74 0 176 116v294h-447l-41 60h672l40 -60h-153z" />
    <glyph glyph-name="uni0936094D0930" horiz-adv-x="695" 
d="M601 615v-615l-71 48v204l-272 -202l-54 40l272 196l-193 101q-86 -62 -191 -112l-54 41q129 64 186 107q-92 63 -92 144q0 52 37.5 86.5t92.5 34.5t96 -47t41 -108q0 -27 -12 -45t-22.5 -30.5t-17.5 -19t-17.5 -16t-11.5 -10.5l212 -110v313h-78l-40 60h294l40 -60h-145
zM329.5 618q-19.5 16 -53.5 16t-60 -27t-26 -67q0 -51 68 -93q91 65 91 127q0 28 -19.5 44z" />
    <glyph glyph-name="uni0938094D0930" horiz-adv-x="765" 
d="M405 407q-91 0 -171 -95q-23 -42 -85 -46q55 -82 196 -234l-52 -32q-187 227 -263 341l35 32q38 -36 65 -36q44 0 44 51v227h-187l-40 60h790l40 -60h-152v-615l-69 51l1 228l-174 -150l-55 42l205 170q-73 66 -128 66zM244 391q74 80 150 80t162 -75v219h-312v-224z" />
    <glyph glyph-name="uni0939094D0930" horiz-adv-x="527" 
d="M379 230q-34 36 -92.5 36t-104.5 -40.5t-46 -102.5q0 -37 28 -81q43 -63 181 -139q22 -12 25 -14l-39 -26q-20 10 -67.5 41t-63 44t-37.5 32t-36 37.5t-27 40.5q-27 42 -27 91q0 78 62 130q-75 70 -75 135q0 41 28 63.5t78 22.5h182v115h-380l-40 60h628l41 -60h-179
v-178h-189q-49 0 -73 -11t-24 -48.5t38 -75.5q45 24 91 24q71 0 133.5 -59.5t62.5 -112.5v-155l-56 42v141l-130 -142l-53 41z" />
    <glyph glyph-name="uni0915093C094D0930" horiz-adv-x="793" 
d="M97.5 229q-51.5 66 -51.5 134t44.5 106.5t107.5 38.5q36 0 71 -13l21 -63q-29 11 -61 11q-51 0 -85.5 -30.5t-34.5 -83t36 -89t83.5 -36.5t141.5 94v317h-374l-41 60h868l40 -60h-421q0 -7 -2.5 -89.5t-3.5 -87.5q20 29 52.5 48.5t66.5 19.5q80 0 141 -75t61 -156
q0 -62 -41 -99t-105 -37q-34 0 -69 11l-21 64q38 -11 78.5 -11t70.5 24.5t30 76.5t-31.5 94t-87.5 42q-84 0 -139 -109v-331l-72 46l6 181l-247 -223l-54 44l133 107q-59 8 -110.5 74zM233 2l55 56l58 -56l-57 -56z" />
    <glyph glyph-name="uni0916093C094D0930" horiz-adv-x="777" 
d="M386 48q-193 0 -360 292l29 27q34 -34 66 -34q47 0 47 51v231h-181l-40 60h850l41 -60h-153v-615l-71 47l5 119q-9 -15 -45.5 -48t-74 -59t-112.5 -74t-103 -66l-55 42l161 87h-4zM469 495q86 0 144 -67l1 187h-376v-250q0 -42 -27 -71t-76 -34q41 -67 107 -113t140 -46
q102 0 171 83q-92 1 -156 47.5t-64 131.5q0 56 38.5 94t97.5 38zM617 317q0 58 -37 91.5t-82 33.5t-73.5 -27t-28.5 -73t32 -74q49 -45 131 -45q12 0 25 1q12 12 22.5 38t10.5 55zM483 -44l55 56l58 -56l-57 -56z" />
    <glyph glyph-name="uni0917093C094D0930" horiz-adv-x="539" 
d="M445 615v-615l-72 52v182l-239 -228l-54 37l293 263v309h-174v-314q0 -29 -5.5 -42t-21.5 -13q-31 0 -70.5 43.5t-39.5 76.5q0 29 66 29v220h-142l-41 60h614l41 -60h-155zM237 -13l55 56l58 -56l-57 -56z" />
    <glyph glyph-name="uni091C093C094D0930" horiz-adv-x="817" 
d="M447 411h-100q77 -68 77 -159q0 -52 -32.5 -87t-82 -35t-86.5 21.5t-62.5 51t-50.5 75.5q-35 68 -67 162l40 23q39 -123 71 -175q41 -66 75 -84q23 -12 56.5 -12t57.5 23.5t24 59.5t-19.5 70.5t-37.5 54.5t-39 41l-24 24l6 9h184q130 0 216 -92l-1 233h-651l-40 60h876
l40 -60h-154v-615l-71 48l1 202l-224 -245l-54 38l284 277q-24 39 -82 65t-130 26zM41 46l55 56l58 -56l-57 -56z" />
    <glyph glyph-name="uni0921093C094D0930" horiz-adv-x="525" 
d="M46 72l58 -56l-57 -56l-56 56zM431 439h-205q-91 0 -91 -82q0 -33 19.5 -56.5t45 -23.5t79 20.5t75.5 20.5q51 0 89.5 -49.5t38.5 -98.5t-39.5 -92.5t-105.5 -55.5l137 -156l-36 -24l-146 175l-148 -175l-54 43l136 144q-107 34 -179 147l33 27q38 -57 87.5 -92.5
t110 -35.5t106.5 36.5t46 85.5q0 24 -15 42t-37 18t-72 -20t-79 -20q-50 0 -98 53t-48 111.5t34 90t93 31.5h153v112h-380l-41 60h605l40 -60h-154v-176z" />
    <glyph glyph-name="uni0922093C094D0930" horiz-adv-x="527" 
d="M64 102l58 -56l-57 -56l-56 56zM425.5 263.5q-14.5 14.5 -45.5 14.5t-53 -25.5t-22 -64t27 -67.5q44 7 76 34.5t32 69.5q0 24 -14.5 38.5zM417 428h-136q-164 0 -164 -147q0 -66 51 -114t122 -50q-41 44 -41 96t31 86t81 34t91.5 -39.5t41.5 -93.5t-39.5 -90t-95.5 -46
l137 -156l-36 -24l-146 175l-148 -175l-54 43l136 144q-81 25 -136.5 94t-55.5 149.5t46.5 129t132.5 48.5h110v123h-358l-41 60h601l40 -60h-170v-187z" />
    <glyph glyph-name="uni0928093C094D0930" horiz-adv-x="559" 
d="M465 615v-615l-71 48v203l-228 -255l-54 37l282 292v18h-211v-92q0 -26 -23 -26q-31 0 -71.5 52t-40.5 92t53 40h293v206h-405l-41 60h631l41 -60h-155zM257 -24l55 56l58 -56l-57 -56z" />
    <glyph glyph-name="uni092B093C094D0930" horiz-adv-x="803" 
d="M75 442v173h-93l-41 60h856l41 -60h-404l-3 -194q50 52 122 52t137.5 -69t65.5 -142t-45 -113.5t-114 -40.5q-16 0 -52 6l-23 65q24 -7 67 -7t75.5 28t32.5 80.5t-33 91t-79.5 38.5t-86.5 -23.5t-64 -68.5v-318l-73 47l4 227l-284 -272l-53 37l227 201q-63 2 -121.5 66
t-58.5 136zM236 296q73 0 127 72v247h-217v-212q0 -46 25 -76.5t65 -30.5zM203 -6l55 56l58 -56l-57 -56z" />
    <glyph glyph-name="uni092F093C094D0930" horiz-adv-x="590" 
d="M263 173q-73 0 -145.5 69t-72.5 134q0 17 18 26q86 43 116.5 70.5t30.5 50.5t-19 49t-52 43h-164l-40 60h675l41 -60h-154v-615l-72 50v195l-274 -259l-54 38l174 149h-8zM247 229q92 0 178 107v279h-221q37 -24 55 -58.5t18 -54t-5.5 -32t-11.5 -21t-21 -20.5t-23 -17.5
t-30 -19t-27 -16.5t-9.5 -6t-6.5 -4q-10 -8 -11.5 -10.5t-4.5 -5.5t-4 -6q-3 -11 -3 -16q0 -38 42 -68.5t85 -30.5zM284 -21l55 56l58 -56l-57 -56z" />
    <glyph glyph-name="uni0915094D0930094D" horiz-adv-x="614" 
d="M96.5 231.5q-50.5 66.5 -50.5 133t44.5 105t106.5 38.5q38 0 71 -13l22 -63q-29 11 -61 11q-51 0 -85.5 -30.5t-34.5 -83t35.5 -89t80.5 -36.5q27 0 51 16.5t40 28.5q24 19 45 40l9 9v317h-390l-40 60h694l40 -60h-232q0 -3 -3 -88t-3 -89q20 29 52.5 48.5t74 19.5
t85 -31t72.5 -79l-29 -31q-22 37 -45.5 56t-63.5 19q-85 0 -140 -109v-331l-72 46l6 181l-247 -223l-54 44l133 107q-61 10 -111.5 76.5z" />
    <glyph glyph-name="uni0916094D0930094D" horiz-adv-x="584" 
d="M403 48q-135 0 -249 133q-56 65 -110 159l29 27q32 -34 65 -34q47 0 47 51v231h-205l-40 60h664l40 -60h-389v-250q0 -42 -27 -71t-76 -34q41 -67 107 -113t140 -46q101 0 171 83q-92 1 -155.5 47.5t-63.5 131.5q0 56 38 94t97 38q93 0 152 -73q45 -53 45 -123
q0 -101 -90 -184q-28 -26 -69.5 -54t-118.5 -76t-122 -78l-55 42l180 99h-5zM635 323q0 50 -37 84.5t-82.5 34.5t-74 -27t-28.5 -73t31 -74q50 -45 133 -45q12 0 25 1q12 13 22.5 40.5t10.5 58.5z" />
    <glyph glyph-name="uni0917094D0930094D" horiz-adv-x="287" 
d="M192 615v-321q0 -28 -5.5 -41t-21.5 -13q-30 0 -70 44t-40 76q0 28 66 28v227h-141l-41 60h368l42 -60h-157zM379 307l37 -34l-281 -269l-54 37z" />
    <glyph glyph-name="uni0918094D0930094D" horiz-adv-x="379" 
d="M289 118q-80 0 -151 60t-71 131.5t73 102.5q-36 22 -55.5 55t-19.5 61t12 52t35 37l-75 -2h-57l-40 60h459l40 -60h-228q-32 -9 -56 -37t-24 -69.5t52 -84.5q30 6 64 6t64 -6l22 -66q-36 8 -75 8q-127 0 -127 -84q0 -46 41 -77.5t94 -31.5q91 0 178 103l45 -44l-283 -275
l-54 37l147 124h-10z" />
    <glyph glyph-name="uni091A094D0930094D" horiz-adv-x="444" 
d="M503 615h-523l-39 60h523zM336 128q-64 0 -131 60t-67 133q0 29 19 57.5t46 40.5l-158 -3l-41 62h391l41 -62h-99q-58 -9 -96 -41.5t-38 -80t34.5 -78.5t80.5 -31q94 0 186 111l46 -44l-298 -288l-53 38l153 127q-8 -1 -16 -1z" />
    <glyph glyph-name="uni091C094D0930094D" horiz-adv-x="481" 
d="M501 675l41 -60h-563l-40 60h562zM428 474q56 0 105 -19t82 -50q56 -53 81 -98l-276 -302l-54 38l276 279q-23 41 -77 65t-127 24h-100q77 -69 77 -159q0 -52 -33 -87t-82.5 -35t-86.5 21.5t-62.5 50.5t-50.5 76q-35 68 -67 162l40 23q39 -123 71 -175q41 -66 76 -84
q23 -12 56.5 -12t57.5 23.5t24 65.5q0 31 -11.5 51.5t-15.5 27.5t-14 19.5t-14.5 18t-17 18.5t-15.5 16l-33 33l7 9h184z" />
    <glyph glyph-name="uni091D094D0930094D" horiz-adv-x="529" 
d="M511 265q-33 0 -72 11q33 -43 33 -85.5t-36 -79t-82 -54t-89 -19.5l143 -148l-47 -32l-154 185q-53 14 -96 49t-43 69q0 15 15.5 25.5t33.5 10.5t41.5 -24.5t62.5 -74.5h11q62 0 125 31.5t63 88.5q0 25 -17 41.5t-39.5 16.5t-71.5 -18.5t-76 -18.5q-48 0 -97 54
t-49 109.5t36.5 86t92.5 30.5h152v96h-371l-41 60h610l40 -60h-167v-160h-205q-38 0 -66 -20t-28 -56t18.5 -58t46 -22t78.5 19t64 19t26 -2t37 -7q50 -12 86 -12q75 0 157 75l54 -55l-199 -389l-53 38l186 325q-55 -45 -113 -45z" />
    <glyph glyph-name="uni091E094D0930094D" horiz-adv-x="528" 
d="M589 615h-609l-41 60h609zM590 306q-35 -22 -66.5 -22t-62.5 21q-3 -22 -9 -38q-15 -57 -58.5 -88t-93 -31t-90 19t-77.5 55q-55 55 -117 140l31 28q69 -99 118.5 -140.5t96.5 -41.5q64 0 103 35.5t39 100.5q0 43 -29 72.5t-79 29.5q-27 0 -54.5 -14.5t-41.5 -32.5
l-49 53q57 57 119 57q121 0 185 -154q27 -12 44 -12q45 0 75 35l83 -70l-270 -317l-54 37z" />
    <glyph glyph-name="uni091F094D0930094D" horiz-adv-x="514" 
d="M57 311q0 76 48 126.5t137 50.5h106v127h-368l-40 60h594l40 -60h-154v-191h-147q-59 0 -105.5 -35.5t-46.5 -107t50.5 -115t119.5 -43.5q89 0 151 65l44 -57q-51 -58 -133 -71l136 -154l-36 -24l-146 175l-148 -175l-54 43l139 147q-77 28 -132 95.5t-55 143.5z
M223 -120q33 20 59 20t41.5 -3.5t31.5 -12t28 -15.5t27.5 -22t24 -23.5t24 -27.5t21 -26.5t21 -28t18.5 -25.5l-33 -23q-18 24 -35 47t-35 42t-32 29q-36 26 -68 26t-54 -11z" />
    <glyph glyph-name="uni0920094D0930094D" horiz-adv-x="577" 
d="M217 -121q33 20 59 20t41.5 -3.5t31.5 -12t28 -15.5t27.5 -22t24 -23.5t24 -27.5t21 -26.5t21 -28t18.5 -25.5l-33 -23q-18 24 -35 47t-35 42t-32 29q-36 26 -68 26t-54 -11zM282 424q-161 0 -161 -146q0 -67 52 -114t125.5 -47t121 43t47.5 114q0 48 -28 87.5t-70 62.5
h-87zM417 615v-174q111 -71 111 -189q0 -79 -49 -132t-129 -60l134 -153l-36 -24l-146 175l-148 -175l-54 43l141 149q-78 28 -130.5 95t-52.5 145t47 125.5t134 47.5h106v127h-365l-40 60h657l40 -60h-220z" />
    <glyph glyph-name="uni0921094D0930094D" horiz-adv-x="525" 
d="M80 203q85 -128 198 -128q60 0 106 36.5t46 85.5q0 24 -15 42t-37 18t-72 -20t-79 -20q-50 0 -98 53t-48 111.5t34 90t93 31.5h153v112h-380l-41 60h605l40 -60h-154v-176h-205q-91 0 -91 -82q0 -33 19.5 -56.5t45 -23.5t79 20.5t75.5 20.5q51 0 89.5 -49.5t38.5 -98.5
t-39.5 -92.5t-105.5 -55.5l137 -156l-36 -24l-146 175l-148 -175l-54 43l136 144q-107 34 -179 147zM219 -178q33 20 59 20t41.5 -3.5t31.5 -12t28 -15.5t27.5 -22t24 -23.5t24 -27.5t21 -26.5t21 -28t18.5 -25.5l-33 -23q-18 24 -35 47t-35 42t-32 29q-36 26 -68 26
t-54 -11z" />
    <glyph glyph-name="uni0922094D0930094D" horiz-adv-x="527" 
d="M425.5 263.5q-14.5 14.5 -45.5 14.5t-53 -25.5t-22 -64t27 -67.5q44 7 76 34.5t32 69.5q0 24 -14.5 38.5zM111.5 165q-55.5 69 -55.5 149.5t46.5 129t132.5 48.5h110v123h-358l-41 60h601l40 -60h-170v-187h-136q-164 0 -164 -147q0 -66 51 -114t122 -50q-41 44 -41 96
t31 86t81 34t91.5 -39.5t41.5 -93.5t-39.5 -90t-95.5 -46l137 -156l-36 -24l-146 175l-148 -175l-54 43l136 144q-81 25 -136.5 94zM229 -126q33 20 59 20t41.5 -3.5t31.5 -12t28 -15.5t27.5 -22t24 -23.5t24 -27.5t21 -26.5t21 -28t18.5 -25.5l-33 -23q-18 24 -35 47
t-35 42t-32 29q-36 26 -68 26t-54 -11z" />
    <glyph glyph-name="uni0923094D0930094D" horiz-adv-x="470" 
d="M396 615v-255q0 -61 -35.5 -99t-96 -38t-129 60t-68.5 150v182h-71l-41 60h535l41 -60h-135zM162.5 315.5q26.5 -34.5 73.5 -34.5t68.5 26t21.5 83v225h-190v-205q0 -60 26.5 -94.5zM259 30l305 276l36 -34l-288 -279z" />
    <glyph glyph-name="uni0924094D0930094D" horiz-adv-x="330" 
d="M350 675l42 -60h-388l-41 60h387zM250 456q-73 0 -144 -55l-44 55q72 58 157 58q124 0 241 -177l-274 -229l-53 41l268 207q-78 100 -151 100z" />
    <glyph glyph-name="uni0925094D0930094D" horiz-adv-x="397" 
d="M462 615h-57l-40 60h57zM294 167q-68 0 -137.5 61t-69.5 127q0 19 22 33q12 8 56.5 32t76.5 45q73 47 73 93q0 28 -21.5 50t-55 22t-57.5 -21t-24 -53t33 -60l-30 -23q-60 53 -60 110q0 40 33 70t80 30q62 0 110.5 -50.5t48.5 -104.5q0 -44 -46 -82q-42 -34 -82 -57
t-45 -26.5t-11 -7.5l-12 -8q-17 -13 -17 -32q0 -38 38 -65t81 -27q87 0 184 100l46 -44l-286 -271l-53 38l150 123q-12 -2 -25 -2z" />
    <glyph glyph-name="uni0926094D0930094D" horiz-adv-x="541" 
d="M418 426h-136q-162 0 -162 -139q0 -61 46.5 -106.5t103.5 -45.5q26 0 47.5 7t30.5 14l8 7q-29 43 -29 69t21.5 44t49 18t52.5 -33t25 -65t-44 -69l104 -123l-44 -32l-94 132l-223 -149l-54 38l146 87q-64 9 -122 63q-39 35 -63 83t-24 97q0 72 48.5 119.5t135.5 47.5h105
v125h-366l-38 60h620l38 -60h-182v-189zM264 -55q32 19 57.5 19t40.5 -3.5t27 -8t26.5 -14.5t24 -16.5t24 -21.5t21.5 -22t21 -25t18.5 -24t18.5 -25.5t17 -22.5l-34 -24q-7 14 -39.5 54t-43.5 49t-27 20q-31 21 -61 21t-52 -11z" />
    <glyph glyph-name="uni0927094D0930094D" horiz-adv-x="363" 
d="M386 615l-40 60h74l40 -60h-74zM273 129q-70 0 -136 58t-66 131.5t74 101.5q-78 50 -78 113q0 28 14 50t31 33l-104 -1h-28l-40 60h301l41 -60h-65q-36 -9 -59 -36.5t-23 -60.5q1 -46 55 -86q17 3 42.5 3t67.5 -7l22 -68q-47 9 -83 9t-69.5 -19t-33.5 -63.5t33.5 -72.5
t88.5 -28q100 0 191 115l45 -43l-288 -279l-54 38l135 113q-7 -1 -14 -1z" />
    <glyph glyph-name="uni0928094D0930094D" horiz-adv-x="295" 
d="M315 675l41 -60h-376l-40 60h375zM401 343h-217v-92q0 -26 -27.5 -26t-68 52t-40.5 92t53 40h261l91 -92l-271 -303l-53 37l272 282v10z" />
    <glyph glyph-name="uni092A094D0930094D" horiz-adv-x="298" 
d="M256 229q-58 0 -117 62t-59 134v190h-100l-41 60h379l39 -60h-206v-225q0 -48 27.5 -77.5t64.5 -29.5q56 0 113 54l48 -46l-274 -281l-54 38l196 182q-8 -1 -16 -1z" />
    <glyph glyph-name="uni092B094D0930094D" horiz-adv-x="601" 
d="M75 442v173h-93l-41 60h680l40 -60h-227l-3 -194q50 52 124 52q42 0 86 -28t75 -72l-35 -27q-34 64 -100 64q-42 0 -82.5 -23.5t-64.5 -68.5v-318l-73 47l5 227l-285 -272l-53 37l227 201q-62 1 -121 65.5t-59 136.5zM236 296q73 0 127 72v247h-217v-212q0 -46 25 -76.5
t65 -30.5z" />
    <glyph glyph-name="uni092C094D0930094D" horiz-adv-x="338" 
d="M244 148q-70 0 -134.5 63t-64.5 140.5t52.5 127t117.5 49.5q79 0 147 -71l-23 -33q-43 45 -91.5 45t-81.5 -25l176 -190q50 50 58 60l44 -44q-18 -22 -123 -124.5t-154 -148.5l-54 38l138 113h-7zM398 615h-418l-41 60h419zM141.5 237.5q37.5 -38.5 84.5 -38.5t88 32
l-177 189q-33 -40 -33 -92t37.5 -90.5z" />
    <glyph glyph-name="uni092D094D0930094D" horiz-adv-x="326" 
d="M346 675l40 -60h-110l-40 60h110zM411 293h-220v-73q0 -25 -23 -25q-31 0 -74 46.5t-43 82.5t49 36h20v175q0 35 -18.5 57.5t-52.5 22.5h-70l-40 60h77q56 0 96 -35q28 -24 42 -39q37 -38 37 -96v-144h186l88 -88l-286 -276l-54 38l286 250v8z" />
    <glyph glyph-name="uni092E094D0930094D" horiz-adv-x="346" 
d="M191 360h200l92 -90l-286 -277l-53 38l280 250v11h-233v-72q0 -25 -23 -25q-31 0 -74 46t-43 82.5t52 36.5h17v255h-140l-39 60h425l40 -60h-215v-255z" />
    <glyph glyph-name="uni092F094D0930094D" horiz-adv-x="359" 
d="M277 173q-73 0 -146 69t-73 134q0 17 19 26q86 43 116.5 70.5t30.5 50t-19.5 49t-51.5 43.5h-173l-40 60h439l40 -60h-201q36 -24 54 -58.5t18 -53t-3 -28.5t-10.5 -20t-13.5 -17t-20 -16.5t-22 -14.5t-26 -16.5t-22.5 -14.5t-13 -8.5t-11 -8t-6.5 -7.5q-9 -11 -9 -24
q0 -38 42.5 -68.5t84.5 -30.5q84 0 154 81l44 -44l-293 -280l-55 38l175 149h-8z" />
    <glyph glyph-name="uni0935094D0930094D" horiz-adv-x="329" 
d="M389 615h-409l-41 60h409zM242 153q-68 0 -130.5 60.5t-62.5 139.5t51 128t123.5 49t143.5 -74l-22 -34q-40 46 -100 46t-97 -42t-37 -95t33 -89.5t89 -36.5q74 0 162 103l45 -45l-288 -281l-54 39l159 133q-8 -1 -15 -1z" />
    <glyph glyph-name="uni0938094D0930094D" horiz-adv-x="454" 
d="M244 615v-224q74 80 147 80q120 0 219 -146l-227 -196l-55 42l205 170q-58 66 -128 66q-91 0 -171 -95q-23 -42 -85 -46q55 -82 196 -234l-52 -32q-187 227 -263 341l35 32q38 -36 65 -36q44 0 44 51v227h-187l-40 60h527l41 -60h-271z" />
    <glyph glyph-name="uni0915093C094D0930094D" horiz-adv-x="614" 
d="M225 -21l55 56l58 -56l-57 -56zM96.5 231.5q-50.5 66.5 -50.5 133t44.5 105t106.5 38.5q38 0 71 -13l22 -63q-29 11 -61 11q-51 0 -85.5 -30.5t-34.5 -83t35.5 -89t80.5 -36.5q27 0 51 16.5t40 28.5q24 19 45 40l9 9v317h-390l-40 60h694l40 -60h-232q0 -3 -3 -88t-3 -89
q20 29 52.5 48.5t74 19.5t85 -31t72.5 -79l-29 -31q-22 37 -45.5 56t-63.5 19q-85 0 -140 -109v-331l-72 46l6 181l-247 -223l-54 44l133 107q-61 10 -111.5 76.5z" />
    <glyph glyph-name="uni0916093C094D0930094D" horiz-adv-x="584" 
d="M403 48q-135 0 -249 133q-56 65 -110 159l29 27q32 -34 65 -34q47 0 47 51v231h-205l-40 60h664l40 -60h-389v-250q0 -42 -27 -71t-76 -34q41 -67 107 -113t140 -46q101 0 171 83q-92 1 -155.5 47.5t-63.5 131.5q0 56 38 94t97 38q93 0 152 -73q45 -53 45 -123
q0 -101 -90 -184q-28 -26 -69.5 -54t-118.5 -76t-122 -78l-55 42l180 99h-5zM635 323q0 50 -37 84.5t-82.5 34.5t-74 -27t-28.5 -73t31 -74q50 -45 133 -45q12 0 25 1q12 13 22.5 40.5t10.5 58.5zM549 -16l55 56l58 -56l-57 -56z" />
    <glyph glyph-name="uni0917093C094D0930094D" horiz-adv-x="287" 
d="M192 615v-321q0 -28 -5.5 -41t-21.5 -13q-30 0 -70 44t-40 76q0 28 66 28v227h-141l-41 60h368l42 -60h-157zM379 307l37 -34l-281 -269l-54 37zM252 -6l55 56l58 -56l-57 -56z" />
    <glyph glyph-name="uni091C093C094D0930094D" horiz-adv-x="481" 
d="M501 675l41 -60h-563l-40 60h562zM54 47l55 56l58 -56l-57 -56zM428 474q56 0 105 -19t82 -50q56 -53 81 -98l-276 -302l-54 38l276 279q-23 41 -77 65t-127 24h-100q77 -69 77 -159q0 -52 -33 -87t-82.5 -35t-86.5 21.5t-62.5 50.5t-50.5 76q-35 68 -67 162l40 23
q39 -123 71 -175q41 -66 76 -84q23 -12 56.5 -12t57.5 23.5t24 65.5q0 31 -11.5 51.5t-15.5 27.5t-14 19.5t-14.5 18t-17 18.5t-15.5 16l-33 33l7 9h184z" />
    <glyph glyph-name="uni0928093C094D0930094D" horiz-adv-x="295" 
d="M315 675l41 -60h-376l-40 60h375zM401 343h-217v-92q0 -26 -27.5 -26t-68 52t-40.5 92t53 40h261l91 -92l-271 -303l-53 37l272 282v10zM303 42l55 56l58 -56l-57 -56z" />
    <glyph glyph-name="uni092B093C094D0930094D" horiz-adv-x="601" 
d="M200 -12l55 56l58 -56l-57 -56zM75 442v173h-93l-41 60h680l40 -60h-227l-3 -194q50 52 124 52q42 0 86 -28t75 -72l-35 -27q-34 64 -100 64q-42 0 -82.5 -23.5t-64.5 -68.5v-318l-73 47l5 227l-285 -272l-53 37l227 201q-62 1 -121 65.5t-59 136.5zM236 296q73 0 127 72
v247h-217v-212q0 -46 25 -76.5t65 -30.5z" />
    <glyph glyph-name="uni092F093C094D0930094D" horiz-adv-x="359" 
d="M277 173q-73 0 -146 69t-73 134q0 17 19 26q86 43 116.5 70.5t30.5 50t-19.5 49t-51.5 43.5h-173l-40 60h439l40 -60h-201q36 -24 54 -58.5t18 -53t-3 -28.5t-10.5 -20t-13.5 -17t-20 -16.5t-22 -14.5t-26 -16.5t-22.5 -14.5t-13 -8.5t-11 -8t-6.5 -7.5q-9 -11 -9 -24
q0 -38 42.5 -68.5t84.5 -30.5q84 0 154 81l44 -44l-293 -280l-55 38l175 149h-8zM307 16l55 56l58 -56l-57 -56z" />
    <glyph glyph-name="uni0915094D0915" horiz-adv-x="1417" 
d="M988 615h-543q0 -3 -3 -88t-3 -89q20 29 52.5 48.5t66.5 19.5q70 0 129 -62q41 64 128 64q38 0 71 -13l22 -63q-29 11 -61 11q-51 0 -85.5 -30.5t-34.5 -83.5t35.5 -89t83.5 -36q87 0 142 107v304zM1060 615q0 -3 -3 -88t-3 -89q20 29 52.5 48.5t66.5 19.5q80 0 141 -75
t61 -156q0 -62 -41 -99t-105 -37q-34 0 -70 11l-21 64q39 -11 79 -11t70 24.5t30 76.5t-31 94t-87 42q-84 0 -139 -109v-331l-72 48l6 167q-52 -75 -125 -75t-139 72t-66 153q0 20 4 35q-37 40 -84 40q-84 0 -139 -109v-331l-72 46l6 168q-52 -74 -125 -74t-139 72
t-66 145.5t44.5 112t106.5 38.5q38 0 71 -13l22 -63q-29 11 -61 11q-51 0 -85.5 -30.5t-34.5 -83.5t35.5 -89t83.5 -36q87 0 142 107v304h-391l-40 60h1496l40 -60h-418z" />
    <glyph glyph-name="uni0915094D0916" horiz-adv-x="1420" 
d="M1225 224q34 37 34 93t-37 90.5t-82.5 34.5t-74.5 -27t-29 -73t32 -74q49 -45 132 -45q12 0 25 1zM878 615v-250q0 -42 -27 -71t-76 -34q39 -62 105.5 -110.5t139.5 -48.5q107 0 172 83q-92 1 -155 47.5t-63 131.5q0 56 38.5 94t97.5 38q92 0 143 -70l1 190h-376z
M809 615h-364q0 -7 -2.5 -90t-3.5 -88q19 27 46.5 44t53.5 17q49 0 82 -32t78 -102q33 -31 62 -31q48 0 48 51v231zM1326 615v-615l-71 50l6 116q-26 -43 -86 -84t-121.5 -41t-110.5 18t-84.5 44t-72.5 68t-60.5 76.5t-38.5 59.5t-22.5 37t-10 15.5t-10 14.5t-11.5 15.5
t-11.5 12.5t-13 12t-12.5 8q-15 9 -32 9q-66 0 -119 -100v-331l-72 46l6 168q-52 -74 -125 -74t-139 72t-66 145.5t44.5 112t106.5 38.5q37 0 72 -13l21 -63q-29 11 -61 11q-51 0 -85.5 -30.5t-34.5 -83.5t35.5 -89t83.5 -36q87 0 142 107v304h-391l-40 60h1498l40 -60h-154
z" />
    <glyph glyph-name="uni0915094D091A" horiz-adv-x="1253" 
d="M1088 615h-645q0 -3 -3 -90t-3 -91q39 44 122 44h408l41 -62h-99q-58 -9 -96 -41.5t-38 -80t34.5 -78.5t80.5 -31q116 0 198 135v295zM624 416h-7v1h-25q-47 -1 -87 -24t-62 -62v-331l-72 46l6 168q-52 -74 -125 -74t-139 72t-66 145.5t44.5 112t106.5 38.5q38 0 71 -13
l22 -63q-29 11 -61 11q-51 0 -85.5 -30.5t-34.5 -83.5t35.5 -89t83.5 -36q87 0 142 107v304h-391l-40 60h1333l38 -60h-152v-615l-71 49l4 170q-78 -96 -172 -96q-72 0 -141 62t-69 136q0 29 19 57.5t46 40.5z" />
    <glyph glyph-name="uni0915094D091C" horiz-adv-x="1331" 
d="M1166 451v164h-723q0 -3 -3 -88t-3 -89q47 68 111 68q49 0 90.5 -36t66.5 -86q76 -216 176 -216q42 0 66 23.5t24 57t-10 58t-33 51.5q-30 37 -78 83l7 10h309zM1237 615v-615l-71 49v338h-215q77 -68 77 -159q0 -52 -33 -87t-89 -35q-122 0 -206 176q-15 31 -30 70
q-43 88 -96 88q-44 0 -73.5 -27t-57.5 -82v-331l-72 46l6 168q-52 -74 -125 -74t-139 72t-66 145.5t44.5 112t106.5 38.5q38 0 71 -13l22 -63q-29 11 -61 11q-51 0 -85.5 -30.5t-34.5 -83.5t35.5 -89t83.5 -36q87 0 142 107v304h-391l-40 60h1411l41 -60h-155z" />
    <glyph glyph-name="uni0915094D091F" horiz-adv-x="1096" 
d="M929 615h-486q0 -3 -3 -88t-3 -89q20 29 52.5 48.5t66.5 19.5q72 0 133 -66q50 48 134 48h106v127zM1001 424h-147q-59 0 -105.5 -35.5t-46.5 -107t50.5 -115t119.5 -43.5q89 0 151 65l44 -57q-27 -31 -70 -52t-94 -21q-97 0 -181 78t-84 175q0 52 24 94q-37 35 -80 35
q-84 0 -139 -109v-331l-72 46l6 168q-52 -74 -125 -74t-139 72t-66 145.5t44.5 112t106.5 38.5q38 0 71 -13l22 -63q-29 11 -61 11q-51 0 -85.5 -30.5t-34.5 -83.5t35.5 -89t83.5 -36q87 0 142 107v304h-391l-40 60h1175l40 -60h-154v-191z" />
    <glyph glyph-name="uni0915094D0923" horiz-adv-x="1338" 
d="M941 374v241h-190v-221q0 -60 26.5 -95t75.5 -35q88 0 88 110zM682 615h-239q0 -3 -3 -88t-3 -89q20 29 52.5 48.5t66.5 19.5q67 0 126 -59v168zM1244 615v-615l-71 49v566h-162v-272q0 -60 -35.5 -98t-95.5 -38t-124 54q-52 45 -69 112q-43 67 -105 67q-84 0 -139 -109
v-331l-72 46l6 168q-52 -74 -125 -74t-139 72t-66 145.5t44.5 112t106.5 38.5q38 0 71 -13l22 -63q-29 11 -61 11q-51 0 -85.5 -30.5t-34.5 -83.5t35.5 -89t83.5 -36q87 0 142 107v304h-391l-40 60h1418l41 -60h-155z" />
    <glyph glyph-name="uni0915094D0924" horiz-adv-x="859" 
d="M475 615v-219q26 20 63 33.5t66 13.5q83 0 145 -80.5t62 -157t-46 -119.5t-114 -43q-36 0 -63 9l-21 66q31 -10 73.5 -10t77 30t34.5 89t-33.5 105t-91.5 46q-41 0 -83 -21t-69 -53v-304l-71 47v334h-147q-121 0 -121 -117q0 -97 107 -239l-35 -25q-134 173 -134 303
q0 57 37 81l-107 -1l-40 63h440v169h-426l-41 60h942l40 -60h-444z" />
    <glyph glyph-name="uni0915094D0925" horiz-adv-x="1232" 
d="M1138 615v-615l-71 49l4 207q-38 -44 -86 -68.5t-88 -24.5q-80 0 -152 63.5t-72 128.5q0 14 10 24q-43 61 -101 61q-84 0 -139 -109v-331l-72 46l6 168q-52 -74 -125 -74t-139 72t-66 145.5t44.5 112t106.5 38.5q38 0 71 -13l22 -63q-29 11 -61 11q-51 0 -85.5 -30.5
t-34.5 -83.5t35.5 -89t83.5 -36q87 0 142 107v304h-391l-40 60h684l41 -60h-222q0 -3 -3 -88t-3 -89q20 29 52.5 48.5t73.5 19.5t83.5 -29t71.5 -76q5 3 23 12.5t26.5 14t26.5 14.5t27.5 17t24 17.5t23 19.5t16.5 20q16 20 16 45t-21.5 47t-55 22t-57.5 -21t-24 -53t33 -60
l-30 -23q-60 54 -60 110q0 40 33 70t80 30q62 0 110.5 -50.5t48.5 -104.5q0 -44 -46 -82q-45 -36 -84 -58.5t-43.5 -25.5l-10.5 -7l-12 -8q-17 -13 -17 -32q0 -38 38.5 -65t87 -27t107.5 42t89 86v264h-76l-40 60h301l40 -60h-154z" />
    <glyph glyph-name="uni0915094D0926" horiz-adv-x="1128" 
d="M932 615h-489q0 -3 -3 -88t-3 -89q20 29 52.5 48.5t66.5 19.5q72 0 133 -66q50 50 138 50h105v125zM1004 426h-136q-162 0 -162 -139q0 -61 46.5 -106.5t103.5 -45.5q26 0 47.5 7t30.5 14l8 7q-29 44 -29 69.5t21.5 43.5t49 18t52.5 -33t25 -65t-44 -69l104 -123l-44 -32
l-94 132q-49 -29 -99 -29q-81 0 -154 68q-39 35 -63 83t-24 94t19 84q-34 36 -80 36q-84 0 -139 -109v-331l-72 46l6 168q-52 -74 -125 -74t-139 72t-66 145.5t44.5 112t106.5 38.5q38 0 71 -13l22 -63q-29 11 -61 11q-51 0 -85.5 -30.5t-34.5 -83.5t35.5 -89t83.5 -36
q87 0 142 107v304h-391l-40 60h1208l38 -60h-182v-189z" />
    <glyph glyph-name="uni0915094D092A" horiz-adv-x="1134" 
d="M969 615h-226v-225q0 -48 28 -77.5t67.5 -29.5t76 24t54.5 56v252zM672 615h-229q0 -3 -3 -88t-3 -89q20 29 52.5 48.5t66.5 19.5q60 0 116 -49v158zM1040 615v-615l-71 48l7 223q-55 -50 -109 -50t-113.5 51t-76.5 115q-39 53 -95 53q-84 0 -139 -109v-331l-72 46l6 168
q-52 -74 -125 -74t-139 72t-66 145.5t44.5 112t106.5 38.5q38 0 71 -13l22 -63q-29 11 -61 11q-51 0 -85.5 -30.5t-34.5 -83.5t35.5 -89t83.5 -36q87 0 142 107v304h-391l-40 60h1214l40 -60h-154z" />
    <glyph glyph-name="uni0915094D092B" horiz-adv-x="1404" 
d="M960 615h-217v-212q0 -46 25 -76.5t65 -30.5q73 0 127 72v247zM672 615h-229q0 -3 -3 -88t-3 -89q20 29 52.5 48.5t66.5 19.5q60 0 116 -49v158zM1028 421q50 52 122 52t137.5 -69t65.5 -142t-44.5 -113.5t-114.5 -40.5q-16 0 -52 6l-23 65q26 -7 57 -7q53 0 85.5 28
t32.5 80.5t-33 91t-83 38.5q-99 0 -147 -92v-318l-73 49l5 225q-48 -42 -97.5 -42t-101 41.5t-76.5 98.5q-43 68 -106 68q-84 0 -139 -109v-331l-72 46l6 168q-52 -74 -125 -74t-139 72t-66 145.5t44.5 112t106.5 38.5q38 0 71 -13l22 -63q-29 11 -61 11q-51 0 -85.5 -30.5
t-34.5 -83.5t35.5 -89t83.5 -36q87 0 142 107v304h-391l-40 60h1483l40 -60h-432z" />
    <glyph glyph-name="uni0915094D092E" horiz-adv-x="1194" 
d="M1031 357v258h-228v-258h228zM732 615h-289q-1 -4 -3.5 -87t-2.5 -91q19 29 51 49t64 20q102 0 180 -142v251zM1102 615v-615l-71 51v240h-228v-71q0 -25 -23 -25q-32 0 -75 44.5t-43 75.5t26 39q-55 85 -116 85q-42 0 -72.5 -27t-56.5 -81v-331l-72 46l6 168
q-52 -74 -125 -74t-139 72t-66 145.5t44.5 112t106.5 38.5q38 0 71 -13l22 -63q-29 11 -61 11q-51 0 -86 -30.5t-35 -83.5t36 -89t84 -36q87 0 142 107v304h-391l-40 60h1276l40 -60h-154z" />
    <glyph glyph-name="uni0915094D092F" horiz-adv-x="1212" 
d="M1047 615h-221q36 -24 54 -58.5t18 -53t-3 -28.5t-10.5 -20t-13.5 -17t-20 -16.5t-22 -14.5t-26 -16.5t-22.5 -14.5t-13 -8.5t-11 -8t-6.5 -7.5q-9 -11 -9 -24q0 -38 42.5 -68.5t94.5 -30.5t97 35t72 85v266zM443 615q0 -3 -3 -88t-3 -89q20 29 52.5 48.5t66.5 19.5
q89 0 153 -92q71 38 97 62.5t26 46.5t-19.5 48.5t-51.5 43.5h-318zM1118 615v-615l-72 51l2 196q-69 -81 -148.5 -81t-156.5 72.5t-77 137.5q0 11 6 17q-39 47 -90 47q-84 0 -139 -109v-331l-72 46l6 168q-52 -74 -125 -74t-139 72t-66 145.5t44.5 112t106.5 38.5
q38 0 71 -13l22 -63q-29 11 -61 11q-51 0 -85.5 -30.5t-34.5 -83.5t35.5 -89t83.5 -36q87 0 142 107v304h-391l-40 60h1292l40 -60h-154z" />
    <glyph glyph-name="uni0915094D0932" horiz-adv-x="1312" 
d="M1146 615h-703q0 -3 -3 -88t-3 -89q20 29 52.5 48.5t66.5 19.5q78 0 141 -75q45 43 111 43q37 0 71 -17t56 -41q39 56 111 56q55 0 100 -30v173zM1218 615v-615l-72 51v348q-33 11 -67 11q-58 0 -83.5 -37t-25.5 -87t13 -106l-62 19q-20 48 -20 97.5t14 81.5
q-36 34 -86.5 34t-83 -35t-32.5 -94q0 -116 166 -257l-37 -26q-195 167 -195 313q0 46 22 84q-38 43 -87 43q-84 0 -139 -109v-331l-72 46l6 168q-52 -74 -125 -74t-139 72t-66 145.5t44.5 112t106.5 38.5q38 0 71 -13l22 -63q-29 11 -61 11q-51 0 -85.5 -30.5t-34.5 -83.5
t35.5 -89t83.5 -36q87 0 142 107v304h-391l-40 60h1392l40 -60h-154z" />
    <glyph glyph-name="uni0915094D0935" horiz-adv-x="1190" 
d="M1025 615h-582q0 -3 -3 -88t-3 -89q20 29 52.5 48.5t66.5 19.5q73 0 131 -65q22 42 62 65.5t85 23.5q78 0 149 -74l-22 -34q-41 45 -99.5 45t-96 -43t-37.5 -94.5t32.5 -87.5t88.5 -36q37 0 84.5 32t91.5 91v286zM1097 615v-615l-72 61l4 167q-29 -33 -71.5 -57
t-80.5 -24q-78 0 -144 62.5t-66 145.5q0 23 4 40q-40 45 -89 45q-84 0 -139 -109v-331l-72 46l6 168q-52 -74 -125 -74t-139 72t-66 145.5t44.5 112t106.5 38.5q38 0 71 -13l22 -63q-29 11 -61 11q-51 0 -85.5 -30.5t-34.5 -83.5t35.5 -89t83.5 -36q87 0 142 107v304h-391
l-40 60h1270l41 -60h-154z" />
    <glyph glyph-name="uni0915094D0936" horiz-adv-x="1329" 
d="M780 462q-38 41 -38 92.5t35.5 89t88.5 37.5q76 0 129.5 -69.5t53.5 -147.5q0 -99 -60.5 -155t-142.5 -56q-12 0 -25 1q44 -61 199 -221l-49 -33q-166 192 -272 327q-44 59 -73.5 85t-64 26t-67.5 -28t-51 -79v-331l-72 46l6 168q-52 -74 -125 -74t-139 72t-66 145.5
t44.5 112t106.5 38.5q38 0 71 -13l22 -63q-29 11 -61 11q-51 0 -85.5 -30.5t-34.5 -83.5t35.5 -89t83.5 -36q87 0 142 107v304h-391l-40 60h688l41 -60h-226q0 -7 -2.5 -90t-3.5 -88q46 66 111 66q77 0 174 -138q49 -47 105 -47q73 0 118.5 46t45.5 125q0 56 -26.5 94
t-67 38t-66 -25.5t-25.5 -62t22 -61t59 -36.5l-21 -34q-48 19 -86 60zM1235 615v-615l-72 49v566h-77l-37 60h299l39 -60h-152z" />
    <glyph glyph-name="uni0915094D0938" horiz-adv-x="1293" 
d="M1130 615h-245v-227q61 -52 122 -52q80 0 123 48v231zM815 388v227h-372q0 -3 -3 -88.5t-3 -89.5q48 69 107 69q52 0 92 -42q29 -32 74 -94q35 -33 61 -33q44 0 44 51zM1200 615v-615l-70 51l2 250q-40 -31 -88 -31q-81 0 -163 65q-13 -62 -91 -69q55 -82 196 -234
l-52 -32q-221 269 -270 353q-21 35 -25 39.5t-11 13t-11.5 11.5t-11.5 9t-13 8q-18 6 -29 6q-36 0 -68.5 -29t-51.5 -80v-331l-72 46l6 168q-52 -74 -125 -74t-139 72t-66 145.5t44.5 112t106.5 38.5q38 0 71 -13l22 -63q-29 11 -61 11q-51 0 -85.5 -30.5t-34.5 -83.5
t35.5 -89t83.5 -36q87 0 142 107v304h-391l-40 60h1373l41 -60h-154z" />
    <glyph glyph-name="uni0916094D0916" horiz-adv-x="1389" 
d="M1228 323q0 50 -37 84.5t-82.5 34.5t-74 -27t-28.5 -73t32 -74q49 -45 131 -45q12 0 25 1q13 13 23.5 40t10.5 59zM848 615v-250q0 -42 -27 -71t-76 -34q38 -61 104.5 -110t139.5 -49q108 0 173 83q-92 1 -155.5 47.5t-63.5 131.5q0 56 38.5 94t97.5 38q93 0 144 -70
l1 190h-376zM253 615v-250q0 -42 -27 -71t-76 -34q39 -62 105.5 -110.5t139.5 -48.5q107 0 172 83q-92 1 -155 47.5t-63 131.5q0 56 38.5 94t97.5 38q87 0 143 -67q23 -23 38 -58q26 -37 65 -37q47 0 47 51v231h-525zM633 323q0 50 -37 84.5t-82 34.5t-74 -27t-29 -73
t31 -74q50 -45 133 -45q12 0 25 1q12 13 22.5 40.5t10.5 58.5zM1295 615v-615l-71 50l6 116q-26 -43 -86 -84t-123.5 -41t-114 19t-92.5 54q-73 64 -135 158q-11 -94 -89 -162.5t-171 -68.5q-53 0 -102.5 19t-85.5 45.5t-73.5 70.5t-61 78.5t-54.5 85.5l29 27q34 -34 65 -34
q48 0 48 51v231h-204l-40 60h1469l40 -60h-154z" />
    <glyph glyph-name="uni0916094D0924" horiz-adv-x="1127" 
d="M963 446v169h-710v-250q0 -42 -27 -71t-76 -34q39 -62 105.5 -110.5t139.5 -48.5q107 0 172 83q-92 1 -155 47.5t-63 131.5q0 56 38.5 94t97.5 38q87 0 143 -67q17 -17 30 -40q41 58 139 58h166zM633 323q0 50 -37 84.5t-82 34.5t-74 -27t-29 -73t31 -74q50 -45 133 -45
q12 0 25 1q12 13 22.5 40.5t10.5 58.5zM1034 615v-615l-71 48v333h-147q-58 0 -89.5 -31t-31.5 -86q0 -97 107 -239l-35 -25q-78 100 -112 192q-34 -67 -99.5 -109t-127.5 -42t-111.5 19t-85.5 45.5t-73.5 70.5t-61 78.5t-54.5 85.5l29 27q34 -34 65 -34q48 0 48 51v231
h-204l-40 60h1207l41 -60h-154z" />
    <glyph glyph-name="uni0916094D092E" horiz-adv-x="1166" 
d="M1000 357v258h-228v-258h228zM702 357v258h-449v-250q0 -42 -27 -71t-76 -34q39 -62 105.5 -110.5t139.5 -48.5q107 0 172 83q-92 1 -155 47.5t-63 131.5q0 56 38.5 94t97.5 38q87 0 143 -67q31 -32 43 -72q4 1 13 1h18zM633 323q0 50 -37 84.5t-82 34.5t-74 -27t-29 -73
t31 -74q50 -45 133 -45q12 0 25 1q12 13 22.5 40.5t10.5 58.5zM1072 615v-615l-72 51v240h-228v-71q0 -25 -23 -25q-33 0 -75 47q-22 -85 -96 -143t-159 -58q-53 0 -102.5 19t-85.5 45.5t-73.5 70.5t-61 78.5t-54.5 85.5l29 27q34 -34 65 -34q48 0 48 51v231h-204l-40 60
h1246l39 -60h-153z" />
    <glyph glyph-name="uni0916094D092F" horiz-adv-x="1173" 
d="M1008 615h-221q36 -24 54 -58.5t18 -53t-3 -28.5t-10.5 -20t-13.5 -17t-20 -16.5t-22 -14.5t-26 -16.5t-22.5 -14.5t-13 -8.5t-11 -8l-7.5 -7.5q-8 -11 -8 -24q0 -38 42.5 -68.5t94.5 -30.5t97 35t72 85v266zM253 615v-250q0 -42 -27 -71t-76 -34q39 -62 105.5 -110.5
t139.5 -48.5q107 0 172 83q-92 1 -155 47.5t-63 131.5q0 56 38.5 94t97.5 38q87 0 143 -67q10 -10 20 -25q84 43 114.5 70t30.5 49.5t-19.5 49t-51.5 43.5h-469zM633 323q0 50 -37 84.5t-82 34.5t-74 -27t-29 -73t31 -74q50 -45 133 -45q12 0 25 1q12 13 22.5 40.5
t10.5 58.5zM1079 615v-615l-72 51l2 196q-69 -81 -152 -81q-45 0 -93.5 28t-85.5 71q-14 -92 -91 -158t-168 -66q-53 0 -102.5 19t-85.5 45.5t-73.5 70.5t-61 78.5t-54.5 85.5l29 27q34 -34 65 -34q48 0 48 51v231h-204l-40 60h1253l40 -60h-154z" />
    <glyph glyph-name="uni0916094D0935" horiz-adv-x="1156" 
d="M991 615h-738v-250q0 -42 -27 -71t-76 -34q39 -62 105.5 -110.5t139.5 -48.5q107 0 172 83q-92 1 -155 47.5t-63 131.5q0 56 38.5 94t97.5 38q87 0 143 -67q5 -5 13 -15q17 54 61.5 85.5t97.5 31.5q78 0 149 -74l-22 -34q-41 45 -99.5 45t-96 -43t-37.5 -94.5t32.5 -87.5
t88.5 -36q37 0 84.5 32t91.5 91v286zM633 323q0 50 -37 84.5t-82 34.5t-74 -27t-29 -73t31 -74q50 -45 133 -45q12 0 25 1q12 13 22.5 40.5t10.5 58.5zM1063 615v-615l-72 61l4 167q-29 -33 -71.5 -57t-85 -24t-88.5 25t-77 67q-23 -83 -96 -140.5t-158 -57.5
q-53 0 -102.5 19t-85.5 45.5t-73.5 70.5t-61 78.5t-54.5 85.5l29 27q34 -34 65 -34q48 0 48 51v231h-204l-40 60h1236l41 -60h-154z" />
    <glyph glyph-name="uni0916094D0936" horiz-adv-x="1278" 
d="M633 323q0 50 -37 84.5t-82 34.5t-74 -27t-29 -73t31 -74q50 -45 133 -45q12 0 25 1q12 13 22.5 40.5t10.5 58.5zM729 462q-38 41 -38 92.5t35.5 89t89.5 37.5q76 0 129.5 -69.5t53.5 -147.5q0 -99 -61 -155t-142 -56q-12 0 -25 1q44 -61 199 -221l-49 -33
q-143 162 -240 286q-6 -99 -85.5 -172t-176.5 -73q-53 0 -102.5 19t-85.5 45.5t-73.5 70.5t-61 78.5t-54.5 85.5l29 27q34 -34 65 -34q48 0 48 51v231h-204l-40 60h658l40 -60h-385v-250q0 -42 -27 -71t-76 -34q39 -62 105.5 -110.5t139.5 -48.5q107 0 172 83
q-92 1 -155 47.5t-63 131.5q0 56 38.5 94t97.5 38q87 0 143 -67q21 -23 32 -46q40 -64 114.5 -64t120.5 46t46 125q0 56 -26.5 94t-67.5 38t-66 -25.5t-25 -61.5q0 -72 80 -98l-20 -34q-49 19 -87 60zM1184 615v-615l-71 49v566h-77l-38 60h296l38 -60h-148z" />
    <glyph glyph-name="uni0917094D0917" horiz-adv-x="784" 
d="M690 615v-615l-71 52v563h-175v-321q0 -28 -5.5 -41t-21.5 -13q-30 0 -70 44t-40 76q0 28 66 28v227h-181v-321q0 -28 -5.5 -41t-21.5 -13q-30 0 -70 44t-40 76q0 28 66 28v227h-141l-41 60h865l41 -60h-155z" />
    <glyph glyph-name="uni0917094D0918" horiz-adv-x="914" 
d="M749 615h-242q-32 -9 -56 -37t-24 -69.5t52 -84.5q30 6 64 6t64 -6l22 -66q-36 8 -75 8q-127 0 -127 -84q0 -46 41 -77.5t97.5 -31.5t104.5 35.5t79 81.5v325zM821 615v-615l-72 48l5 148q-70 -83 -156.5 -83t-160.5 61.5t-74 134t73 103.5q-36 22 -55.5 55t-19.5 61
t12 52t35 37l-59 -2h-157v-321q0 -28 -5.5 -41t-21.5 -13q-30 0 -70 44t-40 76q0 28 66 28v227h-141l-41 60h995l41 -60h-154z" />
    <glyph glyph-name="uni0917094D091C" horiz-adv-x="1010" 
d="M917 615v-615l-72 49v338h-214q77 -69 77 -159q0 -52 -33 -87t-82.5 -35t-86.5 21.5t-62.5 50.5t-49.5 76q-33 64 -68 162l40 24q39 -125 70 -176q42 -66 76 -84q23 -12 56.5 -12t57.5 23.5t24 57t-9.5 57.5t-32.5 52q-29 34 -78 83l6 10h309v164h-653v-321
q0 -28 -5.5 -41t-21.5 -13q-30 0 -70 44t-40 76q0 28 66 28v227h-141l-41 60h1092l40 -60h-154z" />
    <glyph glyph-name="uni0917094D0923" horiz-adv-x="1030" 
d="M633 374v241h-190v-221q0 -60 26.5 -95t75.5 -35q88 0 88 110zM936 615v-615l-71 49v566h-162v-272q0 -60 -35.5 -98t-95.5 -38t-129 59t-69 150v199h-182v-321q0 -28 -5.5 -41t-21.5 -13q-30 0 -70 44t-40 76q0 28 66 28v227h-141l-41 60h1111l41 -60h-155z" />
    <glyph glyph-name="uni0917094D0926" horiz-adv-x="818" 
d="M695 426h-136q-162 0 -162 -139q0 -61 46.5 -106.5t103.5 -45.5q26 0 47.5 7t29.5 14l9 7q-29 43 -29 69t21.5 44t49 18t52.5 -33t25 -65t-44 -69l104 -123l-44 -32l-94 132q-49 -29 -99 -29q-81 0 -154 68q-39 35 -63 83t-24 97q0 72 48.5 119.5t135.5 47.5h105v125
h-431v-321q0 -28 -5.5 -41t-21.5 -13q-30 0 -70 44t-40 76q0 28 66 28v227h-141l-41 60h900l38 -60h-182v-189z" />
    <glyph glyph-name="uni0917094D0927" horiz-adv-x="0" 
 />
    <glyph glyph-name="uni0917094D092C" horiz-adv-x="882" 
d="M408 328q0 -52 37.5 -90.5t91.5 -38.5q37 0 82 31l-178 190q-33 -40 -33 -92zM788 615v-615l-72 62l4 173q-28 -35 -72 -63t-85 -28q-79 0 -146.5 63.5t-67.5 142.5t52.5 128.5t117.5 49.5q80 0 148 -71l-24 -33q-43 45 -91.5 45t-82.5 -25l179 -192q39 35 68 80v283
h-524v-321q0 -28 -5.5 -41t-21.5 -13q-30 0 -70 44t-40 76q0 28 66 28v227h-141l-41 60h962l41 -60h-154z" />
    <glyph glyph-name="uni0917094D092D" horiz-adv-x="854" 
d="M760 615v-615l-72 51v241h-208v-71q0 -26 -23 -26q-31 0 -74 45t-43 81q0 20 14.5 28.5t55.5 8.5v177q0 35 -19 57.5t-52 22.5h-147v-321q0 -28 -5.5 -41t-21.5 -13q-30 0 -70 44t-40 76q0 28 66 28v227h-141l-41 60h368q54 0 94 -35l33 -29q46 -45 46 -106v-147h208v257
h-125l-41 60h351l41 -60h-154z" />
    </font>
</defs>
</svg>
