<?xml version="1.0" standalone="no"?>
<!DOCTYPE svg PUBLIC "-//W3C//DTD SVG 1.1//EN" "http://www.w3.org/Graphics/SVG/1.1/DTD/svg11.dtd" >
<svg xmlns="http://www.w3.org/2000/svg" xmlns:xlink="http://www.w3.org/1999/xlink" version="1.1">
<metadata>
Created by FontForge 20170731 at Mon Aug 25 09:13:38 2014
 By Aleksey,,,
Copyright (c) 2014 Indian Type Foundry (info@indiantypefoundry.com)
</metadata>
<defs>
<font id="Halant-SemiBold" horiz-adv-x="0" >
  <font-face 
    font-family="Halant SemiBold"
    font-weight="600"
    font-stretch="normal"
    units-per-em="1000"
    panose-1="0 0 7 0 0 0 0 0 0 0"
    ascent="800"
    descent="-200"
    x-height="505"
    cap-height="682"
    bbox="-571 -462 2161 1059"
    underline-thickness="50"
    underline-position="-150"
    unicode-range="U+000D-FB02"
  />
<missing-glyph horiz-adv-x="550" 
d="M0 0v741h550v-741h-550zM75 669v-597h400v597h-400zM275 307h-4l-80 -194h-80l119 260l-119 255h80l85 -191h4l80 191h80l-120 -261l120 -254h-80z" />
    <glyph glyph-name="fi" unicode="fi" horiz-adv-x="634" 
d="M596 93v-14t-3 -32h-249q-1 7 -1 19.5t5 26.5q33 5 48.5 16.5t15.5 38.5v295h-195v-334q26 -14 67 -16v-14t-3 -32h-256v19.5t4 26.5q33 5 48.5 16.5t15.5 39.5v290q-19 4 -59 4q-1 7 -1 17.5t3 21.5q31 14 57 19v57q0 99 58 150.5t153.5 51.5t168 -39t72.5 -88
q0 -27 -20 -44.5t-46 -17.5t-44 14t-31 33.5t-27 39.5q-35 46 -87 46q-73 -1 -73 -92v-110q215 3 319 11v-408q24 -10 60 -12z" />
    <glyph glyph-name="fl" unicode="fl" horiz-adv-x="625" 
d="M588 93q1 -5 1 -16.5t-5 -29.5h-248q-1 7 -1 19.5t5 26.5q33 5 48.5 16.5t15.5 38.5v529q-42 21 -96 21q-92 0 -92 -91v-105q71 2 128 9q0 -39 -10 -68h-118v-337q23 -11 61 -13v-16.5t-4 -29.5h-248v19.5t4 26.5q33 5 48.5 16.5t15.5 38.5v291q-20 4 -59 4v15t1 24
q33 14 58 19v52q0 134 122 185q66 28 153.5 28t158.5 -20v-640q23 -11 61 -13z" />
    <glyph glyph-name=".notdef" horiz-adv-x="550" 
d="M0 0v741h550v-741h-550zM75 669v-597h400v597h-400zM275 307h-4l-80 -194h-80l119 260l-119 255h80l85 -191h4l80 191h80l-120 -261l120 -254h-80z" />
    <glyph glyph-name=".null" 
 />
    <glyph glyph-name="nonmarkingreturn" horiz-adv-x="333" 
 />
    <glyph glyph-name="NULL" 
 />
    <glyph glyph-name="NULL" 
 />
    <glyph glyph-name="CR" unicode="&#xd;" horiz-adv-x="250" 
 />
    <glyph glyph-name="space" unicode=" " horiz-adv-x="250" 
 />
    <glyph glyph-name="exclam" unicode="!" horiz-adv-x="449" 
d="M170 699l99 -37l-19 -436h-7l-59 30l-23 443h9zM264.5 51.5q-19.5 -19.5 -47 -19.5t-47 19.5t-19.5 46.5t19.5 47t46.5 20t47 -19.5t20 -47t-19.5 -47z" />
    <glyph glyph-name="quotedbl" unicode="&#x22;" horiz-adv-x="395" 
d="M70 817h104l-27 -211h-50zM216 817h103l-26 -211h-50z" />
    <glyph glyph-name="numbersign" unicode="#" horiz-adv-x="704" 
d="M415 288l36 179h-151l-35 -179h150zM670 467h-136l-35 -179h129v-77h-145l-32 -164h-84l33 164h-151l-32 -164h-83l33 164h-124v77h139l36 179h-133v77h148l32 161h82l-32 -161h152l32 161h82l-32 -161h121v-77z" />
    <glyph glyph-name="dollar" unicode="$" horiz-adv-x="474" 
d="M241 586q-35 0 -60 -18.5t-25 -54.5q0 -24 9.5 -35t16 -16.5t20.5 -12.5t23.5 -11.5t30 -13t32.5 -13.5q72 -30 111 -68.5t39 -111t-47.5 -120t-117.5 -55.5v-65h-57v65q-98 10 -192 79l61 91q23 -31 68.5 -61t93 -30t73 23t25.5 61t-25 58t-69 37.5t-64 26.5t-47 25.5
t-42 33.5q-35 43 -35 107.5t47.5 109.5t113.5 52v62h58v-64q73 -11 135 -62l-56 -78q-48 59 -120 59z" />
    <glyph glyph-name="percent" unicode="%" horiz-adv-x="816" 
d="M272 47h-107l385 625h106zM136 510q0 -46 15 -72.5t41 -26.5t41 25.5t15 73.5q0 93 -57 93q-55 0 -55 -93zM93.5 628.5q34.5 45.5 99 45.5t98.5 -45.5t34 -116t-33 -117.5t-98 -47t-100 48.5t-35 117.5t34.5 114.5zM636 298q-55 0 -55 -92q0 -48 14.5 -74t40.5 -26
t41.5 25.5t15.5 71.5q0 95 -57 95zM637 369q65 0 98.5 -45.5t33.5 -116t-33 -117.5t-98 -47t-99.5 48t-34.5 117.5t34 115t99 45.5z" />
    <glyph glyph-name="ampersand" unicode="&#x26;" horiz-adv-x="706" 
d="M183.5 166.5q43.5 -29.5 102 -29.5t106.5 43q-116 95 -177 158q-75 -52 -75 -97t43.5 -74.5zM255 622q-56 0 -56 -54q0 -50 66 -130q73 59 73 108q0 31 -24.5 53.5t-58.5 22.5zM239 34q-79 0 -141 47.5t-62 116.5q0 53 36 93t107 87q-73 86 -73 141q0 73 56 124t120 51
t110 -36.5t46 -90.5q0 -40 -33.5 -77.5t-104.5 -91.5q57 -61 154 -141q32 54 68 158h165l-30 -97h-119q-21 -56 -43 -95q76 -60 160 -120l-77 -63q-73 52 -135 100q-85 -106 -204 -106z" />
    <glyph glyph-name="quotesingle" unicode="'" horiz-adv-x="297" 
d="M99 817h104l-27 -211h-50z" />
    <glyph glyph-name="parenleft" unicode="(" horiz-adv-x="390" 
d="M247.5 649.5q-48.5 -125.5 -48.5 -255t48.5 -256.5t146.5 -219l-53 -43q-124 101 -187 235t-63 284q0 311 250 514l53 -43q-98 -91 -146.5 -216.5z" />
    <glyph glyph-name="parenright" unicode=")" horiz-adv-x="385" 
d="M299 395q0 -150 -62.5 -284t-186.5 -235l-54 43q98 92 146.5 219t48.5 256.5t-48.5 255t-146.5 216.5l54 43q124 -101 186.5 -232.5t62.5 -281.5z" />
    <glyph glyph-name="asterisk" unicode="*" horiz-adv-x="474" 
d="M221 725q34 0 51 -5l-20 -131l114 57q10 -13 18.5 -46t8.5 -52l-128 -11l95 -88q-8 -15 -35 -35t-46 -25l-54 112l-52 -111q-17 4 -45 23.5t-37 34.5l91 89l-128 11q0 21 8.5 54t19.5 44l113 -56l-23 128q15 7 49 7z" />
    <glyph glyph-name="plus" unicode="+" horiz-adv-x="649" 
d="M580 314h-205v-204h-7l-94 73v131h-162l-43 86v8h205v203h8l93 -74v-129h162l43 -87v-7z" />
    <glyph glyph-name="comma" unicode="," horiz-adv-x="299" 
d="M127 174q100 -36 100 -139t-82 -200l-58 28q56 77 56.5 134t-64.5 91v7z" />
    <glyph glyph-name="hyphen" unicode="-" horiz-adv-x="600" 
d="M523 314h-411l-43 86v8h411l43 -87v-7z" />
    <glyph glyph-name="period" unicode="." horiz-adv-x="276" 
d="M189 58.5q-21 -21.5 -50.5 -21.5t-50.5 21.5t-21 51t21 50.5t50.5 21t50.5 -21t21 -50.5t-21 -51z" />
    <glyph glyph-name="slash" unicode="/" horiz-adv-x="461" 
d="M271 783h100l-206 -813h-99z" />
    <glyph glyph-name="zero" unicode="0" horiz-adv-x="548" 
d="M352.5 155q18.5 61 18.5 183q0 164 -22 230.5t-79 66.5t-76 -65q-16 -55 -16 -169q0 -167 19.5 -237t78 -70t77 61zM505 363q0 -156 -62 -242.5t-169.5 -86.5t-169 86.5t-61.5 242.5t62 244.5t168.5 88.5t169 -88.5t62.5 -244.5z" />
    <glyph glyph-name="one" unicode="1" horiz-adv-x="348" 
d="M19 47v18.5t5 27.5q48 5 71 16t23 39v427l-94 -15q-1 6 -1 15.5t4 18.5q109 67 188 105l26 -11v-575q38 -17 87 -20q0 -29 -4 -46h-305z" />
    <glyph glyph-name="two" unicode="2" horiz-adv-x="488" 
d="M323 145q42 0 61.5 19.5t29.5 72.5q15 0 29 -7q0 -108 -23 -183h-366q-10 53 -10 83q158 168 206.5 239t48.5 139q0 43 -24.5 71.5t-62.5 28.5q-78 0 -101 -95q-6 -1 -15.5 -1t-23.5 2v55t5 74q76 52 165 52t139.5 -49.5t50.5 -124.5q0 -39 -11 -62.5t-18 -37t-25 -35
t-30 -35.5t-41 -42.5t-47 -45.5q-63 -58 -126 -118h189z" />
    <glyph glyph-name="three" unicode="3" horiz-adv-x="472" 
d="M252 424q32 36 32 84t-21.5 74t-58.5 26q-82 0 -105 -95q-6 -1 -15 -1t-24 2v55t5 74q86 52 182 52q71 0 120 -42.5t49 -107.5q0 -47 -32.5 -90t-89.5 -71q134 -43 134 -166q0 -79 -62.5 -131.5t-153.5 -52.5t-177 71q13 34 32 47q54 -39 115 -39t92.5 27t31.5 77
t-37.5 80.5t-106.5 32.5v51q58 7 90 43z" />
    <glyph glyph-name="four" unicode="4" horiz-adv-x="509" 
d="M281 273v230l-169 -230h169zM390 206v-101q25 -11 63 -13q0 -28 -4 -45h-235v19t4 26q34 5 48.5 16.5t14.5 39.5v58h-229q-20 28 -27 56l301 423h64v-412h89q5 -24 5 -40.5t-1 -26.5h-93z" />
    <glyph glyph-name="five" unicode="5" horiz-adv-x="484" 
d="M145 413q63 36 127.5 36t115 -49t50.5 -140.5t-68 -158.5t-165.5 -67t-175.5 71q13 33 33 48q56 -40 118.5 -40t98.5 37.5t36 96.5t-29.5 91t-77 32t-116.5 -43l-19 9l33 336h204q65 0 85 46q14 0 29 -6q-3 -64 -26 -139h-235z" />
    <glyph glyph-name="six" unicode="6" horiz-adv-x="504" 
d="M261 102q39 0 66 37.5t27 95.5q0 63 -30 98t-72.5 35t-75.5 -19q-6 -36 -6 -60q0 -98 26 -142.5t65 -44.5zM407 100.5q-64 -66.5 -150 -66.5t-143.5 63t-62.5 168q-1 12 -1 23q0 125 83.5 240t225.5 173q37 -21 37 -47q-156 -73 -207 -245q47 31 115.5 31t115.5 -46
q51 -50 51 -138.5t-64 -155z" />
    <glyph glyph-name="seven" unicode="7" horiz-adv-x="436" 
d="M202 47q-13 -2 -34.5 -2t-56.5 9l177 417l52 105h-183q-41 0 -59.5 -16.5t-27.5 -64.5q-18 0 -32 7q0 107 10 173h345q22 -34 28 -78z" />
    <glyph glyph-name="eight" unicode="8" horiz-adv-x="538" 
d="M193.5 122q27.5 -25 74 -25t75.5 28t29 74q0 81 -109 135q-53 -33 -75 -67.5t-22 -77t27.5 -67.5zM343 601.5q-22 29.5 -69 29.5t-70.5 -23t-23.5 -63q0 -71 112 -127q73 56 73 115q0 39 -22 68.5zM489 208q0 -68 -65 -121t-158 -53t-154 47.5t-61 106.5t39.5 98
t111.5 78q-142 74 -142 158q0 76 66 124t155 48t143.5 -45t54.5 -112q0 -46 -30.5 -81t-92.5 -70q133 -75 133 -178z" />
    <glyph glyph-name="nine" unicode="9" horiz-adv-x="487" 
d="M252 362q43 0 76 19q4 33 4 57q0 98 -28.5 144.5t-67.5 46.5t-64.5 -37t-25.5 -92q0 -65 31.5 -101.5t74.5 -36.5zM452 431q0 -119 -74 -224q-84 -120 -224 -178q-37 22 -39 47q153 73 201 245q-46 -31 -114.5 -31t-117.5 46q-55 52 -55 140.5t62 154t147.5 65.5t145 -63
t66.5 -168q2 -17 2 -34z" />
    <glyph glyph-name="colon" unicode=":" horiz-adv-x="312" 
d="M207.5 564q20.5 -21 20.5 -51t-21 -51t-51 -21t-51 21t-21 51t21 51t51.5 21t51 -21zM207 171.5q21 -21.5 21 -51.5t-21 -50.5t-51 -20.5t-51 20.5t-21 50.5t21 51.5t51 21.5t51 -21.5z" />
    <glyph glyph-name="semicolon" unicode=";" horiz-adv-x="312" 
d="M156 433q-30 0 -51 21t-21 50.5t21 51t51 21.5t51 -21.5t21 -51t-21 -50.5t-51 -21zM244 50q0 -54 -23.5 -107t-57.5 -94l-59 27q57 80 57 136t-65 90v8l49 78q99 -38 99 -138z" />
    <glyph glyph-name="less" unicode="&#x3c;" horiz-adv-x="645" 
d="M144 292l-56 91l397 202l69 -88l-325 -170l317 -135l-31 -59z" />
    <glyph glyph-name="equal" unicode="=" horiz-adv-x="651" 
d="M577 413h-452l-43 86v9h452l43 -87v-8zM577 212h-452l-43 86v9h452l43 -87v-8z" />
    <glyph glyph-name="greater" unicode="&#x3e;" horiz-adv-x="674" 
d="M515 427l55 -91l-397 -203l-69 89l325 169l-318 136l32 58z" />
    <glyph glyph-name="question" unicode="?" horiz-adv-x="572" 
d="M266 40q-27 0 -45.5 19t-18.5 45.5t18.5 45.5t45.5 19t46.5 -19.5t19.5 -45.5t-19.5 -45t-46.5 -19zM381 568q0 26 -24.5 45.5t-63.5 19.5q-67 0 -131 -51l-65 81q65 57 150.5 57t152.5 -57t67 -134q0 -72 -61 -116q-44 -32 -104 -56v-114h-10l-67 32v149
q104 45 130 74.5t26 69.5z" />
    <glyph glyph-name="at" unicode="@" horiz-adv-x="946" 
d="M528 144v129h-4q-53 0 -85.5 -27t-32.5 -63t15 -53t39 -17q41 0 68 31zM650 361v-184q0 -68 47 -68q36 0 67.5 44.5t31.5 148.5q0 134 -79.5 220.5t-229.5 86.5t-243.5 -100t-93.5 -266q0 -143 91 -233.5t252 -90.5q-1 -31 -22 -66q-187 0 -299 115t-112 279
q0 187 121.5 311.5t305.5 124.5t291.5 -109.5t107.5 -271.5q0 -132 -67.5 -200t-160.5 -68t-120 66q-55 -66 -132 -66q-58 0 -94.5 34.5t-36.5 92.5q0 80 75 124q63 37 147 37q15 0 31 -1v34q0 39 -19 56.5t-68 17.5t-108 -23l-26 36q83 75 193 75q74 0 112 -41t38 -115z
" />
    <glyph glyph-name="A" unicode="A" horiz-adv-x="622" 
d="M199 320h162l-83 271l-8 -40zM346 47q0 25 4 46q50 12 74 24l-45 147h-197l-48 -157q26 -14 78 -14q0 -26 -4 -46h-209q0 26 4 46q56 13 72 62l174 528q45 10 124 12l173 -542q11 -33 27.5 -46t50.5 -14q-2 -30 -5 -46h-273z" />
    <glyph glyph-name="B" unicode="B" horiz-adv-x="621" 
d="M232 99h68q66 0 101 31.5t35 90t-35 91t-101 32.5h-68v-245zM232 396h93q38 15 61 45.5t23 78.5t-31.5 79.5t-91.5 31.5h-54v-235zM286 682q132 0 193.5 -47.5t61.5 -122.5q0 -92 -92 -133q57 -17 87.5 -59t30.5 -99q0 -80 -66.5 -127t-195.5 -47h-266v19t4 27
q33 5 48 16t15 39v476q-30 12 -69 12v14t3 32h246z" />
    <glyph glyph-name="C" unicode="C" horiz-adv-x="610" 
d="M354 34q-125 0 -213.5 86.5t-88.5 238t96.5 244.5t239.5 93q113 0 179 -34q-5 -87 -21 -166q-37 0 -40 1q-2 58 -34 93.5t-89 35.5q-85 0 -139.5 -67.5t-54.5 -190t57.5 -186.5t147.5 -64t158 45l28 -31q-40 -45 -99.5 -71.5t-126.5 -26.5z" />
    <glyph glyph-name="D" unicode="D" horiz-adv-x="666" 
d="M233 99h62q99 0 151 69.5t52 196.5t-52.5 196.5t-155.5 69.5h-57v-532zM305 682q145 0 237 -83.5t92 -234t-88.5 -234t-229.5 -83.5h-277v19t4 27q33 5 48 16t15 39v476q-27 12 -69 12v14t3 32h265z" />
    <glyph glyph-name="E" unicode="E" horiz-adv-x="568" 
d="M234 99h150q48 0 63 28t22 95q39 0 55 -3q4 -58 4 -101t-1 -71h-487v18.5t5 27.5q33 5 48 16t15 39v475q-27 13 -71 13q0 30 5 46h475v-65t-5 -101q-20 -2 -52 -2q-9 81 -24 96q-21 21 -58 21h-144v-238l144 11h39v-73h-39l-144 8v-240z" />
    <glyph glyph-name="F" unicode="F" horiz-adv-x="539" 
d="M517 682v-65t-5 -101q-20 -2 -52 -2q-9 81 -24 96q-21 21 -58 21h-144v-258l140 11h40v-73h-40l-140 8v-205q39 -15 105 -21q0 -29 -4 -46h-296v19t5 27q33 5 48.5 16.5t15.5 39.5v474q-27 13 -71 13q0 30 5 46h475z" />
    <glyph glyph-name="G" unicode="G" horiz-adv-x="680" 
d="M663 365q1 -6 1 -18.5t-5 -31.5q-32 -8 -45 -15q-21 -12 -21 -41v-212h-67l-21 30q-71 -43 -153 -43q-125 0 -212.5 87.5t-87.5 237.5t100.5 243.5t240.5 93.5q107 0 206 -34q-3 -81 -21 -161h-12.5t-26.5 1q-10 58 -49 90.5t-98 32.5q-93 0 -148 -68.5t-55 -194.5
t51 -191.5t138 -65.5q54 0 104 25v172q-34 11 -82 13q0 30 4 50h259z" />
    <glyph glyph-name="H" unicode="H" horiz-adv-x="723" 
d="M617 581v-476q29 -12 69 -12q0 -27 -3 -46h-261q0 32 4 46q33 5 48 16t15 39v184h-255v-227q29 -12 69 -12v-14t-3 -32h-260v18.5t5 27.5q33 5 48 16t15 39v475q-29 13 -71 13q0 30 5 46h259q1 -7 1 -19.5t-5 -26.5q-32 -4 -47.5 -15.5t-15.5 -39.5v-187h255v230
q-29 12 -69 12v17t4 29h260v-19.5t-4 -26.5q-33 -4 -48 -15.5t-15 -39.5z" />
    <glyph glyph-name="I" unicode="I" horiz-adv-x="342" 
d="M234 581v-476q29 -12 69 -12v-14t-3 -32h-260v18.5t5 27.5q33 5 48 16t15 39v475q-29 13 -71 13q0 30 5 46h259q1 -7 1 -19.5t-5 -26.5q-32 -4 -47.5 -15.5t-15.5 -39.5z" />
    <glyph glyph-name="J" unicode="J" horiz-adv-x="334" 
d="M301 682q1 -7 1 -19.5t-5 -26.5q-32 -4 -47.5 -15.5t-15.5 -39.5v-477q0 -200 -217 -264q-22 20 -32 36q73 42 98 91.5t25 135.5v520q-29 13 -71 13q0 30 5 46h259z" />
    <glyph glyph-name="K" unicode="K" horiz-adv-x="722" 
d="M649 93q1 -6 1 -17t-6 -29h-177l-176 259q-14 20 -28 22l-29 -28v-195q29 -12 69 -12v-14t-3 -32h-260v18.5t5 27.5q33 5 48 16t15 39v475q-29 13 -71 13q0 30 5 46h259q1 -7 1 -19.5t-5 -26.5q-32 -4 -47.5 -15.5t-15.5 -39.5v-204l251 247q-22 11 -68 13q-2 8 -2 19.5
t6 25.5h226q0 -31 -3 -45q-60 0 -108 -45l-185 -179q34 -10 62 -54l139 -205q23 -36 42.5 -47.5t54.5 -13.5z" />
    <glyph glyph-name="L" unicode="L" horiz-adv-x="554" 
d="M233 98h158q37 0 57 20q13 13 17.5 41.5t6.5 54.5q27 0 45 -2q7 -71 7 -109.5t-1 -55.5h-484v19t4 27q33 5 48 16t15 39v476q-28 12 -69 12v14t3 32h259q1 -7 1 -18.5t-5 -27.5q-32 -4 -47 -15.5t-15 -39.5v-483z" />
    <glyph glyph-name="M" unicode="M" horiz-adv-x="881" 
d="M853 93q2 -12 2 -24t-1 -22h-281q-1 12 -1 23.5t1 22.5q25 4 38 7.5t26 15.5t13 32l-12 433l-32 -84l-178 -450h-35l-192 537l-30 -482q31 -9 74 -9q-2 -24 -6 -46h-215q2 31 6 46q32 5 50 17t19 40l26 475q-27 11 -56 11v15t5 31h214l145 -418l164 418h208q3 -12 3 -24
t-1 -21q-30 -5 -43.5 -16.5t-12.5 -39.5l27 -478q32 -10 75 -10z" />
    <glyph glyph-name="N" unicode="N" horiz-adv-x="730" 
d="M686 682q0 -33 -5 -46q-65 -8 -65 -57v-532h-54l-314 413l-60 88v-443q27 -12 72 -12v-16.5t-4 -29.5h-209v18.5t5 27.5q32 5 48.5 17.5t16.5 39.5v479q-24 8 -72 8q2 31 6 45h186l244 -323l64 -95v360q-30 12 -72 12v14t3 32h210z" />
    <glyph glyph-name="O" unicode="O" horiz-adv-x="692" 
d="M491 352q0 289 -152 289q-137 0 -137 -267q0 -153 39 -219.5t110 -66.5q140 0 140 264zM345 33q-131 0 -212 91t-81 238.5t81 240.5t212 93t213.5 -93t82.5 -240.5t-82.5 -238.5t-213.5 -91z" />
    <glyph glyph-name="P" unicode="P" horiz-adv-x="576" 
d="M233 362h56q65 0 100.5 36t35.5 98t-35 98t-101 36h-56v-268zM313 310h-80v-198q36 -15 91 -19q0 -30 -5 -46h-280v19t4 27q33 5 48 16t15 39v475q-32 13 -69 13v14t3 32h272q110 0 180 -53t70 -134t-69.5 -133t-179.5 -52z" />
    <glyph glyph-name="Q" unicode="Q" horiz-adv-x="692" 
d="M351 93q140 0 140 252v18q-8 272 -152 272q-75 0 -106 -70t-31 -177v-26q3 -131 37.5 -200t111.5 -69zM698 28q1 -14 1 -35.5t-7.5 -56.5t-37 -68t-72 -33t-80.5 20t-64 45q-68 64 -120 64q-28 0 -45.5 -17t-19.5 -49h-21q-16 32 -16 67q0 52 57 77q-102 23 -161.5 109
t-59.5 211q0 148 81 241t212 93t213.5 -93t82.5 -235.5t-76 -236.5t-196 -109q32 -7 98.5 -37t110 -30t68 20.5t31.5 55.5z" />
    <glyph glyph-name="R" unicode="R" horiz-adv-x="650" 
d="M234 390h66q57 0 87.5 30.5t30.5 89t-30.5 89.5t-87.5 31h-66v-240zM628 97q0 -30 -5 -50h-165l-122 252q-10 21 -22 30t-35 9h-45v-226q39 -16 84 -19q1 -7 1 -18t-4 -28h-275v18.5t5 27.5q33 5 48 16t15 39v475q-32 13 -71 13q0 30 5 46h282q108 0 168.5 -46t60.5 -126
q0 -58 -33 -99t-95 -60q28 -17 53 -63l67 -131q18 -35 35.5 -47.5t47.5 -12.5z" />
    <glyph glyph-name="S" unicode="S" horiz-adv-x="520" 
d="M477 222q0 -85 -66 -136t-152 -51t-196 35q-1 19 -1 61t9 121q27 0 51 -5v-6q0 -146 136 -146q47 0 76 23.5t29 64.5t-30.5 72t-74 52.5t-87.5 46t-74.5 67.5t-30.5 102q0 80 59 125.5t145 45.5t178 -29q0 -70 -13 -154q-21 0 -41 3q-17 122 -120 122q-45 0 -73 -22
t-28 -60.5t31.5 -68.5t76 -51t89 -44.5t76 -66t31.5 -101.5z" />
    <glyph glyph-name="T" unicode="T" horiz-adv-x="561" 
d="M543 682q5 -43 5 -83t-2 -74q-13 -4 -43 -4q-5 61 -25 85t-63 24h-71v-524q35 -13 78 -13v-14t-3 -32h-279v18.5t5 27.5q39 5 55.5 16t16.5 39v482h-70q-44 0 -64 -24t-24 -85q-31 0 -44 4q-3 32 -3 71t6 86h525z" />
    <glyph glyph-name="U" unicode="U" horiz-adv-x="700" 
d="M675 682q1 -7 1 -19.5t-5 -26.5q-33 -4 -48 -15.5t-15 -39.5v-331q0 -112 -68.5 -164t-187.5 -52t-187 52t-68 164v373q-29 13 -69 13q-1 4 -1 13.5t4 32.5h259v-19.5t-4 -26.5q-32 -4 -47.5 -15.5t-15.5 -39.5v-333q0 -151 129 -151t129 151v376q-29 12 -70 12
q0 29 4 46h260z" />
    <glyph glyph-name="V" unicode="V" horiz-adv-x="645" 
d="M4 637q-5 19 -5 29.5t1 15.5h268q4 -11 4 -24t-1 -21q-46 -5 -56 -15t-10 -21.5t6 -26.5l129 -314q10 -25 19 -65h4l166 427q-33 12 -74 15q0 30 3 45h190q-4 -28 -8 -45q-27 -5 -42.5 -17.5t-25.5 -38.5l-222 -540h-49l-242 585q-24 8 -55 11z" />
    <glyph glyph-name="W" unicode="W" horiz-adv-x="944" 
d="M938 682v-15.5t-2 -29.5q-27 -5 -41.5 -17.5t-23.5 -40.5l-180 -538h-49l-160 425l-180 -425h-49l-191 585q-25 9 -55 11q-3 17 -3 28t1 17h273q6 -25 6 -45q-47 -4 -58 -15t-11 -23t4 -25l93 -289q9 -30 12 -62h3l178 428h49l131 -365q14 -36 15 -65h3l125 402
q-33 12 -58 14q1 22 6 45h162z" />
    <glyph glyph-name="X" unicode="X" horiz-adv-x="626" 
d="M609 93q4 -15 4 -26.5t-1 -19.5h-243q-4 11 -4 46q33 4 41 14t-3 23l-118 169l-141 -198q24 -6 56 -8q3 -16 3 -27t-1 -19h-182v17.5t7 28.5q44 1 79 46l147 207l-197 283q-24 7 -40 8q-4 17 -4 27.5t2 17.5h244q4 -17 4 -45q-44 -6 -44 -23q0 -7 6 -15l118 -170l143 198
q-27 7 -55 9q-3 15 -3 26.5t1 19.5h183q0 -27 -8 -46q-47 -2 -78 -46l-151 -207l195 -282q16 -6 40 -8z" />
    <glyph glyph-name="Y" unicode="Y" horiz-adv-x="633" 
d="M284 637q-63 -5 -63 -36q0 -12 10 -28l116 -212h3q9 33 33 73l116 193q-31 9 -55 10q0 20 5 45h182q-2 -28 -7 -45q-31 -5 -45.5 -17t-31.5 -39l-162 -266v-212q29 -10 75 -10q0 -26 -4 -46h-280v16.5t3 29.5q23 4 35 8t22.5 15.5t10.5 31.5v163l-187 317q-27 9 -54 9
q-4 32 -4 45h275q7 -28 7 -45z" />
    <glyph glyph-name="Z" unicode="Z" horiz-adv-x="557" 
d="M392 111q40 0 59.5 19t28.5 71q18 0 31 -7q0 -91 -8 -147h-446q-10 21 -10 57l313 514h-185q-40 0 -59.5 -19.5t-29.5 -71.5q-14 0 -31 7q0 86 9 148h435q8 -22 8 -38v-19l-313 -514h198z" />
    <glyph glyph-name="bracketleft" unicode="[" horiz-adv-x="364" 
d="M189 775v-789h127l63 -94h-217l-81 94v884h235l63 -95h-190z" />
    <glyph glyph-name="backslash" unicode="\" horiz-adv-x="451" 
d="M66 783h100l205 -813h-99z" />
    <glyph glyph-name="bracketright" unicode="]" horiz-adv-x="325" 
d="M174 -14v789h-128l-62 95h217l81 -95v-882h-236l-62 93h190z" />
    <glyph glyph-name="asciicircum" unicode="^" horiz-adv-x="502" 
d="M292 653l171 -378q-31 -15 -75 -19l-137 295l-136 -295q-33 1 -68 19l171 378q18 3 37 3z" />
    <glyph glyph-name="underscore" unicode="_" horiz-adv-x="600" 
d="M523 93h-411l-43 86v8h411l43 -87v-7z" />
    <glyph glyph-name="grave" unicode="`" horiz-adv-x="211" 
d="M100 751l101 -178l-33 -20l-158 138v17q14 14 41 28t49 15z" />
    <glyph glyph-name="a" unicode="a" horiz-adv-x="493" 
d="M163 172q0 -27 15.5 -43t48 -16t58.5 29v130l-44 -12q-78 -22 -78 -88zM388 34q-34 0 -61.5 14.5t-37.5 41.5q-48 -56 -114.5 -56t-104.5 36t-38 92t36 89t109 48l108 22v36q0 38 -18.5 55.5t-67 17.5t-111.5 -22l-25 37q84 73 194 73q75 0 113 -41t38 -116v-199
q0 -51 32 -51q5 0 37 6l10 -26q-46 -57 -99 -57z" />
    <glyph glyph-name="b" unicode="b" horiz-adv-x="545" 
d="M190 113q33 -18 79.5 -18t78.5 46.5t32 138.5t-28.5 129.5t-65 37.5t-63.5 -26t-33 -75v-233zM319 518q81 0 138 -62.5t57 -175t-73.5 -179t-180.5 -66.5q-73 0 -131 44q-28 -29 -63 -43l-19 19q20 50 20 111v516q-10 1 -27.5 1t-41.5 -1q2 29 9 45q85 31 183 38v-332
q18 40 52 62.5t77 22.5z" />
    <glyph glyph-name="c" unicode="c" horiz-adv-x="450" 
d="M245 34q-85 0 -149.5 61.5t-64.5 173t72 180.5t178 69q69 0 133 -32q-1 -60 -14 -131q-11 0 -31 4q-3 45 -28.5 71t-63.5 26q-52 0 -83.5 -44t-31.5 -131.5t32.5 -129t89 -41.5t129.5 34l19 -28q-82 -82 -187 -82z" />
    <glyph glyph-name="d" unicode="d" horiz-adv-x="570" 
d="M289 451q-64 0 -95 -38.5t-31 -132.5q0 -168 106 -168q41 0 73 22v312q-27 5 -53 5zM545 91q-48 -57 -107 -57t-87 49q-57 -48 -129.5 -48t-131 60t-58.5 174t80 181.5t204 67.5q17 0 26 -1v165q-10 1 -27 1t-41 -1q2 31 7 45q87 31 185 38v-603q0 -51 30 -51q7 0 37 6z
" />
    <glyph glyph-name="e" unicode="e" horiz-adv-x="489" 
d="M263 457q-33 0 -60.5 -29t-36.5 -91l93 7l71 2q-3 111 -67 111zM162 292v-10q0 -170 129 -170q68 0 143 36l17 -29q-82 -85 -196 -85q-52 0 -101.5 23.5t-86 78.5t-36.5 130q0 116 72.5 184t170.5 68q76 0 128.5 -47t52.5 -147q-6 -18 -16 -32h-277z" />
    <glyph glyph-name="f" unicode="f" horiz-adv-x="342" 
d="M335 630q0 69 -55 69q-63 0 -63 -92v-105q70 2 127 9q0 -42 -9 -68h-118v-331q42 -16 93 -19q0 -29 -4 -46h-281v19.5t4 26.5q33 5 48.5 16.5t15.5 39.5v290q-25 4 -59 4q-1 7 -1 17.5t3 21.5q31 14 57 19v57q0 97 52 149.5t132 52.5q30 0 63 -13t55 -32q-3 -52 -18 -104
q-20 0 -43 5q1 7 1 14z" />
    <glyph glyph-name="g" unicode="g" horiz-adv-x="523" 
d="M182 372q0 -127 76 -127q32 0 50 26t18 78q0 125 -76 125q-68 0 -68 -102zM373 33h-195q-20 0 -36 3q-28 -28 -28 -64t36 -56.5t108 -20.5t119 29t47 65q0 44 -51 44zM217 -200q-85 0 -138 36.5t-53 103.5t73 109q-47 27 -47 83q0 33 20.5 59t54.5 40q-77 46 -77 124
t58 120.5t141 42.5t136 -33q56 45 146 45q1 -6 1 -20.5t-5 -48.5l-101 -11q30 -39 30 -90q0 -73 -57 -116.5t-145 -43.5q-45 0 -87 13q-35 -18 -35 -46q0 -17 13 -27.5t37 -10.5l196 1q128 0 128 -102q-1 -87 -85 -157.5t-204 -70.5z" />
    <glyph glyph-name="h" unicode="h" horiz-adv-x="614" 
d="M521 363v-257q43 -12 68 -13q1 -5 1 -16.5t-5 -29.5h-246q-1 7 -1 19.5t5 26.5q30 5 42 16t12 39v201q0 43 -19.5 64.5t-53.5 21.5q-69 0 -105 -93v-236q25 -11 60 -13v-14t-3 -32h-249q-1 7 -1 19.5t5 26.5q33 5 48.5 16.5t15.5 38.5v532q-16 2 -33.5 2t-34.5 -1
q2 31 7 45q88 31 185 37v-340q51 95 155 95q65 0 106 -40.5t41 -114.5z" />
    <glyph glyph-name="i" unicode="i" horiz-adv-x="316" 
d="M156 571q-31 0 -53 22t-22 53t22 53t53.5 22t53 -21.5t21.5 -53t-22 -53.5t-53 -22zM279 93v-14t-3 -32h-249q-1 7 -1 19.5t5 26.5q33 5 48.5 16.5t15.5 38.5v281q-16 2 -33.5 2t-34.5 -1q2 29 7 46q87 29 185 37v-407q25 -11 60 -13z" />
    <glyph glyph-name="j" unicode="j" horiz-adv-x="295" 
d="M156 571q-31 0 -53 22t-22 53t22 53t53.5 22t53 -21.5t21.5 -53t-22 -53.5t-53 -22zM95 55v374q-16 2 -33.5 2t-34.5 -1q2 29 7 46q87 29 185 37v-442q0 -191 -202 -262l-26 38q57 37 80.5 82t23.5 126z" />
    <glyph glyph-name="k" unicode="k" horiz-adv-x="594" 
d="M581 93v-13.5t-5 -32.5h-163l-128 186q-8 12 -15 17l-51 -50v-94q25 -11 60 -13v-14t-3 -32h-249q-1 7 -1 19.5t5 26.5q33 5 48.5 16.5t15.5 38.5v534q-9 1 -26 1t-42 -1q2 31 7 45q85 31 185 38v-490l173 171q-41 8 -70 22q0 23 6 38h223q0 -32 -3 -46q-64 0 -109 -45
l-90 -88q24 -12 50 -50l84 -123q24 -35 43.5 -47t54.5 -14z" />
    <glyph glyph-name="l" unicode="l" horiz-adv-x="316" 
d="M279 93v-14t-3 -32h-249q-1 7 -1 19.5t5 26.5q33 5 48.5 16.5t15.5 38.5v534q-9 1 -26 1t-42 -1q2 31 7 45q85 31 185 38v-659q25 -11 60 -13z" />
    <glyph glyph-name="m" unicode="m" horiz-adv-x="917" 
d="M824 363v-257q42 -12 67 -13q1 -5 1 -16.5t-5 -29.5h-245q-1 7 -1 18t4 28q30 5 42.5 16t12.5 39v201q0 43 -19.5 64.5t-53.5 21.5q-70 0 -106 -96v-233q25 -11 61 -13v-16.5t-4 -29.5h-239q-1 7 -1 19.5t5 26.5q30 5 42 16t12 39v201q0 43 -19.5 64.5t-53.5 21.5
q-69 0 -105 -93v-236q25 -11 60 -13v-14t-3 -32h-249q-1 7 -1 19.5t5 26.5q33 5 48.5 16.5t15.5 38.5v281q-16 2 -33.5 2t-34.5 -1q2 30 7 44q83 30 173 39q8 -41 11 -93q50 98 156 98q53 0 90.5 -27.5t50.5 -78.5q24 52 66.5 79t101.5 27t100 -40.5t41 -114.5z" />
    <glyph glyph-name="n" unicode="n" horiz-adv-x="607" 
d="M521 363v-257q43 -12 68 -13q1 -5 1 -16.5t-5 -29.5h-246q-1 7 -1 19.5t5 26.5q30 5 42 16t12 39v201q0 43 -19.5 64.5t-53.5 21.5q-69 0 -105 -93v-236q25 -11 60 -13v-14t-3 -32h-249q-1 7 -1 19.5t5 26.5q33 5 48.5 16.5t15.5 38.5v281q-16 2 -33.5 2t-34.5 -1
q2 30 7 44q83 30 173 39q8 -41 11 -93q50 98 156 98q65 0 106 -40.5t41 -114.5z" />
    <glyph glyph-name="o" unicode="o" horiz-adv-x="535" 
d="M372 260q0 201 -109 201q-101 0 -101 -169v-16q8 -182 111 -182q99 0 99 166zM439 455q65 -63 65 -178t-66 -178.5t-172 -63.5t-170.5 63t-64.5 178t66 178.5t171.5 63.5t170.5 -63z" />
    <glyph glyph-name="p" unicode="p" horiz-adv-x="568" 
d="M215 109q31 -14 75 -14t78.5 47t34.5 138.5t-28.5 129t-64 37.5t-61 -26t-34.5 -71v-241zM91 -85v514q-16 2 -34 2t-34 -1q2 26 8 44q82 30 169 39q9 -41 12 -79q40 84 125 84t142 -62.5t57 -174t-77.5 -179t-184.5 -67.5q-31 0 -59 9v-162q42 -20 91 -22q1 -7 1 -19
t-4 -28h-281v19t5 28q33 5 48.5 16.5t15.5 38.5z" />
    <glyph glyph-name="q" unicode="q" horiz-adv-x="544" 
d="M285 451q-122 0 -122 -169.5t106 -169.5q41 0 73 22v302q-25 15 -57 15zM466 523v-650q30 -9 69 -13q0 -30 -4 -47h-280q-1 7 -1 19t5 28q51 5 69 16.5t18 41.5v158q-55 -41 -116 -41q-77 0 -135.5 60t-58.5 173.5t78 181.5t194 68q55 0 103 -28q10 11 38 33h21z" />
    <glyph glyph-name="r" unicode="r" horiz-adv-x="393" 
d="M95 149v280q-16 2 -33.5 2t-34.5 -1q2 30 7 44q83 30 173 39q10 -62 12 -137q25 63 71.5 102.5t103.5 39.5q5 -18 5 -45.5t-10 -70.5q-152 0 -170 -116v-174q42 -16 93 -19v-16.5t-4 -29.5h-281q-1 7 -1 19.5t5 26.5q33 5 48.5 16.5t15.5 39.5z" />
    <glyph glyph-name="s" unicode="s" horiz-adv-x="420" 
d="M247 109q22 17 22 42t-22 44.5t-53 35.5t-62 34t-53 47.5t-22 68.5q0 68 48.5 102.5t118.5 34.5t133 -21v-42.5t-6 -81.5q-26 0 -39 4q1 11 1 20q0 68 -74 68q-30 0 -49.5 -16t-19.5 -42t22.5 -44.5t55 -33t65 -32t55 -47.5t22.5 -70q0 -65 -56 -105.5t-139 -40.5
t-149 20q-2 23 -2 56.5t7 77.5q2 0 41 -3v-20.5t7.5 -32.5t24.5 -26q27 -14 64 -14t59 17z" />
    <glyph glyph-name="t" unicode="t" horiz-adv-x="373" 
d="M213 35q-57 0 -92 34.5t-35 102.5v267q-28 4 -64 4q0 21 2 39q25 10 61 19l99 145l25 -7v-137q70 2 127 9q0 -38 -9 -68h-118l1 -265q0 -59 46 -59q38 0 77 30l21 -27q-61 -87 -141 -87z" />
    <glyph glyph-name="u" unicode="u" horiz-adv-x="597" 
d="M496 415v-289q32 -5 60 -5q3 -12 3 -23t-1 -19q-75 -34 -172 -37q-9 46 -12 92q-54 -99 -156 -99q-65 0 -106 41.5t-41 115.5v241q-15 1 -30.5 1h-27.5q2 30 7 44q88 33 174 38v-310q0 -42 20.5 -64.5t53.5 -22.5q67 0 105 96v175q0 60 -42 78q4 19 10 28q55 21 118 21
q20 0 41 -2q-4 -36 -4 -100z" />
    <glyph glyph-name="v" unicode="v" horiz-adv-x="526" 
d="M-5 460q-4 18 -4 28.5t1 16.5h249q4 -12 4 -45q-43 -2 -61 -9l108 -340q4 28 22 81l73 204q6 17 6 28t-4 17q-9 14 -47 19q-5 15 -5 27v18h209q1 -22 -9 -45q-36 -2 -60 -13l-163 -406h-104l-144 361q-10 28 -24 40t-47 18z" />
    <glyph glyph-name="w" unicode="w" horiz-adv-x="761" 
d="M750 505q2 -6 2 -16.5t-7 -28.5q-21 -2 -38 -7l-166 -412h-50l-109 280l-122 -280h-50l-151 410q-20 8 -40 9q-4 16 -4 27t2 18h229q4 -17 4 -45q-36 -3 -43 -12t-7 -18.5t3 -19.5l59 -177q8 -19 11 -43h2l117 295h50l92 -252q8 -19 11 -42h2l78 218q5 14 5 23.5t-8 18
t-44 9.5q-1 7 -1 19t4 26h169z" />
    <glyph glyph-name="x" unicode="x" horiz-adv-x="521" 
d="M524 93q4 -17 4 -28t-1 -18h-250q-4 14 -4 46q39 2 56 6l-101 128l-105 -127q8 -2 52 -7q3 -13 3 -25t-1 -21h-183q2 29 9 46q45 3 83 46l109 129l-112 141q-36 49 -85 51q-5 16 -5 27.5t1 17.5h253q4 -12 4 -45q-42 -2 -55 -6l98 -125l101 123q-17 4 -51 8q-2 15 -2 26
t1 19h181v-17.5t-8 -27.5q-42 -1 -82 -47l-107 -125l106 -134q27 -35 43.5 -47t47.5 -14z" />
    <glyph glyph-name="y" unicode="y" horiz-adv-x="528" 
d="M115 -187h-19q-13 39 -13 68t2 45h28q45 0 69 16t45 61l4 8l-162 391q-11 28 -25 40t-46 18q-4 18 -4 28.5t1 16.5h249q4 -12 4 -45q-43 -2 -61 -8l101 -322q8 32 18 58l83 208q7 18 7 29t-4 17q-10 13 -48 18q-4 18 -4 28.5t1 16.5h195q1 -22 -9 -45q-24 -4 -44 -10
l-224 -501q-30 -67 -64 -101.5t-80 -34.5z" />
    <glyph glyph-name="z" unicode="z" horiz-adv-x="469" 
d="M296 99q42 0 61.5 19.5t29.5 72.5q17 0 31 -7v-38t-9 -99h-368q-6 19 -6 36.5t4 32.5l246 338h-115q-41 0 -60.5 -20t-29.5 -73q-19 0 -32 8q0 67 10 136h358q5 -21 5 -38t-4 -31l-242 -337h121z" />
    <glyph glyph-name="braceleft" unicode="{" horiz-adv-x="550" 
d="M272 638l6 -111q0 -55 -19 -84.5t-64 -42.5q45 -14 64 -43.5t19 -84.5l-6 -110q0 -93 28 -119q35 -33 79.5 -40t91.5 -8v-66q-17 -1 -60 -1t-98 12.5t-86 44t-42.5 70t-11.5 95.5l7 106q0 57 -16 81.5t-74 28.5v68q58 3 74 27.5t16 81.5l-7 107q0 57 11.5 95t42.5 69
q56 56 212 56q15 0 32 -1v-65q-102 -2 -152 -32q-21 -12 -31.5 -35.5t-13 -43.5t-2.5 -55z" />
    <glyph glyph-name="bar" unicode="|" horiz-adv-x="311" 
d="M103 783h99v-813h-99v813z" />
    <glyph glyph-name="braceright" unicode="}" horiz-adv-x="550" 
d="M279 162l-6 110q0 55 18.5 84.5t63.5 43.5q-45 13 -63.5 42.5t-18.5 84.5l6 111q0 91 -29 118q-33 32 -78.5 39.5t-91.5 8.5v65q17 1 60 1t97.5 -12t85.5 -43.5t42 -69.5t11 -95l-6 -107q0 -57 16 -81.5t75 -27.5v-68q-59 -4 -75 -28.5t-16 -81.5l6 -106q0 -57 -11 -95.5
t-42 -70.5q-55 -56 -211 -56q-15 0 -32 1v66q96 2 136 24q21 12 34 24t20 33q9 31 9 86z" />
    <glyph glyph-name="asciitilde" unicode="~" horiz-adv-x="557" 
d="M192 408q36 0 100 -38.5t98 -38.5q66 0 79 81h38q-4 -88 -43 -135t-98 -47q-34 0 -101.5 38.5t-97.5 38.5q-67 0 -80 -80h-38q5 87 44 134t99 47z" />
    <glyph glyph-name="nbsp" unicode="&#xa0;" horiz-adv-x="250" 
 />
    <glyph glyph-name="exclamdown" unicode="&#xa1;" horiz-adv-x="449" 
d="M170.5 626.5q19.5 19.5 47 19.5t47 -19.5t19.5 -47t-20 -47t-47 -19.5t-46.5 20t-19.5 47t19.5 46.5zM269 16l-99 -37h-9l23 443l59 30h7z" />
    <glyph glyph-name="cent" unicode="&#xa2;" horiz-adv-x="479" 
d="M309 41h-56v63q-83 8 -139.5 58t-56.5 144.5t56.5 156.5t139.5 67v62h56v-65q71 -10 121 -47l-45 -74q-43 48 -102.5 48t-93.5 -36t-34 -100t43.5 -104.5t106.5 -40.5t109 42l26 -21q-15 -29 -50 -55t-81 -34v-64z" />
    <glyph glyph-name="sterling" unicode="&#xa3;" horiz-adv-x="589" 
d="M527 196q4 -25 4 -33t-1 -26.5t-8.5 -38t-31 -35.5t-64 -16t-104 10.5t-103.5 10.5t-99 -19l-23 19q17 15 42 67.5t25 94.5t-11 93h-103v7l20 45h71q-8 46 -8 72q3 87 53 139t129 52q41 0 81 -12t57 -21t46 -27l-43 -71q-56 60 -114 60t-84.5 -28.5t-26.5 -67t10 -96.5
h159v-7l-22 -45h-128q4 -30 4 -42q0 -100 -47 -152l13 5q37 15 73.5 15t87 -12t66.5 -12q54 0 54 70z" />
    <glyph glyph-name="currency" unicode="&#xa4;" horiz-adv-x="504" 
d="M252 248q39 0 65.5 28.5t26.5 86t-26.5 85.5t-65.5 28t-65 -28t-26 -85.5t26 -86t65 -28.5zM398 458q28 -40 28 -94t-26 -96l53 -53q-17 -31 -52 -52l-53 53q-44 -27 -96 -27t-96 27l-52 -52q-35 20 -52 51l53 53q-26 42 -26 95.5t28 95.5l-57 56q16 34 52 51l57 -57
q41 26 92.5 26t94.5 -26l56 57q36 -16 52 -52z" />
    <glyph glyph-name="yen" unicode="&#xa5;" horiz-adv-x="583" 
d="M490 362v-8l-22 -41h-122v-55h144v-9l-22 -41h-122v-161h-107v161h-154v8l20 42h134v55h-154v8l20 41h112l-166 264l101 15l141 -249q112 201 128 238h110l-164 -268h123z" />
    <glyph glyph-name="brokenbar" unicode="&#xa6;" horiz-adv-x="305" 
d="M103 296h99v-326h-99v326zM202 457h-99v326h99v-326z" />
    <glyph glyph-name="section" unicode="&#xa7;" horiz-adv-x="716" 
d="M202 318.5q-18 -20.5 -18 -46t21.5 -49t39.5 -33t46 -22t31 -14.5q58 19 58 71q0 46 -40 75q-30 22 -90 49q-30 -10 -48 -30.5zM395 118q93 -55 93 -139t-65.5 -130.5t-150.5 -46.5t-198 32q-1 17 -1 57t9 110q28 0 52 -5v-8q0 -131 135 -131q48 0 77 21.5t29 56.5
t-22 60.5t-55 40.5t-72 34.5t-72 39t-55 55t-22 81.5t27.5 83.5t73.5 55.5q-96 56 -96 150q0 74 59 116.5t142.5 42.5t175.5 -27q0 -56 -12 -140q-28 0 -41 2q-17 112 -117 112q-43 0 -71.5 -21.5t-28.5 -57.5t31.5 -62t76 -45t89 -40.5t76 -60t31.5 -92.5q0 -97 -98 -144z
" />
    <glyph glyph-name="dieresis" unicode="&#xa8;" horiz-adv-x="293" 
d="M283 620q0 -24 -16.5 -41t-39.5 -17t-39 17t-16 41t16 41t39 17t39.5 -17t16.5 -41zM122 620q0 -24 -17 -41t-39.5 -17t-39 17t-16.5 41t16.5 41t39 17t39.5 -17t17 -41z" />
    <glyph glyph-name="copyright" unicode="&#xa9;" horiz-adv-x="801" 
d="M551 228q-60 -69 -143.5 -69t-141 55.5t-57.5 151t62 154.5t154 59q58 0 114 -25q-5 -60 -23 -113q-9 -2 -18 -2t-17 1q-1 40 -14.5 58.5t-52.5 18.5t-69 -41.5t-30 -108t31.5 -102.5t80.5 -36t93 31zM744 367q0 -156 -97.5 -249.5t-245.5 -93.5t-246 93.5t-98 249.5
t98 249.5t246 93.5t245.5 -93.5t97.5 -249.5zM114 367q0 -140 81 -217.5t206 -77.5t206 77.5t81 217.5t-81.5 218t-205.5 78t-205.5 -78t-81.5 -218z" />
    <glyph glyph-name="ordfeminine" unicode="&#xaa;" horiz-adv-x="348" 
d="M199 513q-36 0 -60.5 -16.5t-24.5 -41.5q0 -48 38 -48q29 0 51 22v84h-4zM274 352q-24 0 -43.5 11t-25.5 30q-35 -41 -83.5 -41t-74 24t-25.5 64q0 56 54 84q44 23 102 23q12 0 25 -1v32q0 51 -57 51q-44 0 -84 -17l-16 26q56 53 134 53q54 0 81.5 -28.5t27.5 -80.5v-140
q0 -36 21 -36q13 0 26 4l8 -18q-33 -40 -70 -40z" />
    <glyph glyph-name="guillemotleft" unicode="&#xab;" horiz-adv-x="673" 
d="M118 360l175 198l47 -24l-119 -174l119 -174l-47 -26zM330 360l175 198l47 -24l-119 -174l119 -174l-47 -26z" />
    <glyph glyph-name="logicalnot" unicode="&#xac;" horiz-adv-x="665" 
d="M578 481v-218q-16 -3 -32 -3t-32 3v125h-437q-7 23 -7 46.5t7 46.5h501z" />
    <glyph glyph-name="registered" unicode="&#xae;" horiz-adv-x="798" 
d="M352 385h39q72 0 72 71q0 37 -16.5 54t-55.5 17h-39v-142zM578 218q0 -11 -2 -31h-95l-72 137q-10 21 -29 21h-28v-116q22 -8 53 -10q1 -7 -2 -32h-162q-1 5 -1 14t4 18q19 2 27.5 9t8.5 23v276q-12 5 -41 7q0 22 3 33h162q62 0 99 -31.5t37 -73.5q0 -83 -81 -109
q15 -9 31 -36l36 -62q12 -22 23 -29.5t29 -7.5zM196.5 149.5q80.5 -77.5 203 -77.5t202.5 77.5t80 217.5t-80 218t-202.5 78t-203 -78t-80.5 -218t80.5 -217.5zM156.5 616.5q96.5 93.5 243 93.5t242.5 -93.5t96 -249.5t-96 -249.5t-242.5 -93.5t-243 93.5t-96.5 249.5
t96.5 249.5z" />
    <glyph glyph-name="macron" unicode="&#xaf;" horiz-adv-x="262" 
d="M10 565v47h242v-47h-242z" />
    <glyph glyph-name="degree" unicode="&#xb0;" horiz-adv-x="328" 
d="M164 450q-57 0 -95.5 35t-38.5 98t38.5 98t95.5 35t95.5 -35t38.5 -98t-38.5 -98t-95.5 -35zM164 664q-23 0 -37.5 -19.5t-14.5 -61t14.5 -61.5t37.5 -20t38 20t15 61.5t-15 61t-38 19.5z" />
    <glyph glyph-name="plusminus" unicode="&#xb1;" horiz-adv-x="648" 
d="M69 229h468l43 -87v-7h-468l-43 87v7zM580 394h-205v-137h-7l-94 74v63h-162l-43 87v7h205v136h8l93 -72v-64h162l43 -87v-7z" />
    <glyph glyph-name="twosuperior" unicode="&#xb2;" horiz-adv-x="253" 
d="M164 398q21 0 31 10t16 37q14 0 19 -3q0 -58 -12 -96h-191q-6 24 -6 44q83 90 108 126t25 64.5t-12 42t-32 13.5q-41 0 -52 -48q-20 0 -25 1q-1 10 -1 26.5t4 40.5q42 28 88.5 28t73 -26t26.5 -65.5t-28 -75.5t-116 -119h84z" />
    <glyph glyph-name="threesuperior" unicode="&#xb3;" horiz-adv-x="243" 
d="M147 589q0 22 -10 35.5t-27 13.5q-42 0 -53 -48q-22 0 -26 1v24t2 44q45 26 89 26t69.5 -22t25.5 -51q0 -59 -62 -89q68 -22 68 -86q0 -41 -32.5 -68.5t-83 -27.5t-89.5 33q10 28 19 34q32 -21 62 -21t45 12.5t15 33.5q0 57 -76 60v37q64 7 64 59z" />
    <glyph glyph-name="acute" unicode="&#xb4;" horiz-adv-x="210" 
d="M9 565l101 178q22 -1 49 -14.5t42 -28.5v-16l-159 -139z" />
    <glyph glyph-name="uni00B5" unicode="&#xb5;" horiz-adv-x="600" 
d="M499 418v-292q32 -5 60 -5q3 -12 3 -23t-1 -19q-86 -30 -172 -37q-9 46 -12 92q-54 -99 -156 -99q-8 0 -24 2v-143q-37 -6 -68 -6t-55 6v542q-28 1 -43.5 1h-24.5q0 21 7 44q88 32 184 37v-371q24 -28 69 -28q72 0 110 96v177q0 62 -42 78q4 19 10 28q53 22 114 22
q22 0 45 -3q-4 -36 -4 -99z" />
    <glyph glyph-name="paragraph" unicode="&#xb6;" horiz-adv-x="517" 
d="M215 682h231v-635h-66v569h-64v-569h-66v223h-35q-86 0 -139 57t-53 148.5t53 149t139 57.5z" />
    <glyph glyph-name="periodcentered" unicode="&#xb7;" horiz-adv-x="288" 
d="M195 350.5q-21 -21.5 -50.5 -21.5t-50.5 21.5t-21 51t21 50.5t50.5 21t50.5 -21t21 -50.5t-21 -51z" />
    <glyph glyph-name="cedilla" unicode="&#xb8;" horiz-adv-x="285" 
d="M275 -84q0 -40 -38.5 -65.5t-101 -25.5t-125.5 35l20 27q48 -24 88 -24q80 0 80 46q0 35 -52 35q-18 0 -45 -5l25 125h77l-17 -82q46 -1 67.5 -19.5t21.5 -46.5z" />
    <glyph glyph-name="onesuperior" unicode="&#xb9;" horiz-adv-x="209" 
d="M186 379q1 -7 1 -15.5t-3 -17.5h-160q-1 6 -1 14.5t4 18.5q25 3 36.5 8t11.5 19v205l-48 -8q-2 19 1 29q63 38 98 55l15 -6v-292q24 -9 45 -10z" />
    <glyph glyph-name="ordmasculine" unicode="&#xba;" horiz-adv-x="379" 
d="M114 522q5 -128 78 -128t73 118v10q-5 129 -78 129t-73 -119v-10zM357 522q0 -81 -47 -125t-121.5 -44t-120.5 44t-46 124.5t46.5 125t121 44.5t121 -44t46.5 -125z" />
    <glyph glyph-name="guillemotright" unicode="&#xbb;" horiz-adv-x="688" 
d="M123 534l46 24l175 -198l-175 -200l-46 26l118 174zM347 534l48 24l175 -198l-175 -200l-48 26l119 174z" />
    <glyph glyph-name="onequarter" unicode="&#xbc;" horiz-adv-x="739" 
d="M257 309q1 -5 1 -13.5t-4 -23.5h-199q-1 6 -1 16t5 21q39 4 50 13t11 21v265l-61 -9q-2 21 2 30q94 55 122 68l17 -7v-368q30 -12 57 -13zM528 721h52l-353 -712h-52zM561 195v142l-104 -142h104zM631 148v-57q13 -6 41 -8q0 -20 -2 -36h-153q-1 6 -1 16t4 20q17 2 24 4
q17 5 17 27v34h-150q-14 23 -17 39l196 274h41v-266h58q4 -19 4 -30t-1 -17h-61z" />
    <glyph glyph-name="onehalf" unicode="&#xbd;" horiz-adv-x="794" 
d="M257 309q1 -5 1 -13.5t-4 -23.5h-199q-1 6 -1 16t5 21q39 4 50 13t11 21v265l-61 -9q-2 21 2 30q94 55 122 68l17 -7v-368q30 -12 57 -13zM531 721h52l-356 -712h-52zM653 111q27 0 39.5 12.5t18.5 46.5q15 0 21 -4q0 -71 -15 -120h-238q-7 39 -7 55q103 112 134.5 157
t31.5 81t-16 53t-40 17q-51 0 -65 -59q-21 0 -27 1v35.5t4 47.5q50 35 107.5 35t90.5 -32.5t33 -82t-33.5 -92.5t-145.5 -151h107z" />
    <glyph glyph-name="threequarters" unicode="&#xbe;" horiz-adv-x="755" 
d="M198 527.5q20 20.5 20 51t-14 47t-37 16.5q-54 0 -68 -61q-21 0 -26 2q-1 14 -1 37t4 47q56 33 110 33t86 -28t32 -64q0 -72 -79 -110q87 -28 87 -108q0 -51 -40 -85t-104 -34t-112 41q14 33 22 37q38 -26 76.5 -26t58 17t19.5 45q0 72 -93 75v43q39 4 59 24.5zM546 721
h52l-353 -712h-52zM577 195v143l-105 -143h105zM647 148v-57q13 -6 41 -8q0 -20 -2 -36h-153q-1 6 -1 16t4 20q16 3 23 5q18 3 18 26v34h-150q-14 23 -17 39l196 274h41v-266h58q4 -19 4 -30t-1 -17h-61z" />
    <glyph glyph-name="questiondown" unicode="&#xbf;" horiz-adv-x="572" 
d="M297 654q27 0 45.5 -19t18.5 -45.5t-18.5 -45.5t-45.5 -19t-46.5 19.5t-19.5 45.5t19.5 45t46.5 19zM182 126q0 -26 24.5 -45.5t63.5 -19.5q67 0 131 51l65 -81q-64 -57 -150 -57t-153 57t-67 134q0 72 61 116q44 32 104 56v114h10l67 -32v-149q-104 -45 -130 -74.5
t-26 -69.5z" />
    <glyph glyph-name="Agrave" unicode="&#xc0;" horiz-adv-x="622" 
d="M347 796l-33 -20l-158 138v17q14 14 41 28t49 15zM199 367h162l-83 271l-8 -40zM346 94q0 25 4 46q50 12 74 24l-45 147h-197l-48 -157q26 -14 78 -14q0 -26 -4 -46h-209q0 26 4 46q56 13 72 62l174 528q45 10 124 12l173 -542q11 -33 27.5 -46t50.5 -14q-2 -30 -5 -46
h-273z" />
    <glyph glyph-name="Aacute" unicode="&#xc1;" horiz-adv-x="622" 
d="M479 906l-159 -139l-33 20l101 178q22 -1 49 -14.5t42 -28.5v-16zM199 367h162l-83 271l-8 -40zM346 94q0 25 4 46q50 12 74 24l-45 147h-197l-48 -157q26 -14 78 -14q0 -26 -4 -46h-209q0 26 4 46q56 13 72 62l174 528q45 10 124 12l173 -542q11 -33 27.5 -46t50.5 -14
q-2 -30 -5 -46h-273z" />
    <glyph glyph-name="Acircumflex" unicode="&#xc2;" horiz-adv-x="622" 
d="M311 849l-132 -78l-28 24l134 138h52l134 -138l-27 -24zM199 367h162l-83 271l-8 -40zM346 94q0 25 4 46q50 12 74 24l-45 147h-197l-48 -157q26 -14 78 -14q0 -26 -4 -46h-209q0 26 4 46q56 13 72 62l174 528q45 10 124 12l173 -542q11 -33 27.5 -46t50.5 -14
q-2 -30 -5 -46h-273z" />
    <glyph glyph-name="Atilde" unicode="&#xc3;" horiz-adv-x="622" 
d="M371 794q-24 0 -62 25.5t-58 25.5q-38 0 -47 -45h-36q12 130 95 130q23 0 61.5 -25.5t58.5 -25.5q38 0 47 45h36q-12 -130 -95 -130zM199 367h162l-83 271l-8 -40zM346 94q0 25 4 46q50 12 74 24l-45 147h-197l-48 -157q26 -14 78 -14q0 -26 -4 -46h-209q0 26 4 46
q56 13 72 62l174 528q45 10 124 12l173 -542q11 -33 27.5 -46t50.5 -14q-2 -30 -5 -46h-273z" />
    <glyph glyph-name="Adieresis" unicode="&#xc4;" horiz-adv-x="622" 
d="M391 785q-23 0 -39 17t-16 41t16 41t39 17t39.5 -17t16.5 -41t-16.5 -41t-39.5 -17zM269 802q-17 -17 -39.5 -17t-39 17t-16.5 41t16.5 41t39 17t39.5 -17t17 -41t-17 -41zM199 367h162l-83 271l-8 -40zM346 94q0 25 4 46q50 12 74 24l-45 147h-197l-48 -157
q26 -14 78 -14q0 -26 -4 -46h-209q0 26 4 46q56 13 72 62l174 528q45 10 124 12l173 -542q11 -33 27.5 -46t50.5 -14q-2 -30 -5 -46h-273z" />
    <glyph glyph-name="Aring" unicode="&#xc5;" horiz-adv-x="622" 
d="M310 894q-16 0 -26.5 -11t-10.5 -32.5t10.5 -32.5t26.5 -11q37 0 37 43.5t-37 43.5zM310 774q-43 0 -73 21.5t-30 55.5t30 55t73 21t73.5 -21t30.5 -55t-30.5 -55.5t-73.5 -21.5zM199 367h162l-83 271l-8 -40zM346 94q0 25 4 46q50 12 74 24l-45 147h-197l-48 -157
q26 -14 78 -14q0 -26 -4 -46h-209q0 26 4 46q56 13 72 62l174 528q45 10 124 12l173 -542q11 -33 27.5 -46t50.5 -14q-2 -30 -5 -46h-273z" />
    <glyph glyph-name="AE" unicode="&#xc6;" horiz-adv-x="881" 
d="M420 320v214l-39 -68l-96 -146h135zM546 99h150q39 0 59 21q15 17 19 46t7 56q40 0 55 -3q4 -58 4 -101t-1 -71h-487v18.5t5 27.5q33 5 48 16t15 39v116h-171l-97 -148q31 -19 64 -20q0 -29 -4 -49h-210v15.5t4 33.5q64 9 100 62l308 468q-29 10 -64 10q-1 6 -1 17t5 29
h475q1 -25 1 -68t-6 -98q-20 -2 -52 -2q-9 81 -25 96q-20 21 -57 21h-144v-238l136 11h38v-73h-38l-136 8v-240z" />
    <glyph glyph-name="Ccedilla" unicode="&#xc7;" horiz-adv-x="610" 
d="M354 81q-15 0 -22 1l-11 -53q46 -1 67.5 -19.5t21.5 -46.5q0 -40 -38.5 -65.5t-101 -25.5t-125.5 35l20 27q48 -24 88 -24q80 0 80 46q0 35 -52 35q-18 0 -45 -5l22 110q-91 29 -148.5 109t-57.5 200q0 152 96.5 245t239.5 93q113 0 179 -34q-5 -87 -21 -166q-37 0 -40 1
q-2 58 -34 93.5t-89 35.5q-85 0 -139.5 -67.5t-54.5 -190t57.5 -186.5t147.5 -64t158 45l28 -31q-40 -45 -99.5 -71.5t-126.5 -26.5z" />
    <glyph glyph-name="Egrave" unicode="&#xc8;" horiz-adv-x="568" 
d="M345 796l-33 -20l-158 138v17q14 14 41 28t49 15zM234 146h150q48 0 63 28t22 95q39 0 55 -3q4 -58 4 -101t-1 -71h-487v18.5t5 27.5q33 5 48 16t15 39v475q-27 13 -71 13q0 30 5 46h475v-65t-5 -101q-20 -2 -52 -2q-9 81 -24 97q-21 20 -58 20h-144v-238l144 11h39v-73
h-39l-144 8v-240z" />
    <glyph glyph-name="Eacute" unicode="&#xc9;" horiz-adv-x="568" 
d="M477 905l-159 -139l-33 20l101 178q22 -1 49 -14.5t42 -28.5v-16zM234 146h150q48 0 63 28t22 95q39 0 55 -3q4 -58 4 -101t-1 -71h-487v18.5t5 27.5q33 5 48 16t15 39v475q-27 13 -71 13q0 30 5 46h475v-65t-5 -101q-20 -2 -52 -2q-9 81 -24 97q-21 20 -58 20h-144v-238
l144 11h39v-73h-39l-144 8v-240z" />
    <glyph glyph-name="Ecircumflex" unicode="&#xca;" horiz-adv-x="568" 
d="M308 849l-132 -78l-28 24l134 138h52l134 -138l-27 -24zM234 146h150q48 0 63 28t22 95q39 0 55 -3q4 -58 4 -101t-1 -71h-487v18.5t5 27.5q33 5 48 16t15 39v475q-27 13 -71 13q0 30 5 46h475v-65t-5 -101q-20 -2 -52 -2q-9 81 -24 97q-21 20 -58 20h-144v-238l144 11
h39v-73h-39l-144 8v-240z" />
    <glyph glyph-name="Edieresis" unicode="&#xcb;" horiz-adv-x="568" 
d="M387 785q-23 0 -39 17t-16 41t16 41t39 17t39.5 -17t16.5 -41t-16.5 -41t-39.5 -17zM265 802q-17 -17 -39.5 -17t-39 17t-16.5 41t16.5 41t39 17t39.5 -17t17 -41t-17 -41zM234 146h150q48 0 63 28t22 95q39 0 55 -3q4 -58 4 -101t-1 -71h-487v18.5t5 27.5q33 5 48 16
t15 39v475q-27 13 -71 13q0 30 5 46h475v-65t-5 -101q-20 -2 -52 -2q-9 81 -24 97q-21 20 -58 20h-144v-238l144 11h39v-73h-39l-144 8v-240z" />
    <glyph glyph-name="Igrave" unicode="&#xcc;" horiz-adv-x="342" 
d="M208 796l-33 -20l-158 138v17q14 14 41 28t49 15zM234 628v-476q29 -12 69 -12v-14t-3 -32h-260v18.5t5 27.5q33 5 48 16t15 39v475q-29 13 -71 13q0 30 5 46h259q1 -7 1 -19.5t-5 -26.5q-32 -4 -47.5 -15.5t-15.5 -39.5z" />
    <glyph glyph-name="Iacute" unicode="&#xcd;" horiz-adv-x="342" 
d="M234 628v-476q29 -12 69 -12v-14t-3 -32h-260v18.5t5 27.5q33 5 48 16t15 39v475q-29 13 -71 13q0 30 5 46h259q1 -7 1 -19.5t-5 -26.5q-32 -4 -47.5 -15.5t-15.5 -39.5zM148 787l101 178q22 -1 49 -14.5t42 -28.5v-16l-159 -139z" />
    <glyph glyph-name="Icircumflex" unicode="&#xce;" horiz-adv-x="342" 
d="M234 628v-476q29 -12 69 -12v-14t-3 -32h-260v18.5t5 27.5q33 5 48 16t15 39v475q-29 13 -71 13q0 30 5 46h259q1 -7 1 -19.5t-5 -26.5q-32 -4 -47.5 -15.5t-15.5 -39.5zM197 933l134 -138l-27 -24l-133 78l-132 -78l-28 24l134 138h52z" />
    <glyph glyph-name="Idieresis" unicode="&#xcf;" horiz-adv-x="342" 
d="M252 785q-23 0 -39 17t-16 41t16 41t39 17t39.5 -17t16.5 -41t-16.5 -41t-39.5 -17zM130 802q-17 -17 -39.5 -17t-39 17t-16.5 41t16.5 41t39 17t39.5 -17t17 -41t-17 -41zM234 628v-476q29 -12 69 -12v-14t-3 -32h-260v18.5t5 27.5q33 5 48 16t15 39v475q-29 13 -71 13
q0 30 5 46h259q1 -7 1 -19.5t-5 -26.5q-32 -4 -47.5 -15.5t-15.5 -39.5z" />
    <glyph glyph-name="Eth" unicode="&#xd0;" horiz-adv-x="666" 
d="M234 146h62q99 0 151 69.5t52 196.5t-52.5 196.5t-155.5 69.5h-57v-283h114q4 -15 4 -29t-4 -27h-114v-193zM306 729q145 0 237 -83.5t92 -234t-88.5 -234t-229.5 -83.5h-277v18.5t4 27.5q33 5 48 16t15 39v144h-75q-3 13 -3 27t3 29h75v276q-27 12 -69 12v14t3 32h265z
" />
    <glyph glyph-name="Ntilde" unicode="&#xd1;" horiz-adv-x="730" 
d="M438 794q-24 0 -62 25.5t-58 25.5q-38 0 -47 -45h-36q12 130 95 130q23 0 61.5 -25.5t58.5 -25.5q38 0 47 45h36q-12 -130 -95 -130zM686 729q0 -33 -5 -46q-65 -8 -65 -57v-532h-54l-314 413l-60 88v-443q27 -12 72 -12v-17t-4 -29h-209v18.5t5 27.5q32 5 48.5 17.5
t16.5 39.5v479q-24 8 -72 8q2 31 6 45h186l244 -323l64 -95v360q-30 12 -72 12v14t3 32h210z" />
    <glyph glyph-name="Ograve" unicode="&#xd2;" horiz-adv-x="692" 
d="M282 974l101 -178l-33 -20l-158 138v17q14 14 41 28t49 15zM491 399q0 289 -152 289q-137 0 -137 -267q0 -153 39 -219.5t110 -66.5q140 0 140 264zM345 80q-131 0 -212 91t-81 238.5t81 240.5t212 93t213.5 -93t82.5 -240.5t-82.5 -238.5t-213.5 -91z" />
    <glyph glyph-name="Oacute" unicode="&#xd3;" horiz-adv-x="692" 
d="M491 399q0 289 -152 289q-137 0 -137 -267q0 -153 39 -219.5t110 -66.5q140 0 140 264zM345 80q-131 0 -212 91t-81 238.5t81 240.5t212 93t213.5 -93t82.5 -240.5t-82.5 -238.5t-213.5 -91zM323 786l101 178q22 -1 49 -14.5t42 -28.5v-16l-159 -139z" />
    <glyph glyph-name="Ocircumflex" unicode="&#xd4;" horiz-adv-x="692" 
d="M491 399q0 289 -152 289q-137 0 -137 -267q0 -153 39 -219.5t110 -66.5q140 0 140 264zM345 80q-131 0 -212 91t-81 238.5t81 240.5t212 93t213.5 -93t82.5 -240.5t-82.5 -238.5t-213.5 -91zM506 795l-27 -24l-133 78l-132 -78l-28 24l134 138h52z" />
    <glyph glyph-name="Otilde" unicode="&#xd5;" horiz-adv-x="692" 
d="M299 930q23 0 61.5 -25.5t58.5 -25.5q38 0 47 45h36q-12 -130 -95 -130q-24 0 -62 25.5t-58 25.5q-38 0 -47 -45h-36q12 130 95 130zM491 399q0 289 -152 289q-137 0 -137 -267q0 -153 39 -219.5t110 -66.5q140 0 140 264zM345 80q-131 0 -212 91t-81 238.5t81 240.5
t212 93t213.5 -93t82.5 -240.5t-82.5 -238.5t-213.5 -91z" />
    <glyph glyph-name="Odieresis" unicode="&#xd6;" horiz-adv-x="692" 
d="M491 399q0 289 -152 289q-137 0 -137 -267q0 -153 39 -219.5t110 -66.5q140 0 140 264zM345 80q-131 0 -212 91t-81 238.5t81 240.5t212 93t213.5 -93t82.5 -240.5t-82.5 -238.5t-213.5 -91zM481 843q0 -24 -16.5 -41t-39.5 -17t-39 17t-16 41t16 41t39 17t39.5 -17
t16.5 -41zM320 843q0 -24 -17 -41t-39.5 -17t-39 17t-16.5 41t16.5 41t39 17t39.5 -17t17 -41z" />
    <glyph glyph-name="multiply" unicode="&#xd7;" horiz-adv-x="551" 
d="M482 508l-145 -158l144 -164l-55 -37l-134 152l-135 -147l-88 58l155 165l-140 158l56 37l129 -147l138 147z" />
    <glyph glyph-name="Oslash" unicode="&#xd8;" horiz-adv-x="692" 
d="M354 93q138 0 138 240q0 82 -14 148l-241 -308q36 -80 117 -80zM457 549q-38 86 -117 86q-139 0 -139 -240q0 -87 14 -154zM566 594q75 -92 75 -235.5t-82.5 -234.5t-213.5 -91q-108 0 -178 51l-40 -51h-75l71 91q-71 86 -71 236t81 243t212 93q103 0 179 -60l47 59h75z
" />
    <glyph glyph-name="Ugrave" unicode="&#xd9;" horiz-adv-x="700" 
d="M389 796l-33 -20l-158 138v17q14 14 41 28t49 15zM675 729q1 -7 1 -19.5t-5 -26.5q-33 -4 -48 -15.5t-15 -39.5v-331q0 -112 -68.5 -164t-187.5 -52t-187 52t-68 164v373q-29 13 -69 13q-1 4 -1 13.5t4 32.5h259v-19.5t-4 -26.5q-32 -4 -47.5 -15.5t-15.5 -39.5v-333
q0 -151 129 -151t129 151v376q-29 12 -70 12q0 29 4 46h260z" />
    <glyph glyph-name="Uacute" unicode="&#xda;" horiz-adv-x="705" 
d="M516 905l-159 -139l-33 20l101 178q22 -1 49 -14.5t42 -28.5v-16zM675 729q1 -7 1 -19.5t-5 -26.5q-33 -4 -48 -15.5t-15 -39.5v-331q0 -112 -68.5 -164t-187.5 -52t-187 52t-68 164v373q-29 13 -69 13q-1 4 -1 13.5t4 32.5h259v-19.5t-4 -26.5q-32 -4 -47.5 -15.5
t-15.5 -39.5v-333q0 -151 129 -151t129 151v376q-29 12 -70 12q0 29 4 46h260z" />
    <glyph glyph-name="Ucircumflex" unicode="&#xdb;" horiz-adv-x="705" 
d="M347 849l-132 -78l-28 24l134 138h52l134 -138l-27 -24zM675 729q1 -7 1 -19.5t-5 -26.5q-33 -4 -48 -15.5t-15 -39.5v-331q0 -112 -68.5 -164t-187.5 -52t-187 52t-68 164v373q-29 13 -69 13q-1 4 -1 13.5t4 32.5h259v-19.5t-4 -26.5q-32 -4 -47.5 -15.5t-15.5 -39.5
v-333q0 -151 129 -151t129 151v376q-29 12 -70 12q0 29 4 46h260z" />
    <glyph glyph-name="Udieresis" unicode="&#xdc;" horiz-adv-x="705" 
d="M425 785q-23 0 -39 17t-16 41t16 41t39 17t39.5 -17t16.5 -41t-16.5 -41t-39.5 -17zM303 802q-17 -17 -39.5 -17t-39 17t-16.5 41t16.5 41t39 17t39.5 -17t17 -41t-17 -41zM675 729q1 -7 1 -19.5t-5 -26.5q-33 -4 -48 -15.5t-15 -39.5v-331q0 -112 -68.5 -164t-187.5 -52
t-187 52t-68 164v373q-29 13 -69 13q-1 4 -1 13.5t4 32.5h259v-19.5t-4 -26.5q-32 -4 -47.5 -15.5t-15.5 -39.5v-333q0 -151 129 -151t129 151v376q-29 12 -70 12q0 29 4 46h260z" />
    <glyph glyph-name="Yacute" unicode="&#xdd;" horiz-adv-x="633" 
d="M510 906l-159 -139l-33 20l101 178q22 -1 49 -14.5t42 -28.5v-16zM284 684q-63 -5 -63 -36q0 -12 10 -28l116 -212h3q9 33 33 73l116 193q-31 9 -55 10q0 20 5 45h182q-2 -28 -7 -45q-31 -5 -45.5 -17t-31.5 -39l-162 -266v-212q29 -10 75 -10q0 -26 -4 -46h-280v16.5
t3 29.5q23 4 35 8t22.5 15.5t10.5 31.5v163l-187 317q-27 9 -54 9q-4 32 -4 45h275q7 -28 7 -45z" />
    <glyph glyph-name="Thorn" unicode="&#xde;" horiz-adv-x="597" 
d="M234 257h82q57 0 91 29.5t34 84.5q0 114 -125 114h-82v-228zM234 537h108q109 0 172.5 -44t63.5 -122t-63.5 -121.5t-172.5 -43.5h-108v-101q29 -12 69 -12v-14t-3 -32h-260v18.5t5 27.5q33 5 48 16t15 39v475q-29 13 -71 13q0 30 5 46h259q1 -7 1 -19.5t-5 -26.5
q-32 -4 -47.5 -15.5t-15.5 -39.5v-44z" />
    <glyph glyph-name="germandbls" unicode="&#xdf;" horiz-adv-x="639" 
d="M106 149v325q0 102 62.5 155t169 53t165.5 -49t59 -121q0 -48 -27.5 -81.5t-75.5 -49.5q62 -16 95.5 -59t33.5 -101q0 -74 -55 -124t-166 -50q-42 0 -77 11q-3 13 -3 25.5t3 25.5q24 -10 51 -10q53 0 82 31.5t29 90t-30 91t-87 32.5h-30q-6 16 -6 29t3 23h49
q74 35 74 117q0 118 -97 118q-95 0 -95 -124v-460h-196v19t5 27q33 5 48.5 16.5t15.5 39.5z" />
    <glyph glyph-name="agrave" unicode="&#xe0;" horiz-adv-x="493" 
d="M287 620l-33 -20l-158 138v17q14 14 41 28t49 15zM163 219q0 -27 15.5 -43t48 -16t58.5 29v130l-44 -12q-78 -22 -78 -88zM388 81q-34 0 -61.5 14.5t-37.5 41.5q-48 -56 -114.5 -56t-104.5 36t-38 92t36 89t109 48l108 22v36q0 38 -18.5 55.5t-67 17.5t-111.5 -22l-25 37
q84 73 194 73q75 0 113 -41t38 -116v-199q0 -51 32 -51q5 0 37 6l10 -26q-46 -57 -99 -57z" />
    <glyph glyph-name="aacute" unicode="&#xe1;" horiz-adv-x="493" 
d="M419 728l-159 -139l-33 20l101 178q22 -1 49 -14.5t42 -28.5v-16zM163 219q0 -27 15.5 -43t48 -16t58.5 29v130l-44 -12q-78 -22 -78 -88zM388 81q-34 0 -61.5 14.5t-37.5 41.5q-48 -56 -114.5 -56t-104.5 36t-38 92t36 89t109 48l108 22v36q0 38 -18.5 55.5t-67 17.5
t-111.5 -22l-25 37q84 73 194 73q75 0 113 -41t38 -116v-199q0 -51 32 -51q5 0 37 6l10 -26q-46 -57 -99 -57z" />
    <glyph glyph-name="acircumflex" unicode="&#xe2;" horiz-adv-x="493" 
d="M250 673l-132 -78l-28 24l134 138h52l134 -138l-27 -24zM163 219q0 -27 15.5 -43t48 -16t58.5 29v130l-44 -12q-78 -22 -78 -88zM388 81q-34 0 -61.5 14.5t-37.5 41.5q-48 -56 -114.5 -56t-104.5 36t-38 92t36 89t109 48l108 22v36q0 38 -18.5 55.5t-67 17.5t-111.5 -22
l-25 37q84 73 194 73q75 0 113 -41t38 -116v-199q0 -51 32 -51q5 0 37 6l10 -26q-46 -57 -99 -57z" />
    <glyph glyph-name="atilde" unicode="&#xe3;" horiz-adv-x="493" 
d="M311 618q-24 0 -62 25.5t-58 25.5q-38 0 -47 -45h-36q12 130 95 130q23 0 61.5 -25.5t58.5 -25.5q38 0 47 45h36q-12 -130 -95 -130zM163 219q0 -27 15.5 -43t48 -16t58.5 29v130l-44 -12q-78 -22 -78 -88zM388 81q-34 0 -61.5 14.5t-37.5 41.5q-48 -56 -114.5 -56
t-104.5 36t-38 92t36 89t109 48l108 22v36q0 38 -18.5 55.5t-67 17.5t-111.5 -22l-25 37q84 73 194 73q75 0 113 -41t38 -116v-199q0 -51 32 -51q5 0 37 6l10 -26q-46 -57 -99 -57z" />
    <glyph glyph-name="adieresis" unicode="&#xe4;" horiz-adv-x="493" 
d="M331 609q-23 0 -39 17t-16 41t16 41t39 17t39.5 -17t16.5 -41t-16.5 -41t-39.5 -17zM209 626q-17 -17 -39.5 -17t-39 17t-16.5 41t16.5 41t39 17t39.5 -17t17 -41t-17 -41zM163 219q0 -27 15.5 -43t48 -16t58.5 29v130l-44 -12q-78 -22 -78 -88zM388 81q-34 0 -61.5 14.5
t-37.5 41.5q-48 -56 -114.5 -56t-104.5 36t-38 92t36 89t109 48l108 22v36q0 38 -18.5 55.5t-67 17.5t-111.5 -22l-25 37q84 73 194 73q75 0 113 -41t38 -116v-199q0 -51 32 -51q5 0 37 6l10 -26q-46 -57 -99 -57z" />
    <glyph glyph-name="aring" unicode="&#xe5;" horiz-adv-x="493" 
d="M250 718q-16 0 -26.5 -11t-10.5 -32.5t10.5 -32.5t26.5 -11q37 0 37 43.5t-37 43.5zM250 598q-43 0 -73 21.5t-30 55.5t30 55t73 21t73.5 -21t30.5 -55t-30.5 -55.5t-73.5 -21.5zM163 219q0 -27 15.5 -43t48 -16t58.5 29v130l-44 -12q-78 -22 -78 -88zM388 81
q-34 0 -61.5 14.5t-37.5 41.5q-48 -56 -114.5 -56t-104.5 36t-38 92t36 89t109 48l108 22v36q0 38 -18.5 55.5t-67 17.5t-111.5 -22l-25 37q84 73 194 73q75 0 113 -41t38 -116v-199q0 -51 32 -51q5 0 37 6l10 -26q-46 -57 -99 -57z" />
    <glyph glyph-name="ae" unicode="&#xe6;" horiz-adv-x="743" 
d="M517 457q-33 0 -60 -29t-36 -91l92 7l71 2q-1 111 -67 111zM163 172q0 -27 15.5 -43t40.5 -16q51 0 85 53q-19 46 -19 100v6l-44 -12q-78 -22 -78 -88zM417 292v-10q0 -170 128 -170q68 0 143 36l17 -29q-80 -85 -195 -85q-49 0 -98 22.5t-82 66.5q-60 -89 -157 -89
q-64 0 -102.5 36t-38.5 92t36 89t109 48l108 22v36q0 38 -18.5 55.5t-67 17.5t-111.5 -22l-25 37q84 73 194 73q85 0 119 -56q65 56 146.5 56t134 -47t52.5 -147q-6 -18 -16 -32h-276z" />
    <glyph glyph-name="ccedilla" unicode="&#xe7;" horiz-adv-x="450" 
d="M353 -37q0 -40 -38.5 -65.5t-101 -25.5t-125.5 35l20 27q48 -24 88 -24q80 0 80 46q0 35 -52 35q-18 0 -45 -5l20 100q-71 16 -119.5 75t-48.5 152q0 114 72 183t178 69q69 0 133 -32q-1 -60 -14 -131q-11 0 -31 4q-3 45 -28.5 71t-63.5 26q-52 0 -83.5 -44t-31.5 -131.5
t32.5 -129t89 -41.5t129.5 34l19 -28q-68 -68 -157 -80l-11 -54q46 -1 67.5 -19.5t21.5 -46.5z" />
    <glyph glyph-name="egrave" unicode="&#xe8;" horiz-adv-x="489" 
d="M308 620l-33 -20l-158 138v17q14 14 41 28t49 15zM263 504q-33 0 -60.5 -29t-36.5 -91l93 7l71 2q-3 111 -67 111zM162 339v-10q0 -170 129 -170q68 0 143 36l17 -29q-82 -85 -196 -85q-52 0 -101.5 23.5t-86 78.5t-36.5 130q0 116 72.5 184t170.5 68q76 0 128.5 -47
t52.5 -147q-6 -18 -16 -32h-277z" />
    <glyph glyph-name="eacute" unicode="&#xe9;" horiz-adv-x="489" 
d="M440 729l-159 -139l-33 20l101 178q22 -1 49 -14.5t42 -28.5v-16zM263 504q-33 0 -60.5 -29t-36.5 -91l93 7l71 2q-3 111 -67 111zM162 339v-10q0 -170 129 -170q68 0 143 36l17 -29q-82 -85 -196 -85q-52 0 -101.5 23.5t-86 78.5t-36.5 130q0 116 72.5 184t170.5 68
q76 0 128.5 -47t52.5 -147q-6 -18 -16 -32h-277z" />
    <glyph glyph-name="ecircumflex" unicode="&#xea;" horiz-adv-x="489" 
d="M271 673l-132 -78l-28 24l134 138h52l134 -138l-27 -24zM263 504q-33 0 -60.5 -29t-36.5 -91l93 7l71 2q-3 111 -67 111zM162 339v-10q0 -170 129 -170q68 0 143 36l17 -29q-82 -85 -196 -85q-52 0 -101.5 23.5t-86 78.5t-36.5 130q0 116 72.5 184t170.5 68
q76 0 128.5 -47t52.5 -147q-6 -18 -16 -32h-277z" />
    <glyph glyph-name="edieresis" unicode="&#xeb;" horiz-adv-x="489" 
d="M349 609q-23 0 -39 17t-16 41t16 41t39 17t39.5 -17t16.5 -41t-16.5 -41t-39.5 -17zM227 626q-17 -17 -39.5 -17t-39 17t-16.5 41t16.5 41t39 17t39.5 -17t17 -41t-17 -41zM263 504q-33 0 -60.5 -29t-36.5 -91l93 7l71 2q-3 111 -67 111zM162 339v-10q0 -170 129 -170
q68 0 143 36l17 -29q-82 -85 -196 -85q-52 0 -101.5 23.5t-86 78.5t-36.5 130q0 116 72.5 184t170.5 68q76 0 128.5 -47t52.5 -147q-6 -18 -16 -32h-277z" />
    <glyph glyph-name="igrave" unicode="&#xec;" horiz-adv-x="316" 
d="M197 620l-33 -20l-158 138v17q14 14 41 28t49 15zM279 140v-14t-3 -32h-249q-1 7 -1 19.5t5 26.5q33 5 48.5 16.5t15.5 38.5v281q-16 2 -33.5 2t-34.5 -1q2 29 7 46q86 30 185 37v-407q25 -11 60 -13z" />
    <glyph glyph-name="iacute" unicode="&#xed;" horiz-adv-x="316" 
d="M279 140v-14t-3 -32h-249q-1 7 -1 19.5t5 26.5q33 5 48.5 16.5t15.5 38.5v281q-16 2 -33.5 2t-34.5 -1q2 29 7 46q86 30 185 37v-407q25 -11 60 -13zM137 610l101 178q22 -1 49 -14.5t42 -28.5v-16l-159 -139z" />
    <glyph glyph-name="icircumflex" unicode="&#xee;" horiz-adv-x="316" 
d="M279 140v-14t-3 -32h-249q-1 7 -1 19.5t5 26.5q33 5 48.5 16.5t15.5 38.5v281q-16 2 -33.5 2t-34.5 -1q2 29 7 46q86 30 185 37v-407q25 -11 60 -13zM187 757l134 -138l-27 -24l-133 78l-132 -78l-28 24l134 138h52z" />
    <glyph glyph-name="idieresis" unicode="&#xef;" horiz-adv-x="316" 
d="M239 609q-23 0 -39 17t-16 41t16 41t39 17t39.5 -17t16.5 -41t-16.5 -41t-39.5 -17zM117 626q-17 -17 -39.5 -17t-39 17t-16.5 41t16.5 41t39 17t39.5 -17t17 -41t-17 -41zM279 140v-14t-3 -32h-249q-1 7 -1 19.5t5 26.5q33 5 48.5 16.5t15.5 38.5v281q-16 2 -33.5 2
t-34.5 -1q2 29 7 46q86 30 185 37v-407q25 -11 60 -13z" />
    <glyph glyph-name="eth" unicode="&#xf0;" horiz-adv-x="526" 
d="M258 94q47 0 72 59t25 149t-8 145q-27 8 -54 8q-131 0 -131 -184v-5q6 -172 96 -172zM487 324q0 -131 -68 -210t-166.5 -79t-160 59t-61.5 170.5t80.5 182.5t190.5 71q21 0 31 -1q-13 47 -38 94l-109 -47q-20 16 -28 49l107 46q-27 39 -64 79l38 34q48 -38 91 -84l107 46
q20 -17 28 -48l-98 -43q120 -154 120 -319z" />
    <glyph glyph-name="ntilde" unicode="&#xf1;" horiz-adv-x="607" 
d="M375 618q-24 0 -62 25.5t-58 25.5q-38 0 -47 -45h-36q12 130 95 130q23 0 61.5 -25.5t58.5 -25.5q38 0 47 45h36q-12 -130 -95 -130zM521 410v-257q43 -12 68 -13q1 -6 1 -17t-5 -29h-246q-1 7 -1 19.5t5 26.5q30 5 42 16t12 39v201q0 43 -19.5 64.5t-53.5 21.5
q-69 0 -105 -93v-236q25 -11 60 -13v-14t-3 -32h-249q-1 7 -1 19.5t5 26.5q33 5 48.5 16.5t15.5 38.5v281q-16 2 -33.5 2t-34.5 -1q2 30 7 44q83 30 173 39q8 -41 11 -93q50 98 156 98q65 0 106 -40.5t41 -114.5z" />
    <glyph glyph-name="ograve" unicode="&#xf2;" horiz-adv-x="535" 
d="M206 798l101 -178l-33 -20l-158 138v17q14 14 41 28t49 15zM372 307q0 201 -109 201q-101 0 -101 -169v-16q8 -182 111 -182q99 0 99 166zM439 502q65 -63 65 -178t-66 -178.5t-172 -63.5t-170.5 63t-64.5 178t66 178.5t171.5 63.5t170.5 -63z" />
    <glyph glyph-name="oacute" unicode="&#xf3;" horiz-adv-x="541" 
d="M372 307q0 201 -109 201q-101 0 -101 -169v-16q8 -182 111 -182q99 0 99 166zM439 502q65 -63 65 -178t-66 -178.5t-172 -63.5t-170.5 63t-64.5 178t66 178.5t171.5 63.5t170.5 -63zM247 610l101 178q22 -1 49 -14.5t42 -28.5v-16l-159 -139z" />
    <glyph glyph-name="ocircumflex" unicode="&#xf4;" horiz-adv-x="541" 
d="M372 307q0 201 -109 201q-101 0 -101 -169v-16q8 -182 111 -182q99 0 99 166zM439 502q65 -63 65 -178t-66 -178.5t-172 -63.5t-170.5 63t-64.5 178t66 178.5t171.5 63.5t170.5 -63zM430 619l-27 -24l-133 78l-132 -78l-28 24l134 138h52z" />
    <glyph glyph-name="otilde" unicode="&#xf5;" horiz-adv-x="535" 
d="M223 754q23 0 61.5 -25.5t58.5 -25.5q38 0 47 45h36q-12 -130 -95 -130q-24 0 -62 25.5t-58 25.5q-38 0 -47 -45h-36q12 130 95 130zM372 307q0 201 -109 201q-101 0 -101 -169v-16q8 -182 111 -182q99 0 99 166zM439 502q65 -63 65 -178t-66 -178.5t-172 -63.5
t-170.5 63t-64.5 178t66 178.5t171.5 63.5t170.5 -63z" />
    <glyph glyph-name="odieresis" unicode="&#xf6;" horiz-adv-x="541" 
d="M372 307q0 201 -109 201q-101 0 -101 -169v-16q8 -182 111 -182q99 0 99 166zM439 502q65 -63 65 -178t-66 -178.5t-172 -63.5t-170.5 63t-64.5 178t66 178.5t171.5 63.5t170.5 -63zM405 667q0 -24 -16.5 -41t-39.5 -17t-39 17t-16 41t16 41t39 17t39.5 -17t16.5 -41z
M244 667q0 -24 -17 -41t-39.5 -17t-39 17t-16.5 41t16.5 41t39 17t39.5 -17t17 -41z" />
    <glyph glyph-name="divide" unicode="&#xf7;" horiz-adv-x="654" 
d="M580 314h-468l-43 86v8h468l43 -87v-7zM380 120.5q-22 -21.5 -52.5 -21.5t-52 21.5t-21.5 52t21.5 53t52 22.5t52.5 -22t22 -53t-22 -52.5zM380 494.5q-22 -21.5 -52.5 -21.5t-52 21.5t-21.5 51.5t21.5 52t52 22t52.5 -22t22 -52t-22 -51.5z" />
    <glyph glyph-name="oslash" unicode="&#xf8;" horiz-adv-x="541" 
d="M276 94q102 0 102 166q0 55 -9 95l-179 -207q27 -54 86 -54zM266 461q-104 0 -104 -169q0 -52 9 -94l180 208q-27 55 -85 55zM450 449q60 -65 60 -176t-67 -174.5t-173 -63.5q-86 0 -144 39l-33 -38h-62l59 69q-59 64 -59 175t67 174.5t173 63.5q85 0 143 -39l34 39h62z
" />
    <glyph glyph-name="ugrave" unicode="&#xf9;" horiz-adv-x="597" 
d="M320 620l-33 -20l-158 138v17q14 14 41 28t49 15zM496 462v-289q32 -5 60 -5q3 -12 3 -23t-1 -19q-75 -34 -172 -37q-9 46 -12 92q-54 -99 -156 -99q-65 0 -106 41.5t-41 115.5v241q-15 1 -30.5 1h-27.5q2 30 7 44q88 33 174 38v-310q0 -42 20.5 -64.5t53.5 -22.5
q67 0 105 96v175q0 60 -42 78q4 19 10 28q55 21 118 21q20 0 41 -2q-4 -36 -4 -100z" />
    <glyph glyph-name="uacute" unicode="&#xfa;" horiz-adv-x="600" 
d="M458 729l-159 -139l-33 20l101 178q22 -1 49 -14.5t42 -28.5v-16zM496 462v-289q32 -5 60 -5q3 -12 3 -23t-1 -19q-75 -34 -172 -37q-9 46 -12 92q-54 -99 -156 -99q-65 0 -106 41.5t-41 115.5v241q-15 1 -30.5 1h-27.5q2 30 7 44q88 33 174 38v-310q0 -42 20.5 -64.5
t53.5 -22.5q67 0 105 96v175q0 60 -42 78q4 19 10 28q55 21 118 21q20 0 41 -2q-4 -36 -4 -100z" />
    <glyph glyph-name="ucircumflex" unicode="&#xfb;" horiz-adv-x="600" 
d="M289 673l-132 -78l-28 24l134 138h52l134 -138l-27 -24zM496 462v-289q32 -5 60 -5q3 -12 3 -23t-1 -19q-75 -34 -172 -37q-9 46 -12 92q-54 -99 -156 -99q-65 0 -106 41.5t-41 115.5v241q-15 1 -30.5 1h-27.5q2 30 7 44q88 33 174 38v-310q0 -42 20.5 -64.5t53.5 -22.5
q67 0 105 96v175q0 60 -42 78q4 19 10 28q55 21 118 21q20 0 41 -2q-4 -36 -4 -100z" />
    <glyph glyph-name="udieresis" unicode="&#xfc;" horiz-adv-x="600" 
d="M368 609q-23 0 -39 17t-16 41t16 41t39 17t39.5 -17t16.5 -41t-16.5 -41t-39.5 -17zM246 626q-17 -17 -39.5 -17t-39 17t-16.5 41t16.5 41t39 17t39.5 -17t17 -41t-17 -41zM496 462v-289q32 -5 60 -5q3 -12 3 -23t-1 -19q-75 -34 -172 -37q-9 46 -12 92q-54 -99 -156 -99
q-65 0 -106 41.5t-41 115.5v241q-15 1 -30.5 1h-27.5q2 30 7 44q88 33 174 38v-310q0 -42 20.5 -64.5t53.5 -22.5q67 0 105 96v175q0 60 -42 78q4 19 10 28q55 21 118 21q20 0 41 -2q-4 -36 -4 -100z" />
    <glyph glyph-name="yacute" unicode="&#xfd;" horiz-adv-x="528" 
d="M466 729l-159 -139l-33 20l101 178q22 -1 49 -14.5t42 -28.5v-16zM115 -140h-19q-13 39 -13 68t2 45h28q45 0 69 16t45 61l4 8l-162 391q-11 28 -25 40t-46 18q-4 18 -4 28.5t1 16.5h249q4 -12 4 -45q-43 -2 -61 -8l101 -322q8 32 18 58l83 208q7 18 7 29t-4 16
q-10 14 -48 19q-4 18 -4 28.5t1 16.5h195q1 -22 -9 -45q-24 -3 -44 -10l-224 -501q-30 -67 -64 -101.5t-80 -34.5z" />
    <glyph glyph-name="thorn" unicode="&#xfe;" horiz-adv-x="568" 
d="M253 127.5q24 -22.5 58.5 -22.5t63 38t28.5 133t-28.5 133t-63 38t-58.5 -22.5t-35 -61.5v-174q11 -39 35 -61.5zM218 445q40 73 122.5 73t139 -62.5t56.5 -179.5t-56.5 -179.5t-139.5 -62.5t-122 73v-227q36 -18 84 -20v-14t-3 -33h-273v19t5 28q33 4 48 15.5t15 39.5
v767q-9 1 -26 1t-42 -1q2 31 7 45q85 31 185 38v-320z" />
    <glyph glyph-name="ydieresis" unicode="&#xff;" horiz-adv-x="528" 
d="M377 609q-23 0 -39 17t-16 41t16 41t39 17t39.5 -17t16.5 -41t-16.5 -41t-39.5 -17zM255 626q-17 -17 -39.5 -17t-39 17t-16.5 41t16.5 41t39 17t39.5 -17t17 -41t-17 -41zM115 -140h-19q-13 39 -13 68t2 45h28q45 0 69 16t45 61l4 8l-162 391q-11 28 -25 40t-46 18
q-4 18 -4 28.5t1 16.5h249q4 -12 4 -45q-43 -2 -61 -8l101 -322q8 32 18 58l83 208q7 18 7 29t-4 16q-10 14 -48 19q-4 18 -4 28.5t1 16.5h195q1 -22 -9 -45q-24 -3 -44 -10l-224 -501q-30 -67 -64 -101.5t-80 -34.5z" />
    <glyph glyph-name="dotlessi" unicode="&#x131;" horiz-adv-x="316" 
d="M279 93v-14t-3 -32h-249q-1 7 -1 19.5t5 26.5q33 5 48.5 16.5t15.5 38.5v281q-16 2 -33.5 2t-34.5 -1q2 29 7 46q86 30 185 37v-407q25 -11 60 -13z" />
    <glyph glyph-name="Lslash" unicode="&#x141;" horiz-adv-x="545" 
d="M234 145h158q37 0 57 20q13 13 17.5 41.5t6.5 54.5q27 0 45 -2q7 -71 7 -109t-1 -56h-484v18.5t4 27.5q33 5 48 16t15 39v127l-75 -26q-16 21 -21 53l96 33v289q-28 12 -69 12v14t3 32h259q1 -7 1 -18.5t-5 -27.5q-32 -4 -47 -15.5t-15 -39.5v-202l95 33q14 -21 21 -54
l-116 -40v-220z" />
    <glyph glyph-name="lslash" unicode="&#x142;" horiz-adv-x="387" 
d="M307 140v-14t-3 -32h-249q-1 7 -1 19.5t5 26.5q33 5 48.5 16.5t15.5 38.5v166l-80 -27q-17 23 -20 54l100 35v306q-9 1 -26 1t-42 -1q2 31 7 45q85 31 185 38v-347l94 33q14 -20 21 -57l-115 -39v-249q25 -11 60 -13z" />
    <glyph glyph-name="OE" unicode="&#x152;" horiz-adv-x="948" 
d="M358 635q-84 0 -122 -75q-35 -66 -35 -170q0 -148 41 -228q35 -69 109 -69t123 46v451q-50 45 -116 45zM601 99h149q39 0 58 21q16 17 20 46t7 56q40 0 55 -3q4 -58 4 -101t-1 -71h-398q-82 -14 -150 -14q-131 0 -212 91t-81 238t87 240.5t219 93.5q58 0 140 -14h385
q1 -25 1 -68t-6 -98q-20 -2 -52 -2q-9 81 -24 96q-21 21 -58 21h-143v-238l135 11h38v-73h-38l-135 8v-240z" />
    <glyph glyph-name="oe" unicode="&#x153;" horiz-adv-x="840" 
d="M609 457q-33 0 -60.5 -29t-36.5 -91l92 7l71 2q-1 111 -66 111zM372 260q0 201 -109 201q-101 0 -101 -169v-16q8 -182 111 -182q99 0 99 166zM508 292v-10q0 -170 129 -170q65 0 136 42l19 -36q-82 -84 -191 -84q-45 0 -89.5 20t-71.5 60q-56 -79 -168 -79t-176.5 63
t-64.5 178t66 178.5t177.5 63.5t171.5 -87q63 87 174 87q75 0 127.5 -47.5t52.5 -146.5q-5 -18 -16 -32h-276z" />
    <glyph glyph-name="Scaron" unicode="&#x160;" horiz-adv-x="535" 
d="M477 269q0 -85 -66 -136t-152 -51t-196 35q-1 19 -1 61t9 121q27 0 51 -5v-6q0 -146 136 -146q47 0 76 23.5t29 64.5t-30.5 72t-74 52.5t-87.5 46t-74.5 67.5t-30.5 102q0 80 59 125.5t145 45.5t178 -29q0 -70 -13 -154q-21 0 -41 3q-17 122 -120 122q-45 0 -73 -22
t-28 -60.5t31.5 -68.5t76 -51t89 -44.5t76 -66t31.5 -101.5zM445 915l-116 -141h-87l-117 141l28 24l132 -103l133 103z" />
    <glyph glyph-name="scaron" unicode="&#x161;" horiz-adv-x="420" 
d="M247 156q22 17 22 42t-22 44.5t-53 35.5t-62 34t-53 47.5t-22 68.5q0 68 48.5 102.5t118.5 34.5t133 -21v-42.5t-6 -81.5q-26 0 -39 4q1 11 1 20q0 68 -74 68q-30 0 -49.5 -16t-19.5 -42t22.5 -44.5t55 -33t65 -32t55 -47.5t22.5 -70q0 -65 -56 -105.5t-139 -40.5
t-149 20q-2 23 -2 56.5t7 77.5q2 0 41 -3v-20.5t7.5 -32.5t24.5 -27q27 -13 64 -13t59 17zM394 739l-116 -141h-87l-117 141l28 24l132 -103l133 103z" />
    <glyph glyph-name="Ydieresis" unicode="&#x178;" horiz-adv-x="633" 
d="M422 785q-23 0 -39 17t-16 41t16 41t39 17t39.5 -17t16.5 -41t-16.5 -41t-39.5 -17zM300 802q-17 -17 -39.5 -17t-39 17t-16.5 41t16.5 41t39 17t39.5 -17t17 -41t-17 -41zM284 684q-63 -5 -63 -36q0 -12 10 -28l116 -212h3q9 33 33 73l116 193q-31 9 -55 10q0 20 5 45
h182q-2 -28 -7 -45q-31 -5 -45.5 -17t-31.5 -39l-162 -266v-212q29 -10 75 -10q0 -26 -4 -46h-280v16.5t3 29.5q23 4 35 8t22.5 15.5t10.5 31.5v163l-187 317q-27 9 -54 9q-4 32 -4 45h275q7 -28 7 -45z" />
    <glyph glyph-name="Zcaron" unicode="&#x17d;" horiz-adv-x="557" 
d="M351 774h-87l-117 141l28 24l132 -103l133 103l27 -24zM392 158q40 0 59.5 19t28.5 71q18 0 31 -7q0 -91 -8 -147h-446q-10 21 -10 57l313 514h-185q-40 0 -59.5 -19.5t-29.5 -71.5q-14 0 -31 7q0 86 9 148h435q8 -22 8 -38v-19l-313 -514h198z" />
    <glyph glyph-name="zcaron" unicode="&#x17e;" horiz-adv-x="469" 
d="M294 598h-87l-117 141l28 24l132 -103l133 103l27 -24zM296 146q42 0 61.5 19.5t29.5 72.5q17 0 31 -7v-38t-9 -99h-368q-6 19 -6 36.5t4 32.5l246 338h-115q-41 0 -60.5 -20t-29.5 -73q-19 0 -32 8q0 67 10 136h358q5 -21 5 -38t-4 -31l-242 -337h121z" />
    <glyph glyph-name="florin" unicode="&#x192;" horiz-adv-x="449" 
d="M355 518q38 0 75 -14q-2 -33 -17 -57q-31 16 -58 16q-69 0 -85 -100l-17 -103q67 2 127 9q-8 -45 -21 -68h-116l-35 -213q-15 -89 -64.5 -138.5t-117.5 -49.5q-34 0 -69 14q2 29 16 54q36 -13 53 -13q37 0 48 65l46 277q-25 4 -59 4q5 30 9 39q24 12 59 19l10 57
q16 97 76 149.5t140 52.5z" />
    <glyph glyph-name="circumflex" unicode="&#x2c6;" horiz-adv-x="340" 
d="M330 572l-27 -24l-133 78l-132 -78l-28 24l134 138h52z" />
    <glyph glyph-name="caron" unicode="&#x2c7;" horiz-adv-x="340" 
d="M330 692l-116 -141h-87l-117 141l28 24l132 -103l133 103z" />
    <glyph glyph-name="breve" unicode="&#x2d8;" horiz-adv-x="287" 
d="M237 724h36q4 -16 4 -34q0 -54 -36.5 -88t-96.5 -34t-97 34t-37 88q0 16 3 34h36q0 -70 94 -70t94 70z" />
    <glyph glyph-name="dotaccent" unicode="&#x2d9;" horiz-adv-x="163" 
d="M132 641.5q-21 -21.5 -50.5 -21.5t-50.5 21.5t-21 51t21 50.5t50.5 21t50.5 -21t21 -50.5t-21 -51z" />
    <glyph glyph-name="ring" unicode="&#x2da;" horiz-adv-x="194" 
d="M201 628q0 -34 -30.5 -55.5t-73.5 -21.5t-73 21.5t-30 55.5t30 55t73 21t73.5 -21t30.5 -55zM70.5 660q-10.5 -11 -10.5 -32.5t10.5 -32.5t26.5 -11q37 0 37 43.5t-37 43.5q-16 0 -26.5 -11z" />
    <glyph glyph-name="ogonek" unicode="&#x2db;" horiz-adv-x="234" 
d="M121 -29q0 -43 46 -43q12 0 46 9l11 -26q-47 -58 -106 -58q-45 0 -76.5 24.5t-31.5 66t35 79t108 59.5l37 -21q-69 -35 -69 -90z" />
    <glyph glyph-name="tilde" unicode="&#x2dc;" horiz-adv-x="329" 
d="M115 707q23 0 61.5 -25.5t58.5 -25.5q38 0 47 45h36q-12 -130 -95 -130q-24 0 -62 25.5t-58 25.5q-38 0 -47 -45h-36q12 130 95 130z" />
    <glyph glyph-name="hungarumlaut" unicode="&#x2dd;" horiz-adv-x="346" 
d="M10 575l77 175q50 -3 89 -23v-16l-121 -146zM145 576l102 173q52 -4 89 -25l-1 -15l-146 -144z" />
    <glyph glyph-name="uni0901" unicode="&#x901;" 
d="M-237 980l77 79l81 -79l-78 -78zM-166 822q84 0 146 119l80 -62q-36 -65 -79 -104t-108 -39q-127 0 -233 163l47 34q23 -33 40.5 -54t46.5 -39t60 -18z" />
    <glyph glyph-name="uni0902" unicode="&#x902;" 
d="M-210 833l77 79l80 -79l-78 -77z" />
    <glyph glyph-name="uni0903" unicode="&#x903;" horiz-adv-x="312" 
d="M102 413l75 77l78 -77l-76 -76zM102 146l75 77l78 -77l-76 -76z" />
    <glyph glyph-name="uni0905" unicode="&#x905;" horiz-adv-x="769" 
d="M301 71q-53 0 -99.5 28.5t-81.5 76.5q-58 81 -97 180l54 30q71 -159 130 -197q28 -18 59 -18q53 0 84.5 31t31.5 74.5t-31 73.5q-34 -23 -95 -47l-60 100q163 55 163 127q0 22 -16 37.5t-38 15.5q-54 0 -113 -65l-78 78q71 87 154 87q63 0 119 -65.5t56 -131.5
q0 -45 -37 -87q29 -20 64 -20t68 15.5t44 34.5v159h-83q-1 2 -29.5 43t-30.5 44h345l60 -87h-154v-588l-108 62l6 235q-23 -15 -57 -15t-76 21q15 -32 15 -66q0 -69 -45.5 -117.5t-123.5 -48.5z" />
    <glyph glyph-name="uni0906" unicode="&#x906;" horiz-adv-x="1016" 
d="M908 588v-588l-108 67v521h-141v-588l-108 62l6 235q-23 -15 -57 -15t-76 21q15 -32 15 -66q0 -69 -45.5 -117.5t-123.5 -48.5q-53 0 -99.5 28.5t-80.5 76.5q-59 81 -98 180l54 30q71 -159 130 -197q28 -18 59 -18q53 0 84.5 31t31.5 74.5t-31 73.5q-34 -23 -95 -47
l-60 100q163 55 163 127q0 22 -16 37.5t-38 15.5q-54 0 -113 -65l-78 78q71 87 154 87q63 0 119 -65.5t56 -131.5q0 -45 -37 -87q29 -20 64 -20t68 15.5t44 34.5v159h-83q-1 2 -29.5 43t-30.5 44h599l47 -87h-146z" />
    <glyph glyph-name="uni0907" unicode="&#x907;" horiz-adv-x="545" 
d="M447.5 269.5q49.5 -54.5 49.5 -112t-57.5 -102.5t-131.5 -56l122 -132l-69 -46l-134 176q-56 14 -106.5 53t-50.5 76q0 21 19.5 37.5t43.5 16.5q34 0 104 -89h4q61 0 120.5 30.5t59.5 75.5q0 15 -9 26t-23 11t-65 -19.5t-86 -19.5q-53 0 -112 66.5t-59 124.5t37 88t92 30
h148v84h-343l-60 87h613l59 -87h-164v-184h-226q-32 0 -53 -18.5t-21 -44t11.5 -39t34.5 -13.5t73 17.5t74 17.5q56 0 105.5 -54.5z" />
    <glyph glyph-name="uni0908" unicode="&#x908;" horiz-adv-x="544" 
d="M475 880q-42 0 -71 -25.5t-29 -77.5t52 -102h116l59 -87h-164v-184h-226q-32 0 -53 -18.5t-21 -44t11.5 -39t34.5 -13.5t73 17.5t74 17.5q56 0 105.5 -54.5t49.5 -112t-57.5 -102.5t-131.5 -56l122 -132l-69 -46l-134 176q-57 14 -107.5 53t-50.5 76q0 21 20 37.5
t44 16.5q34 0 103 -89h4q61 0 120.5 30t59.5 76q0 15 -8.5 26t-22.5 11t-65 -19.5t-87 -19.5q-52 0 -111 66.5t-59 124.5t37 88t91 30h149v84h-343l-60 87h425q-64 71 -64 152q0 59 39.5 94t100 35t111.5 -38l-24 -45q-21 7 -43 7z" />
    <glyph glyph-name="uni0909" unicode="&#x909;" horiz-adv-x="527" 
d="M212 178q32 -21 75 -21t74.5 30t31.5 76t-34 81q-50 -26 -122 -37l-59 99q182 27 182 113q0 20 -12 40t-31 29h-329l-60 87h622l60 -87h-205q43 -49 43 -106.5t-38 -98.5q72 -66 72 -161q0 -70 -46 -118.5t-125 -48.5q-41 0 -80.5 20t-70 50.5t-58.5 71.5q-50 76 -78 149
l55 34q64 -158 133 -202z" />
    <glyph glyph-name="uni090A" unicode="&#x90a;" horiz-adv-x="729" 
d="M656 376q62 -66 62 -131.5t-42.5 -110t-106.5 -68.5l-67 91q62 18 95 52t33 68t-16.5 51t-42.5 17q-63 0 -128 -84q8 -18 8 -39q0 -70 -46.5 -118.5t-125.5 -48.5q-41 0 -80.5 21t-69.5 52t-57 74q-46 70 -76 147l52 31q90 -222 194 -222q53 0 85.5 30t32.5 76t-32 79
q-46 -24 -116 -36l-59 100q176 25 176 112q0 20 -13 40.5t-33 28.5h-299l-60 87h793l61 -87h-401q40 -50 40 -107.5t-37 -97.5q10 -10 12 -13q76 72 139 72t125 -66z" />
    <glyph glyph-name="uni090B" unicode="&#x90b;" horiz-adv-x="946" 
d="M550 588v-212q16 -6 33.5 -6t30.5 2t23.5 6t17 7t12.5 7t7 4q-19 32 -19 55.5t19 41t47.5 17.5t59.5 -36.5t31 -71.5t-34 -61l75 -106l-106 -92q-30 -30 -30 -51t16 -36.5t48.5 -15.5t59.5 22t54 64l60 -56q-12 -39 -47.5 -71t-89 -32t-124 52t-70.5 110q0 39 35 66
l90 74l-26 39q-34 -14 -82.5 -14t-90.5 18v-312l-104 62v200l-239 -201l-81 64l271 217q-24 32 -59 55t-72 23q-72 0 -146 -61l-73 86q79 63 161 63q58 0 113.5 -30t124.5 -112v222h-457l-60 87h1028l60 -87h-467z" />
    <glyph glyph-name="uni090C" unicode="&#x90c;" horiz-adv-x="759" 
d="M521 395q-51 0 -74 -34t-23 -86.5t20 -104.5l-97 32q-26 52 -26 98.5t9 72.5q-27 20 -67.5 20t-69 -31t-28.5 -90t44.5 -116.5t117.5 -116.5l-54 -39q-210 181 -210 321q0 72 46.5 120t120 48t129.5 -58q44 56 116 56q49 0 98 -33v134h-580l-60 87h846l60 -87h-159v-508
q-43 -18 -69 -31t-52 -36t-26 -48t19.5 -38.5t50 -13.5t67 17t60.5 41l68 -63q-29 -31 -74.5 -54.5t-89.5 -23.5q-66 0 -129.5 60.5t-63.5 121.5q0 37 33 66q28 24 61.5 44t37.5 22v242q-27 9 -52 9z" />
    <glyph glyph-name="uni090D" unicode="&#x90d;" horiz-adv-x="571" 
d="M495 588v-194q0 -62 -24.5 -102.5t-76.5 -73.5l-80 80q40 24 56.5 45.5t16.5 56.5v188h-189v-273q0 -37 7.5 -52.5t37.5 -37.5l196 -151q58 -43 58 -97.5t-45 -97.5l-87 68q33 31 33 54.5t-58 68.5q-4 3 -107.5 83.5t-123 95.5t-19.5 53v286h-101l-53 87h649l53 -87h-143
zM269 822q83 0 145 119l80 -62q-78 -143 -187 -143q-130 0 -233 163l47 34q22 -33 39 -53.5t46.5 -39t62.5 -18.5z" />
    <glyph glyph-name="uni090E" unicode="&#x90e;" horiz-adv-x="571" 
d="M495 588v-194q0 -62 -24.5 -102.5t-76.5 -73.5l-80 80q40 24 56.5 45.5t16.5 56.5v188h-189v-273q0 -37 7.5 -52.5t37.5 -37.5l196 -151q58 -43 58 -97.5t-45 -97.5l-87 68q33 31 33 54.5t-58 68.5q-4 3 -107.5 83.5t-123 95.5t-19.5 53v286h-101l-53 87h470
q-15 39 -45.5 57.5t-95.5 18.5h-45q-98 0 -142 45q-24 23 -37.5 47.5t-29.5 65.5l49 35q23 -54 36 -67q30 -31 116 -31h42q107 0 154.5 -44.5t68.5 -126.5h108l53 -87h-143z" />
    <glyph glyph-name="uni090F" unicode="&#x90f;" horiz-adv-x="564" 
d="M487 588v-194q0 -62 -24.5 -102.5t-76.5 -73.5l-79 80q40 24 56.5 45.5t16.5 56.5v188h-190v-273q0 -37 7.5 -52.5t37.5 -37.5l196 -151q58 -43 58 -97t-44 -98l-88 68q34 32 34 54.5t-58 68.5q-7 5 -110 85t-117.5 91t-19 22.5t-4.5 33.5v286h-101l-53 87h649l53 -87
h-143z" />
    <glyph glyph-name="uni0910" unicode="&#x910;" horiz-adv-x="571" 
d="M124 889q53 32 98.5 32t85 -21.5t71.5 -62.5t52 -76t44 -86h110l53 -87h-143v-194q0 -62 -24.5 -102.5t-76.5 -73.5l-80 80q40 24 56.5 45.5t16.5 56.5v188h-189v-273q0 -37 7.5 -52.5t37.5 -37.5l196 -151q58 -43 58 -97.5t-45 -97.5l-87 68q33 31 33 54.5t-58 68.5
q-4 3 -107.5 83.5t-123 95.5t-19.5 53v286h-101l-53 87h468q-78 144 -149 144q-29 0 -65 -24z" />
    <glyph glyph-name="uni0911" unicode="&#x911;" horiz-adv-x="1029" 
d="M941 588v-588l-108 67v521h-152v-588l-108 62l6 235q-23 -15 -57 -15t-76 21q15 -32 15 -66q0 -69 -45.5 -117.5t-123.5 -48.5q-53 0 -99.5 28.5t-80.5 76.5q-59 81 -98 180l54 30q71 -159 130 -197q28 -18 59 -18q53 0 84.5 31t31.5 74.5t-31 73.5q-34 -23 -95 -47
l-60 100q163 55 163 127q0 22 -16 37.5t-38 15.5q-54 0 -113 -65l-78 78q71 87 154 87q63 0 119 -65.5t56 -131.5q0 -45 -37 -87q29 -20 64 -20t68 15.5t44 34.5v159h-83q-1 2 -29.5 43t-30.5 44h619l46 -87h-154zM833 822q83 0 145 119l80 -62q-78 -143 -187 -143
q-130 0 -233 163l47 34q22 -33 39 -53.5t46.5 -39t62.5 -18.5z" />
    <glyph glyph-name="uni0912" unicode="&#x912;" horiz-adv-x="1029" 
d="M943 588v-588l-108 67v521h-154v-588l-108 62l6 235q-23 -15 -57 -15t-76 21q15 -32 15 -66q0 -69 -45.5 -117.5t-123.5 -48.5q-53 0 -99.5 28.5t-80.5 76.5q-59 81 -98 180l54 30q71 -159 130 -197q28 -18 59 -18q53 0 84.5 31t31.5 74.5t-31 73.5q-34 -23 -95 -47
l-60 100q163 55 163 127q0 22 -16 37.5t-38 15.5q-54 0 -113 -65l-78 78q71 87 154 87q63 0 119 -65.5t56 -131.5q0 -45 -37 -87q29 -20 64 -20t68 15.5t44 34.5v159h-83q-1 2 -29.5 43t-30.5 44h415q-15 39 -45.5 57.5t-95.5 18.5h-45q-98 0 -143 45q-23 23 -36.5 47.5
t-29.5 65.5l49 35q23 -54 36 -67q30 -31 116 -31h42q107 0 154.5 -44.5t68.5 -126.5h135l46 -87h-154z" />
    <glyph glyph-name="uni0913" unicode="&#x913;" horiz-adv-x="1029" 
d="M565 889q53 32 98.5 32t85 -21.5t71.5 -62.5t52 -76t44 -86h135l46 -87h-154v-588l-108 67v521h-154v-588l-108 62l6 235q-23 -15 -57 -15t-76 21q15 -32 15 -66q0 -69 -45.5 -117.5t-123.5 -48.5q-53 0 -99.5 28.5t-80.5 76.5q-59 81 -98 180l54 30q71 -159 130 -197
q28 -18 59 -18q53 0 84.5 31t31.5 74.5t-31 73.5q-34 -23 -95 -47l-60 100q163 55 163 127q0 22 -16 37.5t-38 15.5q-54 0 -113 -65l-78 78q71 87 154 87q63 0 119 -65.5t56 -131.5q0 -45 -37 -87q29 -20 64 -20t68 15.5t44 34.5v159h-83q-1 2 -29.5 43t-30.5 44h415
q-78 144 -149 144q-29 0 -65 -24z" />
    <glyph glyph-name="uni0914" unicode="&#x914;" horiz-adv-x="1049" 
d="M657 966q32 14 73.5 14t80.5 -30.5t65 -79.5q47 -90 70 -195h125l46 -87h-154v-588l-108 67v521h-174v-588l-108 62l6 235q-23 -15 -57 -15t-76 21q15 -32 15 -66q0 -69 -45.5 -117.5t-123.5 -48.5q-53 0 -99.5 28.5t-80.5 76.5q-59 81 -98 180l54 30q71 -159 130 -197
q28 -18 59 -18q53 0 84.5 31t31.5 74.5t-31 73.5q-34 -23 -95 -47l-60 100q163 55 163 127q0 22 -16 37.5t-38 15.5q-54 0 -113 -65l-78 78q71 87 154 87q63 0 119 -65.5t56 -131.5q0 -45 -37 -87q29 -20 64 -20t68 15.5t44 34.5v159h-83q-1 2 -29.5 43t-30.5 44h415
q-59 68 -127 68q-32 0 -65 -18l-67 85q37 26 91.5 26t115.5 -44.5t104 -108.5q-47 126 -93 171q-33 33 -68 33q-19 0 -37 -7z" />
    <glyph glyph-name="uni0915" unicode="&#x915;" horiz-adv-x="788" 
d="M260 120q-73 0 -146 76.5t-73 156t44 118t103 38.5q39 0 73 -14l33 -99q-26 11 -63.5 11t-69 -25.5t-31.5 -68t28.5 -69t69.5 -26.5q78 0 116 84v286h-364l-60 87h888l60 -87h-416q-2 -30 -5 -121q42 38 96 38q73 0 143 -81.5t70 -163.5q0 -63 -40 -104.5t-106 -41.5
q-41 0 -78 14l-28 102q36 -14 73 -14t64.5 23t27.5 64t-25.5 70.5t-69.5 29.5q-76 0 -122 -88v-315l-108 63l4 98q-39 -41 -88 -41z" />
    <glyph glyph-name="uni0916" unicode="&#x916;" horiz-adv-x="770" 
d="M71 394q35 -36 62 -36t27 30v200h-180l-60 87h870l60 -87h-159v-588l-105 63l5 71q-30 -33 -81.5 -60t-106.5 -27t-105.5 20t-86.5 47.5t-74.5 73.5t-60.5 79t-53 83zM266 366q0 -96 -94 -112q33 -48 88 -81.5t116 -33.5q85 0 136 54q-77 9 -132 55.5t-55 121.5
q0 56 40 94.5t95 38.5q72 0 123 -51v136h-317v-222zM583.5 280q10.5 23 10.5 56t-26.5 57.5t-62 24.5t-57.5 -21.5t-22 -55.5q0 -46 41 -69.5t88 -23.5h8q10 9 20.5 32z" />
    <glyph glyph-name="uni0917" unicode="&#x917;" horiz-adv-x="522" 
d="M443 588v-588l-108 69v519h-129v-298q0 -38 -8 -53.5t-27 -15.5q-37 0 -87 51t-50 88.5t67 37.5v190h-121l-63 87h625l64 -87h-163z" />
    <glyph glyph-name="uni0918" unicode="&#x918;" horiz-adv-x="610" 
d="M78 590l-51 -2h-47l-60 87h710l59 -87h-158v-588l-108 66l6 103q-62 -57 -129 -57q-89 0 -165 67t-76 146q0 65 65 98q-70 47 -70 106q0 39 24 61zM262 349q-108 0 -108 -68q0 -33 27.5 -55.5t74.5 -22.5t92.5 32.5t74.5 76.5v276h-209q-24 -7 -41.5 -31.5t-17.5 -55.5
t32 -60q25 6 56.5 6t65.5 -9l31 -100q-44 11 -78 11z" />
    <glyph glyph-name="uni0919" unicode="&#x919;" horiz-adv-x="616" 
d="M270 93q61 0 103.5 32t42.5 73q0 15 -9 25t-24.5 10t-61.5 -19t-74 -19q-57 0 -113.5 63.5t-56.5 124t34 91.5t96 31h130v83h-357l-60 87h716l60 -87h-256v-183h-208q-72 0 -72 -59q0 -24 13 -40t35.5 -16t70.5 19t72 19q53 0 98 -59.5t45 -116t-55 -104.5t-134.5 -48
t-150.5 50t-115 129l53 37q81 -123 178 -123zM473 336l78 79l80 -79l-78 -78z" />
    <glyph glyph-name="uni091A" unicode="&#x91a;" horiz-adv-x="676" 
d="M494 192q-69 -73 -146 -73t-149 66.5t-72 141.5q0 20 11.5 40.5t28.5 31.5l-114 -4l-60 89h382l60 -88h-95q-54 -8 -87 -37.5t-33 -67.5t24.5 -58.5t69 -20.5t92.5 36t84 99v241h-510l-54 87h770l54 -87h-153v-588l-108 66z" />
    <glyph glyph-name="uni091B" unicode="&#x91b;" horiz-adv-x="706" 
d="M339 239q-43 9 -77.5 9t-62.5 -14.5t-28 -49t31.5 -53t80.5 -18.5q106 0 181 72q-112 101 -112 205q0 47 24 83t62 48v67h-458l-60 87h806l60 -87h-243v-81q43 -26 69 -77t26 -104q0 -81 -48 -155q68 -48 119 -81l-50 -59q-3 2 -53.5 41t-57.5 45q-92 -92 -217 -92
q-98 0 -176.5 62t-78.5 146q0 48 37 79q-67 57 -67 112t40 85t110 30q34 0 84 -10l34 -96q-44 9 -79 9q-92 0 -92 -54q0 -24 31 -50q26 6 57.5 6t68.5 -8zM445 342q0 -56 63 -108q17 20 33.5 62t16.5 76q0 71 -43 71q-31 0 -50.5 -30t-19.5 -71z" />
    <glyph glyph-name="uni091C" unicode="&#x91c;" horiz-adv-x="705" 
d="M517 371h-168q63 -57 63 -139q0 -56 -33.5 -90.5t-94.5 -34.5q-40 0 -76 20t-62.5 50.5t-51.5 76.5q-40 73 -75 175l57 33q77 -254 177 -254q69 0 69 68t-107 172l12 18h290v122h-537l-60 87h805l60 -87h-160v-588l-108 66v305z" />
    <glyph glyph-name="uni091D" unicode="&#x91d;" horiz-adv-x="750" 
d="M570 270q-26 -16 -56.5 -16t-68.5 10q27 -38 27 -79q0 -56 -54 -99.5t-125 -58.5l126 -134l-69 -45l-138 179q-56 13 -106 52.5t-50 77.5q0 22 19.5 38.5t43.5 16.5q33 0 106 -94q63 1 117 31t54 75q0 14 -9.5 23.5t-27.5 9.5t-62.5 -19t-70.5 -19q-52 0 -111 63.5
t-59 121.5q0 111 128 111h135v73h-339l-60 87h850l60 -87h-159v-588l-107 66zM564 588h-140v-167h-212q-32 0 -53.5 -15.5t-21.5 -40.5t12 -39t34 -14t67.5 18.5t65.5 18.5t65.5 -8.5t88.5 -8.5q56 0 94 53v203z" />
    <glyph glyph-name="uni091E" unicode="&#x91e;" horiz-adv-x="758" 
d="M364.5 251q32.5 31 32.5 87q0 37 -22 60.5t-59 23.5q-51 0 -94 -55l-79 86q65 69 128 69q114 0 193 -156q15 -8 34 -8q44 0 74 42v188h-592l-60 87h858l60 -87h-159v-588l-108 71l8 212q-25 -13 -47 -13t-52 18v-13q0 -64 -47 -108t-115 -44q-90 0 -172 78
q-69 66 -135 156l49 44q81 -111 120 -143q49 -38 100.5 -38t84 31z" />
    <glyph glyph-name="uni091F" unicode="&#x91f;" horiz-adv-x="518" 
d="M427 588v-203h-147q-56 0 -92.5 -30.5t-36.5 -89t37 -90.5t94 -32q89 0 155 72l67 -90q-75 -81 -174.5 -81t-187 85.5t-87.5 184.5q0 78 49.5 124t128.5 46h86v104h-339l-57 87h615l57 -87h-168z" />
    <glyph glyph-name="uni0920" unicode="&#x920;" horiz-adv-x="585" 
d="M427 588v-164q54 -33 87.5 -85t33.5 -112q0 -84 -54 -135.5t-156 -51.5t-191.5 82.5t-89.5 193.5q0 79 46.5 123t130.5 44h86v105h-340l-57 87h682l57 -87h-235zM453 261q0 81 -80 124h-95q-54 0 -90 -31t-36 -91t45.5 -99t110.5 -39t105 38.5t40 97.5z" />
    <glyph glyph-name="uni0921" unicode="&#x921;" horiz-adv-x="524" 
d="M266 93q61 0 103 32t42 70t-34 38q-14 0 -60 -19t-74 -19q-57 0 -113.5 63t-56.5 132q0 53 33 80.5t96 27.5h131v90h-350l-61 87h622l60 -87h-168v-183h-208q-73 0 -73 -59q0 -24 14.5 -42t37 -18t70.5 19.5t72 19.5q54 0 97 -56t43 -112t-55.5 -104t-135.5 -48t-150 48
t-113 126l53 37q81 -123 178 -123z" />
    <glyph glyph-name="uni0922" unicode="&#x922;" horiz-adv-x="533" 
d="M435 588v-196h-154q-61 0 -99 -32t-38 -92t42.5 -100.5t100.5 -43.5q-39 45 -39 94.5t32 83.5t81.5 34t97.5 -46.5t48 -106.5t-51 -103t-119 -43t-131.5 35t-108.5 102.5t-45 144t46.5 123t128.5 46.5h100v100h-325l-60 87h611l60 -87h-178zM349 229q-20 -23 -20 -50.5
t17 -47.5q35 10 60.5 35t25.5 55.5t-31.5 30.5t-51.5 -23z" />
    <glyph glyph-name="uni0923" unicode="&#x923;" horiz-adv-x="744" 
d="M665 588v-588l-108 66v522h-130v-260q0 -68 -37 -108t-101.5 -40t-134.5 57q-42 34 -67 78.5t-25 85.5v187h-82l-60 87h844l60 -87h-159zM246 268q74 0 74 91v229h-152v-222q0 -44 21.5 -71t56.5 -27z" />
    <glyph glyph-name="uni0924" unicode="&#x924;" horiz-adv-x="571" 
d="M492 588v-588l-105 64v297h-131q-50 0 -76.5 -29.5t-26.5 -78.5q0 -87 104 -215l-55 -38q-62 76 -103.5 161.5t-41.5 154.5t42 107t123 38h165v127h-407l-60 87h671l60 -87h-159z" />
    <glyph glyph-name="uni0925" unicode="&#x925;" horiz-adv-x="686" 
d="M357 393q-33 -25 -65 -44t-36.5 -21.5t-9.5 -6.5t-6.5 -5t-6 -4.5t-6 -6t-3.5 -5.5q-5 -7 -5 -16q0 -27 27 -43.5t69 -16.5t93 33.5t91 81.5v249h-58l-60 87h325l60 -87h-159v-588l-108 66l5 132q-67 -69 -148 -69q-52 0 -112 34t-100 84t-40 94q0 21 19 32
q10 6 42.5 22.5t56 30.5t50.5 33q58 40 58 82q0 26 -20 44t-47.5 18t-48 -18t-20.5 -46.5t27 -53.5l-48 -32q-65 62 -65 122q0 47 37 77.5t85 30.5q71 0 129.5 -64.5t58.5 -122t-61 -103.5z" />
    <glyph glyph-name="uni0926" unicode="&#x926;" horiz-adv-x="538" 
d="M428 392h-150q-133 0 -133 -110q0 -54 36.5 -90t89.5 -36q38 0 58 16l7 5q-21 32 -21 61t24 49.5t55 20.5t62.5 -40.5t31.5 -73.5t-43 -74l103 -123l-63 -43l-89 133q-39 -22 -84 -22q-92 0 -176.5 81.5t-84.5 181.5q0 72 45.5 117.5t135.5 45.5h89v97h-341l-53 87h631
l53 -87h-183v-196z" />
    <glyph glyph-name="uni0927" unicode="&#x927;" horiz-adv-x="606" 
d="M79 590l-61 -2h-38l-60 87h329l60 -87h-92q-25 -7 -42 -31.5t-17 -53.5t34 -56q14 2 38 2t78 -8l32 -106q-51 14 -89 14t-67.5 -15.5t-29.5 -50t25.5 -56t66.5 -21.5q89 0 173 107v275h-39l-60 87h306l60 -87h-159v-588l-107 66l4 107q-64 -55 -141.5 -55t-150 65
t-72.5 150q0 31 18.5 56.5t48.5 39.5q-72 47 -72 100q0 37 24 61z" />
    <glyph glyph-name="uni0928" unicode="&#x928;" horiz-adv-x="543" 
d="M360 324h-161v-82q0 -15 -8 -25t-23 -10q-36 0 -82.5 59t-46.5 102q0 52 67 52h254v168h-380l-60 87h643l60 -87h-159v-588l-104 64v260z" />
    <glyph glyph-name="uni0928093C" unicode="&#x929;" horiz-adv-x="549" 
d="M365 324h-161v-82q0 -15 -8 -25t-23 -10q-36 0 -82.5 59t-46.5 102q0 52 68 52h253v168h-377l-60 87h640l60 -87h-159v-588l-104 64v260zM235 31l-80 -81l-83 81l80 81z" />
    <glyph glyph-name="uni092A" unicode="&#x92a;" horiz-adv-x="540" 
d="M461 588v-588l-106 66l7 173q-48 -29 -82 -29q-62 0 -138 71t-76 143v164h-86l-60 87h640l60 -87h-159zM192 323q19 -20 51.5 -20t63 20.5t47.5 48.5v216h-181v-208q0 -37 19 -57z" />
    <glyph glyph-name="uni092B" unicode="&#x92b;" horiz-adv-x="793" 
d="M271 215q-60 0 -136 75t-76 146v152h-79l-59 87h892l60 -87h-427l-1 -140q40 31 96 31q68 0 141.5 -79t73.5 -154t-40 -115t-110 -40q-29 0 -67 8l-36 104q32 -11 70 -11t64.5 23.5t26.5 66t-25.5 71t-65.5 28.5q-81 0 -126 -83v-298l-109 66l7 173q-37 -24 -74 -24z
M233 310q60 0 106 63v215h-173v-199q0 -36 18 -57.5t49 -21.5z" />
    <glyph glyph-name="uni092C" unicode="&#x92c;" horiz-adv-x="589" 
d="M510 588v-588l-109 72l5 129q-22 -25 -62.5 -46t-80.5 -21q-81 0 -151 67.5t-70 145t52.5 125t115.5 47.5q89 0 157 -79l-36 -48q-42 42 -87 42q-26 0 -53 -15l146 -158q34 29 66 76l-2 251h-421l-60 87h689l60 -87h-159zM156.5 243q30.5 -30 66.5 -30t69 18l-143 154
q-23 -30 -23 -71t30.5 -71z" />
    <glyph glyph-name="uni092D" unicode="&#x92d;" horiz-adv-x="576" 
d="M497 588v-588l-108 67v212h-174v-59q0 -33 -31 -33q-34 0 -90 56.5t-56 95.5q0 20 16 29.5t55 9.5v155q0 24 -14.5 39.5t-38.5 15.5h-76l-59 87h101q56 0 99 -37l50 -44q42 -39 42 -102v-114h176v210h-101l-59 87h367l59 -87h-158z" />
    <glyph glyph-name="uni092E" unicode="&#x92e;" horiz-adv-x="593" 
d="M104 377h7v211h-131l-57 87h690l57 -87h-156v-588l-108 67v210h-191v-59q0 -32 -30 -32q-34 0 -90 54.5t-56 93.5q0 43 65 43zM215 588v-211h191v211h-191z" />
    <glyph glyph-name="uni092F" unicode="&#x92f;" horiz-adv-x="605" 
d="M526 588v-588l-108 67l4 135q-59 -59 -126 -59q-50 0 -110.5 40.5t-101.5 95.5t-41 95q0 22 20 31q85 43 112 65t27 41t-15 42t-38 35h-169l-60 87h705l60 -87h-159zM253 243q101 0 166 111v234h-178q29 -23 48 -59t19 -60.5t-12.5 -43t-25 -27.5t-42 -28t-39 -25.5
t-15.5 -10.5q-14 -11 -14 -23q0 -28 30 -48t63 -20z" />
    <glyph glyph-name="uni0930" unicode="&#x930;" horiz-adv-x="398" 
d="M286 588v-233q0 -35 -24 -61t-70 -38q56 -79 189 -220l-72 -39q-176 213 -268 352l54 48q40 -38 60 -38q23 0 23 28v201h-198l-60 87h498l59 -87h-191z" />
    <glyph glyph-name="uni0930093C" unicode="&#x931;" horiz-adv-x="398" 
d="M286 588v-233q0 -35 -24 -61t-70 -38q56 -79 189 -220l-72 -39q-176 213 -268 352l54 48q40 -38 60 -38q23 0 23 28v201h-198l-60 87h498l59 -87h-191zM22 3l77 79l81 -79l-79 -77z" />
    <glyph glyph-name="uni0932" unicode="&#x932;" horiz-adv-x="747" 
d="M335 202q-27 51 -27 98.5t10 72.5q-27 20 -68 20t-69.5 -31t-28.5 -90t44.5 -116t117.5 -117l-54 -39q-210 181 -210 321q0 72 46.5 120t120 48t129.5 -58q44 56 116 56q48 0 98 -33v134h-580l-60 87h847l60 -87h-159v-588l-108 67v319q-25 9 -51 9q-51 0 -74.5 -34.5
t-23.5 -86.5t20 -104z" />
    <glyph glyph-name="uni0933" unicode="&#x933;" horiz-adv-x="755" 
d="M387 167q-49 -76 -121 -76t-144 77.5t-72 153t53 131t127 55.5t155 -78q43 69 102 77v81h-507l-60 87h855l60 -87h-243v-109q51 -30 90.5 -89.5t39.5 -111.5q0 -76 -52.5 -131.5t-127 -55.5t-155.5 76zM355 372q-45 40 -92 40t-82 -36.5t-35 -87.5t23 -76t58 -25t58 31.5
t45.5 90.5t24.5 63zM416 223q47 -39 93.5 -39t82 38t35.5 88t-23 76t-56 26q-45 0 -74 -54q-17 -31 -58 -135z" />
    <glyph glyph-name="uni0933093C" unicode="&#x934;" horiz-adv-x="755" 
d="M387 167q-49 -76 -121 -76t-144 77.5t-72 153t53 131t127 55.5t155 -78q43 69 102 77v81h-507l-60 87h855l60 -87h-243v-109q51 -30 90.5 -89.5t39.5 -111.5q0 -76 -52.5 -131.5t-127 -55.5t-155.5 76zM355 372q-45 40 -92 40t-82 -36.5t-35 -87.5t23 -76t58 -25t58 31.5
t45.5 90.5t24.5 63zM416 223q47 -39 93.5 -39t82 38t35.5 88t-23 76t-56 26q-45 0 -74 -54q-17 -31 -58 -135zM458 -53l77 79l81 -79l-79 -77z" />
    <glyph glyph-name="uni0935" unicode="&#x935;" horiz-adv-x="585" 
d="M506 588v-588l-110 72l5 119q-64 -66 -138.5 -66t-147 72t-72.5 153.5t48.5 128t110.5 46.5q89 0 164 -89l-30 -49q-40 42 -87 42t-79.5 -38.5t-32.5 -81.5t23 -68t64.5 -25t89.5 37t85 94l-3 241h-416l-60 87h685l60 -87h-159z" />
    <glyph glyph-name="uni0936" unicode="&#x936;" horiz-adv-x="730" 
d="M212 338q68 0 109.5 40.5t41.5 108.5q0 43 -21.5 71.5t-54 28.5t-51 -19.5t-18.5 -51.5q0 -49 66 -75l-32 -46q-50 17 -93.5 59.5t-43.5 96.5t37 93.5t92 39.5q80 0 143.5 -79.5t63.5 -165.5t-60.5 -143.5t-155.5 -57.5q56 -67 182 -194l-69 -44q-219 250 -287 345l52 46
q55 -53 99 -53zM651 588v-588l-108 66v522h-75l-50 87h332l50 -87h-149z" />
    <glyph glyph-name="uni0937" unicode="&#x937;" horiz-adv-x="556" 
d="M477 588v-588l-108 67l7 165q-46 -32 -96 -32q-68 0 -139 69t-76 145v174h-82l-60 87h653l60 -87h-159zM250 284q55 0 100 42l-180 188v-148q0 -38 24 -60t56 -22zM369 588h-189l189 -207v207z" />
    <glyph glyph-name="uni0938" unicode="&#x938;" horiz-adv-x="658" 
d="M407 255q-72 0 -152 62q-15 -48 -79 -60q67 -98 181 -216l-73 -42q-163 197 -264 350l53 48q41 -38 60 -38q23 0 23 28v201h-168l-60 87h750l60 -87h-159v-588l-105 66l5 212q-31 -23 -72 -23zM263 588v-198q45 -40 98 -40q71 0 113 45v193h-211z" />
    <glyph glyph-name="uni0939" unicode="&#x939;" horiz-adv-x="510" 
d="M355.5 146.5q22.5 28.5 22.5 50.5q0 45 -57 45t-101.5 -35t-44.5 -88q0 -113 227 -223l-58 -43q-270 159 -270 301q0 70 58 125q-74 71 -74 136q0 46 30 70t85 24h150v79h-333l-60 87h600l60 -87h-162v-173h-197q-71 0 -71 -48q0 -26 27 -53q42 20 83 20q84 0 139 -58.5
t55 -127.5q0 -38 -24 -72.5t-72 -56.5l-77 82q42 17 64.5 45.5z" />
    <glyph glyph-name="uni093C" unicode="&#x93c;" 
d="M-488 -18l77 79l81 -79l-79 -77z" />
    <glyph glyph-name="uni093D" unicode="&#x93d;" horiz-adv-x="608" 
d="M406 350q95 -89 95 -165.5t-49.5 -130t-134.5 -53.5t-160 54.5t-112 115.5l49 47q33 -50 81 -85t107.5 -35t86.5 30t27 70q0 57 -64 114l-147 138q-71 66 -71 133q0 40 33 66t87 26h223l52 -87l-226 -2q-23 0 -37 -12.5t-14 -34.5q0 -33 58 -86z" />
    <glyph glyph-name="uni093E" unicode="&#x93e;" horiz-adv-x="266" 
d="M187 588v-588l-108 67v521h-102l-47 87h356l47 -87h-146z" />
    <glyph glyph-name="uni093F" unicode="&#x93f;" horiz-adv-x="266" 
d="M79 588h-108l-53 87h161q-41 46 -41 104q0 78 65 116t155 38q132 0 252.5 -51.5t211.5 -133.5l-41 -36q-76 57 -175.5 90t-192.5 33q-173 0 -173 -96q0 -20 10.5 -37.5t25.5 -26.5h119l53 -87h-161v-588l-108 67v521z" />
    <glyph glyph-name="uni0940" unicode="&#x940;" horiz-adv-x="266" 
d="M187 588v-588l-108 71v517h-108l-61 87h186q-38 78 -67.5 115t-58 53t-59.5 16t-50 -14.5t-19 -39.5q0 -44 44 -67l-56 -33q-32 16 -60 49t-28 81.5t38 82t94 33.5t103.5 -27t84.5 -75t59 -86t46 -88h128l60 -87h-168z" />
    <glyph glyph-name="uni0941" unicode="&#x941;" 
d="M-262 -37q0 41 26 75t81.5 34t107 -57t51.5 -110.5t-43.5 -96t-119.5 -42.5t-150 51t-127 123l47 35q100 -122 193 -122q49 0 83 27t34 65q0 19 -11 31.5t-33 12.5t-38.5 -24t-18.5 -60l-82 49v9z" />
    <glyph glyph-name="uni0942" unicode="&#x942;" 
d="M-231 -103q0 -22 13.5 -35.5t34.5 -13.5q48 0 61 75l86 -53q-19 -105 -111 -105q-59 0 -116 57t-57 115.5t42.5 96.5t103.5 38q151 0 302 -241l-45 -40q-124 187 -225 187q-34 0 -61.5 -22t-27.5 -59z" />
    <glyph glyph-name="uni0943" unicode="&#x943;" 
d="M-216 -79.5q-9 -14.5 -9 -35t21.5 -37t50.5 -16.5q73 0 124 61l77 -65q-24 -30 -67.5 -55.5t-92.5 -25.5q-72 0 -137.5 59t-65.5 120q0 49 47 87q34 28 83 55l106 -64v-4q-93 -34 -110.5 -49.5t-26.5 -30z" />
    <glyph glyph-name="uni0945" unicode="&#x945;" 
d="M-167 822q83 0 145 119l80 -62q-36 -64 -79.5 -103.5t-108.5 -39.5q-131 0 -232 163l47 34q33 -51 67 -81t81 -30z" />
    <glyph glyph-name="uni0946" unicode="&#x946;" 
d="M-315 751h-46q-94 0 -135.5 36.5t-74.5 121.5l49 35q30 -73 57 -84q37 -14 96 -14h42q135 0 185 -80q17 -27 24 -48t16 -54l-63 -24q-10 33 -16 47.5t-21.5 32.5t-42.5 24.5t-70 6.5z" />
    <glyph glyph-name="uni0947" unicode="&#x947;" 
d="M-462 889q53 32 92.5 32t69.5 -11t55.5 -35t44.5 -46t40 -59q47 -82 67 -133l-55 -28q-64 128 -97 163q-16 17 -39.5 32t-49.5 15t-62 -24z" />
    <glyph glyph-name="uni0948" unicode="&#x948;" 
d="M-386 966q32 14 72 14t76 -26t60 -63.5t44 -88.5q30 -79 46 -172l-65 -14q-29 54 -91 98q-41 29 -77 29t-69 -18l-67 85q37 26 92 26t118.5 -47t105.5 -114q-81 212 -166 212q-19 0 -37 -7z" />
    <glyph glyph-name="uni0949" unicode="&#x949;" horiz-adv-x="289" 
d="M203 588v-588l-108 67v521h-111l-47 87h374l46 -87h-154zM116 822q83 0 145 119l80 -62q-35 -64 -78.5 -103.5t-107.5 -39.5q-128 0 -234 163l47 34q35 -52 69.5 -81.5t78.5 -29.5z" />
    <glyph glyph-name="uni094A" unicode="&#x94a;" horiz-adv-x="289" 
d="M203 588v-588l-108 67v521h-111l-47 87h170q-16 39 -46 57.5t-95 18.5h-46q-99 0 -142 45q-23 24 -36.5 48t-30.5 65l49 35q23 -54 36 -67q30 -31 116 -31h42q113 0 162 -52q25 -26 38 -53t24 -66h133l46 -87h-154z" />
    <glyph glyph-name="uni094B" unicode="&#x94b;" horiz-adv-x="279" 
d="M197 588v-588l-108 67v521h-111l-47 87h163q-76 144 -149 144q-29 0 -65 -24l-66 94q53 32 99 32t85.5 -21.5t71.5 -62.5q52 -68 95 -162h140l46 -87h-154z" />
    <glyph glyph-name="uni094C" unicode="&#x94c;" horiz-adv-x="279" 
d="M197 588v-588l-108 67v521h-102l-47 87h138q-61 68 -128 68q-31 0 -64 -18l-68 85q38 26 93 26t118 -47t105 -114q-76 212 -165 212q-19 0 -37 -7l-42 86q31 14 68.5 14t70.5 -20.5t56 -52t43 -74.5q31 -70 51 -158h117l46 -87h-145z" />
    <glyph glyph-name="uni094D" unicode="&#x94d;" 
d="M-272 -63q37 23 72 23t64.5 -12t49 -24.5t48 -43t38.5 -42.5t38 -49.5t30 -40.5l-50 -35q-3 3 -24 32.5t-33 43t-33 35.5q-41 40 -90 40q-26 0 -51 -12z" />
    <glyph glyph-name="uni0950" unicode="&#x950;" horiz-adv-x="1158" 
 />
    <glyph glyph-name="uni0951" unicode="&#x951;" horiz-adv-x="299" 
d="M192 733h-84v223h84v-223z" />
    <glyph glyph-name="uni0952" unicode="&#x952;" 
d="M-92 -121v-75h-403v75h403z" />
    <glyph glyph-name="uni0953" unicode="&#x953;" horiz-adv-x="415" 
d="M322 788l-67 -51l-159 196l68 53z" />
    <glyph glyph-name="uni0954" unicode="&#x954;" horiz-adv-x="436" 
d="M165 740l-46 34l159 197l42 -32z" />
    <glyph glyph-name="uni0915093C" unicode="&#x958;" horiz-adv-x="794" 
d="M268 120q-73 0 -146 76.5t-73 156t44 118t103 38.5q39 0 73 -14l33 -99q-26 11 -63.5 11t-69 -25.5t-31.5 -68t28.5 -69t69.5 -26.5q78 0 116 84v286h-364l-60 87h888l60 -87h-416q-2 -30 -5 -121q42 38 96 38q73 0 143 -81.5t70 -163.5q0 -63 -40 -104.5t-106 -41.5
q-41 0 -78 14l-28 102q36 -14 73 -14t64.5 23t27.5 64t-25.5 70.5t-69.5 29.5q-76 0 -122 -88v-315l-108 63l4 98q-39 -41 -88 -41zM112 -18l77 79l81 -79l-79 -77z" />
    <glyph glyph-name="uni0916093C" unicode="&#x959;" horiz-adv-x="793" 
d="M74 394q34 -36 61.5 -36t27.5 30v200h-180l-60 87h870l60 -87h-159v-588l-105 63l5 71q-30 -33 -81.5 -60t-106.5 -27t-105.5 20t-86.5 47.5t-74.5 73.5t-60.5 79t-53 83zM269 366q0 -96 -94 -112q33 -48 88 -81.5t116 -33.5q85 0 136 54q-77 9 -132 55.5t-55 121.5
q0 56 40 94.5t95 38.5q72 0 123 -51v136h-317v-222zM586.5 280q10.5 23 10.5 56t-26.5 57.5t-62 24.5t-57.5 -21.5t-22 -55.5q0 -46 41 -69.5t88 -23.5h8q10 9 20.5 32zM74 -18l77 79l81 -79l-79 -77z" />
    <glyph glyph-name="uni0917093C" unicode="&#x95a;" horiz-adv-x="544" 
d="M454 588v-588l-108 69v519h-129v-298q0 -38 -8 -53.5t-27 -15.5q-37 0 -87 51t-50 88.5t67 37.5v190h-121l-63 87h625l64 -87h-163zM88 12l77 79l81 -79l-79 -77z" />
    <glyph glyph-name="uni091C093C" unicode="&#x95b;" horiz-adv-x="717" 
d="M518 371h-168q63 -57 63 -139q0 -56 -33.5 -90.5t-94.5 -34.5q-40 0 -76 20t-62.5 50.5t-51.5 76.5q-40 73 -75 175l57 33q77 -254 177 -254q69 0 69 68t-107 172l12 18h290v122h-537l-60 87h805l60 -87h-160v-588l-108 66v305zM67 -17l77 79l81 -79l-79 -77z" />
    <glyph glyph-name="uni0921093C" unicode="&#x95c;" horiz-adv-x="518" 
d="M263 93q61 0 103 32t42 70t-34 38q-14 0 -60 -19t-74 -19q-57 0 -113.5 63t-56.5 132q0 53 33 80.5t96 27.5h131v90h-350l-61 87h622l60 -87h-168v-183h-208q-73 0 -73 -59q0 -24 14.5 -42t37 -18t70.5 19.5t72 19.5q54 0 97 -56t43 -112t-55.5 -104t-135.5 -48t-150 48
t-113 126l53 37q81 -123 178 -123zM220 -137l77 79l81 -79l-79 -77z" />
    <glyph glyph-name="uni0922093C" unicode="&#x95d;" horiz-adv-x="533" 
d="M435 588v-196h-154q-61 0 -99 -32t-38 -92t42.5 -100.5t100.5 -43.5q-39 45 -39 94.5t32 83.5t81.5 34t97.5 -46.5t48 -106.5t-51 -103t-119 -43t-131.5 35t-108.5 102.5t-45 144t46.5 123t128.5 46.5h100v100h-325l-60 87h611l60 -87h-178zM349 229q-20 -23 -20 -50.5
t17 -47.5q35 10 60.5 35t25.5 55.5t-31.5 30.5t-51.5 -23zM253 -104l77 79l81 -79l-79 -77z" />
    <glyph glyph-name="uni092B093C" unicode="&#x95e;" horiz-adv-x="793" 
d="M271 215q-60 0 -136 75t-76 146v152h-79l-59 87h892l60 -87h-427l-1 -140q40 31 96 31q68 0 141.5 -79t73.5 -154t-40 -115t-110 -40q-29 0 -67 8l-36 104q32 -11 70 -11t64.5 23.5t26.5 66t-25.5 71t-65.5 28.5q-81 0 -126 -83v-298l-109 66l7 173q-37 -24 -74 -24z
M233 310q60 0 106 63v215h-173v-199q0 -36 18 -57.5t49 -21.5zM104 32l77 79l81 -79l-79 -77z" />
    <glyph glyph-name="uni092F093C" unicode="&#x95f;" horiz-adv-x="611" 
d="M513 588v-588l-108 67l4 135q-59 -59 -126 -59q-50 0 -110.5 40.5t-101.5 95.5t-41 95q0 22 20 31q85 43 112 65t27 41t-15 42t-38 35h-169l-60 87h705l60 -87h-159zM240 243q101 0 166 111v234h-178q29 -23 48 -59t19 -60.5t-12.5 -43t-25 -27.5t-42 -28t-39 -25.5
t-14.5 -10.5q-15 -11 -15 -23q0 -28 30 -48t63 -20zM73 -4l77 79l81 -79l-79 -77z" />
    <glyph glyph-name="uni0960" unicode="&#x960;" horiz-adv-x="892" 
d="M692 317q-47 -25 -103.5 -25t-97.5 19v-312l-108 68v180l-195 -165l-83 62l273 197q-28 31 -66 53.5t-75 22.5q-66 0 -140 -62l-67 85q77 67 170 67t183 -99v180h-402l-63 87h993l64 -87h-484v-215q15 -5 45 -5q66 0 96 24q-23 32 -23 59.5t20.5 44.5t48.5 17t62 -33.5
t34 -73.5q0 -26 -31 -54q30 -31 48 -51.5t39 -60.5t21 -76q0 -55 -39.5 -95t-100.5 -40q-94 0 -171 77l39 44q38 -35 85 -35t69 20t22 55q0 56 -63 127z" />
    <glyph glyph-name="uni0961" unicode="&#x961;" horiz-adv-x="747" 
d="M621 -184.5q-21 -19.5 -21 -46t21 -41.5t49 -15q72 0 129 61l77 -65q-24 -29 -69.5 -55t-93.5 -26q-73 0 -138 57.5t-65 118.5q0 34 29 68q-47 25 -78.5 66t-31.5 82q0 49 47 86q37 29 85 55v225q-27 9 -52 9q-51 0 -74 -34t-23 -86.5t20 -104.5l-97 32q-26 52 -26 98.5
t9 72.5q-27 20 -67.5 20t-69 -31t-28.5 -90t44.5 -116.5t117.5 -116.5l-54 -39q-210 181 -210 321q0 72 46.5 120t120 48t129.5 -58q44 56 116 56q49 0 98 -33v134h-581l-60 87h848l60 -87h-160v-494q-113 -39 -137 -73q-12 -17 -12 -39.5t21 -37.5t49 -15q59 0 102 45
l76 -51q-2 -3 -6.5 -18t-12.5 -21l-14 -10q-5 -3 -48.5 -21t-64.5 -37.5z" />
    <glyph glyph-name="uni0964" unicode="&#x964;" horiz-adv-x="349" 
d="M228 600v-598l-108 68v598z" />
    <glyph glyph-name="uni0965" unicode="&#x965;" horiz-adv-x="592" 
d="M228 600v-598l-108 67v599zM497 600v-598l-108 67v599z" />
    <glyph glyph-name="uni0966" unicode="&#x966;" horiz-adv-x="658" 
d="M339 583q-140 0 -140 -286q0 -97 36 -161t93 -64t96.5 74.5t39.5 218.5q0 104 -34.5 161t-90.5 57zM538.5 481q23.5 -72 23.5 -160t-20.5 -153t-53.5 -102q-66 -73 -142 -73q-73 0 -152 75q-40 38 -67 114.5t-27 171.5t22.5 160t57.5 97q66 60 133 60q88 0 164 -79
q38 -39 61.5 -111z" />
    <glyph glyph-name="uni0967" unicode="&#x967;" horiz-adv-x="467" 
d="M365 -2q41 -38 41 -79.5t-42 -83.5l-82 63q29 26 29 52.5t-35 59.5l-161 153q-29 27 -29 54q0 18 34 42q14 10 44 30.5t47 32.5t42.5 31.5t40 34t29.5 32.5q29 35 29 73.5t-25 67.5t-66.5 29t-68.5 -26t-27 -64q0 -52 62 -94l-37 -36q-43 24 -82.5 69t-39.5 101.5
t44.5 96.5t101.5 40q82 0 150.5 -77.5t68.5 -157.5q0 -37 -30.5 -78t-58.5 -64.5t-65.5 -52.5t-40.5 -31t-7 -5.5t-8 -6.5q-21 -16 -21 -33.5t21 -37.5z" />
    <glyph glyph-name="uni0968" unicode="&#x968;" horiz-adv-x="525" 
d="M46 608q115 64 202 64t156 -87t69 -182q0 -66 -58.5 -123t-136.5 -83l175 -267l-71 -44l-172 295q-18 -3 -37 -3q-32 0 -65 39t-33 79q0 26 27.5 43.5t53.5 17.5q32 0 73 -71q67 17 118 61.5t51 101t-37.5 90t-90.5 33.5q-82 0 -169 -56z" />
    <glyph glyph-name="uni0969" unicode="&#x969;" horiz-adv-x="536" 
d="M113 50.5q-47 39.5 -47 69.5t22 54.5t44 24.5t40.5 -17t32.5 -37.5t40 -62.5q54 6 99.5 45t45.5 95q0 31 -15.5 60t-33.5 42q-44 -30 -120 -57l-52 86l1 4q187 56 187 147q0 35 -24 58.5t-64 23.5q-78 0 -145 -75l-70 73q83 88 179 88q75 0 136.5 -66t61.5 -127t-45 -115
q38 -31 65 -78t27 -105.5t-53 -111.5t-133 -70l96 -141l-67 -43l-104 180q-57 16 -104 55.5z" />
    <glyph glyph-name="uni096A" unicode="&#x96a;" horiz-adv-x="621" 
d="M490 135q0 -53 -42 -96t-112 -43t-138 70.5t-68 135.5q0 50 49 105l69 79l-228 252l50 40l220 -244l203 238l77 -62l-208 -251l39 -43q89 -98 89 -181zM224 174q-6 -16 -6 -34t12 -36q20 -32 63.5 -32t75 29t31.5 75q0 24 -13 50t-26.5 42.5t-37.5 41.5l-43 -48
q-56 -62 -56 -88z" />
    <glyph glyph-name="uni096B" unicode="&#x96b;" horiz-adv-x="620" 
d="M530 321q0 -324 -204 -324q-6 0 -27 3l105 -151l-59 -39l-119 211q-57 24 -97 57t-40 69q0 22 17.5 42t41 20t50 -31t60.5 -86q19 -13 53.5 -13t64 20t44.5 57q25 64 25 169q-50 -44 -101 -44q-74 0 -155.5 72t-81.5 161q0 69 39 158l100 -54q-48 -82 -48 -138.5
t29.5 -88.5t70.5 -32t76 23.5t57 54.5q-11 112 -33 227l105 -47q27 -176 27 -296z" />
    <glyph glyph-name="uni096C" unicode="&#x96c;" horiz-adv-x="598" 
d="M434 314q-52 10 -99 10t-83 -16q-62 -30 -62 -108q0 -47 38 -85t88 -38t78 28q-21 38 -21 62.5t20 41.5t48 17t57 -40t29 -68t-26 -61l105 -151l-68 -43l-90 153q-36 -17 -77 -17q-106 0 -189 83t-83 166t63 129q-78 67 -78 154t94 126q43 18 98.5 18t126.5 -24l26 -92
l-3 -3q-79 29 -134 29q-27 0 -48 -7q-67 -20 -67 -92q0 -49 36 -83q44 14 91.5 14t96.5 -11l36 -88z" />
    <glyph glyph-name="uni096D" unicode="&#x96d;" horiz-adv-x="800" 
d="M549 224q-80 0 -150.5 59t-70.5 154q0 67 46.5 113.5t111.5 46.5t127.5 -47.5t100.5 -121.5t38 -142.5t-30.5 -130.5t-95 -106t-150 -44t-158.5 42t-120.5 107t-82.5 153q-59 149 -77 337l66 31q21 -231 96 -392q40 -84 103 -133t141 -49q110 0 166.5 69.5t56.5 163.5
q0 73 -39.5 120.5t-99.5 47.5q-42 0 -72.5 -28t-30.5 -84.5t54 -83.5q44 -23 91 -23q11 0 21 1l1 -1l-38 -59h-5z" />
    <glyph glyph-name="uni096E" unicode="&#x96e;" horiz-adv-x="549" 
d="M299 -10q-87 0 -170 78t-83 155q0 58 39 108l271 344l91 -56l-255 -340q-40 -53 -40 -95.5t33 -71.5t83.5 -29t93.5 44t65 111l4 1l86 -62q-51 -132 -135 -170q-37 -17 -83 -17z" />
    <glyph glyph-name="uni096F" unicode="&#x96f;" horiz-adv-x="483" 
d="M79 340q-51 71 -51 147t58 132t129 56q90 0 158.5 -71.5t68.5 -139.5q0 -83 -63 -137.5t-158 -74.5l183 -266q25 -36 25 -67q0 -48 -68 -83l-84 67q52 26 52 62q0 23 -30 65zM325 418.5q34 38.5 34 80.5t-25.5 64.5t-75.5 22.5t-92 -39t-42 -102t44 -109q42 8 82.5 26
t74.5 56.5z" />
    <glyph glyph-name="uni0970" unicode="&#x970;" horiz-adv-x="509" 
d="M363.5 395q45.5 -43 45.5 -104t-41 -103.5t-108 -45.5q-66 0 -113 43.5t-47 105t41.5 104t109 43t113 -42.5zM224 204q44 0 79.5 36t35.5 82q0 24 -14.5 39.5t-38.5 15.5q-41 0 -78.5 -33t-37.5 -82q0 -26 14.5 -42t39.5 -16z" />
    <glyph glyph-name="uni097D" unicode="&#x97d;" horiz-adv-x="614" 
d="M386 -21h-4l-94 63v215q0 41 24.5 88t53.5 81q79 92 79 137q0 30 -24 47t-63 17q-82 0 -138 -87l-81 79q30 47 76 74.5t100 27.5q75 0 151 -67t76 -129q0 -57 -78 -146q-29 -33 -53.5 -81.5t-24.5 -97.5v-221z" />
    <glyph glyph-name="uni200B" unicode="&#x200b;" 
 />
    <glyph glyph-name="uni200C" unicode="&#x200c;" 
d="M24 -230h-47v1041h47v-1041z" />
    <glyph glyph-name="uni200D" unicode="&#x200d;" 
d="M24 -230h-47v865l-69 -73l-33 33l93 93l-95 95l33 33l95 -95l96 95l32 -32l-96 -96l96 -95l-33 -33l-72 75v-865z" />
    <glyph glyph-name="endash" unicode="&#x2013;" horiz-adv-x="654" 
d="M599 314h-487l-43 86v8h486l44 -87v-7z" />
    <glyph glyph-name="emdash" unicode="&#x2014;" horiz-adv-x="737" 
d="M651 314h-539l-43 86v8h538l44 -87v-7z" />
    <glyph glyph-name="quoteleft" unicode="&#x2018;" horiz-adv-x="277" 
d="M73 694q0 52 24 105.5t58 94.5l59 -26q-57 -82 -57 -137.5t65 -89.5v-6l-48 -81q-101 39 -101 140z" />
    <glyph glyph-name="quoteright" unicode="&#x2019;" horiz-adv-x="276" 
d="M54 815l48 79q102 -40 101 -140t-82 -200l-59 28q57 78 58 131q-2 60 -66 94v8z" />
    <glyph glyph-name="quotesinglbase" unicode="&#x201a;" horiz-adv-x="276" 
d="M102 221q100 -36 100 -139t-82 -200l-58 28q56 77 56.5 134t-64.5 91v7z" />
    <glyph glyph-name="quotedblleft" unicode="&#x201c;" horiz-adv-x="451" 
d="M174 543q-101 39 -101 139t82 201l59 -28q-56 -71 -57.5 -130.5t64.5 -95.5v-7zM396 622l-48 -79q-101 40 -100.5 140t81.5 200l59 -28q-57 -75 -58 -132t66 -94v-7z" />
    <glyph glyph-name="quotedblright" unicode="&#x201d;" horiz-adv-x="451" 
d="M377 743q0 -52 -24 -105.5t-58 -94.5l-59 26q57 78 57 135t-65 92v6l48 81q101 -39 101 -140zM202 743q0 -54 -23 -106.5t-58 -93.5l-59 26q57 84 58 131q-2 61 -66 96v6l49 81q99 -39 99 -140z" />
    <glyph glyph-name="quotedblbase" unicode="&#x201e;" horiz-adv-x="451" 
d="M377 82q0 -52 -24 -105.5t-58 -94.5l-59 26q57 78 57 135t-65 92v6l48 81q101 -39 101 -140zM202 82q0 -54 -23 -106.5t-58 -93.5l-59 26q57 84 58 131q-2 61 -66 96v6l49 81q99 -39 99 -140z" />
    <glyph glyph-name="dagger" unicode="&#x2020;" horiz-adv-x="649" 
d="M580 523h-205v-558h-7l-94 74v484h-162l-43 87v7h205v230h8l93 -74v-156h162l43 -86v-8z" />
    <glyph glyph-name="daggerdbl" unicode="&#x2021;" horiz-adv-x="649" 
d="M580 570h-205v-281h162l43 -87v-7h-205v-183h-7l-94 74v109h-162l-43 87v7h205v281h-162l-43 87v7h205v230h8l93 -74v-156h162l43 -86v-8z" />
    <glyph glyph-name="bullet" unicode="&#x2022;" horiz-adv-x="334" 
d="M229 293q-26 -25 -62 -25t-61.5 25t-25.5 61t25.5 62t61.5 26t62 -26t26 -62t-26 -61z" />
    <glyph glyph-name="ellipsis" unicode="&#x2026;" horiz-adv-x="695" 
d="M187.5 58.5q-21.5 -21.5 -51 -21.5t-50.5 21.5t-21 51t21 50.5t51 21t51 -21t21 -50.5t-21.5 -51zM399 58.5q-21 -21.5 -51 -21.5t-51 21.5t-21 51t21 50.5t51 21t51 -21t21 -50.5t-21 -51zM607.5 58.5q-21.5 -21.5 -51 -21.5t-50.5 21.5t-21 51t21 50.5t50.5 21t51 -21
t21.5 -50.5t-21.5 -51z" />
    <glyph glyph-name="perthousand" unicode="&#x2030;" horiz-adv-x="1123" 
d="M272 47h-107l385 625h106zM136 510q0 -46 15 -72.5t41 -26.5t41 25.5t15 73.5q0 93 -57 93q-55 0 -55 -93zM93.5 628.5q34.5 45.5 99 45.5t98.5 -45.5t34 -116t-33 -117.5t-98 -47t-100 48.5t-35 117.5t34.5 114.5zM636 298q-55 0 -55 -92q0 -48 14.5 -74t40.5 -26
t41.5 25.5t15.5 71.5q0 95 -57 95zM637 369q65 0 98.5 -45.5t33.5 -116t-33 -117.5t-98 -47t-99.5 48t-34.5 117.5t34 115t99 45.5zM888 203q0 -45 15 -71t41 -26t41 25t15 72q0 95 -56 95t-56 -95zM845.5 323.5q34.5 45.5 99 45.5t98 -46t33.5 -116t-33 -117t-97.5 -47
t-99.5 48t-35 117.5t34.5 115z" />
    <glyph glyph-name="guilsinglleft" unicode="&#x2039;" horiz-adv-x="455" 
d="M109 360l176 198l46 -24l-118 -174l118 -174l-46 -26z" />
    <glyph glyph-name="guilsinglright" unicode="&#x203a;" horiz-adv-x="455" 
d="M168 605l176 -198l-176 -200l-46 26l118 174l-118 174z" />
    <glyph glyph-name="fraction" unicode="&#x2044;" horiz-adv-x="496" 
d="M430 721h54l-420 -712h-54z" />
    <glyph glyph-name="Euro" unicode="&#x20ac;" horiz-adv-x="579" 
d="M238 364l1 -37h197v-17t-12 -39h-178q30 -153 149 -153q59 0 117 45l24 -31q-76 -98 -180 -98q-89 0 -156.5 61.5t-88.5 175.5h-87q0 27 13 56h67q-1 12 -1 35.5t1 33.5h-82q0 29 12 56h76q20 116 88.5 179.5t161 63.5t171.5 -70l-19 -43q-55 28 -117 28
q-122 0 -149 -158h194v-17t-12 -39h-189z" />
    <glyph glyph-name="uni20B9" unicode="&#x20b9;" horiz-adv-x="557" 
d="M397 371q0 -63 -32 -101.5t-83 -52.5q-27 -10 -63 -13q40 -60 192 -221l-79 -45q-202 244 -270 347l48 46q35 -35 80.5 -35t73 25t27.5 66v21l-221 -2v89l221 -2v95l-222 -2v88h447l46 -88l-165 2v-95l122 2l43 -89l-165 2v-37z" />
    <glyph glyph-name="trademark" unicode="&#x2122;" horiz-adv-x="847" 
d="M323 682q3 -25 3 -48t-1 -40q-11 -3 -26 -3q-3 34 -13.5 47t-34.5 13h-38v-288q20 -6 43 -6q0 -20 -2 -28h-156q0 20 4 28q40 3 40 29v265h-39q-24 0 -34.5 -12.5t-13.5 -46.5q-12 -2 -26 2q-1 15 -1 36.5t3 51.5h292zM806 343q0 -7 -1 -14h-156q-2 14 0 28q42 4 42 29
l-6 234l-115 -291h-20l-105 294l-17 -261q17 -5 42 -5q-2 -20 -4 -28h-120q0 15 3 28q37 4 38 30l15 264q-12 4 -40 4q3 25 3 27h128l79 -230l91 230h119q3 -15 2 -27q-24 -4 -29.5 -11.5t-5.5 -18.5l15 -264q20 -4 41 -4q1 -7 1 -14z" />
    <glyph glyph-name="minus" unicode="&#x2212;" horiz-adv-x="647" 
d="M580 314h-468l-43 86v8h468l43 -87v-7z" />
    <glyph glyph-name="uni25CC" unicode="&#x25cc;" horiz-adv-x="660" 
d="M151.5 484.5q-12.5 12.5 -12.5 32t12.5 32t31.5 12.5t31.5 -12.5t12.5 -32t-12.5 -32t-31.5 -12.5t-31.5 12.5zM57 407q0 19 13 31.5t32 12.5t32 -12.5t13 -31.5t-13 -31.5t-32 -12.5t-32 12.5t-13 31.5zM44 281q0 19 12.5 32t31.5 13t31.5 -12.5t12.5 -32t-12.5 -31.5
t-31.5 -12t-31.5 12t-12.5 31zM96 165q0 19 12.5 31.5t31.5 12.5t31.5 -12.5t12.5 -31.5t-12.5 -31.5t-32 -12.5t-31.5 12.5t-12 31.5zM210 57q-13 13 -13 32t13 32t32 13t31.5 -13t12.5 -32t-12.5 -32t-31.5 -13t-32 13zM324 74q0 20 12 32t32 12t32.5 -12.5t12.5 -31.5
t-12.5 -31.5t-32.5 -12.5t-32 12t-12 32zM445 127q0 19 12.5 31.5t31.5 12.5t32 -12.5t13 -31.5t-13 -31.5t-32 -12.5t-31.5 12.5t-12.5 31.5zM518 225q0 19 13 32t31.5 13t31 -13t12.5 -32t-12.5 -31.5t-31 -12.5t-31.5 12.5t-13 31.5zM528 359q0 19 12 31.5t31.5 12.5
t32 -12.5t12.5 -31.5t-12.5 -31.5t-32 -12.5t-31.5 12.5t-12 31.5zM478 477q0 19 12.5 32t31.5 13t31.5 -12.5t12.5 -32t-12.5 -32t-31.5 -12.5t-31.5 12.5t-12.5 31.5zM396 514q-13 13 -13 31.5t12.5 31.5t32 13t31.5 -12.5t12 -31.5t-12.5 -32t-31 -13t-31.5 13zM257 560
q0 20 12.5 32t31.5 12t31.5 -12t12.5 -32t-12.5 -32t-31.5 -12t-31.5 12t-12.5 32z" />
    <glyph glyph-name="itfLogo" horiz-adv-x="1648" 
d="M147 0v634h196v-634h-196zM383 449v185h196v-185h-196zM619 0v634h196v-634h-196zM855 449v185h196v-185h-196zM1091 0v634h196v-634h-196zM1327 449v185h196v-185h-196zM1327 224v185h196v-185h-196z" />
    <glyph glyph-name="uni0915094D" horiz-adv-x="584" 
d="M574 403q-76 0 -122 -88v-315l-109 58l5 101q-39 -39 -88 -39q-73 0 -146 76.5t-73 156t44 118t103 38.5q39 0 73 -14l33 -99q-26 11 -63.5 11t-69 -25.5t-31.5 -68t28.5 -69t69.5 -26.5q78 0 116 84v286h-364l-60 87h684l60 -87h-212q-2 -30 -5 -121q42 38 90.5 38
t94 -32t78.5 -81l-47 -48q-33 59 -89 59z" />
    <glyph glyph-name="uni0916094D" horiz-adv-x="545" 
d="M266 588v-222q0 -96 -94 -112q33 -48 88 -81.5t116 -33.5q85 0 136 54q-77 9 -132 55.5t-55 121.5q0 56 40 94.5t102.5 38.5t115.5 -50q83 -68 83 -148t-44 -140.5t-103.5 -89t-121 -28.5t-117.5 25.5t-104.5 75.5t-80 93t-72.5 109l48 44q35 -36 62 -36t27 30v200h-180
l-60 87h645l60 -87h-359zM563 248q29 31 29 75t-26.5 69.5t-61 25.5t-56.5 -21.5t-22 -55.5q0 -46 41 -69.5t88 -23.5h8z" />
    <glyph glyph-name="uni0917094D" horiz-adv-x="278" 
d="M206 588v-298q0 -38 -8 -53.5t-27 -15.5q-37 0 -87 51t-50 88.5t67 37.5v190h-121l-63 87h381l64 -87h-156z" />
    <glyph glyph-name="uni0918094D" horiz-adv-x="374" 
d="M78 590l-51 -2h-47l-60 87h474l59 -87h-239q-24 -7 -41.5 -31.5t-17.5 -55.5t32 -60q25 6 56.5 6t65.5 -9l31 -100q-44 11 -78 11q-108 0 -108 -68q0 -33 27.5 -55.5t67.5 -22.5q95 0 189 125l61 -80q-92 -136 -199 -136q-89 0 -165 67t-76 146q0 65 65 98
q-70 47 -70 106q0 39 24 61z" />
    <glyph glyph-name="uni0919094D" horiz-adv-x="608" 
d="M130 -63q37 23 72 23t64.5 -12t49 -24.5t48 -43t38.5 -42.5t38 -49.5t30 -40.5l-50 -35q-3 3 -24 32.5t-33 43t-33 35.5q-41 40 -90 40q-26 0 -51 -12zM263 93q61 0 103.5 32t42.5 73q0 15 -9 25t-24.5 10t-61.5 -19t-74 -19q-57 0 -113.5 63.5t-56.5 124t34 91.5t96 31
h130v83h-357l-60 87h716l60 -87h-256v-183h-208q-72 0 -72 -59q0 -24 13 -40t35.5 -16t70.5 19t72 19q54 0 98.5 -59.5t44.5 -116t-55 -104.5t-134.5 -48t-150.5 50t-115 129l53 37q81 -123 178 -123zM466 336l78 79l80 -79l-78 -78z" />
    <glyph glyph-name="uni091A094D" horiz-adv-x="425" 
d="M499 588h-519l-54 87h519zM341 119q-70 0 -142 66.5t-72 141.5q0 20 11.5 40.5t28.5 31.5l-114 -4l-60 89h382l60 -88h-95q-54 -8 -87 -37.5t-33 -67.5t24.5 -58.5t60.5 -20.5q105 0 183 133l66 -84q-61 -80 -109.5 -111t-103.5 -31z" />
    <glyph glyph-name="uni091B094D" horiz-adv-x="708" 
d="M331 25q-98 0 -177 62t-79 146q0 48 37 79q-67 59 -67 113t40 84t111 30q34 0 84 -10l33 -96q-42 9 -78 9q-92 0 -92 -54q0 -24 31 -50q26 6 57.5 6t68.5 -8l38 -97q-41 9 -76.5 9t-63.5 -14.5t-28 -48.5t32 -53t80 -19q105 0 182 72q-113 100 -113 205q0 59 36 98.5
t87 39.5q67 0 115.5 -63.5t48.5 -141.5t-48 -152q10 -8 60 -42t59 -39l-50 -59q-69 50 -112 86q-92 -92 -216 -92zM788 588h-808l-60 87h808zM541 295.5q16 42.5 16 76.5q0 71 -42 71q-32 0 -51 -30t-19 -71q0 -55 62 -108q18 19 34 61.5z" />
    <glyph glyph-name="uni091C094D" horiz-adv-x="465" 
d="M545 588h-565l-60 87h565zM414 232q0 -56 -34 -90.5t-94 -34.5q-40 0 -76.5 20t-63 50.5t-51.5 76.5q-40 73 -75 175l57 33q77 -254 178 -254q33 0 51 18t18 51q0 66 -107 171l11 18h324l65 -95h-266q63 -57 63 -139z" />
    <glyph glyph-name="uni091D094D" horiz-adv-x="505" 
d="M425 588v-167h-212q-32 0 -53.5 -15.5t-21.5 -40.5t12 -39t34 -14t67.5 18.5t65 18.5t49.5 -4q68 -13 93 -13q73 0 124 62l60 -76q-70 -64 -132 -64q-31 0 -65 10q27 -38 27 -79q0 -56 -54 -99.5t-125 -58.5l126 -134l-69 -45l-138 179q-56 13 -106 52.5t-50 77.5
q0 22 19.5 38.5t43.5 16.5q33 0 106 -94q63 1 117 31t54 75q0 14 -9.5 23.5t-27.5 9.5t-62.5 -19t-70.5 -19q-52 0 -111 63.5t-59 121.5q0 111 128 111h135v73h-340l-60 87h605l59 -87h-159z" />
    <glyph glyph-name="uni091E094D" horiz-adv-x="522" 
d="M602 588h-622l-60 87h622zM538 270q-28 0 -56 18q0 -7 -2 -21q-6 -66 -52 -105t-109 -39q-90 0 -172 78q-69 66 -135 156l49 44q56 -76 91.5 -113.5t65 -52.5t60.5 -15q56 0 88 31t32 87q0 37 -22 60.5t-53 23.5q-58 0 -99 -55l-80 86q66 69 129 69q113 0 193 -156
q19 -8 42 -8t52 19t39 36l57 -74q-59 -69 -118 -69z" />
    <glyph glyph-name="uni091F094D" horiz-adv-x="518" 
d="M171 -36q37 23 72 23t64.5 -12t49 -24.5t48 -43t38.5 -42.5t38 -49.5t30 -40.5l-50 -35q-3 3 -24 32.5t-33 43t-34 34.5q-40 41 -89 41q-25 0 -51 -12zM427 588v-203h-147q-56 0 -92.5 -30.5t-36.5 -89t37 -90.5t94 -32q89 0 155 72l67 -90q-75 -81 -174.5 -81t-187 85.5
t-87.5 184.5q0 78 49.5 124t128.5 46h86v104h-339l-57 87h615l57 -87h-168z" />
    <glyph glyph-name="uni0920094D" horiz-adv-x="585" 
d="M161 -43q37 23 72 23t64.5 -12t49 -24.5t48 -43t38.5 -42.5t38 -49.5t30 -40.5l-50 -35q-3 3 -24 32.5t-33 43t-34 35.5q-40 40 -89 40q-25 0 -51 -12zM427 588v-164q54 -33 87.5 -85t33.5 -112q0 -84 -54 -135.5t-156 -51.5t-191.5 82.5t-89.5 193.5q0 79 46.5 123
t130.5 44h86v105h-340l-57 87h682l57 -87h-235zM453 261q0 81 -80 124h-95q-54 0 -90 -31t-36 -91t45.5 -99t110.5 -39t105 38.5t40 97.5z" />
    <glyph glyph-name="uni0921094D" horiz-adv-x="524" 
d="M144 -73q37 23 72 23t64.5 -12t49 -24.5t48 -43t38.5 -42.5t38 -49.5t30 -40.5l-50 -35q-3 3 -24 32.5t-33 43t-33 35.5q-41 40 -90 40q-26 0 -51 -12zM266 93q61 0 103 32t42 70t-34 38q-14 0 -60 -19t-74 -19q-57 0 -113.5 63t-56.5 132q0 53 33 80.5t96 27.5h131v90
h-350l-61 87h622l60 -87h-168v-183h-208q-73 0 -73 -59q0 -24 14.5 -42t37 -18t70.5 19.5t72 19.5q54 0 97 -56t43 -112t-55.5 -104t-135.5 -48t-150 48t-113 126l53 37q81 -123 178 -123z" />
    <glyph glyph-name="uni0922094D" horiz-adv-x="533" 
d="M195 -49q37 23 72 23t64.5 -12t49 -24.5t48 -43t38.5 -42.5t38 -49.5t30 -40.5l-50 -35q-3 3 -24 32.5t-33 43t-34 35.5q-40 40 -89 40q-25 0 -51 -12zM435 588v-196h-154q-61 0 -99 -32t-38 -92t42.5 -100.5t100.5 -43.5q-39 45 -39 94.5t32 83.5t81.5 34t97.5 -46.5
t48 -106.5t-51 -103t-119 -43t-131.5 35t-108.5 102.5t-45 144t46.5 123t128.5 46.5h100v100h-325l-60 87h611l60 -87h-178zM349 229q-20 -23 -20 -50.5t17 -47.5q35 10 60.5 35t25.5 55.5t-31.5 30.5t-51.5 -23z" />
    <glyph glyph-name="uni0923094D" horiz-adv-x="496" 
d="M428 588v-260q0 -68 -37 -108t-102 -40t-138 62q-41 33 -64.5 76t-23.5 83v187h-83l-60 87h596l60 -87h-148zM248 268q73 0 73 91v229h-151v-222q0 -44 21 -71t57 -27z" />
    <glyph glyph-name="uni0924094D" horiz-adv-x="329" 
d="M98.5 161.5q-41.5 85.5 -41.5 154.5t42 107.5t123 38.5h206l70 -103h-242q-50 0 -76.5 -28.5t-26.5 -77.5q0 -87 104 -215l-55 -38q-62 76 -103.5 161.5zM349 675l60 -87h-429l-60 87h429z" />
    <glyph glyph-name="uni0925094D" horiz-adv-x="435" 
d="M517 588h-76l-60 87h76zM356 129q-52 0 -112 34t-100 84t-40 94q0 21 19 32q9 5 37 19q69 36 101 59q69 46 69 90q0 26 -20 44t-47.5 18t-48 -18t-20.5 -46.5t27 -53.5l-48 -32q-65 62 -65 122q0 47 37 77.5t85 30.5q71 0 129.5 -64.5t58.5 -122.5q0 -57 -61 -103
q-33 -25 -65 -44t-36.5 -21.5t-9.5 -6.5t-6.5 -5t-6 -4.5t-6 -6t-3.5 -5.5q-5 -7 -5 -16q0 -27 27 -43.5t62 -16.5q95 0 190 114l63 -81q-101 -128 -205 -128z" />
    <glyph glyph-name="uni0926094D" horiz-adv-x="538" 
d="M202 -40q37 23 72 23t64.5 -12t49 -24.5t48 -43t38.5 -42.5t38 -49.5t30 -40.5l-50 -35q-3 3 -24 32.5t-33 43t-33 34.5q-41 41 -90 41q-26 0 -51 -12zM428 392h-150q-133 0 -133 -110q0 -54 36.5 -90t89.5 -36q38 0 58 16l7 5q-21 32 -21 61t24 49.5t55 20.5t62.5 -40.5
t31.5 -73.5t-43 -74l103 -123l-63 -43l-89 133q-39 -22 -84 -22q-92 0 -176.5 81.5t-84.5 181.5q0 72 45.5 117.5t135.5 45.5h89v97h-341l-53 87h631l53 -87h-183v-196z" />
    <glyph glyph-name="uni0927094D" horiz-adv-x="361" 
d="M81 590l-61 -2h-40l-60 87h330l60 -87h-92q-25 -7 -42 -31.5t-17 -53.5t34 -56q14 2 38 2t78 -8l32 -106q-51 14 -89 14t-67.5 -15.5t-29.5 -50t25.5 -56t66.5 -21.5q99 0 187 126l68 -84q-53 -69 -110.5 -99.5t-102.5 -30.5q-83 0 -155.5 65t-72.5 150q0 31 18.5 56.5
t48.5 39.5q-72 47 -72 100q0 38 25 61zM381 588l-60 87h74l60 -87h-74z" />
    <glyph glyph-name="uni0928094D" horiz-adv-x="297" 
d="M107 420h280l64 -96h-251v-82q0 -15 -8 -25t-23 -10q-36 0 -82.5 59t-46.5 102q0 52 67 52zM317 675l60 -87h-397l-60 87h397z" />
    <glyph glyph-name="uni092A094D" horiz-adv-x="295" 
d="M173 588v-208q0 -37 19 -57t51 -20q60 0 118 76l63 -80q-70 -89 -144 -89q-62 0 -138 71t-76 143v164h-86l-60 87h395l60 -87h-202z" />
    <glyph glyph-name="uni092B094D" horiz-adv-x="570" 
d="M574 381q-37 0 -71 -22t-55 -61v-298l-108 62l6 177q-37 -24 -73 -24q-61 0 -137 75t-76 146v152h-80l-59 87h669l60 -87h-203l-1 -140q40 31 87.5 31t92.5 -30t80 -76l-50 -41q-30 49 -82 49zM234 310q60 0 106 63v215h-173v-199q0 -36 18 -57.5t49 -21.5z" />
    <glyph glyph-name="uni092C094D" horiz-adv-x="353" 
d="M433 588h-453l-60 87h453zM263 134q-81 0 -151 67.5t-70 145t52.5 125t116.5 47.5q87 0 157 -79l-36 -48q-42 42 -88 42q-25 0 -53 -15l146 -157q22 16 60 67l59 -70q-88 -125 -193 -125zM156.5 243q30.5 -30 67 -30t68.5 18l-143 154q-23 -30 -23 -71t30.5 -71z" />
    <glyph glyph-name="uni092D094D" horiz-adv-x="333" 
d="M353 675l59 -87h-122l-60 87h123zM91 378h20v155q0 24 -14.5 39.5t-38.5 15.5h-78l-59 87h102q57 0 99 -37q24 -18 52 -46q41 -38 41 -100v-114h196l67 -100h-262v-60q0 -32 -30 -32q-34 0 -90 57t-56 96t51 39z" />
    <glyph glyph-name="uni092E094D" horiz-adv-x="352" 
d="M106 377h8v211h-134l-57 87h449l57 -87h-211v-211h204l65 -100h-269v-60q0 -32 -30 -32q-34 0 -90 55t-56 94q0 43 64 43z" />
    <glyph glyph-name="uni092F094D" horiz-adv-x="359" 
d="M289 529q19 -36 19 -60.5t-12.5 -43t-25 -27.5t-42 -28t-39 -25.5t-15.5 -10.5q-14 -11 -14 -23q0 -28 30 -48t63 -20q98 0 163 108l62 -82q-84 -126 -182 -126q-50 0 -110.5 40.5t-101.5 95.5t-41 95q0 22 20 31q85 43 112 65t27 41t-15 42t-38 35h-169l-60 87h459
l60 -87h-198q29 -23 48 -59z" />
    <glyph glyph-name="uni0930094D" horiz-adv-x="398" 
d="M84 -47q37 23 72 23t64.5 -12t49 -24.5t48 -43t38.5 -42.5t38 -49.5t30 -40.5l-50 -35q-3 3 -24 32.5t-33 43t-33 35.5q-41 40 -90 40q-26 0 -51 -12zM286 588v-233q0 -35 -24 -61t-70 -38q56 -79 189 -220l-72 -39q-176 213 -268 352l54 48q40 -38 60 -38q23 0 23 28
v201h-198l-60 87h498l59 -87h-191z" />
    <glyph glyph-name="uni0932094D" horiz-adv-x="506" 
d="M586 588h-606l-60 87h606zM594 343q-32 52 -84.5 52t-75.5 -34.5t-23 -86.5t20 -104l-96 32q-27 51 -27 98.5t10 72.5q-27 20 -68 20t-69.5 -31t-28.5 -90t44.5 -116t117.5 -117l-54 -39q-210 181 -210 321q0 72 46.5 120t120 48t129.5 -58q44 56 116 56q47 0 95 -33.5
t68 -73.5z" />
    <glyph glyph-name="uni0933094D" horiz-adv-x="757" 
d="M837 588h-857l-60 87h857zM496 507q88 0 157 -78t69 -152.5t-52.5 -130t-127 -55.5t-155.5 76q-49 -76 -121 -76t-144 77.5t-72 153t53 131t127 55.5t155 -78q50 77 111 77zM355 372q-45 40 -92 40t-82 -36.5t-35 -87.5t23 -76t58 -25t58 31.5t45.5 90.5t24.5 63z
M416 223q47 -39 93.5 -39t82 38t35.5 88t-23 76t-56 26q-45 0 -74 -54q-17 -31 -58 -135z" />
    <glyph glyph-name="uni0935094D" horiz-adv-x="348" 
d="M275 125q-79 0 -155 69.5t-76 151.5t51 131t117 49q36 0 69 -16t51 -32.5t39 -41.5l-29 -49q-42 44 -90 44t-80 -35t-32 -81.5t25 -72.5t66 -26t85 35t85 94l67 -86q-28 -46 -81.5 -90t-111.5 -44zM428 588h-448l-60 87h448z" />
    <glyph glyph-name="uni0936094D" horiz-adv-x="481" 
d="M212 338q68 0 109.5 40.5t41.5 108.5q0 42 -21.5 71t-54.5 29t-51 -19.5t-18 -51.5q0 -47 66 -79l-32 -45q-49 17 -93 61t-44 98.5t36.5 93.5t92.5 39q81 0 144 -79.5t63 -159t-45 -131.5q-61 -72 -171 -76q56 -67 182 -194l-69 -44q-219 250 -287 345l52 46
q55 -53 99 -53zM508 675l50 -87h-90l-50 87h90z" />
    <glyph glyph-name="uni0937094D" horiz-adv-x="319" 
d="M280 200q-68 0 -139 69t-76 145v174h-85l-60 87h419l59 -87h-218l271 -295q-87 -93 -171 -93zM250 284q58 0 99 43l-179 187v-148q0 -38 24 -60t56 -22z" />
    <glyph glyph-name="uni0938094D" horiz-adv-x="412" 
d="M263 588v-198q45 -40 105.5 -40t113.5 52l62 -76q-65 -71 -137 -71t-152 62q-15 -48 -79 -60q67 -98 181 -216l-73 -42q-163 197 -264 350l53 48q41 -38 60 -38q23 0 23 28v201h-176l-60 87h512l60 -87h-229z" />
    <glyph glyph-name="uni0939094D" horiz-adv-x="497" 
d="M315 241q-54 0 -97 -31.5t-43 -83.5q0 -37 25.5 -75.5t65.5 -69.5q70 -53 136 -85l-58 -43q-68 38 -158 113q-51 42 -82.5 92.5t-31.5 98.5q0 71 58 124q-72 69 -72 134q0 46 30 70t85 24h154v79h-347l-60 87h597l60 -87h-145v-173h-201q-71 0 -71 -48q0 -24 26 -52
q41 19 84 19h293l65 -93h-313z" />
    <glyph glyph-name="uni0915093C094D" horiz-adv-x="584" 
d="M574 403q-76 0 -122 -88v-315l-109 58l5 101q-39 -39 -88 -39q-73 0 -146 76.5t-73 156t44 118t103 38.5q39 0 73 -14l33 -99q-26 11 -63.5 11t-69 -25.5t-31.5 -68t28.5 -69t69.5 -26.5q78 0 116 84v286h-364l-60 87h684l60 -87h-212q-2 -30 -5 -121q42 38 90.5 38
t94 -32t78.5 -81l-47 -48q-33 59 -89 59zM144 -13l77 79l81 -79l-79 -77z" />
    <glyph glyph-name="uni0916093C094D" horiz-adv-x="545" 
d="M266 588v-222q0 -96 -94 -112q33 -48 88 -81.5t116 -33.5q85 0 136 54q-77 9 -132 55.5t-55 121.5q0 56 40 94.5t102.5 38.5t115.5 -50q83 -68 83 -148t-44 -140.5t-103.5 -89t-121 -28.5t-117.5 25.5t-104.5 75.5t-80 93t-72.5 109l48 44q35 -36 62 -36t27 30v200h-180
l-60 87h645l60 -87h-359zM563 248q29 31 29 75t-26.5 69.5t-61 25.5t-56.5 -21.5t-22 -55.5q0 -46 41 -69.5t88 -23.5h8zM59 -13l77 79l81 -79l-79 -77z" />
    <glyph glyph-name="uni0917093C094D" horiz-adv-x="278" 
d="M206 588v-298q0 -38 -8 -53.5t-27 -15.5q-37 0 -87 51t-50 88.5t67 37.5v190h-121l-63 87h381l64 -87h-156zM70 -15l77 79l81 -79l-79 -77z" />
    <glyph glyph-name="uni091C093C094D" horiz-adv-x="465" 
d="M3 24l77 79l81 -79l-79 -77zM545 588h-565l-60 87h565zM414 232q0 -56 -34 -90.5t-94 -34.5q-40 0 -76.5 20t-63 50.5t-51.5 76.5q-40 73 -75 175l57 33q77 -254 178 -254q33 0 51 18t18 51q0 66 -107 171l11 18h324l65 -95h-266q63 -57 63 -139z" />
    <glyph glyph-name="uni0928093C094D" horiz-adv-x="317" 
d="M77 10l78 78l80 -78l-78 -78zM103 420h280l64 -96h-251v-82q0 -15 -8 -25t-23 -10q-36 0 -82.5 59t-46.5 102q0 52 67 52zM313 675l60 -87h-397l-60 87h397z" />
    <glyph glyph-name="uni092B093C094D" horiz-adv-x="570" 
d="M574 381q-37 0 -71 -22t-55 -61v-298l-108 62l6 177q-37 -24 -73 -24q-61 0 -137 75t-76 146v152h-80l-59 87h669l60 -87h-203l-1 -140q40 31 87.5 31t92.5 -30t80 -76l-50 -41q-30 49 -82 49zM234 310q60 0 106 63v215h-173v-199q0 -36 18 -57.5t49 -21.5zM108 53l77 79
l81 -79l-79 -77z" />
    <glyph glyph-name="uni092F093C094D" horiz-adv-x="359" 
d="M289 529q19 -36 19 -60.5t-12.5 -43t-25 -27.5t-42 -28t-39 -25.5t-15.5 -10.5q-14 -11 -14 -23q0 -28 30 -48t63 -20q98 0 163 108l62 -82q-84 -126 -182 -126q-50 0 -110.5 40.5t-101.5 95.5t-41 95q0 22 20 31q85 43 112 65t27 41t-15 42t-38 35h-169l-60 87h459
l60 -87h-198q29 -23 48 -59zM26 49l77 79l81 -79l-79 -77z" />
    <glyph glyph-name="itfStar" horiz-adv-x="667" 
 />
    <glyph glyph-name="uni09080902" horiz-adv-x="544" 
d="M446 775l60 60l61 -60l-60 -60zM475 880q-42 0 -71 -25.5t-29 -77.5t52 -102h116l59 -87h-164v-184h-226q-32 0 -53 -18.5t-21 -44t11.5 -39t34.5 -13.5t73 17.5t74 17.5q56 0 105.5 -54.5t49.5 -112t-57.5 -102.5t-131.5 -56l122 -132l-69 -46l-134 176
q-57 14 -107.5 53t-50.5 76q0 21 20 37.5t44 16.5q34 0 103 -89h4q61 0 120.5 30t59.5 76q0 15 -8.5 26t-22.5 11t-65 -19.5t-87 -19.5q-52 0 -111 66.5t-59 124.5t37 88t91 30h149v84h-343l-60 87h425q-64 71 -64 152q0 59 39.5 94t100 35t111.5 -38l-24 -45q-21 7 -43 7z
" />
    <glyph glyph-name="uni09300941" horiz-adv-x="584" 
d="M286 588v-130l108 5q61 0 118 -72.5t57 -130.5t-43.5 -105.5t-91.5 -66.5l-76 89q50 16 90 49t40 71q0 66 -97 66h-14l-91 -11q-5 -73 -94 -96q56 -79 189 -220l-72 -39q-176 213 -268 352l54 48q40 -38 60 -38q23 0 23 28v201h-198l-60 87h684l59 -87h-377z" />
    <glyph glyph-name="uni09300942" horiz-adv-x="686" 
d="M286 588v-233q0 -35 -24 -61t-70 -38q56 -79 189 -220l-72 -39q-176 213 -268 352l54 48q40 -38 60 -38q23 0 23 28v201h-198l-60 87h786l60 -87h-480zM418 170q59 0 101 22q63 33 63 110q0 38 -24 70.5t-60 32.5t-54 -18t-18 -45q0 -41 38 -71l-34 -39q-91 64 -91 140
q0 45 34 78.5t92 33.5q72 0 132.5 -71t60.5 -154t-69 -132q-55 -39 -128 -39q-19 0 -40 3l-65 82l2 2q32 -5 60 -5z" />
    <glyph glyph-name="uni09390941" horiz-adv-x="510" 
d="M328 -61q57 0 108.5 -57t51.5 -110.5t-43.5 -96t-119.5 -42.5t-150 51t-127 123l47 35q100 -122 193 -122q49 0 83 27t34 65q0 19 -11 31.5t-33 12.5t-38.5 -24t-18.5 -60l-82 49v9q0 50 32 81q-180 127 -180 243q0 70 58 125q-74 71 -74 136q0 46 30 70t85 24h150v79
h-333l-60 87h600l60 -87h-162v-173h-197q-71 0 -71 -48q0 -26 27 -53q42 20 83 20q84 0 139 -58.5t55 -127.5q0 -38 -24 -72.5t-72 -56.5l-77 82q42 17 64.5 45.5t22.5 50.5q0 45 -57 45t-101.5 -35t-44.5 -88q0 -90 148 -180h5z" />
    <glyph glyph-name="uni09390942" horiz-adv-x="510" 
d="M355.5 146.5q22.5 28.5 22.5 50.5q0 45 -57 45t-101.5 -35t-44.5 -88q0 -87 137 -173q131 -27 262 -237l-45 -40q-124 187 -225 187q-34 0 -61.5 -22t-27.5 -59q0 -22 13.5 -35.5t34.5 -13.5q48 0 61 75l86 -53q-19 -105 -111 -105q-59 0 -116 57t-57 116q0 43 24.5 76
t64.5 48q-141 113 -141 214q0 70 58 125q-74 71 -74 136q0 46 30 70t85 24h150v79h-333l-60 87h600l60 -87h-162v-173h-197q-71 0 -71 -48q0 -26 27 -53q42 20 83 20q84 0 139 -58.5t55 -127.5q0 -38 -24 -72.5t-72 -56.5l-77 82q42 17 64.5 45.5z" />
    <glyph glyph-name="uni09260943" horiz-adv-x="487" 
d="M266 4q-83 0 -151.5 67.5t-68.5 137.5q0 58 63 83q-26 20 -49 55.5t-23 75t33 62.5t73 23h123v80h-286l-60 87h558l59 -87h-163v-164h-166q-73 0 -73 -50q0 -16 10.5 -34.5t26.5 -30.5q27 5 61.5 5t65.5 -9l31 -88q-28 8 -73 8t-80.5 -16t-35.5 -50t23 -55t64 -21
t91.5 22.5t87.5 60.5l60 -62q-36 -43 -88.5 -71.5t-112.5 -28.5z" />
    <glyph glyph-name="uni09390943" horiz-adv-x="568" 
d="M480 178q0 -27 -67 -64q-25 -13 -46 -32t-21 -40t17.5 -33.5t44.5 -12.5q64 0 121 55l64 -58q-66 -70 -150 -70q-61 0 -119 52t-58 109q0 19 12.5 37t25 28t39 27t26.5 29t-18 19.5t-44 7.5q-54 0 -102.5 -35t-48.5 -96q0 -43 27.5 -85.5t70.5 -75.5q68 -52 127 -83
l-56 -40q-49 25 -102.5 68t-84.5 78t-54.5 85t-23.5 99q0 74 66 126q-81 75 -81 142q0 46 30 70t85 24h155v79h-340l-60 87h673l60 -87h-228v-173h-201q-72 0 -72 -48q0 -32 37 -61q52 21 107 21t122 -48t67 -101z" />
    <glyph glyph-name="uni094D0928.post" horiz-adv-x="262" 
d="M79 588h-99l-63 87h369l64 -87h-163v-588l-108 69v146l-121 -113q38 -51 41.5 -56t3.5 -15q0 -26 -46 -26t-91 23t-45 58q0 20 30 46l228 184v272z" />
    <glyph glyph-name="uni094D092F.post" horiz-adv-x="553" 
d="M36 504q71 0 143 -51t72 -94q0 -31 -90 -96q-31 -23 -31 -41.5t17 -31t42 -12.5q51 0 103 43.5t75 86.5v280h-391l-64 87h661l57 -87h-155v-588l-108 64l4 98q-62 -69 -132.5 -69t-146 61t-75.5 119q0 22 22 34q86 46 95.5 58.5t9.5 17.5q0 22 -68 22h-179l-55 99h194z
" />
    <glyph glyph-name="uni094D0930.post" horiz-adv-x="259" 
d="M79 588h-99l-63 87h369l64 -87h-163v-589l-108 69v119l-185 -185l-79 55l264 237v294z" />
    <glyph glyph-name="uni094D0930" 
d="M-332 -141l-85 68l159 154h92l169 -184l-57 -38l-134 165z" />
    <glyph glyph-name="uni0930094D.1" horiz-adv-x="190" 
d="M340 588h-360l-60 87h360zM-7 409q59 -47 133.5 -47t153.5 56l56 -92q-83 -58 -182 -58t-196 97z" />
    <glyph glyph-name="uni0930094D.2" 
d="M-53 880q-42 0 -71 -25.5t-29 -71.5q0 -64 64 -119l-50 -20q-39 28 -68.5 80t-29.5 107t39.5 90t100 35t111.5 -38l-24 -45q-21 7 -43 7z" />
    <glyph glyph-name="uni0930094D0902" 
d="M-104 775l56 56l57 -56l-56 -56zM-53 880q-42 0 -71 -25.5t-29 -71.5q0 -64 64 -119l-50 -20q-39 28 -68.5 80t-29.5 107t39.5 90t100 35t111.5 -38l-24 -45q-21 7 -43 7z" />
    <glyph glyph-name="uni0930094D.aMatraI" 
d="M82 897q-52 0 -82.5 -37t-30.5 -90.5t31 -96.5l-39 -29q-32 32 -53 79.5t-21 104.5t43 101.5t104 44.5t115 -38l-24 -45q-22 6 -43 6z" />
    <glyph glyph-name="uni0902.aMatraI" 
d="M-34 833l77 79l80 -79l-78 -77z" />
    <glyph glyph-name="uni0930094D0902.aMatraI" 
d="M20 787l59 60l61 -60l-59 -59zM82 897q-52 0 -82.5 -37t-30.5 -90.5t31 -96.5l-39 -29q-32 32 -53 79.5t-21 104.5t43 101.5t104 44.5t115 -38l-24 -45q-22 6 -43 6z" />
    <glyph glyph-name="uni09400930094D" horiz-adv-x="266" 
d="M187 588v-588l-108 71v517h-108l-61 87h186q-38 78 -67.5 115t-58 53t-59.5 16t-50 -14.5t-19 -39.5q0 -44 44 -67l-56 -33q-32 16 -60 49t-28 81.5t38 82t97 33.5q106 0 192 -131v14q0 57 32 89.5t87.5 32.5t106.5 -38l-24 -45q-23 9 -47 9q-93 0 -93 -94q0 -52 36 -113
h128l60 -87h-168z" />
    <glyph glyph-name="uni09400902" horiz-adv-x="279" 
d="M187 588v-588l-108 71v517h-108l-61 87h186q-38 78 -67.5 115t-58 53t-59.5 16t-50 -14.5t-19 -39.5q0 -44 44 -67l-56 -33q-32 16 -60 49t-28 81.5t38 82t94 33.5t103.5 -27t84.5 -75t59 -86t46 -88h128l60 -87h-168zM163 819l77 79l80 -79l-78 -77z" />
    <glyph glyph-name="uni09400930094D0902" horiz-adv-x="266" 
d="M189 773l57 58l59 -58l-57 -57zM187 588v-588l-108 71v517h-108l-61 87h186q-38 78 -67.5 115t-58 53t-59.5 16t-50 -14.5t-19 -39.5q0 -44 44 -67l-56 -33q-32 16 -60 49t-28 81.5t38 82t97 33.5q106 0 192 -131v14q0 57 32 89.5t87.5 32.5t106.5 -38l-24 -45
q-23 9 -47 9q-93 0 -93 -94q0 -52 36 -113h128l60 -87h-168z" />
    <glyph glyph-name="uni0940.aLong" horiz-adv-x="279" 
d="M187 588v-588l-108 71v517h-99l-60 87h173q-53 70 -146 127t-169.5 57t-76.5 -59q0 -20 13.5 -36.5t30.5 -25.5l-56 -33q-32 16 -60 49t-28 81.5t39.5 82t103.5 33.5q108 0 225 -81.5t198 -194.5h119l60 -87h-159z" />
    <glyph glyph-name="uni09400930094D.aLong" horiz-adv-x="279" 
d="M219 880q-42 0 -71 -25.5t-29 -78t50 -101.5h117l60 -87h-159v-588l-108 71v517h-99l-60 87h173q-53 70 -146 127t-169.5 57t-76.5 -59q0 -20 13.5 -36.5t30.5 -25.5l-56 -33q-32 16 -60 49t-28 81.5t39.5 82t103.5 33.5q131 0 300 -148q-1 58 24 90q26 63 103 63
q64 0 115 -38l-24 -45q-21 7 -43 7z" />
    <glyph glyph-name="uni09400902.aLong" horiz-adv-x="279" 
d="M187 588v-588l-108 71v517h-99l-60 87h173q-53 70 -146 127t-169.5 57t-76.5 -59q0 -20 13.5 -36.5t30.5 -25.5l-56 -33q-32 16 -60 49t-28 81.5t39.5 82t103.5 33.5q108 0 225 -81.5t198 -194.5h119l60 -87h-159zM142 813l77 79l80 -79l-78 -77z" />
    <glyph glyph-name="uni09400930094D0902.aLong" horiz-adv-x="279" 
d="M181 774l57 57l58 -57l-57 -57zM219 880q-42 0 -71 -25.5t-29 -78t50 -101.5h117l60 -87h-159v-588l-108 71v517h-99l-60 87h173q-53 70 -146 127t-169.5 57t-76.5 -59q0 -20 13.5 -36.5t30.5 -25.5l-56 -33q-32 16 -60 49t-28 81.5t39.5 82t103.5 33.5q131 0 300 -148
q-1 58 24 90q26 63 103 63q64 0 115 -38l-24 -45q-21 7 -43 7z" />
    <glyph glyph-name="uni09470930094D" 
d="M-46 880q-42 0 -70 -24.5t-28 -76.5t51 -142l-55 -28q-64 128 -97 163q-16 17 -39.5 32t-49.5 15t-62 -24l-66 94q53 32 99 32q36 0 57.5 -14.5t31 -21.5t24.5 -24.5t19.5 -23t19 -26t15.5 -21.5q-6 27 -6 60t20 62q31 44 91.5 44t111.5 -38l-24 -45q-21 7 -43 7z" />
    <glyph glyph-name="uni09470902" 
d="M-473 889q53 32 92.5 32t69.5 -11t55.5 -35t44.5 -46t40 -59q47 -82 67 -133l-55 -28q-64 128 -97 163q-16 17 -39.5 32t-49.5 15t-62 -24zM-145 833l77 79l80 -79l-78 -77z" />
    <glyph glyph-name="uni09470901" 
d="M-463 889q53 32 92.5 32t69.5 -11t55.5 -35t44.5 -46t40 -59q47 -82 67 -133l-55 -28q-64 128 -97 163q-16 17 -39.5 32t-49.5 15t-62 -24zM-58 980l77 79l81 -79l-78 -78zM13 822q84 0 146 119l80 -62q-36 -65 -79 -104t-108 -39q-127 0 -233 163l47 34q23 -33 40.5 -54
t46.5 -39t60 -18z" />
    <glyph glyph-name="uni09470930094D0902" 
d="M-100 773l53 53l55 -53l-54 -53zM-46 880q-42 0 -70 -24.5t-28 -76.5t51 -142l-55 -28q-64 128 -97 163q-16 17 -39.5 32t-49.5 15t-62 -24l-66 94q53 32 99 32q36 0 57.5 -14.5t31 -21.5t24.5 -24.5t19.5 -23t19 -26t15.5 -21.5q-6 27 -6 60t20 62q31 44 91.5 44
t111.5 -38l-24 -45q-21 7 -43 7z" />
    <glyph glyph-name="uni09480930094D" 
d="M-390 966q31 14 74 14t84.5 -42.5t66.5 -110.5q-1 62 31 96.5t79 34.5t101 -40l-24 -45q-21 7 -42 7q-47 0 -73 -29.5t-26 -72t26 -148.5l-65 -14q-15 29 -47 62t-63 49t-62 16t-64 -18l-67 85q37 26 92 26t118 -46.5t105 -114.5q-76 212 -165 212q-19 0 -37 -7z" />
    <glyph glyph-name="uni09480902" 
d="M-390 966q32 14 72 14t76 -26t60 -63.5t44 -88.5q30 -79 46 -172l-65 -14q-29 54 -91 98q-41 29 -77 29t-69 -18l-67 85q37 26 92 26t118.5 -47t105.5 -114q-81 212 -166 212q-19 0 -37 -7zM-99 833l77 79l80 -79l-78 -77z" />
    <glyph glyph-name="uni09480901" 
d="M-390 966q32 14 72 14t76 -26t60 -63.5t44 -88.5q30 -79 46 -172l-65 -14q-29 54 -91 98q-41 29 -77 29t-69 -18l-67 85q37 26 92 26t118.5 -47t105.5 -114q-81 212 -166 212q-19 0 -37 -7zM-11 980l77 79l81 -79l-78 -78zM60 822q84 0 146 119l80 -62q-36 -65 -79 -104
t-108 -39q-127 0 -233 163l47 34q23 -33 40.5 -54t46.5 -39t60 -18z" />
    <glyph glyph-name="uni09480930094D0902" 
d="M-78 775l53 53l54 -53l-53 -53zM-390 966q31 14 74 14t84.5 -42.5t66.5 -110.5q-1 62 31 96.5t79 34.5t101 -40l-24 -45q-21 7 -42 7q-47 0 -73 -29.5t-26 -72t26 -148.5l-65 -14q-15 29 -47 62t-63 49t-62 16t-64 -18l-67 85q37 26 92 26t118 -46.5t105 -114.5
q-76 212 -165 212q-19 0 -37 -7z" />
    <glyph glyph-name="uni094A0902" horiz-adv-x="289" 
d="M203 588v-588l-108 67v521h-111l-47 87h170q-16 39 -46 57.5t-95 18.5h-46q-99 0 -142 45q-23 24 -36.5 48t-30.5 65l49 35q23 -54 36 -67q30 -31 116 -31h42q113 0 162 -52q25 -26 38 -53t24 -66h133l46 -87h-154zM170 813l78 79l80 -79l-78 -78z" />
    <glyph glyph-name="uni094B0930094D" horiz-adv-x="279" 
d="M197 588v-588l-108 67v521h-111l-47 87h167q-76 144 -148 144q-30 0 -65 -24l-67 94q54 32 99 32q38 0 58.5 -14.5t30.5 -21t25 -24.5t19.5 -23.5t19.5 -27t16 -22.5q-6 28 -6 61.5t20 62.5q29 44 89.5 44t111.5 -38l-24 -45q-20 7 -42 7q-42 0 -70 -24.5t-28 -70.5
t30 -110h138l46 -87h-154z" />
    <glyph glyph-name="uni094B0902" horiz-adv-x="279" 
d="M197 588v-588l-108 67v521h-111l-47 87h163q-76 144 -149 144q-29 0 -65 -24l-66 94q53 32 99 32t85.5 -21.5t71.5 -62.5q52 -68 95 -162h140l46 -87h-154zM166 813l77 79l81 -79l-78 -78z" />
    <glyph glyph-name="uni094B0930094D0902" horiz-adv-x="279" 
d="M197 588v-588l-108 67v521h-111l-47 87h163q-76 144 -149 144q-29 0 -65 -24l-66 94q53 32 99 32q79 0 151 -102q-2 13 -2 25q0 51 31.5 81.5t90.5 30.5t110 -38l-24 -45q-21 7 -43 7q-47 0 -73 -26t-26 -74.5t37 -104.5h140l46 -87h-154zM175 772l56 56l57 -56l-57 -56z
" />
    <glyph glyph-name="uni094C0930094D" horiz-adv-x="279" 
d="M197 588v-588l-108 67v521h-102l-47 87h135q-61 68 -128 68q-31 0 -64 -18l-68 85q38 26 93 26t118 -47t105 -114q-76 212 -165 212q-19 0 -37 -7l-42 86q31 14 73.5 14t84.5 -42.5t67 -110.5q-1 62 31 96.5t79 34.5t101 -40l-24 -45q-21 7 -43 7q-46 0 -72 -29.5
t-26 -73.5t15 -102h123l46 -87h-145z" />
    <glyph glyph-name="uni094C0902" horiz-adv-x="279" 
d="M197 588v-588l-108 67v521h-102l-47 87h138q-61 68 -128 68q-31 0 -64 -18l-68 85q38 26 93 26t118 -47t105 -114q-76 212 -165 212q-19 0 -37 -7l-42 86q31 14 68.5 14t70.5 -20.5t56 -52t43 -74.5q31 -70 51 -158h117l46 -87h-145zM179 815l77 79l80 -79l-78 -77z" />
    <glyph glyph-name="uni094C0930094D0902" horiz-adv-x="266" 
d="M187 588v-588l-108 67v521h-102l-47 87h130q-61 68 -127 68q-32 0 -65 -18l-67 85q37 26 92 26t118.5 -47t105.5 -114q-81 212 -166 212q-19 0 -37 -7l-42 86q32 14 74.5 14t84 -42.5t66.5 -110.5q-1 62 31 96.5t79 34.5t101 -40l-24 -45q-21 7 -42 7q-46 0 -72.5 -29.5
t-26.5 -73.5t15 -102h128l47 -87h-146zM185 773l53 53l55 -53l-54 -53z" />
    <glyph glyph-name="uni0915094D0937" horiz-adv-x="722" 
d="M643 588v-588l-108 63v245q-44 -21 -88 -21q-105 0 -199 63l-26 -18q-25 -19 -34 -27.5t-27 -26.5q-33 -33 -33 -72.5t29.5 -65.5t71 -26t64.5 18q-20 31 -20 54t19.5 38.5t44.5 15.5t51 -35t26 -64.5t-22 -51.5l104 -118l-69 -51l-89 134q-34 -20 -80 -20
q-78 0 -147.5 67.5t-69.5 140.5q0 25 8 45t31 43q33 34 95 81q-31 25 -57.5 67.5t-26.5 90.5t38.5 83t100.5 35t113.5 -50t51.5 -113q0 -46 -95 -133q42 -22 88.5 -22t85 16t61.5 39v164h-80l-60 87h347l60 -87h-159zM301.5 602.5q-17.5 15.5 -49.5 15.5t-56 -23.5
t-24 -56.5q0 -55 52 -88q95 65 95 110q0 27 -17.5 42.5z" />
    <glyph glyph-name="uni0915094D0937094D" horiz-adv-x="492" 
d="M623 367q-81 -80 -181 -80t-194 63l-26 -18q-25 -19 -34 -27.5t-27 -26.5q-33 -33 -33 -72.5t29.5 -65.5t71 -26t64.5 18q-20 31 -20 54t19.5 38.5t44.5 15.5t51 -35t26 -64.5t-22 -51.5l104 -118l-69 -51l-89 134q-34 -20 -80 -20q-78 0 -147.5 67.5t-69.5 140.5
q0 25 8 45t31 43q33 34 95 81q-31 25 -57.5 67.5t-26.5 90.5t38.5 83t100.5 35t113.5 -50t51.5 -113q0 -46 -95 -133q42 -22 97 -22q93 0 173 86zM319 560q0 27 -17.5 42.5t-49.5 15.5t-56 -23.5t-24 -56.5q0 -55 52 -88q95 65 95 110zM572 588h-117l-60 87h117z" />
    <glyph glyph-name="uni0915094D0937094D092E" horiz-adv-x="1048" 
d="M861 377v211h-191v-211h191zM319 560q0 27 -17.5 42.5t-49.5 15.5t-56 -23.5t-24 -56.5q0 -55 52 -88q95 65 95 110zM969 588v-588l-108 67v210h-191v-59q0 -32 -30 -32q-20 0 -52.5 23t-58.5 54q-27 -5 -48 -5q-112 0 -233 92l-26 -18q-25 -19 -34 -27.5t-27 -26.5
q-33 -33 -33 -72.5t29.5 -65.5t71 -26t64.5 18q-20 31 -20 54t19.5 38.5t44.5 15.5t51 -35t26 -64.5t-22 -51.5l104 -118l-69 -51l-89 134q-34 -20 -80 -20q-78 0 -147.5 67.5t-69.5 140.5q0 25 8 45t31 43q33 34 95 81q-31 25 -57.5 67.5t-26.5 90.5t38.5 83t100.5 35
t113.5 -50t51.5 -113q0 -46 -95 -133q68 -42 141 -42q31 0 59 7q14 21 59 21h7v211h-131l-57 87h690l57 -87h-156z" />
    <glyph glyph-name="uni0915094D0937094D092E094D" horiz-adv-x="811" 
d="M320 560q0 26 -17.5 42t-50 16t-56 -23.5t-23.5 -56.5q0 -56 52 -88q95 65 95 110zM677 277v-60q0 -32 -30 -32q-21 0 -54 23.5t-58 55.5q-25 -6 -53 -6q-112 0 -233 92q-1 -1 -21.5 -15.5t-28 -20.5t-24.5 -21.5t-25 -26.5q-21 -32 -21 -65.5t29.5 -60t71.5 -26.5t63 18
q-19 29 -19 53t19.5 39.5t44.5 15.5t51 -35t26 -65t-23 -51l104 -118l-68 -51l-90 134q-32 -20 -79 -20q-78 0 -147.5 67.5t-69.5 140.5q0 25 8 45t30 43q34 34 96 81q-32 24 -58.5 67t-26.5 91t39 83t100.5 35t113 -50t51.5 -113q0 -48 -95 -133q69 -42 142 -42q33 0 66 9
q15 19 57 19h8v211h-134l-57 87h449l57 -87h-211v-211h204l65 -100h-269z" />
    <glyph glyph-name="uni0915094D0937094D092E094D092F" horiz-adv-x="1375" 
d="M1189 588h-178q29 -23 48 -59t19 -60.5t-12.5 -43t-25 -27.5t-42 -28t-39 -25.5t-15.5 -10.5q-14 -11 -14 -23q0 -28 30 -48t63 -20q101 0 166 111v234zM673 588v-211h140q1 19 20 28q85 43 112 65t27 41t-15 42t-38 35h-246zM319 560q0 27 -17.5 42.5t-49.5 15.5
t-56 -23.5t-24 -56.5q0 -55 52 -88q95 65 95 110zM1296 588v-588l-108 67l4 135q-59 -59 -126 -59q-49 0 -108.5 40t-101.5 94h-183v-60q0 -32 -30 -32q-23 0 -61 29t-63 65q-24 -7 -66.5 -7t-101.5 22t-103 56l-26 -18q-25 -19 -34 -27.5t-27 -26.5q-33 -33 -33 -72.5
t29.5 -65.5t71 -26t64.5 18q-20 31 -20 54t19.5 38.5t44.5 15.5t51 -35t26 -64.5t-22 -51.5l104 -118l-69 -51l-89 134q-34 -20 -80 -20q-78 0 -147.5 67.5t-69.5 140.5q0 25 8 45t31 43q33 34 95 81q-31 25 -57.5 67.5t-26.5 90.5t38.5 83t100.5 35t113.5 -50t51.5 -113
q0 -46 -95 -133q58 -36 124 -36q42 0 81.5 21t63.5 46v166h-134l-57 87h1017l60 -87h-159z" />
    <glyph glyph-name="uni0915094D0937094D092F" horiz-adv-x="1074" 
d="M888 588h-178q29 -23 48 -59t19 -60.5t-12.5 -43t-25 -27.5t-42 -28t-39 -25.5t-14.5 -10.5q-15 -11 -15 -23q0 -28 30 -48t63 -20q101 0 166 111v234zM319 560q0 27 -17.5 42.5t-49.5 15.5t-56 -23.5t-24 -56.5q0 -55 52 -88q95 65 95 110zM995 588v-588l-108 67l4 135
q-59 -59 -119 -59t-124 45.5t-104 103.5q-38 -13 -82 -13q-106 0 -214 71l-26 -18q-25 -19 -34 -27.5t-27 -26.5q-33 -33 -33 -72.5t29.5 -65.5t71 -26t64.5 18q-20 31 -20 54t19.5 38.5t44.5 15.5t51 -35t26 -64.5t-22 -51.5l104 -118l-69 -51l-89 134q-34 -20 -80 -20
q-78 0 -147.5 67.5t-69.5 140.5q0 25 8 45t31 43q33 34 95 81q-31 25 -57.5 67.5t-26.5 90.5t38.5 83t100.5 35t113.5 -50t51.5 -113q0 -46 -95 -133q50 -24 105 -24t109 20q3 10 18 18q85 43 112 65t27 41t-15 42t-38 35h-169l-60 87h705l60 -87h-159z" />
    <glyph glyph-name="uni0915094D0937094D0935" horiz-adv-x="1056" 
d="M319 560q0 27 -17.5 42.5t-49.5 15.5t-56 -23.5t-24 -56.5q0 -55 52 -88q95 65 95 110zM977 588v-588l-110 72l5 119q-64 -66 -132 -66t-132 52t-86 124q-39 -14 -75 -14q-105 0 -199 63l-26 -18q-25 -19 -34 -27.5t-27 -26.5q-33 -33 -33 -72.5t29.5 -65.5t71 -26
t64.5 18q-20 31 -20 54t19.5 38.5t44.5 15.5t51 -35t26 -64.5t-22 -51.5l104 -118l-69 -51l-89 134q-34 -20 -80 -20q-78 0 -147.5 67.5t-69.5 140.5q0 25 8 45t31 43q33 34 95 81q-31 25 -57.5 67.5t-26.5 90.5t38.5 83t100.5 35t113.5 -50t51.5 -113q0 -46 -95 -133
q42 -22 101 -22t122 45q17 51 59 81t91 30q89 0 164 -89l-30 -49q-40 42 -87 42t-79.5 -38.5t-32.5 -81.5t23 -68t64.5 -25t89.5 37t85 94l-3 241h-416l-60 87h685l60 -87h-159z" />
    <glyph glyph-name="uni091C094D091E" horiz-adv-x="735" 
d="M548 371h-182q67 -69 67 -154q0 -57 -39.5 -96t-100.5 -39q-25 0 -41 5l76 -124l-66 -43q-106 215 -107 216q-46 37 -78 78.5t-32 65t15.5 41.5t30.5 18t24.5 -8t22 -28t20 -34t23.5 -47t22 -45q17 -14 58.5 -14t65 24.5t23.5 67.5q0 77 -118 193l12 18h304v122h-568
l-60 87h835l60 -87h-159v-588l-108 66v305z" />
    <glyph glyph-name="uni091C094D091E094D" horiz-adv-x="498" 
d="M578 588h-598l-60 87h598zM433 217q0 -57 -39.5 -96t-100.5 -39q-25 0 -41 5l76 -124l-66 -43q-106 215 -107 216q-46 37 -78 78.5t-32 65t15.5 41.5t30.5 18t24.5 -8t22 -28t20 -34t23.5 -47t22 -45q17 -14 58.5 -14t65 24.5t23.5 67.5q0 77 -118 193l12 18h340l69 -95
h-287q67 -69 67 -154z" />
    <glyph glyph-name="uni091C094D091E094D092F" horiz-adv-x="1091" 
d="M905 588h-178q29 -23 48 -59t19 -60.5t-12.5 -43t-25 -27.5t-42 -28t-39 -25.5t-15.5 -10.5q-14 -11 -14 -23q0 -28 30 -48t63 -20q101 0 166 111v234zM1012 588v-588l-108 67l4 135q-59 -59 -122.5 -59t-136.5 57.5t-105 121.5q-64 49 -115 49h-63q67 -69 67 -154
q0 -57 -39.5 -96t-100.5 -39q-25 0 -41 5l76 -124l-66 -43q-106 215 -107 216q-46 37 -78 78.5t-32 65t15.5 41.5t30.5 18t24.5 -8t22 -28t20 -34t23.5 -47t22 -45q17 -14 58.5 -14t65 24.5t23.5 67.5q0 77 -118 193l12 18h152q97 0 171 -52q73 38 97 58t24 39t-15 42
t-38 35h-655l-60 87h1191l60 -87h-159z" />
    <glyph glyph-name="uni0915094D0928" horiz-adv-x="788" 
d="M344 588h-364l-60 87h888l60 -87h-417q0 -9 -2 -58t-2 -63q40 38 96 38q72 0 142.5 -81.5t70.5 -163.5q0 -63 -40 -104.5t-106 -41.5q-40 0 -79 14l-27 102q36 -14 73 -14t64 23t27 64t-25.5 70.5t-68.5 29.5q-76 0 -123 -88v-315l-108 58l4 121l-130 -104q6 -9 15 -21
q12 -15 21 -29.5t9 -23.5t-13 -16.5t-34 -7.5q-45 0 -90.5 23.5t-45.5 58.5q0 23 30 46l66 50q-53 22 -93.5 83t-40.5 127.5t43.5 105t102.5 38.5q40 0 74 -14l32 -99q-26 11 -63.5 11t-69 -25.5t-31.5 -68t29 -69t69 -26.5t117 69v301z" />
    <glyph glyph-name="uni0916094D0928" horiz-adv-x="770" 
d="M563 248q30 32 30 75.5t-26.5 69t-61.5 25.5t-56.5 -21.5t-21.5 -55.5q0 -46 41 -69.5t87 -23.5h8zM266 588v-222q0 -96 -94 -112q34 -48 89 -81.5t116 -33.5q85 0 136 54q-77 9 -132 55.5t-55 121.5q0 56 39.5 94.5t102 38.5t115.5 -46v131h-317zM360 -47q42 -57 42 -73
q0 -25 -44 -25t-90.5 24.5t-46.5 60.5q0 23 32 46l104 73q-44 3 -86.5 23.5t-74 46.5t-66.5 68q-48 59 -106 153l48 44q34 -36 61 -36t27 30v200h-179l-60 87h867l60 -87h-157v-588l-105 63l5 68q-4 -7 -44.5 -40.5t-51.5 -41.5z" />
    <glyph glyph-name="uni0917094D0928" horiz-adv-x="522" 
d="M443 588v-588l-108 69v132l-120 -113q6 -9 15 -21q21 -25 22 -31q8 -11 8 -19q0 -26 -46.5 -26t-91.5 23t-45 58q0 20 30 46l228 184v286h-129v-270q0 -38 -8 -53.5t-27 -15.5q-37 0 -87 51t-50 88.5t67 37.5v162h-121l-63 87h625l64 -87h-163z" />
    <glyph glyph-name="uni0918094D0928" horiz-adv-x="610" 
d="M78 590l-51 -2h-47l-60 87h710l59 -87h-158v-588l-108 66l5 108l-139 -137q37 -50 41 -57.5t4 -16.5t-13 -16.5t-33 -7.5q-46 0 -89.5 22t-43.5 57q0 21 31 46l77 65h-8q-67 0 -131.5 63t-64.5 130.5t65 100.5q-70 47 -70 106q0 39 24 61zM249 203q92 0 177 109l-3 276
h-209q-24 -7 -41.5 -31.5t-17.5 -55.5t32 -60q25 6 56.5 6t65.5 -9l31 -100q-44 11 -78 11q-108 0 -108 -68q0 -33 27.5 -55.5t67.5 -22.5z" />
    <glyph glyph-name="uni091A094D0928" horiz-adv-x="676" 
d="M361.5 -4.5q5.5 -7.5 10 -15.5t4.5 -17t-13 -16.5t-33 -7.5q-46 0 -89.5 22t-43.5 57q0 21 31 46l82 69q-61 1 -122 64t-61 130q0 20 11.5 40.5t28.5 31.5l-114 -4l-60 89h382l60 -88h-95q-54 -8 -87 -37.5t-33 -67.5t24.5 -58.5t60.5 -20.5q86 0 185 123v253h-510
l-54 87h770l54 -87h-153v-588l-108 66l4 133l-162 -162q7 -10 16 -22t14.5 -19.5z" />
    <glyph glyph-name="uni091B094D0928" horiz-adv-x="706" 
d="M541.5 296q16.5 42 16.5 76q0 71 -43 71q-31 0 -50.5 -30t-19.5 -71q0 -56 63 -108q17 20 33.5 62zM543 588v-81q43 -26 69 -77t26 -104q0 -81 -48 -155q68 -48 119 -81l-50 -59q-3 2 -53.5 41t-57.5 45q-20 -20 -47 -39v-501l-105 64v192h-125v-82q0 -15 -8 -25t-23 -10
q-35 0 -82 59.5t-47 101.5q0 52 67 52h218v103q-37 -7 -65 -7q-98 0 -176.5 62t-78.5 146q0 48 37 79q-67 57 -67 112t40 85t110 30q34 0 84 -10l34 -96q-44 9 -79 9q-92 0 -92 -54q0 -24 31 -50q26 6 57.5 6t68.5 -8l39 -97q-43 9 -77.5 9t-62.5 -14.5t-28 -49t31.5 -53
t80.5 -18.5q106 0 181 72q-112 101 -112 205q0 47 24 83t62 48v67h-458l-60 87h806l60 -87h-243z" />
    <glyph glyph-name="uni091C094D0928" horiz-adv-x="816" 
d="M534.5 25.5q5.5 -7.5 10 -14.5t4.5 -17t-13 -17.5t-33 -7.5q-46 0 -89 22t-43 57q0 20 30 46l236 203q-29 46 -81.5 64.5t-133.5 18.5h-74q62 -57 62 -139q0 -56 -33.5 -90.5t-93.5 -34.5q-40 0 -76.5 20t-63 50.5t-51.5 75.5q-40 74 -75 176l57 33q77 -254 178 -254
q68 0 68 68t-107 172l12 18h182q129 0 227 -96l-4 209h-650l-60 87h916l60 -87h-159v-588l-108 63l4 139l-129 -135q7 -10 16 -22t14.5 -19.5z" />
    <glyph glyph-name="uni091D094D0928" horiz-adv-x="835" 
d="M637 -17q0 -20 -30.5 -28.5t-66.5 -8.5q-91 0 -91 53q0 17 16 43l156 252q-49 -39 -107 -39q-32 0 -67 9q27 -40 27 -80.5t-31 -75.5q-54 -63 -148 -81l126 -134l-69 -45l-138 179q-56 13 -106 52.5t-50 77.5q0 22 19.5 38.5t43.5 16.5q34 0 105 -94q64 1 118 31t54 75
q0 14 -10 23.5t-28 9.5t-62.5 -19t-69.5 -19q-53 0 -111.5 63.5t-58.5 121.5q0 111 128 111h135v73h-341l-60 87h935l59 -87h-158v-588l-108 63l6 151l-82 -167q42 -28 52 -39q13 -11 13 -25zM649 588h-223v-167h-213q-31 0 -52.5 -15.5t-21.5 -40.5t12 -39t34 -14t67 18.5
t62 18.5t62 -5q78 -12 93 -12q91 0 180 74v182z" />
    <glyph glyph-name="uni091F094D0928" horiz-adv-x="518" 
d="M427 385h-147q-56 0 -92.5 -30.5t-36.5 -89t37 -90.5t94 -32q89 0 155 72l67 -90q-31 -33 -66 -53v-473l-96 62v188h-110v-81q0 -33 -31 -33q-34 0 -79.5 58t-45.5 99q0 50 65 50h201v103q-5 -1 -16 -1q-96 0 -183.5 85.5t-87.5 184.5q0 78 49.5 124t128.5 46h86v104
h-339l-57 87h615l57 -87h-168v-203z" />
    <glyph glyph-name="uni0920094D0928" horiz-adv-x="585" 
d="M278 385q-54 0 -90 -31t-36 -91t45.5 -99t110.5 -39t105 38.5t40 97.5q0 81 -80 124h-95zM427 588v-164q54 -33 87.5 -85t33.5 -111.5t-28 -104t-79 -65.5v-469l-95 62v187h-111v-81q0 -15 -8 -24t-22 -9q-35 0 -80.5 58t-45.5 99q0 50 66 50h201v109h-1
q-109 0 -198.5 82.5t-89.5 193.5q0 79 46.5 123t130.5 44h86v105h-340l-57 87h682l57 -87h-235z" />
    <glyph glyph-name="uni0921094D0928" horiz-adv-x="524" 
d="M436 405h-208q-73 0 -73 -59q0 -24 14.5 -42t37 -18t70.5 19.5t72 19.5q54 0 97 -56t43 -111t-50 -100v-474l-95 62v185h-110v-80q0 -33 -31 -33q-35 0 -80 57.5t-45 98.5q0 51 65 51h201v85q-25 -5 -49 -5q-77 0 -147 48t-113 126l53 37q81 -123 178 -123q61 0 103 32
t42 70t-34 38q-14 0 -60 -19t-74 -19q-57 0 -113.5 63t-56.5 132q0 53 33 80.5t96 27.5h131v90h-350l-61 87h622l60 -87h-168v-183z" />
    <glyph glyph-name="uni0924094D0928" horiz-adv-x="636" 
d="M98.5 161.5q-41.5 85.5 -41.5 154.5t42 107.5t123 38.5h230v126h-472l-60 87h736l60 -87h-159v-588l-105 64v239l-101 -97q12 -16 23 -30q19 -24 19 -35t-12 -17.5t-42.5 -6.5t-70 19.5t-39.5 51.5q0 20 28 42l158 129h-159q-50 0 -76.5 -28.5t-26.5 -77.5
q0 -87 104 -215l-55 -38q-62 76 -103.5 161.5z" />
    <glyph glyph-name="uni0925094D0928" horiz-adv-x="686" 
d="M377.5 2.5q5.5 -7.5 10 -15.5t4.5 -17t-13 -16.5t-33 -7.5q-46 0 -89 22t-43 57q0 21 30 46l84 71h-2q-71 0 -146.5 68.5t-75.5 130.5q0 21 19 32q9 5 37 19q69 36 101 59q69 46 69 90q0 26 -20 44t-47.5 18t-48 -18t-20.5 -46.5t27 -53.5l-48 -32q-65 62 -65 122
q0 47 37 77.5t85 30.5q71 0 129.5 -64.5t58.5 -122.5q0 -50 -42 -86q-40 -34 -78 -57t-42 -26l-11 -7q-18 -12 -21 -17q-6 -13 -6 -19q0 -27 26.5 -43.5t59.5 -16.5q89 0 195 110v254h-58l-60 87h325l60 -87h-159v-588l-108 66l4 133l-156 -156q6 -9 15.5 -21t15 -19.5z" />
    <glyph glyph-name="uni0926094D0928" horiz-adv-x="538" 
d="M261 -2q31 -55 31 -73q0 -25 -36.5 -25t-83 29.5t-46.5 67.5q0 28 39 48l77 40q-53 10 -102 57q-89 86 -89 186q0 72 45.5 117.5t135.5 45.5h89v97h-341l-53 87h631l53 -87h-183v-196h-150q-133 0 -133 -110q0 -54 36.5 -90t89.5 -36q38 0 58 16l7 5q-21 32 -21 61
t24 49.5t55 20.5t62.5 -40.5t31.5 -73.5t-43 -74l103 -123l-63 -43l-89 133z" />
    <glyph glyph-name="uni0927094D0928" horiz-adv-x="606" 
d="M81 590l-61 -2h-40l-60 87h330l60 -87h-92q-25 -7 -42 -31.5t-17 -53.5t34 -56q14 2 38 2t78 -8l32 -106q-51 14 -89 14t-67.5 -15.5t-29.5 -50t25.5 -56t66.5 -21.5q87 0 172 102v280h-37l-60 87h304l60 -87h-159v-588l-107 66l4 114l-124 -123q37 -50 41 -56.5t4 -16
t-13 -17t-33 -7.5q-46 0 -89.5 22t-43.5 57q0 21 31 45l54 46q-70 4 -130 66.5t-60 136.5q0 31 18.5 56.5t48.5 39.5q-72 47 -72 100q0 38 25 61z" />
    <glyph glyph-name="uni0928094D0928" horiz-adv-x="597" 
d="M106 491h55q123 0 253 -117v214h-429l-60 87h692l59 -87h-158v-588l-104 64v157l-151 -131q6 -9 15 -21q21 -25 22 -31q8 -11 8 -20.5t-13 -17t-46.5 -7.5t-76.5 22t-43 57q0 23 31 45l258 192q-35 31 -91.5 58.5t-116.5 27.5h-11v-76q0 -15 -8 -25t-23 -10
q-36 0 -82.5 56.5t-46.5 99.5q0 51 67 51z" />
    <glyph glyph-name="uni092A094D0928" horiz-adv-x="540" 
d="M461 588v-588l-106 66l4 167l-146 -145q6 -9 16 -21q20 -24 22 -30q7 -10 7 -20.5t-13 -18t-33 -7.5q-46 0 -89 22t-43 57q0 20 30 46l133 112q-62 9 -119.5 71.5t-57.5 124.5v164h-86l-60 87h641l60 -87h-160zM243 303q55 0 111 64v221h-181v-208q0 -37 19 -57t51 -20z
" />
    <glyph glyph-name="uni092B094D0928" horiz-adv-x="793" 
d="M193 90q38 -51 41.5 -57t3.5 -16t-13 -17.5t-33 -7.5q-46 0 -89 22t-43 58q0 19 30 45l136 117q-56 12 -112 77.5t-56 124.5v152h-78l-59 87h892l60 -87h-427l-1 -140q40 31 96 31q68 0 141.5 -79t73.5 -154t-40 -115t-110 -40q-29 0 -67 8l-36 104q32 -11 70 -11
t64.5 23.5t26.5 66t-25.5 71t-65.5 28.5q-81 0 -126 -83v-298l-109 66l7 173zM339 588h-174v-199q0 -36 18 -57.5t49 -21.5q52 0 94 47q3 6 13 16v215z" />
    <glyph glyph-name="uni092C094D0928" horiz-adv-x="589" 
d="M246 49q37 -50 41 -55.5t4 -16t-13 -18t-33 -7.5q-46 0 -89 22t-43 57q0 21 30 45l83 70q-71 7 -127.5 69.5t-56.5 135.5t52.5 120.5t116.5 47.5q87 0 157 -79l-36 -48q-42 42 -88 42q-25 0 -53 -15l146 -157q28 20 66 73l-2 253h-421l-60 87h689l60 -87h-159v-588
l-109 72l4 135zM156.5 243q30.5 -30 67 -30t68.5 18l-143 154q-23 -30 -23 -71t30.5 -71z" />
    <glyph glyph-name="uni092D094D0928" horiz-adv-x="593" 
d="M514 588v-588l-108 64v111l-119 -117q37 -50 41 -56t4 -15q0 -26 -46.5 -26t-89 21.5t-42.5 57.5q0 19 30 45l222 187v15h-198v-59q0 -33 -31 -33q-34 0 -89.5 57t-55.5 96q0 36 54 39h16v146q0 24 -14 39.5t-38 15.5h-70l-59 87h94q56 0 99 -37q3 -3 26.5 -24t25.5 -22
q40 -37 40 -100v-104h200v200h-115l-59 87h382l59 -87h-159z" />
    <glyph glyph-name="uni092E094D0928" horiz-adv-x="619" 
d="M347 -13q0 -26 -46.5 -26t-89.5 21.5t-43 57.5q0 20 31 45l233 184v17h-222v-60q0 -32 -32.5 -32t-88 55t-55.5 94q0 43 64 43h7v202h-125l-57 87h716l57 -87h-156v-588l-108 64v118l-130 -124q37 -50 41 -57.5t4 -13.5zM210 588v-202h222v202h-222z" />
    <glyph glyph-name="uni092F094D0928" horiz-adv-x="605" 
d="M526 588v-588l-108 67l4 139l-147 -145q37 -50 41 -56.5t4 -16t-13 -17t-33 -7.5q-46 0 -89.5 22t-43.5 57q0 21 31 45l83 71q-68 11 -140 85.5t-72 129.5q0 22 20 31q85 43 112 65t27 41t-15 42t-38 35h-169l-60 87h705l60 -87h-159zM190 263q30 -20 66.5 -20t72 18.5
t53 37t37.5 45.5v244h-178q29 -23 48 -59t19 -60.5t-12.5 -43t-25 -27.5t-42 -28t-39 -25.5t-15.5 -10.5q-14 -11 -14 -23q0 -28 30 -48z" />
    <glyph glyph-name="uni0935094D0928" horiz-adv-x="592" 
d="M513 588v-588l-110 72l4 127l-151 -150q6 -9 16 -21q11 -15 20 -29.5t9 -23.5t-13 -16.5t-46.5 -7.5t-76.5 22t-43 57q0 21 31 46l73 63q-71 15 -126.5 77t-55.5 137t51 124t117 49q36 0 69 -16t51 -32.5t39 -41.5l-29 -49q-42 44 -90 44t-80 -35t-32 -81.5t25 -72.5
t67 -26q74 0 172 117v255h-424l-60 87h692l60 -87h-159z" />
    <glyph glyph-name="uni0936094D0928" horiz-adv-x="735" 
d="M656 588v-588l-108 63v162l-5 3l-146 -113q48 -69 48 -80t-12.5 -18.5t-33.5 -7.5q-49 0 -94 25t-45 60q0 24 32 48l176 126l-166 85q-76 -53 -186 -108l-81 61q6 2 55 27q101 52 133 77q-87 75 -87 155q0 52 40 88t99 36t110.5 -54t51.5 -121q0 -53 -80 -124l191 -96
v294h-52l-60 87h315l60 -87h-155zM347.5 598.5q-16.5 14.5 -45 14.5t-53 -24.5t-24.5 -57.5q0 -49 51 -84q33 21 60.5 52.5t27.5 58t-16.5 41z" />
    <glyph glyph-name="uni0938094D0928" horiz-adv-x="760" 
d="M465 196q48 -65 48 -78t-12.5 -20.5t-33.5 -7.5q-49 0 -94 25t-45 55.5t32 52.5l170 115q-58 38 -115 38q-92 0 -239 -119q67 -98 181 -216l-73 -42q-163 197 -264 350l53 48q41 -38 60 -38q23 0 23 28v201h-167l-60 87h850l60 -87h-158v-588l-105 64l12 226zM263 399
q77 65 157 65t156 -65v189h-313v-189z" />
    <glyph glyph-name="uni0939094D0928" horiz-adv-x="555" 
d="M428 415h-209q-72 0 -72 -48q0 -28 32 -58q52 25 105 25q74 0 151.5 -75t77.5 -138v-170l-85 59v158l-96 -74q36 -50 39 -56.5t3 -13.5q0 -24 -41.5 -24t-81.5 22t-40 53q0 21 29 42l153 110q-29 17 -81 17t-104 -40t-52 -103q0 -118 219 -226l6 -3l-57 -40
q-107 61 -161 112q-103 97 -103 203q0 72 64 128q-79 72 -79 140q0 46 30 70t85 24h163v79h-348l-60 87h662l60 -87h-209v-173z" />
    <glyph glyph-name="uni0915094D0930" horiz-adv-x="785" 
d="M84.5 232.5q-43.5 61.5 -43.5 130.5t43.5 107.5t102.5 38.5q40 0 74 -14l32 -99q-26 11 -63.5 11t-69 -25.5t-31.5 -68t29 -69t71.5 -26.5t114.5 67v303h-358l-60 87h883l60 -87h-418q0 -9 -2 -58t-2 -63q40 38 96 38q72 0 142.5 -81.5t70.5 -163.5q0 -63 -40 -104.5
t-106 -41.5q-40 0 -79 14l-27 102q36 -14 73 -14t64 23t27 64t-25.5 70.5t-68.5 29.5q-76 0 -123 -88v-315l-108 58l5 121l-222 -178l-79 79l127 80q-46 11 -89.5 72.5z" />
    <glyph glyph-name="uni0916094D0930" horiz-adv-x="763" 
d="M70 394q34 -36 61.5 -36t27.5 30v200h-176l-60 87h860l60 -87h-153v-588l-105 62l3 78q-2 -4 -35.5 -28t-40.5 -30.5t-243 -156.5l-83 66l166 74q-171 13 -330 285zM364 464.5q40 38.5 102.5 38.5t115.5 -50v135h-317v-222q0 -96 -94 -112q34 -50 89 -82.5t116 -32.5
q84 0 136 54q-77 9 -132.5 55.5t-55.5 121.5q0 56 40 94.5zM562 248q29 31 29 75.5t-26.5 69.5t-61 25t-56.5 -21.5t-22 -55.5q0 -46 41 -69.5t88 -23.5h8z" />
    <glyph glyph-name="uni0917094D0930" horiz-adv-x="531" 
d="M452 588v-589l-108 69v119l-185 -185l-79 55l264 237v294h-130v-277q0 -38 -8 -53.5t-26 -15.5q-37 0 -87 51t-50 88.5t67 37.5v169h-128l-62 87h631l64 -87h-163z" />
    <glyph glyph-name="uni0918094D0930" horiz-adv-x="614" 
d="M87 590l-51 -2h-51l-60 87h709l59 -87h-158v-588l-109 61l5 106l-198 -203l-79 55l128 105h-2q-80 0 -146 65t-66 133t65 101q-70 47 -70 106q0 39 24 61zM258 203q83 0 169 98v287h-204q-24 -7 -41.5 -31.5t-17.5 -55.5t32 -60q26 6 57 6t65 -9l31 -100q-44 11 -78 11
q-108 0 -108 -68q0 -33 27.5 -55.5t67.5 -22.5z" />
    <glyph glyph-name="uni0919094D0930" horiz-adv-x="616" 
d="M440 405h-208q-72 0 -72 -59q0 -24 13 -40t35.5 -16t70.5 19t72 19q53 0 98 -59.5t45 -108.5t-34 -90t-89 -59l133 -146l-57 -37l-134 165l-144 -165l-85 67l127 123q-51 22 -96.5 64.5t-75.5 96.5l53 37q81 -123 178 -123q61 0 103.5 32t42.5 73q0 15 -9 25t-24.5 10
t-61.5 -19t-74 -19q-57 0 -113.5 63.5t-56.5 124t34 91.5t96 31h130v83h-357l-60 87h716l60 -87h-256v-183zM473 336l78 79l80 -79l-78 -78z" />
    <glyph glyph-name="uni091A094D0930" horiz-adv-x="682" 
d="M603 588v-588l-108 63l6 132l-215 -218l-79 55l121 100h-7q-58 0 -120.5 63.5t-62.5 131.5q0 20 11.5 40.5t28.5 31.5l-114 -4l-60 89h382l60 -88h-95q-53 -8 -86.5 -37.5t-33.5 -67.5t24.5 -58.5t60.5 -20.5q86 0 180 117v259h-492l-54 87h752l54 -87h-153z" />
    <glyph glyph-name="uni091B094D0930" horiz-adv-x="706" 
d="M541.5 296q16.5 42 16.5 76q0 71 -43 71q-31 0 -50.5 -30t-19.5 -71q0 -56 63 -108q17 20 33.5 62zM543 588v-81q43 -26 69 -77t26 -104q0 -81 -48 -155q68 -48 119 -81l-50 -59q-3 2 -53.5 41t-57.5 45q-52 -52 -120 -76l131 -142l-57 -38l-134 166l-144 -166l-85 68
l112 108q-75 23 -125 76.5t-50 119.5q0 48 37 79q-67 57 -67 112t40 85t110 30q34 0 84 -10l34 -96q-44 9 -79 9q-92 0 -92 -54q0 -24 31 -50q26 6 57.5 6t68.5 -8l39 -97q-43 9 -77.5 9t-62.5 -14.5t-28 -49t31.5 -53t80.5 -18.5q106 0 181 72q-112 101 -112 205
q0 47 24 83t62 48v67h-458l-60 87h806l60 -87h-243z" />
    <glyph glyph-name="uni091C094D0930" horiz-adv-x="821" 
d="M427 380h-74q62 -56 62 -139q0 -56 -33.5 -90.5t-93.5 -34.5q-40 0 -76.5 20t-63 50.5t-51.5 75.5q-40 74 -75 176l57 33q77 -254 178 -254q33 0 51 18t18 51q0 66 -108 171l12 18h182q129 0 227 -94l-4 207h-647l-60 87h913l60 -87h-159v-588l-107 63l3 141l-206 -216
l-79 55l293 257q-61 80 -219 80z" />
    <glyph glyph-name="uni091D094D0930" horiz-adv-x="835" 
d="M514 255q-29 0 -77 16q38 -39 38 -90.5t-54 -95t-124 -58.5l125 -134l-70 -45l-137 179q-56 13 -106.5 52.5t-50.5 77.5q0 22 20 38.5t44 16.5q34 0 105 -94q64 1 118 31t54 75q0 14 -9.5 23.5t-28 9.5t-63 -19t-69.5 -19q-53 0 -112 63.5t-59 121t34.5 84.5t94.5 27h134
v73h-342l-61 87h937l60 -87h-159v-588l-108 63l6 146l-138 -280l-79 55l209 319q-66 -48 -132 -48zM395.5 339.5q43.5 -7.5 86.5 -7.5q88 0 167 81v175h-223v-167h-212q-31 0 -52.5 -15.5t-21.5 -40.5t12 -39t34 -14t67 18.5t61.5 18.5t27 -1t54 -8.5z" />
    <glyph glyph-name="uni091E094D0930" horiz-adv-x="821" 
d="M277 220q56 0 88 31t32 87q0 37 -21.5 60.5t-58.5 23.5q-51 0 -94 -55l-79 86q64 69 128 69q113 0 193 -156q21 -8 39 -8q72 0 131 61v169h-655l-60 87h921l60 -87h-159v-588l-108 68l7 139l-167 -236l-79 56l242 280q-42 -33 -90 -33q-30 0 -66 14q0 -81 -50 -123
t-113 -42q-88 0 -172 79q-71 66 -134 155l49 44q94 -135 155 -166q30 -15 61 -15z" />
    <glyph glyph-name="uni091F094D0930" horiz-adv-x="518" 
d="M103 176q-48 67 -48 141.5t49.5 120.5t128.5 46h86v104h-339l-57 87h615l57 -87h-168v-203h-147q-56 0 -92.5 -30.5t-36.5 -89t37 -90.5t94 -32q89 0 155 72l67 -90q-52 -57 -118 -74l124 -135l-57 -38l-134 166l-144 -166l-84 68l130 126q-70 37 -118 104z" />
    <glyph glyph-name="uni0920094D0930" horiz-adv-x="578" 
d="M278 385q-54 0 -90 -31t-36 -91t45.5 -99t110.5 -39t105 38.5t40 97.5q0 81 -80 124h-95zM427 588v-164q54 -33 87.5 -85t33.5 -118t-40.5 -115t-113.5 -62l120 -131l-57 -38l-135 165l-143 -165l-85 68l130 126q-73 35 -120 102t-47 145.5t46.5 122.5t130.5 44h86v105
h-340l-57 87h682l57 -87h-235z" />
    <glyph glyph-name="uni0921094D0930" horiz-adv-x="524" 
d="M436 405h-208q-73 0 -73 -59q0 -24 14.5 -42t37 -18t70.5 19.5t72 19.5q54 0 97 -56t43 -104.5t-34 -89.5t-90 -59l127 -139l-57 -38l-134 166l-144 -166l-85 68l124 120q-101 43 -161 152l53 37q81 -123 178 -123q61 0 103 32t42 70t-34 38q-14 0 -60 -19t-74 -19
q-57 0 -113.5 63t-56.5 132q0 53 33 80.5t96 27.5h131v90h-350l-61 87h622l60 -87h-168v-183z" />
    <glyph glyph-name="uni0922094D0930" horiz-adv-x="533" 
d="M406.5 166q25.5 25 25.5 55.5t-31.5 30.5t-51.5 -23t-20 -50.5t17 -47.5q35 10 60.5 35zM435 392h-154q-61 0 -99 -32t-38 -92t42.5 -100.5t100.5 -43.5q-39 45 -39 94.5t32 83.5t81.5 34t97.5 -46.5t48 -99.5t-31.5 -90.5t-81.5 -53.5l125 -137l-57 -37l-134 165
l-144 -165l-85 67l127 123q-74 35 -124 104.5t-50 149t46.5 126t128.5 46.5h100v100h-325l-60 87h611l60 -87h-178v-196z" />
    <glyph glyph-name="uni0923094D0930" horiz-adv-x="745" 
d="M666 588v-588l-107 72v138l-230 -218l-78 56l308 264v276h-130v-229q0 -68 -37 -108t-103.5 -40t-144.5 67q-80 73 -80 154v156h-96l-60 87h857l61 -87h-160zM249 299q73 0 73 91v198h-151v-191q0 -44 21 -71t57 -27z" />
    <glyph glyph-name="uni0924094D0930" horiz-adv-x="576" 
d="M499 588v-589l-108 68v180l-194 -165l-83 62l272 197q-27 31 -65 53.5t-76 22.5q-66 0 -140 -62l-67 85q77 67 170 67t183 -99v180h-401l-63 87h667l65 -87h-160z" />
    <glyph glyph-name="uni0925094D0930" horiz-adv-x="696" 
d="M342 140q-47 0 -101.5 32t-90.5 81t-36 88q0 20 20 32q4 3 58.5 31.5t82.5 48.5q66 46 66 88q0 26 -20.5 44t-47.5 18t-48 -18.5t-21 -46t28 -53.5l-48 -32q-66 61 -66 122q0 47 37 77.5t85 30.5q71 0 129.5 -64.5t58.5 -122.5q0 -49 -42 -86q-24 -21 -37 -31t-48 -31
t-43 -26l-12 -8q-4 -3 -10.5 -12t-6.5 -18q0 -27 26 -43.5t59 -16.5q90 0 196 108v256h-58l-60 87h324l60 -87h-159v-588l-108 63l7 137l-229 -228l-78 55l144 113h-11z" />
    <glyph glyph-name="uni0926094D0930" horiz-adv-x="538" 
d="M428 392h-150q-133 0 -133 -110q0 -54 36.5 -90t89.5 -36q38 0 58 16l7 5q-21 32 -21 61t24 49.5t55 20.5t62.5 -40.5t31.5 -73.5t-43 -74l103 -123l-63 -43l-89 133l-214 -157l-78 55l154 92q-61 10 -118 65q-89 86 -89 186q0 72 45.5 117.5t135.5 45.5h89v97h-341
l-53 87h631l53 -87h-183v-196z" />
    <glyph glyph-name="uni0927094D0930" horiz-adv-x="537" 
d="M82 590l-64 -2h-39l-60 87h332l60 -87h-92q-25 -7 -42 -31.5t-17 -53.5t35 -56q14 2 38.5 2t76.5 -8l33 -106q-53 14 -90 14t-66.5 -15.5t-29.5 -50t25.5 -56t65.5 -21.5q85 0 174 102v280h-39l-60 87h302l59 -87h-155v-588l-108 63l7 115l-193 -200l-80 58l112 90
q-77 1 -140.5 65t-63.5 142q0 31 18 56.5t49 39.5q-73 46 -73 100q0 38 25 61z" />
    <glyph glyph-name="uni0928094D0930" horiz-adv-x="596" 
d="M517 588v-588l-108 63v141l-194 -219l-79 56l273 267v16h-209v-82q0 -15 -8 -25t-23 -10q-36 0 -82.5 59t-46.5 102q0 52 67 52h302v168h-426l-60 87h693l59 -87h-158z" />
    <glyph glyph-name="uni092A094D0930" horiz-adv-x="540" 
d="M66 424v164h-89l-61 87h644l60 -87h-159v-588l-108 63l8 169l-222 -232l-80 58l187 169q-59 3 -119.5 69t-60.5 128zM243 303q55 0 111 64v221h-181v-208q0 -37 19 -57t51 -20z" />
    <glyph glyph-name="uni092B094D0930" horiz-adv-x="790" 
d="M58 436v152h-77l-60 87h879l60 -87h-416l-1 -140q40 31 96 31q68 0 142 -79t74 -154t-40 -115t-111 -40q-28 0 -66 8l-36 104q31 -11 69 -11t65 23.5t27 66t-26 71t-64.5 28.5t-72 -22t-55.5 -61v-298l-108 62l6 177l-228 -233l-79 56l195 172q-61 15 -117 78.5
t-56 123.5zM231 310q59 0 107 63v215h-173v-199q0 -36 18 -57.5t48 -21.5z" />
    <glyph glyph-name="uni092C094D0930" horiz-adv-x="591" 
d="M512 588v-588l-111 68l6 130q-4 -4 -47.5 -49l-87 -90t-57.5 -57l-78 55l112 88q-75 0 -138 66t-63 141.5t52.5 122.5t116.5 47q89 0 157 -79l-36 -48q-42 42 -88 42q-27 0 -52 -14l144 -156q36 31 63 66v255h-418l-60 87h683l60 -87h-158zM162.5 247q30.5 -30 66.5 -30
t68 19l-142 153q-23 -31 -23 -71.5t30.5 -70.5z" />
    <glyph glyph-name="uni092D094D0930" horiz-adv-x="593" 
d="M406 288h-198v-59q0 -33 -31 -33q-34 0 -89.5 56.5t-55.5 95t59 39.5h11v146q0 24 -14 39.5t-38 15.5h-70l-59 87h94q56 0 99 -37q2 -2 27.5 -24.5t26.5 -23.5q38 -35 38 -98v-104h200v200h-115l-59 87h378l59 -87h-155v-588l-108 64v109l-177 -177l-79 55l256 219v18z
" />
    <glyph glyph-name="uni092E094D0930" horiz-adv-x="619" 
d="M423 287h-209v-60q0 -32 -32.5 -32t-88 54.5t-55.5 93.5q0 43 64 43h7v202h-131l-57 87h718l57 -87h-156v-588l-108 64v104l-181 -186l-78 55l250 232v18zM214 588v-202h218v202h-218z" />
    <glyph glyph-name="uni092F094D0930" horiz-adv-x="600" 
d="M38 374q0 22 20 31q84 43 111 64.5t27 41t-14.5 42.5t-37.5 35h-166l-60 87h702l60 -87h-159v-588l-108 64v136l-215 -214l-80 57l139 117q-67 2 -143 79.5t-76 134.5zM248 243q90 0 165 98v247h-177q29 -23 47.5 -58.5t18.5 -65.5t-19 -49.5t-54 -41.5t-44.5 -28.5
t-14.5 -10.5q-15 -11 -15 -23q0 -28 30 -48t63 -20z" />
    <glyph glyph-name="uni0935094D0930" horiz-adv-x="595" 
d="M518 588v-588l-111 68l9 131l-226 -230l-80 57l136 113q-71 2 -133 69t-62 143.5t51 125.5t117 49q36 0 69 -16t51 -32.5t39 -41.5l-30 -49q-40 44 -89 44t-80.5 -35t-31.5 -81.5t25 -72.5t67 -26q73 0 172 118v254h-431l-60 87h695l60 -87h-157z" />
    <glyph glyph-name="uni0936094D0930" horiz-adv-x="735" 
d="M656 588v-588l-108 63v160l-255 -193l-80 60l259 176l-170 90q-76 -53 -186 -108l-81 61q6 2 55 27q101 52 133 77q-84 73 -84 152q0 52 40 88t98.5 36t107.5 -53t49 -122q0 -53 -77 -121l191 -99v294h-52l-60 87h315l60 -87h-155zM347 600.5q-15 12.5 -42.5 12.5
t-52 -25t-24.5 -64.5t48 -73.5q33 23 59.5 54.5t26.5 57.5t-15 38.5z" />
    <glyph glyph-name="uni0938094D0930" horiz-adv-x="756" 
d="M413 385q-75 0 -155 -80q-22 -47 -82 -48q67 -98 181 -216l-73 -42q-163 197 -264 350l53 48q41 -38 60 -38q23 0 23 28v201h-167l-60 87h829l60 -87h-158v-588l-105 66l5 208l-157 -154l-79 57l192 162q-53 46 -103 46zM263 391q56 83 136 83t156 -71v185h-292v-197z
" />
    <glyph glyph-name="uni0939094D0930" horiz-adv-x="550" 
d="M318 244q-60 0 -111 -40t-51 -103q0 -120 232 -236l-57 -40q-136 78 -203.5 157t-67.5 159.5t63 133.5q-78 74 -78 140q0 46 30 70t85 24h176v79h-361l-60 87h659l60 -87h-193v-173h-222q-72 0 -72 -48q0 -30 31 -57q53 24 103 24q74 0 151.5 -75t77.5 -138v-163l-85 59
v143l-134 -150l-80 58l176 157q-29 19 -69 19z" />
    <glyph glyph-name="uni0915093C094D0930" horiz-adv-x="785" 
d="M84.5 232.5q-43.5 61.5 -43.5 130.5t43.5 107.5t102.5 38.5q40 0 74 -14l32 -99q-26 11 -63.5 11t-69 -25.5t-31.5 -68t29 -69t71.5 -26.5t114.5 67v303h-358l-60 87h883l60 -87h-418q0 -9 -2 -58t-2 -63q40 38 96 38q72 0 142.5 -81.5t70.5 -163.5q0 -63 -40 -104.5
t-106 -41.5q-40 0 -79 14l-27 102q36 -14 73 -14t64 23t27 64t-25.5 70.5t-68.5 29.5q-76 0 -123 -88v-315l-108 58l5 121l-222 -178l-79 79l127 80q-46 11 -89.5 72.5zM197 -32l77 79l81 -79l-79 -77z" />
    <glyph glyph-name="uni0916093C094D0930" horiz-adv-x="763" 
d="M70 394q34 -36 61.5 -36t27.5 30v200h-176l-60 87h860l60 -87h-153v-588l-105 62l3 78q-2 -4 -35.5 -28t-40.5 -30.5t-243 -156.5l-83 66l166 74q-171 13 -330 285zM364 464.5q40 38.5 102.5 38.5t115.5 -50v135h-317v-222q0 -96 -94 -112q34 -50 89 -82.5t116 -32.5
q84 0 136 54q-77 9 -132.5 55.5t-55.5 121.5q0 56 40 94.5zM562 248q29 31 29 75.5t-26.5 69.5t-61 25t-56.5 -21.5t-22 -55.5q0 -46 41 -69.5t88 -23.5h8zM448 -57l77 79l81 -79l-79 -77z" />
    <glyph glyph-name="uni0917093C094D0930" horiz-adv-x="531" 
d="M452 588v-589l-108 69v119l-185 -185l-79 55l264 237v294h-130v-277q0 -38 -8 -53.5t-26 -15.5q-37 0 -87 51t-50 88.5t67 37.5v169h-128l-62 87h631l64 -87h-163zM217 -44l77 79l81 -79l-79 -77z" />
    <glyph glyph-name="uni091C093C094D0930" horiz-adv-x="821" 
d="M427 380h-74q62 -56 62 -139q0 -56 -33.5 -90.5t-93.5 -34.5q-40 0 -76.5 20t-63 50.5t-51.5 75.5q-40 74 -75 176l57 33q77 -254 178 -254q33 0 51 18t18 51q0 66 -108 171l12 18h182q129 0 227 -94l-4 207h-647l-60 87h913l60 -87h-159v-588l-107 63l3 141l-206 -216
l-79 55l293 257q-61 80 -219 80zM33 37l77 79l81 -79l-79 -77z" />
    <glyph glyph-name="uni0921093C094D0930" horiz-adv-x="524" 
d="M13 102l81 -79l-79 -77l-79 77zM436 405h-208q-73 0 -73 -59q0 -24 14.5 -42t37 -18t70.5 19.5t72 19.5q54 0 97 -56t43 -105t-35 -90.5t-92 -58.5l127 -139l-57 -38l-134 165l-144 -165l-85 68l125 121q-101 45 -159 152l53 37q81 -123 178 -123q61 0 103 32t42 70
t-34 38q-14 0 -60 -19t-74 -19q-57 0 -113.5 63t-56.5 132q0 53 33 80.5t96 27.5h131v90h-350l-61 87h622l60 -87h-168v-183z" />
    <glyph glyph-name="uni0922093C094D0930" horiz-adv-x="533" 
d="M37 132l81 -79l-79 -77l-79 77zM406.5 166q25.5 25 25.5 55.5t-31.5 30.5t-51.5 -23t-20 -50.5t17 -47.5q35 10 60.5 35zM435 392h-154q-61 0 -99 -32t-38 -92t42.5 -100.5t100.5 -43.5q-39 45 -39 94.5t32 83.5t81.5 34t97.5 -46.5t48 -100t-33.5 -92t-85.5 -52.5
l126 -137l-57 -38l-134 165l-144 -165l-85 68l130 126q-74 35 -123 103.5t-49 148t46.5 126t128.5 46.5h100v100h-325l-60 87h611l60 -87h-178v-196z" />
    <glyph glyph-name="uni0928093C094D0930" horiz-adv-x="596" 
d="M517 588v-588l-108 63v141l-194 -219l-79 56l273 267v16h-209v-82q0 -15 -8 -25t-23 -10q-36 0 -82.5 59t-46.5 102q0 52 67 52h302v168h-426l-60 87h693l59 -87h-158zM277 -46l77 79l81 -79l-79 -77z" />
    <glyph glyph-name="uni092B093C094D0930" horiz-adv-x="790" 
d="M58 436v152h-77l-60 87h879l60 -87h-416l-1 -140q40 31 96 31q68 0 142 -79t74 -154t-40 -115t-111 -40q-28 0 -66 8l-36 104q31 -11 69 -11t65 23.5t27 66t-26 71t-64.5 28.5t-72 -22t-55.5 -61v-298l-108 62l6 177l-228 -233l-79 56l195 172q-61 15 -117 78.5
t-56 123.5zM231 310q59 0 107 63v215h-173v-199q0 -36 18 -57.5t48 -21.5zM192 -30l77 79l81 -79l-79 -77z" />
    <glyph glyph-name="uni092F093C094D0930" horiz-adv-x="600" 
d="M38 374q0 22 20 31q84 43 111 64.5t27 41t-14.5 42.5t-37.5 35h-166l-60 87h702l60 -87h-159v-588l-108 64v136l-215 -214l-80 57l139 117q-67 2 -143 79.5t-76 134.5zM248 243q90 0 165 98v247h-177q29 -23 47.5 -58.5t18.5 -65.5t-19 -49.5t-54 -41.5t-44.5 -28.5
t-14.5 -10.5q-15 -11 -15 -23q0 -28 30 -48t63 -20zM282 -46l77 79l81 -79l-79 -77z" />
    <glyph glyph-name="uni0915094D0930094D" horiz-adv-x="583" 
d="M81 238q-41 62 -41 128t44 104.5t103 38.5q39 0 73 -14l33 -99q-26 11 -63.5 11t-69 -25.5t-31.5 -68t28.5 -69t69.5 -26.5t116 67v303h-363l-60 87h683l60 -87h-212q-1 -30 -5 -121q42 38 90.5 38t94 -32t78.5 -81l-47 -48q-17 30 -37 44.5t-52 14.5q-76 0 -122 -88
v-315l-109 58l5 121l-222 -178l-79 79l127 80q-51 16 -92 78z" />
    <glyph glyph-name="uni0916094D0930094D" horiz-adv-x="545" 
d="M133 358q27 0 27 30v200h-180l-60 87h645l60 -87h-359v-222q0 -96 -94 -112q35 -50 89.5 -82.5t123.5 -32.5t128 54q-77 9 -132 55.5t-55 121.5q0 56 39.5 94.5t95.5 38.5q86 0 150 -69q55 -58 55 -132q0 -103 -88 -181q-58 -51 -168 -114t-158 -94l-84 66l185 86
q-45 3 -88.5 24t-75 47.5t-65.5 68.5q-53 65 -100 145l48 44q34 -36 61 -36zM563 248q30 32 30 75.5t-26.5 69t-61.5 25.5t-56.5 -21.5t-21.5 -55.5q0 -46 41 -69.5t87 -23.5h8z" />
    <glyph glyph-name="uni0917094D0930094D" horiz-adv-x="278" 
d="M206 588v-298q0 -38 -8 -53.5t-27 -15.5q-37 0 -87 51t-50 88.5t67 37.5v190h-121l-63 87h381l64 -87h-156zM364 297l51 -49l-253 -252l-78 56z" />
    <glyph glyph-name="uni0918094D0930094D" horiz-adv-x="374" 
d="M78 590l-51 -2h-47l-60 87h474l59 -87h-239q-24 -7 -41.5 -31.5t-17.5 -55.5t32 -60q25 6 56.5 6t65.5 -9l31 -100q-44 11 -78 11q-108 0 -108 -68q0 -33 27.5 -55.5t67.5 -22.5q91 0 184 117l68 -71l-277 -285l-79 55l128 105h-2q-80 0 -146 65t-66 133t65 101
q-70 47 -70 106q0 39 24 61z" />
    <glyph glyph-name="uni091A094D0930094D" horiz-adv-x="425" 
d="M499 588h-519l-54 87h519zM310 132q-58 0 -120.5 63.5t-62.5 131.5q0 20 11.5 40.5t28.5 31.5l-114 -4l-60 89h382l60 -88h-95q-54 -8 -87 -37.5t-33 -67.5t24.5 -58.5t60.5 -20.5q86 0 182 121l68 -71l-280 -285l-79 55l121 100h-7z" />
    <glyph glyph-name="uni091C094D0930094D" horiz-adv-x="486" 
d="M506 675l60 -87h-586l-60 87h586zM409 475q54 0 104 -18.5t82 -43t59 -55.5q37 -41 55 -77l-281 -293l-79 55l282 257q-28 46 -77 63t-131 17h-74q63 -57 63 -139q0 -56 -33.5 -90.5t-94.5 -34.5q-40 0 -76 20t-62.5 50.5t-51.5 75.5q-39 72 -76 176l58 33
q57 -184 118 -232q28 -22 60 -22t50 18t18 51q0 67 -107 171l12 18h182z" />
    <glyph glyph-name="uni091D094D0930094D" horiz-adv-x="509" 
d="M514 255q-32 0 -67 9q27 -40 27 -80.5t-31 -75.5q-54 -63 -148 -81l126 -134l-69 -45l-138 179q-56 13 -106 52.5t-50 77.5q0 22 19.5 38.5t43.5 16.5q34 0 105 -94q64 1 118 31t54 75q0 14 -10 23.5t-28 9.5t-62.5 -19t-69.5 -19q-53 0 -111.5 63.5t-58.5 121.5
q0 111 128 111h135v73h-341l-60 87h609l60 -87h-163v-167h-213q-31 0 -52.5 -15.5t-21.5 -40.5t12 -39t34 -14t67 18.5t62 18.5t62 -5q78 -12 93 -12q91 0 180 76l63 -74l-197 -405l-78 55l185 310q-50 -39 -108 -39z" />
    <glyph glyph-name="uni091E094D0930094D" horiz-adv-x="520" 
d="M600 588h-620l-60 87h620zM530 278q-24 0 -50 10q0 -12 -3 -24q-6 -64 -52 -102.5t-98.5 -38.5t-96.5 20t-84 58q-69 66 -135 156l49 44q81 -111 120 -143q49 -38 100.5 -38t84 31t32.5 87q0 37 -22 60.5t-59 23.5q-51 0 -94 -55l-79 86q65 69 128 69q114 0 193 -156
q21 -8 39 -8q52 0 89 43l124 -82l-242 -348l-79 55l232 287q-47 -35 -97 -35z" />
    <glyph glyph-name="uni091F094D0930094D" horiz-adv-x="518" 
d="M102.5 176.5q-47.5 67.5 -47.5 141.5t49.5 120t128.5 46h86v104h-339l-57 87h615l57 -87h-168v-203h-147q-56 0 -92.5 -30.5t-36.5 -89t37 -90.5t94 -32q89 0 155 72l67 -90q-52 -57 -120 -74l124 -135l-57 -38l-134 165l-144 -165l-85 68l131 127q-69 36 -116.5 103.5z
M222 -146q37 23 72 23t64.5 -12t49 -24.5t48 -43t38.5 -42.5t38 -49.5t30 -40.5l-50 -35q-3 3 -24 32.5t-33 43t-33 34.5q-41 41 -90 41q-26 0 -51 -12z" />
    <glyph glyph-name="uni0920094D0930094D" horiz-adv-x="585" 
d="M278 385q-54 0 -90 -31t-36 -91t45.5 -99t110.5 -39t105 38.5t40 97.5q0 81 -80 124h-95zM103.5 172q-46.5 66 -46.5 144.5t46.5 122.5t130.5 44h86v105h-340l-57 87h682l57 -87h-235v-164q54 -33 87.5 -85t33.5 -118.5t-41.5 -116t-117.5 -61.5l121 -131l-57 -38
l-134 165l-144 -165l-85 68l132 128q-72 36 -118.5 102zM216 -154q37 23 72 23t64.5 -12t49 -24.5t48 -43t38.5 -42.5t38 -49.5t30 -40.5l-50 -35q-3 3 -24 32.5t-33 43t-33 34.5q-41 41 -90 41q-26 0 -51 -12z" />
    <glyph glyph-name="uni0921094D0930094D" horiz-adv-x="524" 
d="M266 93q61 0 103 32t42 70t-34 38q-14 0 -60 -19t-74 -19q-57 0 -113.5 63t-56.5 132q0 53 33 80.5t96 27.5h131v90h-350l-61 87h622l60 -87h-168v-183h-208q-73 0 -73 -59q0 -24 14.5 -42t37 -18t70.5 19.5t72 19.5q54 0 97 -56t43 -105t-35 -90.5t-92 -58.5l127 -139
l-57 -38l-134 165l-144 -165l-85 68l125 121q-101 45 -159 152l53 37q81 -123 178 -123zM211 -190q37 23 72 23t64.5 -12t49 -24.5t48 -43t38.5 -42.5t38 -49.5t30 -40.5l-50 -35q-3 3 -24 32.5t-33 43t-34 34.5q-40 41 -89 41q-25 0 -51 -12z" />
    <glyph glyph-name="uni0922094D0930094D" horiz-adv-x="533" 
d="M406.5 166q25.5 25 25.5 55.5t-31.5 30.5t-51.5 -23t-20 -50.5t17 -47.5q35 10 60.5 35zM101 167.5q-49 68.5 -49 148t46.5 126t128.5 46.5h100v100h-325l-60 87h611l60 -87h-178v-196h-154q-61 0 -99 -32t-38 -92t42.5 -100.5t100.5 -43.5q-39 45 -39 94.5t32 83.5
t81.5 34t97.5 -46.5t48 -100t-33.5 -92t-85.5 -52.5l126 -137l-57 -38l-134 165l-144 -165l-85 68l130 126q-74 35 -123 103.5zM226 -152q37 23 72 23t64.5 -12t49 -24.5t48 -43t38.5 -42.5t38 -49.5t30 -40.5l-50 -35q-3 3 -24 32.5t-33 43t-33 34.5q-41 41 -90 41
q-26 0 -51 -12z" />
    <glyph glyph-name="uni0923094D0930094D" horiz-adv-x="484" 
d="M417 588v-229q0 -68 -37 -108t-103.5 -40t-144.5 67q-80 73 -80 154v156h-66l-60 87h578l61 -87h-148zM237 299q73 0 73 91v198h-151v-191q0 -44 21 -71t57 -27zM277 41l303 279l52 -49l-276 -286z" />
    <glyph glyph-name="uni0924094D0930094D" horiz-adv-x="315" 
d="M335 675l64 -87h-409l-63 87h408zM245 417q-66 0 -140 -62l-67 85q77 67 166 67q56 0 126.5 -44.5t138.5 -144.5l-272 -236l-83 62l272 197q-27 31 -65 53.5t-76 22.5z" />
    <glyph glyph-name="uni0925094D0930094D" horiz-adv-x="434" 
d="M517 588h-77l-60 87h77zM331 140q-47 0 -101.5 32t-90.5 81t-36 88q0 20 20 32q8 5 53.5 29t72.5 41q80 53 80 98q0 26 -20 44t-47 18t-48 -18.5t-21 -46.5t27 -53l-47 -32q-66 61 -66 122q0 47 37 77.5t85 30.5q71 0 129.5 -64.5t58.5 -122.5q0 -49 -43 -87
q-34 -31 -75 -55.5t-50 -30.5l-13 -9q-5 -3 -11.5 -12t-6.5 -18q0 -27 26 -43.5t59 -16.5q92 0 195 110l66 -72l-280 -284l-79 56l137 106h-11z" />
    <glyph glyph-name="uni0926094D0930094D" horiz-adv-x="533" 
d="M428 392h-150q-133 0 -133 -110q0 -54 36.5 -90t89.5 -36q38 0 58 16l7 5q-21 32 -21 61t24 49.5t55 20.5t62.5 -40.5t31.5 -73.5t-43 -74l103 -123l-63 -43l-89 133l-212 -155l-78 55l150 89q-61 13 -116 66q-89 86 -89 186q0 72 45.5 117.5t135.5 45.5h89v97h-341
l-53 87h631l53 -87h-183v-196zM240 -82q37 23 72.5 23t64.5 -12t48.5 -24.5t47.5 -42.5t38.5 -42.5t38.5 -50t30 -40.5l-50 -35q-3 3 -24 32.5t-33 43t-33 34.5q-41 41 -90 41q-25 0 -51 -12z" />
    <glyph glyph-name="uni0927094D0930094D" horiz-adv-x="361" 
d="M80 590l-61 -2h-39l-60 87h329l60 -87h-92q-25 -7 -42 -31.5t-17 -53.5t35 -56q14 2 37.5 2t77.5 -8l33 -106q-53 14 -90 14t-66.5 -15.5t-29.5 -50t25.5 -56t65.5 -21.5q97 0 193 127l68 -68l-274 -287l-80 58l112 90q-77 1 -140.5 65t-63.5 142q0 31 18 56.5t49 39.5
q-73 46 -73 100q0 38 25 61zM381 588l-60 87h74l59 -87h-73z" />
    <glyph glyph-name="uni0928094D0930094D" horiz-adv-x="296" 
d="M316 675l60 -87h-396l-60 87h396zM411 324h-212v-82q0 -35 -31 -35q-36 0 -82.5 59t-46.5 102q0 52 68 52h257l121 -129l-264 -299l-79 55l269 264v13z" />
    <glyph glyph-name="uni092A094D0930094D" horiz-adv-x="294" 
d="M65 424v164h-85l-60 87h394l60 -87h-202v-208q0 -37 19.5 -57t50.5 -20q56 0 114 69l69 -71l-282 -297l-81 57l183 166q-59 3 -119.5 69t-60.5 128z" />
    <glyph glyph-name="uni092B094D0930094D" horiz-adv-x="568" 
d="M58 436v152h-77l-60 87h667l60 -87h-203l-1 -140q40 31 87.5 31t92.5 -30t80 -76l-50 -41q-30 49 -82 49q-37 0 -71 -22t-55 -61v-298l-109 62l7 177l-229 -233l-78 56l194 172q-61 14 -117 78.5t-56 123.5zM232 310q60 0 106 63v215h-173v-199q0 -36 18 -57.5t49 -21.5z
" />
    <glyph glyph-name="uni092C094D0930094D" horiz-adv-x="346" 
d="M104 207.5q-63 65.5 -63 141t53 123t116 47.5q89 0 157 -79l-36 -48q-42 42 -87 42q-26 0 -53 -15l144 -156q34 30 59 64l65 -69q-2 -3 -116.5 -122.5t-133.5 -137.5l-79 56l112 88q-75 0 -138 65.5zM426 588h-446l-60 87h446zM155.5 243q30.5 -30 66.5 -30t68 19
l-142 153q-23 -30 -23 -71t30.5 -71z" />
    <glyph glyph-name="uni092D094D0930094D" horiz-adv-x="334" 
d="M354 675l59 -87h-122l-59 87h122zM420 287h-212v-59q0 -33 -31 -33q-34 0 -89.5 57t-55.5 96q0 36 54 39h16v146q0 24 -14 39.5t-38 15.5h-70l-59 87h94q56 0 99 -37q2 -2 27.5 -24.5t26.5 -23.5q38 -35 38 -98v-104h190l105 -116l-272 -276l-79 55l270 231v5z" />
    <glyph glyph-name="uni092E094D0930094D" horiz-adv-x="344" 
d="M210 386h186l120 -125l-269 -279l-78 55l250 232v17h-209v-60q0 -32 -32.5 -32t-88 55t-55.5 94q0 43 64 43h7v202h-125l-57 87h441l57 -87h-211v-202z" />
    <glyph glyph-name="uni092F094D0930094D" horiz-adv-x="359" 
d="M43 374q0 22 20 31q85 43 112 65t27 41t-15 42t-38 35h-169l-60 87h459l60 -87h-198q29 -23 48 -59t19 -60.5t-12.5 -43t-25 -27.5t-42 -28t-39 -25.5t-15.5 -10.5q-14 -11 -14 -23q0 -28 30 -48t63 -20q89 0 160 94l68 -71l-278 -280l-80 57l140 117q-68 2 -144 79.5
t-76 134.5z" />
    <glyph glyph-name="uni0935094D0930094D" horiz-adv-x="348" 
d="M427 588h-447l-60 87h447zM106.5 208q-62.5 67 -62.5 143.5t51 125.5t117 49q36 0 69 -16t51 -32.5t39 -41.5l-29 -49q-42 44 -90 44t-80 -35t-32 -81.5t25 -72.5t67 -26q74 0 170 116l67 -71l-285 -292l-80 57l136 113q-71 2 -133.5 69z" />
    <glyph glyph-name="uni0938094D0930094D" horiz-adv-x="446" 
d="M263 588v-197q56 83 134 83q55 0 111.5 -40.5t97.5 -117.5l-203 -196l-79 57l192 162q-47 46 -103 46q-75 0 -155 -80q-22 -47 -82 -48q67 -98 181 -216l-73 -42q-163 197 -264 350l53 48q41 -38 60 -38q23 0 23 28v201h-167l-60 87h537l60 -87h-263z" />
    <glyph glyph-name="uni0915093C094D0930094D" horiz-adv-x="583" 
d="M187 -53l77 79l81 -79l-79 -77zM81 238q-41 62 -41 128t44 104.5t103 38.5q39 0 73 -14l33 -99q-26 11 -63.5 11t-69 -25.5t-31.5 -68t28.5 -69t69.5 -26.5t116 67v303h-363l-60 87h683l60 -87h-212q-1 -30 -5 -121q42 38 90.5 38t94 -32t78.5 -81l-47 -48
q-17 30 -37 44.5t-52 14.5q-76 0 -122 -88v-315l-109 58l5 121l-222 -178l-79 79l127 80q-51 16 -92 78z" />
    <glyph glyph-name="uni0916093C094D0930094D" horiz-adv-x="545" 
d="M133 358q27 0 27 30v200h-180l-60 87h645l60 -87h-359v-222q0 -96 -94 -112q35 -50 89.5 -82.5t123.5 -32.5t128 54q-77 9 -132 55.5t-55 121.5q0 56 39.5 94.5t95.5 38.5q86 0 150 -69q55 -58 55 -132q0 -103 -88 -181q-58 -51 -168 -114t-158 -94l-84 66l185 86
q-45 3 -88.5 24t-75 47.5t-65.5 68.5q-53 65 -100 145l48 44q34 -36 61 -36zM563 248q30 32 30 75.5t-26.5 69t-61.5 25.5t-56.5 -21.5t-21.5 -55.5q0 -46 41 -69.5t87 -23.5h8zM489 -39l77 79l81 -79l-79 -77z" />
    <glyph glyph-name="uni0917093C094D0930094D" horiz-adv-x="278" 
d="M206 588v-298q0 -38 -8 -53.5t-27 -15.5q-37 0 -87 51t-50 88.5t67 37.5v190h-121l-63 87h381l64 -87h-156zM364 297l51 -49l-253 -252l-78 56zM268 -4l77 79l81 -79l-79 -77z" />
    <glyph glyph-name="uni091C093C094D0930094D" horiz-adv-x="486" 
d="M506 675l60 -87h-586l-60 87h586zM-6 56l77 79l81 -79l-79 -77zM409 475q54 0 104 -18.5t82 -43t59 -55.5q37 -41 55 -77l-281 -293l-79 55l282 257q-28 46 -77 63t-131 17h-74q63 -57 63 -139q0 -56 -33.5 -90.5t-94.5 -34.5q-40 0 -76 20t-62.5 50.5t-51.5 75.5
q-39 72 -76 176l58 33q57 -184 118 -232q28 -22 60 -22t50 18t18 51q0 67 -107 171l12 18h182z" />
    <glyph glyph-name="uni0928093C094D0930094D" horiz-adv-x="296" 
d="M316 675l60 -87h-396l-60 87h396zM411 324h-212v-82q0 -35 -31 -35q-36 0 -82.5 59t-46.5 102q0 52 68 52h257l121 -129l-264 -299l-79 55l269 264v13zM316 17l77 79l81 -79l-79 -77z" />
    <glyph glyph-name="uni092B093C094D0930094D" horiz-adv-x="568" 
d="M183 -19l77 79l81 -79l-79 -77zM58 436v152h-77l-60 87h667l60 -87h-203l-1 -140q40 31 87.5 31t92.5 -30t80 -76l-50 -41q-30 49 -82 49q-37 0 -71 -22t-55 -61v-298l-109 62l7 177l-229 -233l-78 56l194 172q-61 14 -117 78.5t-56 123.5zM232 310q60 0 106 63v215h-173
v-199q0 -36 18 -57.5t49 -21.5z" />
    <glyph glyph-name="uni092F093C094D0930094D" horiz-adv-x="359" 
d="M43 374q0 22 20 31q85 43 112 65t27 41t-15 42t-38 35h-169l-60 87h459l60 -87h-198q29 -23 48 -59t19 -60.5t-12.5 -43t-25 -27.5t-42 -28t-39 -25.5t-15.5 -10.5q-14 -11 -14 -23q0 -28 30 -48t63 -20q89 0 160 94l68 -71l-278 -280l-80 57l140 117q-68 2 -144 79.5
t-76 134.5zM295 -19l77 79l81 -79l-79 -77z" />
    <glyph glyph-name="uni0915094D0915" horiz-adv-x="1402" 
d="M959 588h-499q-2 -30 -5 -121q42 38 99.5 38t122.5 -63q19 33 53.5 50t73 17t72.5 -14l33 -99q-26 11 -63.5 11t-69 -25.5t-31.5 -68t28.5 -69t69.5 -26.5q78 0 116 84v286zM1158 505q73 0 143 -81.5t70 -163.5q0 -63 -40 -104.5t-106 -41.5q-41 0 -78 14l-28 102
q36 -14 73 -14t64.5 23t27.5 64t-25.5 70.5t-69.5 29.5q-76 0 -122 -88v-315l-108 63l4 98q-39 -41 -88 -41q-73 0 -146 76.5t-73 163.5v6q-28 37 -74 37q-76 0 -122 -88v-315l-109 58l5 101q-39 -39 -88 -39q-73 0 -146 76.5t-73 156t44 118t103 38.5q39 0 73 -14l33 -99
q-26 11 -63.5 11t-69 -25.5t-31.5 -68t28.5 -69t69.5 -26.5q78 0 116 84v286h-364l-60 87h1495l60 -87h-416q-1 -30 -5 -121q42 38 96 38z" />
    <glyph glyph-name="uni0915094D0916" horiz-adv-x="1370" 
d="M1183.5 280q10.5 23 10.5 56t-26.5 57.5t-62 24.5t-57.5 -21.5t-22 -55.5q0 -46 41 -69.5t88 -23.5h8q10 9 20.5 32zM866 588v-222q0 -96 -94 -112q33 -48 88 -81.5t116 -33.5q85 0 136 54q-77 9 -132 55.5t-55 121.5q0 56 40 94.5t95 38.5q72 0 123 -51v136h-317z
M760 388v200h-301q-1 -13 -5 -126q33 40 80 40q25 0 48 -13t35 -25.5t34.5 -41.5t30.5 -38q28 -26 50 -26q28 0 28 30zM1291 588v-588l-105 63l5 71q-30 -33 -81.5 -60t-106.5 -27t-105.5 20t-86.5 47.5t-74 73t-60.5 79t-52.5 82.5q-35 47 -67 47q-55 0 -98 -81v-315
l-109 58l5 101q-39 -39 -88 -39q-73 0 -146 76.5t-73 156t44 118t103 38.5q39 0 73 -14l33 -99q-26 11 -63.5 11t-69 -25.5t-31.5 -68t28.5 -69t69.5 -26.5q78 0 116 84v286h-364l-60 87h1463l60 -87h-159z" />
    <glyph glyph-name="uni0915094D091A" horiz-adv-x="1219" 
d="M1033 588h-581q-5 -60 -5 -135q29 31 80 31h391l60 -88h-95q-54 -8 -87 -37.5t-33 -67.5t24.5 -58.5t69 -20.5t92.5 36t84 99v241zM1140 588v-588l-108 66l5 126q-69 -73 -146 -73t-149 66.5t-72 141.5q0 20 11.5 40.5t28.5 31.5l-114 -4l-18 -1q-87 -5 -126 -79v-315
l-109 58l5 101q-39 -39 -88 -39q-73 0 -146 76.5t-73 156t44 118t103 38.5q39 0 73 -14l33 -99q-26 11 -63.5 11t-69 -25.5t-31.5 -68t28.5 -69t69.5 -26.5q78 0 116 84v286h-364l-60 87h1319l54 -87h-153z" />
    <glyph glyph-name="uni0915094D091C" horiz-adv-x="1294" 
d="M1107 466v122h-655q-2 -30 -5 -121q42 38 93 38q81 0 147 -107q68 -190 156 -190q33 0 51 18t18 51q0 67 -107 171l12 18h290zM1215 588v-588l-108 66v305h-168q63 -57 63 -139q0 -56 -33.5 -90.5t-94.5 -34.5q-83 0 -143 77q-54 69 -94 168q-28 51 -69 51
q-70 0 -116 -88v-315l-109 58l5 101q-39 -39 -88 -39q-73 0 -146 76.5t-73 156t44 118t103 38.5q39 0 73 -14l33 -99q-26 11 -63.5 11t-69 -25.5t-31.5 -68t28.5 -69t69.5 -26.5q78 0 116 84v286h-364l-60 87h1395l60 -87h-160z" />
    <glyph glyph-name="uni0915094D091F" horiz-adv-x="1082" 
d="M883 588h-431q-2 -30 -5 -121q42 38 100.5 38t123.5 -65q49 44 126 44h86v104zM991 385h-147q-56 0 -92.5 -30.5t-36.5 -89t37 -90.5t94 -32q89 0 155 72l67 -90q-75 -81 -174.5 -81t-187 85.5t-87.5 184.5q0 40 13 69q-25 20 -58 20q-76 0 -122 -88v-315l-109 58l5 101
q-39 -39 -88 -39q-73 0 -146 76.5t-73 156t44 118t103 38.5q39 0 73 -14l33 -99q-26 11 -63.5 11t-69 -25.5t-31.5 -68t28.5 -69t69.5 -26.5q78 0 116 84v286h-364l-60 87h1182l57 -87h-168v-203z" />
    <glyph glyph-name="uni0915094D0923" horiz-adv-x="1332" 
d="M908 359v229h-152v-222q0 -44 21.5 -71t56.5 -27q74 0 74 91zM650 588h-198q-2 -30 -5 -121q42 38 94.5 38t108.5 -46v129zM1253 588v-588l-108 66v522h-130v-260q0 -68 -37 -108t-101.5 -40t-130 53.5t-87.5 117.5q-32 52 -85 52q-76 0 -122 -88v-315l-109 58l5 101
q-39 -39 -88 -39q-73 0 -146 76.5t-73 156t44 118t103 38.5q39 0 73 -14l33 -99q-26 11 -63.5 11t-69 -25.5t-31.5 -68t28.5 -69t69.5 -26.5q78 0 116 84v286h-364l-60 87h1432l60 -87h-159z" />
    <glyph glyph-name="uni0915094D0924" horiz-adv-x="900" 
d="M523 588v-173q55 36 116 36q73 0 144 -89.5t71 -173.5q0 -66 -42 -109.5t-109 -43.5q-41 0 -76 13l-28 103q35 -14 72 -14t66 25t29 69t-29 80.5t-73 36.5q-76 0 -141 -72v-276l-105 62v299h-131q-51 0 -77 -29.5t-26 -78.5q0 -87 104 -215l-55 -38q-62 76 -103.5 161.5
t-41.5 152.5q0 39 24 56l-92 -3l-60 94h458v127h-439l-60 87h1001l60 -87h-457z" />
    <glyph glyph-name="uni0915094D0925" horiz-adv-x="1232" 
d="M1153 588v-588l-108 66l5 132q-67 -69 -148 -69q-52 0 -112 34t-100 84t-40 94q0 11 4 18q-31 44 -80 44q-76 0 -122 -88v-315l-109 58l5 101q-39 -39 -88 -39q-73 0 -146 76.5t-73 156t44 118t103 38.5q39 0 73 -14l33 -99q-26 11 -63.5 11t-69 -25.5t-31.5 -68
t28.5 -69t69.5 -26.5q78 0 116 84v286h-364l-60 87h649l60 -87h-177q-2 -30 -5 -121q42 38 90.5 38t92.5 -30t78 -81q123 63 153 105q15 21 15 44.5t-20 41.5t-47.5 18t-48 -18t-20.5 -46.5t27 -53.5l-48 -32q-65 62 -65 122q0 47 37 77.5t85 30.5q71 0 129.5 -64.5
t58.5 -122.5q0 -57 -61 -103q-33 -25 -65 -44t-36.5 -21.5t-9.5 -6.5t-6.5 -5t-6 -4.5t-6 -6t-3.5 -5.5q-5 -7 -5 -16q0 -27 27 -43.5t69 -16.5t93 33.5t91 81.5v249h-58l-60 87h325l60 -87h-159z" />
    <glyph glyph-name="uni0915094D0926" horiz-adv-x="1096" 
d="M880 588h-428q-2 -30 -5 -121q42 38 97.5 38t115.5 -55q47 41 131 41h89v97zM987 392h-150q-133 0 -133 -110q0 -54 36.5 -90t89.5 -36q38 0 58 16l7 5q-21 32 -21 61t24 49.5t55 20.5t62.5 -40.5t31.5 -73.5t-43 -74l103 -123l-63 -43l-89 133q-39 -22 -84 -22
q-92 0 -176.5 81.5t-84.5 181.5q0 36 10 63q-20 12 -46 12q-76 0 -122 -88v-315l-109 58l5 101q-39 -39 -88 -39q-73 0 -146 76.5t-73 156t44 118t103 38.5q39 0 73 -14l33 -99q-26 11 -63.5 11t-69 -25.5t-31.5 -68t28.5 -69t69.5 -26.5q78 0 116 84v286h-364l-60 87h1197
l53 -87h-183v-196z" />
    <glyph glyph-name="uni0915094D092A" horiz-adv-x="1108" 
d="M921 588h-181v-208q0 -37 19 -57t51.5 -20t63 20.5t47.5 48.5v216zM633 588h-181q-2 -30 -5 -121q42 38 90 38t96 -33v116zM1028 588v-588l-106 66l7 173q-48 -29 -82 -29q-49 0 -113.5 50t-89.5 111q-29 32 -70 32q-76 0 -122 -88v-315l-109 58l5 101q-39 -39 -88 -39
q-73 0 -146 76.5t-73 156t44 118t103 38.5q39 0 73 -14l33 -99q-26 11 -63.5 11t-69 -25.5t-31.5 -68t28.5 -69t69.5 -26.5q78 0 116 84v286h-364l-60 87h1207l60 -87h-159z" />
    <glyph glyph-name="uni0915094D092B" horiz-adv-x="1363" 
d="M909 588h-173v-199q0 -36 18 -57.5t49 -21.5q60 0 106 63v215zM629 588h-177q-2 -30 -5 -121q42 38 90 38t92 -30v113zM1111 479q68 0 141.5 -79t73.5 -154t-40 -115t-110 -40q-29 0 -67 8l-36 104q32 -11 70 -11t64.5 23.5t26.5 66t-25.5 71t-65.5 28.5q-81 0 -126 -83
v-298l-109 66l7 173q-37 -24 -77.5 -24t-100 46.5t-89.5 105.5q-30 36 -74 36q-76 0 -122 -88v-315l-109 58l5 101q-39 -39 -88 -39q-73 0 -146 76.5t-73 156t44 118t103 38.5q39 0 73 -14l33 -99q-26 11 -63.5 11t-69 -25.5t-31.5 -68t28.5 -69t69.5 -26.5q78 0 116 84v286
h-364l-60 87h1463l60 -87h-427l-1 -140q40 31 96 31z" />
    <glyph glyph-name="uni0915094D092E" horiz-adv-x="1170" 
d="M991 377v211h-191v-211h191zM696 588h-245q-1 -13 -5 -126q38 43 86 43q94 0 164 -121v204zM1099 588v-588l-108 67v210h-191v-59q0 -32 -30 -32q-34 0 -90 54.5t-56 93.5q0 14 8 24q-38 41 -79 41q-62 0 -102 -84v-315l-109 58l6 101q-39 -39 -89 -39q-73 0 -146 76.5
t-73 156t44 118t103 38.5q41 0 73 -14l33 -99q-26 11 -63.5 11t-69 -25.5t-31.5 -68t28.5 -69t68.5 -26.5t70 23t47 61v286h-363l-60 87h1278l57 -87h-156z" />
    <glyph glyph-name="uni0915094D092F" horiz-adv-x="1193" 
d="M1006 588h-178q29 -23 48 -59t19 -60.5t-12.5 -43t-25 -27.5t-42 -28t-39 -25.5t-14.5 -10.5q-15 -11 -15 -23q0 -28 30 -48t63 -20q101 0 166 111v234zM543 505q72 0 143 -81q62 33 82.5 51.5t20.5 36.5t-15 41t-38 35h-284q-2 -30 -5 -121q42 38 96 38zM1113 588v-588
l-108 67l4 135q-59 -59 -126 -59q-50 0 -110.5 40.5t-101.5 95.5t-41 95q0 7 1 10q-24 19 -57 19q-76 0 -122 -88v-315l-109 58l5 101q-39 -39 -88 -39q-73 0 -146 76.5t-73 156t44 118t103 38.5q39 0 73 -14l33 -99q-26 11 -63.5 11t-69 -25.5t-31.5 -68t28.5 -69
t69.5 -26.5q78 0 116 84v286h-364l-60 87h1292l60 -87h-159z" />
    <glyph glyph-name="uni0915094D0932" horiz-adv-x="1313" 
d="M1126 588h-674q-2 -30 -5 -121q42 38 100 38t119 -61q47 45 118.5 45t127.5 -58q44 56 116 56q48 0 98 -33v134zM1234 588v-588l-108 67v319q-25 9 -51 9q-51 0 -74.5 -34.5t-23.5 -86.5t20 -104l-96 32q-27 51 -27 98.5t10 72.5q-27 20 -68 20t-69.5 -31t-28.5 -90
t44.5 -116t117.5 -117l-54 -39q-210 181 -210 321q0 35 12 65q-23 17 -54 17q-76 0 -122 -88v-315l-109 58l5 101q-39 -39 -88 -39q-73 0 -146 76.5t-73 156t44 118t103 38.5q39 0 73 -14l33 -99q-26 11 -63.5 11t-69 -25.5t-31.5 -68t28.5 -69t69.5 -26.5q78 0 116 84v286
h-364l-60 87h1413l60 -87h-159z" />
    <glyph glyph-name="uni0915094D0935" horiz-adv-x="1175" 
d="M839 429q-47 0 -79.5 -38.5t-32.5 -81.5t23 -68t64.5 -25t89.5 37t85 94l-3 241h-534q-2 -30 -5 -121q42 38 97.5 38t114.5 -54q23 35 59 54.5t74 19.5q89 0 164 -89l-30 -49q-40 42 -87 42zM1096 588v-588l-110 72l5 119q-64 -66 -138.5 -66t-147 72t-72.5 159q0 9 2 25
q-25 22 -61 22q-76 0 -122 -88v-315l-109 58l5 101q-39 -39 -88 -39q-73 0 -146 76.5t-73 156t44 118t103 38.5q39 0 73 -14l33 -99q-26 11 -63.5 11t-69 -25.5t-31.5 -68t28.5 -69t69.5 -26.5q78 0 116 84v286h-364l-60 87h1275l60 -87h-159z" />
    <glyph glyph-name="uni0915094D0936" horiz-adv-x="1305" 
d="M690 551q0 54 37 93.5t92 39.5q80 0 143.5 -79.5t63.5 -165.5t-60.5 -143.5t-155.5 -57.5q55 -67 182 -194l-69 -44q-185 211 -248 293t-81.5 95.5t-41.5 13.5q-64 0 -100 -87v-315l-109 58l5 101q-39 -39 -88 -39q-73 0 -146 76.5t-73 156t44 118t103 38.5q39 0 73 -14
l33 -99q-26 11 -63.5 11t-69 -25.5t-31.5 -68t28.5 -69t69.5 -26.5q78 0 116 84v286h-364l-60 87h663l60 -87h-191q-4 -80 -4 -127q43 43 92 43q69 0 155 -120q52 -46 92 -46q68 0 109.5 40.5t41.5 108.5q0 43 -21.5 71.5t-54 28.5t-51 -19.5t-18.5 -51.5q0 -49 66 -75
l-32 -46q-50 17 -93.5 59.5t-43.5 96.5zM1226 588v-588l-108 66v522h-75l-50 87h332l50 -87h-149z" />
    <glyph glyph-name="uni0915094D0938" horiz-adv-x="1252" 
d="M1069 588h-211v-198q45 -40 98 -40q71 0 113 45v193zM751 387v201h-299q-1 -13 -5 -126q36 43 83 43q48 0 83 -37q21 -22 41 -48t26 -33q30 -28 48 -28q23 0 23 28zM1174 588v-588l-105 66l5 212q-31 -23 -72 -23q-72 0 -152 62q-15 -48 -79 -60q67 -98 181 -216l-73 -42
q-159 192 -252 333l-1 -1q-15 24 -24 35q-24 33 -52 33q-59 0 -98 -84v-315l-109 58l5 101q-39 -39 -88 -39q-73 0 -146 76.5t-73 156t44 118t103 38.5q39 0 73 -14l33 -99q-26 11 -63.5 11t-69 -25.5t-31.5 -68t28.5 -69t69.5 -26.5q78 0 116 84v286h-364l-60 87h1353
l60 -87h-159z" />
    <glyph glyph-name="uni0916094D0916" horiz-adv-x="1333" 
d="M1146 280q11 23 11 56t-26.5 57.5t-62.5 24.5t-57.5 -21.5t-21.5 -55.5q0 -46 41 -69.5t87 -23.5h8q10 9 21 32zM828 588v-222q0 -96 -94 -112q33 -48 88 -81.5t117 -33.5q86 0 135 54q-76 9 -131 55.5t-55 121.5q0 56 39.5 94.5t103 38.5t114.5 -51l1 136h-318zM722 388
v200h-456v-222q0 -96 -94 -112q33 -48 88 -81.5t116 -33.5q85 0 136 54q-77 9 -132 55.5t-55 121.5q0 56 40 94.5t102.5 38.5t115.5 -50q34 -27 56 -63q30 -32 56.5 -32t26.5 30zM563 248q29 31 29 75t-26.5 69.5t-61 25.5t-56.5 -21.5t-22 -55.5q0 -46 41 -69.5t88 -23.5h8
zM1254 588v-588l-105 63l4 71q-30 -33 -81 -60t-108 -27q-166 0 -306 194q-23 -88 -100.5 -141t-149.5 -53t-128 25.5t-104.5 75.5t-80 93t-72.5 109l48 44q35 -36 62 -36t27 30v200h-180l-60 87h1433l60 -87h-159z" />
    <glyph glyph-name="uni0916094D0924" horiz-adv-x="1105" 
d="M922 461v127h-656v-222q0 -96 -94 -112q33 -48 88 -81.5t116 -33.5q85 0 136 54q-77 9 -132 55.5t-55 121.5q0 56 40 94.5t102.5 38.5t115.5 -50q24 -20 41 -41q41 49 133 49h165zM426 341q0 -46 41 -69.5t88 -23.5h8q29 31 29 75t-26.5 69.5t-61 25.5t-56.5 -21.5
t-22 -55.5zM1027 588v-588l-105 64v297h-131q-50 0 -76.5 -29.5t-26.5 -78.5q0 -87 104 -215l-55 -38q-70 85 -109 172q-37 -58 -101.5 -91.5t-127.5 -33.5t-119 25.5t-104.5 75.5t-80 93t-72.5 109l48 44q35 -36 62 -36t27 30v200h-180l-60 87h1206l60 -87h-159z" />
    <glyph glyph-name="uni0916094D092E" horiz-adv-x="1139" 
d="M952 377v211h-190v-211h190zM646 377h11v211h-391v-222q0 -96 -94 -112q33 -48 88 -81.5t116 -33.5q85 0 136 54q-77 9 -132 55.5t-55 121.5q0 56 40 94.5t102.5 38.5t115.5 -50q40 -32 63 -76zM563 248q29 31 29 75t-26.5 69.5t-61 25.5t-56.5 -21.5t-22 -55.5
q0 -46 41 -69.5t88 -23.5h8zM1060 588v-588l-108 67v210h-190v-59q0 -32 -31 -32t-76 42q-27 -83 -102.5 -132t-146 -49t-126.5 25.5t-104.5 75.5t-80 93t-72.5 109l48 44q35 -36 62 -36t27 30v200h-180l-60 87h1239l57 -87h-156z" />
    <glyph glyph-name="uni0916094D092F" horiz-adv-x="1149" 
d="M963 588h-178q29 -23 48 -59t19 -60.5t-12.5 -43t-25 -27.5t-42 -28t-39 -25.5t-15.5 -10.5q-14 -11 -14 -23q0 -28 30 -48t63 -20q101 0 166 111v234zM563 248q29 31 29 75t-26.5 69.5t-61 25.5t-56.5 -21.5t-22 -55.5q0 -46 41 -69.5t88 -23.5h8zM266 588v-222
q0 -96 -94 -112q33 -48 88 -81.5t116 -33.5q85 0 136 54q-77 9 -132 55.5t-55 121.5q0 56 40 94.5t102.5 38.5t115.5 -50q24 -19 40 -40q75 39 99 59t24 39t-15 42t-38 35h-427zM1070 588v-588l-108 67l4 135q-59 -59 -126 -59q-41 0 -90.5 28.5t-90.5 72.5
q-22 -89 -100 -143t-150.5 -54t-128.5 25.5t-104.5 75.5t-80 93t-72.5 109l48 44q35 -36 62 -36t27 30v200h-180l-60 87h1249l60 -87h-159z" />
    <glyph glyph-name="uni0916094D0935" horiz-adv-x="1133" 
d="M798 429q-47 0 -79.5 -38.5t-32.5 -81.5t23 -68t64.5 -25t89.5 37t85 94l-3 241h-679v-222q0 -96 -94 -112q33 -48 88 -81.5t116 -33.5q85 0 136 54q-77 9 -132 55.5t-55 121.5q0 56 40 94.5t102.5 38.5t115.5 -50q9 -7 24 -22q20 44 60 69t84 25q89 0 164 -89l-30 -49
q-40 42 -87 42zM563 248q29 31 29 75t-26.5 69.5t-61 25.5t-56.5 -21.5t-22 -55.5q0 -46 41 -69.5t88 -23.5h8zM1055 588v-588l-110 72l5 119q-64 -66 -138 -66q-40 0 -84.5 24.5t-78.5 63.5q-30 -76 -103 -121t-141.5 -45t-124.5 25.5t-104.5 75.5t-80 93t-72.5 109l48 44
q35 -36 62 -36t27 30v200h-180l-60 87h1234l60 -87h-159z" />
    <glyph glyph-name="uni0916094D0936" horiz-adv-x="1262" 
d="M563 248q29 31 29 75t-26.5 69.5t-61 25.5t-56.5 -21.5t-22 -55.5q0 -46 41 -69.5t88 -23.5h8zM648 551q0 54 36.5 93.5t91.5 39.5q80 0 143.5 -79.5t63.5 -165.5t-60.5 -143.5t-155.5 -57.5q54 -63 182 -194l-69 -44q-109 125 -218 257q-18 -95 -98 -152.5t-164 -57.5
q-127 0 -224 101q-49 50 -80.5 93t-72.5 109l48 44q35 -36 62 -36t27 30v200h-180l-60 87h631l60 -87h-345v-222q0 -96 -94 -112q33 -48 88 -81.5t116 -33.5q85 0 136 54q-77 9 -132 55.5t-55 121.5q0 56 40 94.5t102.5 38.5t115.5 -50q34 -29 55 -62q43 -53 109 -53
t107.5 40.5t41.5 108.5q0 43 -22 71.5t-54 28.5t-51 -19.5t-19 -51.5q0 -49 66 -75l-32 -46q-50 17 -93 59.5t-43 96.5zM1183 588v-588l-108 66v522h-74l-51 87h318l50 -87h-135z" />
    <glyph glyph-name="uni0917094D0917" horiz-adv-x="772" 
d="M693 588v-588l-108 69v519h-129v-298q0 -38 -8 -53.5t-27 -15.5q-37 0 -87 51t-50 88.5t67 37.5v190h-145v-298q0 -38 -8 -53.5t-27 -15.5q-37 0 -87 51t-50 88.5t67 37.5v190h-121l-63 87h875l64 -87h-163z" />
    <glyph glyph-name="uni0917094D0918" horiz-adv-x="892" 
d="M705 588h-209q-24 -7 -41.5 -31.5t-17.5 -55.5t32 -60q26 6 57 6t65 -9l31 -100q-44 11 -78 11q-108 0 -108 -68q0 -33 27.5 -55.5t74.5 -22.5t92.5 32.5t74.5 76.5v276zM813 588v-588l-108 66l6 103q-62 -57 -129 -57q-89 0 -165 67t-76 146q0 65 65 98q-70 47 -70 106
q0 37 22 59h-152v-298q0 -38 -8 -53.5t-27 -15.5q-37 0 -87 51t-50 88.5t67 37.5v190h-121l-63 87h995l59 -87h-158z" />
    <glyph glyph-name="uni0917094D091C" horiz-adv-x="988" 
d="M910 588v-588l-108 66v305h-168q63 -57 63 -139q0 -56 -33.5 -90.5t-94.5 -34.5q-40 0 -76 20t-62.5 50.5t-51.5 76.5q-40 73 -75 175l57 33q77 -254 177 -254q69 0 69 68t-107 172l12 18h290v122h-596v-298q0 -38 -8 -53.5t-27 -15.5q-37 0 -87 51t-50 88.5t67 37.5v190
h-121l-63 87h1093l60 -87h-160z" />
    <glyph glyph-name="uni0917094D0923" horiz-adv-x="1032" 
d="M607 359v229h-152v-222q0 -44 21.5 -71t56.5 -27q74 0 74 91zM952 588v-588l-108 66v522h-130v-260q0 -68 -37 -108t-101 -40t-135 57q-42 34 -67 78.5t-25 85.5v187h-143v-298q0 -38 -8 -53.5t-27 -15.5q-37 0 -87 51t-50 88.5t67 37.5v190h-121l-63 87h1134l60 -87
h-159z" />
    <glyph glyph-name="uni0917094D0926" horiz-adv-x="803" 
d="M694 392h-150q-133 0 -133 -110q0 -54 36.5 -90t89.5 -36q38 0 58 16l7 5q-21 32 -21 61t24 49.5t55 20.5t62.5 -40.5t31.5 -73.5t-43 -74l103 -123l-63 -43l-89 133q-39 -22 -84 -22q-92 0 -176.5 81.5t-84.5 181.5q0 72 45.5 117.5t135.5 45.5h89v97h-381v-298
q0 -38 -8 -53.5t-27 -15.5q-37 0 -87 51t-50 88.5t67 37.5v190h-121l-63 87h907l53 -87h-183v-196z" />
    <glyph glyph-name="uni0917094D0927" 
 />
    <glyph glyph-name="uni0917094D092C" horiz-adv-x="872" 
d="M432 385q-23 -30 -23 -71t30.5 -71t66.5 -30t69 18zM793 588v-588l-109 72l5 129q-22 -25 -62.5 -46t-80.5 -21q-81 0 -151 67.5t-70 145t52.5 125t115.5 47.5q89 0 157 -79l-36 -48q-42 42 -87 42q-26 0 -53 -15l146 -158q34 29 66 76l-2 251h-478v-298q0 -38 -8 -53.5
t-27 -15.5q-37 0 -87 51t-50 88.5t67 37.5v190h-121l-63 87h975l60 -87h-159z" />
    <glyph glyph-name="uni0917094D092D" horiz-adv-x="853" 
d="M774 588v-588l-108 67v212h-174v-59q0 -33 -31 -33q-34 0 -90 56.5t-56 95.5q0 20 16 29.5t55 9.5v155q0 24 -14.5 39.5t-38.5 15.5h-127v-298q0 -38 -8 -53.5t-27 -15.5q-37 0 -87 51t-50 88.5t67 37.5v190h-121l-63 87h382q56 0 99 -37l50 -44q42 -39 42 -102v-114h176
v210h-101l-59 87h367l59 -87h-158z" />
    <glyph glyph-name="uni0917094D092E" horiz-adv-x="864" 
d="M677 377v211h-191v-211h191zM785 588v-588l-108 67v210h-191v-59q0 -32 -30 -32q-34 0 -90 54.5t-56 93.5q0 43 65 43h7v211h-176v-298q0 -38 -8 -53.5t-27 -15.5q-37 0 -87 51t-50 88.5t67 37.5v190h-121l-63 87h967l57 -87h-156z" />
    <glyph glyph-name="uni0917094D092F" horiz-adv-x="885" 
d="M699 588h-178q29 -23 48 -59t19 -60.5t-12.5 -43t-25 -27.5t-37 -25t-25.5 -16.5t-3.5 -2t-4 -2.5t-3.5 -2.5t-9.5 -6.5l-13.5 -9q-14 -11 -14 -23q0 -28 30 -48t63 -20q101 0 166 111v234zM806 588v-588l-108 67l4 135q-59 -59 -126 -59q-50 0 -110.5 40.5t-101.5 95.5
t-41 95q0 22 20 31q85 43 112 65t27 41t-15 42t-38 35h-223v-298q0 -38 -8 -53.5t-27 -15.5q-37 0 -87 51t-50 88.5t67 37.5v190h-121l-63 87h988l60 -87h-159z" />
    <glyph glyph-name="uni0917094D0932" horiz-adv-x="1032" 
d="M953 588v-588l-108 67v319q-25 9 -51 9q-51 0 -74.5 -34.5t-23.5 -86.5t20 -104l-96 32q-27 51 -27 98.5t10 72.5q-27 20 -68 20t-69.5 -31t-28.5 -90t44.5 -116t117.5 -117l-54 -39q-210 181 -210 321q0 72 46.5 120t120 48t129.5 -58q44 56 116 56q48 0 98 -33v134
h-639v-298q0 -38 -8 -53.5t-27 -15.5q-37 0 -87 51t-50 88.5t67 37.5v190h-121l-63 87h1135l60 -87h-159z" />
    <glyph glyph-name="uni0917094D0935" horiz-adv-x="867" 
d="M789 588v-588l-110 72l5 119q-64 -66 -138.5 -66t-147 72t-72.5 153.5t48.5 128t110.5 46.5q89 0 164 -89l-30 -49q-40 42 -87 42t-79.5 -38.5t-32.5 -81.5t23 -68t64.5 -25t89.5 37t85 94l-3 241h-473v-298q0 -38 -8 -53.5t-27 -15.5q-37 0 -87 51t-50 88.5t67 37.5v190
h-121l-63 87h971l60 -87h-159z" />
    <glyph glyph-name="uni0917094D0938" horiz-adv-x="936" 
d="M753 588h-211v-198q45 -40 98 -40q71 0 113 45v193zM858 588v-588l-105 66l5 212q-31 -23 -72 -23q-72 0 -152 62q-15 -48 -79 -60q67 -98 181 -216l-73 -42q-163 197 -264 350l53 48q41 -38 60 -38q23 0 23 28v201h-229v-298q0 -38 -8 -53.5t-27 -15.5q-37 0 -87 51
t-50 88.5t67 37.5v190h-121l-63 87h1040l60 -87h-159z" />
    <glyph glyph-name="uni0918094D092E" horiz-adv-x="936" 
d="M750 377v211h-191v-211h191zM262 349q-108 0 -108 -68q0 -33 27.5 -55.5t67.5 -22.5q79 0 153 81q-19 28 -19 50q0 43 65 43h7v211h-241q-24 -7 -41.5 -31.5t-17.5 -55.5t32 -60q25 6 56.5 6t65.5 -9l31 -100q-44 11 -78 11zM78 590l-51 -2h-47l-60 87h1037l57 -87h-156
v-588l-108 67v210h-191v-59q0 -32 -30 -32q-21 0 -57 26q-82 -100 -171.5 -100t-165.5 67t-76 146q0 65 65 98q-70 47 -70 106q0 39 24 61z" />
    <glyph glyph-name="uni0918094D092F" horiz-adv-x="940" 
d="M754 588h-178q29 -23 48 -59t19 -60.5t-12.5 -43t-25 -27.5t-42 -28t-39 -25.5t-14.5 -10.5q-15 -11 -15 -23q0 -28 30 -48t63 -20q101 0 166 111v234zM262 349q-108 0 -108 -68q0 -33 27.5 -55.5t67.5 -22.5q83 0 161 90q-32 46 -32 74.5t20 37.5q85 43 112 65t27 41
t-15 42t-38 35h-270q-24 -7 -41.5 -31.5t-17.5 -55.5t32 -60q25 6 56.5 6t65.5 -9l31 -100q-44 11 -78 11zM78 590l-51 -2h-47l-60 87h1040l60 -87h-159v-588l-108 67l4 135q-59 -59 -127.5 -59t-152.5 75q-84 -106 -175 -106t-167 67t-76 146q0 65 65 98q-70 47 -70 106
q0 39 24 61z" />
    <glyph glyph-name="uni091A094D091A" horiz-adv-x="1023" 
d="M253 358.5q-33 -29.5 -33 -67.5t24.5 -58.5t60.5 -20.5q96 0 169 111v4q0 20 11.5 40.5t28.5 31.5l-79 -3h-6l-29 -1l-1 1h-59q-54 -8 -87 -37.5zM944 588v-588l-108 66l5 126q-69 -73 -153 -73q-42 0 -89.5 27.5t-80.5 69.5q-48 -54 -89.5 -75.5t-87.5 -21.5
q-70 0 -142 66.5t-72 141.5q0 20 11.5 40.5t28.5 31.5l-114 -4l-60 89h729l60 -88h-95q-54 -8 -87 -37.5t-33 -67.5t24.5 -58.5t69 -20.5t92.5 36t84 99v241h-857l-54 87h1117l54 -87h-153z" />
    <glyph glyph-name="uni091A094D091B" horiz-adv-x="1103" 
d="M938.5 296q16.5 42 16.5 76q0 71 -43 71q-31 0 -50.5 -30t-19.5 -71q0 -56 63 -108q17 20 33.5 62zM940 588v-81q43 -26 69 -77t26 -104q0 -81 -48 -155q68 -48 119 -81l-50 -59q-3 2 -53.5 41t-57.5 45q-92 -92 -217 -92q-70 0 -134 34t-96 88q-93 -68 -178 -68
q-70 0 -142 66t-72 141q0 45 40 73l-114 -4l-60 89h382l60 -89h-95q-54 -8 -87 -37t-33 -67t24.5 -58.5t65.5 -20.5t94.5 26t94.5 67q9 29 32 47q-67 57 -67 112t40 85t110 30q34 0 84 -10l34 -96q-43 9 -79 9q-92 0 -92 -54q0 -24 31 -50q25 6 57 6t69 -8l39 -97
q-43 9 -77.5 9t-62.5 -14.5t-28 -49t31.5 -53t80.5 -18.5q106 0 181 72q-112 101 -112 205q0 47 24 83t62 48v67h-855l-54 87h1197l60 -87h-243z" />
    <glyph glyph-name="uni091A094D092E" horiz-adv-x="1015" 
d="M828 377v211h-191v-211h191zM936 588v-588l-108 67v210h-191v-59q0 -32 -30 -32t-78 43q-52 -62 -95.5 -86t-92.5 -24q-70 0 -142 66.5t-72 141.5q0 20 11.5 40.5t28.5 31.5l-114 -4l-60 89h382l60 -88h-95q-54 -8 -87 -37.5t-33 -67.5t24.5 -58.5t60.5 -20.5
q89 0 161 99q-5 13 -5 23q0 43 65 43h7v211h-553l-54 87h1109l57 -87h-156z" />
    <glyph glyph-name="uni091A094D092F" horiz-adv-x="1024" 
d="M837 588h-178q29 -23 48 -59t19 -60.5t-12.5 -43t-25 -27.5t-42 -28t-39 -25.5t-15.5 -10.5q-14 -11 -14 -23q0 -28 30 -48t63 -20q101 0 166 111v234zM944 588v-588l-108 67l4 135q-59 -59 -126 -59q-40 0 -87.5 27t-89.5 69q-55 -67 -100 -93.5t-96 -26.5
q-70 0 -142 66.5t-72 141.5q0 20 11.5 40.5t28.5 31.5l-114 -4l-60 89h382l60 -88h-95q-54 -8 -87 -37.5t-33 -67.5t24.5 -58.5t60.5 -20.5q96 0 170 112q-14 28 -14 50t20 31q85 43 112 65t27 41t-15 42t-38 35h-587l-54 87h1117l60 -87h-159z" />
    <glyph glyph-name="uni091B094D092F" horiz-adv-x="1228" 
d="M541 295.5q16 42.5 16 76.5q0 71 -42 71q-32 0 -51 -30t-19 -71q0 -55 62 -108q18 19 34 61.5zM1149 588v-588l-108 64l4 98q-61 -69 -132 -69t-146.5 61t-75.5 119q0 21 22 34q88 47 102 65q4 6 4 11q0 22 -69 22h-127q15 -37 15 -79q0 -81 -48 -155q10 -8 60 -42
t59 -39l-50 -59q-69 50 -112 86q-92 -92 -216 -92q-98 0 -177 62t-79 146q0 48 37 79q-67 59 -67 113t40 84t111 30q34 0 84 -10l33 -96q-42 9 -78 9q-92 0 -92 -54q0 -24 31 -50q26 6 57.5 6t68.5 -8l38 -97q-41 9 -76.5 9t-63.5 -14.5t-28 -48.5t32 -53t80 -19
q105 0 182 72q-113 100 -113 205q0 59 36 98.5t81 39.5t80 -24h163q71 0 143 -51t72 -94q0 -32 -91 -96q-30 -22 -30 -41t17 -31.5t41 -12.5q51 0 103.5 43.5t75.5 86.5v280h-1062l-60 87h1328l57 -87h-156z" />
    </font>
</defs>
</svg>
